<svg xmlns="http://www.w3.org/2000/svg" xmlns:xlink="http://www.w3.org/1999/xlink" viewBox="0 0 327.773 425.125"><defs><style>.cls-1{isolation:isolate;}.cls-2{fill:url(#Áåçûìÿííûé_ãðàäèåíò_1521);}.cls-3{fill:url(#Áåçûìÿííûé_ãðàäèåíò_1200);}.cls-4{fill:#900040;opacity:0.39;}.cls-22,.cls-23,.cls-24,.cls-25,.cls-26,.cls-27,.cls-28,.cls-29,.cls-30,.cls-32,.cls-33,.cls-34,.cls-35,.cls-36,.cls-37,.cls-38,.cls-4,.cls-40,.cls-41,.cls-42,.cls-46,.cls-47,.cls-48,.cls-49,.cls-50,.cls-51,.cls-52,.cls-53,.cls-54,.cls-55,.cls-56,.cls-57,.cls-58,.cls-65,.cls-66,.cls-67,.cls-68,.cls-69,.cls-70,.cls-71,.cls-72,.cls-73{mix-blend-mode:multiply;}.cls-10,.cls-11,.cls-12,.cls-13,.cls-14,.cls-15,.cls-16,.cls-17,.cls-18,.cls-19,.cls-20,.cls-21,.cls-5,.cls-6,.cls-7,.cls-8,.cls-9{opacity:0.29;}.cls-10,.cls-100,.cls-101,.cls-102,.cls-103,.cls-104,.cls-105,.cls-106,.cls-107,.cls-108,.cls-109,.cls-11,.cls-110,.cls-111,.cls-112,.cls-113,.cls-114,.cls-115,.cls-116,.cls-118,.cls-12,.cls-120,.cls-121,.cls-122,.cls-123,.cls-124,.cls-125,.cls-126,.cls-127,.cls-128,.cls-129,.cls-13,.cls-130,.cls-131,.cls-132,.cls-133,.cls-134,.cls-135,.cls-136,.cls-137,.cls-138,.cls-139,.cls-14,.cls-140,.cls-141,.cls-142,.cls-143,.cls-144,.cls-145,.cls-146,.cls-147,.cls-148,.cls-15,.cls-150,.cls-151,.cls-152,.cls-153,.cls-154,.cls-155,.cls-156,.cls-157,.cls-158,.cls-159,.cls-16,.cls-160,.cls-161,.cls-162,.cls-163,.cls-164,.cls-165,.cls-166,.cls-167,.cls-168,.cls-169,.cls-17,.cls-170,.cls-171,.cls-172,.cls-173,.cls-18,.cls-19,.cls-20,.cls-21,.cls-39,.cls-43,.cls-44,.cls-45,.cls-5,.cls-59,.cls-6,.cls-60,.cls-61,.cls-62,.cls-63,.cls-64,.cls-7,.cls-76,.cls-77,.cls-78,.cls-79,.cls-8,.cls-80,.cls-81,.cls-82,.cls-83,.cls-84,.cls-85,.cls-86,.cls-87,.cls-88,.cls-89,.cls-9,.cls-90,.cls-91,.cls-92,.cls-93,.cls-94,.cls-95,.cls-96,.cls-97,.cls-98,.cls-99{mix-blend-mode:screen;}.cls-5{fill:url(#Áåçûìÿííûé_ãðàäèåíò_37);}.cls-6{fill:url(#Áåçûìÿííûé_ãðàäèåíò_37-2);}.cls-7{fill:url(#Áåçûìÿííûé_ãðàäèåíò_37-3);}.cls-8{fill:url(#Áåçûìÿííûé_ãðàäèåíò_37-4);}.cls-9{fill:url(#Áåçûìÿííûé_ãðàäèåíò_37-5);}.cls-10{fill:url(#Áåçûìÿííûé_ãðàäèåíò_37-6);}.cls-11{fill:url(#Áåçûìÿííûé_ãðàäèåíò_37-7);}.cls-12{fill:url(#Áåçûìÿííûé_ãðàäèåíò_37-8);}.cls-13{fill:url(#Áåçûìÿííûé_ãðàäèåíò_37-9);}.cls-14{fill:url(#Áåçûìÿííûé_ãðàäèåíò_37-10);}.cls-15{fill:url(#Áåçûìÿííûé_ãðàäèåíò_37-11);}.cls-16{fill:url(#Áåçûìÿííûé_ãðàäèåíò_37-12);}.cls-17{fill:url(#Áåçûìÿííûé_ãðàäèåíò_37-13);}.cls-18{fill:url(#Áåçûìÿííûé_ãðàäèåíò_37-14);}.cls-19{fill:url(#Áåçûìÿííûé_ãðàäèåíò_37-15);}.cls-20{fill:url(#Áåçûìÿííûé_ãðàäèåíò_37-16);}.cls-21{fill:url(#Áåçûìÿííûé_ãðàäèåíò_37-17);}.cls-22{opacity:0.7;fill:url(#Áåçûìÿííûé_ãðàäèåíò_34);}.cls-23,.cls-24,.cls-25,.cls-26,.cls-27,.cls-28,.cls-29{opacity:0.57;}.cls-23{fill:url(#Áåçûìÿííûé_ãðàäèåíò_34-2);}.cls-24{fill:url(#Áåçûìÿííûé_ãðàäèåíò_34-3);}.cls-25{fill:url(#Áåçûìÿííûé_ãðàäèåíò_34-4);}.cls-26{fill:url(#Áåçûìÿííûé_ãðàäèåíò_34-5);}.cls-27{fill:url(#Áåçûìÿííûé_ãðàäèåíò_34-6);}.cls-28{fill:url(#Áåçûìÿííûé_ãðàäèåíò_34-7);}.cls-29{fill:url(#Áåçûìÿííûé_ãðàäèåíò_34-8);}.cls-30,.cls-35{opacity:0.82;}.cls-30{fill:url(#Áåçûìÿííûé_ãðàäèåíò_139);}.cls-31{fill:url(#Áåçûìÿííûé_ãðàäèåíò_385);}.cls-32,.cls-33,.cls-34,.cls-36,.cls-37,.cls-38,.cls-40,.cls-46,.cls-47,.cls-48,.cls-49,.cls-50,.cls-51,.cls-52,.cls-53,.cls-54,.cls-55,.cls-56{opacity:0.72;}.cls-32{fill:url(#Áåçûìÿííûé_ãðàäèåíò_31);}.cls-33{fill:url(#Áåçûìÿííûé_ãðàäèåíò_33);}.cls-34{fill:url(#Áåçûìÿííûé_ãðàäèåíò_33-2);}.cls-35{fill:url(#Áåçûìÿííûé_ãðàäèåíò_41);}.cls-36{fill:url(#Áåçûìÿííûé_ãðàäèåíò_40);}.cls-37{fill:url(#Áåçûìÿííûé_ãðàäèåíò_43);}.cls-38{fill:url(#Áåçûìÿííûé_ãðàäèåíò_45);}.cls-39,.cls-43{opacity:0.58;}.cls-39{fill:url(#Áåçûìÿííûé_ãðàäèåíò_46);}.cls-40{fill:url(#Áåçûìÿííûé_ãðàäèåíò_50);}.cls-117,.cls-41,.cls-42{opacity:0.19;}.cls-41{fill:url(#Áåçûìÿííûé_ãðàäèåíò_50-2);}.cls-42{fill:url(#Áåçûìÿííûé_ãðàäèåíò_50-3);}.cls-43{fill:url(#Áåçûìÿííûé_ãðàäèåíò_51);}.cls-44,.cls-45{opacity:0.43;}.cls-44{fill:url(#Áåçûìÿííûé_ãðàäèåíò_72);}.cls-45{fill:url(#Áåçûìÿííûé_ãðàäèåíò_66);}.cls-46{fill:url(#Áåçûìÿííûé_ãðàäèåíò_33-3);}.cls-47{fill:url(#Áåçûìÿííûé_ãðàäèåíò_33-4);}.cls-48{fill:url(#Áåçûìÿííûé_ãðàäèåíò_33-5);}.cls-49{fill:url(#Áåçûìÿííûé_ãðàäèåíò_33-6);}.cls-50{fill:url(#Áåçûìÿííûé_ãðàäèåíò_33-7);}.cls-51{fill:url(#Áåçûìÿííûé_ãðàäèåíò_33-8);}.cls-52{fill:url(#Áåçûìÿííûé_ãðàäèåíò_33-9);}.cls-53{fill:url(#Áåçûìÿííûé_ãðàäèåíò_33-10);}.cls-54{fill:url(#Áåçûìÿííûé_ãðàäèåíò_33-11);}.cls-55{fill:url(#Áåçûìÿííûé_ãðàäèåíò_33-12);}.cls-56{fill:url(#Áåçûìÿííûé_ãðàäèåíò_33-13);}.cls-57,.cls-75{opacity:0.64;}.cls-58{fill:#d300dd;opacity:0.22;}.cls-59{fill:url(#Áåçûìÿííûé_ãðàäèåíò_224);}.cls-60{fill:url(#Áåçûìÿííûé_ãðàäèåíò_224-2);}.cls-61{fill:url(#Áåçûìÿííûé_ãðàäèåíò_224-3);}.cls-62{fill:url(#Áåçûìÿííûé_ãðàäèåíò_224-4);}.cls-63{fill:url(#Áåçûìÿííûé_ãðàäèåíò_80);}.cls-64{fill:url(#Áåçûìÿííûé_ãðàäèåíò_80-2);}.cls-65{fill:url(#Áåçûìÿííûé_ãðàäèåíò_159);}.cls-66{fill:url(#Áåçûìÿííûé_ãðàäèåíò_159-2);}.cls-67{fill:url(#Áåçûìÿííûé_ãðàäèåíò_159-3);}.cls-68,.cls-70,.cls-71,.cls-73{opacity:0.4;}.cls-68{fill:url(#Áåçûìÿííûé_ãðàäèåíò_79);}.cls-69{fill:url(#Áåçûìÿííûé_ãðàäèåíò_159-4);}.cls-70{fill:url(#Áåçûìÿííûé_ãðàäèåíò_79-2);}.cls-71{fill:url(#Áåçûìÿííûé_ãðàäèåíò_79-3);}.cls-72{opacity:0.53;fill:url(#Áåçûìÿííûé_ãðàäèåíò_79-4);}.cls-73{fill:url(#Áåçûìÿííûé_ãðàäèåíò_79-5);}.cls-74{fill:#fff;}.cls-100,.cls-102,.cls-104,.cls-76,.cls-78,.cls-80{opacity:0.5;}.cls-76{fill:url(#radial-gradient);}.cls-77{fill:url(#Áåçûìÿííûé_ãðàäèåíò_138);}.cls-78{fill:url(#radial-gradient-2);}.cls-79{fill:url(#Áåçûìÿííûé_ãðàäèåíò_138-2);}.cls-80{fill:url(#radial-gradient-3);}.cls-81{fill:url(#radial-gradient-4);}.cls-82,.cls-83,.cls-84,.cls-85,.cls-86,.cls-87,.cls-88{opacity:0.96;}.cls-82{fill:url(#Áåçûìÿííûé_ãðàäèåíò_141);}.cls-83{fill:url(#Áåçûìÿííûé_ãðàäèåíò_141-2);}.cls-84{fill:url(#Áåçûìÿííûé_ãðàäèåíò_141-3);}.cls-85{fill:url(#Áåçûìÿííûé_ãðàäèåíò_141-4);}.cls-86{fill:url(#Áåçûìÿííûé_ãðàäèåíò_141-5);}.cls-87{fill:url(#Áåçûìÿííûé_ãðàäèåíò_141-6);}.cls-88{fill:url(#Áåçûìÿííûé_ãðàäèåíò_141-7);}.cls-89{fill:url(#Áåçûìÿííûé_ãðàäèåíò_162);}.cls-90{fill:url(#Áåçûìÿííûé_ãðàäèåíò_162-2);}.cls-91{fill:url(#Áåçûìÿííûé_ãðàäèåíò_162-3);}.cls-92{fill:url(#Áåçûìÿííûé_ãðàäèåíò_162-4);}.cls-93{fill:url(#Áåçûìÿííûé_ãðàäèåíò_162-5);}.cls-94{fill:url(#Áåçûìÿííûé_ãðàäèåíò_162-6);}.cls-95{fill:url(#Áåçûìÿííûé_ãðàäèåíò_162-7);}.cls-96{fill:url(#Áåçûìÿííûé_ãðàäèåíò_162-8);}.cls-97{fill:url(#Áåçûìÿííûé_ãðàäèåíò_162-9);}.cls-98{fill:url(#Áåçûìÿííûé_ãðàäèåíò_162-10);}.cls-99{fill:url(#Áåçûìÿííûé_ãðàäèåíò_162-11);}.cls-100{fill:url(#radial-gradient-5);}.cls-101{fill:url(#radial-gradient-6);}.cls-102{fill:url(#radial-gradient-7);}.cls-103{fill:url(#radial-gradient-8);}.cls-104{fill:url(#radial-gradient-9);}.cls-105{fill:url(#radial-gradient-10);}.cls-106{fill:url(#radial-gradient-11);}.cls-107{fill:url(#radial-gradient-12);}.cls-108{fill:url(#radial-gradient-13);}.cls-109{fill:url(#radial-gradient-14);}.cls-110{fill:url(#radial-gradient-15);}.cls-111{fill:url(#radial-gradient-16);}.cls-112{fill:url(#radial-gradient-17);}.cls-113{fill:url(#radial-gradient-18);}.cls-114{fill:url(#radial-gradient-19);}.cls-115{fill:url(#radial-gradient-20);}.cls-116{fill:url(#radial-gradient-21);}.cls-118,.cls-120,.cls-121,.cls-122,.cls-123,.cls-124,.cls-125,.cls-126,.cls-127,.cls-128,.cls-129,.cls-130,.cls-131,.cls-132,.cls-133,.cls-134,.cls-135,.cls-136,.cls-137,.cls-138,.cls-139,.cls-140,.cls-141,.cls-142,.cls-143,.cls-144,.cls-145,.cls-146,.cls-147,.cls-148,.cls-150,.cls-151,.cls-152,.cls-153,.cls-154,.cls-155,.cls-156,.cls-157,.cls-158,.cls-159,.cls-160,.cls-161,.cls-162,.cls-163,.cls-164,.cls-165,.cls-166,.cls-167,.cls-168,.cls-169,.cls-170,.cls-171,.cls-172,.cls-173{opacity:0.68;}.cls-118{fill:url(#radial-gradient-22);}.cls-119{opacity:0.49;}.cls-120{fill:url(#radial-gradient-23);}.cls-121{fill:url(#radial-gradient-24);}.cls-122{fill:url(#radial-gradient-25);}.cls-123{fill:url(#radial-gradient-26);}.cls-124{fill:url(#radial-gradient-27);}.cls-125{fill:url(#radial-gradient-28);}.cls-126{fill:url(#radial-gradient-29);}.cls-127{fill:url(#radial-gradient-30);}.cls-128{fill:url(#radial-gradient-31);}.cls-129{fill:url(#radial-gradient-32);}.cls-130{fill:url(#radial-gradient-33);}.cls-131{fill:url(#radial-gradient-34);}.cls-132{fill:url(#radial-gradient-35);}.cls-133{fill:url(#radial-gradient-36);}.cls-134{fill:url(#radial-gradient-37);}.cls-135{fill:url(#radial-gradient-38);}.cls-136{fill:url(#radial-gradient-39);}.cls-137{fill:url(#radial-gradient-40);}.cls-138{fill:url(#radial-gradient-41);}.cls-139{fill:url(#radial-gradient-42);}.cls-140{fill:url(#radial-gradient-43);}.cls-141{fill:url(#radial-gradient-44);}.cls-142{fill:url(#radial-gradient-45);}.cls-143{fill:url(#radial-gradient-46);}.cls-144{fill:url(#radial-gradient-47);}.cls-145{fill:url(#radial-gradient-48);}.cls-146{fill:url(#radial-gradient-49);}.cls-147{fill:url(#radial-gradient-50);}.cls-148{fill:url(#radial-gradient-51);}.cls-149{opacity:0.69;}.cls-150{fill:url(#radial-gradient-52);}.cls-151{fill:url(#radial-gradient-53);}.cls-152{fill:url(#radial-gradient-54);}.cls-153{fill:url(#radial-gradient-55);}.cls-154{fill:url(#radial-gradient-56);}.cls-155{fill:url(#radial-gradient-57);}.cls-156{fill:url(#radial-gradient-58);}.cls-157{fill:url(#radial-gradient-59);}.cls-158{fill:url(#radial-gradient-60);}.cls-159{fill:url(#radial-gradient-61);}.cls-160{fill:url(#radial-gradient-62);}.cls-161{fill:url(#radial-gradient-63);}.cls-162{fill:url(#radial-gradient-64);}.cls-163{fill:url(#radial-gradient-65);}.cls-164{fill:url(#radial-gradient-66);}.cls-165{fill:url(#radial-gradient-67);}.cls-166{fill:url(#radial-gradient-68);}.cls-167{fill:url(#radial-gradient-69);}.cls-168{fill:url(#radial-gradient-70);}.cls-169{fill:url(#radial-gradient-71);}.cls-170{fill:url(#radial-gradient-72);}.cls-171{fill:url(#radial-gradient-73);}.cls-172{fill:url(#radial-gradient-74);}.cls-173{fill:url(#radial-gradient-75);}</style><linearGradient id="Áåçûìÿííûé_ãðàäèåíò_1521" x1="157.907" y1="517.055" x2="157.907" y2="232.031" gradientUnits="userSpaceOnUse"><stop offset="0" stop-color="#ff72e5"/><stop offset="0.307" stop-color="#c849c9"/><stop offset="0.624" stop-color="#9723af"/><stop offset="0.865" stop-color="#780c9f"/><stop offset="1" stop-color="#6c0399"/></linearGradient><linearGradient id="Áåçûìÿííûé_ãðàäèåíò_1200" x1="142.775" y1="390.696" x2="188.262" y2="237.682" gradientUnits="userSpaceOnUse"><stop offset="0" stop-color="#f47242"/><stop offset="0.196" stop-color="#d54f41"/><stop offset="0.423" stop-color="#b72d41"/><stop offset="0.639" stop-color="#a21440"/><stop offset="0.837" stop-color="#950540"/><stop offset="1" stop-color="#900040"/></linearGradient><linearGradient id="Áåçûìÿííûé_ãðàäèåíò_37" x1="190.349" y1="374.071" x2="197.281" y2="374.071" gradientUnits="userSpaceOnUse"><stop offset="0" stop-color="#ffffa1"/><stop offset="0.165" stop-color="#bebe78"/><stop offset="0.331" stop-color="#848454"/><stop offset="0.49" stop-color="#555536"/><stop offset="0.64" stop-color="#30301e"/><stop offset="0.779" stop-color="#16160e"/><stop offset="0.903" stop-color="#060604"/><stop offset="1"/></linearGradient><linearGradient id="Áåçûìÿííûé_ãðàäèåíò_37-2" x1="193.657" y1="375.666" x2="210.12" y2="375.666" xlink:href="#Áåçûìÿííûé_ãðàäèåíò_37"/><linearGradient id="Áåçûìÿííûé_ãðàäèåíò_37-3" x1="163.805" y1="351.571" x2="183.384" y2="351.571" xlink:href="#Áåçûìÿííûé_ãðàäèåíò_37"/><linearGradient id="Áåçûìÿííûé_ãðàäèåíò_37-4" x1="169.943" y1="291.612" x2="180.403" y2="291.612" xlink:href="#Áåçûìÿííûé_ãðàäèåíò_37"/><linearGradient id="Áåçûìÿííûé_ãðàäèåíò_37-5" x1="171.259" y1="297.789" x2="181.361" y2="297.789" xlink:href="#Áåçûìÿííûé_ãðàäèåíò_37"/><linearGradient id="Áåçûìÿííûé_ãðàäèåíò_37-6" x1="174.629" y1="306.617" x2="186.991" y2="306.617" xlink:href="#Áåçûìÿííûé_ãðàäèåíò_37"/><linearGradient id="Áåçûìÿííûé_ãðàäèåíò_37-7" x1="172.729" y1="334.684" x2="183.282" y2="334.684" xlink:href="#Áåçûìÿííûé_ãðàäèåíò_37"/><linearGradient id="Áåçûìÿííûé_ãðàäèåíò_37-8" x1="175.181" y1="327.655" x2="183.807" y2="327.655" xlink:href="#Áåçûìÿííûé_ãðàäèåíò_37"/><linearGradient id="Áåçûìÿííûé_ãðàäèåíò_37-9" x1="136.24" y1="256.603" x2="138.213" y2="256.603" xlink:href="#Áåçûìÿííûé_ãðàäèåíò_37"/><linearGradient id="Áåçûìÿííûé_ãðàäèåíò_37-10" x1="168.053" y1="287.95" x2="179.339" y2="287.95" xlink:href="#Áåçûìÿííûé_ãðàäèåíò_37"/><linearGradient id="Áåçûìÿííûé_ãðàäèåíò_37-11" x1="140.918" y1="256.376" x2="142.083" y2="256.376" xlink:href="#Áåçûìÿííûé_ãðàäèåíò_37"/><linearGradient id="Áåçûìÿííûé_ãðàäèåíò_37-12" x1="160.829" y1="359.459" x2="183.058" y2="359.459" xlink:href="#Áåçûìÿííûé_ãðàäèåíò_37"/><linearGradient id="Áåçûìÿííûé_ãðàäèåíò_37-13" x1="165.705" y1="268.157" x2="172.537" y2="268.157" xlink:href="#Áåçûìÿííûé_ãðàäèåíò_37"/><linearGradient id="Áåçûìÿííûé_ãðàäèåíò_37-14" x1="159.039" y1="371.068" x2="162.792" y2="371.068" xlink:href="#Áåçûìÿííûé_ãðàäèåíò_37"/><linearGradient id="Áåçûìÿííûé_ãðàäèåíò_37-15" x1="164.5" y1="266.314" x2="170.775" y2="266.314" xlink:href="#Áåçûìÿííûé_ãðàäèåíò_37"/><linearGradient id="Áåçûìÿííûé_ãðàäèåíò_37-16" x1="152.122" y1="375.255" x2="158.052" y2="375.255" xlink:href="#Áåçûìÿííûé_ãðàäèåíò_37"/><linearGradient id="Áåçûìÿííûé_ãðàäèåíò_37-17" x1="155.871" y1="376.74" x2="175.092" y2="376.74" xlink:href="#Áåçûìÿííûé_ãðàäèåíò_37"/><linearGradient id="Áåçûìÿííûé_ãðàäèåíò_34" x1="163.957" y1="441.204" x2="163.957" y2="272.414" gradientUnits="userSpaceOnUse"><stop offset="0" stop-color="#fff"/><stop offset="0.048" stop-color="#f6eaef"/><stop offset="0.2" stop-color="#dbadc2"/><stop offset="0.351" stop-color="#c4789a"/><stop offset="0.498" stop-color="#b24d7a"/><stop offset="0.639" stop-color="#a32c61"/><stop offset="0.772" stop-color="#98134f"/><stop offset="0.896" stop-color="#920544"/><stop offset="1" stop-color="#900040"/></linearGradient><linearGradient id="Áåçûìÿííûé_ãðàäèåíò_34-2" x1="145.717" y1="441.205" x2="145.717" y2="272.414" xlink:href="#Áåçûìÿííûé_ãðàäèåíò_34"/><linearGradient id="Áåçûìÿííûé_ãðàäèåíò_34-3" x1="143.339" y1="441.204" x2="143.339" y2="272.414" xlink:href="#Áåçûìÿííûé_ãðàäèåíò_34"/><linearGradient id="Áåçûìÿííûé_ãðàäèåíò_34-4" x1="186.43" y1="441.079" x2="186.43" y2="272.403" xlink:href="#Áåçûìÿííûé_ãðàäèåíò_34"/><linearGradient id="Áåçûìÿííûé_ãðàäèåíò_34-5" x1="158.182" y1="441.204" x2="158.182" y2="272.414" xlink:href="#Áåçûìÿííûé_ãðàäèåíò_34"/><linearGradient id="Áåçûìÿííûé_ãðàäèåíò_34-6" x1="157.069" y1="441.204" x2="157.069" y2="272.414" xlink:href="#Áåçûìÿííûé_ãðàäèåíò_34"/><linearGradient id="Áåçûìÿííûé_ãðàäèåíò_34-7" x1="174.265" y1="441.201" x2="174.265" y2="272.421" xlink:href="#Áåçûìÿííûé_ãðàäèåíò_34"/><linearGradient id="Áåçûìÿííûé_ãðàäèåíò_34-8" x1="190.092" y1="441.167" x2="190.092" y2="272.482" xlink:href="#Áåçûìÿííûé_ãðàäèåíò_34"/><linearGradient id="Áåçûìÿííûé_ãðàäèåíò_139" x1="157.907" y1="389.764" x2="157.907" y2="234.383" gradientUnits="userSpaceOnUse"><stop offset="0" stop-color="#fff"/><stop offset="0.031" stop-color="#fcf6fc"/><stop offset="0.518" stop-color="#d373c9"/><stop offset="0.85" stop-color="#b820a9"/><stop offset="1" stop-color="#ae009c"/></linearGradient><linearGradient id="Áåçûìÿííûé_ãðàäèåíò_385" x1="153.671" y1="328.66" x2="153.671" y2="28.887" gradientUnits="userSpaceOnUse"><stop offset="0" stop-color="#db00ff"/><stop offset="0.166" stop-color="#bc21ff"/><stop offset="0.534" stop-color="#6c75ff"/><stop offset="1" stop-color="#00e7ff"/></linearGradient><linearGradient id="Áåçûìÿííûé_ãðàäèåíò_31" x1="169.288" y1="98.875" x2="169.288" y2="19.422" gradientUnits="userSpaceOnUse"><stop offset="0" stop-color="#ae009c"/><stop offset="0.15" stop-color="#b820a9"/><stop offset="0.482" stop-color="#d373c9"/><stop offset="0.969" stop-color="#fcf6fc"/><stop offset="1" stop-color="#fff"/></linearGradient><linearGradient id="Áåçûìÿííûé_ãðàäèåíò_33" x1="199.751" y1="170.891" x2="199.751" y2="135.283" gradientUnits="userSpaceOnUse"><stop offset="0.34" stop-color="#fff"/><stop offset="0.361" stop-color="#fcf6fc"/><stop offset="0.682" stop-color="#d373c9"/><stop offset="0.901" stop-color="#b820a9"/><stop offset="1" stop-color="#ae009c"/></linearGradient><linearGradient id="Áåçûìÿííûé_ãðàäèåíò_33-2" x1="209.719" y1="158.588" x2="209.719" y2="148.938" xlink:href="#Áåçûìÿííûé_ãðàäèåíò_33"/><linearGradient id="Áåçûìÿííûé_ãðàäèåíò_41" x1="149.616" y1="406.535" x2="149.616" y2="112.889" gradientUnits="userSpaceOnUse"><stop offset="0.46" stop-color="#fff"/><stop offset="0.477" stop-color="#fcf6fc"/><stop offset="0.74" stop-color="#d373c9"/><stop offset="0.919" stop-color="#b820a9"/><stop offset="1" stop-color="#ae009c"/></linearGradient><linearGradient id="Áåçûìÿííûé_ãðàäèåíò_40" x1="162.877" y1="373.101" x2="162.877" y2="-61.326" gradientUnits="userSpaceOnUse"><stop offset="0.174" stop-color="#fff"/><stop offset="0.199" stop-color="#fcf6fc"/><stop offset="0.601" stop-color="#d373c9"/><stop offset="0.876" stop-color="#b820a9"/><stop offset="1" stop-color="#ae009c"/></linearGradient><linearGradient id="Áåçûìÿííûé_ãðàäèåíò_43" x1="149.616" y1="406.535" x2="149.616" y2="214.339" gradientUnits="userSpaceOnUse"><stop offset="0.199" stop-color="#fff"/><stop offset="0.224" stop-color="#fcf6fc"/><stop offset="0.614" stop-color="#d373c9"/><stop offset="0.88" stop-color="#b820a9"/><stop offset="1" stop-color="#ae009c"/></linearGradient><linearGradient id="Áåçûìÿííûé_ãðàäèåíò_45" x1="170.289" y1="98.875" x2="170.289" y2="19.423" gradientUnits="userSpaceOnUse"><stop offset="0" stop-color="#ae009c"/><stop offset="0.135" stop-color="#b820a9"/><stop offset="0.433" stop-color="#d373c9"/><stop offset="0.869" stop-color="#fcf6fc"/><stop offset="0.897" stop-color="#fff"/></linearGradient><linearGradient id="Áåçûìÿííûé_ãðàäèåíò_46" x1="167.943" y1="92.264" x2="167.943" y2="31.836" gradientUnits="userSpaceOnUse"><stop offset="0"/><stop offset="1" stop-color="#00ff8b"/></linearGradient><linearGradient id="Áåçûìÿííûé_ãðàäèåíò_50" x1="148.793" y1="260.217" x2="148.793" y2="-39.556" gradientUnits="userSpaceOnUse"><stop offset="0.183" stop-color="#fff"/><stop offset="0.208" stop-color="#fcf6fc"/><stop offset="0.606" stop-color="#d373c9"/><stop offset="0.877" stop-color="#b820a9"/><stop offset="1" stop-color="#ae009c"/></linearGradient><linearGradient id="Áåçûìÿííûé_ãðàäèåíò_50-2" x1="91.57" y1="260.217" x2="91.57" y2="-39.556" xlink:href="#Áåçûìÿííûé_ãðàäèåíò_50"/><linearGradient id="Áåçûìÿííûé_ãðàäèåíò_50-3" x1="181.733" y1="260.217" x2="181.733" y2="-39.555" xlink:href="#Áåçûìÿííûé_ãðàäèåíò_50"/><linearGradient id="Áåçûìÿííûé_ãðàäèåíò_51" x1="167.015" y1="195.849" x2="167.015" y2="73.993" gradientUnits="userSpaceOnUse"><stop offset="0.256"/><stop offset="1" stop-color="#00ff8b"/></linearGradient><linearGradient id="Áåçûìÿííûé_ãðàäèåíò_72" x1="168.67" y1="272.575" x2="168.67" y2="45.835" gradientUnits="userSpaceOnUse"><stop offset="0"/><stop offset="1" stop-color="aqua"/></linearGradient><linearGradient id="Áåçûìÿííûé_ãðàäèåíò_66" x1="172.812" y1="274.812" x2="172.812" y2="164.042" gradientUnits="userSpaceOnUse"><stop offset="0"/><stop offset="0.996" stop-color="aqua"/></linearGradient><linearGradient id="Áåçûìÿííûé_ãðàäèåíò_33-3" x1="101.105" y1="210.26" x2="101.105" y2="194.897" xlink:href="#Áåçûìÿííûé_ãðàäèåíò_33"/><linearGradient id="Áåçûìÿííûé_ãðàäèåíò_33-4" x1="115.247" y1="72.488" x2="115.247" y2="53.748" xlink:href="#Áåçûìÿííûé_ãðàäèåíò_33"/><linearGradient id="Áåçûìÿííûé_ãðàäèåíò_33-5" x1="235.049" y1="120.654" x2="235.049" y2="96.423" xlink:href="#Áåçûìÿííûé_ãðàäèåíò_33"/><linearGradient id="Áåçûìÿííûé_ãðàäèåíò_33-6" x1="238.663" y1="104.722" x2="238.663" y2="96.151" xlink:href="#Áåçûìÿííûé_ãðàäèåíò_33"/><linearGradient id="Áåçûìÿííûé_ãðàäèåíò_33-7" x1="212.102" y1="304.684" x2="212.102" y2="296.114" xlink:href="#Áåçûìÿííûé_ãðàäèåíò_33"/><linearGradient id="Áåçûìÿííûé_ãðàäèåíò_33-8" x1="253.907" y1="125.623" x2="253.907" y2="106.574" xlink:href="#Áåçûìÿííûé_ãðàäèåíò_33"/><linearGradient id="Áåçûìÿííûé_ãðàäèåíò_33-9" x1="175.187" y1="247.41" x2="175.187" y2="226.056" xlink:href="#Áåçûìÿííûé_ãðàäèåíò_33"/><linearGradient id="Áåçûìÿííûé_ãðàäèåíò_33-10" x1="207.335" y1="305.317" x2="207.335" y2="283.963" xlink:href="#Áåçûìÿííûé_ãðàäèåíò_33"/><linearGradient id="Áåçûìÿííûé_ãðàäèåíò_33-11" x1="168.129" y1="223.498" x2="168.129" y2="179.576" xlink:href="#Áåçûìÿííûé_ãðàäèåíò_33"/><linearGradient id="Áåçûìÿííûé_ãðàäèåíò_33-12" x1="164.503" y1="182.855" x2="164.503" y2="169.195" xlink:href="#Áåçûìÿííûé_ãðàäèåíò_33"/><linearGradient id="Áåçûìÿííûé_ãðàäèåíò_33-13" x1="115.247" y1="333.052" x2="115.247" y2="319.392" xlink:href="#Áåçûìÿííûé_ãðàäèåíò_33"/><linearGradient id="Áåçûìÿííûé_ãðàäèåíò_224" x1="157.827" y1="72.07" x2="157.827" y2="32.66" gradientUnits="userSpaceOnUse"><stop offset="0.126"/><stop offset="0.201" stop-color="#040808"/><stop offset="0.316" stop-color="#0e1d1d"/><stop offset="0.457" stop-color="#1e4040"/><stop offset="0.618" stop-color="#357070"/><stop offset="0.796" stop-color="#53afaf"/><stop offset="0.986" stop-color="#76f9f9"/><stop offset="1" stop-color="#79ffff"/></linearGradient><linearGradient id="Áåçûìÿííûé_ãðàäèåíò_224-2" x1="203.938" y1="72.729" x2="203.938" y2="48.881" xlink:href="#Áåçûìÿííûé_ãðàäèåíò_224"/><linearGradient id="Áåçûìÿííûé_ãðàäèåíò_224-3" x1="96.171" y1="74.239" x2="96.171" y2="39.514" xlink:href="#Áåçûìÿííûé_ãðàäèåíò_224"/><linearGradient id="Áåçûìÿííûé_ãðàäèåíò_224-4" x1="253.798" y1="73.116" x2="253.798" y2="61.775" xlink:href="#Áåçûìÿííûé_ãðàäèåíò_224"/><linearGradient id="Áåçûìÿííûé_ãðàäèåíò_80" x1="204.657" y1="123.397" x2="204.657" y2="103.683" gradientUnits="userSpaceOnUse"><stop offset="0" stop-color="#79ffff"/><stop offset="0.014" stop-color="#76f9f9"/><stop offset="0.204" stop-color="#53afaf"/><stop offset="0.382" stop-color="#357070"/><stop offset="0.543" stop-color="#1e4040"/><stop offset="0.684" stop-color="#0e1d1d"/><stop offset="0.799" stop-color="#040808"/><stop offset="0.874"/></linearGradient><linearGradient id="Áåçûìÿííûé_ãðàäèåíò_80-2" x1="116.116" y1="117.161" x2="116.116" y2="83.063" xlink:href="#Áåçûìÿííûé_ãðàäèåíò_80"/><linearGradient id="Áåçûìÿííûé_ãðàäèåíò_159" x1="102.966" y1="406.535" x2="102.966" y2="392.646" gradientUnits="userSpaceOnUse"><stop offset="0" stop-color="#fff"/><stop offset="0.116" stop-color="#f3c8ed"/><stop offset="0.242" stop-color="#e893dc"/><stop offset="0.371" stop-color="#df66cd"/><stop offset="0.499" stop-color="#d741c1"/><stop offset="0.626" stop-color="#d125b7"/><stop offset="0.752" stop-color="#cc10b0"/><stop offset="0.877" stop-color="#ca04ac"/><stop offset="1" stop-color="#c900ab"/></linearGradient><linearGradient id="Áåçûìÿííûé_ãðàäèåíò_159-2" x1="59.778" y1="391.595" x2="59.778" y2="376.372" xlink:href="#Áåçûìÿííûé_ãðàäèåíò_159"/><linearGradient id="Áåçûìÿííûé_ãðàäèåíò_159-3" x1="215.386" y1="404.164" x2="215.386" y2="360.456" xlink:href="#Áåçûìÿííûé_ãðàäèåíò_159"/><linearGradient id="Áåçûìÿííûé_ãðàäèåíò_79" x1="234.255" y1="358.31" x2="234.255" y2="330.243" gradientUnits="userSpaceOnUse"><stop offset="0" stop-color="#fff"/><stop offset="0.116" stop-color="#e9c8f8"/><stop offset="0.242" stop-color="#d493f1"/><stop offset="0.371" stop-color="#c366eb"/><stop offset="0.499" stop-color="#b441e6"/><stop offset="0.626" stop-color="#a925e2"/><stop offset="0.752" stop-color="#a010df"/><stop offset="0.877" stop-color="#9c04de"/><stop offset="1" stop-color="#9a00dd"/></linearGradient><linearGradient id="Áåçûìÿííûé_ãðàäèåíò_159-4" x1="139.793" y1="400.023" x2="139.793" y2="386.926" xlink:href="#Áåçûìÿííûé_ãðàäèåíò_159"/><linearGradient id="Áåçûìÿííûé_ãðàäèåíò_79-2" x1="197.523" y1="350.964" x2="197.523" y2="341.436" xlink:href="#Áåçûìÿííûé_ãðàäèåíò_79"/><linearGradient id="Áåçûìÿííûé_ãðàäèåíò_79-3" x1="157.983" y1="318.185" x2="157.983" y2="300.944" xlink:href="#Áåçûìÿííûé_ãðàäèåíò_79"/><linearGradient id="Áåçûìÿííûé_ãðàäèåíò_79-4" x1="161.569" y1="397.141" x2="161.569" y2="355.046" xlink:href="#Áåçûìÿííûé_ãðàäèåíò_79"/><linearGradient id="Áåçûìÿííûé_ãðàäèåíò_79-5" x1="136.648" y1="338.067" x2="136.648" y2="320.258" xlink:href="#Áåçûìÿííûé_ãðàäèåíò_79"/><radialGradient id="radial-gradient" cx="164.941" cy="213.549" fy="220.77789653429835" r="12.268" gradientTransform="matrix(1.393, 0, -0.001, 2.528, -27.636, -441.485)" gradientUnits="userSpaceOnUse"><stop offset="0.29" stop-color="#00ffea"/><stop offset="0.414" stop-color="#00c4b4" stop-opacity="0.77"/><stop offset="0.574" stop-color="#007f75" stop-opacity="0.499"/><stop offset="0.718" stop-color="#004943" stop-opacity="0.285"/><stop offset="0.842" stop-color="#00211e" stop-opacity="0.13"/><stop offset="0.94" stop-color="#000908" stop-opacity="0.035"/><stop offset="1" stop-opacity="0"/></radialGradient><radialGradient id="Áåçûìÿííûé_ãðàäèåíò_138" cx="342.944" cy="189.952" r="9.095" gradientTransform="matrix(2.276, 0.001, -0.001, 2.082, -578.603, -284.489)" gradientUnits="userSpaceOnUse"><stop offset="0.211" stop-color="#00ffea"/><stop offset="0.231" stop-color="#00f4e0"/><stop offset="0.348" stop-color="#00b4a5"/><stop offset="0.464" stop-color="#007d73"/><stop offset="0.576" stop-color="#00504a"/><stop offset="0.683" stop-color="#002d2a"/><stop offset="0.783" stop-color="#001413"/><stop offset="0.875" stop-color="#000505"/><stop offset="0.949"/></radialGradient><radialGradient id="radial-gradient-2" cx="101.373" cy="210.269" fy="217.4979382657579" r="12.268" gradientTransform="matrix(1.984, 0, -0.001, 2.528, -84.588, -441.722)" xlink:href="#radial-gradient"/><radialGradient id="Áåçûìÿííûé_ãðàäèåíò_138-2" cx="304.163" cy="185.901" r="9.095" gradientTransform="matrix(3.243, 0.001, -0.001, 2.082, -869.789, -284.635)" xlink:href="#Áåçûìÿííûé_ãðàäèåíò_138"/><radialGradient id="radial-gradient-3" cx="114.951" cy="152.321" fy="191.11434746053686" r="65.833" gradientTransform="translate(401.114 554.746) rotate(180) scale(2.055 2.528)" xlink:href="#radial-gradient"/><radialGradient id="radial-gradient-4" cx="312.659" cy="142.252" fy="162.11776229552672" r="48.805" gradientTransform="translate(1213.794 397.687) rotate(180) scale(3.358 2.082)" gradientUnits="userSpaceOnUse"><stop offset="0.211" stop-color="#00ffea"/><stop offset="0.231" stop-color="#00f4e0" stop-opacity="0.956"/><stop offset="0.348" stop-color="#00b4a5" stop-opacity="0.707"/><stop offset="0.464" stop-color="#007d73" stop-opacity="0.491"/><stop offset="0.576" stop-color="#00504a" stop-opacity="0.315"/><stop offset="0.683" stop-color="#002d2a" stop-opacity="0.178"/><stop offset="0.783" stop-color="#001413" stop-opacity="0.08"/><stop offset="0.875" stop-color="#000505" stop-opacity="0.021"/><stop offset="0.949" stop-opacity="0"/></radialGradient><linearGradient id="Áåçûìÿííûé_ãðàäèåíò_141" x1="207.938" y1="400.2" x2="207.938" y2="377.859" gradientUnits="userSpaceOnUse"><stop offset="0"/><stop offset="0.032" stop-color="#0c070c"/><stop offset="0.244" stop-color="#553255"/><stop offset="0.443" stop-color="#915691"/><stop offset="0.624" stop-color="#c172c1"/><stop offset="0.783" stop-color="#e386e3"/><stop offset="0.913" stop-color="#f793f7"/><stop offset="1" stop-color="#ff97ff"/></linearGradient><linearGradient id="Áåçûìÿííûé_ãðàäèåíò_141-2" x1="240.944" y1="384.16" x2="240.944" y2="368.579" xlink:href="#Áåçûìÿííûé_ãðàäèåíò_141"/><linearGradient id="Áåçûìÿííûé_ãðàäèåíò_141-3" x1="63.976" y1="388.817" x2="63.976" y2="377.995" xlink:href="#Áåçûìÿííûé_ãðàäèåíò_141"/><linearGradient id="Áåçûìÿííûé_ãðàäèåíò_141-4" x1="102.137" y1="404.477" x2="102.137" y2="394.135" xlink:href="#Áåçûìÿííûé_ãðàäèåíò_141"/><linearGradient id="Áåçûìÿííûé_ãðàäèåíò_141-5" x1="247.092" y1="370.406" x2="247.092" y2="357.345" xlink:href="#Áåçûìÿííûé_ãðàäèåíò_141"/><linearGradient id="Áåçûìÿííûé_ãðàäèåíò_141-6" x1="139.888" y1="395.04" x2="139.888" y2="384.656" xlink:href="#Áåçûìÿííûé_ãðàäèåíò_141"/><linearGradient id="Áåçûìÿííûé_ãðàäèåíò_141-7" x1="160.378" y1="382.741" x2="160.378" y2="367.4" xlink:href="#Áåçûìÿííûé_ãðàäèåíò_141"/><linearGradient id="Áåçûìÿííûé_ãðàäèåíò_162" x1="106.476" y1="338.409" x2="115.028" y2="346.962" gradientUnits="userSpaceOnUse"><stop offset="0.138"/><stop offset="0.272" stop-color="#221422"/><stop offset="0.569" stop-color="#784778"/><stop offset="1" stop-color="#ff97ff"/></linearGradient><linearGradient id="Áåçûìÿííûé_ãðàäèåíò_162-2" x1="92.414" y1="364.745" x2="92.414" y2="355.358" xlink:href="#Áåçûìÿííûé_ãðàäèåíò_162"/><linearGradient id="Áåçûìÿííûé_ãðàäèåíò_162-3" x1="114.053" y1="383.797" x2="114.053" y2="371.941" xlink:href="#Áåçûìÿííûé_ãðàäèåíò_162"/><linearGradient id="Áåçûìÿííûé_ãðàäèåíò_162-4" x1="131.323" y1="381.889" x2="131.323" y2="374.402" xlink:href="#Áåçûìÿííûé_ãðàäèåíò_162"/><linearGradient id="Áåçûìÿííûé_ãðàäèåíò_162-5" x1="148.454" y1="381.769" x2="148.454" y2="373.523" xlink:href="#Áåçûìÿííûé_ãðàäèåíò_162"/><linearGradient id="Áåçûìÿííûé_ãðàäèåíò_162-6" x1="178.353" y1="385.193" x2="178.353" y2="376.507" xlink:href="#Áåçûìÿííûé_ãðàäèåíò_162"/><linearGradient id="Áåçûìÿííûé_ãðàäèåíò_162-7" x1="207.878" y1="377.969" x2="207.878" y2="373.729" xlink:href="#Áåçûìÿííûé_ãðàäèåíò_162"/><linearGradient id="Áåçûìÿííûé_ãðàäèåíò_162-8" x1="245.997" y1="378.163" x2="245.997" y2="369.103" xlink:href="#Áåçûìÿííûé_ãðàäèåíò_162"/><linearGradient id="Áåçûìÿííûé_ãðàäèåíò_162-9" x1="66.634" y1="377.342" x2="64.274" y2="369.19" xlink:href="#Áåçûìÿííûé_ãðàäèåíò_162"/><linearGradient id="Áåçûìÿííûé_ãðàäèåíò_162-10" x1="75.79" y1="374.131" x2="75.79" y2="367.758" xlink:href="#Áåçûìÿííûé_ãðàäèåíò_162"/><linearGradient id="Áåçûìÿííûé_ãðàäèåíò_162-11" x1="74.963" y1="395.317" x2="56.087" y2="395.317" xlink:href="#Áåçûìÿííûé_ãðàäèåíò_162"/><radialGradient id="radial-gradient-5" cx="119.713" cy="302.232" fy="309.4612456414988" r="12.268" gradientTransform="matrix(0.852, 0, 0, 2.528, 33.998, -451.116)" gradientUnits="userSpaceOnUse"><stop offset="0.29" stop-color="#ff00ea"/><stop offset="0.414" stop-color="#c400b4" stop-opacity="0.77"/><stop offset="0.574" stop-color="#7f0075" stop-opacity="0.499"/><stop offset="0.718" stop-color="#490043" stop-opacity="0.285"/><stop offset="0.842" stop-color="#21001e" stop-opacity="0.13"/><stop offset="0.94" stop-color="#090008" stop-opacity="0.035"/><stop offset="1" stop-opacity="0"/></radialGradient><radialGradient id="radial-gradient-6" cx="315.709" cy="297.176" r="9.095" gradientTransform="matrix(1.392, 0, 0, 2.082, -302.588, -293.091)" gradientUnits="userSpaceOnUse"><stop offset="0.211" stop-color="#ff45ea"/><stop offset="0.231" stop-color="#f442e0" stop-opacity="0.956"/><stop offset="0.348" stop-color="#b431a5" stop-opacity="0.707"/><stop offset="0.464" stop-color="#7d2273" stop-opacity="0.491"/><stop offset="0.576" stop-color="#50164a" stop-opacity="0.315"/><stop offset="0.683" stop-color="#2d0c2a" stop-opacity="0.178"/><stop offset="0.783" stop-color="#140613" stop-opacity="0.08"/><stop offset="0.875" stop-color="#050105" stop-opacity="0.021"/><stop offset="0.949" stop-opacity="0"/></radialGradient><radialGradient id="radial-gradient-7" cx="146.25" cy="294.332" fy="301.5616745264689" r="12.268" gradientTransform="matrix(0.852, 0, 0, 2.528, 32.493, -452.7)" xlink:href="#radial-gradient-5"/><radialGradient id="radial-gradient-8" cx="331.948" cy="287.583" r="9.095" gradientTransform="matrix(1.392, 0, 0, 2.082, -304.091, -294.675)" xlink:href="#radial-gradient-6"/><radialGradient id="radial-gradient-9" cx="191.204" cy="309.415" fy="316.64467582398316" r="12.269" gradientTransform="matrix(0.701, -0.051, 0.183, 2.521, 5.698, -444.2)" xlink:href="#radial-gradient-5"/><radialGradient id="radial-gradient-10" cx="358.906" cy="305.985" r="9.095" gradientTransform="matrix(1.146, -0.083, 0.151, 2.076, -260.106, -266.6)" xlink:href="#radial-gradient-6"/><radialGradient id="radial-gradient-11" cx="5.764" cy="343.807" r="27.366" gradientTransform="translate(69.752 -7.685) scale(0.904 1.118)" gradientUnits="userSpaceOnUse"><stop offset="0" stop-color="#ff81ea"/><stop offset="0.075" stop-color="#d16ac0" stop-opacity="0.82"/><stop offset="0.166" stop-color="#a15193" stop-opacity="0.63"/><stop offset="0.262" stop-color="#753b6c" stop-opacity="0.461"/><stop offset="0.361" stop-color="#51294a" stop-opacity="0.318"/><stop offset="0.465" stop-color="#341a2f" stop-opacity="0.202"/><stop offset="0.575" stop-color="#1d0f1a" stop-opacity="0.113"/><stop offset="0.692" stop-color="#0d060c" stop-opacity="0.049"/><stop offset="0.824" stop-color="#030203" stop-opacity="0.012"/><stop offset="1" stop-opacity="0"/></radialGradient><radialGradient id="radial-gradient-12" cx="-8.805" cy="346.168" r="27.366" xlink:href="#radial-gradient-11"/><radialGradient id="radial-gradient-13" cx="180.498" cy="332.926" r="27.367" gradientTransform="matrix(0, 0.904, -1.118, 0, 554.464, 236.161)" xlink:href="#radial-gradient-11"/><radialGradient id="radial-gradient-14" cx="185.114" cy="270.18" r="27.367" gradientTransform="matrix(0, 0.904, -1.118, 0, 550.011, 207.041)" xlink:href="#radial-gradient-11"/><radialGradient id="radial-gradient-15" cx="170.563" cy="261.206" r="27.367" gradientTransform="matrix(0, 0.904, -1.118, 0, 543.739, 204.085)" xlink:href="#radial-gradient-11"/><radialGradient id="radial-gradient-16" cx="121.242" cy="432.205" r="27.367" gradientTransform="matrix(0, 0.904, -1.118, 0, 542.259, 286.358)" xlink:href="#radial-gradient-11"/><radialGradient id="radial-gradient-17" cx="127.54" cy="381.617" r="27.367" gradientTransform="matrix(0, 0.904, -1.118, 0, 539.623, 262.675)" xlink:href="#radial-gradient-11"/><radialGradient id="radial-gradient-18" cx="138.08" cy="365.927" r="27.367" gradientTransform="matrix(0, 0.904, -1.118, 0, 541.988, 254.652)" xlink:href="#radial-gradient-11"/><radialGradient id="radial-gradient-19" cx="144.41" cy="354.536" r="27.367" gradientTransform="matrix(0, 0.904, -1.118, 0, 543.215, 248.929)" xlink:href="#radial-gradient-11"/><radialGradient id="radial-gradient-20" cx="160.366" cy="331.142" r="27.367" gradientTransform="matrix(0, 0.904, -1.118, 0, 546.83, 236.943)" xlink:href="#radial-gradient-11"/><radialGradient id="radial-gradient-21" cx="170.565" cy="306.462" r="27.367" gradientTransform="matrix(0, 0.904, -1.118, 0, 548.185, 224.824)" xlink:href="#radial-gradient-11"/><radialGradient id="radial-gradient-22" cx="223.325" cy="304.408" r="10.85" gradientTransform="translate(468.594 17.386) rotate(76.78)" gradientUnits="userSpaceOnUse"><stop offset="0" stop-color="#a600ea"/><stop offset="0.074" stop-color="#8c00c6" stop-opacity="0.846"/><stop offset="0.195" stop-color="#680092" stop-opacity="0.624"/><stop offset="0.317" stop-color="#480065" stop-opacity="0.433"/><stop offset="0.439" stop-color="#2e0041" stop-opacity="0.277"/><stop offset="0.561" stop-color="#1a0024" stop-opacity="0.155"/><stop offset="0.682" stop-color="#0b0010" stop-opacity="0.069"/><stop offset="0.803" stop-color="#030004" stop-opacity="0.017"/><stop offset="0.923" stop-opacity="0"/></radialGradient><radialGradient id="radial-gradient-23" cx="66.277" cy="66.129" r="10.85" gradientTransform="translate(53.077 -20.078) rotate(45)" xlink:href="#radial-gradient-22"/><radialGradient id="radial-gradient-24" cx="267.048" cy="192.553" r="10.85" gradientTransform="translate(392.76 -111.73) rotate(76.654)" xlink:href="#radial-gradient-22"/><radialGradient id="radial-gradient-25" cx="93.97" cy="255.452" r="10.85" gradientTransform="matrix(1, 0, 0, 1, 0, 0)" xlink:href="#radial-gradient-22"/><radialGradient id="radial-gradient-26" cx="202.632" cy="367.483" r="10.85" gradientTransform="translate(351.713 -38.496) rotate(45.126)" xlink:href="#radial-gradient-22"/><radialGradient id="radial-gradient-27" cx="253.907" cy="238.986" r="10.85" gradientTransform="matrix(1, 0, 0, 1, 0, 0)" xlink:href="#radial-gradient-22"/><radialGradient id="radial-gradient-28" cx="204.418" cy="263.866" r="10.85" gradientTransform="translate(246.454 -67.261) rotate(45)" xlink:href="#radial-gradient-22"/><radialGradient id="radial-gradient-29" cx="160.121" cy="178.837" r="10.85" gradientTransform="translate(80.009 -47.445) rotate(22.344)" xlink:href="#radial-gradient-22"/><radialGradient id="radial-gradient-30" cx="100.881" cy="97.796" r="10.85" gradientTransform="translate(171.811 -23.489) rotate(76.209)" xlink:href="#radial-gradient-22"/><radialGradient id="radial-gradient-31" cx="87.629" cy="122.744" r="10.85" gradientTransform="translate(114.466 -25.663) rotate(45.774)" xlink:href="#radial-gradient-22"/><radialGradient id="radial-gradient-32" cx="218.885" cy="231.735" r="5.048" gradientTransform="matrix(1, 0, 0, 1, 0, 0)" xlink:href="#radial-gradient-22"/><radialGradient id="radial-gradient-33" cx="144.767" cy="191.704" r="5.048" gradientTransform="matrix(1, 0, 0, 1, 0, 0)" xlink:href="#radial-gradient-22"/><radialGradient id="radial-gradient-34" cx="114.723" cy="129.929" r="5.048" gradientTransform="matrix(1, 0, 0, 1, 0, 0)" xlink:href="#radial-gradient-22"/><radialGradient id="radial-gradient-35" cx="87.081" cy="196.731" r="5.048" gradientTransform="matrix(1, 0, 0, 1, 0, 0)" xlink:href="#radial-gradient-22"/><radialGradient id="radial-gradient-36" cx="53.706" cy="89.044" r="5.048" gradientTransform="translate(-32.686 36.227) rotate(-21.444)" xlink:href="#radial-gradient-22"/><radialGradient id="radial-gradient-37" cx="262.537" cy="175.039" r="5.048" gradientTransform="matrix(1, 0, 0, 1, 0, 0)" xlink:href="#radial-gradient-22"/><radialGradient id="radial-gradient-38" cx="80.645" cy="339.876" r="5.048" gradientTransform="matrix(1, 0, 0, 1, 0, 0)" xlink:href="#radial-gradient-22"/><radialGradient id="radial-gradient-39" cx="200.589" cy="348.058" r="5.048" gradientTransform="translate(-116.172 133.503) rotate(-27.749)" xlink:href="#radial-gradient-22"/><radialGradient id="radial-gradient-40" cx="195.141" cy="339.058" r="5.048" gradientTransform="translate(-116.172 133.503) rotate(-27.749)" xlink:href="#radial-gradient-22"/><radialGradient id="radial-gradient-41" cx="188.272" cy="204.93" r="10.85" gradientUnits="userSpaceOnUse"><stop offset="0" stop-color="#f0f"/><stop offset="0.11" stop-color="#c600c6" stop-opacity="0.777"/><stop offset="0.225" stop-color="#920092" stop-opacity="0.573"/><stop offset="0.343" stop-color="#650065" stop-opacity="0.397"/><stop offset="0.459" stop-color="#410041" stop-opacity="0.254"/><stop offset="0.576" stop-color="#240024" stop-opacity="0.143"/><stop offset="0.692" stop-color="#100010" stop-opacity="0.063"/><stop offset="0.808" stop-color="#040004" stop-opacity="0.016"/><stop offset="0.923" stop-opacity="0"/></radialGradient><radialGradient id="radial-gradient-42" cx="230.356" cy="277.947" r="10.85" gradientTransform="translate(264.008 -81.477) rotate(45)" xlink:href="#radial-gradient-41"/><radialGradient id="radial-gradient-43" cx="165.719" cy="142.546" r="10.85" gradientTransform="translate(66.633 -52.298) rotate(22.344)" xlink:href="#radial-gradient-41"/><radialGradient id="radial-gradient-44" cx="138.766" cy="137.556" r="14.206" gradientTransform="translate(137.91 -57.833) rotate(45)" xlink:href="#radial-gradient-41"/><radialGradient id="radial-gradient-45" cx="215.99" cy="102.738" r="10.85" xlink:href="#radial-gradient-41"/><radialGradient id="radial-gradient-46" cx="166.267" cy="61.908" r="10.85" gradientTransform="translate(188.511 -114.11) rotate(76.78)" xlink:href="#radial-gradient-41"/><radialGradient id="radial-gradient-47" cx="149.635" cy="72.122" r="13.675" gradientTransform="translate(94.825 -84.684) rotate(45)" xlink:href="#radial-gradient-41"/><radialGradient id="radial-gradient-48" cx="123.121" cy="297.461" r="12.834" xlink:href="#radial-gradient-41"/><radialGradient id="radial-gradient-49" cx="161.254" cy="254.248" r="12.834" gradientTransform="translate(386.518 54.496) rotate(80.82)" xlink:href="#radial-gradient-41"/><radialGradient id="radial-gradient-50" cx="63.049" cy="395.489" r="10.85" gradientTransform="translate(433.473 243.262) rotate(76.718)" xlink:href="#radial-gradient-41"/><radialGradient id="radial-gradient-51" cx="127.934" cy="384.593" r="15.946" xlink:href="#radial-gradient-41"/><radialGradient id="radial-gradient-52" cx="217.642" cy="214.652" r="10.85" xlink:href="#radial-gradient-41"/><radialGradient id="radial-gradient-53" cx="159.299" cy="106.472" r="10.85" xlink:href="#radial-gradient-41"/><radialGradient id="radial-gradient-54" cx="168.066" cy="363.597" r="10.85" gradientTransform="translate(501.509 141.641) rotate(81.158)" xlink:href="#radial-gradient-41"/><radialGradient id="radial-gradient-55" cx="133.689" cy="342.107" r="10.85" gradientTransform="translate(450.958 157.039) rotate(81.089)" xlink:href="#radial-gradient-41"/><radialGradient id="radial-gradient-56" cx="71.891" cy="211.074" r="5.048" xlink:href="#radial-gradient-41"/><radialGradient id="radial-gradient-57" cx="231.198" cy="189.136" r="5.048" xlink:href="#radial-gradient-41"/><radialGradient id="radial-gradient-58" cx="206.745" cy="334.173" r="5.048" xlink:href="#radial-gradient-41"/><radialGradient id="radial-gradient-59" cx="60.291" cy="121.487" r="5.048" gradientTransform="translate(-32.686 36.227) rotate(-21.444)" xlink:href="#radial-gradient-41"/><radialGradient id="radial-gradient-60" cx="178.835" cy="284.113" r="5.048" xlink:href="#radial-gradient-41"/><radialGradient id="radial-gradient-61" cx="205.286" cy="318.736" r="5.048" gradientTransform="translate(-116.172 133.503) rotate(-27.749)" xlink:href="#radial-gradient-41"/><radialGradient id="radial-gradient-62" cx="78.694" cy="293.958" r="5.048" xlink:href="#radial-gradient-41"/><radialGradient id="radial-gradient-63" cx="93.374" cy="395.771" r="5.048" xlink:href="#radial-gradient-41"/><radialGradient id="radial-gradient-64" cx="85.228" cy="366.326" r="5.048" xlink:href="#radial-gradient-41"/><radialGradient id="radial-gradient-65" cx="107.692" cy="342.574" r="5.048" xlink:href="#radial-gradient-41"/><radialGradient id="radial-gradient-66" cx="82.406" cy="382.663" r="5.048" xlink:href="#radial-gradient-41"/><radialGradient id="radial-gradient-67" cx="173.039" cy="211.768" r="5.048" xlink:href="#radial-gradient-41"/><radialGradient id="radial-gradient-68" cx="110.098" cy="258.324" r="5.048" xlink:href="#radial-gradient-41"/><radialGradient id="radial-gradient-69" cx="116.491" cy="219.82" r="5.048" xlink:href="#radial-gradient-41"/><radialGradient id="radial-gradient-70" cx="207.585" cy="151.762" r="5.048" xlink:href="#radial-gradient-41"/><radialGradient id="radial-gradient-71" cx="183.147" cy="120.009" r="5.048" xlink:href="#radial-gradient-41"/><radialGradient id="radial-gradient-72" cx="143.517" cy="96.506" r="5.048" xlink:href="#radial-gradient-41"/><radialGradient id="radial-gradient-73" cx="240.716" cy="90.845" r="5.048" xlink:href="#radial-gradient-41"/><radialGradient id="radial-gradient-74" cx="207.734" cy="55.633" r="5.048" xlink:href="#radial-gradient-41"/><radialGradient id="radial-gradient-75" cx="119.016" cy="72.181" r="5.048" xlink:href="#radial-gradient-41"/></defs><title>plant-8</title><g class="cls-1"><g id="Layer_2" data-name="Layer 2"><g id="plants"><g id="plant-8"><path class="cls-2" d="M120.7,379.3l10.021-.934s4.264-7.036-2.345-4.477-3.732-31.351,0-43.5,5.543-1.918,7.249-10.021,5.024,6.875,4.644-5.517,4.951,1.466,5.59,12.98-1.492,23.667,3.625,24.093,1.706-13.432,0-23.453-.392-29.085,4.814-14.969,10.329-10.612,10.827-17.86,8.977,6.721,9.789,14.108,5.973,56.927,8.343,31.077,6.8-19.454,9.461-6.215,6.537,20.562,8.3,11.155,4.964,8.29,6.457,3.6,9.784,24.943.841,22.173-5.745,14.287-5.745,14.287l29.637-8.1L215.582,314.61,203,279.856l5.118-50.106V209.282l-58.209-6.61-36.037,9.693,1.5,66.425-1.5,50.319-5.966,17.058L91.49,361.945,83.6,385.825l10.874,4.264Z"/><path class="cls-3" d="M195.007,371.753c-2.239-.48-3.358,3.837-8,.319s-4.957-21.268-3.2-37.259,2.239-29,3.358-34.011c.7-3.117-4.428-5.784-7.821-15.293a18.15,18.15,0,0,0-.739-2.307c-2.538-6.515,16.076-26.052,17.142-24.881,0,0,3.2-13.219,0-4.69-2.647,7.058-14.925,15.279-19.081,17.906a90.212,90.212,0,0,1,.1-12.523c2.4-32.942-18.23-16.79-18.23-16.79s-9.3,3.648-21.2-16.806-4.227-1.584-4.227-1.584,10.394,10.234,13.272,23.027-20.309,7.356-20.309,7.356l.32,4.477s17.431-2.4,23.827,1.12S164.3,274.046,164.3,274.046s7.835,25.426,10.234,34.221.8,12.473-.8,15.032-8.475,15.032-10.874,19.989-1.759,13.593-2.558,20.309-13.273,9.115-18.07,8.156-.64,4.477-15.832,4.637-12.313,6.077-12.313,6.077l79.317,3.358,12.793-4.478,4.477-3.838S197.245,372.232,195.007,371.753Z"/><path class="cls-4" d="M195.22,380.494c2.189,1.439,2.834,2.751,2.439,3.843l8.542-2.99,4.159-3.565a22.289,22.289,0,0,0-4.053-1.659c-21.748-6.5-8.315,5.97-8.315,5.97-13.054-8.454-4.542-9.1,1.849-8.717-.932-.341-1.807-.655-2.56-.915C190.861,372.292,187.055,375.129,195.22,380.494Z"/><path class="cls-4" d="M163.805,341.407c-.356.7-.679,1.34-.941,1.881-.013.027-.023.057-.036.084.093,21.124,15.558,21.235,20.837,20.652-.1-.619-.2-1.267-.281-1.934C171.28,364.509,165.734,354.116,163.805,341.407Z"/><path class="cls-4" d="M170.263,293.633q.361,1.2.716,2.39c7.364,5.707,10.382-1.455,10.382-1.455-1.21,10.326-7.117,5.809-9.922,3l.065.219c8.255,9.309,10.621,2.094,10.849-5.9a35.3,35.3,0,0,1-1.95-3.77C180.093,298.012,174.812,296.844,170.263,293.633Z"/><path class="cls-4" d="M175.031,310.273c.228,1.023.4,1.967.512,2.841,4.143,5.215,8.483-1.871,10.952-7.791.112-1,.228-1.906.349-2.7C183.34,311.034,178.347,313.221,175.031,310.273Z"/><path class="cls-4" d="M172.766,324.941c-.226.391-.477.829-.746,1.3.884,32.7,6.713,28.452,10.927,19.956q.065-1.568.162-3.155C178.142,352.447,174.384,337.023,172.766,324.941Z"/><path class="cls-4" d="M175.181,320.228a11.483,11.483,0,0,1-.714,1.776c3.656,19.751,6.968,19.743,8.943,16.938q.087-1.019.187-2.034C181.386,336.222,177.814,327.886,175.181,320.228Z"/><path class="cls-4" d="M138.521,257.9c1.16-1.038,1.264-1.967.856-2.74-.384.051-.773.09-1.167.122a3.988,3.988,0,0,1-1.329,2.631C137.423,257.9,137.971,257.9,138.521,257.9Z"/><path class="cls-4" d="M168.537,287.912c.332,1.1.67,2.214,1.01,3.339,9.051,7.785,10.41.954,10.324-4.386-.17-.425-.34-.854-.5-1.31C178.509,296.8,171.362,290.773,168.537,287.912Z"/><path class="cls-4" d="M141.551,257.979c.266.014.529.031.793.05a2.847,2.847,0,0,0,.055-3.581c-.335.121-.679.231-1.038.325A2.379,2.379,0,0,1,141.551,257.979Z"/><path class="cls-4" d="M160.908,354.079q-.057,1.029-.1,2.067c6.371,12.332,19.868,9.78,23.06,8.974l-.018-.1C170.232,366.929,163.687,361.246,160.908,354.079Z"/><path class="cls-4" d="M171.979,265.038c-.116,8.832-3.074,12.668-6.135,14.03l.265.867C176.375,276.083,172.268,243.189,171.979,265.038Z"/><path class="cls-4" d="M157.907,377.7s-8.955,14.411,1.613-1.154c4.265-6.281,2.791-9-.481-10.013a9.145,9.145,0,0,1-1.878,1.8C162.264,369.327,157.907,377.7,157.907,377.7Z"/><path class="cls-4" d="M170.807,259.494c1.43,7.3-2.4,14.541-6.083,15.92.11.356.237.77.383,1.245C175.921,274.857,168.878,249.65,170.807,259.494Z"/><path class="cls-4" d="M151.482,382.663c.363-.575,1.342-2.083,3.333-4.959,3.843-5.55,2.878-7.665.617-8.289a20,20,0,0,1-3.079,1.267C157.714,371.615,152.518,380.927,151.482,382.663Z"/><path class="cls-4" d="M158.931,380.388s7.825-13.8,13.262-1.092a10.513,10.513,0,0,0,2.26,3.3,12.074,12.074,0,0,0-.661-3.3c-2.879-8.5-5.718-11.793-14.861,0-2.055,2.65-3.181,4.158-3.7,4.912l.311.014C156.7,383,158.931,380.388,158.931,380.388Z"/><path class="cls-5" d="M190.765,376.144c-1-2.518,2.148-3.8,6.516-3.683-.533-.184-1-.341-1.4-.463a12.791,12.791,0,0,0-2.9.4,6.012,6.012,0,0,1-2,1A2.055,2.055,0,0,0,190.765,376.144Z"/><path class="cls-6" d="M194.281,377.414c-1.259-2.686.019-4.881,12.026-1.291a22.126,22.126,0,0,1,3.546,1.421l.267-.228c-.1-.053-.212-.1-.313-.148-.945-.368-2.567-1-4.406-1.7C193.367,371.97,192.7,374.585,194.281,377.414Z"/><path class="cls-7" d="M183.384,362.09c-.031-.24-.059-.485-.087-.733-11.677,1.881-17.147-8.227-19.13-20.657q-.187.363-.362.707C165.734,354.116,171.28,364.509,183.384,362.09Z"/><path class="cls-8" d="M180.4,288.118c-.121-.272-.244-.538-.363-.824a19.879,19.879,0,0,1-.409,3.252c-.3,1.762-.939,3.273-2.149,3.9-2.019,1.379-4.9.127-7.539-1.888l.03.106q.145.483.29.967C174.812,296.844,180.093,298.012,180.4,288.118Z"/><path class="cls-9" d="M181.361,294.568a6.772,6.772,0,0,1-.642,1.108c-1.672,8.231-6.808,4.112-9.46,1.285l.08.271q.627.753,1.208,1.371C175.57,301.234,180.293,303.678,181.361,294.568Z"/><path class="cls-10" d="M186.844,302.622c.048-.315.1-.624.147-.905-3.754,7.573-8.86,9.569-12.362,6.908q.227.857.4,1.648C178.347,313.221,183.34,311.034,186.844,302.622Z"/><path class="cls-11" d="M172.766,324.941c1.618,12.082,5.376,27.506,10.343,18.1q.076-1.262.173-2.529c-4.492,7.225-7.938-5.752-9.618-17.094-.229.371-.549.913-.935,1.583Z"/><path class="cls-12" d="M175.181,320.228c2.633,7.658,6.2,15.994,8.416,16.68.067-.682.136-1.364.21-2.042-2.224-1.507-5.518-9.283-7.986-16.463a11.532,11.532,0,0,1-.474,1.246c-.051.2-.108.392-.166.58Z"/><path class="cls-13" d="M136.881,257.911a3.988,3.988,0,0,0,1.329-2.631c-.248.019-.5.035-.75.047a5.18,5.18,0,0,1-1.22,2.6c.213-.006.427-.012.643-.016Z"/><path class="cls-14" d="M168.537,287.912c2.8,2.832,9.824,8.75,10.8-2.032,0-.137,0-.275,0-.412-.126-.508-.3-1.071-.515-1.668-.863,10.957-7.8,5.435-10.771,2.515q.246.808.5,1.637Z"/><path class="cls-15" d="M141.361,254.773c-.145.038-.294.072-.443.106a2.352,2.352,0,0,1,.129,3.075c.169.007.336.016.5.025A2.379,2.379,0,0,0,141.361,254.773Z"/><path class="cls-16" d="M160.908,354.079c2.724,7.023,9.082,12.6,22.15,11.032-13.231.647-19.533-4.854-22.118-11.572q-.061,1.046-.111,2.1C160.855,355.122,160.879,354.6,160.908,354.079Z"/><path class="cls-17" d="M165.844,279.068c3.061-1.362,6.019-5.2,6.135-14.03.064-4.848.316-7,.558-7.37-.281-1.333-.747.133-.837,6.986-.115,8.7-2.985,12.544-5.995,13.96l.147.479Z"/><path class="cls-18" d="M159.527,376.54l.633-.93c4.265-6.281,2.791-9-.481-10.014-.02.025-.045.047-.065.072a6.732,6.732,0,0,1-.575.869C162.309,367.549,163.783,370.266,159.527,376.54Z"/><path class="cls-19" d="M164.724,275.414c2.47-.925,5-4.492,5.97-8.941.508-6.723-1.575-13.488-.415-7.565,1.391,7.1-2.194,14.127-5.779,15.777.1.322.238.772.4,1.309C164.838,275.786,164.779,275.592,164.724,275.414Z"/><path class="cls-20" d="M155.432,369.415c2.261.624,3.226,2.739-.617,8.289-.979,1.414-1.711,2.5-2.248,3.3-.18.323-.338.6-.445.779.362-.575,1.342-2.083,3.333-4.959,3.52-5.084,3-7.281,1.152-8.094-.375.242-.766.473-1.177.687Z"/><path class="cls-21" d="M174.431,378.11c-2.878-8.5-5.718-11.793-14.86,0-2.055,2.65-3.181,4.158-3.7,4.912l.21.009c.637-.859,1.56-2.072,2.85-3.735,9.143-11.793,11.982-8.5,14.861,0q.16.476.278.921a11.493,11.493,0,0,0,1.022,1.192A12.036,12.036,0,0,0,174.431,378.11Z"/><path class="cls-4" d="M194.281,377.414a21.421,21.421,0,0,0,3.471,4.213c-.235-.152-.448-.3-.669-.444.527.554.909.91.909.91-4.13-2.675-6.1-4.566-6.66-5.893-1.844-3.024,2.746-3.5,7.057-3.349-.388-.138-.762-.271-1.105-.389-4.371-.116-7.519,1.164-6.519,3.682a12.879,12.879,0,0,0,4.215,3.884,5.9,5.9,0,0,1,2.384,2.456,2.287,2.287,0,0,1,.391,1.269l8.206-2.872,3.892-3.337a22.126,22.126,0,0,0-3.546-1.421C194.3,372.533,193.022,374.728,194.281,377.414Z"/><path class="cls-4" d="M183.384,362.09c-12.1,2.419-17.65-7.974-19.579-20.683-.178.347-.343.674-.5.983l-.189.383c.332,19.981,14.53,20.959,20.428,20.493q-.087-.575-.162-1.174Z"/><path class="cls-4" d="M182.011,291.308a35.5,35.5,0,0,1-1.608-3.189c-.31,9.893-5.591,8.725-10.14,5.514q.237.788.471,1.571c7.308,6.052,10.307-1.632,10.307-1.632-.085.78-.194,1.474-.322,2.1a6.772,6.772,0,0,0,.642-1.108c-1.068,9.11-5.791,6.666-8.814,4.035C179.516,306.009,181.7,299.192,182.011,291.308Z"/><path class="cls-4" d="M175.031,310.273c.106.477.2.938.282,1.382,4.216,4.366,8.575-1.593,11.276-7.161.082-.684.167-1.3.255-1.872C183.34,311.034,178.347,313.221,175.031,310.273Z"/><path class="cls-4" d="M172.766,324.941l-.037.064c1.031,29.1,6.268,26.45,10.329,18.871.016-.277.034-.554.051-.831C178.142,352.447,174.384,337.023,172.766,324.941Z"/><path class="cls-4" d="M183.6,336.908c-2.211-.686-5.783-9.022-8.416-16.68-.013.044-.025.091-.039.133,3.33,17.888,6.371,19.409,8.372,17.4.027-.285.055-.568.083-.852Z"/><path class="cls-4" d="M136.881,257.911c.341-.007.682-.011,1.025-.013a2.762,2.762,0,0,0,.886-2.675c-.193.02-.386.041-.582.057A3.988,3.988,0,0,1,136.881,257.911Z"/><path class="cls-4" d="M168.537,287.912c.178.585.344,1.135.512,1.689,8.563,7.182,10.218,1.424,10.287-3.721C178.361,296.662,171.334,290.744,168.537,287.912Z"/><path class="cls-4" d="M141.361,254.773a2.379,2.379,0,0,1,.19,3.206c.1.006.2.009.3.015a2.808,2.808,0,0,0,.122-3.4q-.3.094-.607.176Z"/><path class="cls-4" d="M183.866,365.119l-.01-.051c-.27.018-.534.031-.8.043-13.068,1.572-19.426-4.009-22.15-11.032-.029.52-.053,1.043-.078,1.567,5.354,10.117,16.384,10.328,21.631,9.78.575-.108,1.055-.217,1.405-.306Z"/><path class="cls-4" d="M165.844,279.068c.047.153.089.29.129.422,6.9-2.813,7.173-18.925,6.564-21.822-.242.373-.494,2.522-.558,7.37C171.863,273.87,168.905,277.706,165.844,279.068Z"/><path class="cls-4" d="M159.039,366.537a8.1,8.1,0,0,1-.854.944c4.465,1.362.362,9.283.362,9.283s-8.568,13.788.98-.224C163.783,370.266,162.309,367.549,159.039,366.537Z"/><path class="cls-4" d="M164.724,275.414l.178.58c4.05-.887,5.464-5.188,5.792-9.521C169.723,270.922,167.194,274.489,164.724,275.414Z"/><path class="cls-4" d="M155.432,369.415c-.475.248-.97.473-1.478.683,3.294,1.662.054,8.309-1.387,10.9.537-.8,1.269-1.885,2.248-3.3C158.658,372.154,157.693,370.039,155.432,369.415Z"/><path class="cls-4" d="M158.931,379.3c-1.29,1.663-2.213,2.876-2.85,3.735l.1,0c1.154-1.22,3.389-3.834,3.389-3.834s7.824-13.805,13.261-1.092a10.115,10.115,0,0,0,1.238,2.107q-.118-.445-.278-.921C170.913,370.793,168.074,367.5,158.931,379.3Z"/><path class="cls-22" d="M159.559,365.783c4.192-5.564.838,8.948-9.328,7.782-10.7-1.228,2.879,7.462,2.879,7.462s8.528-2.132,12.9-13.326,3.305,15.352,3.305,15.352,11.691,5.627,8.635-4c-3.2-10.074-3.274-9.328,7.585-3.465s16.3,6.45,16.3,6.45-4.469-11.806-11.567-7.889c-1.717.948-4.81.021-6.237-1.013-6.035-4.37-3.244-11.4,1.358-3.2-3.056-6.091-3.1-21.266-1.571-35.126,1.759-15.991,2.239-29,3.358-34.011.7-3.117-4.428-5.784-7.821-15.293a18.15,18.15,0,0,0-.739-2.307c-2.538-6.515,16.076-26.052,17.142-24.881,0,0,3.2-13.219,0-4.69-2.647,7.058-14.925,15.279-19.081,17.906a90.212,90.212,0,0,1,.1-12.523c2.4-32.942-18.23-16.79-18.23-16.79s-9.3,3.648-21.2-16.806-4.227-1.584-4.227-1.584,10.394,10.234,13.272,23.027-20.309,7.356-20.309,7.356l.32,4.477s17.431-2.4,23.827,1.12S164.3,274.046,164.3,274.046s3.69,11.977,6.781,22.333c0-.019-4.2-14.033-1.025-15.777,3.2-1.759,10.555,16.318,13.113,20.259,2.348,3.617-6.636,24.449-7.462,16.494a12.241,12.241,0,0,1-1.973,5.944c-.625,1-2.062,3.526-3.719,6.519,7.291-9.877,9.849-10.409,9,1.53s-20.737,33.663-17.2,15.035c-1.164,4.993-.861,11.74-1.512,17.214A5.716,5.716,0,0,1,159.559,365.783Z"/><path class="cls-23" d="M143.41,238.492c-.036-.074-.073-.136-.109-.208a39.362,39.362,0,0,1,3.092,8.577c1.008,4.48-1.184,6.719-4.453,7.744C155.119,251.842,147.993,247.874,143.41,238.492Z"/><path class="cls-24" d="M132.428,256.189,132,255.151a51.165,51.165,0,0,1-5.911-.934l.32,4.477s17.431-2.4,23.827,1.12c3.577,1.967,7.552,6.183,10.363,9.519-.082-.225-.148-.444-.235-.671C154.875,254.37,142.022,256.189,132.428,256.189Z"/><path class="cls-25" d="M182.747,269.515c-5.977,5.037-9.7,8.955-1.806,19.774a37.7,37.7,0,0,1-1.591-3.78,18.15,18.15,0,0,0-.739-2.307c-2.538-6.515,16.076-26.052,17.142-24.881,0,0,.324-1.341.663-2.893C194.266,257.9,187.682,265.356,182.747,269.515Z"/><path class="cls-26" d="M149.977,378.812c1.618,1.245,3.133,2.215,3.133,2.215s8.528-2.132,12.9-13.326c.132-.336.257-.634.379-.9C163.4,372.694,155.278,376.722,149.977,378.812Z"/><path class="cls-27" d="M165.37,265.358c1.812,4.8,5.33,9.807,8.208,9.168.63-.14,2.135-1.538,4.1-3.637-.369.24-.714.462-1.008.648a90.212,90.212,0,0,1,.1-12.523c2.4-32.942-18.23-16.79-18.23-16.79s-9.3,3.648-21.2-16.806c-.312-.537-.6-1.032-.89-1.516.076.2.153.4.234.624C139.784,233.162,163.557,260.56,165.37,265.358Z"/><path class="cls-28" d="M173.6,376.713c-.4,3.623-1.976,5.593-3.524,6.673,2.54,1.055,10.455,3.787,7.877-4.331-1.986-6.256-2.762-8.334-.47-7.611C175.511,370.58,174.431,369.087,173.6,376.713Z"/><path class="cls-29" d="M192.661,376.337c-3.944.319-5.731-.731-11.534-3.146,1.2.652,2.649,1.45,4.407,2.4a74.849,74.849,0,0,0,12.029,5.36l1.5-1.654A7.835,7.835,0,0,0,192.661,376.337Z"/><path class="cls-30" d="M232.213,377.723,215.582,314.61,203,279.856l5.118-50.106V209.281l-58.209-6.609-36.037,9.693,1.5,66.425-1.5,50.319-5.966,17.057L91.49,361.945,83.6,385.825l10.874,4.264,19.484-8.019a2.235,2.235,0,0,0,.132.4l79.317,3.358,8.765-3.068c.165,1.792.4,3.068.4,3.068Zm-69.349-34.435c-2.4,4.957-1.759,13.593-2.558,20.309s-13.273,9.115-18.07,8.156c-4.113-.823-1.656,3.052-10.435,4.277.587-1.776.528-3.675-3.424-2.145-6.61,2.558-3.732-31.351,0-43.5s5.543-1.918,7.249-10.021,5.024,6.875,4.644-5.517,4.951,1.466,5.59,12.98-1.492,23.667,3.625,24.093,1.706-13.432,0-23.453-.392-29.085,4.814-14.969,10.329-10.612,10.827-17.86c.381-5.554,5.446,1.349,8.16,8.2.5,1.71.925,3.225,1.252,4.423.14.515.264,1.009.378,1.489.146,1.325.431,4,.813,7.341a12.288,12.288,0,0,1-1.991,6.2C172.139,325.858,165.263,338.331,162.864,343.288Zm24.147,28.784c-4.061-3.081-4.811-17.077-3.753-31.248,2.369-25.847,6.8-19.452,9.461-6.213s6.537,20.562,8.3,11.155,4.964,8.29,6.457,3.6,9.784,24.943.841,22.173c-3.176-.984-4.817.537-5.617,2.9-3.337-1.256-6.678-2.47-7.7-2.688C192.768,371.273,191.649,375.59,187.011,372.072Z"/><path class="cls-31" d="M255.027,365.036c2.132-13.859-3.3-11.62-11.3-8.422s-19.616-25.479-25.373-55.223,24.307-96.267,33.9-129.849c1.527-5.344,3.2-11.245,4.855-17.5,0,0,9.145-3.939,8.791-11.928-1.492-33.688,1.693-40.872,1.064-54.583-.564-12.3-3.283-23.324-9.379-31.534-19.616-26.416-50.959-29.872-50.959-29.872C197.885,19.306,194.26,27.2,194.26,27.2c-17.91-17.7-23.667-3.838-23.667-3.838-21.108-10.661-15.778,0-15.778,0s-34.008-8.529-60.233,9.061C77.853,43.639,67.631,53.428,69.145,85.194a81.267,81.267,0,0,1-.426,12.623c-.281,2.6-.032,5.272,2.194,5.261,0,0,6.5,36.009,13.115,61.748C109.933,265.571,109.773,304.11,109.134,315.3s-6.077,29.424-9.915,35.821-6.236.32-8.955,6.556-4.158,12.633-12.473,10.075-4.318,2.558-9.915,1.119-11.993,7.516-19.029,7.2-5.917,3.358-5.917,3.358c-7.036,4.478.8,7.356,14.232,6.557s16.631,1.759,8.156,4.317-14.552,4.958-13.593,8.476,16.151,4,42.217,6.236,61.406,2.452,60.34-2.434-47.973,2.434-48.613-4.282,46.481-5.331,61.513-3.412,3.625,1.493,6.929,6.29,22.282,5.359,33.9-10.127c4.761-6.345,12.473-5.118,20.362-3.3s14.179-3.945,14.179-3.945a11.072,11.072,0,0,0,12.9-5.97C259.825,369.3,255.027,365.036,255.027,365.036Zm-54.157,8.209c-6.4,4.478-3.625,8.955-14.712,3.625s-9.808,3.411-22.388-.853-18.549-4.264-22.6-1.706-7.25-4.051-12.793-.426-6.823.639-14.286-3.2-16.418,19.83-17.057.853,11.087-16.2,17.27-18.55,5.757-12.579,6.184-18.976,7.249-.213,5.543-17.057-3.624-38.592-1.492-37.953,1.919,20.682,4.69,20.425,1.706-38.335,3.838-21.064-6.183,59.061,5.118,59.7-14.5-99.359,0-113.644c11.07-10.908,12.153,22.388,12.792,55.01s3.412,38.432,8.209,38.752S165.9,290.677,165.9,279s3.838-16.151,5.6-9.914-.8,23.827,3.678,24.146,2.4-14.392,3.038-25.586,1.6-4.477,5.917-5.436,2.558-12.474,7.6-11.514,3.433,23.507,1.034,43.5-.64,56.929,5.437,56.769,1.439-34.061,5.277-33.422.16,16.471,3.518,16.631-.16-15.192,2.079-14.552.8,3.678,2.079,25.426,10.874,29.424,10.874,29.424S207.267,368.767,200.87,373.245Z"/><path class="cls-32" d="M206.627,26.129C197.885,19.306,194.26,27.2,194.26,27.2c-17.91-17.7-23.667-3.838-23.667-3.838-21.108-10.661-15.778,0-15.778,0s-34.008-8.529-60.233,9.061C86.26,38,79.551,43.232,75.093,50.987c0,0,11.06-21.572,41.876-9.374,20.469,8.1,16.738-4.4,29.105-8.448s30.276,1.492,39.871,12.153,3.411,9.595,10.234,3.838c10.031-8.464,23.667,17.7,36.46,18.356s21.3-15.984,30.843-.022A41.956,41.956,0,0,0,257.586,56C237.97,29.585,206.627,26.129,206.627,26.129Z"/><path class="cls-33" d="M199.378,156.83c6.556-.915,5.33-23.027,0-22.068S194.794,157.47,199.378,156.83Z"/><path class="cls-34" d="M210.678,154.755c2.879-.483.96-6.011-1.919-5.966S207.8,155.239,210.678,154.755Z"/><path class="cls-35" d="M57.162,385.985c13.433-.8,16.631,1.759,8.156,4.317s-14.552,4.958-13.593,8.476,16.151,4,42.217,6.236,61.406,2.452,60.34-2.434-47.973,2.434-48.613-4.282,46.481-5.331,61.513-3.412,3.625,1.493,6.929,6.29,22.282,5.359,33.9-10.127c4.76-6.345,12.473-5.118,20.362-3.3s14.179-3.945,14.179-3.945a11.072,11.072,0,0,0,12.9-5.97c4.371-8.529-.427-12.793-.427-12.793,2.132-13.859-3.3-11.62-11.3-8.422-5.914,2.366-13.808-12.712-19.849-32.755-18.79-45.992-2.326-96.667-1.846-111.889s-6.876-6.526-6.556-18.36-2.879-22.707-4.8-5.117-8,14.392-7.036-5.437-7.036-18.87-5.437,1.919,9.275,48.293-1.6,47.691.959-27.222-2.239-45.452-17.249-69.778-40.68-65.564c-15.415,2.771-19.98,23.24-17.421,63.325s-3.838,10.234-11.088,17.307,2.132,31.733,2.132,58.74c0,26.05-15.866-1.447-18.14,41.338.238,6.14.115,10.3-.036,12.943-.64,11.194-6.077,29.424-9.915,35.821s-6.236.32-8.955,6.556-4.158,12.633-12.473,10.075-4.318,2.558-9.915,1.119a6.446,6.446,0,0,0-3.927.41c-7.315,5.545-14.837,10.655-22.008,15.2C44.55,385.8,50.075,386.406,57.162,385.985Zm57.142-33c6.184-2.345,5.757-12.579,6.184-18.976s7.249-.213,5.543-17.057-3.624-38.592-1.492-37.953,1.919,20.682,4.69,20.425,1.706-38.335,3.838-21.064-6.183,59.061,5.118,59.7-14.5-99.359,0-113.644c11.07-10.908,12.153,22.388,12.792,55.01s3.412,38.432,8.209,38.752S165.9,290.677,165.9,279s3.838-16.151,5.6-9.914-.8,23.827,3.678,24.146,2.4-14.392,3.038-25.586,1.6-4.477,5.917-5.436,2.558-12.474,7.6-11.514,3.433,23.507,1.034,43.5-.64,56.929,5.437,56.769,1.439-34.061,5.277-33.422.16,16.471,3.518,16.631-.16-15.192,2.079-14.552.8,3.678,2.079,25.426,10.874,29.424,10.874,29.424-14.765-5.7-21.162-1.226-3.625,8.955-14.712,3.625-9.808,3.411-22.388-.853-18.549-4.264-22.6-1.706-7.25-4.051-12.793-.426-6.823.639-14.286-3.2-16.418,19.83-17.057.853S108.121,355.335,114.3,352.989Z"/><path class="cls-36" d="M109.17,302.359c2.274-42.784,18.14-15.287,18.14-41.337,0-27.007-9.381-51.667-2.132-58.74s13.646,22.778,11.088-17.307,2.006-60.554,17.421-63.325c23.431-4.214,37.482,47.334,40.68,65.564s-8.635,44.85,2.239,45.452,3.2-26.9,1.6-47.691,6.4-21.748,5.437-1.919,5.117,23.027,7.036,5.437,5.117-6.716,4.8,5.117,7.036,3.139,6.556,18.36-16.944,65.9,1.842,111.88a231.219,231.219,0,0,1-5.52-22.459c-5-25.809,16.972-79.3,29.142-114.94-21.349,58.922-32.113,74.267-28.822,59.194s14.712-57.152,8-51.075-6.076-1.28-10.874-15.352-7.356,4.478-9.914-7.676-6.4-9.275-11.834-.639-8.955-76.119-40.36-63.326-16.878,93.389-19.767,93.709-6.4-17.91-12.793-11.834,3.281,40.831,4.957,64.765-7.515,14.232-12.21,18.153S99.384,223.7,78.257,141.229c1.679,7.294,3.594,15.133,5.771,23.6C103.823,241.809,108.4,282.467,109.17,302.359Z"/><path class="cls-37" d="M222.032,332.574c-4.885-.506-6.716-15.831-9.275-21.057s-3.678,8.1-13.7-6.128,1.866-47.014-3.572-56.148-9.874,12.017-14.125,8.427-3.145,3.425-7.155,5.5-4.465-23.507-9.482-3.518-13.213,9.755-13.533-7.836.16-45.415-12.316-35.34-2.635,41.449-6.234,50.462-3.678,28.534-6.557,14.622-4.73-6.974-2.878,23.187c1.763,28.713-13.876,28.1-14.011,9.327-.019.438-.04.852-.061,1.227-.64,11.194-6.077,29.424-9.915,35.821s-6.236.32-8.955,6.556-4.158,12.633-12.473,10.075-4.318,2.558-9.915,1.119a6.446,6.446,0,0,0-3.927.41c-7.315,5.545-14.837,10.655-22.008,15.2,2.609,1.32,8.134,1.922,15.221,1.5,13.433-.8,16.631,1.759,8.156,4.317s-14.552,4.958-13.593,8.476,16.151,4,42.217,6.236,61.406,2.452,60.34-2.434-47.973,2.434-48.613-4.282,46.481-5.331,61.513-3.412,3.625,1.493,6.929,6.29,22.282,5.359,33.9-10.127c4.76-6.345,12.473-5.118,20.362-3.3s14.179-3.945,14.179-3.945a11.072,11.072,0,0,0,12.9-5.97c4.371-8.529-.427-12.793-.427-12.793,2.132-13.859-3.3-11.62-11.3-8.422-5.534,2.214-12.8-10.849-18.663-28.96C225.061,327.656,226.917,333.08,222.032,332.574ZM200.87,373.245c-6.4,4.478-3.625,8.955-14.712,3.625s-9.808,3.411-22.388-.853-18.549-4.264-22.6-1.706-7.25-4.051-12.793-.426-6.823.639-14.286-3.2-16.418,19.83-17.057.853,11.087-16.2,17.27-18.55,5.757-12.579,6.184-18.976,7.249-.213,5.543-17.057-3.624-38.592-1.492-37.953,1.919,20.682,4.69,20.425,1.706-38.335,3.838-21.064-6.183,59.061,5.118,59.7-14.5-99.359,0-113.644c11.07-10.908,12.153,22.388,12.792,55.01s3.412,38.432,8.209,38.752S165.9,290.677,165.9,279s3.838-16.151,5.6-9.914-.8,23.827,3.678,24.146,2.4-14.392,3.038-25.586,1.6-4.477,5.917-5.436,2.558-12.474,7.6-11.514,3.433,23.507,1.034,43.5-.64,56.929,5.437,56.769,1.439-34.061,5.277-33.422.16,16.471,3.518,16.631-.16-15.192,2.079-14.552.8,3.678,2.079,25.426,10.874,29.424,10.874,29.424S207.267,368.767,200.87,373.245Z"/><path class="cls-38" d="M116.969,41.613c20.469,8.1,16.738-4.4,29.105-8.448s30.276,1.492,39.871,12.153,3.411,9.595,10.234,3.838c10.031-8.464,23.667,17.7,36.46,18.356,8.831.456,15.625-7.337,22.126-6.948-2.372-.338-5.585-.068-9.759,1.8-10.448,4.683-40.938-19.821-47.334-15.77s-11.514-8.955-30.7-14.712-28.01,5.671-37.526,7.889S104.71,30.819,85.814,41C92.473,37.59,102.561,35.91,116.969,41.613Z"/><path class="cls-32" d="M206.627,26.129C197.885,19.306,194.26,27.2,194.26,27.2c-17.91-17.7-23.667-3.838-23.667-3.838-21.108-10.661-15.778,0-15.778,0s-34.008-8.529-60.233,9.061C86.26,38,79.551,43.232,75.093,50.987c0,0,11.06-21.572,41.876-9.374,20.469,8.1,16.738-4.4,29.105-8.448s30.276,1.492,39.871,12.153,3.411,9.595,10.234,3.838c10.031-8.464,23.667,17.7,36.46,18.356s21.3-15.984,30.843-.022A41.956,41.956,0,0,0,257.586,56C237.97,29.585,206.627,26.129,206.627,26.129Z"/><path class="cls-39" d="M232.639,67.512c-12.793-.659-26.429-26.82-36.46-18.356-6.823,5.757-.639,6.823-10.234-3.838s-27.5-16.2-39.871-12.153-8.636,16.551-29.105,8.448C91.663,31.6,79.687,44.346,76.211,49.228c-.378.58-.766,1.148-1.117,1.758-5.135,8.934-7.276,21.231-5.445,41.278-3.546-57.8,50.3-48.532,56.6-46.733,6.717,1.919,8.636-2.239,27.443-7.835s35.4,14.871,38.441,16.63,12.473-7.995,22.388,2.4,9.915,18.87,23.507,10.807c13.166-7.81,26.482-3.728,28.859,18.772a71.016,71.016,0,0,0-3.4-18.814C253.943,51.528,245.426,68.172,232.639,67.512Z"/><path class="cls-40" d="M250.656,126.127c-7.676,3.518-2.239,39.019-14.072,41.257s-7.036-38.059-14.552-51.491-24.467,25.905-26.378,0-30.391-46.7-35.06-33.582-14.52-12.473-27.953,21.995c-4.13,10.6-23.687,12.7-22.708,25.339,2.456,31.677,10.037,66.2,0,66.2-8.042,0-3.518-44.776-3.518-68.443,0-15.57-17.225-7.262-16.95,3.838.639,25.9-10.553,16.313-18.374-26.926,2.281,15.728,6.488,35.431,12.937,60.508C109.933,265.571,109.773,304.11,109.134,315.3s-6.077,29.424-9.915,35.821-6.236.32-8.955,6.556-4.158,12.633-12.473,10.075-4.318,2.558-9.915,1.119-11.993,7.516-19.029,7.2-5.917,3.358-5.917,3.358c-7.036,4.478.8,7.356,14.232,6.557s16.631,1.759,8.156,4.317-14.552,4.958-13.593,8.476,16.151,4,42.217,6.236,61.406,2.452,60.34-2.434-47.973,2.434-48.613-4.282,46.481-5.331,61.513-3.412,3.625,1.493,6.929,6.29,22.282,5.359,33.9-10.127c4.76-6.345,12.473-5.118,20.362-3.3s14.179-3.945,14.179-3.945a11.072,11.072,0,0,0,12.9-5.97c4.371-8.529-.427-12.793-.427-12.793,2.132-13.859-3.3-11.62-11.3-8.422s-19.616-25.479-25.373-55.223,24.307-96.267,33.9-129.849c.721-2.521,1.475-5.179,2.243-7.926C258.75,147.5,258.051,122.738,250.656,126.127ZM222.032,374.471s-14.765-5.7-21.162-1.226-3.625,8.955-14.712,3.625-9.808,3.411-22.388-.853-18.549-4.264-22.6-1.706-7.25-4.051-12.793-.426-6.823.639-14.286-3.2-16.418,19.83-17.057.853,11.087-16.2,17.27-18.55,5.757-12.579,6.184-18.976,7.249-.213,5.543-17.057-3.624-38.592-1.492-37.953,1.919,20.682,4.69,20.425,1.706-38.335,3.838-21.064-6.183,59.061,5.118,59.7-14.5-99.359,0-113.644c11.07-10.908,12.153,22.388,12.792,55.01s3.412,38.432,8.209,38.752S165.9,290.677,165.9,279s3.838-16.151,5.6-9.914-.8,23.827,3.678,24.146,2.4-14.392,3.038-25.586,1.6-4.477,5.917-5.436,2.558-12.474,7.6-11.514,3.433,23.507,1.034,43.5-.64,56.929,5.437,56.769,1.439-34.061,5.277-33.422.16,16.471,3.518,16.631-.16-15.192,2.079-14.552.8,3.678,2.079,25.426S222.032,374.471,222.032,374.471Z"/><path class="cls-41" d="M91.064,139.08c.16-14.163,12.853-16.309,13.912-6.237.671,6.376.578,18.767.42,27.008.369-11.455,1.019-23.468,1.019-32.445,0-15.57-17.225-7.262-16.95,3.838.495,20.059-6.105,18.817-12.74-2.836C84.827,158.269,90.9,153.243,91.064,139.08Z"/><path class="cls-42" d="M110.413,199.367c5.917.8,8.278-5.931,4.8-28.784s-4.477-39.5,4.158-46.855,11.357-10.247,13.433-17.469,11.868-14.756,20.886-14,8.058-8.034,13.335-8.514,20.207,5.461,24.467,19.35.533,27.345,8.262,28.144,8.657-12.4,14.125-15.191,11.674,20.848,13.433,38.728,5.917,21.718,12.313,19.959,4.714-25.9,7.874-35.98c2.791-8.9,9.391-1.145,9.446,8.937.775-12.563-1.12-23.938-6.286-21.57-7.676,3.518-2.239,39.019-14.072,41.257s-7.036-38.059-14.552-51.491-24.467,25.905-26.378,0-30.391-46.7-35.06-33.582-14.52-12.473-27.953,21.995c-4.13,10.6-23.687,12.7-22.708,25.339,2.456,31.677,10.037,66.2,0,66.2-1.7,0-2.838-2.025-3.577-5.417C107.124,195.3,108.377,199.092,110.413,199.367Z"/><path class="cls-43" d="M258.652,139.342c-.914-13.317-3.625-23.876-10.021-17.936s-2.133,30.094-6.823,35.438-13.22-12.38-15.139-32.636-8.528-14.925-14.567-10.021-16.657-.336-22.959-20.594-20.9-23.755-28.357-15.325-14.073-4.805-23.454,14-21.535,18.512-26.226,25.121-1.279,29,.853,43.923-5.117,12.58-5.544,2.985,3.61-37.141,0-45.857-16.2-2.97-18.763,16.3-9.78-2.785-12.559-15.9A84.336,84.336,0,0,1,73.58,94.571s-3.8,4.25-4.929,4.1c-.131,2.3.28,4.417,2.262,4.407,0,0,.58,3.21,1.564,8.377,7.689,37.078,17.59,44.2,16.988,19.789-.275-11.1,16.95-19.408,16.95-3.838,0,23.667-4.524,68.443,3.518,68.443,10.037,0,2.456-34.527,0-66.2-.979-12.635,18.578-14.741,22.708-25.339,13.433-34.468,23.285-8.882,27.953-21.995s33.15,7.676,35.06,33.582,18.862-13.433,26.378,0,2.718,53.73,14.552,51.491,6.4-37.739,14.072-41.257c7.395-3.389,8.094,21.377,3.842,37.489-.768,2.747-1.522,5.4-2.243,7.926,1.527-5.344,3.2-11.245,4.855-17.5,0,0,6.439-2.793,8.291-8.422C264.005,148.637,259.426,150.623,258.652,139.342Z"/><path class="cls-44" d="M113.874,272.37c4.7-3.921,13.887,5.78,12.21-18.153s-11.353-58.688-4.957-64.765,9.9,12.153,12.793,11.834-11.639-80.916,19.767-93.709,34.923,71.961,40.36,63.326,9.275-11.514,11.834.639,5.117-6.4,9.914,7.676,4.158,21.428,10.874,15.352-4.7,36-8,51.075c-1.884,8.627.844,7.265,7.518-6.5-7.26,10.424,1.851-27.368,2.823-32.419,1.066-5.544,3.2-17.484-1.493-14.712s-7.462-3.838-11.3-16.2-6.4-1.066-10.874-10.021-12.793,3.412-15.778-8.941-7.036-52.678-27.294-54.384S133.707,124.208,132,150.86s-.426,32.836-5.917,27.932-9.49,3.368-6.876,33.573-7.248,60.877-12.3,44.86C110.012,268.307,112.249,273.726,113.874,272.37Z"/><path class="cls-45" d="M138.875,216.478c12.476-10.075,12,17.75,12.316,35.34s8.517,27.825,13.533,7.836,5.472,5.6,9.482,3.518,2.9-9.094,7.155-5.5,8.688-17.56,14.125-8.427-6.449,41.916,3.572,56.148,11.14.9,13.7,6.128a40.867,40.867,0,0,1,2.1,6.364c-1.083-4.712-1.052-9.394-2.756-12.885-1.988-4.071-9.526,3.218-14.484-14.837s5.811-35.249-1.964-44.514-7.15,13.529-13.3,10.731-5.79,8.555-9.816-.138-4.289-9.857-9.66,5.537-10.407-7.291-10.833-30.292-5.331-31.37-15.8-17.937c-9.8,12.564-2.961,43.207-5.3,59.322a39,39,0,0,1,1.7-5.928C136.24,257.927,126.4,226.552,138.875,216.478Z"/><path class="cls-46" d="M100.732,204.193c6.556-.394,5.33-9.934,0-9.52S96.148,204.469,100.732,204.193Z"/><path class="cls-47" d="M117.769,53.527c3.552.969.48,13.912-4.637,11.194S114.251,52.567,117.769,53.527Z"/><path class="cls-48" d="M234.025,96.064c3.649-.562,3.039,15.031,1.919,15.031S231.946,96.383,234.025,96.064Z"/><path class="cls-49" d="M238.663,101.341c1.439,0,1.439-5.787,0-5.292S237.224,101.341,238.663,101.341Z"/><path class="cls-50" d="M212.1,301.3c1.439,0,1.439-5.786,0-5.292S210.663,301.3,212.1,301.3Z"/><path class="cls-51" d="M251.936,117.012c-4.912-2.627.479-15.352,3.837-8.955S258.812,120.69,251.936,117.012Z"/><path class="cls-52" d="M175.729,238.284c3.253-2.064,2.967-13.171.408-12.532S169.085,242.5,175.729,238.284Z"/><path class="cls-53" d="M207.877,296.191c3.253-2.064,2.967-13.171.408-12.532S201.233,300.406,207.877,296.191Z"/><path class="cls-54" d="M168.015,178.9c6.4.381,4.43,32.462-1,26.546S165.331,178.738,168.015,178.9Z"/><path class="cls-55" d="M162.877,177.459c3.161.289,4.988-8.475,2.967-8.475S161.13,177.3,162.877,177.459Z"/><path class="cls-56" d="M113.62,327.656c3.161.289,4.988-8.475,2.968-8.475S111.874,327.5,113.62,327.656Z"/><g class="cls-57"><path class="cls-58" d="M111.8,159.319c2.291.765,1.138,8.906-2.236,7.084S109.511,158.553,111.8,159.319Z"/><path class="cls-58" d="M116.305,161.573c1.759-.855,1.788-2.328,0-2.321S115.243,162.089,116.305,161.573Z"/><path class="cls-58" d="M196.105,78.045c1.442-.131,1.474-1.307.5-1.4S195.22,78.126,196.105,78.045Z"/><path class="cls-58" d="M193.582,393.32c-.557-1.952,5.2-2.4,5.4-.516S194.139,395.272,193.582,393.32Z"/><path class="cls-58" d="M99.8,391.435c-.556-1.952,5.2-2.4,5.4-.517S100.361,393.387,99.8,391.435Z"/><path class="cls-58" d="M199.653,391.6c1.442-.131,1.474-1.307.5-1.4S198.768,391.682,199.653,391.6Z"/><path class="cls-58" d="M88.452,388.123c1.675-1.147,3.927,4.172,2.2,4.955S86.778,389.271,88.452,388.123Z"/><path class="cls-58" d="M92.009,393.335c.582,1.325,1.708.982,1.49.026S91.652,392.521,92.009,393.335Z"/><path class="cls-58" d="M195.836,159.372c-.739-.331.185-1.665,1.108-1.049S196.574,159.7,195.836,159.372Z"/><path class="cls-58" d="M198.952,160.8c-.739-.331.185-1.664,1.108-1.049S199.69,161.13,198.952,160.8Z"/><path class="cls-58" d="M176.034,99.49c1.952-.511,2.09-4.122-.419-3.341S174.082,100,176.034,99.49Z"/><path class="cls-58" d="M196.984,104.3c1.952-.511,2.089-4.122-.42-3.341S195.031,104.806,196.984,104.3Z"/><path class="cls-58" d="M126.253,84.469c1.952-.511,2.09-4.122-.419-3.341S124.3,84.98,126.253,84.469Z"/><path class="cls-58" d="M158.666,148.753c1.952-.511,2.09-4.122-.419-3.342S156.714,149.264,158.666,148.753Z"/><path class="cls-58" d="M202.84,215.445c-.876-1.367.33-1.965,1.094-.885S202.84,215.445,202.84,215.445Z"/><path class="cls-58" d="M133.92,403.735c.79-.207.846-1.669-.17-1.353S133.13,403.942,133.92,403.735Z"/><path class="cls-58" d="M172.164,372.6c-.354-.553.133-.8.443-.358S172.164,372.6,172.164,372.6Z"/><path class="cls-58" d="M72.687,72.554c.864-.226.924-1.824-.186-1.478S71.823,72.78,72.687,72.554Z"/><path class="cls-58" d="M90.7,95.346c1.952-.511,2.089-4.123-.419-3.342S88.749,95.856,90.7,95.346Z"/><path class="cls-58" d="M69.921,74.488c-.388-.605.146-.869.484-.391S69.921,74.488,69.921,74.488Z"/><path class="cls-58" d="M140.46,192.714c-2.733-.488-1.074-4.2,1.757-3.611S143.193,193.2,140.46,192.714Z"/><path class="cls-58" d="M143.193,185.248c.78-.635,1.558,1.265.437,1.828S142.412,185.883,143.193,185.248Z"/><path class="cls-58" d="M149.368,197.258a1.246,1.246,0,0,0-1.272-2.114C147.026,195.632,148.1,198.4,149.368,197.258Z"/><path class="cls-58" d="M108.626,210.7c-2.058-1.841,1.464-4.978,3.807-3.807S110.48,212.357,108.626,210.7Z"/><path class="cls-58" d="M168.914,69.6c-2.057-1.841,1.465-4.978,3.807-3.807S170.769,71.262,168.914,69.6Z"/><path class="cls-58" d="M159.225,135.35c-2.058-1.841,1.464-4.978,3.806-3.807S161.079,137.009,159.225,135.35Z"/><path class="cls-58" d="M104.166,175.575c-1.869-.887-.915-3.253.665-2.253S105,175.972,104.166,175.575Z"/><path class="cls-58" d="M158.261,90.083c-1.868-.887-.914-3.253.665-2.253S159.1,90.48,158.261,90.083Z"/><path class="cls-58" d="M150.141,153.588c-.962-.457-.471-1.676.343-1.161S150.571,153.792,150.141,153.588Z"/><path class="cls-58" d="M162.3,94.952c-1.869-.887-.915-3.253.665-2.253S163.138,95.349,162.3,94.952Z"/><path class="cls-58" d="M157.577,138.115c-1.869-.887-.915-3.253.665-2.253S158.412,138.512,157.577,138.115Z"/><path class="cls-58" d="M107.881,377.287c1.9-2.565,5.558,2.714,2.825,4.23S106.422,379.253,107.881,377.287Z"/><path class="cls-58" d="M151.881,197.918c1.9-2.565,5.559,2.714,2.826,4.229S150.423,199.884,151.881,197.918Z"/><path class="cls-58" d="M251.6,72.981a1.247,1.247,0,0,0-1.273-2.115C249.261,71.354,250.335,74.119,251.6,72.981Z"/><path class="cls-58" d="M254.117,73.64c1.9-2.565,5.558,2.714,2.825,4.229S252.658,75.606,254.117,73.64Z"/><path class="cls-58" d="M111.753,373.24c1.9-2.565,5.558,2.714,2.825,4.23S110.294,375.206,111.753,373.24Z"/><path class="cls-58" d="M180.29,175.064c1.591-.864,2.469.939.908,1.7S178.7,175.927,180.29,175.064Z"/><path class="cls-58" d="M177.79,380.9c-.745,1.057-2.275-1.044-1.184-1.684S178.362,380.092,177.79,380.9Z"/><path class="cls-58" d="M207.463,62.134c-1.841,2.609-5.621-2.581-2.925-4.161S208.875,60.134,207.463,62.134Z"/><path class="cls-58" d="M153.11,58.593c-1.842,2.61-5.621-2.581-2.925-4.161S154.521,56.593,153.11,58.593Z"/><path class="cls-58" d="M180.19,395.241c-1.571.9-2.492-.88-.948-1.675S181.76,394.34,180.19,395.241Z"/><path class="cls-58" d="M173.029,171.76c.787.332,2.38,3.1-1.7,1.549S168.863,170,173.029,171.76Z"/><path class="cls-58" d="M187.435,105.317c.717-.967,2.095,1.022,1.065,1.593S186.886,106.057,187.435,105.317Z"/><path class="cls-58" d="M188.121,103.025c.6-.325.93.354.342.64S187.521,103.351,188.121,103.025Z"/><path class="cls-58" d="M185.385,101.781c.3.125.9,1.167-.642.583S183.815,101.119,185.385,101.781Z"/><path class="cls-58" d="M163.656,386.257c1.164-1.569,3.4,1.661,1.728,2.588S162.764,387.46,163.656,386.257Z"/><path class="cls-58" d="M73.178,380.822c1.9-2.565,5.558,2.714,2.825,4.229S71.719,382.788,73.178,380.822Z"/><path class="cls-58" d="M164.769,382.538c.973-.528,1.511.574.555,1.038S163.8,383.066,164.769,382.538Z"/><path class="cls-58" d="M157.585,377.209c.787.332,2.38,3.1-1.705,1.549S153.419,375.452,157.585,377.209Z"/><path class="cls-58" d="M98.208,64.051c1.9-2.565,5.558,2.714,2.825,4.229S96.75,66.017,98.208,64.051Z"/><path class="cls-58" d="M100.028,57.97c1.591-.863,2.469.939.908,1.7S98.437,58.833,100.028,57.97Z"/><path class="cls-58" d="M93.319,100.2c1.161-.63,1.8.686.663,1.239S92.158,100.833,93.319,100.2Z"/></g><path class="cls-59" d="M131.042,65.994c-8.748-10.721,9.275-36.347,24.946-33.043S186.9,42.09,186.9,53.459,143.3,81.021,131.042,65.994Z"/><path class="cls-60" d="M192.448,65.994c-6.435-5.171.746-17.763,8.422-17.087S223.151,63.3,216.009,69.979,196.819,69.507,192.448,65.994Z"/><path class="cls-61" d="M86.48,41.374c16.372-8.636,48.08,14.818,20.575,29.1S61.213,54.7,86.48,41.374Z"/><path class="cls-62" d="M252.9,62.05c-10.072,3.324-6.945,12.408,2.844,10.9S259.534,59.859,252.9,62.05Z"/><path class="cls-63" d="M198.448,122.716c2.343,4.122,20.546-11.547,11.271-17.66S193.932,114.77,198.448,122.716Z"/><path class="cls-64" d="M127.718,109.176c10.506-10.7-4.437-40.96-20.812-17.282S111.814,125.381,127.718,109.176Z"/><path class="cls-65" d="M142.076,403.758c-7.2.983-36.125,2.105-47.494-5.14s-28.345,4.064-34.541,1.439c-5.56-2.356-8.859-4.475-1.7-7.411-4.558,1.79-7.281,3.691-6.616,6.132.96,3.518,16.151,4,42.217,6.236s61.406,2.452,60.34-2.434c-.27-1.238-3.485-1.691-8.139-1.789C150.385,400.817,149.232,402.781,142.076,403.758Z"/><path class="cls-66" d="M42.93,379.428c-7.036,4.478.8,7.356,14.232,6.557s16.631,1.759,8.156,4.317q-2.154.651-4.071,1.293c10.757-3.481,19.421-1.3,17.823-7.373s-12.313-1.915-22.387.466-9.275-2.7-6.557-3.738c2.427-.927-6.608-3.7-4.846-4.578C42.271,377.21,42.93,379.428,42.93,379.428Z"/><path class="cls-67" d="M251.936,368.579c-11.354-9.73-14.393,5.209-14.393,5.209,7.107-10.021,19.728-3.343,17.271,1.467s-9.275,1.455-12.633,5.772-9.595,4-22.664.166-12.517,4.632-18.7,13.015c-5.475,7.425-27.252,8.79-27.313,4.928a2.775,2.775,0,0,0,.6,2.04c3.305,4.8,22.282,5.359,33.9-10.127,4.76-6.345,12.473-5.118,20.362-3.3s14.179-3.945,14.179-3.945a11.072,11.072,0,0,0,12.9-5.97c4.371-8.529-.427-12.793-.427-12.793a36.9,36.9,0,0,0,.456-4.58A11.777,11.777,0,0,1,251.936,368.579Z"/><path class="cls-68" d="M242.5,356.881c.03-.015.058-.032.089-.047-5.09.19-11.371-11.02-16.67-26.591C230.289,356.068,233.386,361.358,242.5,356.881Z"/><path class="cls-69" d="M127.364,387.446c-24.307,2.421-26.066,9.892-21.269,12.131a7.08,7.08,0,0,0,1.348.446c-1.055-.433-1.7-.991-1.774-1.725-.64-6.716,46.481-5.331,61.513-3.412,7.93,1.013,8.5,1.373,7.756,2.191C180.514,391.3,151.241,385.068,127.364,387.446Z"/><path class="cls-70" d="M198.205,350.964c1.918-.051,2.767-3.464,3.154-8.089-.992,5.4-5.845,6.2-7.672-1.439C194.753,347.237,196.256,351.015,198.205,350.964Z"/><path class="cls-71" d="M159.186,318.182c2.129.142,3.69-5.262,4.769-12.334-2.873,9.992-9.944,3.873-11.945-4.9C153.323,314.864,155.728,317.951,159.186,318.182Z"/><path class="cls-72" d="M113.057,371.068c3.855,1.178,8.39,8.721,12.441,5.076s7.783-3.035,12.9.924-.213-5.113,8.848-3.881,18.858,7.917,27.019,3.881,14.025,6.305,20,2.68,11.239-9.222,20.6-5.677,13.624.37,13.624.37-11.918-3.5-15.966-19.172c3.011,13.987,9.516,19.2,9.516,19.2s-14.765-5.7-21.162-1.226-3.625,8.955-14.712,3.625-9.808,3.411-22.388-.853-18.549-4.264-22.6-1.706-7.25-4.051-12.793-.426-6.823.639-14.286-3.2-16.418,19.83-17.057.853,11.087-16.2,17.27-18.55c4.835-1.834,5.626-8.487,5.947-14.361-1.744,9.779-11.237,14.381-17.764,16.707C95.008,358,91.6,373.193,98.1,379.3S109.2,369.891,113.057,371.068Z"/><path class="cls-73" d="M138.185,338.064c3.048.173,3.394-6.987,2.562-17.806.593,14.42-7.953,12.683-8.588,3.083C132.456,331.745,133.929,337.824,138.185,338.064Z"/><path class="cls-74" d="M199.165,113.561c.888-.668,4.449,5.556,1.925,6.934S197.605,114.736,199.165,113.561Z"/><path class="cls-74" d="M253.4,64.721c1.728,2.8-3.148,4.1-3.6,2.536S252.4,63.092,253.4,64.721Z"/><path class="cls-74" d="M122.6,109.029c-.5-1.664,4.927-10.088,6.713-5.917S123.1,110.693,122.6,109.029Z"/><g class="cls-75"><ellipse class="cls-76" cx="201.982" cy="98.372" rx="17.089" ry="31.011"/><ellipse class="cls-77" cx="201.979" cy="111.067" rx="20.704" ry="18.932"/></g><g class="cls-75"><ellipse class="cls-78" cx="116.43" cy="89.836" rx="24.343" ry="31.011"/><ellipse class="cls-79" cx="116.428" cy="102.531" rx="29.493" ry="18.932"/></g><g class="cls-75"><ellipse class="cls-80" cx="164.924" cy="169.708" rx="135.271" ry="166.41"/><ellipse class="cls-81" cx="163.886" cy="101.589" rx="163.886" ry="101.589"/></g><path class="cls-82" d="M200.82,394.208c6.18-8.383,5.627-16.846,18.7-13.015,2.7.791,5.088,1.423,7.237,1.905a29.917,29.917,0,0,1-6.428-2.374c-8.635-4.356-13.273-4.974-16.844,7.02-2.1,7.071-8.286,10.753-14.361,12.456C194,399.1,198.668,397.125,200.82,394.208Z"/><path class="cls-83" d="M242.181,381.027c3.358-4.317,10.176-.961,12.633-5.772s-10.164-11.488-17.271-1.467a12.516,12.516,0,0,1,8.049-3.208c5.3-.3,9.862,7.249,5.064,6.964s-5.917.338-9.381,3.643c-2.6,2.478-8.222,3.428-14.514,1.912C235.025,384.95,239.516,384.453,242.181,381.027Z"/><path class="cls-84" d="M50.126,380.95c-2.718,1.037-3.518,6.119,6.557,3.738s20.788-6.547,22.387-.466c.775,2.945-.876,3.946-3.995,4.6,6-.585,8.153-6.99,3.942-9.521s-14.552,2.158-19.723,4.4-13.645-.48-9.434-2.292.587-2.292-3.117-3.406C48.745,379.1,51.628,380.377,50.126,380.95Z"/><path class="cls-85" d="M139.357,403.309c-5.65.746-35.714,1.652-44.7-5.384s-14.894-2.346-17.674-1.15c-2.541,1.092-16.471,4.172-21.318,1.053a24.805,24.805,0,0,0,4.376,2.229c6.2,2.625,23.172-8.685,34.541-1.439s40.3,6.123,47.494,5.14c7.156-.977,8.309-2.941,4.067-2.967.574.012,1.126.03,1.653.054-3.011-.136-6.828-.069-10.933.053C141.15,401.394,143.364,402.779,139.357,403.309Z"/><path class="cls-86" d="M247.191,364.237c-6.175-2.661-6.609.16-8.422,5.916-.03.1-.048.163-.075.253,1.71-3.729,5.582-8.391,13.242-1.827a11.777,11.777,0,0,0,3.547-8.123q-.025.951-.136,2.076a17.714,17.714,0,0,0-.081-5.187C255.65,361.024,252.941,366.713,247.191,364.237Z"/><path class="cls-87" d="M127.364,387.446c20.4-2.032,44.721,2.219,47.9,7.106.137-2.35-10.692-7.874-29.988-9.633S106.2,390.675,104.6,394.78c-.039.1-.058.171-.09.26C106.313,392.172,112.773,388.9,127.364,387.446Z"/><path class="cls-88" d="M214.858,374.071c-9.359-3.545-14.627,2.052-20.6,5.677s-11.833-6.716-20-2.68-17.957-2.65-27.019-3.881-3.731,7.84-8.848,3.881-8.849-4.569-12.9-.924-8.586-3.9-12.441-5.076S104.6,385.4,98.1,379.3c-2.95-2.768-3.854-7.4-3.27-11.9-.875,3.5-1.018,7.63,1.431,11,5.357,7.363,6.636,4.392,11.06-1.655s11.248-.27,13.087.6,6-.946,9.834-2.081,9.675,4.973,11.247,2.754,10.8-3.695,17.058-1.245,13.646,2.532,18.566.94,10.458,6.922,16.431,3.02,14.416-7.292,18.014-6.283c3.162.888,9.9,2.459,14.948.853C224.405,375.891,220.592,376.243,214.858,374.071Z"/><path class="cls-89" d="M102.966,350.629c2.81,4.293,19.76-4.982,15.283-15.536S100.156,346.336,102.966,350.629Z"/><path class="cls-90" d="M91.958,355.868c3.323-2.613,4.329,5.522,1.131,8.3S88.162,358.853,91.958,355.868Z"/><path class="cls-91" d="M112.6,372c2.988-.95,13.611,10.426,2.648,11.7S107.8,373.522,112.6,372Z"/><path class="cls-92" d="M130.509,374.441c4.018-.621,12.622,6.283,2.633,7.341S122.087,375.744,130.509,374.441Z"/><path class="cls-93" d="M143.408,374.071c4.164-2.418,19.133,3.758,8.074,6.956S139.784,376.176,143.408,374.071Z"/><path class="cls-94" d="M178.448,376.54c5.766.582,12.673,8.765.011,8.652S172.018,375.89,178.448,376.54Z"/><path class="cls-95" d="M206.2,373.912c4.584-.681,13.928.57,3.606,3.256S198.845,375.006,206.2,373.912Z"/><path class="cls-96" d="M250.763,370.406c3.851,3,5.65,9.838-7.143,7.138S244.793,365.755,250.763,370.406Z"/><path class="cls-97" d="M65.478,369.415c10.446-1.629,2.238,8.91-2.026,8.289S57.909,370.6,65.478,369.415Z"/><path class="cls-98" d="M72.618,368.021c2.062-1.236,12.43,2.122,6.643,5.166S67.286,371.219,72.618,368.021Z"/><path class="cls-99" d="M56.1,396.592c.536,4.918,16.477,3.4,18.7-2.457S55.582,391.87,56.1,396.592Z"/><path class="cls-74" d="M113.724,346.045c.627.393-2.4,4.09-3.859,2.846S112.622,345.353,113.724,346.045Z"/><path class="cls-74" d="M112.8,373.16c.349-.653,4.246,2.113,3.106,3.653S112.186,374.307,112.8,373.16Z"/><path class="cls-74" d="M115.074,377.737c1.135-.227.968,1.541.4,1.5S114.414,377.869,115.074,377.737Z"/><path class="cls-74" d="M72.036,369.94c-.644-.963,1.053-1.484,1.231-.939S72.411,370.5,72.036,369.94Z"/><path class="cls-74" d="M205.41,374.522c2.582-.284,2.2,1.922.9,1.867S203.909,374.686,205.41,374.522Z"/><path class="cls-74" d="M176.23,377.628c1.046-.5,1.312,1.261.746,1.357S175.621,377.916,176.23,377.628Z"/><path class="cls-74" d="M91.55,357.615c1.046-.5,1.312,1.261.746,1.356S90.941,357.9,91.55,357.615Z"/><path class="cls-74" d="M127.431,376.3c-.227-1.136,1.54-.969,1.5-.4S127.563,376.961,127.431,376.3Z"/><path class="cls-74" d="M61.787,394.891c-.16.785-4.2,3.033-4.018.948S61.947,394.106,61.787,394.891Z"/><path class="cls-74" d="M173.3,380.557c-1.13-.131-.171-2.182,1.143-2.724S175.517,380.813,173.3,380.557Z"/><path class="cls-74" d="M245.636,370.647c-.071-1.136,2.118-.555,2.883.643S245.777,372.879,245.636,370.647Z"/><path class="cls-74" d="M146.809,374.686c.535.633-2.488,2.524-3.052,1.411S146.274,374.053,146.809,374.686Z"/><path class="cls-74" d="M69.434,370.9c.088.824-3.475.7-3.318-.542S69.346,370.075,69.434,370.9Z"/><ellipse class="cls-100" cx="135.963" cy="312.849" rx="10.45" ry="31.011" transform="translate(-22.285 10.66) rotate(-4.15)"/><ellipse class="cls-101" cx="136.881" cy="325.51" rx="12.661" ry="18.932" transform="matrix(0.997, -0.072, 0.072, 0.997, -23.199, 10.76)"/><ellipse class="cls-102" cx="157.064" cy="291.299" rx="10.45" ry="31.011" transform="translate(-20.669 12.131) rotate(-4.15)"/><ellipse class="cls-103" cx="157.983" cy="303.96" rx="12.661" ry="18.932" transform="translate(-21.584 12.231) rotate(-4.15)"/><path class="cls-104" d="M204.966,325.51c1.239,17.082-1.608,31.21-6.359,31.554S189,343.841,187.76,326.758s1.607-31.209,6.358-31.554S203.726,308.428,204.966,325.51Z"/><path class="cls-105" d="M207.7,338.039c.757,10.428-3.3,19.221-9.052,19.638s-11.037-7.7-11.793-18.125,3.3-19.221,9.052-19.639S206.948,327.611,207.7,338.039Z"/><ellipse class="cls-106" cx="74.963" cy="376.657" rx="24.738" ry="30.593"/><ellipse class="cls-107" cx="61.792" cy="379.296" rx="24.738" ry="30.593"/><ellipse class="cls-108" cx="182.278" cy="399.306" rx="30.593" ry="24.738" transform="translate(-147.658 109.801) rotate(-24.198)"/><ellipse class="cls-109" cx="247.97" cy="374.361" rx="30.593" ry="24.738" transform="translate(-131.66 134.535) rotate(-24.198)"/><ellipse class="cls-110" cx="251.73" cy="358.252" rx="30.593" ry="24.738" transform="matrix(0.912, -0.41, 0.41, 0.912, -124.727, 134.662)"/><ellipse class="cls-111" cx="59.089" cy="395.938" rx="30.593" ry="24.738" transform="translate(-157.101 59.01) rotate(-24.198)"/><ellipse class="cls-112" cx="113.007" cy="377.952" rx="30.593" ry="24.738" transform="translate(-144.989 79.529) rotate(-24.198)"/><ellipse class="cls-113" cx="132.911" cy="379.453" rx="30.593" ry="24.738" transform="translate(-143.858 87.821) rotate(-24.198)"/><ellipse class="cls-114" cx="146.872" cy="379.453" rx="30.593" ry="24.738" transform="translate(-142.631 93.544) rotate(-24.198)"/><ellipse class="cls-115" cx="176.638" cy="381.889" rx="30.593" ry="24.738" transform="translate(-141.015 105.96) rotate(-24.198)"/><ellipse class="cls-116" cx="205.583" cy="378.99" rx="30.593" ry="24.738" transform="translate(-137.283 117.569) rotate(-24.198)"/><g class="cls-117"><path class="cls-74" d="M223.873,304.408a.548.548,0,1,1-.548-.549A.548.548,0,0,1,223.873,304.408Z"/><circle class="cls-118" cx="223.325" cy="304.408" r="10.85" transform="translate(-124.088 452.2) rotate(-76.78)"/></g><g class="cls-119"><path class="cls-74" d="M53.691,73.349a.548.548,0,1,1-.711-.31A.548.548,0,0,1,53.691,73.349Z"/><circle class="cls-120" cx="53.181" cy="73.549" r="10.85" transform="translate(-35.493 92.905) rotate(-66.444)"/></g><g class="cls-117"><path class="cls-74" d="M267.6,192.553a.549.549,0,1,1-.549-.548A.549.549,0,0,1,267.6,192.553Z"/><circle class="cls-121" cx="267.048" cy="192.553" r="10.85" transform="translate(18.053 407.944) rotate(-76.654)"/></g><g class="cls-119"><circle class="cls-74" cx="93.97" cy="255.452" r="0.548"/><circle class="cls-122" cx="93.97" cy="255.452" r="10.85"/></g><g class="cls-119"><path class="cls-74" d="M234.743,364.125a.548.548,0,1,1-.74-.23A.549.549,0,0,1,234.743,364.125Z"/><circle class="cls-123" cx="234.258" cy="364.38" r="10.85" transform="translate(-182.947 480.958) rotate(-72.875)"/></g><g class="cls-117"><path class="cls-74" d="M254.456,238.986a.549.549,0,1,1-.548-.548A.549.549,0,0,1,254.456,238.986Z"/><circle class="cls-124" cx="253.908" cy="238.986" r="10.85"/></g><g class="cls-119"><path class="cls-74" d="M204.966,263.866a.549.549,0,1,1-.548-.548A.548.548,0,0,1,204.966,263.866Z"/><circle class="cls-125" cx="204.418" cy="263.866" r="10.85" transform="translate(-126.709 221.83) rotate(-45)"/></g><g class="cls-117"><circle class="cls-74" cx="160.121" cy="178.837" r="0.548"/><circle class="cls-126" cx="160.121" cy="178.837" r="10.85" transform="translate(-55.965 74.299) rotate(-22.344)"/></g><g class="cls-119"><path class="cls-74" d="M101.43,97.8a.549.549,0,1,1-.548-.548A.549.549,0,0,1,101.43,97.8Z"/><circle class="cls-127" cx="100.882" cy="97.796" r="10.85" transform="translate(-18.143 172.458) rotate(-76.209)"/></g><g class="cls-119"><path class="cls-74" d="M88.177,122.743a.548.548,0,1,1-.548-.548A.548.548,0,0,1,88.177,122.743Z"/><circle class="cls-128" cx="87.629" cy="122.744" r="10.85" transform="translate(-61.449 99.925) rotate(-45.774)"/></g><g class="cls-119"><path class="cls-74" d="M219.14,231.735a.256.256,0,1,1-.255-.255A.255.255,0,0,1,219.14,231.735Z"/><path class="cls-129" d="M223.933,231.735a5.048,5.048,0,1,1-5.048-5.048A5.048,5.048,0,0,1,223.933,231.735Z"/></g><g class="cls-117"><circle class="cls-74" cx="144.767" cy="191.704" r="0.255"/><path class="cls-130" d="M149.815,191.7a5.048,5.048,0,1,1-5.048-5.048A5.048,5.048,0,0,1,149.815,191.7Z"/></g><g class="cls-119"><circle class="cls-74" cx="114.723" cy="129.929" r="0.255"/><circle class="cls-131" cx="114.723" cy="129.929" r="5.048"/></g><g class="cls-117"><path class="cls-74" d="M87.336,196.731a.255.255,0,1,1-.255-.256A.255.255,0,0,1,87.336,196.731Z"/><path class="cls-132" d="M92.129,196.731a5.048,5.048,0,1,1-5.048-5.048A5.048,5.048,0,0,1,92.129,196.731Z"/></g><g class="cls-119"><path class="cls-74" d="M50.1,99.381a.255.255,0,1,1-.331-.144A.256.256,0,0,1,50.1,99.381Z"/><path class="cls-133" d="M54.556,97.629a5.048,5.048,0,1,1-6.544-2.853A5.048,5.048,0,0,1,54.556,97.629Z"/></g><g class="cls-119"><path class="cls-74" d="M262.792,175.039a.255.255,0,1,1-.255-.255A.256.256,0,0,1,262.792,175.039Z"/><path class="cls-134" d="M267.585,175.039a5.048,5.048,0,1,1-5.048-5.048A5.048,5.048,0,0,1,267.585,175.039Z"/></g><g class="cls-117"><circle class="cls-74" cx="80.645" cy="339.876" r="0.255"/><path class="cls-135" d="M85.693,339.876a5.048,5.048,0,1,1-5.048-5.048A5.048,5.048,0,0,1,85.693,339.876Z"/></g><g class="cls-119"><path class="cls-74" d="M223.631,348.022a.255.255,0,1,1-.344-.107A.254.254,0,0,1,223.631,348.022Z"/><path class="cls-136" d="M227.873,345.79a5.048,5.048,0,1,1-6.818-2.117A5.048,5.048,0,0,1,227.873,345.79Z"/></g><g class="cls-119"><path class="cls-74" d="M214.62,342.593a.255.255,0,1,1-.345-.107A.257.257,0,0,1,214.62,342.593Z"/><path class="cls-137" d="M218.861,340.361a5.048,5.048,0,1,1-6.818-2.117A5.047,5.047,0,0,1,218.861,340.361Z"/></g><g class="cls-119"><path class="cls-74" d="M188.821,204.929a.549.549,0,1,1-.549-.548A.549.549,0,0,1,188.821,204.929Z"/><circle class="cls-138" cx="188.272" cy="204.929" r="10.85"/></g><g class="cls-117"><path class="cls-74" d="M230.9,277.948a.548.548,0,1,1-.548-.549A.548.548,0,0,1,230.9,277.948Z"/><circle class="cls-139" cx="230.356" cy="277.947" r="10.85" transform="translate(-129.069 244.295) rotate(-45)"/></g><g class="cls-119"><circle class="cls-74" cx="165.719" cy="142.546" r="0.548"/><circle class="cls-140" cx="165.719" cy="142.546" r="10.85" transform="translate(-41.749 73.703) rotate(-22.344)"/></g><circle class="cls-74" cx="138.766" cy="137.556" r="0.718"/><circle class="cls-141" cx="138.766" cy="137.556" r="14.206" transform="translate(-56.623 138.412) rotate(-45)"/><circle class="cls-74" cx="215.99" cy="102.738" r="0.548"/><circle class="cls-142" cx="215.99" cy="102.738" r="10.85"/><path class="cls-74" d="M166.815,61.908a.548.548,0,1,1-.548-.548A.548.548,0,0,1,166.815,61.908Z"/><circle class="cls-143" cx="166.267" cy="61.908" r="10.85" transform="translate(67.976 209.611) rotate(-76.78)"/><path class="cls-74" d="M150.326,72.122a.691.691,0,1,1-.691-.691A.691.691,0,0,1,150.326,72.122Z"/><circle class="cls-144" cx="149.635" cy="72.122" r="13.675" transform="translate(-7.171 126.932) rotate(-45)"/><path class="cls-74" d="M123.77,297.461a.649.649,0,1,1-.649-.648A.65.65,0,0,1,123.77,297.461Z"/><circle class="cls-145" cx="123.121" cy="297.461" r="12.834"/><path class="cls-74" d="M161.9,254.248a.649.649,0,1,1-.648-.648A.649.649,0,0,1,161.9,254.248Z"/><circle class="cls-146" cx="161.254" cy="254.248" r="12.834" transform="translate(-115.465 372.872) rotate(-80.82)"/><path class="cls-74" d="M63.6,395.489a.549.549,0,1,1-.549-.548A.549.549,0,0,1,63.6,395.489Z"/><circle class="cls-147" cx="63.049" cy="395.489" r="10.85" transform="translate(-336.346 365.988) rotate(-76.718)"/><path class="cls-74" d="M128.74,384.592a.806.806,0,1,1-.806-.805A.806.806,0,0,1,128.74,384.592Z"/><circle class="cls-148" cx="127.934" cy="384.592" r="15.946"/><g class="cls-149"><circle class="cls-74" cx="217.642" cy="214.652" r="0.548"/><circle class="cls-150" cx="217.642" cy="214.652" r="10.85"/></g><g class="cls-149"><circle class="cls-74" cx="159.299" cy="106.472" r="0.548"/><circle class="cls-151" cx="159.299" cy="106.472" r="10.85"/></g><path class="cls-74" d="M168.614,363.6a.548.548,0,1,1-.548-.549A.548.548,0,0,1,168.614,363.6Z"/><circle class="cls-152" cx="168.066" cy="363.597" r="10.85" transform="translate(-217.043 473.779) rotate(-81.158)"/><g class="cls-149"><path class="cls-74" d="M134.237,342.107a.548.548,0,1,1-.548-.548A.548.548,0,0,1,134.237,342.107Z"/><circle class="cls-153" cx="133.689" cy="342.107" r="10.85" transform="translate(-224.997 421.189) rotate(-81.089)"/></g><g class="cls-117"><circle class="cls-74" cx="71.891" cy="211.074" r="0.255"/><path class="cls-154" d="M76.939,211.074a5.048,5.048,0,1,1-5.048-5.048A5.048,5.048,0,0,1,76.939,211.074Z"/></g><g class="cls-119"><circle class="cls-74" cx="231.198" cy="189.136" r="0.255"/><circle class="cls-155" cx="231.198" cy="189.136" r="5.048"/></g><g class="cls-119"><circle class="cls-74" cx="206.745" cy="334.173" r="0.255"/><path class="cls-156" d="M211.793,334.173a5.048,5.048,0,1,1-5.048-5.048A5.048,5.048,0,0,1,211.793,334.173Z"/></g><g class="cls-117"><path class="cls-74" d="M68.086,127.171a.255.255,0,1,1-.331-.144A.256.256,0,0,1,68.086,127.171Z"/><path class="cls-157" d="M72.547,125.419A5.048,5.048,0,1,1,66,122.566,5.048,5.048,0,0,1,72.547,125.419Z"/></g><circle class="cls-74" cx="178.835" cy="284.113" r="0.255"/><path class="cls-158" d="M183.883,284.113a5.048,5.048,0,1,1-5.048-5.048A5.048,5.048,0,0,1,183.883,284.113Z"/><g class="cls-119"><path class="cls-74" d="M214.136,319.885a.255.255,0,1,1-.345-.107A.256.256,0,0,1,214.136,319.885Z"/><path class="cls-159" d="M218.377,317.653a5.048,5.048,0,1,1-6.817-2.117A5.048,5.048,0,0,1,218.377,317.653Z"/></g><g class="cls-119"><path class="cls-74" d="M78.949,293.958a.255.255,0,1,1-.255-.255A.255.255,0,0,1,78.949,293.958Z"/><path class="cls-160" d="M83.742,293.958a5.048,5.048,0,1,1-5.048-5.048A5.048,5.048,0,0,1,83.742,293.958Z"/></g><circle class="cls-74" cx="93.374" cy="395.771" r="0.255"/><path class="cls-161" d="M98.422,395.771a5.048,5.048,0,1,1-5.048-5.048A5.048,5.048,0,0,1,98.422,395.771Z"/><circle class="cls-74" cx="85.228" cy="366.326" r="0.255"/><path class="cls-162" d="M90.276,366.326a5.048,5.048,0,1,1-5.048-5.048A5.048,5.048,0,0,1,90.276,366.326Z"/><g class="cls-149"><circle class="cls-74" cx="107.692" cy="342.574" r="0.255"/><path class="cls-163" d="M112.74,342.574a5.048,5.048,0,1,1-5.048-5.048A5.048,5.048,0,0,1,112.74,342.574Z"/></g><g class="cls-149"><circle class="cls-74" cx="82.406" cy="382.663" r="0.255"/><path class="cls-164" d="M87.454,382.663a5.048,5.048,0,1,1-5.048-5.048A5.048,5.048,0,0,1,87.454,382.663Z"/></g><g class="cls-149"><circle class="cls-74" cx="173.039" cy="211.768" r="0.255"/><path class="cls-165" d="M178.087,211.768a5.048,5.048,0,1,1-5.048-5.048A5.048,5.048,0,0,1,178.087,211.768Z"/></g><circle class="cls-74" cx="110.098" cy="258.324" r="0.255"/><circle class="cls-166" cx="110.098" cy="258.324" r="5.048"/><circle class="cls-74" cx="116.491" cy="219.82" r="0.255"/><path class="cls-167" d="M121.539,219.82a5.048,5.048,0,1,1-5.048-5.048A5.048,5.048,0,0,1,121.539,219.82Z"/><circle class="cls-74" cx="207.585" cy="151.762" r="0.255"/><path class="cls-168" d="M212.633,151.762a5.048,5.048,0,1,1-5.048-5.048A5.048,5.048,0,0,1,212.633,151.762Z"/><circle class="cls-74" cx="183.147" cy="120.009" r="0.255"/><path class="cls-169" d="M188.2,120.009a5.048,5.048,0,1,1-5.048-5.048A5.048,5.048,0,0,1,188.2,120.009Z"/><g class="cls-149"><circle class="cls-74" cx="143.517" cy="96.506" r="0.255"/><path class="cls-170" d="M148.565,96.506a5.048,5.048,0,1,1-5.048-5.048A5.048,5.048,0,0,1,148.565,96.506Z"/></g><path class="cls-74" d="M240.971,90.845a.255.255,0,1,1-.255-.255A.255.255,0,0,1,240.971,90.845Z"/><path class="cls-171" d="M245.764,90.845a5.048,5.048,0,1,1-5.048-5.048A5.048,5.048,0,0,1,245.764,90.845Z"/><g class="cls-149"><circle class="cls-172" cx="207.734" cy="55.633" r="5.048"/></g><path class="cls-74" d="M119.271,72.181a.255.255,0,1,1-.255-.256A.255.255,0,0,1,119.271,72.181Z"/><path class="cls-173" d="M124.064,72.181a5.048,5.048,0,1,1-5.048-5.048A5.049,5.049,0,0,1,124.064,72.181Z"/></g></g></g></g></svg>