<svg xmlns="http://www.w3.org/2000/svg" xmlns:xlink="http://www.w3.org/1999/xlink" viewBox="0 0 181.193 218.064"><defs><style>.cls-1{fill:none;}.cls-2{isolation:isolate;}.cls-3{fill:url(#Áåçûìÿííûé_ãðàäèåíò_2);}.cls-4{fill:#474312;}.cls-5,.cls-6{opacity:0.42;}.cls-18,.cls-19,.cls-20,.cls-21,.cls-22,.cls-24,.cls-28,.cls-36,.cls-49,.cls-5,.cls-50,.cls-51,.cls-52,.cls-53,.cls-58,.cls-59,.cls-6,.cls-60,.cls-62,.cls-63,.cls-76{mix-blend-mode:multiply;}.cls-5{fill:url(#Áåçûìÿííûé_ãðàäèåíò_269);}.cls-6{fill:url(#Áåçûìÿííûé_ãðàäèåíò_269-2);}.cls-7{fill:url(#Áåçûìÿííûé_ãðàäèåíò_390);}.cls-58,.cls-59,.cls-60,.cls-76,.cls-8{opacity:0.67;}.cls-10,.cls-11,.cls-12,.cls-13,.cls-14,.cls-15,.cls-16,.cls-17,.cls-25,.cls-29,.cls-33,.cls-34,.cls-48,.cls-71,.cls-72,.cls-73,.cls-74,.cls-75,.cls-77,.cls-78,.cls-79,.cls-80,.cls-81,.cls-82,.cls-83,.cls-84,.cls-85,.cls-86,.cls-87,.cls-9{opacity:0.74;}.cls-10,.cls-100,.cls-102,.cls-103,.cls-104,.cls-105,.cls-106,.cls-107,.cls-108,.cls-109,.cls-11,.cls-110,.cls-111,.cls-112,.cls-113,.cls-114,.cls-115,.cls-116,.cls-117,.cls-118,.cls-119,.cls-12,.cls-120,.cls-121,.cls-122,.cls-123,.cls-124,.cls-125,.cls-126,.cls-127,.cls-129,.cls-13,.cls-14,.cls-15,.cls-16,.cls-17,.cls-23,.cls-25,.cls-26,.cls-29,.cls-33,.cls-34,.cls-37,.cls-38,.cls-39,.cls-40,.cls-41,.cls-42,.cls-43,.cls-44,.cls-45,.cls-46,.cls-47,.cls-48,.cls-71,.cls-72,.cls-73,.cls-74,.cls-75,.cls-77,.cls-78,.cls-79,.cls-80,.cls-81,.cls-82,.cls-83,.cls-84,.cls-85,.cls-86,.cls-87,.cls-88,.cls-89,.cls-9,.cls-90,.cls-92,.cls-93,.cls-94,.cls-95,.cls-96,.cls-97,.cls-98,.cls-99{mix-blend-mode:screen;}.cls-9{fill:url(#Áåçûìÿííûé_ãðàäèåíò_266);}.cls-10{fill:url(#Áåçûìÿííûé_ãðàäèåíò_266-2);}.cls-11{fill:url(#Áåçûìÿííûé_ãðàäèåíò_266-3);}.cls-12{fill:url(#Áåçûìÿííûé_ãðàäèåíò_266-4);}.cls-13{fill:url(#Áåçûìÿííûé_ãðàäèåíò_266-5);}.cls-14{fill:url(#Áåçûìÿííûé_ãðàäèåíò_266-6);}.cls-15{fill:url(#Áåçûìÿííûé_ãðàäèåíò_266-7);}.cls-16{fill:url(#Áåçûìÿííûé_ãðàäèåíò_266-8);}.cls-17{fill:url(#Áåçûìÿííûé_ãðàäèåíò_266-9);}.cls-18{fill:url(#Áåçûìÿííûé_ãðàäèåíò_288);}.cls-19{fill:url(#Áåçûìÿííûé_ãðàäèåíò_280);}.cls-20{fill:url(#linear-gradient);}.cls-21{fill:url(#Áåçûìÿííûé_ãðàäèåíò_282);}.cls-22{fill:url(#Áåçûìÿííûé_ãðàäèåíò_282-2);}.cls-23{fill:url(#Áåçûìÿííûé_ãðàäèåíò_74);}.cls-24{fill:url(#Áåçûìÿííûé_ãðàäèåíò_263);}.cls-25{fill:url(#Áåçûìÿííûé_ãðàäèåíò_256);}.cls-26{fill:url(#Áåçûìÿííûé_ãðàäèåíò_74-2);}.cls-27{fill:#f4aba3;}.cls-28{fill:#b83d26;opacity:0.36;}.cls-29{fill:url(#Áåçûìÿííûé_ãðàäèåíò_256-2);}.cls-30{fill:url(#Áåçûìÿííûé_ãðàäèåíò_42);}.cls-31{clip-path:url(#clip-path);}.cls-32{fill:#f4bfa3;}.cls-33{fill:url(#Áåçûìÿííûé_ãðàäèåíò_272);}.cls-34{fill:url(#Áåçûìÿííûé_ãðàäèåíò_272-2);}.cls-35{fill:url(#Áåçûìÿííûé_ãðàäèåíò_291);}.cls-36{fill:url(#Áåçûìÿííûé_ãðàäèåíò_4154);}.cls-37{fill:url(#Áåçûìÿííûé_ãðàäèåíò_36);}.cls-38{fill:url(#Áåçûìÿííûé_ãðàäèåíò_36-2);}.cls-39{fill:url(#Áåçûìÿííûé_ãðàäèåíò_38);}.cls-40{fill:url(#Áåçûìÿííûé_ãðàäèåíò_36-3);}.cls-41{fill:url(#Áåçûìÿííûé_ãðàäèåíò_36-4);}.cls-42{fill:url(#Áåçûìÿííûé_ãðàäèåíò_36-5);}.cls-43{fill:url(#Áåçûìÿííûé_ãðàäèåíò_36-6);}.cls-44{fill:url(#Áåçûìÿííûé_ãðàäèåíò_271);}.cls-45{fill:url(#Áåçûìÿííûé_ãðàäèåíò_271-2);}.cls-46{fill:url(#Áåçûìÿííûé_ãðàäèåíò_271-3);}.cls-47{fill:url(#Áåçûìÿííûé_ãðàäèåíò_271-4);}.cls-48{fill:#fffff6;}.cls-49{fill:url(#Áåçûìÿííûé_ãðàäèåíò_288-2);}.cls-50{fill:url(#Áåçûìÿííûé_ãðàäèåíò_288-3);}.cls-51{fill:url(#Áåçûìÿííûé_ãðàäèåíò_288-4);}.cls-52{fill:url(#Áåçûìÿííûé_ãðàäèåíò_288-5);}.cls-53{fill:url(#Áåçûìÿííûé_ãðàäèåíò_4154-2);}.cls-54{fill:#f4d4a3;}.cls-55{clip-path:url(#clip-path-2);}.cls-56{fill:url(#Áåçûìÿííûé_ãðàäèåíò_42-2);}.cls-57{fill:url(#Áåçûìÿííûé_ãðàäèåíò_42-3);}.cls-58{fill:url(#Áåçûìÿííûé_ãðàäèåíò_258);}.cls-59{fill:url(#Áåçûìÿííûé_ãðàäèåíò_258-2);}.cls-60{fill:url(#Áåçûìÿííûé_ãðàäèåíò_258-3);}.cls-61{fill:url(#Áåçûìÿííûé_ãðàäèåíò_42-4);}.cls-62{fill:url(#Áåçûìÿííûé_ãðàäèåíò_262);}.cls-63{fill:url(#Áåçûìÿííûé_ãðàäèåíò_262-2);}.cls-64{fill:#ffebfc;}.cls-65,.cls-66,.cls-67,.cls-68{opacity:0.29;mix-blend-mode:color-dodge;}.cls-65{fill:url(#Áåçûìÿííûé_ãðàäèåíò_268);}.cls-66{fill:url(#Áåçûìÿííûé_ãðàäèåíò_268-2);}.cls-67{fill:url(#Áåçûìÿííûé_ãðàäèåíò_268-3);}.cls-68{fill:url(#Áåçûìÿííûé_ãðàäèåíò_268-4);}.cls-69{fill:url(#Áåçûìÿííûé_ãðàäèåíò_42-5);}.cls-70{opacity:0.4;}.cls-71{fill:url(#Áåçûìÿííûé_ãðàäèåíò_266-10);}.cls-72{fill:url(#Áåçûìÿííûé_ãðàäèåíò_266-11);}.cls-73{fill:url(#Áåçûìÿííûé_ãðàäèåíò_266-12);}.cls-74{fill:url(#Áåçûìÿííûé_ãðàäèåíò_266-13);}.cls-75{fill:url(#Áåçûìÿííûé_ãðàäèåíò_266-14);}.cls-76{fill:url(#Áåçûìÿííûé_ãðàäèåíò_258-4);}.cls-77{fill:url(#linear-gradient-2);}.cls-78{fill:url(#Áåçûìÿííûé_ãðàäèåíò_272-3);}.cls-79{fill:url(#Áåçûìÿííûé_ãðàäèåíò_272-4);}.cls-80{fill:url(#Áåçûìÿííûé_ãðàäèåíò_276);}.cls-81{fill:url(#Áåçûìÿííûé_ãðàäèåíò_276-2);}.cls-82{fill:url(#Áåçûìÿííûé_ãðàäèåíò_276-3);}.cls-83{fill:url(#Áåçûìÿííûé_ãðàäèåíò_276-4);}.cls-84{fill:url(#Áåçûìÿííûé_ãðàäèåíò_276-5);}.cls-85{fill:url(#Áåçûìÿííûé_ãðàäèåíò_276-6);}.cls-86{fill:url(#Áåçûìÿííûé_ãðàäèåíò_272-5);}.cls-87{fill:url(#linear-gradient-3);}.cls-88{fill:#b3ffff;}.cls-100,.cls-102,.cls-103,.cls-104,.cls-105,.cls-106,.cls-107,.cls-108,.cls-109,.cls-110,.cls-111,.cls-112,.cls-113,.cls-114,.cls-115,.cls-116,.cls-117,.cls-118,.cls-119,.cls-120,.cls-89,.cls-90,.cls-92,.cls-93,.cls-94,.cls-95,.cls-96,.cls-97,.cls-98,.cls-99{opacity:0.69;}.cls-89{fill:url(#radial-gradient);}.cls-90{fill:url(#radial-gradient-2);}.cls-91{opacity:0.65;}.cls-92{fill:url(#radial-gradient-3);}.cls-93{fill:url(#radial-gradient-4);}.cls-94{fill:url(#radial-gradient-5);}.cls-95{fill:url(#radial-gradient-6);}.cls-96{fill:url(#radial-gradient-7);}.cls-97{fill:url(#radial-gradient-8);}.cls-98{fill:url(#radial-gradient-9);}.cls-99{fill:url(#radial-gradient-10);}.cls-100{fill:url(#radial-gradient-11);}.cls-101,.cls-129{opacity:0.5;}.cls-102{fill:url(#radial-gradient-12);}.cls-103{fill:url(#radial-gradient-13);}.cls-104{fill:url(#radial-gradient-14);}.cls-105{fill:url(#radial-gradient-15);}.cls-106{fill:url(#radial-gradient-16);}.cls-107{fill:url(#radial-gradient-17);}.cls-108{fill:url(#radial-gradient-18);}.cls-109{fill:url(#radial-gradient-19);}.cls-110{fill:url(#radial-gradient-20);}.cls-111{fill:url(#radial-gradient-21);}.cls-112{fill:url(#radial-gradient-22);}.cls-113{fill:url(#radial-gradient-23);}.cls-114{fill:url(#radial-gradient-24);}.cls-115{fill:url(#radial-gradient-25);}.cls-116{fill:url(#radial-gradient-26);}.cls-117{fill:url(#radial-gradient-27);}.cls-118{fill:url(#radial-gradient-28);}.cls-119{fill:url(#radial-gradient-29);}.cls-120{fill:url(#radial-gradient-30);}.cls-121{fill:url(#radial-gradient-31);}.cls-122{fill:url(#radial-gradient-32);}.cls-123{fill:url(#radial-gradient-33);}.cls-124{fill:url(#radial-gradient-34);}.cls-125{fill:url(#radial-gradient-35);}.cls-126{fill:url(#radial-gradient-36);}.cls-127{fill:url(#radial-gradient-37);}.cls-128{opacity:0.64;}.cls-129{fill:url(#radial-gradient-38);}</style><linearGradient id="Áåçûìÿííûé_ãðàäèåíò_2" x1="83.505" y1="171.227" x2="83.505" y2="156.039" gradientUnits="userSpaceOnUse"><stop offset="0" stop-color="#6241a3"/><stop offset="1" stop-color="#2f0253"/></linearGradient><linearGradient id="Áåçûìÿííûé_ãðàäèåíò_269" x1="115.199" y1="183.103" x2="115.199" y2="173.189" gradientUnits="userSpaceOnUse"><stop offset="0" stop-color="#31653d"/><stop offset="1" stop-color="#fff"/></linearGradient><linearGradient id="Áåçûìÿííûé_ãðàäèåíò_269-2" x1="36.954" y1="184.068" x2="36.954" y2="174.352" xlink:href="#Áåçûìÿííûé_ãðàäèåíò_269"/><linearGradient id="Áåçûìÿííûé_ãðàäèåíò_390" x1="78.877" y1="182.898" x2="78.877" y2="135.927" gradientUnits="userSpaceOnUse"><stop offset="0.223" stop-color="#2f0253"/><stop offset="0.77" stop-color="#6241a3"/></linearGradient><linearGradient id="Áåçûìÿííûé_ãðàäèåíò_266" x1="128.428" y1="182.898" x2="128.428" y2="120.963" gradientUnits="userSpaceOnUse"><stop offset="0"/><stop offset="0.13" stop-color="#241c15"/><stop offset="0.564" stop-color="#997458"/><stop offset="0.862" stop-color="#e2ac82"/><stop offset="1" stop-color="#ffc293"/></linearGradient><linearGradient id="Áåçûìÿííûé_ãðàäèåíò_266-2" x1="133.593" y1="182.898" x2="133.593" y2="120.964" xlink:href="#Áåçûìÿííûé_ãðàäèåíò_266"/><linearGradient id="Áåçûìÿííûé_ãðàäèåíò_266-3" x1="108.517" y1="182.898" x2="108.517" y2="120.964" xlink:href="#Áåçûìÿííûé_ãðàäèåíò_266"/><linearGradient id="Áåçûìÿííûé_ãðàäèåíò_266-4" x1="121.237" y1="182.898" x2="121.237" y2="120.964" xlink:href="#Áåçûìÿííûé_ãðàäèåíò_266"/><linearGradient id="Áåçûìÿííûé_ãðàäèåíò_266-5" x1="58.997" y1="182.898" x2="58.997" y2="120.963" xlink:href="#Áåçûìÿííûé_ãðàäèåíò_266"/><linearGradient id="Áåçûìÿííûé_ãðàäèåíò_266-6" x1="29.403" y1="182.898" x2="29.403" y2="120.964" xlink:href="#Áåçûìÿííûé_ãðàäèåíò_266"/><linearGradient id="Áåçûìÿííûé_ãðàäèåíò_266-7" x1="38.208" y1="182.898" x2="38.208" y2="120.964" xlink:href="#Áåçûìÿííûé_ãðàäèåíò_266"/><linearGradient id="Áåçûìÿííûé_ãðàäèåíò_266-8" x1="20.953" y1="182.898" x2="20.953" y2="120.964" xlink:href="#Áåçûìÿííûé_ãðàäèåíò_266"/><linearGradient id="Áåçûìÿííûé_ãðàäèåíò_266-9" x1="45.533" y1="182.898" x2="45.533" y2="120.964" xlink:href="#Áåçûìÿííûé_ãðàäèåíò_266"/><linearGradient id="Áåçûìÿííûé_ãðàäèåíò_288" x1="74.874" y1="184.575" x2="74.874" y2="166.75" gradientUnits="userSpaceOnUse"><stop offset="0.008" stop-color="#fff"/><stop offset="0.172" stop-color="#f8f7fa"/><stop offset="0.424" stop-color="#e5e1ed"/><stop offset="0.732" stop-color="#c5bed8"/><stop offset="1" stop-color="#a59ac2"/></linearGradient><linearGradient id="Áåçûìÿííûé_ãðàäèåíò_280" x1="86.023" y1="100.987" x2="47.84" y2="156.041" gradientUnits="userSpaceOnUse"><stop offset="0.575" stop-color="#6241a3"/><stop offset="1" stop-color="#2f0253"/></linearGradient><linearGradient id="linear-gradient" x1="72.044" y1="124.09" x2="18.746" y2="164.688" gradientUnits="userSpaceOnUse"><stop offset="0.321" stop-color="#fff"/><stop offset="0.682" stop-color="#2f0253" stop-opacity="0"/></linearGradient><linearGradient id="Áåçûìÿííûé_ãðàäèåíò_282" x1="144.753" y1="124.542" x2="106.57" y2="179.596" gradientUnits="userSpaceOnUse"><stop offset="0" stop-color="#2f0253"/><stop offset="1" stop-color="#fff"/></linearGradient><linearGradient id="Áåçûìÿííûé_ãðàäèåíò_282-2" x1="140.842" y1="121.83" x2="102.66" y2="176.883" xlink:href="#Áåçûìÿííûé_ãðàäèåíò_282"/><linearGradient id="Áåçûìÿííûé_ãðàäèåíò_74" x1="27.853" y1="182.891" x2="27.853" y2="106.057" gradientUnits="userSpaceOnUse"><stop offset="0.602"/><stop offset="1" stop-color="#ff95a3"/></linearGradient><linearGradient id="Áåçûìÿííûé_ãðàäèåíò_263" x1="79.432" y1="179.427" x2="79.432" y2="170.604" gradientUnits="userSpaceOnUse"><stop offset="0.008" stop-color="#fff"/><stop offset="0.099" stop-color="#f8f7fa"/><stop offset="0.239" stop-color="#e5e1ed"/><stop offset="0.409" stop-color="#c5bed8"/><stop offset="0.543" stop-color="#a89ec4"/><stop offset="1" stop-color="#a59ac2"/></linearGradient><linearGradient id="Áåçûìÿííûé_ãðàäèåíò_256" x1="136.395" y1="138.999" x2="136.395" y2="117.23" gradientUnits="userSpaceOnUse"><stop offset="0.004"/><stop offset="0.137" stop-color="#001c27"/><stop offset="0.455" stop-color="#005b7f"/><stop offset="0.715" stop-color="#0089bf"/><stop offset="0.903" stop-color="#00a5e7"/><stop offset="1" stop-color="#00b0f6"/></linearGradient><linearGradient id="Áåçûìÿííûé_ãðàäèåíò_74-2" x1="136.18" y1="182.898" x2="136.18" y2="120.963" xlink:href="#Áåçûìÿííûé_ãðàäèåíò_74"/><linearGradient id="Áåçûìÿííûé_ãðàäèåíò_256-2" x1="30.654" y1="118.078" x2="30.654" y2="85.357" xlink:href="#Áåçûìÿííûé_ãðàäèåíò_256"/><linearGradient id="Áåçûìÿííûé_ãðàäèåíò_42" x1="52.445" y1="194.887" x2="52.445" y2="166.253" gradientUnits="userSpaceOnUse"><stop offset="0" stop-color="#605d00"/><stop offset="1" stop-color="#ac9c01"/></linearGradient><clipPath id="clip-path" transform="translate(15.443)"><path class="cls-1" d="M120.059,143.932c-6.928,6.852-13.567,12.769-20,16.776a41.159,41.159,0,0,1-1.106-9.443c-.52-22.17,4.119-30.04,12.557-30.85s.151,15.087-6.219,20.731-2.1,8.968,2.286,6.461,11.193-22.7,7.228-28.206-20.3,3.609-18.926,32.861c0,0-6.969-24,3.446-47.944s20.82-13.694,22.02-18.417-8.344-4.99-17.621,9.013-13.44,35.55-12.556,46.686c0,0-4.877-28.031,5.731-51.98s26.635-31.88,36.506-21.015-.606,23.411-5.328,30.129-8.728,15.332-2.341,15.532,5.289-13.453,7.54-20.413,10.693-18.1-.934-29.225S93.5,61.565,87.578,125.876c0,0-5.258-24.376.372-46.416s18.682-28.4,15.932-31.676S86.146,58.748,84.536,105.4c0,0-12.041-40.54-11.425-55.893s9.25-21.391,12.824-17.4S78.822,61.589,86.6,61.02s5.068-13.888,2.459-23.16-8.123-16.013-15.222-2.17.088,40.169,7.011,64.18,2.837,38.8,2.837,38.8S81.57,96.534,66.594,68.663,22.534,36.545,30,67.284c3.054,12.58,5.355,18.815,7.311,23.068.433.939.846,1.775,1.25,2.568-8.706-7.065-18.317-7.122-25.051-.388C1.737,104.3,10.665,127.7,29.332,142.717c8.719,7.013,18.117,14.762,28.675,20.191,12.048,6.194,25.608,9.367,41.4,4.97,1.619-.451,3.193-.981,4.736-1.559,26.693-10,41.948-37.824,42.609-42.675C147.257,119.908,131.256,133.868,120.059,143.932Zm-41.45,1.9s.529-42.942-8.76-59.064-5.753,5.828-2.6,6.756-.405-6.7-1.826-9.136,1.2-5.694,7.307,12.79c4.673,14.147,5.212,47.934-2.282,61.22-1.106-1.238-2.277-2.664-3.514-4.32-4.188-5.6-7.006-16.226-10.24-27.554.461-.134.929-.3,1.405-.486,4.825-1.88,1.323-10.507-13.168-27.6s-22.513-55.7,3.634-44.488S82.122,112.008,78.609,145.834Z"/></clipPath><linearGradient id="Áåçûìÿííûé_ãðàäèåíò_272" x1="25.668" y1="93.845" x2="39.136" y2="93.845" gradientUnits="userSpaceOnUse"><stop offset="0.004"/><stop offset="0.096" stop-color="#000506"/><stop offset="0.225" stop-color="#001219"/><stop offset="0.376" stop-color="#002737"/><stop offset="0.543" stop-color="#004560"/><stop offset="0.723" stop-color="#006b95"/><stop offset="0.912" stop-color="#0099d6"/><stop offset="1" stop-color="#00b0f6"/></linearGradient><linearGradient id="Áåçûìÿííûé_ãðàäèåíò_272-2" x1="38.932" y1="101.722" x2="46.078" y2="101.722" xlink:href="#Áåçûìÿííûé_ãðàäèåíò_272"/><linearGradient id="Áåçûìÿííûé_ãðàäèåíò_291" x1="100.411" y1="157.176" x2="100.411" y2="98.088" gradientTransform="matrix(0.997, -0.073, 0.073, 0.997, -20.875, 16.488)" gradientUnits="userSpaceOnUse"><stop offset="0.125" stop-color="#2f0253"/><stop offset="1" stop-color="#8b41a3"/></linearGradient><linearGradient id="Áåçûìÿííûé_ãðàäèåíò_4154" x1="89.722" y1="157.177" x2="89.722" y2="36.993" gradientTransform="matrix(0.997, -0.073, 0.073, 0.997, -20.875, 16.488)" gradientUnits="userSpaceOnUse"><stop offset="0" stop-color="#a59ac2"/><stop offset="0.268" stop-color="#c5bed8"/><stop offset="0.576" stop-color="#e5e1ed"/><stop offset="0.828" stop-color="#f8f7fa"/><stop offset="0.992" stop-color="#fff"/></linearGradient><linearGradient id="Áåçûìÿííûé_ãðàäèåíò_36" x1="136.487" y1="79.013" x2="125.388" y2="79.013" gradientTransform="matrix(0.997, -0.073, 0.073, 0.997, -20.875, 16.488)" gradientUnits="userSpaceOnUse"><stop offset="0" stop-color="#62ffff"/><stop offset="1"/></linearGradient><linearGradient id="Áåçûìÿííûé_ãðàäèåíò_36-2" x1="120.125" y1="139.071" x2="120.125" y2="123.947" xlink:href="#Áåçûìÿííûé_ãðàäèåíò_36"/><linearGradient id="Áåçûìÿííûé_ãðàäèåíò_38" x1="115.583" y1="157.178" x2="115.583" y2="40.341" gradientTransform="matrix(0.997, -0.073, 0.073, 0.997, -20.875, 16.488)" gradientUnits="userSpaceOnUse"><stop offset="0.84"/><stop offset="1" stop-color="#62ffff"/></linearGradient><linearGradient id="Áåçûìÿííûé_ãðàäèåíò_36-3" x1="81.634" y1="83.41" x2="81.634" y2="72.692" xlink:href="#Áåçûìÿííûé_ãðàäèåíò_36"/><linearGradient id="Áåçûìÿííûé_ãðàäèåíò_36-4" x1="105.533" y1="51.629" x2="105.533" y2="28.874" xlink:href="#Áåçûìÿííûé_ãðàäèåíò_36"/><linearGradient id="Áåçûìÿííûé_ãðàäèåíò_36-5" x1="64.617" y1="115.19" x2="64.617" y2="84.707" xlink:href="#Áåçûìÿííûé_ãðàäèåíò_36"/><linearGradient id="Áåçûìÿííûé_ãðàäèåíò_36-6" x1="141.56" y1="107.099" x2="141.56" y2="89.676" xlink:href="#Áåçûìÿííûé_ãðàäèåíò_36"/><linearGradient id="Áåçûìÿííûé_ãðàäèåíò_271" x1="117.029" y1="140.786" x2="117.029" y2="131.362" gradientTransform="matrix(0.997, -0.073, 0.073, 0.997, -20.875, 16.488)" gradientUnits="userSpaceOnUse"><stop offset="0.333" stop-color="#62ffff"/><stop offset="1"/></linearGradient><linearGradient id="Áåçûìÿííûé_ãðàäèåíò_271-2" x1="140.8" y1="108.234" x2="140.8" y2="98.464" xlink:href="#Áåçûìÿííûé_ãðàäèåíò_271"/><linearGradient id="Áåçûìÿííûé_ãðàäèåíò_271-3" x1="105.534" y1="52.251" x2="105.534" y2="41.47" xlink:href="#Áåçûìÿííûé_ãðàäèåíò_271"/><linearGradient id="Áåçûìÿííûé_ãðàäèåíò_271-4" x1="66.872" y1="115.596" x2="66.872" y2="98.379" xlink:href="#Áåçûìÿííûé_ãðàäèåíò_271"/><linearGradient id="Áåçûìÿííûé_ãðàäèåíò_288-2" x1="98.206" y1="46.29" x2="98.206" y2="18.75" gradientTransform="matrix(0.997, -0.073, 0.073, 0.997, -20.875, 16.488)" xlink:href="#Áåçûìÿííûé_ãðàäèåíò_288"/><linearGradient id="Áåçûìÿííûé_ãðàäèåíò_288-3" x1="69.052" y1="86.471" x2="69.052" y2="33.691" gradientTransform="matrix(0.997, -0.073, 0.073, 0.997, -20.875, 16.488)" xlink:href="#Áåçûìÿííûé_ãðàäèåíò_288"/><linearGradient id="Áåçûìÿííûé_ãðàäèåíò_288-4" x1="118.801" y1="141.252" x2="118.801" y2="112.276" gradientTransform="matrix(0.997, -0.073, 0.073, 0.997, -20.875, 16.488)" xlink:href="#Áåçûìÿííûé_ãðàäèåíò_288"/><linearGradient id="Áåçûìÿííûé_ãðàäèåíò_288-5" x1="127.3" y1="117.007" x2="127.3" y2="54.216" gradientTransform="matrix(0.997, -0.073, 0.073, 0.997, -20.875, 16.488)" xlink:href="#Áåçûìÿííûé_ãðàäèåíò_288"/><linearGradient id="Áåçûìÿííûé_ãðàäèåíò_4154-2" x1="80.487" y1="168.784" x2="80.487" y2="155.197" gradientTransform="matrix(1, 0, 0, 1, 0, 0)" xlink:href="#Áåçûìÿííûé_ãðàäèåíò_4154"/><clipPath id="clip-path-2" transform="translate(15.443)"><path class="cls-1" d="M13.505,92.532C1.737,104.3,10.665,127.7,29.332,142.717S69.778,176.129,99.4,167.878s46.646-39.1,47.345-44.234c.509-3.736-15.492,10.224-26.689,20.288-13.152,13.008-25.273,22.72-36.889,22.187,0,0-5.816,1.894-16.232-12.039-4.926-6.589-7.955-20.124-12-33.583C45.774,89.668,25.257,80.78,13.505,92.532Z"/></clipPath><linearGradient id="Áåçûìÿííûé_ãðàäèåíò_42-2" x1="104.813" y1="193.382" x2="104.813" y2="170.368" xlink:href="#Áåçûìÿííûé_ãðàäèåíò_42"/><linearGradient id="Áåçûìÿííûé_ãðàäèåíò_42-3" x1="94.08" y1="191.701" x2="94.08" y2="175.975" xlink:href="#Áåçûìÿííûé_ãðàäèåíò_42"/><linearGradient id="Áåçûìÿííûé_ãðàäèåíò_258" x1="52.45" y1="227.307" x2="52.45" y2="167.7" gradientUnits="userSpaceOnUse"><stop offset="0" stop-color="#fff"/><stop offset="1" stop-color="#31653d"/></linearGradient><linearGradient id="Áåçûìÿííûé_ãðàäèåíò_258-2" x1="106.401" y1="217.919" x2="106.401" y2="174.491" xlink:href="#Áåçûìÿííûé_ãðàäèåíò_258"/><linearGradient id="Áåçûìÿííûé_ãðàäèåíò_258-3" x1="94.08" y1="208.763" x2="94.08" y2="177.512" xlink:href="#Áåçûìÿííûé_ãðàäèåíò_258"/><linearGradient id="Áåçûìÿííûé_ãðàäèåíò_42-4" x1="67.383" y1="204.541" x2="67.383" y2="174.432" xlink:href="#Áåçûìÿííûé_ãðàäèåíò_42"/><linearGradient id="Áåçûìÿííûé_ãðàäèåíò_262" x1="13.282" y1="134.562" x2="13.282" y2="120.803" gradientUnits="userSpaceOnUse"><stop offset="0.008" stop-color="#fff"/><stop offset="0.078" stop-color="#f8f7fa"/><stop offset="0.185" stop-color="#e5e1ed"/><stop offset="0.317" stop-color="#c5bed8"/><stop offset="0.431" stop-color="#a59ac2"/></linearGradient><linearGradient id="Áåçûìÿííûé_ãðàäèåíò_262-2" x1="139.392" y1="147.387" x2="139.392" y2="136.089" xlink:href="#Áåçûìÿííûé_ãðàäèåíò_262"/><linearGradient id="Áåçûìÿííûé_ãðàäèåíò_268" x1="51.433" y1="198.482" x2="51.433" y2="174.55" gradientUnits="userSpaceOnUse"><stop offset="0"/><stop offset="0.43" stop-color="#494601"/><stop offset="1" stop-color="#b0a802"/></linearGradient><linearGradient id="Áåçûìÿííûé_ãðàäèåíò_268-2" x1="111.257" y1="199.144" x2="111.257" y2="177.331" xlink:href="#Áåçûìÿííûé_ãðàäèåíò_268"/><linearGradient id="Áåçûìÿííûé_ãðàäèåíò_268-3" x1="96.432" y1="196" x2="96.432" y2="180.39" xlink:href="#Áåçûìÿííûé_ãðàäèåíò_268"/><linearGradient id="Áåçûìÿííûé_ãðàäèåíò_268-4" x1="65.96" y1="205.926" x2="65.96" y2="173.936" xlink:href="#Áåçûìÿííûé_ãðàäèåíò_268"/><linearGradient id="Áåçûìÿííûé_ãðàäèåíò_42-5" x1="48.582" y1="202.178" x2="48.582" y2="201.663" xlink:href="#Áåçûìÿííûé_ãðàäèåíò_42"/><linearGradient id="Áåçûìÿííûé_ãðàäèåíò_266-10" x1="106.968" y1="195.829" x2="106.968" y2="180.358" xlink:href="#Áåçûìÿííûé_ãðàäèåíò_266"/><linearGradient id="Áåçûìÿííûé_ãðàäèåíò_266-11" x1="63.943" y1="199.562" x2="63.943" y2="177.44" xlink:href="#Áåçûìÿííûé_ãðàäèåíò_266"/><linearGradient id="Áåçûìÿííûé_ãðàäèåíò_266-12" x1="102.514" y1="194.98" x2="102.514" y2="178.242" xlink:href="#Áåçûìÿííûé_ãðàäèåíò_266"/><linearGradient id="Áåçûìÿííûé_ãðàäèåíò_266-13" x1="53.279" y1="201.093" x2="53.279" y2="186.346" xlink:href="#Áåçûìÿííûé_ãðàäèåíò_266"/><linearGradient id="Áåçûìÿííûé_ãðàäèåíò_266-14" x1="118.401" y1="189.645" x2="118.401" y2="186.016" xlink:href="#Áåçûìÿííûé_ãðàäèåíò_266"/><linearGradient id="Áåçûìÿííûé_ãðàäèåíò_258-4" x1="67.463" y1="218.064" x2="67.463" y2="184.246" xlink:href="#Áåçûìÿííûé_ãðàäèåíò_258"/><linearGradient id="linear-gradient-2" x1="27.169" y1="111.424" x2="20.118" y2="118.475" gradientUnits="userSpaceOnUse"><stop offset="0" stop-color="#00b0f6"/><stop offset="0.088" stop-color="#0099d6" stop-opacity="0.868"/><stop offset="0.277" stop-color="#006b95" stop-opacity="0.608"/><stop offset="0.457" stop-color="#004560" stop-opacity="0.391"/><stop offset="0.624" stop-color="#002737" stop-opacity="0.222"/><stop offset="0.775" stop-color="#001219" stop-opacity="0.1"/><stop offset="0.904" stop-color="#000506" stop-opacity="0.026"/><stop offset="0.996" stop-opacity="0"/></linearGradient><linearGradient id="Áåçûìÿííûé_ãðàäèåíò_272-3" x1="64.133" y1="164.104" x2="64.133" y2="159.429" xlink:href="#Áåçûìÿííûé_ãðàäèåíò_272"/><linearGradient id="Áåçûìÿííûé_ãðàäèåíò_272-4" x1="50.888" y1="154.794" x2="50.888" y2="149.118" xlink:href="#Áåçûìÿííûé_ãðàäèåíò_272"/><linearGradient id="Áåçûìÿííûé_ãðàäèåíò_276" x1="41.999" y1="139.892" x2="38.954" y2="142.937" gradientUnits="userSpaceOnUse"><stop offset="0" stop-color="#00b0f6"/><stop offset="0.088" stop-color="#0099d6"/><stop offset="0.277" stop-color="#006b95"/><stop offset="0.457" stop-color="#004560"/><stop offset="0.624" stop-color="#002737"/><stop offset="0.775" stop-color="#001219"/><stop offset="0.904" stop-color="#000506"/><stop offset="0.996"/></linearGradient><linearGradient id="Áåçûìÿííûé_ãðàäèåíò_276-2" x1="26.994" y1="96.066" x2="16.807" y2="106.254" xlink:href="#Áåçûìÿííûé_ãðàäèåíò_276"/><linearGradient id="Áåçûìÿííûé_ãðàäèåíò_276-3" x1="33.663" y1="127.625" x2="28.733" y2="132.556" xlink:href="#Áåçûìÿííûé_ãðàäèåíò_276"/><linearGradient id="Áåçûìÿííûé_ãðàäèåíò_276-4" x1="130.527" y1="129.127" x2="134.381" y2="132.981" xlink:href="#Áåçûìÿííûé_ãðàäèåíò_276"/><linearGradient id="Áåçûìÿííûé_ãðàäèåíò_276-5" x1="106.451" y1="157.546" x2="109.347" y2="160.442" xlink:href="#Áåçûìÿííûé_ãðàäèåíò_276"/><linearGradient id="Áåçûìÿííûé_ãðàäèåíò_276-6" x1="118.845" y1="146.711" x2="121.902" y2="149.768" xlink:href="#Áåçûìÿííûé_ãðàäèåíò_276"/><linearGradient id="Áåçûìÿííûé_ãðàäèåíò_272-5" x1="95.802" y1="166.796" x2="95.802" y2="164.599" xlink:href="#Áåçûìÿííûé_ãðàäèåíò_272"/><linearGradient id="linear-gradient-3" x1="134.709" y1="123.949" x2="140.639" y2="123.949" xlink:href="#linear-gradient-2"/><radialGradient id="radial-gradient" cx="112.73" cy="77.524" r="6.823" gradientTransform="translate(-7.048 24.697) rotate(-1.69)" gradientUnits="userSpaceOnUse"><stop offset="0" stop-color="aqua"/><stop offset="0.118" stop-color="#00c7c7" stop-opacity="0.779"/><stop offset="0.244" stop-color="#009292" stop-opacity="0.574"/><stop offset="0.371" stop-color="#066" stop-opacity="0.398"/><stop offset="0.498" stop-color="#004141" stop-opacity="0.255"/><stop offset="0.625" stop-color="#002424" stop-opacity="0.143"/><stop offset="0.751" stop-color="#001010" stop-opacity="0.063"/><stop offset="0.876" stop-color="#000404" stop-opacity="0.016"/><stop offset="1" stop-opacity="0"/></radialGradient><radialGradient id="radial-gradient-2" cx="72.319" cy="79.715" r="6.823" xlink:href="#radial-gradient"/><radialGradient id="radial-gradient-3" cx="116.702" cy="40.418" r="2.534" xlink:href="#radial-gradient"/><radialGradient id="radial-gradient-4" cx="89.402" cy="48.461" r="2.534" gradientTransform="translate(11.354 -0.92) rotate(16.152)" xlink:href="#radial-gradient"/><radialGradient id="radial-gradient-5" cx="61.538" cy="68.587" r="2.534" xlink:href="#radial-gradient"/><radialGradient id="radial-gradient-6" cx="52.347" cy="61.606" r="2.534" xlink:href="#radial-gradient"/><radialGradient id="radial-gradient-7" cx="72.249" cy="127.917" r="2.534" xlink:href="#radial-gradient"/><radialGradient id="radial-gradient-8" cx="80.537" cy="111.599" r="2.534" gradientTransform="translate(30.345 4.305) rotate(16.112)" xlink:href="#radial-gradient"/><radialGradient id="radial-gradient-9" cx="91.099" cy="124.56" r="2.534" xlink:href="#radial-gradient"/><radialGradient id="radial-gradient-10" cx="112.454" cy="92.857" r="2.534" xlink:href="#radial-gradient"/><radialGradient id="radial-gradient-11" cx="64.177" cy="49.559" r="6.823" xlink:href="#radial-gradient"/><radialGradient id="radial-gradient-12" cx="147.789" cy="34.544" r="6.823" xlink:href="#radial-gradient"/><radialGradient id="radial-gradient-13" cx="47.417" cy="105.283" r="6.823" xlink:href="#radial-gradient"/><radialGradient id="radial-gradient-14" cx="15.715" cy="42.411" r="6.823" xlink:href="#radial-gradient"/><radialGradient id="radial-gradient-15" cx="45.483" cy="36.687" r="6.823" xlink:href="#radial-gradient"/><radialGradient id="radial-gradient-16" cx="156.129" cy="69.238" r="6.823" xlink:href="#radial-gradient"/><radialGradient id="radial-gradient-17" cx="131.281" cy="32.954" r="2.534" xlink:href="#radial-gradient"/><radialGradient id="radial-gradient-18" cx="21.759" cy="53.942" r="2.534" xlink:href="#radial-gradient"/><radialGradient id="radial-gradient-19" cx="31.13" cy="31.58" r="2.534" gradientTransform="matrix(0.97, 0.242, -0.242, 0.97, 2.423, 17.179)" xlink:href="#radial-gradient"/><radialGradient id="radial-gradient-20" cx="35.9" cy="85.16" r="2.534" xlink:href="#radial-gradient"/><radialGradient id="radial-gradient-21" cx="105.504" cy="97.074" r="2.534" xlink:href="#radial-gradient"/><radialGradient id="radial-gradient-22" cx="129.627" cy="106.926" r="2.534" xlink:href="#radial-gradient"/><radialGradient id="radial-gradient-23" cx="155.585" cy="50.655" r="2.534" xlink:href="#radial-gradient"/><radialGradient id="radial-gradient-24" cx="30.88" cy="100.125" r="2.534" xlink:href="#radial-gradient"/><radialGradient id="radial-gradient-25" cx="37.935" cy="111.735" r="2.534" gradientTransform="matrix(0.965, 0.261, -0.261, 0.965, 26.751, 17.498)" xlink:href="#radial-gradient"/><radialGradient id="radial-gradient-26" cx="23.074" cy="119.942" r="2.534" gradientTransform="matrix(0.985, 0.174, -0.174, 0.985, 17.701, 21.779)" xlink:href="#radial-gradient"/><radialGradient id="radial-gradient-27" cx="47.669" cy="47.969" r="2.534" xlink:href="#radial-gradient"/><radialGradient id="radial-gradient-28" cx="118.864" cy="127.768" r="6.823" xlink:href="#radial-gradient"/><radialGradient id="radial-gradient-29" cx="104.511" cy="122.66" r="2.534" xlink:href="#radial-gradient"/><radialGradient id="radial-gradient-30" cx="121.05" cy="139.05" r="2.534" xlink:href="#radial-gradient"/><radialGradient id="radial-gradient-31" cx="131.641" cy="89.486" r="15.978" gradientTransform="matrix(0.51, 0.86, -0.86, 0.51, 137.09, -48.609)" xlink:href="#radial-gradient"/><radialGradient id="radial-gradient-32" cx="93.96" cy="35.4" r="15.978" gradientTransform="translate(46.863 -34.323) rotate(45.221)" xlink:href="#radial-gradient"/><radialGradient id="radial-gradient-33" cx="57.192" cy="98.195" r="20.792" gradientTransform="matrix(0.561, 0.828, -0.828, 0.561, 102.269, 18.752)" xlink:href="#radial-gradient"/><radialGradient id="radial-gradient-34" cx="72.227" cy="68.587" r="10.689" xlink:href="#radial-gradient"/><radialGradient id="radial-gradient-35" cx="124.578" cy="64.46" r="10.689" gradientTransform="matrix(0.699, 0.715, -0.715, 0.699, 78.34, -48.677)" xlink:href="#radial-gradient"/><radialGradient id="radial-gradient-36" cx="108.255" cy="28.224" r="10.689" gradientTransform="translate(-4.581 15.688) rotate(3.094)" xlink:href="#radial-gradient"/><radialGradient id="radial-gradient-37" cx="107.907" cy="124.732" r="10.689" xlink:href="#radial-gradient"/><radialGradient id="radial-gradient-38" cx="-526.519" cy="-13.463" fy="10.304214222478386" r="40.333" gradientTransform="translate(1180.156 135.984) scale(2.055 2.528)" gradientUnits="userSpaceOnUse"><stop offset="0.095" stop-color="#00ffea"/><stop offset="0.253" stop-color="#00c4b4" stop-opacity="0.77"/><stop offset="0.457" stop-color="#007f75" stop-opacity="0.499"/><stop offset="0.641" stop-color="#004943" stop-opacity="0.285"/><stop offset="0.798" stop-color="#00211e" stop-opacity="0.13"/><stop offset="0.923" stop-color="#000908" stop-opacity="0.035"/><stop offset="1" stop-opacity="0"/></radialGradient></defs><title>plant-9</title><g class="cls-2"><g id="Layer_2" data-name="Layer 2"><g id="plants"><g id="plant-9"><path class="cls-3" d="M64.48,149.956s14.764,19.374,32.511,13.372,7.062,3.342,7.062,3.342L81.1,169.319,66.171,158.51l-6.4-5.741Z" transform="translate(15.443)"/><path class="cls-4" d="M103.658,175.588s9.407-7.3,19.147-1.082,13.375-4.733,13.375-4.733-5.394,18.26-26.5,12.038S103.658,175.588,103.658,175.588Z" transform="translate(15.443)"/><path class="cls-4" d="M49.049,181.811S27.3,191.823,17.969,169.773c0,0,6.764,8.328,12.716,4.163s12.31,0,12.31,0l9.45,3.952Z" transform="translate(15.443)"/><path class="cls-5" d="M109.684,181.811c11.607,3.423,18.455-.563,22.273-4.842-5.557,6.365-18.257-3.78-18.257-3.78h-5.531a19.045,19.045,0,0,0-4.511,2.4S88.581,175.588,109.684,181.811Z" transform="translate(15.443)"/><path class="cls-6" d="M49.049,181.811l3.4-3.923-8.455-3.536c-3.919,2.754-14.529,8.906-22.526,1.573C31.834,189.72,49.049,181.811,49.049,181.811Z" transform="translate(15.443)"/><path class="cls-7" d="M83.17,166.119c14.745.677,30.3-15.15,47.751-33.277s22.05-17.044,25.161-15.15-2.165,14.068-10.146,18.4c0,0-17.044,43.016-60.466,45.992s-61.143-7.3-78.187-61.278c0,0-8.793-9.333-5.952-22.32s26.107-22.725,40.04-7.034S57.98,142.1,66.938,154.08C77.354,168.013,83.17,166.119,83.17,166.119Z" transform="translate(15.443)"/><g class="cls-8"><path class="cls-9" d="M123.471,154.909q-1.079.894-2.2,1.762c.892,2.941,3.877,6.54,13.841-2.5q.243-.314.482-.626C131.361,157.147,123.785,162.5,123.471,154.909Z" transform="translate(15.443)"/><path class="cls-10" d="M130.007,148.862q-.923.946-1.893,1.882c1.947,1.983,5.032,3.14,10.241-1.038.246-.36.484-.715.717-1.067C136.13,150.079,132.613,150.885,130.007,148.862Z" transform="translate(15.443)"/><path class="cls-11" d="M108.8,170.1s-11.687,3.79-5.633-3.431c-1.234.437-2.483.851-3.765,1.208-.377.105-.748.187-1.123.284,2.517,1.089,3.424,2.429,1.381,4,0,0,2.914.949.184,1.442,0,0,7.715.762,4.369,4.356a65.543,65.543,0,0,0,14.541-7.876C115.243,169.456,103.933,173.865,108.8,170.1Z" transform="translate(15.443)"/><path class="cls-12" d="M117.341,159.487a67.523,67.523,0,0,1-6.375,3.779c3.649,1.118,7.868,4.233,17.856-1.866q1.405-1.44,2.686-2.89C124.912,161.831,113.084,167.485,117.341,159.487Z" transform="translate(15.443)"/><path class="cls-13" d="M64.218,172.356s4.809.907.791-1.471c0,0,5.595-.907,4.631-3.239a63.168,63.168,0,0,1-6.528-2.354c1.612,2.728,1.867,5.039-2.059,4.686,0,0,4.179,1.567-.917,1.4,0,0,6.908,9.04-8.766,7.751a30.686,30.686,0,0,0-3.127-.108,62.564,62.564,0,0,0,15.375,3.137C68.722,179.688,71.1,176.392,64.218,172.356Z" transform="translate(15.443)"/><path class="cls-14" d="M38.278,149.849q-1.14-.886-2.264-1.776c-1.8,2.1-4.347,4.337-7.623,4.7,0,0,1.053-4.538,1.806-9.355l-.865-.7c-.175-.141-.344-.288-.517-.43-.749,4.676-3.028,9.537-8.287,11.176q.563,1.016,1.136,1.985C28.563,155.308,36.3,154.017,38.278,149.849Z" transform="translate(15.443)"/><path class="cls-15" d="M47.6,156.668q-.584-.4-1.164-.8c-.6,4.839-5.264,8.775-17.615,9.715q1.026,1.191,2.085,2.284C39.157,166.353,46.557,163.051,47.6,156.668Z" transform="translate(15.443)"/><path class="cls-16" d="M26.439,140.244q-.369-.332-.733-.665c.215,3.686-.37,11.328-10.239,3.553q2.041,4.678,4.172,8.695C23.164,150.512,26.034,147.232,26.439,140.244Z" transform="translate(15.443)"/><path class="cls-17" d="M57.237,162.5q-1.023-.54-2.032-1.106c-1.959,4.828-7.9,9.138-21.376,9.252q.49.429.988.838c6.913-.483,13.487-1.717,16.746-4.3C51.563,167.185,55.923,165.324,57.237,162.5Z" transform="translate(15.443)"/></g><path class="cls-18" d="M14.963,141.954c15.162,35.564,33.5,42.664,70.507,40.127,23.93-1.64,39.846-15.44,49.315-27.5C98.62,192.15,25.836,164.914,14.963,141.954Z" transform="translate(15.443)"/><path class="cls-19" d="M13.505,92.532C1.737,104.3,10.665,127.7,29.332,142.717S69.778,176.129,99.4,167.878s46.646-39.1,47.345-44.234c.509-3.736-15.492,10.224-26.689,20.288-13.152,13.008-25.273,22.72-36.889,22.187,0,0-5.816,1.894-16.232-12.039-4.926-6.589-7.955-20.124-12-33.583C45.774,89.668,25.257,80.78,13.505,92.532Z" transform="translate(15.443)"/><path class="cls-20" d="M29.332,142.717C48,157.732,69.778,176.129,99.4,167.878a57.967,57.967,0,0,0,6.676-2.328c-.51-1.824-5.859-1.913-5.859-1.913,4,4.152-2.9,3.931-11.506,1.969a21.684,21.684,0,0,1-5.544.513s-3.887,1.261-10.994-5.884c-.71-.322-1.378-.644-1.986-.964-10.371-5.448-19.209,4.1-23.718-5.95S59,149.118,59,149.118c-14.259-10.731-19.108-1.731-19.108-1.731-5.883-10.814,15.432-5.649,15.432-5.649-16.493-12.52-24.668,1.5-24.668,1.5-4.095-18.331,21.771-10.284,21.771-10.284-13.347-9.676-26.9-1.072-26.9-1.072,1.692-13.453,23.521-7.928,23.521-7.928-21.322-9.567-32,4.349-32,4.349,10.892-17.754,28.268-11.066,28.268-11.066-17.3-7.628-26.624,1.905-26.624,1.905.722-16.183,23.809-9.736,23.809-9.736-26.331-10.86-32.937,4.276-32.937,4.276,2.053-16.143,25.547-10.356,25.547-10.356-16.873-5.027-23.972-1.691-26.9,2.7C8.117,117.832,16.374,132.294,29.332,142.717Z" transform="translate(15.443)"/><path class="cls-21" d="M126.372,146.761a8.548,8.548,0,0,1,4.707.987q1.221-1.3,2.348-2.594C128.752,144.434,126.372,146.761,126.372,146.761Z" transform="translate(15.443)"/><path class="cls-22" d="M111.662,157.956c2.955.582,3.87,1.641,3.645,2.838,1.735-1.077,3.4-2.22,5-3.411C116.475,155.85,111.662,157.956,111.662,157.956Z" transform="translate(15.443)"/><path class="cls-23" d="M33.453,146.033c-1.386-1.112-2.763-2.223-4.121-3.316C10.665,127.7,1.737,104.3,13.505,92.532,25.257,80.78,45.773,89.667,54.94,120.5c-3.309-11.018-7.3-21.984-13.569-29.047C27.438,75.758,4.172,85.5,1.331,98.483S7.283,120.8,7.283,120.8C13.956,128.694,22.829,138.662,33.453,146.033Z" transform="translate(15.443)"/><path class="cls-24" d="M51.554,168.778s31.327,11.768,55.756,2.705C107.31,171.483,87.7,186.9,51.554,168.778Z" transform="translate(15.443)"/><path class="cls-25" d="M152.435,117.645c-.437-.552-1.567-.5-3.006-.13-3.721,1.587-9.339,5.8-18.508,15.327-3.7,3.847-7.319,7.587-10.861,11.09,11.2-10.064,27.2-24.024,26.688-20.288s-9.648,21.041-25.976,33.391l.28-.024a102.388,102.388,0,0,0,13.732-11.488l3.592-6.556C148.286,127.655,154.148,119.809,152.435,117.645Z" transform="translate(15.443)"/><path class="cls-26" d="M156.082,117.692c-3.112-1.894-7.711-2.976-25.161,15.15-3.7,3.847-7.319,7.587-10.861,11.09,11.2-10.064,27.2-24.024,26.688-20.288-.561,4.123-11.669,24.842-31.376,37.109,18.453-11.473,21.17-19.019,30.564-24.664q.451-.272.911-.539C154.311,130.832,159.073,119.513,156.082,117.692Z" transform="translate(15.443)"/><path class="cls-27" d="M49.555,115.573s-3.246,3.314,1.691,7.237c0,0-3.72,6.966,4.261,10.686,0,0-1.285,6.437,4.194,9.2,0,0,1.189,8.4,4.788,7.648s1.012-5.41-3.884-7.648c0,0,2.342-3.387,1.666-6.025s-6.155-3.043-6.155-3.043,5.411-1.624,5.614-3.72-7.44-5.547-7.44-5.547a5.5,5.5,0,0,0,3.382-3.652c.608-2.7-6.358-7.354-6.358-7.354Z" transform="translate(15.443)"/><path class="cls-27" d="M46.475,101.981c-2.019-.742-2.162,10.3,1.592,14.471,1.827,2.029,6.02-4.126,4.709-6.523C50.3,105.4,47.587,102.39,46.475,101.981Z" transform="translate(15.443)"/><path class="cls-28" d="M63.045,144.141a13.553,13.553,0,0,0-2.44-1.441,12.809,12.809,0,0,0,1.142-2.161c-.026.034-.054.063-.079.1-1.738,2.679-7.059-6.8-3.892-6.763a14.825,14.825,0,0,0-1.66-.246,20.176,20.176,0,0,0,3.264-1.347c-.136.045-.27.085-.418.15-3.3,1.438-9.5-9.394-4.285-8.234a6.113,6.113,0,0,0,.586-.318c-2.636-1.827-6.009-5.041-2.237-7.907a7.146,7.146,0,0,1-1.635-.855,8.127,8.127,0,0,1-.907-.718,8,8,0,0,1-2.524-4.739c-.688-4.2.15-5.728,1.957-4.226-1.468-1.967-2.758-3.2-3.442-3.457-2.019-.742-2.162,10.3,1.592,14.471a1.143,1.143,0,0,0,.719.384c-.515,1.316-.62,3.526,2.46,5.974,0,0-3.72,6.966,4.261,10.686,0,0-1.285,6.437,4.194,9.2,0,0,1.189,8.4,4.788,7.648a2.58,2.58,0,0,0,1.081-.468.578.578,0,0,0-.115.05C63.381,151.508,58.424,140.877,63.045,144.141Z" transform="translate(15.443)"/><path class="cls-29" d="M40.919,90.976c-4.783-3.658-10.921-6.8-17.856-6.7-16.417.235-22.221,17.51-10.61,37.966L8.4,122.118c6.535,7.661,15.01,16.947,25.053,23.915-1.386-1.112-2.763-2.223-4.121-3.316C10.665,127.7,1.737,104.3,13.505,92.532,25.257,80.78,45.773,89.667,54.94,120.5c-3.309-11.018-7.3-21.984-13.569-29.047C41.224,91.283,41.069,91.136,40.919,90.976Z" transform="translate(15.443)"/><path class="cls-30" d="M63.556,177.329s-7.681-8.928-18.315,5.217,3.808,20.638,3.808,20.638Z" transform="translate(15.443)"/><path class="cls-27" d="M138.046,126.981s-6.223-.632-9.289,1.172,0,10.572,0,10.572-7.846-2.636-9.289-1.734-.878,10.489-.878,10.489-4.713-2.373-7.418-.66-2.165,7.756-2.165,7.756-6.854-1.172-8.477-.361-1.082,7.576-1.082,7.576-4.058-2.165-5.681-1.534-3.788,5.952-3.788,5.952a11.444,11.444,0,0,0,9.74-3.7s5.14.722,9.559-7.124c0,0,7.214,1.533,9.92-7.485,0,0,10.01-4.78,10.28-8.658C129.478,139.245,140.39,134.466,138.046,126.981Z" transform="translate(15.443)"/><path class="cls-28" d="M138.046,126.981a29.027,29.027,0,0,0-4.088-.061c3.121.869-4.429,14.036-5.935,9.241.358,1.477.734,2.564.734,2.564s-1.02-.342-2.384-.736c2.649.855-7.858,12.084-7.888,5.068-.016,2.324.105,4.423.105,4.423a14.311,14.311,0,0,0-1.81-.716c3.172,1.107-8.034,11.842-7.771,5.288a17.747,17.747,0,0,0,0,2.524s-1.013-.173-2.35-.34c1.7,1.055-7.416,11.088-7.292,4.706-.022,1.537.083,2.849.083,2.849s-.67-.356-1.571-.737c2.512,1.236-6.674,6.233-5.232,2.313a2.874,2.874,0,0,0,.127-2.271,25.02,25.02,0,0,0-2.793,5.113,11.444,11.444,0,0,0,9.74-3.7s5.14.721,9.559-7.124c0,0,7.214,1.533,9.92-7.485,0,0,10.01-4.78,10.28-8.658C129.478,139.245,140.39,134.466,138.046,126.981Z" transform="translate(15.443)"/><g class="cls-31"><path class="cls-32" d="M23.921,86.85c-7.575,1.353-5.1,9.546,0,11.025s9.2,1.555,12.04.744c0,0,4.261,8.928,7.778,8.86s2.314-4.343,1.246-7.783c-1.156-3.724-4.29-10.885-4.29-10.885s-6.764-1.893-7.237-1.961S23.921,86.85,23.921,86.85Z" transform="translate(15.443)"/><path class="cls-28" d="M23.921,97.875c5.1,1.478,9.2,1.555,12.04.744,0,0,4.261,8.928,7.778,8.86a2.119,2.119,0,0,0,2.315-2.14c-.283,1.963-2.319,1.961-5.286-2.174-3.449-4.809-1.45-9.621,1.162-7.111s-5.491-7.019-5.491-7.019l-.34,2.077c6.355,3.836,1.9,6.986-5.639,4.686s-9.442-8.454-3.895-8.187l-.312-.776-2.332.015C16.346,88.2,18.819,96.4,23.921,97.875Z" transform="translate(15.443)"/><path class="cls-33" d="M25.668,93.317A13.835,13.835,0,0,0,30.46,95.8c7.535,2.3,11.994-.85,5.639-4.686C39.769,94.553,31.962,96.788,25.668,93.317Z" transform="translate(15.443)"/><path class="cls-34" d="M39.088,96.831c-.411,1.488-.059,3.91,1.68,6.334,2.967,4.135,5,4.137,5.286,2.174-.01.107-.03.207-.049.308a5.29,5.29,0,0,0,.054-1.35C46.437,107.011,38.461,100.382,39.088,96.831Z" transform="translate(15.443)"/><path class="cls-35" d="M132.343,64.628C120.715,53.505,93.5,61.565,87.578,125.876c0,0-5.258-24.376.372-46.416s18.682-28.4,15.932-31.676S86.146,58.748,84.536,105.4c0,0-12.041-40.54-11.425-55.893s9.25-21.391,12.824-17.4S78.822,61.589,86.6,61.02s5.068-13.888,2.459-23.16-8.123-16.013-15.222-2.17.088,40.169,7.011,64.18,2.837,38.8,2.837,38.8S81.57,96.534,66.594,68.663,22.534,36.545,30,67.284c3.054,12.58,5.354,18.815,7.311,23.068,1.453,3.156,2.716,5.224,3.957,7.973a59.813,59.813,0,0,1,3.595,11.129c4.434,18.554,8.42,18.466,13.245,16.586s1.323-10.507-13.168-27.6-22.513-55.7,3.634-44.488,33.553,58.055,30.04,91.881c0,0,.529-42.942-8.76-59.064s-5.753,5.828-2.6,6.756-.405-6.7-1.826-9.136,1.2-5.693,7.307,12.79,5.155,70.5-11.551,66.5c-2.439-.583-4.578-1.12-6.467-1.614,14.674,7.313,31.038,11.184,49.692,4.488.124-.045.242-.1.365-.142-2.6-.126-5.535-3-5.819-15.15-.52-22.17,4.119-30.04,12.557-30.85s.151,15.087-6.219,20.731-2.1,8.968,2.286,6.461,11.193-22.7,7.228-28.206-20.3,3.609-18.926,32.861c0,0-6.969-24,3.446-47.944s20.82-13.694,22.02-18.417-8.344-4.99-17.621,9.013-13.44,35.55-12.556,46.686c0,0-4.877-28.031,5.731-51.98s26.635-31.88,36.506-21.015-.606,23.411-5.328,30.129-8.728,15.332-2.341,15.532,5.289-13.453,7.54-20.413S143.97,75.75,132.343,64.628Z" transform="translate(15.443)"/><path class="cls-36" d="M94.483,150.329c1.669,21.5-3.855-9.152-3.855-9.152.556,17.584-2.21-6.811-2.21-6.811-.869,51.115-4.037,6.551-4.661,4.022-.044.181-.071.283-.071.283s-.015-.276-.045-.746c1.153,21.917-4.38,8.736-4.972,7.269-.013.122-.022.247-.035.368.537,12.377-5.37,14.058-3.605-2.845C73.137,155.688,68.8,165.5,61.183,163.683c-2.3-.551-4.335-1.06-6.146-1.531-.012.018-.023.035-.034.054,14.6,7.222,30.871,11,49.405,4.351.124-.045.242-.1.365-.142-2.453-.119-5.2-2.7-5.744-13.206,0,.029,0,.055,0,.084.474,17.255-3.15-1.031-3.15-1.031C97,168.885,94.483,150.329,94.483,150.329Z" transform="translate(15.443)"/><path class="cls-37" d="M121.346,85.9c.851-3.348-3.7-4.45-9.729.18-5.27,4.206.2,2.1,2.4,1.77C117.953,86.939,120.758,88.217,121.346,85.9Z" transform="translate(15.443)"/><path class="cls-38" d="M115,132.037c.021-2.13-2.236-.212-4.147,2.279-.482.76-.987,1.5-1.5,2.214a29.562,29.562,0,0,1-4.057,4.616c-6.37,5.645-2.1,8.968,2.286,6.461,1.657-.947,3.658-4.418,5.294-8.667.094-.284.218-.616.376-1.006A53.388,53.388,0,0,0,115,132.037Z" transform="translate(15.443)"/><path class="cls-39" d="M95.273,62.057c.09-.144.179-.29.269-.432.028-.046.053-.084.081-.131,5.193-8.167,10.04-11.589,8.259-13.71-1.163-1.385-4.515.379-8.118,6.385C91.761,61,89.271,71.672,95.273,62.057Z" transform="translate(15.443)"/><path class="cls-40" d="M63.992,85.137c.413,3.513,1.873,7.981,3.261,8.389,3.158.928-.405-6.7-1.826-9.136-.049-.082-.091-.166-.13-.249C64.547,82.932,63.78,82.277,63.992,85.137Z" transform="translate(15.443)"/><path class="cls-41" d="M86.519,37.831c-1.02,8.82-5.867,23.624.082,23.189,7.276-.532,5.375-12.217,2.964-21.312C88.441,36.109,87.04,33.661,86.519,37.831Z" transform="translate(15.443)"/><path class="cls-42" d="M58.1,126.04c4.825-1.88,1.323-10.507-13.168-27.6-.572-.675-1.133-1.387-1.683-2.125-2.013-1.929-2.873-1.4-.675,5.26.178.494.358,1.027.538,1.58.014.04.025.075.039.115.551,1.713,1.114,3.713,1.7,6.183C49.292,128.008,53.278,127.92,58.1,126.04Z" transform="translate(15.443)"/><path class="cls-43" d="M130.385,95.509c-.836,1.178-1.631,2.263-2.307,3.225-4.723,6.718-8.728,15.332-2.341,15.532,4.327.136,5.219-6.086,6.044-12.277C131.93,98.536,133.7,91.374,130.385,95.509Z" transform="translate(15.443)"/><path class="cls-44" d="M106.99,139.716a5.3,5.3,0,0,0,.566-.909,24.141,24.141,0,0,1-2.264,2.339c-6.37,5.645-2.1,8.968,2.286,6.461a7.5,7.5,0,0,0,2.19-2.359C107.085,149.606,103.337,144.57,106.99,139.716Z" transform="translate(15.443)"/><path class="cls-45" d="M123.969,105.674c-2.125,4.566-2.5,8.459,1.768,8.592,3.839.12,4.974-4.765,5.757-10.192C130.5,111.918,121.147,112.8,123.969,105.674Z" transform="translate(15.443)"/><path class="cls-46" d="M83.867,53.626c-.474,4.376-.085,7.6,2.734,7.394,4.669-.341,5.557-5.276,4.959-11.171C91.712,56.763,83.19,61.6,83.867,53.626Z" transform="translate(15.443)"/><path class="cls-47" d="M58.1,126.04c3.622-1.411,2.55-6.626-4.34-16.37,8.17,12.983-3.632,16.182-6.352,8.63C50.879,127.9,54.219,127.553,58.1,126.04Z" transform="translate(15.443)"/><path class="cls-48" d="M49.875,121.4c-.634-3,7.368,3.192,4.768,3.61C52.573,125.338,50.517,124.438,49.875,121.4Z" transform="translate(15.443)"/><path class="cls-48" d="M87.915,59.409c-2.932.9,2.524-7.622,3.172-5.07C91.6,56.371,90.888,58.5,87.915,59.409Z" transform="translate(15.443)"/><path class="cls-48" d="M105.127,147.414c-1.623-.212,2.98-3.3,2.7-1.855A2.2,2.2,0,0,1,105.127,147.414Z" transform="translate(15.443)"/><path class="cls-48" d="M124.611,107.725c1.815-1.29.081,6.047-.98,4.35A3,3,0,0,1,124.611,107.725Z" transform="translate(15.443)"/><path class="cls-49" d="M76.962,33.218c4.724-5.1,8.374-5.118,11.364,2.334-2.831-7.963-8-12.522-14.488.138-2.708,5.283-3.333,12.387-2.69,20.483C70.8,44.121,73.912,36.51,76.962,33.218Z" transform="translate(15.443)"/><path class="cls-50" d="M55.288,56.332c9.5,7.521,16.788,22.925,21.587,39.71A126.625,126.625,0,0,0,66.594,68.663C51.617,40.791,22.533,36.545,30,67.284c.959,3.949,1.843,7.272,2.666,10.106l.212-.032C24.342,49.977,38.294,42.875,55.288,56.332Z" transform="translate(15.443)"/><path class="cls-51" d="M100.626,128.935c-2.565,6.914-2.3,15.081-1.7,20.419-.212-20.712,4.4-28.153,12.589-28.939,2.459-.236,3.49.952,3.569,2.887C115.442,117.325,104.842,117.573,100.626,128.935Z" transform="translate(15.443)"/><path class="cls-52" d="M132.343,64.628C120.715,53.505,93.5,61.565,87.578,125.876c7.969-58.185,24.171-61.869,33.462-62.955,7.8-.911,18.3,5.071,17.164,16.621C138.782,74.836,137.677,69.73,132.343,64.628Z" transform="translate(15.443)"/><path class="cls-53" d="M97.92,167.185c-1.758-.172-2.567-4.359-2.567-4.359.949,8.116-2.573-1.406-2.573-1.406.758,9.86-1.556-.667-1.556-.667-.018,8.209-3.179-6.855-3.179-6.855.609,22.59-1.674-.577-1.674-.577-1.742,20.323-5.021.712-5.021.712-1.827,21.508-3.87,1.217-3.87,1.217-1.84,8.117-1.77.474-1.77.474-5.235,23.605-3.9.623-3.9.623-1.894,7.725-8.319,10.469-8.928,8.25l-.492.371c10.715,4.67,22.618,6.68,36.173,3.117C98.63,167.611,98.488,167.24,97.92,167.185Z" transform="translate(15.443)"/></g><path class="cls-32" d="M145.429,123.269a28.879,28.879,0,0,0-9.249-1.519c-2.771.156-1.129,4.175.76,7.553,1.388,2.484,2.909,4.622,2.909,4.622s.726.387,1.464.76c3.328-5.179,5.174-9.332,5.424-10.986C146.413,123.586,145.962,123.435,145.429,123.269Z" transform="translate(15.443)"/><path class="cls-28" d="M139.849,133.925s.726.387,1.464.76c3.328-5.179,5.174-9.332,5.424-10.986-.324-.113-.775-.264-1.308-.43-.376-.117-.807-.243-1.26-.369,6.191,2.2-7.672,5.824-9.378,1.284a18.966,18.966,0,0,0,2.149,5.119C138.328,131.787,139.849,133.925,139.849,133.925Z" transform="translate(15.443)"/><path class="cls-54" d="M138.189,128.3c-2.843-.688-5.857-.952-7.268.435-1.041,1.024-1.216,3.567-.994,6.476a76.618,76.618,0,0,0,2.067,11.552,87.469,87.469,0,0,0,11.98-16.543A41.632,41.632,0,0,0,138.189,128.3Z" transform="translate(15.443)"/><path class="cls-54" d="M107.384,156.65c-1.7,1.2-3.169,7.273-3.726,9.843a64.1,64.1,0,0,0,13.757-7.057C115.145,158.278,109.129,155.414,107.384,156.65Z" transform="translate(15.443)"/><path class="cls-54" d="M119.017,146.64c-1.976,3.2-1.239,9.827-.876,12.3a81.467,81.467,0,0,0,13.19-11.46C128.63,146.306,121.027,143.387,119.017,146.64Z" transform="translate(15.443)"/><path class="cls-54" d="M95.3,164.947c-1.111.588-4.674,3.346-6.558,4.826a55.249,55.249,0,0,0,10.661-1.9c.865-.241,1.717-.5,2.561-.783C99.254,164.527,96.707,164.2,95.3,164.947Z" transform="translate(15.443)"/><path class="cls-28" d="M143.974,130.218a41.632,41.632,0,0,0-5.785-1.92c9.222,2.266-5.914,19.628-7.545,12.227.462,2.573,1.016,4.909,1.35,6.236A87.469,87.469,0,0,0,143.974,130.218Z" transform="translate(15.443)"/><path class="cls-28" d="M117.415,159.436a48.641,48.641,0,0,0-4.473-2.018c.018.006.033.014.052.021,6.224,2.166-10.132,11.2-8.181,4.52-.515,1.716-.918,3.441-1.155,4.534A64.1,64.1,0,0,0,117.415,159.436Z" transform="translate(15.443)"/><path class="cls-28" d="M131.331,147.476a36.532,36.532,0,0,0-4.629-1.656c5,1.268-8.409,14.552-8.986,8.357a42.109,42.109,0,0,0,.425,4.759A81.467,81.467,0,0,0,131.331,147.476Z" transform="translate(15.443)"/><path class="cls-28" d="M99.4,167.878c.865-.241,1.717-.5,2.561-.784a10.052,10.052,0,0,0-2.98-2.021c4.519,2.1-11.7,5.852-6.363,1.723-1.35,1-2.858,2.175-3.879,2.977A55.262,55.262,0,0,0,99.4,167.878Z" transform="translate(15.443)"/><g class="cls-55"><path class="cls-54" d="M71.266,169.366s-3.789-5.726-5.41-8.319c-2.03-3.247-5.6-.942-9.325,1.085s-1.9.132-1.9.132.6-11.424-1.894-12.986c-1.984-1.24-10.957,5.14-10.957,5.14l-.541-.135s2.638-12.242.947-14.2c-1.126-1.305-8.184-1.149-12.851,2.638-6.374,5.174-.879.2-.879.2s6.358-11.194,6.02-14.187-13.731-.625-17.992,1.742l-.338-.608S29.806,119.112,29.4,114.31s-18.871-4.261-21.711-3.246,0-1.218,0-1.218,10.01-3.787,18.532-6.087S23.313,89.321,14.622,91.5s-3.551-3.366-3.551-3.366l-26.514,24.552,52.08,58.031,21.914.947Z" transform="translate(15.443)"/><path class="cls-28" d="M58.551,171.665l12.715-2.3s-2.011-3.039-3.73-5.693c3.9,6.253-11.313-1.71-7.324-3.466-1.173.523-2.417,1.238-3.681,1.925-3.729,2.026-1.9.132-1.9.132a61.9,61.9,0,0,0-.067-6.8c.569,5.48-12.736-1.581-7.674-4.293-2.636,1.491-5.11,3.246-5.11,3.246l-.541-.135s.847-3.931,1.273-7.695c-.818,7.119-14.828-3.979-8.944-6.213a14.687,14.687,0,0,0-4.233,2.342c-6.374,5.174-.879.2-.879.2s1.45-2.554,2.928-5.547c-3.589,7.233-14.224-7.428-7.438-9.275a29.293,29.293,0,0,0-7.462,2.377l-.338-.608s3.135-2.47,6.357-5.568c-6.687,6.666-16.487-13.412-7.541-13.917a30.849,30.849,0,0,0-7.27.682c-2.841,1.014,0-1.218,0-1.218s3.639-1.375,8.388-2.97L16,106.9c-11.882,3.864-5.4-15.532,1.81-15.606a9.29,9.29,0,0,0-3.183.2c-8.692,2.18-3.551-3.366-3.551-3.366L-5.255,103.253l1.484,22.44,40.408,45.025Z" transform="translate(15.443)"/></g><path class="cls-56" d="M89.979,181.617s21.057-10.24,28.768.929-1.046,17.8-1.046,17.8,4.428-9.875-2.877-12.851-6.342,4.988-19.471,1.344S89.979,181.617,89.979,181.617Z" transform="translate(15.443)"/><path class="cls-57" d="M83.035,182.217s18.209-9.228,22.091,13.783C105.126,196,82.9,198.314,83.035,182.217Z" transform="translate(15.443)"/><path class="cls-58" d="M61,175.454c-17.572,4.872-14.981,23.534-14.981,23.534a10.215,10.215,0,0,1-3.559-11.738c-4.625,10.884,6.587,15.934,6.587,15.934l14.507-25.855A8.78,8.78,0,0,0,61,175.454Z" transform="translate(15.443)"/><path class="cls-59" d="M114.829,185.191c-9.449-3.746-14.4-1.793-21.3-5.051-.315.117-.617.231-.9.341,3.954.45,8.2,2.694,10.78,9.2,5.154-.74,6.1-4.349,11.409-2.187,7.305,2.976,2.877,12.851,2.877,12.851S124.839,189.159,114.829,185.191Z" transform="translate(15.443)"/><path class="cls-60" d="M89.579,189.319c-1.753-1.81-5-7.742-5-7.742a15.767,15.767,0,0,0-1.543.64C82.9,198.314,105.126,196,105.126,196,104.116,193.544,96.3,196.263,89.579,189.319Z" transform="translate(15.443)"/><path class="cls-61" d="M86.011,184.246s-5-13.8-22.861-9.469-18.8,34.764-6.628,43.287c0,0-6.347-10.822.817-15.692S89.663,203.319,86.011,184.246Z" transform="translate(15.443)"/><path class="cls-62" d="M19.282,134c-4.541-4.525-8.563-9.137-12-13.2,1.562,4.947,3.13,9.523,4.723,13.759C9.534,127.591,12.657,128.752,19.282,134Z" transform="translate(15.443)"/><path class="cls-63" d="M145.936,136.089c-5.136,3.087-8.281,6.744-13.089,11.3,6.322-4.708,11.856-8.612,11.271-7.389,1.231-2.428,1.818-3.909,1.818-3.909Z" transform="translate(15.443)"/><path class="cls-64" d="M6.887,97.083A7.451,7.451,0,0,1,9.568,90.8S8.47,95.233,6.887,97.083Z" transform="translate(15.443)"/><path class="cls-64" d="M6.656,98.308s-1.223,1.979-.25,2.384A3.245,3.245,0,0,0,6.656,98.308Z" transform="translate(15.443)"/><path class="cls-64" d="M152.731,118.862c.155,3.2-3.092,6.223-3.092,6.223Z" transform="translate(15.443)"/><path class="cls-65" d="M61,175.454c-3.1-1.539-8.8-2.169-15.761,7.092a22.5,22.5,0,0,0-2.779,4.7,10.217,10.217,0,0,0,2.972,11.232,19.8,19.8,0,0,1,.677-13.066C51.657,171.889,61,175.454,61,175.454Z" transform="translate(15.443)"/><path class="cls-66" d="M118.747,182.546c-4.039-5.85-11.737-5.824-18.155-4.475,9.465-1.324,18.585,3.988,19.5,13.247a8.95,8.95,0,0,1,.073,1.387c0,.141.01.279.008.422a14.555,14.555,0,0,1-1.23,6.017C121.039,196.764,124.539,190.937,118.747,182.546Z" transform="translate(15.443)"/><path class="cls-67" d="M103.415,189.678a15.592,15.592,0,0,0-4.844-6.843l-.043-.034c-.2-.153-.407-.295-.613-.432-.064-.042-.128-.084-.193-.124-.191-.122-.383-.238-.576-.345-.078-.044-.156-.082-.235-.123-.311-.163-.624-.308-.939-.439-.127-.052-.253-.109-.379-.156s-.278-.095-.416-.141c-.157-.052-.313-.1-.469-.147-.126-.036-.252-.07-.378-.1q-.271-.069-.542-.124c-.1-.021-.208-.044-.312-.063-.28-.05-.56-.093-.839-.125a16.4,16.4,0,0,0-4.9.23,8.47,8.47,0,0,1,2.748.671c3.233,1.3,7.272,4.372,10.6,8.417a31.4,31.4,0,0,1,4.038,6.2,31.07,31.07,0,0,0-1.711-6.321Z" transform="translate(15.443)"/><path class="cls-68" d="M63.15,174.777a16.567,16.567,0,0,0-2.127.686c-9.634,3.757-13.523,15.754-12.437,26.4a11.825,11.825,0,0,0,.254,1.22l.074.036-.074-.036a5.2,5.2,0,0,0,1.017,2.11c1.516,1.707,4.132.585,7.468-4.959-1.065,1.446-1.848,1.87-2.366,1.566-1.144-.673-.994-4.91.281-9.651,1.291-4.8,3.733-10.11,7.153-12.748a16.367,16.367,0,0,1,21.118.739C80.484,176.471,74.342,172.063,63.15,174.777Z" transform="translate(15.443)"/><path class="cls-69" d="M48.61,202.155c-.011-.1-.014-.195-.024-.292-.01-.062-.023-.118-.031-.182C48.57,201.84,48.592,202,48.61,202.155Z" transform="translate(15.443)"/><g class="cls-70"><path class="cls-71" d="M108.605,187.723c-.675-2.568-.519-5.168,2.652-5.564a12.736,12.736,0,0,1,8.666,2.285c-.094-.17-.2-.343-.3-.515C103.939,173.9,102.76,188.2,102.76,188.2s-7.453-4.964-8.68,1.736c-.276,1.509.339,3.5,1.3,5.515.791.162,1.572.288,2.329.383-4.99-7.385,2.071-7.685,5.79-5.935-.027-.069-.051-.146-.079-.215A15.132,15.132,0,0,0,108.605,187.723Z" transform="translate(15.443)"/><path class="cls-72" d="M51.144,185.273c2.689-4.607,16.7-9.732,22.563,1.073,2.945,5.43.073,10.006-3.513,13.216.487-.064.974-.129,1.46-.2,10.893-9.653,1.151-20.124,1.151-20.124,11.575,2.207,11.937,9.9,9.864,16.469a9.057,9.057,0,0,0,2.448-2.781c.994-4.555-.156-9.329-6.811-12.538-16.5-7.958-26.025,2.715-26.025,2.715-1.573-5.632-5.868-1.747-8.592,1.741a19.583,19.583,0,0,0-1.233,2.413C47.289,180.562,51.144,185.273,51.144,185.273Z" transform="translate(15.443)"/><path class="cls-73" d="M98.571,182.835c-7.116-2.661-10.942,3.546-10.606,9.6a17.815,17.815,0,0,0,5.5,2.547C83.331,181.748,98.923,183.1,98.923,183.1c2.4-4.789,10.743-4.814,18.16-2.462a11.085,11.085,0,0,0-1.889-1.4C101.7,175.66,98.571,182.835,98.571,182.835Z" transform="translate(15.443)"/><path class="cls-74" d="M60.9,187.716c-8.745-4.509-11.815,3.562-11.815,3.562-2.248-1.492-5.154-1.542-7.522-1.212a11,11,0,0,0-.182,3.2c1.3-2.755,7.523-.952,7.523-.952,5.88-10.4,14.209.932,11.44,8.778a32.773,32.773,0,0,1,3.918-.775C65.6,196.305,66.318,190.507,60.9,187.716Z" transform="translate(15.443)"/><path class="cls-75" d="M115.529,187.822a6.3,6.3,0,0,1,2.166,1.823c.945-2.547,2.272-2.825,3.579-2.126-.139-.432-.309-.876-.5-1.328C119,185.622,117.143,186.508,115.529,187.822Z" transform="translate(15.443)"/></g><path class="cls-76" d="M56.522,218.064s-6.347-10.822.817-15.692,32.324.947,28.672-18.126c2.841,18.126-21.909,3.74-27.861,14.562-5.177,9.414-8.818,8.589-9.595,2.873C49.216,208.539,51.938,214.855,56.522,218.064Z" transform="translate(15.443)"/><path class="cls-77" d="M24.224,122.582c2.866-2.967,5.352-6.183,5.176-8.272-.2-2.339-4.682-3.408-9.556-3.775C28.205,111.305,27.535,119.361,24.224,122.582Z" transform="translate(15.443)"/><path class="cls-78" d="M60.452,160.1c2.625-1.1,5.852,1.753,7.29,3.924a.875.875,0,0,0,.073.079c-.743-1.145-1.456-2.252-1.959-3.057C64.561,158.976,62.64,159.167,60.452,160.1Z" transform="translate(15.443)"/><path class="cls-79" d="M54.505,154.794c-.233-2.523-.734-4.868-1.771-5.516-.892-.558-3.2.428-5.464,1.679C50.805,149.353,53.882,150.744,54.505,154.794Z" transform="translate(15.443)"/><path class="cls-80" d="M42.6,145.689c.24-2.54.237-4.849-.419-5.61s-3.366-1.021-6.429-.343C40.112,138.876,43.005,140.838,42.6,145.689Z" transform="translate(15.443)"/><path class="cls-81" d="M17.09,106.537c2.861-.947,6.088-1.957,9.131-2.778,6.016-1.623,2.087-8.144-3.8-11.075C29.934,96.593,21.089,105.18,17.09,106.537Z" transform="translate(15.443)"/><path class="cls-82" d="M32.087,135.91c1.355-2.877,2.536-5.842,2.386-7.177-.169-1.491-3.578-1.651-7.483-1.144C34.019,126.709,33.7,132.5,32.087,135.91Z" transform="translate(15.443)"/><path class="cls-83" d="M138.189,128.3c-2.843-.688-5.857-.952-7.268.435-1.041,1.024-1.216,3.567-.994,6.476.051.658.123,1.336.208,2.018C129.544,132.2,134.256,127.094,138.189,128.3Z" transform="translate(15.443)"/><path class="cls-84" d="M104.813,161.959c-.007.022-.008.039-.014.06,1.178-3.927,4.609-5.955,7.726-4.755-2.117-.775-4.222-1.265-5.141-.614-1.009.715-1.936,3.148-2.641,5.545.007-.023.015-.045.022-.068C104.782,162.071,104.8,162.016,104.813,161.959Z" transform="translate(15.443)"/><path class="cls-85" d="M119.017,146.64c-1.094,1.772-1.355,4.594-1.31,7.18,0-.095.008-.18.009-.279.044-5,4.564-8.73,8.309-7.9C123.169,144.942,120.171,144.772,119.017,146.64Z" transform="translate(15.443)"/><path class="cls-86" d="M95.3,164.947a28.588,28.588,0,0,0-2.679,1.849,8.885,8.885,0,0,1,6.363-1.723A4.355,4.355,0,0,0,95.3,164.947Z" transform="translate(15.443)"/><path class="cls-87" d="M136.18,121.75c-1.341.076-1.643,1.06-1.389,2.434a3.6,3.6,0,0,0,2.878,1.985c-3.765-1.606-.306-4.548,2.97-4.077A20.007,20.007,0,0,0,136.18,121.75Z" transform="translate(15.443)"/><path class="cls-88" d="M108.189,98.856a.265.265,0,1,1-.273-.257A.266.266,0,0,1,108.189,98.856Z" transform="translate(15.443)"/><path class="cls-89" d="M114.745,98.663a6.823,6.823,0,1,1-7.023-6.62A6.825,6.825,0,0,1,114.745,98.663Z" transform="translate(15.443)"/><path class="cls-88" d="M67.859,102.239a.265.265,0,1,1-.272-.257A.265.265,0,0,1,67.859,102.239Z" transform="translate(15.443)"/><path class="cls-90" d="M74.415,102.045a6.823,6.823,0,1,1-7.022-6.619A6.823,6.823,0,0,1,74.415,102.045Z" transform="translate(15.443)"/><g class="cls-91"><path class="cls-88" d="M110.9,61.653a.1.1,0,1,1-.1-.095A.1.1,0,0,1,110.9,61.653Z" transform="translate(15.443)"/><path class="cls-92" d="M113.333,61.581a2.535,2.535,0,1,1-2.608-2.458A2.534,2.534,0,0,1,113.333,61.581Z" transform="translate(15.443)"/></g><g class="cls-91"><path class="cls-88" d="M83.846,70.5a.1.1,0,1,1-.1-.1A.1.1,0,0,1,83.846,70.5Z" transform="translate(15.443)"/><circle class="cls-93" cx="83.748" cy="70.502" r="2.535" transform="translate(-2.131 29.051) rotate(-17.842)"/></g><g class="cls-91"><path class="cls-88" d="M56.587,91.438a.1.1,0,1,1-.2.006.1.1,0,0,1,.2-.006Z" transform="translate(15.443)"/><path class="cls-94" d="M59.022,91.366a2.535,2.535,0,1,1-2.608-2.458A2.534,2.534,0,0,1,59.022,91.366Z" transform="translate(15.443)"/></g><g class="cls-91"><path class="cls-88" d="M47.194,84.731a.1.1,0,1,1-.1-.095A.1.1,0,0,1,47.194,84.731Z" transform="translate(15.443)"/><path class="cls-95" d="M49.629,84.659A2.535,2.535,0,1,1,47.021,82.2,2.535,2.535,0,0,1,49.629,84.659Z" transform="translate(15.443)"/></g><g class="cls-91"><path class="cls-88" d="M69.044,150.429a.1.1,0,0,1-.095.1.1.1,0,0,1-.1-.095.1.1,0,1,1,.2-.006Z" transform="translate(15.443)"/><path class="cls-96" d="M71.479,150.357a2.535,2.535,0,1,1-2.608-2.459A2.533,2.533,0,0,1,71.479,150.357Z" transform="translate(15.443)"/></g><g class="cls-91"><path class="cls-88" d="M76.847,133.872a.1.1,0,1,1-.1-.1A.1.1,0,0,1,76.847,133.872Z" transform="translate(15.443)"/><circle class="cls-97" cx="76.749" cy="133.875" r="2.535" transform="translate(-21.813 29.876) rotate(-17.803)"/></g><g class="cls-91"><path class="cls-88" d="M87.788,146.517a.1.1,0,1,1-.1-.095A.1.1,0,0,1,87.788,146.517Z" transform="translate(15.443)"/><path class="cls-98" d="M90.223,146.445a2.535,2.535,0,1,1-2.608-2.459A2.535,2.535,0,0,1,90.223,146.445Z" transform="translate(15.443)"/></g><g class="cls-91"><path class="cls-88" d="M108.2,114.2a.1.1,0,1,1-.1-.1A.1.1,0,0,1,108.2,114.2Z" transform="translate(15.443)"/><path class="cls-99" d="M110.634,114.125a2.535,2.535,0,1,1-2.608-2.459A2.535,2.535,0,0,1,110.634,114.125Z" transform="translate(15.443)"/></g><path class="cls-88" d="M58.831,72.335a.265.265,0,1,1-.273-.257A.266.266,0,0,1,58.831,72.335Z" transform="translate(15.443)"/><path class="cls-100" d="M65.387,72.141a6.823,6.823,0,1,1-7.022-6.619A6.823,6.823,0,0,1,65.387,72.141Z" transform="translate(15.443)"/><g class="cls-101"><path class="cls-88" d="M141.966,54.859a.265.265,0,1,1-.272-.257A.266.266,0,0,1,141.966,54.859Z" transform="translate(15.443)"/><path class="cls-102" d="M148.522,54.666a6.823,6.823,0,1,1-7.022-6.619A6.825,6.825,0,0,1,148.522,54.666Z" transform="translate(15.443)"/><path class="cls-88" d="M43.721,128.531a.265.265,0,1,1-.272-.257A.263.263,0,0,1,43.721,128.531Z" transform="translate(15.443)"/><path class="cls-103" d="M50.277,128.337a6.823,6.823,0,1,1-7.022-6.619A6.823,6.823,0,0,1,50.277,128.337Z" transform="translate(15.443)"/><path class="cls-88" d="M10.177,66.62a.265.265,0,1,1-.273-.257A.265.265,0,0,1,10.177,66.62Z" transform="translate(15.443)"/><path class="cls-104" d="M16.732,66.426A6.823,6.823,0,1,1,9.71,59.807,6.823,6.823,0,0,1,16.732,66.426Z" transform="translate(15.443)"/><path class="cls-88" d="M39.765,60.02a.265.265,0,1,1-.273-.257A.266.266,0,0,1,39.765,60.02Z" transform="translate(15.443)"/><path class="cls-105" d="M46.32,59.826A6.823,6.823,0,1,1,39.3,53.207,6.822,6.822,0,0,1,46.32,59.826Z" transform="translate(15.443)"/><path class="cls-88" d="M151.326,89.293a.265.265,0,1,1-.273-.256A.265.265,0,0,1,151.326,89.293Z" transform="translate(15.443)"/><path class="cls-106" d="M157.882,89.1a6.823,6.823,0,1,1-7.022-6.619A6.823,6.823,0,0,1,157.882,89.1Z" transform="translate(15.443)"/><g class="cls-91"><path class="cls-107" d="M127.686,53.69a2.535,2.535,0,1,1-2.608-2.459A2.533,2.533,0,0,1,127.686,53.69Z" transform="translate(15.443)"/></g><g class="cls-91"><path class="cls-88" d="M16.392,77.972a.1.1,0,1,1-.1-.095A.1.1,0,0,1,16.392,77.972Z" transform="translate(15.443)"/><path class="cls-108" d="M18.827,77.9a2.535,2.535,0,1,1-2.608-2.458A2.535,2.535,0,0,1,18.827,77.9Z" transform="translate(15.443)"/></g><g class="cls-91"><path class="cls-88" d="M25.1,55.343a.1.1,0,1,1-.1-.1A.1.1,0,0,1,25.1,55.343Z" transform="translate(15.443)"/><circle class="cls-109" cx="25.002" cy="55.346" r="2.535" transform="translate(1.421 8.812) rotate(-15.672)"/></g><g class="cls-91"><path class="cls-88" d="M31.449,108.761a.1.1,0,1,1-.1-.1A.1.1,0,0,1,31.449,108.761Z" transform="translate(15.443)"/><path class="cls-110" d="M33.884,108.689a2.535,2.535,0,1,1-2.608-2.459A2.534,2.534,0,0,1,33.884,108.689Z" transform="translate(15.443)"/></g><g class="cls-91"><path class="cls-88" d="M101.376,118.617a.1.1,0,1,1-.1-.1A.1.1,0,0,1,101.376,118.617Z" transform="translate(15.443)"/><path class="cls-111" d="M103.811,118.545a2.534,2.534,0,1,1-2.608-2.459A2.534,2.534,0,0,1,103.811,118.545Z" transform="translate(15.443)"/></g><g class="cls-91"><path class="cls-88" d="M125.78,127.753a.1.1,0,1,1-.2.006.1.1,0,0,1,.2-.006Z" transform="translate(15.443)"/><path class="cls-112" d="M128.215,127.681a2.534,2.534,0,1,1-2.608-2.459A2.533,2.533,0,0,1,128.215,127.681Z" transform="translate(15.443)"/></g><g class="cls-91"><path class="cls-88" d="M150.068,70.739a.1.1,0,1,1-.1-.095A.1.1,0,0,1,150.068,70.739Z" transform="translate(15.443)"/><path class="cls-113" d="M152.5,70.667a2.535,2.535,0,1,1-2.608-2.458A2.536,2.536,0,0,1,152.5,70.667Z" transform="translate(15.443)"/></g><g class="cls-91"><path class="cls-88" d="M26.872,123.868a.1.1,0,1,1-.1-.095A.1.1,0,0,1,26.872,123.868Z" transform="translate(15.443)"/><path class="cls-114" d="M29.308,123.8a2.535,2.535,0,1,1-2.609-2.459A2.535,2.535,0,0,1,29.308,123.8Z" transform="translate(15.443)"/></g><g class="cls-91"><path class="cls-88" d="M34.267,135.265a.1.1,0,0,1-.1.1.1.1,0,1,1-.006-.2A.1.1,0,0,1,34.267,135.265Z" transform="translate(15.443)"/><circle class="cls-115" cx="34.169" cy="135.268" r="2.535" transform="translate(-22.277 15.698) rotate(-16.839)"/></g><g class="cls-91"><path class="cls-88" d="M19.654,143.907a.1.1,0,0,1-.095.1.1.1,0,0,1-.1-.095.1.1,0,0,1,.1-.1A.1.1,0,0,1,19.654,143.907Z" transform="translate(15.443)"/><circle class="cls-116" cx="19.556" cy="143.91" r="2.535" transform="translate(-13.357 6.964) rotate(-11.71)"/></g><g class="cls-91"><path class="cls-88" d="M42.116,71.238a.1.1,0,1,1-.1-.1A.1.1,0,0,1,42.116,71.238Z" transform="translate(15.443)"/><path class="cls-117" d="M44.551,71.166a2.535,2.535,0,1,1-2.608-2.459A2.534,2.534,0,0,1,44.551,71.166Z" transform="translate(15.443)"/></g><path class="cls-88" d="M115.8,148.9a.265.265,0,1,1-.272-.256A.265.265,0,0,1,115.8,148.9Z" transform="translate(15.443)"/><path class="cls-118" d="M122.359,148.706a6.823,6.823,0,1,1-7.022-6.619A6.825,6.825,0,0,1,122.359,148.706Z" transform="translate(15.443)"/><g class="cls-91"><path class="cls-88" d="M101.139,144.222a.1.1,0,0,1-.2.006.1.1,0,0,1,.1-.1A.1.1,0,0,1,101.139,144.222Z" transform="translate(15.443)"/><path class="cls-119" d="M103.574,144.15a2.535,2.535,0,1,1-2.609-2.459A2.535,2.535,0,0,1,103.574,144.15Z" transform="translate(15.443)"/></g><g class="cls-91"><path class="cls-88" d="M118.154,160.117a.1.1,0,1,1-.1-.095A.1.1,0,0,1,118.154,160.117Z" transform="translate(15.443)"/><path class="cls-120" d="M120.589,160.045a2.534,2.534,0,1,1-2.608-2.458A2.535,2.535,0,0,1,120.589,160.045Z" transform="translate(15.443)"/></g></g><circle class="cls-121" cx="127.18" cy="110.263" r="15.979" transform="translate(-15.42 168.187) rotate(-61.053)"/><circle class="cls-122" cx="87.919" cy="57.311" r="15.979" transform="translate(1.448 82.368) rotate(-46.912)"/><circle class="cls-123" cx="53.018" cy="121.165" r="20.792" transform="matrix(0.536, -0.844, 0.844, 0.536, -62.248, 100.987)"/><path class="cls-124" d="M77.859,90.81a10.69,10.69,0,1,1-11-10.369A10.689,10.689,0,0,1,77.859,90.81Z" transform="translate(15.443)"/><circle class="cls-125" cx="119.382" cy="85.456" r="10.69" transform="translate(-8.929 115.286) rotate(-47.319)"/><circle class="cls-126" cx="101.997" cy="49.716" r="10.69" transform="translate(11.651 8.681) rotate(-4.785)"/><path class="cls-127" d="M115.18,145.88a10.689,10.689,0,1,1-11-10.369A10.689,10.689,0,0,1,115.18,145.88Z" transform="translate(15.443)"/><g class="cls-128"><ellipse class="cls-129" cx="98.318" cy="101.953" rx="82.875" ry="101.953"/></g></g></g></g></g></svg>