<svg xmlns="http://www.w3.org/2000/svg" xmlns:xlink="http://www.w3.org/1999/xlink" viewBox="0 0 1309.415 1621.373"><defs><style>.cls-1{isolation:isolate;}.cls-2{fill:#003f4f;}.cls-3{fill:url(#Áåçûìÿííûé_ãðàäèåíò_391);}.cls-4{fill:url(#Áåçûìÿííûé_ãðàäèåíò_1086);}.cls-5{fill:#ff3678;opacity:0.22;}.cls-10,.cls-11,.cls-12,.cls-13,.cls-29,.cls-30,.cls-31,.cls-32,.cls-33,.cls-34,.cls-35,.cls-36,.cls-37,.cls-38,.cls-39,.cls-40,.cls-41,.cls-5,.cls-50,.cls-51,.cls-52,.cls-53,.cls-54,.cls-55,.cls-58,.cls-59,.cls-60,.cls-61,.cls-62,.cls-63,.cls-7,.cls-8,.cls-9{mix-blend-mode:multiply;}.cls-6{fill:url(#Áåçûìÿííûé_ãðàäèåíò_387);}.cls-10,.cls-11,.cls-12,.cls-13,.cls-38,.cls-39,.cls-40,.cls-41,.cls-7,.cls-8,.cls-9{opacity:0.39;}.cls-7{fill:url(#Áåçûìÿííûé_ãðàäèåíò_373);}.cls-8{fill:url(#Áåçûìÿííûé_ãðàäèåíò_373-2);}.cls-9{fill:url(#Áåçûìÿííûé_ãðàäèåíò_373-3);}.cls-10{fill:url(#Áåçûìÿííûé_ãðàäèåíò_373-4);}.cls-11{fill:url(#Áåçûìÿííûé_ãðàäèåíò_373-5);}.cls-12{fill:url(#Áåçûìÿííûé_ãðàäèåíò_373-6);}.cls-13{fill:url(#Áåçûìÿííûé_ãðàäèåíò_373-7);}.cls-14,.cls-15,.cls-16,.cls-17,.cls-18,.cls-19,.cls-20,.cls-42,.cls-43,.cls-44,.cls-45,.cls-64,.cls-65,.cls-66,.cls-67,.cls-68,.cls-69{opacity:0.74;}.cls-100,.cls-101,.cls-102,.cls-103,.cls-104,.cls-105,.cls-106,.cls-107,.cls-108,.cls-109,.cls-110,.cls-111,.cls-112,.cls-113,.cls-114,.cls-115,.cls-116,.cls-117,.cls-118,.cls-119,.cls-120,.cls-121,.cls-122,.cls-123,.cls-124,.cls-125,.cls-126,.cls-127,.cls-128,.cls-129,.cls-130,.cls-131,.cls-132,.cls-133,.cls-134,.cls-135,.cls-136,.cls-137,.cls-138,.cls-139,.cls-14,.cls-140,.cls-141,.cls-142,.cls-15,.cls-16,.cls-17,.cls-18,.cls-19,.cls-20,.cls-22,.cls-23,.cls-24,.cls-25,.cls-26,.cls-27,.cls-28,.cls-42,.cls-43,.cls-44,.cls-45,.cls-46,.cls-47,.cls-48,.cls-49,.cls-64,.cls-65,.cls-66,.cls-67,.cls-68,.cls-69,.cls-70,.cls-71,.cls-72,.cls-73,.cls-74,.cls-75,.cls-76,.cls-77,.cls-78,.cls-79,.cls-80,.cls-81,.cls-82,.cls-83,.cls-84,.cls-85,.cls-86,.cls-87,.cls-88,.cls-89,.cls-90,.cls-91,.cls-92,.cls-94,.cls-95,.cls-96,.cls-97,.cls-98,.cls-99{mix-blend-mode:screen;}.cls-14{fill:url(#Áåçûìÿííûé_ãðàäèåíò_758);}.cls-15{fill:url(#Áåçûìÿííûé_ãðàäèåíò_758-2);}.cls-16{fill:url(#Áåçûìÿííûé_ãðàäèåíò_758-3);}.cls-17{fill:url(#Áåçûìÿííûé_ãðàäèåíò_758-4);}.cls-18{fill:url(#Áåçûìÿííûé_ãðàäèåíò_758-5);}.cls-19{fill:url(#Áåçûìÿííûé_ãðàäèåíò_758-6);}.cls-20{fill:url(#Áåçûìÿííûé_ãðàäèåíò_758-7);}.cls-21{fill:url(#Áåçûìÿííûé_ãðàäèåíò_392);}.cls-22{fill:url(#Áåçûìÿííûé_ãðàäèåíò_312);}.cls-23{fill:url(#Áåçûìÿííûé_ãðàäèåíò_312-2);}.cls-24{fill:url(#Áåçûìÿííûé_ãðàäèåíò_312-3);}.cls-25{fill:url(#Áåçûìÿííûé_ãðàäèåíò_312-4);}.cls-26{fill:url(#Áåçûìÿííûé_ãðàäèåíò_312-5);}.cls-27{fill:url(#Áåçûìÿííûé_ãðàäèåíò_312-6);}.cls-28{fill:url(#Áåçûìÿííûé_ãðàäèåíò_312-7);}.cls-29,.cls-30,.cls-31,.cls-32,.cls-33,.cls-34,.cls-35,.cls-36,.cls-37,.cls-50,.cls-51,.cls-52,.cls-53,.cls-54,.cls-55,.cls-58,.cls-59,.cls-60,.cls-61,.cls-62,.cls-63{opacity:0.44;}.cls-29{fill:url(#Áåçûìÿííûé_ãðàäèåíò_420);}.cls-30{fill:url(#Áåçûìÿííûé_ãðàäèåíò_416);}.cls-31{fill:url(#Áåçûìÿííûé_ãðàäèåíò_414);}.cls-32{fill:url(#Áåçûìÿííûé_ãðàäèåíò_414-2);}.cls-33{fill:url(#Áåçûìÿííûé_ãðàäèåíò_414-3);}.cls-34{fill:url(#Áåçûìÿííûé_ãðàäèåíò_414-4);}.cls-35{fill:url(#Áåçûìÿííûé_ãðàäèåíò_414-5);}.cls-36{fill:url(#Áåçûìÿííûé_ãðàäèåíò_414-6);}.cls-37{fill:url(#Áåçûìÿííûé_ãðàäèåíò_414-7);}.cls-38{fill:url(#Áåçûìÿííûé_ãðàäèåíò_373-8);}.cls-39{fill:url(#Áåçûìÿííûé_ãðàäèåíò_373-9);}.cls-40{fill:url(#Áåçûìÿííûé_ãðàäèåíò_373-10);}.cls-41{fill:url(#Áåçûìÿííûé_ãðàäèåíò_373-11);}.cls-42{fill:url(#Áåçûìÿííûé_ãðàäèåíò_758-8);}.cls-43{fill:url(#Áåçûìÿííûé_ãðàäèåíò_758-9);}.cls-44{fill:url(#Áåçûìÿííûé_ãðàäèåíò_758-10);}.cls-45{fill:url(#Áåçûìÿííûé_ãðàäèåíò_758-11);}.cls-46{fill:url(#Áåçûìÿííûé_ãðàäèåíò_312-8);}.cls-47{fill:url(#Áåçûìÿííûé_ãðàäèåíò_312-9);}.cls-48{fill:url(#Áåçûìÿííûé_ãðàäèåíò_312-10);}.cls-49{fill:url(#Áåçûìÿííûé_ãðàäèåíò_312-11);}.cls-50{fill:url(#Áåçûìÿííûé_ãðàäèåíò_414-8);}.cls-51{fill:url(#Áåçûìÿííûé_ãðàäèåíò_421);}.cls-52{fill:url(#Áåçûìÿííûé_ãðàäèåíò_418);}.cls-53{fill:url(#Áåçûìÿííûé_ãðàäèåíò_418-2);}.cls-54{fill:url(#Áåçûìÿííûé_ãðàäèåíò_418-3);}.cls-55{fill:url(#Áåçûìÿííûé_ãðàäèåíò_418-4);}.cls-56{fill:url(#Áåçûìÿííûé_ãðàäèåíò_606);}.cls-57{fill:#fff;}.cls-58{fill:url(#Áåçûìÿííûé_ãðàäèåíò_418-5);}.cls-59{fill:url(#Áåçûìÿííûé_ãðàäèåíò_418-6);}.cls-60{fill:url(#Áåçûìÿííûé_ãðàäèåíò_418-7);}.cls-61{fill:url(#Áåçûìÿííûé_ãðàäèåíò_418-8);}.cls-62{fill:url(#Áåçûìÿííûé_ãðàäèåíò_418-9);}.cls-63{fill:url(#Áåçûìÿííûé_ãðàäèåíò_418-10);}.cls-64{fill:url(#Áåçûìÿííûé_ãðàäèåíò_598);}.cls-65{fill:url(#Áåçûìÿííûé_ãðàäèåíò_598-2);}.cls-66{fill:url(#Áåçûìÿííûé_ãðàäèåíò_598-3);}.cls-67{fill:url(#Áåçûìÿííûé_ãðàäèåíò_598-4);}.cls-68{fill:url(#Áåçûìÿííûé_ãðàäèåíò_598-5);}.cls-69{fill:url(#Áåçûìÿííûé_ãðàäèåíò_598-6);}.cls-70{fill:url(#radial-gradient);}.cls-71{fill:url(#radial-gradient-2);}.cls-72{fill:url(#radial-gradient-3);}.cls-73{fill:url(#radial-gradient-4);}.cls-74{fill:url(#radial-gradient-5);}.cls-75{fill:url(#radial-gradient-6);}.cls-76{fill:url(#radial-gradient-7);}.cls-77{fill:url(#radial-gradient-8);}.cls-78{fill:url(#radial-gradient-9);}.cls-79{fill:url(#radial-gradient-10);}.cls-80{fill:url(#radial-gradient-11);}.cls-81{fill:url(#radial-gradient-12);}.cls-82{fill:url(#radial-gradient-13);}.cls-83{fill:url(#radial-gradient-14);}.cls-84{fill:url(#radial-gradient-15);}.cls-85{fill:url(#radial-gradient-16);}.cls-86{fill:url(#radial-gradient-17);}.cls-87{fill:url(#radial-gradient-18);}.cls-88{fill:url(#radial-gradient-19);}.cls-89{fill:url(#radial-gradient-20);}.cls-90{fill:url(#radial-gradient-21);}.cls-91{fill:url(#radial-gradient-22);}.cls-92{fill:url(#radial-gradient-23);}.cls-93{opacity:0.4;}.cls-94{fill:url(#radial-gradient-24);}.cls-95{fill:url(#radial-gradient-25);}.cls-96{fill:url(#radial-gradient-26);}.cls-97{fill:url(#radial-gradient-27);}.cls-98{fill:url(#radial-gradient-28);}.cls-99{fill:url(#radial-gradient-29);}.cls-100{fill:url(#radial-gradient-30);}.cls-101{fill:url(#radial-gradient-31);}.cls-102{fill:url(#radial-gradient-32);}.cls-103{fill:url(#radial-gradient-33);}.cls-104{fill:url(#radial-gradient-34);}.cls-105{fill:url(#radial-gradient-35);}.cls-106{fill:url(#radial-gradient-36);}.cls-107{fill:url(#radial-gradient-37);}.cls-108{fill:url(#radial-gradient-38);}.cls-109{fill:url(#radial-gradient-39);}.cls-110{fill:url(#radial-gradient-40);}.cls-111{fill:url(#radial-gradient-41);}.cls-112{fill:url(#radial-gradient-42);}.cls-113{fill:url(#radial-gradient-43);}.cls-114{fill:url(#radial-gradient-44);}.cls-115{fill:url(#radial-gradient-45);}.cls-116{fill:url(#radial-gradient-46);}.cls-117{fill:url(#radial-gradient-47);}.cls-118{fill:url(#radial-gradient-48);}.cls-119{fill:url(#radial-gradient-49);}.cls-120{fill:url(#radial-gradient-50);}.cls-121{fill:url(#radial-gradient-51);}.cls-122{fill:url(#radial-gradient-52);}.cls-123{fill:url(#radial-gradient-53);}.cls-124{fill:url(#radial-gradient-54);}.cls-125{fill:url(#radial-gradient-55);}.cls-126{fill:url(#radial-gradient-56);}.cls-127{fill:url(#radial-gradient-57);}.cls-128{fill:url(#radial-gradient-58);}.cls-129{fill:url(#radial-gradient-59);}.cls-130{fill:url(#radial-gradient-60);}.cls-131{fill:url(#radial-gradient-61);}.cls-132{fill:url(#radial-gradient-62);}.cls-133{fill:url(#radial-gradient-63);}.cls-134{fill:url(#radial-gradient-64);}.cls-135{fill:url(#radial-gradient-65);}.cls-136{fill:url(#radial-gradient-66);}.cls-137{fill:url(#radial-gradient-67);}.cls-138{fill:url(#radial-gradient-68);}.cls-139{fill:url(#radial-gradient-69);}.cls-140{fill:url(#radial-gradient-70);}.cls-141{fill:url(#radial-gradient-71);}.cls-142{fill:url(#radial-gradient-72);}</style><linearGradient id="Áåçûìÿííûé_ãðàäèåíò_391" x1="357.982" y1="375.407" x2="895.349" y2="1382.673" gradientUnits="userSpaceOnUse"><stop offset="0.178" stop-color="#ff60ff"/><stop offset="0.186" stop-color="#f95bfc"/><stop offset="0.235" stop-color="#da43ea"/><stop offset="0.291" stop-color="#be2edb"/><stop offset="0.354" stop-color="#a81dcf"/><stop offset="0.428" stop-color="#9710c5"/><stop offset="0.518" stop-color="#8c07bf"/><stop offset="0.646" stop-color="#8501bb"/><stop offset="1" stop-color="#8300ba"/></linearGradient><linearGradient id="Áåçûìÿííûé_ãðàäèåíò_1086" x1="256.197" y1="951.238" x2="556.047" y2="1513.291" gradientUnits="userSpaceOnUse"><stop offset="0" stop-color="#ff60ff"/><stop offset="0.133" stop-color="#dd46ec"/><stop offset="0.291" stop-color="#bd2dda"/><stop offset="0.454" stop-color="#a319cc"/><stop offset="0.622" stop-color="#910bc2"/><stop offset="0.799" stop-color="#8603bc"/><stop offset="1" stop-color="#8300ba"/></linearGradient><linearGradient id="Áåçûìÿííûé_ãðàäèåíò_387" x1="353.319" y1="1410.386" x2="353.319" y2="921.256" gradientUnits="userSpaceOnUse"><stop offset="0" stop-color="#003f4f"/><stop offset="0.291" stop-color="#0c515e"/><stop offset="0.857" stop-color="#297e85"/></linearGradient><linearGradient id="Áåçûìÿííûé_ãðàäèåíò_373" x1="461.172" y1="915.395" x2="556.987" y2="1011.209" gradientUnits="userSpaceOnUse"><stop offset="0" stop-color="#fff"/><stop offset="1" stop-color="#2f0253"/></linearGradient><linearGradient id="Áåçûìÿííûé_ãðàäèåíò_373-2" x1="480.351" y1="703.353" x2="516.849" y2="739.852" xlink:href="#Áåçûìÿííûé_ãðàäèåíò_373"/><linearGradient id="Áåçûìÿííûé_ãðàäèåíò_373-3" x1="514.109" y1="760.525" x2="536.381" y2="782.798" xlink:href="#Áåçûìÿííûé_ãðàäèåíò_373"/><linearGradient id="Áåçûìÿííûé_ãðàäèåíò_373-4" x1="525.402" y1="496.52" x2="676.244" y2="647.362" xlink:href="#Áåçûìÿííûé_ãðàäèåíò_373"/><linearGradient id="Áåçûìÿííûé_ãðàäèåíò_373-5" x1="391.381" y1="648.028" x2="453.801" y2="710.448" xlink:href="#Áåçûìÿííûé_ãðàäèåíò_373"/><linearGradient id="Áåçûìÿííûé_ãðàäèåíò_373-6" x1="753.571" y1="891.476" x2="958.973" y2="1096.878" xlink:href="#Áåçûìÿííûé_ãðàäèåíò_373"/><linearGradient id="Áåçûìÿííûé_ãðàäèåíò_373-7" x1="545.941" y1="1177.369" x2="782.146" y2="1413.574" xlink:href="#Áåçûìÿííûé_ãðàäèåíò_373"/><linearGradient id="Áåçûìÿííûé_ãðàäèåíò_758" x1="426.702" y1="391.521" x2="631.066" y2="595.885" gradientUnits="userSpaceOnUse"><stop offset="0" stop-color="#ff7cb3"/><stop offset="0.691"/></linearGradient><linearGradient id="Áåçûìÿííûé_ãðàäèåíò_758-2" x1="598.547" y1="697.797" x2="833.956" y2="933.206" xlink:href="#Áåçûìÿííûé_ãðàäèåíò_758"/><linearGradient id="Áåçûìÿííûé_ãðàäèåíò_758-3" x1="491.411" y1="685.599" x2="517.597" y2="711.785" xlink:href="#Áåçûìÿííûé_ãðàäèåíò_758"/><linearGradient id="Áåçûìÿííûé_ãðàäèåíò_758-4" x1="516.032" y1="744.373" x2="535.501" y2="763.842" xlink:href="#Áåçûìÿííûé_ãðàäèåíò_758"/><linearGradient id="Áåçûìÿííûé_ãðàäèåíò_758-5" x1="513.877" y1="1026.702" x2="746.189" y2="1259.015" xlink:href="#Áåçûìÿííûé_ãðàäèåíò_758"/><linearGradient id="Áåçûìÿííûé_ãðàäèåíò_758-6" x1="343.692" y1="770.813" x2="530.755" y2="957.877" xlink:href="#Áåçûìÿííûé_ãðàäèåíò_758"/><linearGradient id="Áåçûìÿííûé_ãðàäèåíò_758-7" x1="350.658" y1="502.302" x2="484.662" y2="636.307" xlink:href="#Áåçûìÿííûé_ãðàäèåíò_758"/><linearGradient id="Áåçûìÿííûé_ãðàäèåíò_392" x1="610.766" y1="1283.537" x2="610.766" y2="239.928" gradientUnits="userSpaceOnUse"><stop offset="0.148" stop-color="#003f4f"/><stop offset="0.339" stop-color="#084b5a"/><stop offset="0.687" stop-color="#1d6c75"/><stop offset="0.857" stop-color="#297e85"/></linearGradient><linearGradient id="Áåçûìÿííûé_ãðàäèåíò_312" x1="400.068" y1="459.628" x2="512.498" y2="572.058" gradientUnits="userSpaceOnUse"><stop offset="0" stop-color="#ff7"/><stop offset="0.113" stop-color="#caca5e"/><stop offset="0.241" stop-color="#959545"/><stop offset="0.37" stop-color="#676730"/><stop offset="0.499" stop-color="#42421f"/><stop offset="0.627" stop-color="#252511"/><stop offset="0.753" stop-color="#101008"/><stop offset="0.878" stop-color="#040402"/><stop offset="1"/></linearGradient><linearGradient id="Áåçûìÿííûé_ãðàäèåíò_312-2" x1="445.231" y1="374.858" x2="593.583" y2="523.21" xlink:href="#Áåçûìÿííûé_ãðàäèåíò_312"/><linearGradient id="Áåçûìÿííûé_ãðàäèåíò_312-3" x1="616.268" y1="685.222" x2="809.11" y2="878.064" xlink:href="#Áåçûìÿííûé_ãðàäèåíò_312"/><linearGradient id="Áåçûìÿííûé_ãðàäèåíò_312-4" x1="352.844" y1="770.101" x2="451.791" y2="869.048" xlink:href="#Áåçûìÿííûé_ãðàäèåíò_312"/><linearGradient id="Áåçûìÿííûé_ãðàäèåíò_312-5" x1="499.443" y1="681.665" x2="522.724" y2="704.946" xlink:href="#Áåçûìÿííûé_ãðàäèåíò_312"/><linearGradient id="Áåçûìÿííûé_ãðàäèåíò_312-6" x1="520.518" y1="741.818" x2="535.37" y2="756.67" xlink:href="#Áåçûìÿííûé_ãðàäèåíò_312"/><linearGradient id="Áåçûìÿííûé_ãðàäèåíò_312-7" x1="533.506" y1="1013.937" x2="674.242" y2="1154.673" xlink:href="#Áåçûìÿííûé_ãðàäèåíò_312"/><linearGradient id="Áåçûìÿííûé_ãðàäèåíò_420" x1="610.766" y1="1550.399" x2="610.766" y2="200.137" gradientUnits="userSpaceOnUse"><stop offset="0" stop-color="#2e1d68"/><stop offset="0.127" stop-color="#61558d"/><stop offset="0.306" stop-color="#a49dbe"/><stop offset="0.455" stop-color="#d5d2e1"/><stop offset="0.566" stop-color="#f4f3f7"/><stop offset="0.627" stop-color="#fff"/></linearGradient><linearGradient id="Áåçûìÿííûé_ãðàäèåíò_416" x1="580.592" y1="340.341" x2="425.111" y2="197.17" gradientUnits="userSpaceOnUse"><stop offset="0.393" stop-color="#fff"/><stop offset="0.452" stop-color="#f4f3f7"/><stop offset="0.56" stop-color="#d5d2e1"/><stop offset="0.704" stop-color="#a49dbe"/><stop offset="0.877" stop-color="#61558d"/><stop offset="1" stop-color="#2e1d68"/></linearGradient><linearGradient id="Áåçûìÿííûé_ãðàäèåíò_414" x1="589.008" y1="687.612" x2="589.008" y2="381.777" gradientUnits="userSpaceOnUse"><stop offset="0" stop-color="#2e1d68"/><stop offset="0.203" stop-color="#61558d"/><stop offset="0.488" stop-color="#a49dbe"/><stop offset="0.725" stop-color="#d5d2e1"/><stop offset="0.903" stop-color="#f4f3f7"/><stop offset="1" stop-color="#fff"/></linearGradient><linearGradient id="Áåçûìÿííûé_ãðàäèåíò_414-2" x1="415.106" y1="759.859" x2="415.106" y2="608.405" xlink:href="#Áåçûìÿííûé_ãðàäèåíò_414"/><linearGradient id="Áåçûìÿííûé_ãðàäèåíò_414-3" x1="525.724" y1="797.314" x2="525.724" y2="763.355" xlink:href="#Áåçûìÿííûé_ãðàäèåíò_414"/><linearGradient id="Áåçûìÿííûé_ãðàäèåíò_414-4" x1="733.786" y1="1222.529" x2="733.786" y2="796.277" xlink:href="#Áåçûìÿííûé_ãðàäèåíò_414"/><linearGradient id="Áåçûìÿííûé_ãðàäèåíò_414-5" x1="711.472" y1="1540.11" x2="711.472" y2="1246.69" xlink:href="#Áåçûìÿííûé_ãðàäèåíò_414"/><linearGradient id="Áåçûìÿííûé_ãðàäèåíò_414-6" x1="493.049" y1="1066.443" x2="493.049" y2="916.333" xlink:href="#Áåçûìÿííûé_ãðàäèåíò_414"/><linearGradient id="Áåçûìÿííûé_ãðàäèåíò_414-7" x1="502.684" y1="759.975" x2="502.684" y2="692.838" xlink:href="#Áåçûìÿííûé_ãðàäèåíò_414"/><linearGradient id="Áåçûìÿííûé_ãðàäèåíò_373-8" x1="521.525" y1="1380.946" x2="636.602" y2="1496.023" xlink:href="#Áåçûìÿííûé_ãðàäèåíò_373"/><linearGradient id="Áåçûìÿííûé_ãðàäèåíò_373-9" x1="473.396" y1="1248.582" x2="635.151" y2="1410.336" xlink:href="#Áåçûìÿííûé_ãðàäèåíò_373"/><linearGradient id="Áåçûìÿííûé_ãðàäèåíò_373-10" x1="372.151" y1="1084.244" x2="426.112" y2="1138.205" xlink:href="#Áåçûìÿííûé_ãðàäèåíò_373"/><linearGradient id="Áåçûìÿííûé_ãðàäèåíò_373-11" x1="314.269" y1="1180.836" x2="428.371" y2="1294.938" xlink:href="#Áåçûìÿííûé_ãðàäèåíò_373"/><linearGradient id="Áåçûìÿííûé_ãðàäèåíò_758-8" x1="307.346" y1="1033.659" x2="390.472" y2="1116.786" xlink:href="#Áåçûìÿííûé_ãðàäèåíò_758"/><linearGradient id="Áåçûìÿííûé_ãðàäèåíò_758-9" x1="194.372" y1="1054.941" x2="380.911" y2="1241.481" xlink:href="#Áåçûìÿííûé_ãðàäèåíò_758"/><linearGradient id="Áåçûìÿííûé_ãðàäèåíò_758-10" x1="420.546" y1="1294.305" x2="548.532" y2="1422.29" xlink:href="#Áåçûìÿííûé_ãðàäèåíò_758"/><linearGradient id="Áåçûìÿííûé_ãðàäèåíò_758-11" x1="414.123" y1="1152.099" x2="547.608" y2="1285.584" xlink:href="#Áåçûìÿííûé_ãðàäèåíò_758"/><linearGradient id="Áåçûìÿííûé_ãðàäèåíò_312-8" x1="211.253" y1="1041.587" x2="347.389" y2="1177.723" xlink:href="#Áåçûìÿííûé_ãðàäèåíò_312"/><linearGradient id="Áåçûìÿííûé_ãðàäèåíò_312-9" x1="309.288" y1="1034.197" x2="377.981" y2="1102.89" xlink:href="#Áåçûìÿííûé_ãðàäèåíò_312"/><linearGradient id="Áåçûìÿííûé_ãðàäèåíò_312-10" x1="426.697" y1="1143.834" x2="548.446" y2="1265.582" xlink:href="#Áåçûìÿííûé_ãðàäèåíò_312"/><linearGradient id="Áåçûìÿííûé_ãðàäèåíò_312-11" x1="419.831" y1="1297.539" x2="482.491" y2="1360.199" xlink:href="#Áåçûìÿííûé_ãðàäèåíò_312"/><linearGradient id="Áåçûìÿííûé_ãðàäèåíò_414-8" x1="91.443" y1="944.73" x2="191.16" y2="944.73" xlink:href="#Áåçûìÿííûé_ãðàäèåíò_414"/><linearGradient id="Áåçûìÿííûé_ãðàäèåíò_421" x1="207.777" y1="1259.389" x2="558.865" y2="1259.389" gradientUnits="userSpaceOnUse"><stop offset="0.373" stop-color="#fff"/><stop offset="0.434" stop-color="#f4f3f7"/><stop offset="0.545" stop-color="#d5d2e1"/><stop offset="0.694" stop-color="#a49dbe"/><stop offset="0.873" stop-color="#61558d"/><stop offset="1" stop-color="#2e1d68"/></linearGradient><linearGradient id="Áåçûìÿííûé_ãðàäèåíò_418" x1="609.171" y1="1422.576" x2="626.425" y2="1422.576" gradientUnits="userSpaceOnUse"><stop offset="0" stop-color="#fff"/><stop offset="0.097" stop-color="#f4f3f7"/><stop offset="0.275" stop-color="#d5d2e1"/><stop offset="0.512" stop-color="#a49dbe"/><stop offset="0.797" stop-color="#61558d"/><stop offset="1" stop-color="#2e1d68"/></linearGradient><linearGradient id="Áåçûìÿííûé_ãðàäèåíò_418-2" x1="266.706" y1="1168.275" x2="466.441" y2="1168.275" xlink:href="#Áåçûìÿííûé_ãðàäèåíò_418"/><linearGradient id="Áåçûìÿííûé_ãðàäèåíò_418-3" x1="472.904" y1="1420.585" x2="631.635" y2="1420.585" xlink:href="#Áåçûìÿííûé_ãðàäèåíò_418"/><linearGradient id="Áåçûìÿííûé_ãðàäèåíò_418-4" x1="393.169" y1="1117.218" x2="438.966" y2="1117.218" xlink:href="#Áåçûìÿííûé_ãðàäèåíò_418"/><linearGradient id="Áåçûìÿííûé_ãðàäèåíò_606" x1="583.85" y1="1570.766" x2="583.85" y2="1106.407" gradientUnits="userSpaceOnUse"><stop offset="0" stop-color="#003f4f"/><stop offset="0.108" stop-color="#0c515e"/><stop offset="0.317" stop-color="#297e85"/></linearGradient><linearGradient id="Áåçûìÿííûé_ãðàäèåíò_418-5" x1="1026.749" y1="1125.186" x2="1026.749" y2="967.722" xlink:href="#Áåçûìÿííûé_ãðàäèåíò_418"/><linearGradient id="Áåçûìÿííûé_ãðàäèåíò_418-6" x1="1075.099" y1="1073.639" x2="1075.099" y2="1026.628" xlink:href="#Áåçûìÿííûé_ãðàäèåíò_418"/><linearGradient id="Áåçûìÿííûé_ãðàäèåíò_418-7" x1="705.279" y1="1621.373" x2="705.279" y2="1558.206" xlink:href="#Áåçûìÿííûé_ãðàäèåíò_418"/><linearGradient id="Áåçûìÿííûé_ãðàäèåíò_418-8" x1="586.32" y1="1598.129" x2="586.32" y2="1551.264" xlink:href="#Áåçûìÿííûé_ãðàäèåíò_418"/><linearGradient id="Áåçûìÿííûé_ãðàäèåíò_418-9" x1="389.398" y1="1460.023" x2="389.398" y2="1279.81" xlink:href="#Áåçûìÿííûé_ãðàäèåíò_418"/><linearGradient id="Áåçûìÿííûé_ãðàäèåíò_418-10" x1="650.734" y1="1602.483" x2="650.734" y2="1411.053" xlink:href="#Áåçûìÿííûé_ãðàäèåíò_418"/><linearGradient id="Áåçûìÿííûé_ãðàäèåíò_598" x1="358.346" y1="1533.329" x2="358.346" y2="1444.02" gradientUnits="userSpaceOnUse"><stop offset="0"/><stop offset="1" stop-color="#ff0054"/></linearGradient><linearGradient id="Áåçûìÿííûé_ãðàäèåíò_598-2" x1="568.598" y1="1502.314" x2="568.598" y2="1390.534" xlink:href="#Áåçûìÿííûé_ãðàäèåíò_598"/><linearGradient id="Áåçûìÿííûé_ãðàäèåíò_598-3" x1="933.438" y1="1437.346" x2="933.438" y2="1212.284" xlink:href="#Áåçûìÿííûé_ãðàäèåíò_598"/><linearGradient id="Áåçûìÿííûé_ãðàäèåíò_598-4" x1="708.871" y1="1502.314" x2="708.871" y2="1297.951" xlink:href="#Áåçûìÿííûé_ãðàäèåíò_598"/><linearGradient id="Áåçûìÿííûé_ãðàäèåíò_598-5" x1="880.044" y1="1528.577" x2="880.044" y2="1414.351" xlink:href="#Áåçûìÿííûé_ãðàäèåíò_598"/><linearGradient id="Áåçûìÿííûé_ãðàäèåíò_598-6" x1="332.894" y1="1429.071" x2="332.894" y2="1279.81" xlink:href="#Áåçûìÿííûé_ãðàäèåíò_598"/><radialGradient id="radial-gradient" cx="1086.557" cy="1105.095" r="222.717" gradientTransform="matrix(0.715, 0, 0, 1, -202.335, -590.975)" gradientUnits="userSpaceOnUse"><stop offset="0" stop-color="red"/><stop offset="0.065" stop-color="#e70000" stop-opacity="0.906"/><stop offset="0.266" stop-color="#a20000" stop-opacity="0.635"/><stop offset="0.456" stop-color="#680000" stop-opacity="0.408"/><stop offset="0.629" stop-color="#3b0000" stop-opacity="0.232"/><stop offset="0.783" stop-color="#1b0000" stop-opacity="0.105"/><stop offset="0.912" stop-color="#070000" stop-opacity="0.028"/><stop offset="1" stop-opacity="0"/></radialGradient><radialGradient id="radial-gradient-2" cx="1208.911" cy="429.778" r="222.718" gradientTransform="matrix(0, 0.512, -1, 0, 882.877, 6.431)" xlink:href="#radial-gradient"/><radialGradient id="radial-gradient-3" cx="566.085" cy="1313.489" r="222.722" gradientTransform="matrix(0.838, 0, 0, 1, -24.518, -440.098)" xlink:href="#radial-gradient"/><radialGradient id="radial-gradient-4" cx="459.494" cy="1178.095" r="222.716" gradientTransform="matrix(1.225, 0, 0, 2.115, 170.725, -1653.31)" xlink:href="#radial-gradient"/><radialGradient id="radial-gradient-5" cx="280.011" cy="1375.573" r="137.421" gradientTransform="matrix(1.225, 0, 0, 1.709, 310.747, -1188.472)" xlink:href="#radial-gradient"/><radialGradient id="radial-gradient-6" cx="42.87" cy="1281.6" r="117.707" gradientTransform="matrix(1.225, 0, 0, 1.709, 269.43, -1037.825)" xlink:href="#radial-gradient"/><radialGradient id="radial-gradient-7" cx="468.364" cy="1396.299" r="117.706" gradientTransform="matrix(0.808, 0, 0, 1.709, 136.571, -1113.55)" xlink:href="#radial-gradient"/><radialGradient id="radial-gradient-8" cx="-165.848" cy="1582.467" r="76.885" gradientTransform="matrix(0.808, 0, 0, 1.709, 624.454, -1358.875)" xlink:href="#radial-gradient"/><radialGradient id="radial-gradient-9" cx="10.593" cy="1443.798" r="76.885" gradientTransform="matrix(0.808, 0, 0, 1.709, 363.442, -1371.864)" xlink:href="#radial-gradient"/><radialGradient id="radial-gradient-10" cx="431.012" cy="647.175" r="75.396" gradientTransform="translate(583.863 -115.219) rotate(45)" gradientUnits="userSpaceOnUse"><stop offset="0" stop-color="red"/><stop offset="0.062" stop-color="#db0000" stop-opacity="0.858"/><stop offset="0.159" stop-color="#a80000" stop-opacity="0.659"/><stop offset="0.262" stop-color="#7b0000" stop-opacity="0.483"/><stop offset="0.367" stop-color="#500" stop-opacity="0.334"/><stop offset="0.476" stop-color="#360000" stop-opacity="0.213"/><stop offset="0.589" stop-color="#1e0000" stop-opacity="0.119"/><stop offset="0.708" stop-color="#0d0000" stop-opacity="0.052"/><stop offset="0.839" stop-color="#030000" stop-opacity="0.013"/><stop offset="1" stop-opacity="0"/></radialGradient><radialGradient id="radial-gradient-11" cx="629.515" cy="464.867" r="75.396" gradientTransform="translate(513.091 -308.978) rotate(45)" xlink:href="#radial-gradient-10"/><radialGradient id="radial-gradient-12" cx="679.111" cy="596.035" r="75.396" gradientTransform="translate(620.367 -305.629) rotate(45)" xlink:href="#radial-gradient-10"/><radialGradient id="radial-gradient-13" cx="557.451" cy="751.873" r="75.396" gradientTransform="translate(694.928 -173.959) rotate(45)" xlink:href="#radial-gradient-10"/><radialGradient id="radial-gradient-14" cx="874.502" cy="1035.951" r="75.396" gradientTransform="translate(988.664 -314.943) rotate(45)" xlink:href="#radial-gradient-10"/><radialGradient id="radial-gradient-15" cx="664.858" cy="1196.376" r="75.396" gradientTransform="matrix(1, 0, 0, 1, 0, 0)" xlink:href="#radial-gradient-10"/><radialGradient id="radial-gradient-16" cx="559.784" cy="1323.301" r="75.396" gradientTransform="translate(1719.074 474.459) rotate(76.717)" xlink:href="#radial-gradient-10"/><radialGradient id="radial-gradient-17" cx="389.398" cy="1249.823" r="75.396" gradientTransform="translate(997.81 90.719) rotate(45)" xlink:href="#radial-gradient-10"/><radialGradient id="radial-gradient-18" cx="297.145" cy="1157.926" r="75.396" gradientTransform="translate(905.809 129.036) rotate(45)" xlink:href="#radial-gradient-10"/><radialGradient id="radial-gradient-19" cx="332.894" cy="1075.648" r="75.396" gradientTransform="translate(858.1 79.658) rotate(45)" xlink:href="#radial-gradient-10"/><radialGradient id="radial-gradient-20" cx="253.772" cy="1024.44" r="75.396" gradientTransform="translate(1192.502 542.089) rotate(76.717)" xlink:href="#radial-gradient-10"/><radialGradient id="radial-gradient-21" cx="189.438" cy="852.981" r="75.396" gradientTransform="translate(976.077 472.635) rotate(76.717)" xlink:href="#radial-gradient-10"/><radialGradient id="radial-gradient-22" cx="366.573" cy="721.349" r="75.396" gradientTransform="translate(617.438 -47.928) rotate(45)" xlink:href="#radial-gradient-10"/><radialGradient id="radial-gradient-23" cx="370.383" cy="737.296" r="75.396" gradientTransform="translate(1002.859 207.425) rotate(76.717)" xlink:href="#radial-gradient-10"/><radialGradient id="radial-gradient-24" cx="249.961" cy="669.421" r="75.396" gradientTransform="translate(546.564 19.319) rotate(45)" xlink:href="#radial-gradient-10"/><radialGradient id="radial-gradient-25" cx="336.704" cy="354.618" r="75.396" gradientTransform="translate(604.477 -54.554) rotate(76.717)" xlink:href="#radial-gradient-10"/><radialGradient id="radial-gradient-26" cx="464.333" cy="370.193" r="75.396" gradientTransform="translate(397.766 -219.906) rotate(45)" xlink:href="#radial-gradient-10"/><radialGradient id="radial-gradient-27" cx="502.666" cy="430.902" r="75.396" gradientTransform="translate(451.921 -229.23) rotate(45)" xlink:href="#radial-gradient-10"/><radialGradient id="radial-gradient-28" cx="594.799" cy="132.945" r="75.396" gradientTransform="translate(268.219 -381.648) rotate(45)" xlink:href="#radial-gradient-10"/><radialGradient id="radial-gradient-29" cx="565.166" cy="129.135" r="75.396" gradientTransform="translate(256.845 -361.81) rotate(45)" xlink:href="#radial-gradient-10"/><radialGradient id="radial-gradient-30" cx="478.587" cy="301.155" r="75.396" gradientTransform="matrix(1, 0, 0, 1, 0, 0)" xlink:href="#radial-gradient-10"/><radialGradient id="radial-gradient-31" cx="598.609" cy="368.694" r="75.396" gradientTransform="matrix(1, 0, 0, 1, 0, 0)" xlink:href="#radial-gradient-10"/><radialGradient id="radial-gradient-32" cx="679.111" cy="834.64" r="75.396" gradientTransform="translate(1335.396 -18.064) rotate(76.717)" xlink:href="#radial-gradient-10"/><radialGradient id="radial-gradient-33" cx="770.949" cy="876.359" r="75.396" gradientTransform="translate(1446.737 -75.312) rotate(76.717)" xlink:href="#radial-gradient-10"/><radialGradient id="radial-gradient-34" cx="733.786" cy="964.576" r="75.396" gradientTransform="matrix(1, 0, 0, 1, 0, 0)" xlink:href="#radial-gradient-10"/><radialGradient id="radial-gradient-35" cx="609.171" cy="1045.066" r="75.396" gradientTransform="translate(917.395 -124.656) rotate(45)" xlink:href="#radial-gradient-10"/><radialGradient id="radial-gradient-36" cx="421.457" cy="967.722" r="75.396" gradientTransform="translate(807.725 -14.576) rotate(45)" xlink:href="#radial-gradient-10"/><radialGradient id="radial-gradient-37" cx="785.682" cy="671.431" r="75.396" gradientTransform="translate(704.894 -358.904) rotate(45)" xlink:href="#radial-gradient-10"/><radialGradient id="radial-gradient-38" cx="955.158" cy="786.274" r="75.396" gradientTransform="translate(835.739 -445.104) rotate(45)" xlink:href="#radial-gradient-10"/><radialGradient id="radial-gradient-39" cx="958.968" cy="827.269" r="75.396" gradientTransform="translate(1543.781 -296.112) rotate(76.717)" xlink:href="#radial-gradient-10"/><radialGradient id="radial-gradient-40" cx="883.571" cy="633.283" r="75.396" gradientTransform="translate(706.591 -439.295) rotate(45)" xlink:href="#radial-gradient-10"/><radialGradient id="radial-gradient-41" cx="1005.7" cy="461.056" r="75.396" gradientTransform="translate(620.579 -576.097) rotate(45)" xlink:href="#radial-gradient-10"/><radialGradient id="radial-gradient-42" cx="785.682" cy="405.883" r="75.396" gradientTransform="translate(517.123 -436.681) rotate(45)" xlink:href="#radial-gradient-10"/><radialGradient id="radial-gradient-43" cx="752.825" cy="262.486" r="75.396" gradientTransform="translate(406.103 -455.447) rotate(45)" xlink:href="#radial-gradient-10"/><radialGradient id="radial-gradient-44" cx="429.24" cy="832.794" r="35.077" gradientTransform="matrix(1, 0, 0, 1, 0, 0)" xlink:href="#radial-gradient-10"/><radialGradient id="radial-gradient-45" cx="516.869" cy="618.235" r="35.077" gradientTransform="translate(588.546 -184.405) rotate(45)" xlink:href="#radial-gradient-10"/><radialGradient id="radial-gradient-46" cx="445.972" cy="536.453" r="35.077" gradientTransform="matrix(1, 0, 0, 1, 0, 0)" xlink:href="#radial-gradient-10"/><radialGradient id="radial-gradient-47" cx="355.781" cy="600.135" r="35.077" gradientTransform="matrix(1, 0, 0, 1, 0, 0)" xlink:href="#radial-gradient-10"/><radialGradient id="radial-gradient-48" cx="332.894" cy="526.27" r="35.077" gradientTransform="translate(469.632 -81.251) rotate(45)" xlink:href="#radial-gradient-10"/><radialGradient id="radial-gradient-49" cx="346.061" cy="487.212" r="35.077" gradientTransform="translate(445.87 -102.001) rotate(45)" xlink:href="#radial-gradient-10"/><radialGradient id="radial-gradient-50" cx="274.576" cy="464.867" r="35.077" gradientTransform="matrix(1, 0, 0, 1, 0, 0)" xlink:href="#radial-gradient-10"/><radialGradient id="radial-gradient-51" cx="344.288" cy="157.253" r="35.077" gradientTransform="matrix(1, 0, 0, 1, 0, 0)" xlink:href="#radial-gradient-10"/><radialGradient id="radial-gradient-52" cx="433.571" cy="35.077" r="35.077" gradientTransform="translate(151.793 -296.307) rotate(45)" xlink:href="#radial-gradient-10"/><radialGradient id="radial-gradient-53" cx="865.381" cy="354.618" r="35.077" gradientTransform="translate(201.58 -304.173) rotate(22.5)" xlink:href="#radial-gradient-10"/><radialGradient id="radial-gradient-54" cx="740.254" cy="526.27" r="35.077" gradientTransform="translate(257.743 -243.223) rotate(22.5)" xlink:href="#radial-gradient-10"/><radialGradient id="radial-gradient-55" cx="828.221" cy="547.926" r="35.077" gradientTransform="translate(272.727 -275.238) rotate(22.5)" xlink:href="#radial-gradient-10"/><radialGradient id="radial-gradient-56" cx="914.659" cy="889.18" r="35.077" gradientTransform="translate(896.643 -386.327) rotate(45)" xlink:href="#radial-gradient-10"/><radialGradient id="radial-gradient-57" cx="958.968" cy="944.73" r="35.077" gradientTransform="translate(948.9 -401.388) rotate(45)" xlink:href="#radial-gradient-10"/><radialGradient id="radial-gradient-58" cx="883.571" cy="1175.295" r="35.077" gradientTransform="translate(1824.423 45.333) rotate(76.717)" xlink:href="#radial-gradient-10"/><radialGradient id="radial-gradient-59" cx="957.195" cy="1261.541" r="35.077" gradientTransform="translate(2049.12 114.629) rotate(80.783)" xlink:href="#radial-gradient-10"/><radialGradient id="radial-gradient-60" cx="881.799" cy="1353.138" r="35.077" gradientTransform="translate(1996.143 184.04) rotate(76.717)" xlink:href="#radial-gradient-10"/><radialGradient id="radial-gradient-61" cx="829.994" cy="1294.305" r="35.077" gradientTransform="translate(1898.982 189.144) rotate(76.717)" xlink:href="#radial-gradient-10"/><radialGradient id="radial-gradient-62" cx="881.799" cy="1259.768" r="35.077" gradientTransform="translate(1905.271 112.122) rotate(76.717)" xlink:href="#radial-gradient-10"/><radialGradient id="radial-gradient-63" cx="955.158" cy="1452.273" r="35.077" gradientTransform="translate(1306.671 -250.038) rotate(45)" xlink:href="#radial-gradient-10"/><radialGradient id="radial-gradient-64" cx="733.786" cy="1471.464" r="35.077" gradientTransform="translate(1255.403 -87.883) rotate(45)" xlink:href="#radial-gradient-10"/><radialGradient id="radial-gradient-65" cx="721.287" cy="1411.42" r="35.077" gradientTransform="translate(1209.285 -96.631) rotate(45)" xlink:href="#radial-gradient-10"/><radialGradient id="radial-gradient-66" cx="559.784" cy="1465.807" r="35.077" gradientTransform="translate(1857.767 584.224) rotate(76.717)" xlink:href="#radial-gradient-10"/><radialGradient id="radial-gradient-67" cx="410.715" cy="1441.311" r="35.077" gradientTransform="matrix(1, 0, 0, 1, 0, 0)" xlink:href="#radial-gradient-10"/><radialGradient id="radial-gradient-68" cx="326.877" cy="1551.264" r="35.077" gradientTransform="translate(1192.649 223.217) rotate(45)" xlink:href="#radial-gradient-10"/><radialGradient id="radial-gradient-69" cx="279.17" cy="1464.034" r="35.077" gradientTransform="matrix(1, 0, 0, 1, 0, 0)" xlink:href="#radial-gradient-10"/><radialGradient id="radial-gradient-70" cx="326.877" cy="1376.458" r="35.077" gradientTransform="matrix(1, 0, 0, 1, 0, 0)" xlink:href="#radial-gradient-10"/><radialGradient id="radial-gradient-71" cx="239.499" cy="1325.656" r="35.077" gradientTransform="translate(1007.528 218.924) rotate(45)" xlink:href="#radial-gradient-10"/><radialGradient id="radial-gradient-72" cx="130.4" cy="1168.275" r="35.077" gradientTransform="translate(1237.463 772.948) rotate(76.717)" xlink:href="#radial-gradient-10"/></defs><title>plant-2</title><g class="cls-1"><g id="Layer_2" data-name="Layer 2"><g id="plants"><g id="plant-2"><path class="cls-2" d="M651.2,1433.731s14.643-229.695-184.758-337.926S223.036,934.57,241.489,864.548s-9.226-101.35-33.712-73.621,22.356,115.217,39.39,153.8,143.228,113.7,224.988,166.111,161.589,212.122,159.48,345.246,135.138,137.029,150.677,8.433S932.6,898.789,1102.405,860.531C1297.35,816.607,1267.775,980.7,1299,971.364S1299,807.3,1097.437,858.4s-322.122,496.418-322.122,496.418Z"/><path class="cls-3" d="M476.414,328.741c46.614-30.749,121.365,126.528,235.279,207.438s149.045,142.658,193.759,302.35,22.357,240.6-13.84,325.771S670.173,1546.5,670.173,1546.5l-31.939-33s61.748-136.27-84.1-331.094S294.365,865.144,312.463,778.911,388.051,670.32,415.731,539.373,448.734,347,476.414,328.741Z"/><path class="cls-4" d="M213.455,983.316c47.907,37.261,193.759,94.75,228.891,123.495s139.093,164.24,173.532,291.7,4.569,112.849,4.569,112.849S557.324,1404.9,434.894,1353.8s-151.175-72.394-186.307-176.726S213.455,983.316,213.455,983.316Z"/><path class="cls-5" d="M731.734,673.7c12.228,4.085,6.074,47.558-11.944,37.827S719.505,669.619,731.734,673.7Z"/><path class="cls-5" d="M755.783,685.741c9.392-4.566,9.543-12.431,0-12.394S750.112,688.5,755.783,685.741Z"/><path class="cls-5" d="M809.353,1117.071c9.391-4.565,9.543-12.431,0-12.394S803.682,1119.829,809.353,1117.071Z"/><path class="cls-5" d="M776.333,965.084c11.8-5.2,36.473,31.119,16.593,36.031S764.534,970.282,776.333,965.084Z"/><path class="cls-5" d="M481.114,1203.344c11.8-5.2,36.473,31.119,16.593,36.031S469.315,1208.542,481.114,1203.344Z"/><path class="cls-5" d="M802.229,957.825c3.881-9.7-1.3-15.619-8.334-9.175S799.884,963.679,802.229,957.825Z"/><path class="cls-5" d="M265.227,1170.634c11.8-5.2,36.473,31.118,16.593,36.031S253.429,1175.832,265.227,1170.634Z"/><path class="cls-5" d="M291.123,1163.374c3.882-9.694-1.3-15.618-8.333-9.174S288.779,1169.228,291.123,1163.374Z"/><path class="cls-5" d="M382.249,683.332c11.8-5.2,36.473,31.118,16.593,36.031S370.45,688.53,382.249,683.332Z"/><path class="cls-5" d="M408.144,676.072c3.882-9.694-1.294-15.619-8.333-9.174S405.8,681.926,408.144,676.072Z"/><path class="cls-5" d="M543.127,481.568c-2.972-10.424,27.778-12.81,28.82-2.757S546.1,491.992,543.127,481.568Z"/><path class="cls-5" d="M575.544,472.39c7.7-.7,7.87-6.979,2.658-7.5S570.817,472.82,575.544,472.39Z"/><path class="cls-5" d="M673.308,1171.448c-7.5-3.363,1.879-16.914,11.26-10.66S680.811,1174.812,673.308,1171.448Z"/><path class="cls-5" d="M638.437,1162.074c10.424-2.727,11.158-22.011-2.239-17.842S628.013,1164.8,638.437,1162.074Z"/><path class="cls-5" d="M517.3,1256.657c10.424-2.728,11.158-22.012-2.239-17.842S506.882,1259.384,517.3,1256.657Z"/><path class="cls-5" d="M484.4,1355.377c10.424-2.727,11.158-22.011-2.239-17.842S473.976,1358.1,484.4,1355.377Z"/><path class="cls-5" d="M586.98,1165.637c-4.677-7.3,1.76-10.49,5.838-4.724S586.98,1165.637,586.98,1165.637Z"/><path class="cls-5" d="M534.439,1309.528c-4.677-7.3,1.759-10.491,5.838-4.724S534.439,1309.528,534.439,1309.528Z"/><path class="cls-5" d="M740.947,795.793c-14.593-2.606-5.733-22.411,9.381-19.284S755.54,798.4,740.947,795.793Z"/><path class="cls-5" d="M674.368,586.156c-14.593-2.606-5.733-22.411,9.381-19.284S688.961,588.762,674.368,586.156Z"/><path class="cls-5" d="M755.54,755.924c4.17-3.39,8.321,6.758,2.337,9.763S751.371,759.315,755.54,755.924Z"/><path class="cls-5" d="M782.642,791.45c6.775-6.081-1.079-13.9-6.794-11.293S775.867,797.53,782.642,791.45Z"/><path class="cls-5" d="M395.132,834.393c-14.594-2.606-5.733-22.411,9.381-19.284S409.725,837,395.132,834.393Z"/><path class="cls-5" d="M409.725,794.525c4.169-3.391,8.321,6.758,2.336,9.762S405.555,797.915,409.725,794.525Z"/><path class="cls-5" d="M436.827,830.05c6.775-6.081-1.079-13.9-6.794-11.293S430.051,836.13,436.827,830.05Z"/><path class="cls-5" d="M659.277,924.825C648.291,915,667.1,898.244,679.6,904.5S669.179,933.685,659.277,924.825Z"/><path class="cls-5" d="M471.215,614.906c-9.976-4.739-4.884-17.371,3.552-12.033S475.674,617.024,471.215,614.906Z"/><path class="cls-5" d="M455.3,1352.815c-9.976-4.739-4.884-17.371,3.552-12.032S459.757,1354.934,455.3,1352.815Z"/><path class="cls-5" d="M667.846,1283.926c10.161-13.7,29.678,14.494,15.085,22.585S660.058,1294.423,667.846,1283.926Z"/><path class="cls-5" d="M701.567,1300.124c8.5-4.609,13.187,5.015,4.848,9.063S693.071,1304.734,701.567,1300.124Z"/><path class="cls-5" d="M569.568,1324.523c8.5-4.609,13.186,5.015,4.847,9.063S561.072,1329.133,569.568,1324.523Z"/><path class="cls-5" d="M279.764,1084.491c10.161-13.7,29.678,14.494,15.085,22.585S271.976,1094.989,279.764,1084.491Z"/><path class="cls-5" d="M362.154,1077.3c8.5-4.609,13.187,5.015,4.848,9.063S353.658,1081.907,362.154,1077.3Z"/><path class="cls-5" d="M534.171,911.557c4.2,1.771,12.707,16.545-9.1,8.272S511.923,902.176,534.171,911.557Z"/><path class="cls-5" d="M391.88,1101.249c4.2,1.771,12.707,16.545-9.1,8.273S369.633,1091.868,391.88,1101.249Z"/><path class="cls-5" d="M699.561,592.607c4.2,1.77,12.707,16.544-9.1,8.272S677.314,583.225,699.561,592.607Z"/><path class="cls-5" d="M391.061,1224.831c-14.593-2.606-5.733-22.411,9.382-19.284S405.655,1227.437,391.061,1224.831Z"/><path class="cls-5" d="M416.254,1231.282c4.2,1.77,12.707,16.545-9.1,8.272S394.007,1221.9,416.254,1231.282Z"/><path class="cls-5" d="M561.171,537.156c4.2,1.77,12.706,16.545-9.1,8.272S538.923,527.774,561.171,537.156Z"/><path class="cls-6" d="M220.331,1059.131c-10.07-54.523,24.707-45.3,82.2,3.676s142.658,133.94,155.433,184.787S332.776,1314.7,295.3,1271.084c0,0,26.457,47.551,142.469,83.942,0,0-59.741-33.873-14.8-60.844s185.376,130.593,197.487,213.632,25.279-42.323-1.178-96.394c0,0,12.578,55.229-57.687-29.23S432.41,1189.851,434.539,1140.169s74.652,45.744,74.652,45.744-34.842-75.938-95.2-97.038c0,0,21.762,17.226,12.64,47.745S250.879,1026.2,313.964,1039.181c0,0-69.276-35.992-95.362-68.64S191.1,852.014,117.285,842.078s-44,41.165-4.969,89.427-4.968,100.073,25.551,105.751,33.455-41.826-10.646-94.4-11.356-100.783,31.229-69.555,46.133,131.657,51.1,155.433S220.331,1059.131,220.331,1059.131Z"/><path class="cls-7" d="M545.258,990.413c6.361-39.013,9.6-84.827,2.613-125.865,7.7,54.97-68.624,218.805-149.268,113.416,11.077,15.225,23.082,31.21,35.736,47.84C492.944,1090.122,534.616,1055.684,545.258,990.413Z"/><path class="cls-8" d="M477.779,705.925c-7.559,16.56-7.281,34.731,11.942,45.838,15.2,8.78,32.306-15.648,39.262-40.8C514.845,741.606,467.965,727.821,477.779,705.925Z"/><path class="cls-9" d="M524.321,790.621c8.512,2.746,11.757-13.485,11.834-29.63-2.959,16.041-23.554,26.265-19.078-3.434C513.888,771.858,514.141,787.337,524.321,790.621Z"/><path class="cls-10" d="M666.624,648.318c85.879-51.811,52.521-91.557,21.292-124.2-23.475-24.543-55.379-53.5-96.906-93.2-.01-.009,51.483,59.844,48.644,121.591S560.888,673.147,532.2,617.821C568.285,701.841,594.3,691.952,666.624,648.318Z"/><path class="cls-11" d="M421.763,727.1c66.367-29.618,83.97-81.276,81.345-131.064a114.283,114.283,0,0,1-8.951,36.669c-23.246,52.772-167.486,103.618-138.5,51.047-8.058,12.985-15.752,25.386-22.607,38.548C312.575,763.973,343.2,762.159,421.763,727.1Z"/><path class="cls-12" d="M885.934,1071.324c-47.337,107.391-176.756,12.656-177.929,11.795.14.191.279.383.418.574,3.079,3.756,5.91,7.678,8.607,11.685,51.2,68.941,98.443,122.243,113.544,120.733,34.639-3.464,81.745-108.684,83.978-113.713,20.093-66.775,24.857-142.592-9.1-263.869-7.864-28.084-15.435-53.086-23.186-75.748C898.451,813.558,930.332,970.6,885.934,1071.324Z"/><path class="cls-13" d="M762.439,1224.628c-3.353-41.352-15.92-77.251-33.854-109.166,44.347,90.96,11.317,220.515-32.152,219.885-48.972-.71-109.3-122.785-147.968-160.5,1.856,2.489,3.746,4.989,5.665,7.552,145.852,194.824,84.1,331.094,84.1,331.094l21.636,22.358C698.539,1497.168,770.956,1329.669,762.439,1224.628Z"/><path class="cls-14" d="M533.193,401.329c-63.877-80.911-87.615-53.961-71.684,11.355,7.1,29.1-.71,3.549,48.972,147.626,7.856,22.784,14.983,41.836,21.757,57.6,18.707,36.064,57.617,23.431,83.132-6.886C585.793,639.44,517.339,465.366,522.713,430.9c5.563-35.676,74,37.141,74,37.141s-87.422-110.664-22.419-53.2c-8.8-8.51-17.98-17.467-27.618-27C482.8,324.676,533.193,401.329,533.193,401.329Z"/><path class="cls-15" d="M893.791,798.538C878.43,748.17,863.285,708.59,844.532,674.78c-34.3-43.083-61.514-66.916-145.26-35.688S532.483,732.068,557.324,826.463c12.965,49.266,77.159,154.173,140.623,242.752-9.568-14.03-61.764-98.633-32.033-235.654C698.555,683.132,869.566,680.836,894.1,809.273c-4.055-19.4-8.313-35.459-11.829-46.492C886.133,774.086,889.955,785.976,893.791,798.538Z"/><path class="cls-16" d="M500.7,728.678c-38.954-3.67,29.278-58.687,31.464-37.925.137-6.964-.941-13.189-3.589-17.771-9.748-16.872-49.329,15.044-54.768,45.3a52.344,52.344,0,0,1,3.968-12.354C472.059,718.689,485.612,728.62,500.7,728.678Z"/><path class="cls-17" d="M522.894,776.448c-11.334-2.857,8.969-44.69,12.837-26.376-.914-10.67-3.174-19.12-6.087-18.537-4.328.866-11.224,16.3-13.56,31.26.275-1.748.606-3.5.993-5.238C514.984,771.446,518.389,776.534,522.894,776.448Z"/><path class="cls-18" d="M620.446,991.833c-66.05-57.489-79.446,17.686-87.963,83.039s15.982,99.974,15.982,99.974c33.491,32.667,83.227,128.563,127.764,154.129-55.914-34.074-41.266-253.023-31.607-279.653,8-22.049,40.244,7.419,51.136,18.242C672.915,1039.425,646.6,1014.6,620.446,991.833Z"/><path class="cls-19" d="M498.839,989.777c-32.36,31.214-77.17-113.723-55.961-182.654,19.121-62.142,55.709-34.46,62.977-28.164-40.019-39.783-95.448-55.041-151.517-16.372-44.859,30.937-37.446,72.994-30.035,93.7,14.732,35.264,40.6,75.38,74.283,121.659C435.463,1026.135,471.394,1017.994,498.839,989.777Z"/><path class="cls-20" d="M437.979,682.99c-58.385,27.6,4.167-279.743,45.462-181.56C471.259,452,458.573,404.187,448.024,406.3c-2.9.58-5.178,3.723-6.99,7.935-6.772,31.8-14.248,72.843-25.3,125.142-14.961,70.774-38.624,109.818-60.074,144.379C336.805,717.943,391.225,708.37,437.979,682.99Z"/><path class="cls-21" d="M830.574,1216.111c-35.487,3.548-248.409-295.252-273.25-389.648s58.2-156.143,141.948-187.371,110.965-7.394,145.265,35.694c0,0-29.043-69.246-77.84-101.7S567.97,402.748,539.581,345.259,492.738,173.5,498.416,120.981,464.348,68.212,403.31,68.336s3.549,74.647,4.259,130.716-43.3,80.911-20.583,100.784,54.194-53.114,25.551-117.818,25.55-73.082,59.618-64.575,9.937,136.969-8.517,186.651S428.673,400.722,434.8,444.675c0,0,6.749-36.648,13.225-38.379,14.136-3.776,32.648,86.589,48.262,146.917S507.642,688.774,421.763,727.1s-114.676,37.092-81.82-17.449c0,0-67.164,77.411-10.06,159.214,0,0-37.292-63.693,24.455-106.277s122.785-19.873,163.241,29.1,38.326,133.431,27.679,198.727-52.345,99.739-110.986,35.32c0,0,62.749,100.751,114.193,149.113,0,0-24.5-34.621-15.982-99.974s21.913-140.528,87.963-83.039,133.476,127.753,141.993,232.795-63.9,272.54-102.569,311.221l6.754,14.55,14.195-7.1s113.558-200.857,154.723-262.6,79.117-178.542,79.117-178.542S866.061,1212.562,830.574,1216.111ZM489.721,751.763c-49.054-28.343,25.018-102.735,38.858-78.781S513.675,765.6,489.721,751.763Zm34.6,38.858c-19.521-6.3-2.661-57.489,5.323-59.086S540.823,795.945,524.321,790.621ZM510.481,560.31C460.8,416.233,468.606,441.783,461.509,412.684c-15.931-65.316,7.807-92.266,71.684-11.355,0,0-50.392-76.653,13.485-13.486s110.01,103.622,141.238,136.271,64.587,72.393-21.292,124.2S560.163,704.388,510.481,560.31Z"/><path class="cls-22" d="M446.6,413.749c8.18,2.093,66.913,164.482,26.537,197.485S435.03,410.787,446.6,413.749Z"/><path class="cls-23" d="M463.224,357.325C475.531,333.273,587.665,437.7,581.278,523.4S433.532,415.346,463.224,357.325Z"/><path class="cls-24" d="M561.582,762.781c18.361-89.255,214.52-181.888,262.959-84.476s-33,253.377-105.928,273.073S545.081,843,561.582,762.781Z"/><path class="cls-25" d="M371.017,757.557c75.661-42.9,157.03,53.9,71.861,118.8S272.541,813.387,371.017,757.557Z"/><path class="cls-26" d="M504.626,676.708c-19.929,16.9-19.962,44.98,7.186,35.664S534.435,651.423,504.626,676.708Z"/><path class="cls-27" d="M528.983,734.463c5.6.249,8.9,28.3-2,28.318S523,734.2,528.983,734.463Z"/><path class="cls-28" d="M572.938,976.928c-46.133,18.453-43.449,232.782,68.135,198.728S619.071,958.475,572.938,976.928Z"/><path class="cls-29" d="M515.272,345.969c-25.019-9.937-28.093-60.328-28.093-60.328-2.739,116.682-14.038,25.55-14.038,25.55s-24.4,58.956-31.979,60.821c-6.44,25.039-9.622,49.279-6.363,72.663,0,0,6.749-36.649,13.225-38.379,14.136-3.776,32.648,86.589,48.262,146.917S507.642,688.774,421.763,727.1s-114.676,37.092-81.82-17.449c0,0-67.164,77.411-10.06,159.214,0,0-37.292-63.693,24.455-106.277s122.785-19.873,163.241,29.1,38.326,133.431,27.679,198.727-52.345,99.739-110.986,35.32c0,0,62.749,100.751,114.193,149.113,0,0-24.5-34.621-15.982-99.974s21.913-140.528,87.963-83.039,133.476,127.753,141.993,232.795-63.9,272.54-102.569,311.221l6.754,14.55,14.195-7.1s113.558-200.857,154.723-262.6,79.117-178.542,79.117-178.542-48.6,110.407-84.085,113.956S582.165,920.859,557.324,826.463s58.2-156.143,141.948-187.371,110.965-7.394,145.265,35.694c0,0-29.043-69.246-77.84-101.7S567.97,402.748,539.581,345.259c-17.713-35.868-31.554-93.835-38.084-145.122C510.262,286.642,540.26,355.893,515.272,345.969ZM489.721,751.763c-49.054-28.343,25.018-102.735,38.858-78.781S513.675,765.6,489.721,751.763Zm34.6,38.858c-19.521-6.3-2.661-57.489,5.323-59.086S540.823,795.945,524.321,790.621Zm22.357-402.778c63.877,63.167,110.01,103.622,141.238,136.271s64.587,72.393-21.292,124.2-106.461,56.07-156.143-88.008-41.875-118.527-48.972-147.626c-15.931-65.316,7.807-92.266,71.684-11.355C533.193,401.329,482.8,324.676,546.678,387.843Z"/><path class="cls-30" d="M386.986,299.836c22.712,19.872,54.194-53.114,25.551-117.818s25.55-73.082,59.618-64.575c14.225,3.551,18.283,28.043,16.864,58.957,9.134-67.906-13.315-81.68-63.707-84.518s-24.155,72.623-7.677,125.464c16.468,52.813-34.85,77.53-33.624,55.991C379.4,283.873,378.292,292.228,386.986,299.836Z"/><path class="cls-31" d="M721.149,585.1c-1.347,18.921-15.775,39.836-54.525,63.214-85.879,51.811-106.461,56.07-156.143-88.008s-41.875-118.527-48.972-147.626a156.351,156.351,0,0,1-4.714-30.907c-.414,10,1.148,22.673,4.714,37.3,2.144,8.788,2.932,12.6,4.351,17.6q1.491,4.563,3,9.6c4.682,14.147,14.713,42.389,41.624,120.431,39.354,114.127,60.48,135.134,110.234,113.2a316.054,316.054,0,0,1,55.9-31.564C711.761,624.9,722.677,603.982,721.149,585.1Z"/><path class="cls-32" d="M366.516,755.051a117.807,117.807,0,0,1,35.36-13.02c6.289-2.61,12.823-5.392,19.887-8.544,63.712-28.433,82.481-77.178,81.56-125.082-.841,45.806-20.679,91.525-81.56,118.694-58.977,26.321-91.026,33.976-94.68,18.529C324.928,760.985,338.242,763.562,366.516,755.051Z"/><path class="cls-33" d="M524.321,790.621c-5.879-1.9-8.418-7.9-8.934-15.356-.664,10.295,1.445,19.328,8.934,21.744,9.222,2.974,12.285-16.324,11.807-33.654C535.752,778.672,532.416,793.233,524.321,790.621Z"/><path class="cls-34" d="M557.324,832.851c11.555,43.908,63.81,132.034,119.967,213.393,20.9,22.66,39.936,47.511,54.754,75.444,45.189,59,84.919,102.171,98.529,100.81,26.587-2.659,60.531-65.3,75.886-96.546,5.209-14.6,8.2-23.8,8.2-23.8s-48.6,110.407-84.085,113.956S582.165,920.859,557.324,826.463a131.3,131.3,0,0,1-4.361-30.186A128.578,128.578,0,0,0,557.324,832.851Z"/><path class="cls-35" d="M763.065,1246.69c-1.75,105-67.133,253.086-103.2,289.159l1.978,4.261C699.026,1499.988,763.968,1350.138,763.065,1246.69Z"/><path class="cls-36" d="M545.258,996.8c4.082-25.033,6.882-52.88,6.54-80.467a481.113,481.113,0,0,1-6.54,74.08c-10.646,65.3-52.345,99.739-110.986,35.32,0,0,4.349,6.977,11.65,18.082C498.4,1091.7,535.332,1057.682,545.258,996.8Z"/><path class="cls-37" d="M532.083,692.838c-1.553,29.326-23.442,69.857-42.362,58.925-10.628-6.141-15.461-14.446-16.394-23.442-.975,11.393,3.288,22.257,16.394,29.829C510.061,769.9,533.84,722.175,532.083,692.838Z"/><path class="cls-38" d="M548.533,1376.458c35.159,47.764,33.136,64.007-40.561,18.041,74.326,52.563,112.474,116.864,112.474,116.864a5.1,5.1,0,0,0,.6.22c-.2-1.251-.4-2.407-.6-3.769C615.1,1471.124,584.683,1419.9,548.533,1376.458Z"/><path class="cls-39" d="M472.155,1249.823l.021.61c23.148,43.126,54.882,90.258,89.407,131.757,67.973,81.7,58.42,32.689,57.724,29.4-1.071-4.2-2.2-8.525-3.429-13.081-8.112-30.023-20.109-60.479-34.127-89.894C606.629,1369.528,505.453,1312.168,472.155,1249.823Z"/><path class="cls-40" d="M353.468,1102.926c32.73,26.226,69.035,47.492,73.159,33.694,9.081-30.379-12.423-47.573-12.621-47.73q-7.173-3.948-15.324-8.165C447.64,1105.029,369.329,1114.653,353.468,1102.926Z"/><path class="cls-41" d="M457.96,1247.594c-6.611-26.313-32.655-61.758-64.172-96.629,63.611,83.756-86.017,155.636-125.758,76.11,8.128,17.412,16.874,31.69,27.357,44.1C332.991,1314.672,470.726,1298.4,457.96,1247.594Z"/><path class="cls-42" d="M353.469,1102.927c8.313,6.146,33.76,6.417,49.068,1.794-40.249,9.684-102.049-64.767-39.147-41.607-15.946-7.768-32.8-15.837-49.446-23.943C279.4,1032.07,313.806,1071.145,353.469,1102.927Z"/><path class="cls-43" d="M375.682,1246.711c-78.792,36.692-93.854-189.981-30.756-145.635-14.776-14.052-29.312-27.121-42.4-38.269-53.854-45.876-87.772-56.865-83.569-13.25.081.6.167,1.2.251,1.8.256,2.221.568,4.521,1.012,7.012a697.274,697.274,0,0,0,28.366,118.7c8.36,24.828,16.371,44.915,25.357,61.858-2.014-3.8-3.985-7.726-5.914-11.858C289.087,1269.214,340.991,1268.833,375.682,1246.711Z"/><path class="cls-44" d="M422.96,1294.182c-44.937,26.97,14.8,60.844,14.8,60.844-.094-.03-.182-.06-.276-.089a381.3,381.3,0,0,1,70.355,39.489c19.886,12.4,34.343,20.119,44.462,24.091-10.438-5.017-24.3-14.325-38.9-31.714-30.066-35.808-62.41-96.367-8.077-55.744C472.215,1301.094,440.4,1283.718,422.96,1294.182Z"/><path class="cls-45" d="M434.539,1140.168c-1.606,37.465,31.514,108.022,78.024,176.677a766.126,766.126,0,0,1-40.387-66.412l-.021-.61c11.75,22,31.95,43.351,52.082,59.131-8.929-8.263-17.068-18.3-20.41-29.41-9.02-29.977-9.04-114.915,21.825-69.545-5.556-8.414-11.1-16.511-16.552-24.2C507.159,1183.249,436.638,1091.169,434.539,1140.168Z"/><path class="cls-46" d="M226.23,1026.61c21.134-20.793,171.4,113.559,112.139,159.692S204.228,1048.257,226.23,1026.61Z"/><path class="cls-47" d="M301.817,1042.224c1.584-11.791,87.62,35.368,85.524,50.392S298.623,1066,301.817,1042.224Z"/><path class="cls-48" d="M440.926,1129.877c16.41-9.7,128.109,121.721,97.945,145.142S417.505,1143.717,440.926,1129.877Z"/><path class="cls-49" d="M409.7,1311.926c8.847-32.112,69.119-15.134,80.87,27.565S400.116,1346.7,409.7,1311.926Z"/><path class="cls-50" d="M137.867,1037.256c30.519,5.678,33.455-41.826-10.646-94.4s-11.356-100.784,31.229-69.555c15.373,11.274,25.608,31.6,32.71,54.054-.032-.158-.056-.3-.088-.461-13.449-64.8-74.852-89.08-94.37-67.433s19.873,73.1,43.294,106.816c23.412,33.7-14.867,73.772-13.176,46.281C125.409,1025.825,125.987,1035.046,137.867,1037.256Z"/><path class="cls-51" d="M239.715,996.8s39.39,30.518,22,27.639-50.391-41.124-50.391-41.124c9.22,27.3,2.139,60.538-3.549,33.935.615,4.718,1.186,8.674,1.774,11.488,4.968,23.777,10.78,30.392,10.78,30.392-10.07-54.523,24.707-45.3,82.2,3.676s142.658,133.94,155.433,184.787S332.776,1314.7,295.3,1271.084c0,0,26.457,47.551,142.469,83.942,0,0-59.741-33.874-14.8-60.844s185.377,130.593,197.486,213.632,25.28-42.324-1.177-96.394c0,0,12.578,55.229-57.686-29.23S432.41,1189.85,434.539,1140.168s74.652,45.745,74.652,45.745-34.842-75.937-95.2-97.038c0,0,21.762,17.226,12.639,47.745S250.878,1026.2,313.964,1039.181c0,0-33.592-17.472-62.805-39.1C276.72,1021.782,239.715,996.8,239.715,996.8Z"/><path class="cls-52" d="M626.425,1430.91a115.261,115.261,0,0,0-7.156-19.49s5.241,23.1-10.1,16.516C619.623,1435.618,624.4,1434.628,626.425,1430.91Z"/><path class="cls-53" d="M419.8,1296.241c1-.689,2.026-1.378,3.161-2.059a23.458,23.458,0,0,1,12.862-2.943c20.867-8.286,34.159-21.63,29.787-39.032-12.776-50.847-97.945-135.815-155.434-184.787-16.583-14.127-31.2-24.817-43.469-31.753a337.632,337.632,0,0,1,35.821,27.14c57.489,48.972,142.658,133.94,155.433,184.787,11.274,44.869-94.793,62.776-145.65,36.4C337.811,1301.87,384.45,1304.857,419.8,1296.241Z"/><path class="cls-54" d="M472.9,1305.717c58.861,37.8,138.553,140.452,147.542,202.1,4.152,28.468,8.427,32.433,11.189,23.184a172.127,172.127,0,0,1-3.54-18.571C618.709,1448.068,532.255,1339,472.9,1305.717Z"/><path class="cls-55" d="M434.276,1141.233c.111-.371.163-.716.264-1.083a25.888,25.888,0,0,1,1.688-8.818,44.488,44.488,0,0,0-14.591-37.844,110.213,110.213,0,0,1,17.329,8,115.085,115.085,0,0,0-24.978-12.615s21.762,17.226,12.639,47.745c-2.426,8.117-16.034,4.043-33.458-5.975C414.164,1143.905,431.5,1150.507,434.276,1141.233Z"/><path class="cls-56" d="M655.771,1558.206s-.921,46.31-37.973,26.615-83.363-9.581-100.929,13.308c0,0,39.923-63.877,87.3-68.135,0,0-35.132-10.114-109.123,16.5s-141.593,54.3-242.2,28.212c0,0,76.092,16.5,156.218-9.049,0,0-260.55,35.665-409.063-128.285,0,0,104.332,75.587,200.147,71.861,0,0-25.018-22.9-38.326-65.214,0,0,56.957,49.777,100.606,58.294,0,0,101.67-27.148,165.014-61.748,0,0-221.971,69.2-227.294-160.756,0,0,6.961,91.975,66.559,113.59s194.271-13.256,236.855,18.02c0,0-76.491-46.973-136.988-50.167s-65.288,36.8-83.919,15.205,165.154-66.307,331.962,120c0,0-26.321-94.751-124.048-106.994,0,0,108.565,1.065,144.085,112.849,0,0,21.68-159.183,152.627-206.014,0,0-92.68,29.288-131.509,199.626,0,0,20.789-96.8,148.543-179.081S1017.236,949.83,1073.66,962.314s10.647,119.693-12.775,110.8,12.775-46.273,28.745-60.585-.533-81.382-67.6,4.851-129,253.99-197.841,299.462-144.077,131-149.045,180.323c0,0,264.024-323.58,365.516-281.026s99.364,142.915,99.364,142.915-9.227-87.586-92.976-125.2-329.32,256.927-329.32,256.927S861.8,1333.218,988.846,1371.544s86.589,159.692,178.855,174.951c0,0-46.133,9.582-117.107-56.424,0,0,22.712,25.551,30.519,60.328,0,0-36.2-58.909-81.62-43.294s-143.787,117.446-244.861,91.024c0,0,4.258,16.146-7.807,23.244,0,0,5.678-21.292-29.809-21.292S656.984,1590.854,655.771,1558.206Z"/><path class="cls-57" d="M583.548,742.566c.839-17.738,31.646-27.906,50-13.731S581.127,793.768,583.548,742.566Z"/><path class="cls-57" d="M576.951,760.511c4.247-4.016,26.528,26.425,14.143,35.115S569.489,767.569,576.951,760.511Z"/><path class="cls-57" d="M422.325,1298.148c.59-5.814,37.348,2.67,33.651,17.341S421.288,1308.367,422.325,1298.148Z"/><path class="cls-57" d="M234.59,1024.375c7.155-2.716,57.864,40.761,36.221,45.3S222.015,1029.149,234.59,1024.375Z"/><path class="cls-57" d="M582.555,800.471c9.069,1.134,3.405,13.954-.77,12.2S577.281,799.811,582.555,800.471Z"/><path class="cls-57" d="M527.508,741.488c7.076.665,2.152,12.211-1.059,10.812S523.393,741.1,527.508,741.488Z"/><path class="cls-57" d="M469.7,409.893c5.443-7.343,13.828,3.887,10.246,6.66S466.537,414.163,469.7,409.893Z"/><path class="cls-57" d="M556.518,1038.016c-1.792-8.962,12.161-7.644,11.814-3.127S557.561,1043.228,556.518,1038.016Z"/><path class="cls-57" d="M447.93,465.445c-3.657-3.039-4.087-30.469,6.316-23.677S451.588,468.485,447.93,465.445Z"/><path class="cls-57" d="M480.514,399.331c-6.319.267-31.223-26.4-14.9-28.986S486.833,399.064,480.514,399.331Z"/><path class="cls-57" d="M447.408,486.179c-4.122-3.457,1.4-18.636,6.838-20.421S455.506,492.971,447.408,486.179Z"/><path class="cls-57" d="M343.978,810.092c-3.287-5.4,8.03-40.092,18.179-27.052S347.265,815.5,343.978,810.092Z"/><path class="cls-57" d="M499.545,695.115c-.586-5.164,19.828-27.124,22.9-13.9S500.13,700.28,499.545,695.115Z"/><path class="cls-57" d="M338.793,823.042c-4.438-3.954,5.784-11.105,13.012-9.876S347.513,830.81,338.793,823.042Z"/><path class="cls-57" d="M573.338,1066.091c-3.161,8.411-17.043-2.856-18.675-13.958S579.55,1049.562,573.338,1066.091Z"/><path class="cls-57" d="M468.514,1165.9c5.367,7.4-7.865,12.019-9.433,7.769S465.393,1161.6,468.514,1165.9Z"/><path class="cls-57" d="M441.518,1147.4c-.635-8.964,16.682-4.513,22.8,4.9S442.766,1165.015,441.518,1147.4Z"/><path class="cls-57" d="M307.374,1046.07c2.875-4.072,18.58,5.211,12.945,10.621S304.5,1050.141,307.374,1046.07Z"/><path class="cls-58" d="M1089.891,1012.254c16.4-8.489,10.41-61.454-31.135-39.052-31.788,17.141-68.136,85.185-103.6,151.984,22.011-40.006,44.145-78.586,66.869-107.8C1088.706,931.653,1105.389,997.42,1089.891,1012.254Z"/><path class="cls-59" d="M1059.156,1047.021c-7.051,11.42-9.285,21.914,1.729,26.1,11.581,4.4,28.612-19.6,36.067-46.488C1089.321,1054.319,1051.345,1062.636,1059.156,1047.021Z"/><path class="cls-60" d="M710.787,1577.9c-26.242,7.452-45.464-.532-55.016-19.7,1.213,32.648,25.757,41.874,61.245,41.874s29.809,21.293,29.809,21.293C770.262,1601.208,737.029,1570.449,710.787,1577.9Z"/><path class="cls-61" d="M593.521,1558.206c-14.454-6.263-50.655,5.837-70.826,31.469.291-.4.644-.866.955-1.289-4.322,5.851-6.781,9.743-6.781,9.743,17.566-22.889,63.876-33,100.929-13.308s37.973-26.615,37.973-26.615C646.483,1539.573,609.49,1565.126,593.521,1558.206Z"/><path class="cls-62" d="M578.649,1460.023a458.77,458.77,0,0,0-54.444-43.08c-2.685-1.812-5.381-3.589-8.1-5.3-1.584-1.011-3.162-1.986-4.741-2.965-73.287-44.449-154.644-53.741-179.387-48.133s-42.134,23.88-48.989,16.252c18.343,20.69,23.465-18.716,83.581-15.542,46.079,2.432,101.336,30.216,125.106,43.343,3.084,1.511,5.613,2.9,7.518,4.028.136.077.261.162.4.24,2.564,1.541,3.968,2.556,3.968,2.556l8.34,7.1s-26.825-15.536-136.219,6.654S206,1372.963,200.147,1279.81c5.323,229.956,227.294,160.756,227.294,160.756q.659-.348,1.313-.691C477.783,1414.229,537.707,1422.914,578.649,1460.023Z"/><path class="cls-63" d="M1047.045,1233.854c75.132,33.746,90.279,107.662,92.6,122.526-3.213-30.956-17.015-81.361-85.682-125.542s-208.131,96.347-285.848,187.679-121.365,121.59-92.976,78.651c4.968-49.327,80.2-134.851,149.045-180.323,28.328-18.71,55.483-58.138,82.307-104.057a332.091,332.091,0,0,1-23.4,33.9c-53.763,66.422-149.755,129.822-182.166,171.827s-64.469,159.917-45.158,77.409c0,0,.113-.508.341-1.4,29.777-129.02,90.442-176.532,117.536-191.807-64.1,33.189-111.1,115.671-117.877,171.737-7.252,59.989-10.439,30.518-10.439,30.518-8.162,18.1-12.867-1.812-12.867-1.812-34.677-85.342-100.989-107.914-129.924-112.63a110.076,110.076,0,0,0-11.973-1.068c97.726,12.243,124.048,106.994,124.048,106.994-33.555-25.551-86.037-15.26-180.432,23.421s-249.119-11.711-272.363-75.86c13.308,42.312,38.326,65.214,38.326,65.214,50.807,52.4,197.412,75.232,266.293,33.357,66.709-40.553,124.669-61.638,163.075-30.059-2.635-.96-7.162-1.707-14.829-1.488l13.409,1.383,19.384,14.387a19.03,19.03,0,0,1,2.558,1.9,19.03,19.03,0,0,0-2.558-1.9c-27.14-17.13-125.912,3.2-155.968,16.487-22.8,10.079-100.128,39.352-169.357,41.711,65.188,2.108,117.237-18.5,172.89-38.517,73.991-26.615,109.123-16.5,109.123-16.5,64.586-7.985,51.6,23.954,51.6,23.954s75.439-48.618,98.861,44.181c101.074,26.422,199.437-75.41,244.861-91.025s81.62,43.295,81.62,43.295-84.1-141.771-182.049-73.636-195.088,53.763-195.088,53.763-12.7-9.144,13.749-39.746C717.725,1490.78,963.3,1196.238,1047.045,1233.854Z"/><path class="cls-64" d="M382.4,1532.137q6.246-.725,12.383-1.562c.407-.064.824-.107,1.231-.173.643-.09,1.223-.243,1.86-.339a174.209,174.209,0,0,0,36.312-10.183c8.111-3.324,15.8-6.358,23.31-9.258,44.3-22.748,69.817-54.583,97.378-50.617-102.546-30.8-218.877,69.343-292.445,42.309-43.649-8.517-100.606-58.294-100.606-58.294C181.16,1497.394,291.5,1541.191,382.4,1532.137Z"/><path class="cls-65" d="M621.473,1480.231c8.051,12.541,13.18,22.083,13.18,22.083-28.3-89.071-102.93-107.828-132.11-111.78C528.673,1394.792,585.2,1413.782,621.473,1480.231Z"/><path class="cls-66" d="M986,1230.711c9.281-3.99,17.6-6.5,24.585-7.078.15-.013.273-.011.422-.022,16.071-2.589,30.661-.683,42.955,7.227,68.667,44.181,82.469,94.586,85.682,125.542.266,1.7.374,2.676.374,2.676s2.129-100.361-99.364-142.914c-73.385-30.769-231.722,129.863-313.806,221.2.375-.368,89.928-88.237,172.3-151.22C928.933,1261.5,958.835,1241.355,986,1230.711Z"/><path class="cls-67" d="M771.591,1303.9c.692-.407,1.347-.779,2-1.148a105.976,105.976,0,0,1,9.5-4.8c-127.156,48.72-148.436,204.363-148.436,204.363s28.772-88.607,66.221-133.485C720.015,1342.217,744.209,1318.62,771.591,1303.9Z"/><path class="cls-68" d="M1049.174,1487.232c-60.8-74.945-122.885-132.912-342.7,41.345,183.593-119.471,305.812-92.78,344.123-38.506,1.031.959,2,1.748,3.024,2.675C1052.12,1490.89,1050.753,1489.178,1049.174,1487.232Z"/><path class="cls-69" d="M310.646,1426.605c3.678.717,7.112,1.136,10.541,1.546,2.25.251,4.508.492,6.819.642,3.85.246,7.706.3,11.613.27,50.574-1.489,74.252-35.435,126.023-29.762-58.4-6.893-151.969,11.134-198.936-5.9-59.6-21.615-66.559-113.59-66.559-113.59C204.714,1352.46,242.392,1413.691,310.646,1426.605Z"/><ellipse class="cls-70" cx="574.317" cy="514.076" rx="159.186" ry="222.72" transform="translate(-180.094 356.032) rotate(-30)"/><ellipse class="cls-71" cx="453.175" cy="624.852" rx="222.72" ry="113.926" transform="translate(-249.138 945.11) rotate(-78.562)"/><ellipse class="cls-72" cx="449.805" cy="873.309" rx="186.613" ry="222.72" transform="translate(-349.659 302.476) rotate(-27.221)"/><ellipse class="cls-73" cx="733.502" cy="838.178" rx="272.771" ry="471.002" transform="translate(-302.168 428.356) rotate(-27.221)"/><ellipse class="cls-74" cx="653.762" cy="1163.013" rx="168.302" ry="234.915" transform="translate(-459.588 427.856) rotate(-27.221)"/><ellipse class="cls-75" cx="322.004" cy="1153.011" rx="144.158" ry="201.215" transform="translate(-491.757 274.994) rotate(-27.221)"/><ellipse class="cls-76" cx="515.248" cy="1273.335" rx="95.147" ry="201.215" transform="translate(-525.394 376.715) rotate(-27.221)"/><ellipse class="cls-77" cx="490.463" cy="1346.314" rx="62.151" ry="131.437" transform="translate(-902.156 1009.076) rotate(-56.371)"/><ellipse class="cls-78" cx="372.075" cy="1096.275" rx="62.151" ry="131.437" transform="translate(-746.786 798.94) rotate(-56.371)"/><path class="cls-57" d="M434.823,647.175a3.811,3.811,0,1,1-3.811-3.81A3.81,3.81,0,0,1,434.823,647.175Z"/><circle class="cls-79" cx="431.012" cy="647.175" r="75.396" transform="translate(-331.381 494.325) rotate(-45)"/><path class="cls-57" d="M633.325,464.867a3.81,3.81,0,1,1-3.81-3.81A3.81,3.81,0,0,1,633.325,464.867Z"/><circle class="cls-80" cx="629.515" cy="464.867" r="75.396" transform="translate(-144.33 581.291) rotate(-45)"/><path class="cls-57" d="M682.921,596.035a3.811,3.811,0,1,1-3.81-3.81A3.81,3.81,0,0,1,682.921,596.035Z"/><circle class="cls-81" cx="679.111" cy="596.035" r="75.396" transform="translate(-222.553 654.778) rotate(-45)"/><circle class="cls-57" cx="557.451" cy="751.873" r="3.81"/><circle class="cls-82" cx="557.451" cy="751.873" r="75.396" transform="translate(-368.381 614.396) rotate(-45)"/><path class="cls-57" d="M878.312,1035.951a3.81,3.81,0,1,1-3.81-3.81A3.81,3.81,0,0,1,878.312,1035.951Z"/><circle class="cls-83" cx="874.502" cy="1035.951" r="75.396" transform="translate(-476.392 921.789) rotate(-45)"/><path class="cls-57" d="M668.668,1196.376a3.81,3.81,0,1,1-3.81-3.81A3.81,3.81,0,0,1,668.668,1196.376Z"/><circle class="cls-84" cx="664.858" cy="1196.376" r="75.396"/><path class="cls-57" d="M563.594,1323.3a3.81,3.81,0,1,1-3.81-3.81A3.81,3.81,0,0,1,563.594,1323.3Z"/><circle class="cls-85" cx="559.784" cy="1323.301" r="75.396" transform="translate(-856.729 1564.078) rotate(-76.717)"/><path class="cls-57" d="M393.208,1249.823a3.81,3.81,0,1,1-3.81-3.81A3.81,3.81,0,0,1,393.208,1249.823Z"/><circle class="cls-86" cx="389.398" cy="1249.823" r="75.396" transform="translate(-769.706 641.411) rotate(-45)"/><path class="cls-57" d="M300.955,1157.926a3.811,3.811,0,1,1-3.81-3.81A3.81,3.81,0,0,1,300.955,1157.926Z"/><circle class="cls-87" cx="297.145" cy="1157.926" r="75.396" transform="translate(-731.746 549.262) rotate(-45)"/><circle class="cls-57" cx="332.894" cy="1075.648" r="3.81"/><circle class="cls-88" cx="332.894" cy="1075.648" r="75.396" transform="translate(-663.095 550.442) rotate(-45)"/><path class="cls-57" d="M257.582,1024.44a3.811,3.811,0,1,1-3.81-3.81A3.81,3.81,0,0,1,257.582,1024.44Z"/><circle class="cls-89" cx="253.772" cy="1024.44" r="75.396" transform="translate(-801.569 1036.055) rotate(-76.717)"/><path class="cls-57" d="M193.248,852.981a3.81,3.81,0,1,1-3.81-3.811A3.81,3.81,0,0,1,193.248,852.981Z"/><circle class="cls-90" cx="189.438" cy="852.981" r="75.396" transform="translate(-684.248 841.377) rotate(-76.717)"/><path class="cls-57" d="M370.383,721.349a3.81,3.81,0,1,1-3.81-3.81A3.81,3.81,0,0,1,370.383,721.349Z"/><circle class="cls-91" cx="366.573" cy="721.349" r="75.396" transform="translate(-402.704 470.485) rotate(-45)"/><path class="cls-57" d="M374.193,737.3a3.81,3.81,0,1,1-3.81-3.81A3.81,3.81,0,0,1,374.193,737.3Z"/><circle class="cls-92" cx="370.383" cy="737.296" r="75.396" transform="translate(-432.286 928.375) rotate(-76.717)"/><g class="cls-93"><path class="cls-57" d="M253.772,669.421a3.811,3.811,0,1,1-3.811-3.81A3.81,3.81,0,0,1,253.772,669.421Z"/><circle class="cls-94" cx="249.961" cy="669.421" r="75.396" transform="translate(-400.14 372.818) rotate(-45)"/></g><g class="cls-93"><path class="cls-57" d="M340.515,354.618a3.811,3.811,0,1,1-3.811-3.81A3.81,3.81,0,0,1,340.515,354.618Z"/><circle class="cls-95" cx="336.704" cy="354.618" r="75.396" transform="translate(-85.786 600.841) rotate(-76.717)"/></g><path class="cls-57" d="M468.143,370.193a3.811,3.811,0,1,1-3.81-3.81A3.81,3.81,0,0,1,468.143,370.193Z"/><circle class="cls-96" cx="464.333" cy="370.193" r="75.396" transform="translate(-125.766 436.76) rotate(-45)"/><path class="cls-57" d="M506.476,430.9a3.811,3.811,0,1,1-3.81-3.811A3.81,3.81,0,0,1,506.476,430.9Z"/><circle class="cls-97" cx="502.666" cy="430.902" r="75.396" transform="translate(-157.467 481.647) rotate(-45)"/><g class="cls-93"><path class="cls-57" d="M598.609,132.945a3.81,3.81,0,1,1-3.81-3.81A3.81,3.81,0,0,1,598.609,132.945Z"/><circle class="cls-98" cx="594.799" cy="132.945" r="75.396" transform="translate(80.206 459.525) rotate(-45)"/></g><g class="cls-93"><path class="cls-57" d="M568.976,129.135a3.81,3.81,0,1,1-3.81-3.81A3.81,3.81,0,0,1,568.976,129.135Z"/><circle class="cls-99" cx="565.166" cy="129.135" r="75.396" transform="translate(74.221 437.456) rotate(-45)"/></g><path class="cls-57" d="M482.4,301.155a3.81,3.81,0,1,1-3.81-3.81A3.81,3.81,0,0,1,482.4,301.155Z"/><circle class="cls-100" cx="478.587" cy="301.155" r="75.396"/><g class="cls-93"><path class="cls-57" d="M602.419,368.694a3.81,3.81,0,1,1-3.81-3.81A3.81,3.81,0,0,1,602.419,368.694Z"/><circle class="cls-101" cx="598.609" cy="368.694" r="75.396"/></g><path class="cls-57" d="M682.921,834.64a3.811,3.811,0,1,1-3.81-3.81A3.81,3.81,0,0,1,682.921,834.64Z"/><circle class="cls-102" cx="679.111" cy="834.64" r="75.396" transform="translate(-289.23 1303.823) rotate(-76.717)"/><path class="cls-57" d="M774.759,876.359a3.81,3.81,0,1,1-3.81-3.81A3.81,3.81,0,0,1,774.759,876.359Z"/><circle class="cls-103" cx="770.949" cy="876.359" r="75.396" transform="translate(-259.095 1425.339) rotate(-76.717)"/><path class="cls-57" d="M737.6,964.577a3.811,3.811,0,1,1-3.81-3.811A3.81,3.81,0,0,1,737.6,964.577Z"/><circle class="cls-104" cx="733.786" cy="964.577" r="75.396"/><path class="cls-57" d="M612.981,1045.066a3.811,3.811,0,1,1-3.81-3.81A3.81,3.81,0,0,1,612.981,1045.066Z"/><circle class="cls-105" cx="609.171" cy="1045.066" r="75.396" transform="translate(-560.551 736.841) rotate(-45)"/><path class="cls-57" d="M425.267,967.722a3.81,3.81,0,1,1-3.81-3.81A3.81,3.81,0,0,1,425.267,967.722Z"/><circle class="cls-106" cx="421.457" cy="967.722" r="75.396" transform="translate(-560.841 581.454) rotate(-45)"/><path class="cls-57" d="M789.492,671.431a3.81,3.81,0,1,1-3.81-3.81A3.81,3.81,0,0,1,789.492,671.431Z"/><circle class="cls-107" cx="785.682" cy="671.431" r="75.396" transform="translate(-244.652 752.219) rotate(-45)"/><g class="cls-93"><path class="cls-57" d="M958.968,786.274a3.811,3.811,0,1,1-3.81-3.811A3.81,3.81,0,0,1,958.968,786.274Z"/><circle class="cls-108" cx="955.158" cy="786.274" r="75.396" transform="translate(-276.22 905.693) rotate(-45)"/></g><g class="cls-93"><path class="cls-57" d="M962.778,827.269a3.81,3.81,0,1,1-3.81-3.81A3.81,3.81,0,0,1,962.778,827.269Z"/><circle class="cls-109" cx="958.968" cy="827.269" r="75.396" transform="translate(-66.497 1570.516) rotate(-76.717)"/></g><path class="cls-57" d="M887.382,633.283a3.811,3.811,0,1,1-3.81-3.81A3.81,3.81,0,0,1,887.382,633.283Z"/><circle class="cls-110" cx="883.571" cy="633.283" r="75.396" transform="translate(-189.007 810.264) rotate(-45)"/><path class="cls-57" d="M1009.51,461.057a3.81,3.81,0,1,1-3.81-3.811A3.81,3.81,0,0,1,1009.51,461.057Z"/><circle class="cls-111" cx="1005.7" cy="461.056" r="75.396" transform="translate(-31.454 846.177) rotate(-45)"/><path class="cls-57" d="M789.492,405.883a3.81,3.81,0,1,1-3.81-3.811A3.81,3.81,0,0,1,789.492,405.883Z"/><circle class="cls-112" cx="785.682" cy="405.883" r="75.396" transform="translate(-56.881 674.441) rotate(-45)"/><g class="cls-93"><path class="cls-57" d="M756.635,262.486a3.81,3.81,0,1,1-3.81-3.81A3.81,3.81,0,0,1,756.635,262.486Z"/><circle class="cls-113" cx="752.825" cy="262.486" r="75.396" transform="translate(34.892 609.208) rotate(-45)"/></g><circle class="cls-57" cx="429.24" cy="832.794" r="1.773"/><circle class="cls-114" cx="429.24" cy="832.794" r="35.077"/><path class="cls-57" d="M518.642,618.235a1.773,1.773,0,1,1-1.773-1.772A1.773,1.773,0,0,1,518.642,618.235Z"/><circle class="cls-115" cx="516.869" cy="618.235" r="35.077" transform="translate(-285.771 546.559) rotate(-45)"/><circle class="cls-57" cx="445.972" cy="536.453" r="1.773"/><circle class="cls-116" cx="445.972" cy="536.453" r="35.077"/><path class="cls-57" d="M357.554,600.135a1.773,1.773,0,1,1-1.773-1.773A1.772,1.772,0,0,1,357.554,600.135Z"/><circle class="cls-117" cx="355.781" cy="600.135" r="35.077"/><path class="cls-57" d="M334.667,526.27a1.773,1.773,0,1,1-1.773-1.772A1.773,1.773,0,0,1,334.667,526.27Z"/><circle class="cls-118" cx="332.894" cy="526.27" r="35.077" transform="translate(-274.627 389.533) rotate(-45)"/><g class="cls-93"><path class="cls-57" d="M347.833,487.212a1.773,1.773,0,1,1-1.772-1.773A1.772,1.772,0,0,1,347.833,487.212Z"/><circle class="cls-119" cx="346.061" cy="487.212" r="35.077" transform="translate(-243.152 387.403) rotate(-45)"/></g><g class="cls-93"><circle class="cls-57" cx="274.576" cy="464.867" r="1.773"/><circle class="cls-120" cx="274.576" cy="464.867" r="35.077"/></g><circle class="cls-57" cx="344.288" cy="157.253" r="1.773"/><circle class="cls-121" cx="344.288" cy="157.253" r="35.077"/><path class="cls-57" d="M435.343,35.077a1.773,1.773,0,1,1-1.772-1.772A1.772,1.772,0,0,1,435.343,35.077Z"/><circle class="cls-122" cx="433.571" cy="35.077" r="35.077" transform="translate(102.187 316.855) rotate(-45)"/><g class="cls-93"><circle class="cls-57" cx="865.381" cy="354.618" r="1.773"/><circle class="cls-123" cx="865.381" cy="354.618" r="35.077" transform="translate(-69.833 358.161) rotate(-22.5)"/></g><path class="cls-57" d="M742.026,526.27a1.773,1.773,0,1,1-1.772-1.772A1.772,1.772,0,0,1,742.026,526.27Z"/><circle class="cls-124" cx="740.254" cy="526.27" r="35.077" transform="translate(-145.046 323.343) rotate(-22.5)"/><circle class="cls-57" cx="828.221" cy="547.926" r="1.773"/><circle class="cls-125" cx="828.221" cy="547.926" r="35.077" transform="translate(-146.638 358.655) rotate(-22.5)"/><path class="cls-57" d="M916.432,889.18a1.773,1.773,0,1,1-1.773-1.772A1.773,1.773,0,0,1,916.432,889.18Z"/><circle class="cls-126" cx="914.659" cy="889.18" r="35.077" transform="translate(-360.848 907.196) rotate(-45)"/><circle class="cls-57" cx="958.968" cy="944.73" r="1.773"/><circle class="cls-127" cx="958.968" cy="944.73" r="35.077" transform="translate(-387.15 954.798) rotate(-45)"/><path class="cls-57" d="M885.344,1175.3a1.773,1.773,0,1,1-1.772-1.772A1.773,1.773,0,0,1,885.344,1175.3Z"/><circle class="cls-128" cx="883.571" cy="1175.295" r="35.077" transform="translate(-463.287 1765.202) rotate(-76.717)"/><g class="cls-93"><circle class="cls-57" cx="957.195" cy="1261.541" r="1.773"/><circle class="cls-129" cx="957.195" cy="1261.541" r="35.077" transform="translate(-441.382 2004.299) rotate(-80.783)"/></g><path class="cls-57" d="M883.572,1353.138a1.773,1.773,0,1,1-1.773-1.773A1.772,1.772,0,0,1,883.572,1353.138Z"/><circle class="cls-130" cx="881.799" cy="1353.138" r="35.077" transform="translate(-637.737 1900.46) rotate(-76.717)"/><circle class="cls-57" cx="829.994" cy="1294.305" r="1.773"/><circle class="cls-131" cx="829.994" cy="1294.305" r="35.077" transform="translate(-620.381 1804.726) rotate(-76.717)"/><g class="cls-93"><path class="cls-57" d="M883.572,1259.768a1.773,1.773,0,1,1-1.773-1.773A1.773,1.773,0,0,1,883.572,1259.768Z"/><circle class="cls-132" cx="881.799" cy="1259.768" r="35.077" transform="translate(-546.865 1828.542) rotate(-76.717)"/></g><circle class="cls-57" cx="955.158" cy="1452.273" r="1.773"/><circle class="cls-133" cx="955.158" cy="1452.273" r="35.077" transform="translate(-747.153 1100.759) rotate(-45)"/><circle class="cls-57" cx="733.787" cy="1471.464" r="1.773"/><circle class="cls-134" cx="733.786" cy="1471.464" r="35.077" transform="translate(-825.561 949.847) rotate(-45)"/><circle class="cls-57" cx="721.287" cy="1411.42" r="1.773"/><circle class="cls-135" cx="721.287" cy="1411.42" r="35.077" transform="translate(-786.765 923.422) rotate(-45)"/><path class="cls-57" d="M561.557,1465.807a1.773,1.773,0,1,1-1.773-1.773A1.773,1.773,0,0,1,561.557,1465.807Z"/><circle class="cls-136" cx="559.784" cy="1465.807" r="35.077" transform="translate(-995.422 1673.843) rotate(-76.717)"/><circle class="cls-57" cx="410.715" cy="1441.311" r="1.773"/><circle class="cls-137" cx="410.715" cy="1441.311" r="35.077"/><path class="cls-57" d="M328.65,1551.264a1.773,1.773,0,1,1-1.773-1.773A1.772,1.772,0,0,1,328.65,1551.264Z"/><circle class="cls-138" cx="326.877" cy="1551.264" r="35.077" transform="translate(-1001.169 685.492) rotate(-45)"/><g class="cls-93"><path class="cls-57" d="M280.942,1464.034a1.773,1.773,0,1,1-1.772-1.773A1.772,1.772,0,0,1,280.942,1464.034Z"/><circle class="cls-139" cx="279.17" cy="1464.034" r="35.077"/></g><path class="cls-57" d="M328.65,1376.458a1.773,1.773,0,1,1-1.773-1.773A1.772,1.772,0,0,1,328.65,1376.458Z"/><circle class="cls-140" cx="326.877" cy="1376.458" r="35.077"/><g class="cls-93"><path class="cls-57" d="M241.272,1325.656a1.773,1.773,0,1,1-1.773-1.773A1.773,1.773,0,0,1,241.272,1325.656Z"/><circle class="cls-141" cx="239.499" cy="1325.656" r="35.077" transform="translate(-867.233 557.627) rotate(-45)"/></g><path class="cls-57" d="M132.173,1168.275a1.773,1.773,0,1,1-1.773-1.773A1.773,1.773,0,0,1,132.173,1168.275Z"/><circle class="cls-142" cx="130.4" cy="1168.275" r="35.077" transform="translate(-1036.582 1026.772) rotate(-76.717)"/></g></g></g></g></svg>