<svg xmlns="http://www.w3.org/2000/svg" xmlns:xlink="http://www.w3.org/1999/xlink" viewBox="0 0 1507.242 1383.155"><defs><style>.cls-1{isolation:isolate;}.cls-2{fill:url(#Áåçûìÿííûé_ãðàäèåíò_305);}.cls-3{fill:url(#Áåçûìÿííûé_ãðàäèåíò_42);}.cls-4{fill:url(#Áåçûìÿííûé_ãðàäèåíò_42-2);}.cls-5{fill:url(#Áåçûìÿííûé_ãðàäèåíò_709);}.cls-10,.cls-15,.cls-17,.cls-18,.cls-19,.cls-25,.cls-26,.cls-27,.cls-28,.cls-29,.cls-45,.cls-52,.cls-53,.cls-6,.cls-7,.cls-8,.cls-9{opacity:0.67;}.cls-10,.cls-11,.cls-12,.cls-15,.cls-17,.cls-18,.cls-19,.cls-21,.cls-22,.cls-24,.cls-25,.cls-26,.cls-27,.cls-28,.cls-29,.cls-45,.cls-52,.cls-53,.cls-6,.cls-7,.cls-8,.cls-9{mix-blend-mode:multiply;}.cls-6{fill:url(#Áåçûìÿííûé_ãðàäèåíò_258);}.cls-7{fill:url(#Áåçûìÿííûé_ãðàäèåíò_258-2);}.cls-8{fill:url(#Áåçûìÿííûé_ãðàäèåíò_258-3);}.cls-9{fill:url(#Áåçûìÿííûé_ãðàäèåíò_721);}.cls-10{fill:url(#Áåçûìÿííûé_ãðàäèåíò_722);}.cls-11{fill:#8d2960;}.cls-11,.cls-24{opacity:0.22;}.cls-12,.cls-22{opacity:0.56;}.cls-12{fill:url(#Áåçûìÿííûé_ãðàäèåíò_715);}.cls-13{fill:url(#Áåçûìÿííûé_ãðàäèåíò_42-3);}.cls-14{fill:url(#Áåçûìÿííûé_ãðàäèåíò_305-2);}.cls-15{fill:url(#Áåçûìÿííûé_ãðàäèåíò_258-4);}.cls-16{fill:url(#Áåçûìÿííûé_ãðàäèåíò_42-4);}.cls-17{fill:url(#Áåçûìÿííûé_ãðàäèåíò_403);}.cls-18{fill:url(#Áåçûìÿííûé_ãðàäèåíò_403-2);}.cls-19{fill:url(#Áåçûìÿííûé_ãðàäèåíò_403-3);}.cls-20{fill:url(#Áåçûìÿííûé_ãðàäèåíò_16);}.cls-21{opacity:0.78;}.cls-22{fill:url(#Áåçûìÿííûé_ãðàäèåíò_310);}.cls-23{fill:url(#Áåçûìÿííûé_ãðàäèåíò_42-5);}.cls-24{fill:#34834f;}.cls-25{fill:url(#Áåçûìÿííûé_ãðàäèåíò_258-5);}.cls-26{fill:url(#Áåçûìÿííûé_ãðàäèåíò_258-6);}.cls-27{fill:url(#Áåçûìÿííûé_ãðàäèåíò_258-7);}.cls-28{fill:url(#Áåçûìÿííûé_ãðàäèåíò_258-8);}.cls-29{fill:url(#Áåçûìÿííûé_ãðàäèåíò_306);}.cls-100,.cls-101,.cls-102,.cls-103,.cls-104,.cls-105,.cls-106,.cls-107,.cls-108,.cls-109,.cls-110,.cls-111,.cls-112,.cls-113,.cls-114,.cls-115,.cls-116,.cls-117,.cls-118,.cls-119,.cls-120,.cls-30,.cls-31,.cls-32,.cls-33,.cls-34,.cls-35,.cls-36,.cls-37,.cls-38,.cls-39,.cls-40,.cls-41,.cls-42,.cls-44,.cls-48,.cls-49,.cls-50,.cls-51,.cls-54,.cls-55,.cls-56,.cls-57,.cls-58,.cls-59,.cls-60,.cls-61,.cls-62,.cls-63,.cls-64,.cls-65,.cls-66,.cls-67,.cls-68,.cls-69,.cls-70,.cls-71,.cls-73,.cls-74,.cls-75,.cls-76,.cls-77,.cls-78,.cls-79,.cls-80,.cls-81,.cls-82,.cls-83,.cls-84,.cls-85,.cls-86,.cls-87,.cls-88,.cls-89,.cls-90,.cls-91,.cls-92,.cls-93,.cls-94,.cls-95,.cls-96,.cls-97,.cls-98,.cls-99{mix-blend-mode:screen;}.cls-30{fill:url(#Áåçûìÿííûé_ãðàäèåíò_237);}.cls-31{fill:url(#Áåçûìÿííûé_ãðàäèåíò_237-2);}.cls-32,.cls-33,.cls-50{opacity:0.62;}.cls-32{fill:url(#Áåçûìÿííûé_ãðàäèåíò_313);}.cls-33{fill:url(#Áåçûìÿííûé_ãðàäèåíò_312);}.cls-34{fill:url(#Áåçûìÿííûé_ãðàäèåíò_322);}.cls-35{fill:url(#Áåçûìÿííûé_ãðàäèåíò_319);}.cls-36{fill:url(#Áåçûìÿííûé_ãðàäèåíò_313-2);}.cls-37{fill:url(#Áåçûìÿííûé_ãðàäèåíò_313-3);}.cls-38{fill:url(#Áåçûìÿííûé_ãðàäèåíò_313-4);}.cls-39{fill:url(#Áåçûìÿííûé_ãðàäèåíò_313-5);}.cls-40,.cls-41{opacity:0.4;}.cls-40{fill:url(#Áåçûìÿííûé_ãðàäèåíò_316);}.cls-41{fill:url(#Áåçûìÿííûé_ãðàäèåíò_316-2);}.cls-42{fill:url(#Áåçûìÿííûé_ãðàäèåíò_313-6);}.cls-43{fill:#fff;}.cls-44,.cls-48,.cls-54,.cls-58{opacity:0.57;}.cls-44{fill:url(#Áåçûìÿííûé_ãðàäèåíò_401);}.cls-46{fill:url(#Áåçûìÿííûé_ãðàäèåíò_404);}.cls-47{fill:url(#Áåçûìÿííûé_ãðàäèåíò_403-4);}.cls-48{fill:url(#Áåçûìÿííûé_ãðàäèåíò_716);}.cls-49{fill:url(#Áåçûìÿííûé_ãðàäèåíò_707);}.cls-50{fill:url(#Áåçûìÿííûé_ãðàäèåíò_708);}.cls-51{fill:url(#radial-gradient);}.cls-52{fill:url(#Áåçûìÿííûé_ãðàäèåíò_710);}.cls-53{fill:url(#Áåçûìÿííûé_ãðàäèåíò_710-2);}.cls-54{fill:url(#Áåçûìÿííûé_ãðàäèåíò_713);}.cls-55,.cls-56,.cls-57{opacity:0.26;}.cls-55{fill:url(#Áåçûìÿííûé_ãðàäèåíò_713-2);}.cls-56{fill:url(#Áåçûìÿííûé_ãðàäèåíò_713-3);}.cls-57{fill:url(#Áåçûìÿííûé_ãðàäèåíò_713-4);}.cls-58{fill:url(#Áåçûìÿííûé_ãðàäèåíò_713-5);}.cls-59{fill:url(#radial-gradient-2);}.cls-100,.cls-101,.cls-102,.cls-103,.cls-104,.cls-105,.cls-106,.cls-107,.cls-108,.cls-109,.cls-110,.cls-111,.cls-112,.cls-113,.cls-114,.cls-115,.cls-116,.cls-117,.cls-118,.cls-119,.cls-120,.cls-60,.cls-61,.cls-62,.cls-63,.cls-64,.cls-65,.cls-66,.cls-67,.cls-68,.cls-69,.cls-70,.cls-71,.cls-73,.cls-74,.cls-75,.cls-76,.cls-77,.cls-78,.cls-79,.cls-80,.cls-81,.cls-82,.cls-83,.cls-84,.cls-85,.cls-86,.cls-87,.cls-88,.cls-89,.cls-90,.cls-91,.cls-92,.cls-93,.cls-94,.cls-95,.cls-96,.cls-97,.cls-98,.cls-99{opacity:0.68;}.cls-60{fill:url(#radial-gradient-3);}.cls-61{fill:url(#radial-gradient-4);}.cls-62{fill:url(#radial-gradient-5);}.cls-63{fill:url(#radial-gradient-6);}.cls-64{fill:url(#radial-gradient-7);}.cls-65{fill:url(#radial-gradient-8);}.cls-66{fill:url(#radial-gradient-9);}.cls-67{fill:url(#radial-gradient-10);}.cls-68{fill:url(#radial-gradient-11);}.cls-69{fill:url(#radial-gradient-12);}.cls-70{fill:url(#radial-gradient-13);}.cls-71{fill:url(#radial-gradient-14);}.cls-72{opacity:0.34;}.cls-73{fill:url(#radial-gradient-15);}.cls-74{fill:url(#radial-gradient-16);}.cls-75{fill:url(#radial-gradient-17);}.cls-76{fill:url(#radial-gradient-18);}.cls-77{fill:url(#radial-gradient-19);}.cls-78{fill:url(#radial-gradient-20);}.cls-79{fill:url(#radial-gradient-21);}.cls-80{fill:url(#radial-gradient-22);}.cls-81{fill:url(#radial-gradient-23);}.cls-82{fill:url(#radial-gradient-24);}.cls-83{fill:url(#radial-gradient-25);}.cls-84{fill:url(#radial-gradient-26);}.cls-85{fill:url(#radial-gradient-27);}.cls-86{fill:url(#radial-gradient-28);}.cls-87{fill:url(#radial-gradient-29);}.cls-88{fill:url(#radial-gradient-30);}.cls-89{fill:url(#radial-gradient-31);}.cls-90{fill:url(#radial-gradient-32);}.cls-91{fill:url(#radial-gradient-33);}.cls-92{fill:url(#radial-gradient-34);}.cls-93{fill:url(#radial-gradient-35);}.cls-94{fill:url(#radial-gradient-36);}.cls-95{fill:url(#radial-gradient-37);}.cls-96{fill:url(#radial-gradient-38);}.cls-97{fill:url(#radial-gradient-39);}.cls-98{fill:url(#radial-gradient-40);}.cls-99{fill:url(#radial-gradient-41);}.cls-100{fill:url(#radial-gradient-42);}.cls-101{fill:url(#radial-gradient-43);}.cls-102{fill:url(#radial-gradient-44);}.cls-103{fill:url(#radial-gradient-45);}.cls-104{fill:url(#radial-gradient-46);}.cls-105{fill:url(#radial-gradient-47);}.cls-106{fill:url(#radial-gradient-48);}.cls-107{fill:url(#radial-gradient-49);}.cls-108{fill:url(#radial-gradient-50);}.cls-109{fill:url(#radial-gradient-51);}.cls-110{fill:url(#radial-gradient-52);}.cls-111{fill:url(#radial-gradient-53);}.cls-112{fill:url(#radial-gradient-54);}.cls-113{fill:url(#radial-gradient-55);}.cls-114{fill:url(#radial-gradient-56);}.cls-115{fill:url(#radial-gradient-57);}.cls-116{fill:url(#radial-gradient-58);}.cls-117{fill:url(#radial-gradient-59);}.cls-118{fill:url(#radial-gradient-60);}.cls-119{fill:url(#radial-gradient-61);}.cls-120{fill:url(#radial-gradient-62);}</style><linearGradient id="Áåçûìÿííûé_ãðàäèåíò_305" x1="291.344" y1="1129.63" x2="291.344" y2="801.4" gradientUnits="userSpaceOnUse"><stop offset="0" stop-color="#474312"/><stop offset="1" stop-color="#ac9c01"/></linearGradient><linearGradient id="Áåçûìÿííûé_ãðàäèåíò_42" x1="1090.203" y1="949.01" x2="1090.203" y2="839.623" gradientUnits="userSpaceOnUse"><stop offset="0" stop-color="#605d00"/><stop offset="1" stop-color="#ac9c01"/></linearGradient><linearGradient id="Áåçûìÿííûé_ãðàäèåíò_42-2" x1="1034.459" y1="952.272" x2="1034.459" y2="784.303" xlink:href="#Áåçûìÿííûé_ãðàäèåíò_42"/><linearGradient id="Áåçûìÿííûé_ãðàäèåíò_709" x1="1130.072" y1="993.404" x2="1027.72" y2="856.455" gradientUnits="userSpaceOnUse"><stop offset="0.137" stop-color="#ff0"/><stop offset="0.266" stop-color="#ffdf20"/><stop offset="0.55" stop-color="#ff8d72"/><stop offset="0.966" stop-color="#ff0bf3"/><stop offset="1" stop-color="#ff00fe"/></linearGradient><linearGradient id="Áåçûìÿííûé_ãðàäèåíò_258" x1="268.043" y1="903.637" x2="310.995" y2="903.637" gradientUnits="userSpaceOnUse"><stop offset="0" stop-color="#fff"/><stop offset="1" stop-color="#31653d"/></linearGradient><linearGradient id="Áåçûìÿííûé_ãðàäèåíò_258-2" x1="293.465" y1="880.73" x2="344.204" y2="880.73" xlink:href="#Áåçûìÿííûé_ãðàäèåíò_258"/><linearGradient id="Áåçûìÿííûé_ãðàäèåíò_258-3" x1="163.051" y1="1049.612" x2="419.638" y2="1049.612" xlink:href="#Áåçûìÿííûé_ãðàäèåíò_258"/><linearGradient id="Áåçûìÿííûé_ãðàäèåíò_721" x1="1078.858" y1="904.631" x2="874.377" y2="904.631" gradientUnits="userSpaceOnUse"><stop offset="0.378" stop-color="#31653d"/><stop offset="1" stop-color="#fff"/></linearGradient><linearGradient id="Áåçûìÿííûé_ãðàäèåíò_722" x1="1518.521" y1="805.3" x2="1075.221" y2="805.3" gradientUnits="userSpaceOnUse"><stop offset="0.748" stop-color="#31653d"/><stop offset="1" stop-color="#fff"/></linearGradient><linearGradient id="Áåçûìÿííûé_ãðàäèåíò_715" x1="1045.497" y1="860.508" x2="1108.472" y2="974.315" gradientUnits="userSpaceOnUse"><stop offset="0.509" stop-color="#fff"/><stop offset="1" stop-color="#9c006d"/></linearGradient><linearGradient id="Áåçûìÿííûé_ãðàäèåíò_42-3" x1="1288.566" y1="1208.635" x2="1288.566" y2="1205.963" xlink:href="#Áåçûìÿííûé_ãðàäèåíò_42"/><linearGradient id="Áåçûìÿííûé_ãðàäèåíò_305-2" x1="1094.777" y1="1211.683" x2="1094.777" y2="884.981" xlink:href="#Áåçûìÿííûé_ãðàäèåíò_305"/><linearGradient id="Áåçûìÿííûé_ãðàäèåíò_258-4" x1="1053.859" y1="1467.233" x2="1053.859" y2="1101.435" xlink:href="#Áåçûìÿííûé_ãðàäèåíò_258"/><linearGradient id="Áåçûìÿííûé_ãðàäèåíò_42-4" x1="1066.762" y1="514.641" x2="1425.121" y2="572.769" xlink:href="#Áåçûìÿííûé_ãðàäèåíò_42"/><linearGradient id="Áåçûìÿííûé_ãðàäèåíò_403" x1="898.879" y1="1368.296" x2="1130.073" y2="1137.463" gradientUnits="userSpaceOnUse"><stop offset="0" stop-color="#31653d"/><stop offset="1" stop-color="#fff"/></linearGradient><linearGradient id="Áåçûìÿííûé_ãðàäèåíò_403-2" x1="965.098" y1="456.899" x2="1207.223" y2="699.024" xlink:href="#Áåçûìÿííûé_ãðàäèåíò_403"/><linearGradient id="Áåçûìÿííûé_ãðàäèåíò_403-3" x1="1116.977" y1="927.115" x2="1100.444" y2="1126.557" xlink:href="#Áåçûìÿííûé_ãðàäèåíò_403"/><linearGradient id="Áåçûìÿííûé_ãðàäèåíò_16" x1="836.121" y1="382.332" x2="1237.048" y2="722.891" gradientUnits="userSpaceOnUse"><stop offset="0" stop-color="#ff0"/><stop offset="0.149" stop-color="#ffdf20"/><stop offset="0.478" stop-color="#ff8d72"/><stop offset="0.96" stop-color="#ff0bf3"/><stop offset="1" stop-color="#ff00fe"/></linearGradient><linearGradient id="Áåçûìÿííûé_ãðàäèåíò_310" x1="794.237" y1="412.927" x2="1097.59" y2="583.778" gradientUnits="userSpaceOnUse"><stop offset="0" stop-color="#fff"/><stop offset="1" stop-color="#9c006d"/></linearGradient><linearGradient id="Áåçûìÿííûé_ãðàäèåíò_42-5" x1="600.059" y1="976.923" x2="600.059" y2="81.461" xlink:href="#Áåçûìÿííûé_ãðàäèåíò_42"/><linearGradient id="Áåçûìÿííûé_ãðàäèåíò_258-5" x1="1084.583" y1="1132.976" x2="1084.583" y2="1045.828" xlink:href="#Áåçûìÿííûé_ãðàäèåíò_258"/><linearGradient id="Áåçûìÿííûé_ãðàäèåíò_258-6" x1="1105.019" y1="1467.233" x2="1105.019" y2="1101.435" xlink:href="#Áåçûìÿííûé_ãðàäèåíò_258"/><linearGradient id="Áåçûìÿííûé_ãðàäèåíò_258-7" x1="1090.203" y1="1132.976" x2="1090.203" y2="1045.828" xlink:href="#Áåçûìÿííûé_ãðàäèåíò_258"/><linearGradient id="Áåçûìÿííûé_ãðàäèåíò_258-8" x1="487.521" y1="1635.782" x2="487.521" y2="979.587" xlink:href="#Áåçûìÿííûé_ãðàäèåíò_258"/><linearGradient id="Áåçûìÿííûé_ãðàäèåíò_306" x1="566.203" y1="739.211" x2="566.203" y2="395.619" gradientUnits="userSpaceOnUse"><stop offset="0" stop-color="#fff"/><stop offset="0.117" stop-color="#dee6df"/><stop offset="0.349" stop-color="#a1b8a6"/><stop offset="0.561" stop-color="#719479"/><stop offset="0.747" stop-color="#4e7b58"/><stop offset="0.9" stop-color="#396b44"/><stop offset="1" stop-color="#31653d"/></linearGradient><linearGradient id="Áåçûìÿííûé_ãðàäèåíò_237" x1="848.377" y1="646.606" x2="920.823" y2="719.052" gradientUnits="userSpaceOnUse"><stop offset="0" stop-color="#b3e72c"/><stop offset="1"/></linearGradient><linearGradient id="Áåçûìÿííûé_ãðàäèåíò_237-2" x1="907.067" y1="380.238" x2="1158.646" y2="631.817" xlink:href="#Áåçûìÿííûé_ãðàäèåíò_237"/><linearGradient id="Áåçûìÿííûé_ãðàäèåíò_313" x1="958.394" y1="359.486" x2="1086.817" y2="543.011" gradientUnits="userSpaceOnUse"><stop offset="0" stop-color="#ff7"/><stop offset="0.112" stop-color="#dede67"/><stop offset="0.442" stop-color="#80803c"/><stop offset="0.71" stop-color="#3b3b1c"/><stop offset="0.902" stop-color="#101008"/><stop offset="1"/></linearGradient><linearGradient id="Áåçûìÿííûé_ãðàäèåíò_312" x1="864.927" y1="630.057" x2="998.361" y2="763.491" gradientUnits="userSpaceOnUse"><stop offset="0" stop-color="#ff7"/><stop offset="0.113" stop-color="#caca5e"/><stop offset="0.241" stop-color="#959545"/><stop offset="0.37" stop-color="#676730"/><stop offset="0.499" stop-color="#42421f"/><stop offset="0.627" stop-color="#252511"/><stop offset="0.753" stop-color="#101008"/><stop offset="0.878" stop-color="#040402"/><stop offset="1"/></linearGradient><linearGradient id="Áåçûìÿííûé_ãðàäèåíò_322" x1="954.735" y1="402.242" x2="1088.134" y2="592.876" gradientUnits="userSpaceOnUse"><stop offset="0" stop-color="#ff7"/><stop offset="0.133" stop-color="#cccc5f"/><stop offset="0.31" stop-color="#8f8f43"/><stop offset="0.48" stop-color="#5c5c2b"/><stop offset="0.638" stop-color="#343418"/><stop offset="0.782" stop-color="#17170b"/><stop offset="0.908" stop-color="#060603"/><stop offset="1"/></linearGradient><linearGradient id="Áåçûìÿííûé_ãðàäèåíò_319" x1="1124.562" y1="344.284" x2="1243.23" y2="513.868" gradientUnits="userSpaceOnUse"><stop offset="0" stop-color="#ff7"/><stop offset="0.159" stop-color="#c1c15a"/><stop offset="0.326" stop-color="#87873f"/><stop offset="0.488" stop-color="#565628"/><stop offset="0.64" stop-color="#313117"/><stop offset="0.78" stop-color="#16160a"/><stop offset="0.904" stop-color="#060603"/><stop offset="1"/></linearGradient><linearGradient id="Áåçûìÿííûé_ãðàäèåíò_313-2" x1="883.679" y1="493.435" x2="909.445" y2="530.256" xlink:href="#Áåçûìÿííûé_ãðàäèåíò_313"/><linearGradient id="Áåçûìÿííûé_ãðàäèåíò_313-3" x1="887.255" y1="557.26" x2="923.585" y2="609.179" xlink:href="#Áåçûìÿííûé_ãðàäèåíò_313"/><linearGradient id="Áåçûìÿííûé_ãðàäèåíò_313-4" x1="895.156" y1="632.169" x2="961.98" y2="727.665" xlink:href="#Áåçûìÿííûé_ãðàäèåíò_313"/><linearGradient id="Áåçûìÿííûé_ãðàäèåíò_313-5" x1="1029.255" y1="745.332" x2="1093.129" y2="836.611" gradientTransform="matrix(0.996, -0.089, 0.089, 0.996, -57.123, 201.601)" xlink:href="#Áåçûìÿííûé_ãðàäèåíò_313"/><linearGradient id="Áåçûìÿííûé_ãðàäèåíò_316" x1="954.376" y1="709.171" x2="1003.617" y2="758.412" gradientUnits="userSpaceOnUse"><stop offset="0.163"/><stop offset="0.245" stop-color="#101008"/><stop offset="0.406" stop-color="#3b3b1c"/><stop offset="0.63" stop-color="#80803c"/><stop offset="0.906" stop-color="#dede67"/><stop offset="1" stop-color="#ff7"/></linearGradient><linearGradient id="Áåçûìÿííûé_ãðàäèåíò_316-2" x1="1112.83" y1="569.519" x2="1225.942" y2="682.631" xlink:href="#Áåçûìÿííûé_ãðàäèåíò_316"/><linearGradient id="Áåçûìÿííûé_ãðàäèåíò_313-6" x1="1427.113" y1="-402.267" x2="1443.822" y2="-385.558" gradientTransform="translate(109.954 1662.012) rotate(-41.988)" xlink:href="#Áåçûìÿííûé_ãðàäèåíò_313"/><linearGradient id="Áåçûìÿííûé_ãðàäèåíò_401" x1="823.401" y1="287.42" x2="995.768" y2="459.787" gradientUnits="userSpaceOnUse"><stop offset="0.077"/><stop offset="0.378" stop-color="#393e11"/><stop offset="1" stop-color="#b8c738"/></linearGradient><linearGradient id="Áåçûìÿííûé_ãðàäèåíò_404" x1="1107.401" y1="868.998" x2="-175.63" y2="428.83" gradientUnits="userSpaceOnUse"><stop offset="0" stop-color="#31653d"/><stop offset="0.185" stop-color="#688e71"/><stop offset="0.389" stop-color="#9db6a3"/><stop offset="0.58" stop-color="#c8d6cb"/><stop offset="0.751" stop-color="#e6ece7"/><stop offset="0.897" stop-color="#f8faf9"/><stop offset="1" stop-color="#fff"/></linearGradient><linearGradient id="Áåçûìÿííûé_ãðàäèåíò_403-4" x1="699.199" y1="676.314" x2="698.846" y2="676.668" xlink:href="#Áåçûìÿííûé_ãðàäèåíò_403"/><linearGradient id="Áåçûìÿííûé_ãðàäèåíò_716" x1="1046.729" y1="893.252" x2="1184.884" y2="1031.407" gradientUnits="userSpaceOnUse"><stop offset="0.526" stop-color="#b8c738"/><stop offset="0.793" stop-color="#393e11"/><stop offset="0.923"/></linearGradient><linearGradient id="Áåçûìÿííûé_ãðàäèåíò_707" x1="1046.728" y1="850.746" x2="1102.68" y2="966.467" gradientUnits="userSpaceOnUse"><stop offset="0.351"/><stop offset="1" stop-color="#b3e72c"/></linearGradient><linearGradient id="Áåçûìÿííûé_ãðàäèåíò_708" x1="1009.42" y1="874.683" x2="1120.265" y2="928.72" gradientUnits="userSpaceOnUse"><stop offset="0.031" stop-color="#ff7"/><stop offset="0.113" stop-color="#dfdf68"/><stop offset="0.301" stop-color="#9c9c49"/><stop offset="0.48" stop-color="#65652f"/><stop offset="0.644" stop-color="#39391b"/><stop offset="0.79" stop-color="#1a1a0c"/><stop offset="0.914" stop-color="#070703"/><stop offset="1"/></linearGradient><radialGradient id="radial-gradient" cx="1105.019" cy="602.644" fx="999.1041587443023" fy="489.4961804391486" r="357.97" gradientUnits="userSpaceOnUse"><stop offset="0" stop-color="#ff0"/><stop offset="0.322" stop-color="#9c9c00" stop-opacity="0.612"/><stop offset="0.616" stop-color="#484800" stop-opacity="0.283"/><stop offset="0.822" stop-color="#141400" stop-opacity="0.079"/><stop offset="0.923" stop-opacity="0"/></radialGradient><linearGradient id="Áåçûìÿííûé_ãðàäèåíò_710" x1="376.631" y1="284.185" x2="295.85" y2="364.966" gradientUnits="userSpaceOnUse"><stop offset="0" stop-color="#31653d"/><stop offset="0.1" stop-color="#396b44"/><stop offset="0.253" stop-color="#4e7b58"/><stop offset="0.439" stop-color="#719479"/><stop offset="0.651" stop-color="#a1b8a6"/><stop offset="0.883" stop-color="#dee6df"/><stop offset="1" stop-color="#fff"/></linearGradient><linearGradient id="Áåçûìÿííûé_ãðàäèåíò_710-2" x1="485.927" y1="282.931" x2="377.023" y2="391.834" xlink:href="#Áåçûìÿííûé_ãðàäèåíò_710"/><linearGradient id="Áåçûìÿííûé_ãðàäèåíò_713" x1="992.869" y1="1117.207" x2="935.476" y2="1174.601" gradientUnits="userSpaceOnUse"><stop offset="0" stop-color="#b8c738"/><stop offset="0.578" stop-color="#393e11"/><stop offset="0.858"/></linearGradient><linearGradient id="Áåçûìÿííûé_ãðàäèåíò_713-2" x1="464.137" y1="1247.335" x2="431.837" y2="1279.635" xlink:href="#Áåçûìÿííûé_ãðàäèåíò_713"/><linearGradient id="Áåçûìÿííûé_ãðàäèåíò_713-3" x1="668.59" y1="1070.729" x2="569.682" y2="1169.638" xlink:href="#Áåçûìÿííûé_ãðàäèåíò_713"/><linearGradient id="Áåçûìÿííûé_ãðàäèåíò_713-4" x1="577.355" y1="1137.383" x2="458.718" y2="1256.02" xlink:href="#Áåçûìÿííûé_ãðàäèåíò_713"/><linearGradient id="Áåçûìÿííûé_ãðàäèåíò_713-5" x1="753.646" y1="765.93" x2="527.885" y2="991.691" xlink:href="#Áåçûìÿííûé_ãðàäèåíò_713"/><radialGradient id="radial-gradient-2" cx="3448.425" cy="888.44" fx="3407.0849358603446" fy="844.2768427823532" r="139.72" gradientTransform="matrix(-1, 0, 0, -0.743, 4507.09, 1565.204)" xlink:href="#radial-gradient"/><radialGradient id="radial-gradient-3" cx="1496.453" cy="1271.385" r="75.785" gradientTransform="matrix(0.333, 0.943, -0.943, 0.333, 1785.096, -1087.035)" gradientUnits="userSpaceOnUse"><stop offset="0" stop-color="#ff0"/><stop offset="0.11" stop-color="#c6c600" stop-opacity="0.777"/><stop offset="0.225" stop-color="#929200" stop-opacity="0.573"/><stop offset="0.343" stop-color="#656500" stop-opacity="0.397"/><stop offset="0.459" stop-color="#414100" stop-opacity="0.254"/><stop offset="0.576" stop-color="#242400" stop-opacity="0.143"/><stop offset="0.692" stop-color="#101000" stop-opacity="0.063"/><stop offset="0.808" stop-color="#040400" stop-opacity="0.016"/><stop offset="0.923" stop-opacity="0"/></radialGradient><radialGradient id="radial-gradient-4" cx="991.243" cy="296.093" r="75.785" gradientTransform="translate(499.698 -614.191) rotate(45)" xlink:href="#radial-gradient-3"/><radialGradient id="radial-gradient-5" cx="610.008" cy="788.65" r="75.785" gradientTransform="translate(736.327 -200.35) rotate(45)" xlink:href="#radial-gradient-3"/><radialGradient id="radial-gradient-6" cx="968.385" cy="447.197" r="75.785" gradientTransform="translate(599.849 -553.771) rotate(45)" xlink:href="#radial-gradient-3"/><radialGradient id="radial-gradient-7" cx="1112.637" cy="203.504" r="75.785" gradientTransform="translate(469.783 -727.148) rotate(45)" xlink:href="#radial-gradient-3"/><radialGradient id="radial-gradient-8" cx="1134.024" cy="251.83" r="75.785" gradientTransform="translate(510.219 -728.116) rotate(45)" xlink:href="#radial-gradient-3"/><radialGradient id="radial-gradient-9" cx="973.285" cy="998.046" r="75.785" gradientTransform="translate(990.794 -395.896) rotate(45)" xlink:href="#radial-gradient-3"/><radialGradient id="radial-gradient-10" cx="1031.926" cy="789.017" r="75.785" gradientTransform="translate(860.164 -498.584) rotate(45)" xlink:href="#radial-gradient-3"/><radialGradient id="radial-gradient-11" cx="1069.319" cy="911.092" r="75.785" gradientTransform="translate(957.435 -489.27) rotate(45)" xlink:href="#radial-gradient-3"/><radialGradient id="radial-gradient-12" cx="1021.093" cy="371.412" r="75.785" gradientTransform="translate(561.699 -613.238) rotate(45)" xlink:href="#radial-gradient-3"/><radialGradient id="radial-gradient-13" cx="1217.952" cy="936.614" r="75.785" gradientTransform="translate(1019.016 -586.894) rotate(45)" xlink:href="#radial-gradient-3"/><radialGradient id="radial-gradient-14" cx="610.888" cy="630.813" r="75.785" gradientTransform="translate(624.977 -247.202) rotate(45)" xlink:href="#radial-gradient-3"/><radialGradient id="radial-gradient-15" cx="321.89" cy="589.224" r="75.785" gradientTransform="translate(510.924 -55.031) rotate(45)" xlink:href="#radial-gradient-3"/><radialGradient id="radial-gradient-16" cx="1278.674" cy="1064.897" r="75.785" gradientTransform="translate(1127.511 -592.258) rotate(45)" xlink:href="#radial-gradient-3"/><radialGradient id="radial-gradient-17" cx="1396.198" cy="926.253" r="75.785" gradientTransform="translate(1063.897 -715.968) rotate(45)" xlink:href="#radial-gradient-3"/><radialGradient id="radial-gradient-18" cx="1393.984" cy="881.888" r="75.785" gradientTransform="matrix(0.676, 0.737, -0.737, 0.676, 1009.54, -1214.94)" xlink:href="#radial-gradient-3"/><radialGradient id="radial-gradient-19" cx="1286.773" cy="583.597" r="75.785" gradientTransform="translate(789.552 -738.955) rotate(45)" xlink:href="#radial-gradient-3"/><radialGradient id="radial-gradient-20" cx="1555.603" cy="1154.553" r="75.785" gradientTransform="translate(3126.712 428.329) rotate(135.002)" xlink:href="#radial-gradient-3"/><radialGradient id="radial-gradient-21" cx="606.111" cy="382.361" r="75.785" gradientTransform="translate(447.896 -316.594) rotate(45)" xlink:href="#radial-gradient-3"/><radialGradient id="radial-gradient-22" cx="852.139" cy="422.536" r="75.785" gradientTransform="translate(548.364 -478.795) rotate(45)" xlink:href="#radial-gradient-3"/><radialGradient id="radial-gradient-23" cx="1249.734" cy="303.976" r="75.785" gradientTransform="translate(580.982 -794.662) rotate(45)" xlink:href="#radial-gradient-3"/><radialGradient id="radial-gradient-24" cx="944.121" cy="714.243" r="35.258" gradientTransform="translate(1422.343 -368.721) rotate(76.717)" xlink:href="#radial-gradient-3"/><radialGradient id="radial-gradient-25" cx="968.972" cy="667.88" r="35.258" gradientTransform="translate(1396.362 -428.618) rotate(76.717)" xlink:href="#radial-gradient-3"/><radialGradient id="radial-gradient-26" cx="580.372" cy="417.619" r="35.258" gradientTransform="matrix(1, 0, 0, 1, 0, 0)" xlink:href="#radial-gradient-3"/><radialGradient id="radial-gradient-27" cx="361.099" cy="904.836" r="35.258" gradientTransform="matrix(1, 0, 0, 1, 0, 0)" xlink:href="#radial-gradient-3"/><radialGradient id="radial-gradient-28" cx="173.688" cy="653.349" r="35.258" gradientTransform="translate(512.859 68.545) rotate(45)" xlink:href="#radial-gradient-3"/><radialGradient id="radial-gradient-29" cx="311.53" cy="983.294" r="35.258" gradientTransform="translate(400.004 -44.368) rotate(22.5)" xlink:href="#radial-gradient-3"/><radialGradient id="radial-gradient-30" cx="435.6" cy="1077.37" r="35.258" gradientTransform="translate(889.4 7.539) rotate(45)" xlink:href="#radial-gradient-3"/><radialGradient id="radial-gradient-31" cx="1444.464" cy="1114.893" r="35.258" gradientTransform="translate(2642.223 -467.17) rotate(106.423)" xlink:href="#radial-gradient-3"/><radialGradient id="radial-gradient-32" cx="993.724" cy="977.068" r="35.258" gradientTransform="translate(981.946 -416.492) rotate(45)" xlink:href="#radial-gradient-3"/><radialGradient id="radial-gradient-33" cx="293.718" cy="994.453" r="35.258" gradientTransform="translate(789.213 83.578) rotate(45)" xlink:href="#radial-gradient-3"/><radialGradient id="radial-gradient-34" cx="1398.129" cy="1177.93" r="35.258" gradientTransform="translate(2223.325 -453.43) rotate(76.717)" xlink:href="#radial-gradient-3"/><radialGradient id="radial-gradient-35" cx="1379.465" cy="1081.276" r="35.258" gradientTransform="translate(1168.613 -658.731) rotate(45)" xlink:href="#radial-gradient-3"/><radialGradient id="radial-gradient-36" cx="1471.984" cy="1029.711" r="35.258" gradientTransform="matrix(1, 0, 0, 1, 0, 0)" xlink:href="#radial-gradient-3"/><radialGradient id="radial-gradient-37" cx="1375.037" cy="496.341" r="35.258" gradientTransform="translate(1542.181 -955.948) rotate(76.717)" xlink:href="#radial-gradient-3"/><radialGradient id="radial-gradient-38" cx="914.169" cy="35.258" r="35.258" gradientTransform="translate(738.451 -862.557) rotate(76.717)" xlink:href="#radial-gradient-3"/><radialGradient id="radial-gradient-39" cx="224.576" cy="1016.464" r="35.258" gradientTransform="translate(1162.252 564.36) rotate(76.717)" xlink:href="#radial-gradient-3"/><radialGradient id="radial-gradient-40" cx="1123.804" cy="1022.635" r="35.258" gradientTransform="translate(1052.267 -495.126) rotate(45)" xlink:href="#radial-gradient-3"/><radialGradient id="radial-gradient-41" cx="1757.586" cy="1370.403" r="35.258" gradientTransform="matrix(-0.16, 0.987, -0.987, -0.16, 2821.548, -509.308)" xlink:href="#radial-gradient-3"/><radialGradient id="radial-gradient-42" cx="1610.517" cy="1188.899" r="35.258" gradientTransform="translate(2817.874 -433.132) rotate(106.423)" xlink:href="#radial-gradient-3"/><radialGradient id="radial-gradient-43" cx="1082.137" cy="424.318" r="35.258" gradientTransform="matrix(1, 0, 0, 1, 0, 0)" xlink:href="#radial-gradient-3"/><radialGradient id="radial-gradient-44" cx="968.127" cy="1042.673" r="35.258" gradientTransform="translate(1842.26 -79.971) rotate(80.783)" xlink:href="#radial-gradient-3"/><radialGradient id="radial-gradient-45" cx="927.876" cy="1057.902" r="35.258" gradientTransform="translate(1576.027 -1025.765) rotate(71.972)" xlink:href="#radial-gradient-3"/><radialGradient id="radial-gradient-46" cx="918.944" cy="1098.309" r="35.258" gradientTransform="translate(2052.48 -526.876) rotate(99.198)" xlink:href="#radial-gradient-3"/><radialGradient id="radial-gradient-47" cx="1429.224" cy="586.624" r="35.258" gradientTransform="matrix(1, 0, 0, 1, 0, 0)" xlink:href="#radial-gradient-3"/><radialGradient id="radial-gradient-48" cx="187.65" cy="745.321" r="35.258" gradientTransform="translate(869.92 391.451) rotate(76.717)" xlink:href="#radial-gradient-3"/><radialGradient id="radial-gradient-49" cx="891.914" cy="937.685" r="35.258" gradientTransform="translate(1599.595 -145.805) rotate(76.717)" xlink:href="#radial-gradient-3"/><radialGradient id="radial-gradient-50" cx="785.658" cy="542.015" r="35.258" gradientTransform="translate(613.377 -396.792) rotate(45)" xlink:href="#radial-gradient-3"/><radialGradient id="radial-gradient-51" cx="619.842" cy="530.963" r="35.258" gradientTransform="translate(1044.661 -165.926) rotate(80.783)" xlink:href="#radial-gradient-3"/><radialGradient id="radial-gradient-52" cx="260.274" cy="651.638" r="35.258" gradientTransform="translate(269.183 -49.999) rotate(22.5)" xlink:href="#radial-gradient-3"/><radialGradient id="radial-gradient-53" cx="1422.094" cy="1167.146" r="35.258" gradientTransform="matrix(-0.043, 0.999, -0.999, -0.043, 2338.107, -748.521)" xlink:href="#radial-gradient-3"/><radialGradient id="radial-gradient-54" cx="1109.384" cy="553.415" r="35.258" gradientTransform="translate(1393.11 -653.44) rotate(76.717)" xlink:href="#radial-gradient-3"/><radialGradient id="radial-gradient-55" cx="1630.392" cy="1236.402" r="35.258" gradientTransform="matrix(-0.544, 0.839, -0.839, -0.544, 3125.038, 127.092)" xlink:href="#radial-gradient-3"/><radialGradient id="radial-gradient-56" cx="1362.559" cy="239.944" r="35.258" gradientTransform="translate(1283.033 -1141.293) rotate(76.717)" xlink:href="#radial-gradient-3"/><radialGradient id="radial-gradient-57" cx="1249.025" cy="850.424" r="35.258" gradientTransform="translate(967.172 -634.11) rotate(45)" xlink:href="#radial-gradient-3"/><radialGradient id="radial-gradient-58" cx="1257.408" cy="176.045" r="35.258" gradientTransform="translate(492.769 -837.559) rotate(45)" xlink:href="#radial-gradient-3"/><radialGradient id="radial-gradient-59" cx="228.775" cy="803.352" r="35.258" gradientTransform="translate(635.062 73.528) rotate(45)" xlink:href="#radial-gradient-3"/><radialGradient id="radial-gradient-60" cx="1097.891" cy="974.953" r="35.258" gradientTransform="translate(1794.52 -317.566) rotate(76.717)" xlink:href="#radial-gradient-3"/><radialGradient id="radial-gradient-61" cx="779.754" cy="279.74" r="35.258" gradientTransform="matrix(1, 0, 0, 1, 0, 0)" xlink:href="#radial-gradient-3"/><radialGradient id="radial-gradient-62" cx="1329.439" cy="813.591" r="35.258" gradientTransform="translate(1815.823 -667.209) rotate(76.717)" xlink:href="#radial-gradient-3"/></defs><title>plant-1</title><g class="cls-1"><g id="Layer_2" data-name="Layer 2"><g id="plants"><g id="plant-1"><path class="cls-2" d="M274.675,1232.4s-131.626-74.8-109.011-236S272.936,774.317,354.7,802.73s-.58,142.063-57.4,132.2-21.455-57.984,26.673-66.1,9.857,20.874,9.857,20.874,23.194-23.194-24.353-8.118,19.135,43.489,49.287-8.7-9.858-77.7-59.725-71.321-135.1,93.356-115.97,236.579,169.9,168.157,169.9,168.157l66.683,70.741Z"/><path class="cls-3" d="M1248.5,918.42s-8.864-40.042-68.435-51.026c0,0,24.03,5.218,41.792,25.513,0,0-33.434-28.992-65.823-16.236s-34.266,16.236-34.266,16.236-152.566-2.319-146.652,77.12c0,0-8.713-31.892,24.2-59.725,0,0-33.367,10.279-33.434,67.263,0,0-31.344-.58-33.956,41.17s218.886-75.671,218.886-75.671Z"/><path class="cls-4" d="M904.2,981.324s3.866-128.341,115.97-175.5,166.224,24.74,103.6,3.866c0,0,20.875,31.7,62.624,20.874s-32.472-89.683-185.552-21.647-128.34,218.8-128.34,218.8Z"/><path class="cls-5" d="M1194.048,913.564s-37.534-111.4-163.131-59.918c-97.934,40.146-59.162,190.578,85.818,182.073s82.725,19.329,82.725,19.329Z"/><path class="cls-6" d="M311,872.067c-40.853,13.37-65.336,53.912-13.706,62.869.85.147,1.723.179,2.583.272C269.426,930.568,264.666,890.655,311,872.067Z"/><path class="cls-7" d="M338.925,885.413c8.643-8.573,6.8-16.415-6.458-15.421-14.922,1.119-36.131,11.045-39,21.562,1.538-3.352,6.421-6.927,16-9.965,47.547-15.076,24.353,8.118,24.353,8.118,1.094-.775,1.946-1.554,2.87-2.333C337.374,886.793,338.116,886.149,338.925,885.413Z"/><path class="cls-8" d="M352.955,1206.305s-104.437-17.35-150.477-105.782c-58.241-101.369-17.6-218.758,42.793-278.347-37.658,30.509-67.512,88-79.607,174.223-22.615,161.2,109.012,236,109.012,236l144.962,44.648Z"/><path class="cls-9" d="M1074.192,786.783c48.667-6.319,78.694-2.455,96.5,5.09-31.668-13.945-90-18.449-169.855,17.041-153.081,68.036-128.341,218.8-128.341,218.8l30.567-44.732-3.039-53.263S942.469,803.889,1074.192,786.783Z"/><path class="cls-10" d="M1174.024,808.528c-2.03-13.916-60.687-22.446-86.879-18.906,63.683-2.981,84.987,36.186,36.625,20.066C1148.22,829.112,1176.053,822.444,1174.024,808.528Z"/><path class="cls-11" d="M1142.537,926.073c5.013-2.437,5.094-6.635,0-6.615S1139.51,927.545,1142.537,926.073Z"/><path class="cls-11" d="M1061.415,919.024c-4-1.8,1-9.029,6.01-5.69S1065.42,920.819,1061.415,919.024Z"/><path class="cls-11" d="M1124.394,939.724c-4.005-1.8,1-9.029,6.01-5.691S1128.4,941.519,1124.394,939.724Z"/><path class="cls-11" d="M1026.171,989.767c-7.79-1.391-3.06-11.963,5.008-10.294S1033.961,991.158,1026.171,989.767Z"/><path class="cls-11" d="M1033.961,968.485c2.225-1.809,4.442,3.608,1.247,5.211S1031.735,970.3,1033.961,968.485Z"/><path class="cls-11" d="M1122.241,871.3c2.225-1.81,4.441,3.607,1.247,5.211S1120.015,873.109,1122.241,871.3Z"/><path class="cls-11" d="M1048.428,987.448c3.616-3.245-.576-7.418-3.627-6.027S1044.811,990.694,1048.428,987.448Z"/><path class="cls-11" d="M1113.374,870.156c3.617-3.245-.576-7.418-3.626-6.027S1109.758,873.4,1113.374,870.156Z"/><path class="cls-12" d="M1197.4,1001.058l-3.347-87.494s-10.524-31.2-39.039-52.943c24.975,19.033,23.625,71.428-29.113,94.609-52.61,23.126-152.464,20.3-148.113-36.653-8.156,55.63,40.059,121.265,135.656,117.226,13.091-3.684,25.774-7.512,34.441-9.943C1164.852,1021.1,1186.845,1007.819,1197.4,1001.058Z"/><path class="cls-13" d="M1287.138,1209.835a45.664,45.664,0,0,1,2.856-3.916A9.907,9.907,0,0,0,1287.138,1209.835Z"/><path class="cls-14" d="M1304.683,1179.246c-46.774-30.152-107.079,1.546-132.978,47.547s-73.062,95.869-133.753,98.575c0,0,107.466-31.7,89.684-184.006,0,0,86.591,6.958,91.23-64.943s-33.245-100.507-3.093-122.928,122.155,30.925,65.717,27.833c0,0,52.573,24.527,21.647-33.352s-146.122-62.517-135.3,12.477c0,0-126.021-13.143-64.944,54.119,0,0-33.244-31.7-46.388-1.546,0,0-95.868-50.254-137.038.773s-.605,135.685,47.362,91.617c0,0-33.445,22.034-23.008-40.59,4.561-27.364,26.949-41.219,55.452-44.858-4.177,7.7-8.675,26,.021,49.407,17.71,47.682,50.59,60.622,83.635,69.016-.609,36.644-14.008,71.841-52.71,89.953-99.271,46.458-151.341,21.454-151.341,21.454L854.719,1269.7l5.026,101.281s70.742-14.689,28.992,8.118c0,0,97.415,18.169,185.939-22.421s143.416-39.43,161.585-19.715-8.118,17.4-8.118,17.4,29.379,10.05,25.9-19.329-76.153-17.395-114.037-5.025a478.314,478.314,0,0,1-68.036,17.009s54.506-14.3,95.1-86.205,76.54-98.574,112.1-88.91,59.145,39.43,36.338,54.892c-20.065,13.6-32.931-5.992-28.37-16.958-5.619,8.536-15.217,28.824,14.067,36.673C1338.7,1256.559,1351.458,1209.4,1304.683,1179.246Z"/><path class="cls-15" d="M1167.066,1260.811c27.519-48.749,52.9-76.647,77.484-86.586-50.419,14.443-73.308,74.928-120.78,129.109-56.3,64.258-195.6,56.825-195.6,56.825s61.078-19.715,109.785-34.791c.267-.083.5-.165.765-.247,9.171-3.04,105.861-38.64,88.919-183.759,0,0,22.337,1.746,44.93-5.909-19.1,4.643-18.875-17.507-25.988-44.344-8.5-32.086-84.7-86.262-147.3-71.145-4.177,7.7-8.675,26,.021,49.407,17.71,47.682,50.59,60.622,83.635,69.016a124.493,124.493,0,0,1-6.572,39.267c11.766-27.387,50.182-32.7,27.31,42.223-23.967,78.514-184.006,114.769-199.855,76.885-5.655-13.515,1.951-27.662,14.044-40.28-22.44-.321-35.347-5.147-38.3-6.391l-1.818.642L854.719,1269.7l5.026,101.281s70.742-14.689,28.992,8.118c0,0,97.415,18.169,185.939-22.421s143.416-39.43,161.585-19.715-8.118,17.4-8.118,17.4,11.08,3.763,18.827-.129a4.48,4.48,0,0,1,1.393-.857,11.879,11.879,0,0,0,3.454-3.577c3.425-7.253.514-22.794-23.674-27.136-30.152-5.412-78.086,1.16-142.643,25.9s-88.91,15.463-88.91,15.463,47.547-5.025,75.38-17.009c2.474-1.065,6.193-2.47,10.829-4.122C1100.705,1334.893,1137.524,1313.143,1167.066,1260.811Z"/><path class="cls-16" d="M1145.031,254.191s201.788-42.909,175.115,93.936c0,0,18.555-89.3-113.651-90.457,0,0,129.887,9.278,91.617,153.081,0,0,90.347,53.346,5.743,161.2,0,0,22.09-32.472,24.409-67.263,0,0-11.6,41.75-39.43,76.541s-11.707,48.707,15.021,90.456.218,122.929-61.328,73.062c0,0,63.593,12.756,61.328-53.347s-103.158-28.992-125.192,4.639-148.442,8.118-148.442,8.118S873.174,856.4,760.347,714.754L838.87,447.861Z"/><path class="cls-17" d="M1304.683,1179.246c-46.774-30.152-107.079,1.546-132.978,47.547s-73.062,95.869-133.753,98.575c0,0,107.466-31.7,89.684-184.006,0,0,86.591,6.958,91.23-64.943s-33.245-100.507-3.093-122.928,122.155,30.925,65.717,27.833c0,0,52.573,24.527,21.647-33.352s-146.122-62.517-135.3,12.477c0,0-126.021-13.143-64.944,54.119,0,0-33.244-31.7-46.388-1.546,0,0-95.868-50.254-137.038.773s-.605,135.685,47.362,91.617c0,0-33.445,22.034-23.008-40.59,4.561-27.364,26.949-41.219,55.452-44.858-4.177,7.7-8.675,26,.021,49.407,17.71,47.682,50.59,60.622,83.635,69.016-.609,36.644-14.008,71.841-52.71,89.953-99.271,46.458-151.341,21.454-151.341,21.454L854.719,1269.7l5.026,101.281s70.742-14.689,28.992,8.118c0,0,97.415,18.169,185.939-22.421s143.416-39.43,161.585-19.715-8.118,17.4-8.118,17.4,29.379,10.05,25.9-19.329-76.153-17.395-114.037-5.025a478.314,478.314,0,0,1-68.036,17.009s54.506-14.3,95.1-86.205,76.54-98.574,112.1-88.91,59.145,39.43,36.338,54.892c-20.065,13.6-32.931-5.992-28.37-16.958-5.619,8.536-15.217,28.824,14.067,36.673C1338.7,1256.559,1351.458,1209.4,1304.683,1179.246Z"/><path class="cls-18" d="M1121.8,295.36s96.291-12.177,148.478,25.514,13.916,96.3,13.916,96.3,42.909,36.241,37.691,67.676S1257.522,556,1257.522,556s17.992,60.806,6,80.333-37.793,23.173-37.793,23.173S998.422,763.9,904.15,764.47s-135.013-63.347-135.013-63.347L1121.8,297.68Z"/><path class="cls-19" d="M943.823,1064.822c4.561-27.364,26.949-41.219,55.452-44.858,54.013-13.043,118.042,25.481,140.086,56.91-21.741-26.235-17.137-63.852,26.364-51.076s32.168,78.454,32.168,78.454c16.137-20.1,14.014-46.388-20.651-78.454-34.631-32.034,26.034-54.472,38.981,5.018-7.222-39.927-23.209-60.4-.45-77.325,30.152-22.421,122.155,30.925,65.717,27.833,0,0,24.581,11.451,30.224.171.041-.084.1-.185.139-.267.118-.257.139-.627.237-.907a10.957,10.957,0,0,0,.7-2.977,21.937,21.937,0,0,0-.079-2.233c-1.9-23.884-62.77-66.514-107.958-50.033-.469.171-.88.278-1.343.441-18.678,8.879-32.132,22.746-31.041,37.829,0,0-98.663,3.644-64.451,54.009,0,0-40.332-20.657-50.548,0,0,0-1.608-.984-4.288-2.466-.735-.424-1.5-.81-2.245-1.218-1.928-1.026-4.287-2.218-6.955-3.5-33.78-15.6-76.6-16.115-102.381,1.883l-37.159,67.686a66.243,66.243,0,0,0,6.663,17.861l31.54-2.863C941.434,1088.024,941.536,1078.546,943.823,1064.822Z"/><path class="cls-20" d="M801.534,676.6s2.474,72.575,95.321,92.5c84.658,18.169,146.509-34.4,146.509-34.4s165.971,48.983,218.158-124.744c52.479-174.7-19.076-303.573-160.559-300.094s-320.078,88.138-320.078,88.138S753.662,617.548,801.534,676.6Z"/><g class="cls-21"><path class="cls-11" d="M890.277,733.4c6.527,2.18,3.243,25.386-6.375,20.192S883.75,731.214,890.277,733.4Z"/><path class="cls-11" d="M903.114,739.82c5.014-2.437,5.094-6.636,0-6.616S900.087,741.292,903.114,739.82Z"/><path class="cls-11" d="M1193.337,416.994c5.013-2.437,5.094-6.636,0-6.616S1190.31,418.466,1193.337,416.994Z"/><path class="cls-11" d="M1228.818,576.359c5.013-2.437,5.094-6.636,0-6.616S1225.79,577.831,1228.818,576.359Z"/><path class="cls-11" d="M1095.727,521.874c-1.587-5.564,14.827-6.838,15.384-1.471S1097.313,527.438,1095.727,521.874Z"/><path class="cls-11" d="M1113.03,516.975c4.11-.373,4.2-3.725,1.419-4S1110.507,517.205,1113.03,516.975Z"/><path class="cls-11" d="M1202.216,404.6c4.11-.373,4.2-3.726,1.419-4S1199.693,404.833,1202.216,404.6Z"/><path class="cls-11" d="M1178.7,533.443c-4-1.8,1-9.029,6.01-5.691S1182.7,535.238,1178.7,533.443Z"/><path class="cls-11" d="M1210.675,590.009c-4-1.8,1-9.029,6.01-5.69S1214.679,591.8,1210.675,590.009Z"/><path class="cls-11" d="M961.817,489.686c5.564-1.455,5.956-11.749-1.2-9.523S956.253,491.142,961.817,489.686Z"/><path class="cls-11" d="M944,502.141c-2.5-3.9.939-5.6,3.116-2.522S944,502.141,944,502.141Z"/><path class="cls-11" d="M1151.854,604.185c-7.79-1.391-3.06-11.962,5.008-10.293S1159.644,605.577,1151.854,604.185Z"/><path class="cls-11" d="M1159.644,582.9c2.225-1.81,4.441,3.607,1.247,5.211S1157.418,584.714,1159.644,582.9Z"/><path class="cls-11" d="M1174.11,601.867c3.617-3.246-.576-7.419-3.626-6.028S1170.494,605.113,1174.11,601.867Z"/><path class="cls-11" d="M1057.932,395.7c-5.864-5.247,4.173-14.189,10.85-10.85S1063.218,400.424,1057.932,395.7Z"/><path class="cls-11" d="M932.667,600.529c-5.326-2.53-2.607-9.273,1.9-6.423S935.047,601.66,932.667,600.529Z"/><path class="cls-11" d="M1111.942,403.82c5.424-7.311,15.842,7.736,8.052,12.056S1107.785,409.423,1111.942,403.82Z"/><path class="cls-11" d="M1068.766,651.4c5.424-7.311,15.842,7.737,8.052,12.056S1064.609,657,1068.766,651.4Z"/><path class="cls-11" d="M1098.412,408.869c4.535-2.46,7.039,2.677,2.588,4.838S1093.877,411.33,1098.412,408.869Z"/><path class="cls-11" d="M1095.619,550.251c2.241.945,6.783,8.832-4.86,4.416S1083.743,545.244,1095.619,550.251Z"/><path class="cls-11" d="M1061.784,662.624c2.241.945,6.783,8.832-4.86,4.416S1049.908,657.616,1061.784,662.624Z"/><path class="cls-11" d="M919.551,585.2c2.241.945,6.782,8.832-4.86,4.416S907.675,580.193,919.551,585.2Z"/></g><path class="cls-22" d="M1050.185,363.2c71.875-32.311,129.319-63.29,186.891,4.6-30.762-37.974-77.386-59.391-136.114-57.947-141.483,3.48-320.077,88.138-320.077,88.138s-27.223,219.554,20.648,278.6c0,0,2.475,72.575,95.322,92.5,84.658,18.169,146.509-34.4,146.509-34.4s94.754,27.9,163.586-33.393c-46.755,39.354-131.588,37.511-162.813-11.062-31.312-48.707-63.625-81.24-132.206-72.481-48.663,6.215-63.825-19.706-67.941-38.624-3.626-32.225,40.693-21.731,32.571-58.791-9.278-42.329,18.925-40.065,5.8-59.145s31.892-26.673,8.7-53.346S977.953,395.675,1050.185,363.2ZM895.116,627.614c43.488-7.538,82.919-21.454,118.289,31.892s22.777,92.777-46.017,106.693-144.174-26.988-140.115-77.7c1.418-17.711,12.275-27.713,20.037-39.868C854.481,638.7,861.329,633.471,895.116,627.614Z"/><path class="cls-23" d="M1200.117,185.769c0-98.575-70.162-139.165-191.93-109.592s-229.621,105.532-167,126.407,112.491-15.656,112.491-15.656S922.755,185,898.015,174.171s37.11-68.808,104.373-86.591,169.317,31.7,85.045,127.567S852.4,290.915,741.069,273.9s-275.236,40.2-323.17,199.469c-15.334,39.856-19-20.642-5.413-64.943s81.953-107.465,68.036-129.886-57.985-33.245-68.036,74.22-27.832,179.367-48.707,173.182-20.833-63.5-1.546-132.979-6.185-167.77-49.481-154.626S260.179,317.2,317.391,357.4s27.06,51.027,22.421,136.845c-4.257,78.753,49.275,91.263,62.772,145.822.787,5.4,1.692,10.514,2.674,15.4.008.088.029.162.036.25,8.846,43.828,24.2,67.18,24.2,67.18s-6.959,24.737-15.077,88.521,11.017,97.415,11.017,97.415-6.957,4.059-43.488,45.229-34.791,68.422-34.791,68.422-44.069,16.236-56.246,88.137,33.631,137.425,33.631,137.425c-40.009-36.531-84.078-23.194-150.181,0S25.34,1270.089,9.1,1215.583s45.123-89.877,55.666-66.1-21.455,28.992-21.455,28.992,85.818-2.319,55.666-42.908-138,23.194-84.145,103.213,168.8,27.833,256.94,33.632S344.837,1379.1,344.837,1379.1c154.241-39.43,120.61,0,120.61,0,320.077-106.692,284.126-8.118,284.126-8.118,97.415-47.548,110.172,0,110.172,0,189.031-242.377,89.3-342.112,89.3-342.112C938.6,902.464,822.055,841,677.092,760.98S470.665,528.46,500.237,445.541s226.722-40.009,249.336,80.6-58.565,157.139-78.86,98,31.892-11.018,31.892-11.018c-30.152-47.548-74.221-51.027-30.152,26.673S794.222,747.064,831.332,674s-23.194-149.021-23.194-149.021c96.835,19.135,45.808-70.742,45.808-70.742,40.59-12.756,2.32-80.019,2.32-80.019C1113.719,373.64,1200.117,284.343,1200.117,185.769Z"/><path class="cls-24" d="M605.061,782.747c10.193,3.406,5.064,39.644-9.956,31.533S594.867,779.342,605.061,782.747Z"/><path class="cls-24" d="M794.3,1012.413c10.193,3.4,5.064,39.644-9.956,31.532S784.106,1009.007,794.3,1012.413Z"/><path class="cls-24" d="M339.413,1145.218c10.193,3.4,5.064,39.644-9.956,31.532S329.219,1141.812,339.413,1145.218Z"/><path class="cls-24" d="M625.108,792.782c7.829-3.806,7.955-10.363,0-10.332S620.381,795.081,625.108,792.782Z"/><path class="cls-24" d="M961.188,1263.675c10.194,3.4,5.064,39.644-9.956,31.532S951,1260.269,961.188,1263.675Z"/><path class="cls-24" d="M981.236,1273.709c7.828-3.806,7.955-10.363,0-10.331S976.508,1276.008,981.236,1273.709Z"/><path class="cls-24" d="M708.493,325.432c10.194,3.406,5.064,39.644-9.956,31.533S698.3,322.027,708.493,325.432Z"/><path class="cls-24" d="M728.541,335.467c7.828-3.806,7.955-10.363,0-10.332S723.813,337.765,728.541,335.467Z"/><path class="cls-24" d="M1134.639,1010.916c10.194,3.406,5.064,39.644-9.956,31.533S1124.446,1007.511,1134.639,1010.916Z"/><path class="cls-24" d="M1154.687,1020.951c7.829-3.806,7.955-10.363,0-10.332S1149.959,1023.249,1154.687,1020.951Z"/><path class="cls-24" d="M689.248,1252.506c-2.477-8.689,23.156-10.679,24.025-2.3S691.726,1261.2,689.248,1252.506Z"/><path class="cls-24" d="M716.27,1244.856c6.419-.583,6.561-5.818,2.216-6.253S712.33,1245.214,716.27,1244.856Z"/><path class="cls-24" d="M773.028,418.168c-6.254-2.8,1.566-14.1,9.387-8.886S779.282,420.972,773.028,418.168Z"/><path class="cls-24" d="M905.074,993.731c8.689-2.274,9.3-18.349-1.866-14.873S896.385,996,905.074,993.731Z"/><path class="cls-24" d="M812.37,1052.979c-3.9-6.083,1.467-8.745,4.867-3.938S812.37,1052.979,812.37,1052.979Z"/><path class="cls-24" d="M984.075,1289.514c10.194,3.406,5.064,39.644-9.956,31.533S973.882,1286.109,984.075,1289.514Z"/><path class="cls-24" d="M1002.146,1330.08c-3.9-6.082,1.466-8.745,4.866-3.938S1002.146,1330.08,1002.146,1330.08Z"/><path class="cls-24" d="M478.909,1141.626c-12.165-2.172-4.779-18.682,7.82-16.075S491.074,1143.8,478.909,1141.626Z"/><path class="cls-24" d="M491.074,1108.392c3.475-2.826,6.936,5.633,1.947,8.138S487.6,1111.218,491.074,1108.392Z"/><path class="cls-24" d="M513.665,1138.005c5.648-5.068-.9-11.585-5.663-9.413S508.017,1143.074,513.665,1138.005Z"/><path class="cls-24" d="M515.787,380.874c-12.165-2.173-4.779-18.682,7.82-16.075S527.952,383.046,515.787,380.874Z"/><path class="cls-24" d="M527.952,347.64c3.475-2.826,6.936,5.633,1.947,8.137S524.476,350.466,527.952,347.64Z"/><path class="cls-24" d="M550.543,377.253c5.648-5.068-.9-11.585-5.663-9.413S544.9,382.322,550.543,377.253Z"/><path class="cls-24" d="M545.264,1317.881c-9.158-8.193,6.517-22.157,16.944-16.943S553.518,1325.267,545.264,1317.881Z"/><path class="cls-24" d="M349.851,1186.132c-9.157-8.193,6.517-22.157,16.944-16.943S358.106,1193.518,349.851,1186.132Z"/><path class="cls-24" d="M498.854,941.426c-8.316-3.95-4.071-14.48,2.961-10.03S502.571,943.192,498.854,941.426Z"/><path class="cls-24" d="M781.552,869.942c8.47-11.417,24.739,12.082,12.574,18.827S775.059,878.693,781.552,869.942Z"/><path class="cls-24" d="M613.056,951.8c8.47-11.416,24.739,12.082,12.574,18.827S606.563,960.547,613.056,951.8Z"/><path class="cls-24" d="M1083.986,1242.72c8.471-11.417,24.74,12.082,12.575,18.827S1077.494,1251.471,1083.986,1242.72Z"/><path class="cls-24" d="M789.651,842.877c7.082-3.843,10.992,4.18,4.041,7.554S782.569,846.719,789.651,842.877Z"/><path class="cls-24" d="M865.662,1188.068c7.082-3.842,10.992,4.18,4.041,7.555S858.58,1191.911,865.662,1188.068Z"/><path class="cls-24" d="M757.334,828.173c3.5,1.476,10.592,13.791-7.589,6.895S738.789,820.352,757.334,828.173Z"/><path class="cls-25" d="M1081.83,1031.98c59.008,31.013,62.428,73.045,46.192,79.617s-82.753-10.824-93.563-53.347S1067.811,1024.613,1081.83,1031.98Z"/><path class="cls-26" d="M1122.127,1160.5c9.507,21.125,2.691,58.618,1.4,65.156,5.8-22.853,8.047-50.585,4.112-84.291-21.165-.29-44.7-2.975-44.7-2.975a136.119,136.119,0,0,1-2.5,23.806C1088.206,1143.1,1111.69,1137.3,1122.127,1160.5Z"/><path class="cls-27" d="M1066.461,1066.851s-14.785-17.975-10.437-28.992c0,0,24.644,43.779,65.523,55.665,0,0-14.206,2.32-45.808-18.845,0,0,27.833,26.674,46.678,24.354,12.531-1.542,14.154-9.17,10.512-18.529a64.046,64.046,0,0,0-5.964-10.936c-.19-.28-.369-.56-.563-.84-8.42-12.182-22.645-25.224-44.571-36.748-6.628-3.483-19.965-7.238-31.074-5.807C1033.54,1029.328,1066.461,1066.851,1066.461,1066.851Z"/><path class="cls-28" d="M760.347,1358.226c72.757-113.53-153.67-34.546-184.652-23.334-2.274.895-3.556,1.3-3.556,1.3s1.308-.487,3.556-1.3c21.936-8.639,136.346-63.046,85.741-242.237-47.162-167-167-263.253-231.94-369.749,0,0,34.018,68.226,85.044,124.665s133.752,188.645,138.392,290.816-52.873,145.232-52.873,145.232c18.255-68.036,3.392-137.618-70.056-207.2S425.436,908.842,425.436,908.842,435.681,989.055,529.23,1094.2s47.934,233.486,15.463,242.764-58.758,2.32-58.758,2.32c14.689-66.49-17.783-111.332-88.138-184.006s-50.64-132.786-50.64-132.786-32.858,60.884,58.371,155.979,53.346,160.813,53.346,160.813c-13.143-44.842-100.507,17.008-100.507,17.008,22.421-131.432-85.818-117.516-163.9-95.868-77.854,21.583-156.452,23.153-186.81-34.287a98.426,98.426,0,0,0,7.183,12.639c53.859,80.02,168.8,27.833,256.94,33.632S344.837,1379.1,344.837,1379.1c154.241-39.43,120.61,0,120.61,0,320.077-106.692,284.126-8.118,284.126-8.118,97.415-47.548,110.172,0,110.172,0,9.278-66.1-55.666-5.8,11.28-103.213,59.785-86.995,85.17-220.1,96.363-205.449-7.741-22.743-18.346-33.45-18.346-33.45C935.125,1263.13,760.347,1358.226,760.347,1358.226Z"/><path class="cls-29" d="M500.237,445.541c29.573-82.918,226.722-40.009,249.336,80.6,11.1,59.186-2.815,98.07-22.246,115.391C772.99,606.72,843.376,489.526,699.32,424.667c-162.042-72.957-266.062,10.677-279.38,42.522-.674,2.068-1.408,4.081-2.041,6.185-8.473,22.022-13.375,13.383-13.782-6.209-6.238,50.994-30.2,120.773-57.028,78.263,13.746,35.468,42.562,53.152,53.826,89.169C357.834,454.943,500.244,411.724,543.9,402.8a102.167,102.167,0,0,1,12.386-2.1s-4.693.529-12.386,2.1c-22.322,5-68.673,21.3-86.575,72.12-23.968,68.035,12.37,159.265,184.79,264.29C522.408,655.557,473.174,521.427,500.237,445.541Z"/><path class="cls-30" d="M847.31,648.631c-7.762,12.155-18.619,22.157-20.037,39.868-2.325,29.054,21.473,54.831,55.122,68.981-76.3-40.193-42.62-120.33,32.763-133.564-6.585,1.207-13.259,2.522-20.042,3.7C861.329,633.471,854.481,638.7,847.31,648.631Z"/><path class="cls-31" d="M891.056,407.851c23.195,26.673-21.823,34.267-8.7,53.346s-15.076,16.816-5.8,59.145c8.122,37.06-36.2,26.566-32.571,58.791,4.116,18.918,19.278,44.839,67.941,38.624,68.581-8.759,100.894,23.774,132.206,72.481,7.316,11.381,17.648,20.1,29.671,26.417-14.354-9.457-29-27.4-41.234-61.788-20.841-58.564-49.321-53.926-114.265-42.909s-85.817-29.572-41.748-55.665-22.615-46.388,6.958-71.322-3.258-33.409,5.8-38.85,20.875-13.916,10.437-31.311,44.739-28.186,114.231-34.792S1091.6,344.8,1131.761,331c-25.449,6.115-52.316,19.045-81.576,32.2C977.953,395.675,867.863,381.178,891.056,407.851Z"/><path class="cls-32" d="M1050.185,363.2c-72.232,32.473-182.322,17.976-159.129,44.649s-21.823,34.267-8.7,53.346-15.076,16.816-5.8,59.145c8.122,37.06-36.2,26.566-32.571,58.791,4.116,18.918,19.278,44.839,67.941,38.624,24.9-3.18,44.971-.858,62,5.644-78.423-41.177,12.3-70.9-6.539-121.421-19.893-53.346,96.078-45.615,96.078-78.086,0-30.988,236.508-30.112,209.031,140.992,15.412-82.432,1.391-151.639-35.422-197.084C1179.5,299.912,1122.06,330.891,1050.185,363.2Z"/><path class="cls-33" d="M1032.28,705.617c-1.32-13.734-7.674-29.218-18.875-46.111-8.393-12.659-17.023-21.434-25.874-27.5-28.447-19.5-59.247-10.139-92.415-4.39-33.787,5.857-40.635,11.084-47.806,21.017-7.762,12.155-18.619,22.157-20.037,39.868-2.209,27.605,19.2,52.222,50.195,66.754-28.949-17.947-40.393-53.327-18.883-74.679,28.543-28.332,200.387,9.151,158.735,63.862C1028.826,734.019,1033.751,720.933,1032.28,705.617Z"/><path class="cls-34" d="M930.873,411.616c20.11-13.88,88.425-34.43,147.14,4.764,62.544,41.749,93.71,187.722-12.534,206.283C992.064,635.488,835.034,477.762,930.873,411.616Z"/><path class="cls-35" d="M1120.678,341.168c53.3-30.8,144.772,20.575,142.808,144.679S1001.615,409.977,1120.678,341.168Z"/><path class="cls-36" d="M879.073,500.047c1.59-15.637,24.74-12.37,33.245,20.875S877.243,518.044,879.073,500.047Z"/><path class="cls-37" d="M857.039,586.639c-1.661-21.588,61.464-51.414,94.709-14.69S860.518,631.867,857.039,586.639Z"/><path class="cls-38" d="M875.981,641.918c56.163-39.681,157.783-8.891,129.145,60.3S769.288,717.3,875.981,641.918Z"/><path class="cls-39" d="M1013.488,866.645c54.564-39.618,161.25-22.189,137.227,40.543S909.835,941.906,1013.488,866.645Z"/><path class="cls-40" d="M900.029,763.518a146.811,146.811,0,0,0,67.359,2.681c68.794-13.916,81.388-53.347,46.017-106.693C1033.377,689.749,978.536,784.088,900.029,763.518Z"/><path class="cls-41" d="M1022.76,660.505l-.444-.471a298.6,298.6,0,0,1,21.821,30.2c31.225,48.573,116.058,50.416,162.813,11.062-1.761,1.568-3.549,3.039-5.341,4.492,24.453-19.82,46.153-50.035,59.913-95.842a413.165,413.165,0,0,0,14.629-68.839C1261.959,643.408,1124.927,753.834,1022.76,660.505Z"/><path class="cls-42" d="M901.64,411.034c-1.715-6.437,15.351-15.707,22.453-6.977S905.3,424.757,901.64,411.034Z"/><path class="cls-43" d="M974.313,411.039c5.536-14.426,33.766-14.416,45.055,2.305S958.334,452.682,974.313,411.039Z"/><path class="cls-43" d="M1119.763,351.973c3.9-.293,2.621,24.9-7.473,24.191S1112.912,352.488,1119.763,351.973Z"/><path class="cls-43" d="M935.322,633.494c-.454-6.2,39.625-4.094,38.459,11.96S936.121,644.393,935.322,633.494Z"/><path class="cls-43" d="M864.232,582.741c-3.546-1.643,9.85-23.024,18.316-17.481S870.465,585.63,864.232,582.741Z"/><path class="cls-43" d="M1105.815,375.076c4.228,4.415-4.12,8.679-5.545,6S1103.356,372.509,1105.815,375.076Z"/><path class="cls-43" d="M909.09,469.549c7.8-1.56,6.651,10.582,2.721,10.28S904.555,470.456,909.09,469.549Z"/><path class="cls-43" d="M924.948,636.5c9.536-1.907,8.133,12.938,3.327,12.569S919.4,637.611,924.948,636.5Z"/><path class="cls-43" d="M922.232,469.048c-4.233-3.517-4.73-35.263,7.31-27.4S926.465,472.566,922.232,469.048Z"/><path class="cls-43" d="M895.08,654.4c-8.949-3.363,3.038-18.132,14.849-19.869S912.665,661.006,895.08,654.4Z"/><path class="cls-43" d="M905.491,412.953c-3.849-1.446,1.306-7.8,6.385-8.544S913.053,415.8,905.491,412.953Z"/><path class="cls-43" d="M1164.316,687.322c-6.7,3.987-8.378-2.427-4.76-3.9S1168.21,685,1164.316,687.322Z"/><path class="cls-43" d="M886.74,498.076c.39,6.017-4.622,4.917-4.366,1.9S886.514,494.577,886.74,498.076Z"/><path class="cls-43" d="M1183.106,670.061c7.229-1.68,1.077,8.283-7.332,12.972S1168.9,673.363,1183.106,670.061Z"/><path class="cls-43" d="M865.572,661.926c3.812-.229-1.493,17.9-6.833,16.765S861.761,662.155,865.572,661.926Z"/><path class="cls-44" d="M831.332,674c37.111-73.061-23.194-149.021-23.194-149.021,96.835,19.135,45.808-70.742,45.808-70.742,40.59-12.756,2.32-80.019,2.32-80.019,257.453-.58,343.851-89.877,343.851-188.451a161.683,161.683,0,0,0-4.907-40.4C1215.7,254.174,951.584,411.984,815.676,351.97c0,0,92.156,80.986,28.1,102.934,0,0,33.362,88.5-44.339,66.244,0,0,50.615,91.611-14.122,167.461-25.114,29.425-58.613,13.755-90.224-16.368C739.635,724.186,799.973,735.74,831.332,674Z"/><g class="cls-45"><path class="cls-46" d="M1110.667,281.5c72.687-54.686,52.451-170.788-35.24-194.958C1032.675,74.76,973.856,81.871,893.675,130.1c-61.427,36.95-18.854,59.144,60.006,56.825,0,0-30.926-1.933-55.666-12.757s37.11-68.808,104.373-86.591,169.317,31.7,85.045,127.567S852.4,290.915,741.069,273.9c-.472-.072-.961-.117-1.434-.186q-7.335-.652-14.723-1.67l-.534-.046c1.355.474,124.713,43.695,85.5,60.443-39.429,16.841-83.5-81.636-253.974-5.145,0,0,139.983-32.57,217.273,5.145s51.778,83.39-50.276,42c-101.767-41.276-200.3-61.717-263.545,15.369-4.281,5.838-8.388,11.876-12.257,18.179a277.107,277.107,0,0,0-29.2,65.383c-8.344,21.687-13.224,13.635-13.759-5.327-2.286-4.655-3.115-17.6-2.319-31.525-10.035,58.877-23.254,93.807-38.042,89.425a11.064,11.064,0,0,1-3.488-1.663c-.162-.107-.314-.237-.474-.352a18.363,18.363,0,0,1-2.742-2.491c-.073-.085-.15-.159-.222-.245-8.968-10.122-15.771-35.225-12.279-69.148a364.547,364.547,0,0,0-4.762,42.2c-4.257,78.753,49.275,91.263,62.772,145.822.787,5.4,1.692,10.514,2.674,15.4.008.088.029.162.036.25,8.846,43.828,24.2,67.18,24.2,67.18s-6.959,24.737-15.077,88.521,11.017,97.415,11.017,97.415-6.957,4.059-43.488,45.229-34.791,68.422-34.791,68.422-44.069,16.236-56.246,88.137,33.631,137.425,33.631,137.425c-40.009-36.531-84.078-23.194-150.181,0S25.34,1270.089,9.1,1215.583s45.123-89.877,55.666-66.1-21.455,28.992-21.455,28.992,85.818-2.319,55.666-42.908-138,23.194-84.145,103.213,168.8,27.833,256.94,33.632S344.837,1379.1,344.837,1379.1c154.241-39.43,120.61,0,120.61,0,320.077-106.692,284.126-8.118,284.126-8.118,97.415-47.548,110.172,0,110.172,0,66.1-84.758,96.826-152.015,108.919-203.722-6.09,20.988-19.635,36.452-23.1,7.733-3.041-25.2.428-94.679,2.36-127.929-3.886,39.083-21.336,129.494-99.774,153.191-100.894,30.481-177.647-67.165-177.647-67.165-11.229,98.421-65.513,71.6-65.513,71.6,1.536,32.6-16.613,85.694-58.942,97.09s-59.872-19.89-59.872-19.89c-3.046,73.846-139.017-80.223-110.025-100.518s76.319,35.54,76.319,35.54-54.864-119.619-13.695-153.829,98.475,20.395,98.475,20.395-88.037-129.407-95-216.084,32.015-80.865,32.015-80.865S406.3,678.642,409.781,583.111c3.34-91.721,31.857-162.96,146.5-178.524a127,127,0,0,1,13.491-1.556c.4-.038.785-.092,1.191-.128a121.094,121.094,0,0,1,38.308,2.534c61.549,10.883,127.763,53.816,140.3,120.7,22.614,120.608-58.565,157.139-78.86,98s31.892-11.018,31.892-11.018c-43.755-45.928-48.791-14.788-32.115,23.1l.162.329a205.489,205.489,0,0,0,24.811,36.027c18.961,17.991,38.573,30.673,56.648,31.587,11.957.6,23.247-3.886,33.207-15.556,64.737-75.85,14.122-167.461,14.122-167.461,77.7,22.26,44.339-66.244,44.339-66.244,64.053-21.948-28.1-102.934-28.1-102.934C897.6,388.145,1026.03,345.177,1110.667,281.5Z"/><path class="cls-47" d="M702.935,680.757c-2.536-2.59-5.021-5.342-7.472-8.179-.122-.116-.247-.22-.369-.337C697.654,675.228,700.279,678.044,702.935,680.757Z"/></g><path class="cls-48" d="M1057.373,1017.357c10.216-20.657,50.548,0,50.548,0-34.212-50.365,64.451-54.009,64.451-54.009-2.616-36.159,77.9-65.754,115.343-34.773-42.718-38.367-129.327-33.605-119.876,31.874,0,0-126.021-13.143-64.944,54.119,0,0-33.244-31.7-46.388-1.546,0,0-66.592-34.869-112.61-16.939C998.179,980.34,1057.373,1017.357,1057.373,1017.357Z"/><path class="cls-49" d="M1125.9,955.23c52.737-23.181,54.089-75.573,29.115-94.608a100.9,100.9,0,0,0-15.132-9.511c39.153,18.4,18.105,92.324-27.513,106.825-57.154,18.169-143.762-5.816-132.186-50.618a81.259,81.259,0,0,0-2.4,11.26C973.433,975.527,1073.286,978.356,1125.9,955.23Z"/><path class="cls-50" d="M1125.9,955.23a93.9,93.9,0,0,0,12.387-6.68c-20.243,8.787-91.793,24.962-88.1-4.917,3.728-30.152,48.458-111.331,89.694-92.522-25.145-12.9-60.466-17.345-108.962,2.535-31.856,13.058-49.157,37.8-53.134,64.932C973.433,975.527,1073.286,978.356,1125.9,955.23Z"/><path class="cls-43" d="M1049.314,862.444c4.354-11.349,26.563-11.341,35.444,1.813S1036.743,895.2,1049.314,862.444Z"/><path class="cls-43" d="M998,908.474c6.135-1.228,5.232,8.324,2.14,8.086S994.435,909.187,998,908.474Z"/><path class="cls-43" d="M1008.342,908.079c-3.33-2.767-3.721-27.741,5.75-21.557S1011.672,910.847,1008.342,908.079Z"/><circle class="cls-51" cx="1105.019" cy="602.644" r="357.97"/><path class="cls-52" d="M312.752,238.342c-43.3,13.143-52.573,78.859,4.639,119.062,32.734,23,36.836,36.435,33.513,59.751,3.713-19.775,5.737-3.093,3.886,6.492-.018.089,0,.159-.012.247,2.047-9.946,4.5-20.266,7.455-30.926,6.208-22.363,7.757-47.7,5.588-71.36,4.159,70.509-52.57,33.425-68.212-21.609-15.651-55.067,18.848-67.073,33.484-59.351A25.087,25.087,0,0,0,312.752,238.342Z"/><path class="cls-53" d="M473.34,270.344c-18.079-14.963-52.166-10.466-60.854,82.421-2.263,24.207-4.939,46.485-7.935,66.6.022.088,9.289-32.385,5.515-2.164.736-2.961,1.54-5.9,2.42-8.767,2.718-8.859,7.675-18.485,13.678-28.376-.072.105-.128.178-.2.284C399.571,418.974,450.163,263.876,473.34,270.344Z"/><path class="cls-54" d="M944.374,1143.788c-.017,12.8.306,23.895,1.188,31.206,3.467,28.719,17.012,13.255,23.1-7.733-.58,2.478-1.242,5.025-1.909,7.575,7.887-30.139,9.623-55.323,8.019-75.723C972.7,1134.9,949.662,1182.786,944.374,1143.788Z"/><path class="cls-55" d="M442.557,1225.754c.644,2.157,26.678,90.184-37.91,24.9,20.033,24.253,44.98,46.237,62,50.351C466.457,1281.806,461.068,1256.145,442.557,1225.754Z"/><path class="cls-56" d="M652.932,1138.387c-1.589-34.988-12.453-73.48-27.947-111.263,18.842,56.831,15.641,145.4-80.854,63.453,36,38.172,54.912,76.415,60.859,114.369,0-.083,0-.174,0-.256,0,0,24.156,11.888,43.574-9.392A225.722,225.722,0,0,0,652.932,1138.387Z"/><path class="cls-57" d="M529.23,1094.2c-8.934-10.041-16.884-19.766-24.362-29.3a48.093,48.093,0,0,0,3.422,4.474c20.94,24.83,66.924,156.048,27.9,190.281-18.564,16.284-40.651,9.372-58.718-2.342a132.243,132.243,0,0,1,8.732,24.627c.291.513,17.868,31.145,59.844,19.843,13.755-3.7,24.914-11.848,33.716-22.224C591.5,1230.454,586.056,1158.072,529.23,1094.2Z"/><path class="cls-58" d="M642.119,739.211c-136.711-83.273-187.817-157.859-191.2-219.1C447.14,659.284,612.343,758.4,727.539,835.2c128.727,85.818,72.8,311.663,0,273.69-49.294-25.714-83.7-76-100.788-105.806a520.272,520.272,0,0,1,34.685,89.57,360.1,360.1,0,0,1,9.028,40.711c.011-.1.026-.18.037-.275,0,0,76.753,97.646,177.647,67.165,66.866-20.2,89.355-88.793,96.959-132.83,1.769-12.428,3.143-25.236,3.935-38.555C938.6,902.464,822.055,841,677.092,760.98A392.3,392.3,0,0,1,642.058,739.1C642.064,739.106,642.119,739.211,642.119,739.211Z"/><ellipse class="cls-59" cx="1058.762" cy="905.223" rx="139.717" ry="103.819" transform="translate(-162.508 235.219) rotate(-11.78)"/><path class="cls-43" d="M1086.848,750.074a3.83,3.83,0,1,1,.233-5.411A3.829,3.829,0,0,1,1086.848,750.074Z"/><circle class="cls-60" cx="1084.259" cy="747.252" r="75.785" transform="translate(-206.201 485.114) rotate(-23.091)"/><path class="cls-43" d="M995.073,296.093a3.83,3.83,0,1,1-3.83-3.829A3.83,3.83,0,0,1,995.073,296.093Z"/><circle class="cls-61" cx="991.243" cy="296.093" r="75.785" transform="translate(80.959 787.638) rotate(-45)"/><circle class="cls-43" cx="610.008" cy="788.65" r="3.83"/><circle class="cls-62" cx="610.008" cy="788.65" r="75.785" transform="translate(-378.992 662.331) rotate(-45)"/><path class="cls-43" d="M972.215,447.2a3.83,3.83,0,1,1-3.83-3.83A3.829,3.829,0,0,1,972.215,447.2Z"/><circle class="cls-63" cx="968.385" cy="447.197" r="75.785" transform="translate(-32.583 815.732) rotate(-45)"/><circle class="cls-43" cx="1112.637" cy="203.504" r="3.83"/><circle class="cls-64" cx="1112.637" cy="203.504" r="75.785" transform="translate(181.985 846.358) rotate(-45)"/><circle class="cls-43" cx="1134.024" cy="251.831" r="3.83"/><circle class="cls-65" cx="1134.024" cy="251.83" r="75.785" transform="translate(154.077 875.635) rotate(-45)"/><circle class="cls-43" cx="973.286" cy="998.046" r="3.83"/><circle class="cls-66" cx="973.285" cy="998.046" r="75.785" transform="translate(-420.657 980.538) rotate(-45)"/><circle class="cls-43" cx="1031.926" cy="789.017" r="3.83"/><circle class="cls-67" cx="1031.926" cy="789.017" r="75.785" transform="translate(-255.675 960.78) rotate(-45)"/><circle class="cls-43" cx="1069.319" cy="911.092" r="3.83"/><circle class="cls-68" cx="1069.319" cy="911.092" r="75.785" transform="translate(-331.043 1022.975) rotate(-45)"/><circle class="cls-43" cx="1021.093" cy="371.411" r="3.83"/><circle class="cls-69" cx="1021.093" cy="371.412" r="75.785" transform="translate(36.444 830.806) rotate(-45)"/><circle class="cls-43" cx="1217.952" cy="936.614" r="3.83"/><circle class="cls-70" cx="1217.952" cy="936.614" r="75.785" transform="translate(-305.556 1135.55) rotate(-45)"/><circle class="cls-43" cx="610.888" cy="630.813" r="3.83"/><circle class="cls-71" cx="610.888" cy="630.813" r="75.785" transform="translate(-267.127 616.724) rotate(-45)"/><g class="cls-72"><circle class="cls-43" cx="321.89" cy="589.224" r="3.83"/><circle class="cls-73" cx="321.89" cy="589.224" r="75.785" transform="translate(-322.365 400.191) rotate(-45)"/></g><g class="cls-72"><circle class="cls-43" cx="1278.674" cy="1064.897" r="3.83"/><circle class="cls-74" cx="1278.674" cy="1064.897" r="75.785" transform="translate(-378.481 1216.06) rotate(-45)"/></g><g class="cls-72"><circle class="cls-43" cx="1396.198" cy="926.253" r="3.83"/><circle class="cls-75" cx="1396.198" cy="926.253" r="75.785" transform="translate(-246.023 1258.554) rotate(-45)"/></g><path class="cls-43" d="M1304.6,411.264a3.83,3.83,0,1,1,.233-5.411A3.829,3.829,0,0,1,1304.6,411.264Z"/><circle class="cls-76" cx="1302.01" cy="408.442" r="75.785"/><circle class="cls-43" cx="1286.774" cy="583.596" r="3.83"/><circle class="cls-77" cx="1286.773" cy="583.597" r="75.785" transform="translate(-35.778 1080.818) rotate(-45)"/><path class="cls-43" d="M1212.926,714.683a3.83,3.83,0,1,1,.233-5.411A3.829,3.829,0,0,1,1212.926,714.683Z"/><circle class="cls-78" cx="1210.337" cy="711.861" r="75.785" transform="translate(447.048 1890.442) rotate(-87.533)"/><path class="cls-43" d="M609.941,382.361a3.83,3.83,0,1,1-3.83-3.829A3.83,3.83,0,0,1,609.941,382.361Z"/><circle class="cls-79" cx="606.111" cy="382.361" r="75.785" transform="translate(-92.844 540.576) rotate(-45)"/><circle class="cls-43" cx="852.139" cy="422.536" r="3.83"/><circle class="cls-80" cx="852.139" cy="422.536" r="75.785" transform="translate(-49.193 726.311) rotate(-45)"/><circle class="cls-43" cx="1249.734" cy="303.976" r="3.83"/><circle class="cls-81" cx="1249.734" cy="303.976" r="75.785" transform="translate(151.095 972.728) rotate(-45)"/><path class="cls-43" d="M945.9,714.243a1.782,1.782,0,1,1-1.782-1.782A1.782,1.782,0,0,1,945.9,714.243Z"/><circle class="cls-82" cx="944.121" cy="714.243" r="35.258" transform="translate(32.07 1469.009) rotate(-76.717)"/><path class="cls-43" d="M970.754,667.88a1.782,1.782,0,1,1-1.782-1.781A1.782,1.782,0,0,1,970.754,667.88Z"/><circle class="cls-83" cx="968.972" cy="667.88" r="35.258" transform="translate(96.334 1457.484) rotate(-76.717)"/><path class="cls-43" d="M582.154,417.619a1.782,1.782,0,1,1-1.782-1.781A1.782,1.782,0,0,1,582.154,417.619Z"/><circle class="cls-84" cx="580.372" cy="417.619" r="35.258"/><circle class="cls-43" cx="361.099" cy="904.836" r="1.782"/><circle class="cls-85" cx="361.099" cy="904.836" r="35.258"/><g class="cls-72"><path class="cls-43" d="M175.47,653.349a1.782,1.782,0,1,1-1.782-1.782A1.782,1.782,0,0,1,175.47,653.349Z"/><circle class="cls-86" cx="173.688" cy="653.349" r="35.258" transform="translate(-411.115 314.177) rotate(-45)"/></g><g class="cls-72"><path class="cls-43" d="M313.311,983.294a1.782,1.782,0,1,1-1.781-1.782A1.781,1.781,0,0,1,313.311,983.294Z"/><circle class="cls-87" cx="311.53" cy="983.294" r="35.258" transform="translate(-352.577 194.066) rotate(-22.5)"/></g><path class="cls-43" d="M437.382,1077.37a1.782,1.782,0,1,1-1.782-1.781A1.782,1.782,0,0,1,437.382,1077.37Z"/><circle class="cls-88" cx="435.6" cy="1077.37" r="35.258" transform="translate(-634.232 623.57) rotate(-45)"/><path class="cls-43" d="M1165.637,604.465a1.782,1.782,0,1,1,.109-2.517A1.782,1.782,0,0,1,1165.637,604.465Z"/><circle class="cls-89" cx="1164.433" cy="603.152" r="35.258" transform="translate(47.161 1289.739) rotate(-58.955)"/><path class="cls-43" d="M995.506,977.068a1.782,1.782,0,1,1-1.782-1.782A1.782,1.782,0,0,1,995.506,977.068Z"/><circle class="cls-90" cx="993.724" cy="977.068" r="35.258" transform="translate(-399.837 988.845) rotate(-45)"/><g class="cls-72"><path class="cls-43" d="M295.5,994.453a1.782,1.782,0,1,1-1.782-1.781A1.782,1.782,0,0,1,295.5,994.453Z"/><circle class="cls-91" cx="293.718" cy="994.453" r="35.258" transform="translate(-617.157 498.959) rotate(-45)"/></g><g class="cls-72"><path class="cls-43" d="M1399.911,1177.93a1.782,1.782,0,1,1-1.782-1.781A1.782,1.782,0,0,1,1399.911,1177.93Z"/><circle class="cls-92" cx="1398.129" cy="1177.93" r="35.258" transform="translate(-69.514 2268.026) rotate(-76.717)"/></g><g class="cls-72"><path class="cls-43" d="M1381.247,1081.276a1.782,1.782,0,1,1-1.782-1.782A1.782,1.782,0,0,1,1381.247,1081.276Z"/><circle class="cls-93" cx="1379.465" cy="1081.276" r="35.258" transform="translate(-360.542 1292.127) rotate(-45)"/></g><g class="cls-72"><path class="cls-43" d="M1473.765,1029.711a1.782,1.782,0,1,1-1.781-1.781A1.781,1.781,0,0,1,1473.765,1029.711Z"/><circle class="cls-94" cx="1471.984" cy="1029.711" r="35.258"/></g><g class="cls-72"><path class="cls-43" d="M1376.818,496.341a1.782,1.782,0,1,1-1.781-1.782A1.781,1.781,0,0,1,1376.818,496.341Z"/><circle class="cls-95" cx="1375.037" cy="496.341" r="35.258" transform="translate(576.055 1720.558) rotate(-76.717)"/></g><g class="cls-72"><path class="cls-43" d="M915.951,35.258a1.782,1.782,0,1,1-1.782-1.782A1.782,1.782,0,0,1,915.951,35.258Z"/><circle class="cls-96" cx="914.169" cy="35.258" r="35.258" transform="translate(669.821 916.872) rotate(-76.717)"/></g><g class="cls-72"><path class="cls-43" d="M226.358,1016.464a1.782,1.782,0,1,1-1.782-1.782A1.782,1.782,0,0,1,226.358,1016.464Z"/><circle class="cls-97" cx="224.576" cy="1016.464" r="35.258" transform="translate(-816.294 1001.497) rotate(-76.717)"/></g><path class="cls-43" d="M1125.585,1022.635a1.782,1.782,0,1,1-1.781-1.782A1.781,1.781,0,0,1,1125.585,1022.635Z"/><circle class="cls-98" cx="1123.804" cy="1022.635" r="35.258" transform="translate(-393.958 1094.172) rotate(-45)"/><path class="cls-43" d="M1189.023,1007.93a1.781,1.781,0,1,1,.108-2.517A1.782,1.782,0,0,1,1189.023,1007.93Z"/><circle class="cls-99" cx="1187.818" cy="1006.617" r="35.258" transform="translate(-338.174 1315.711) rotate(-51.73)"/><path class="cls-43" d="M1223.354,776.858a1.781,1.781,0,1,1,.109-2.517A1.781,1.781,0,0,1,1223.354,776.858Z"/><circle class="cls-100" cx="1222.15" cy="775.545" r="35.258" transform="translate(-72.587 1422.676) rotate(-58.955)"/><circle class="cls-43" cx="1082.137" cy="424.318" r="1.782"/><circle class="cls-101" cx="1082.137" cy="424.318" r="35.258"/><circle class="cls-43" cx="968.127" cy="1042.673" r="1.782"/><circle class="cls-102" cx="968.127" cy="1042.673" r="35.258" transform="translate(-216.159 1831.281) rotate(-80.783)"/><g class="cls-72"><path class="cls-43" d="M858.421,185.266a1.782,1.782,0,1,1,.109-2.517A1.782,1.782,0,0,1,858.421,185.266Z"/><circle class="cls-103" cx="857.217" cy="183.953" r="35.258" transform="translate(0.913 372.109) rotate(-24.504)"/></g><g class="cls-72"><path class="cls-43" d="M822.607,206a1.782,1.782,0,1,1,.108-2.518A1.782,1.782,0,0,1,822.607,206Z"/><circle class="cls-104" cx="821.402" cy="204.686" r="35.258" transform="translate(151.954 722.795) rotate(-51.73)"/></g><path class="cls-43" d="M1431.006,586.624a1.782,1.782,0,1,1-1.782-1.782A1.782,1.782,0,0,1,1431.006,586.624Z"/><circle class="cls-105" cx="1429.224" cy="586.624" r="35.258"/><g class="cls-72"><path class="cls-43" d="M189.432,745.321a1.782,1.782,0,1,1-1.782-1.782A1.782,1.782,0,0,1,189.432,745.321Z"/><circle class="cls-106" cx="187.65" cy="745.321" r="35.258" transform="translate(-580.846 756.712) rotate(-76.717)"/></g><path class="cls-43" d="M893.7,937.685a1.782,1.782,0,1,1-1.781-1.782A1.781,1.781,0,0,1,893.7,937.685Z"/><circle class="cls-107" cx="891.914" cy="937.685" r="35.258" transform="translate(-225.607 1590.304) rotate(-76.717)"/><path class="cls-43" d="M787.44,542.015a1.782,1.782,0,1,1-1.782-1.782A1.782,1.782,0,0,1,787.44,542.015Z"/><circle class="cls-108" cx="785.658" cy="542.015" r="35.258" transform="translate(-153.149 714.297) rotate(-45)"/><path class="cls-43" d="M621.624,530.963a1.782,1.782,0,1,1-1.782-1.782A1.782,1.782,0,0,1,621.624,530.963Z"/><circle class="cls-109" cx="619.842" cy="530.963" r="35.258" transform="translate(-3.552 1057.751) rotate(-80.783)"/><g class="cls-72"><path class="cls-43" d="M262.056,651.638a1.782,1.782,0,1,1-1.782-1.782A1.782,1.782,0,0,1,262.056,651.638Z"/><circle class="cls-110" cx="260.274" cy="651.638" r="35.258" transform="translate(-229.559 149.206) rotate(-22.5)"/></g><path class="cls-43" d="M1112.01,623.3a1.782,1.782,0,1,1,.109-2.517A1.782,1.782,0,0,1,1112.01,623.3Z"/><circle class="cls-111" cx="1110.806" cy="621.991" r="35.258" transform="translate(-114.467 967.635) rotate(-45)"/><path class="cls-43" d="M1111.166,553.416a1.782,1.782,0,1,1-1.782-1.782A1.782,1.782,0,0,1,1111.166,553.416Z"/><circle class="cls-112" cx="1109.384" cy="553.415" r="35.258" transform="translate(315.888 1505.973) rotate(-76.717)"/><g class="cls-72"><path class="cls-43" d="M1201.785,823.616a1.782,1.782,0,1,1,.108-2.518A1.781,1.781,0,0,1,1201.785,823.616Z"/><circle class="cls-113" cx="1200.581" cy="822.303" r="35.258" transform="translate(103.784 1778.656) rotate(-75.495)"/></g><path class="cls-43" d="M1364.341,239.944a1.782,1.782,0,1,1-1.782-1.781A1.782,1.782,0,0,1,1364.341,239.944Z"/><circle class="cls-114" cx="1362.559" cy="239.944" r="35.258" transform="translate(815.982 1510.925) rotate(-76.717)"/><path class="cls-43" d="M1250.806,850.424a1.782,1.782,0,1,1-1.781-1.782A1.781,1.781,0,0,1,1250.806,850.424Z"/><circle class="cls-115" cx="1249.025" cy="850.424" r="35.258" transform="translate(-235.51 1132.277) rotate(-45)"/><path class="cls-43" d="M1259.19,176.045a1.782,1.782,0,1,1-1.782-1.781A1.782,1.782,0,0,1,1259.19,176.045Z"/><circle class="cls-116" cx="1257.408" cy="176.045" r="35.258" transform="translate(243.804 940.684) rotate(-45)"/><g class="cls-72"><path class="cls-43" d="M230.557,803.352a1.782,1.782,0,1,1-1.782-1.781A1.782,1.782,0,0,1,230.557,803.352Z"/><circle class="cls-117" cx="228.775" cy="803.352" r="35.258" transform="translate(-501.049 397.065) rotate(-45)"/></g><g class="cls-72"><path class="cls-43" d="M1099.673,974.953a1.782,1.782,0,1,1-1.782-1.781A1.781,1.781,0,0,1,1099.673,974.953Z"/><circle class="cls-118" cx="1097.891" cy="974.953" r="35.258" transform="translate(-103.225 1819.477) rotate(-76.717)"/></g><g class="cls-72"><path class="cls-43" d="M781.536,279.74a1.782,1.782,0,1,1-1.782-1.781A1.782,1.782,0,0,1,781.536,279.74Z"/><circle class="cls-119" cx="779.754" cy="279.74" r="35.258"/></g><g class="cls-72"><path class="cls-43" d="M1331.22,813.591a1.782,1.782,0,1,1-1.781-1.782A1.781,1.781,0,0,1,1331.22,813.591Z"/><circle class="cls-120" cx="1329.439" cy="813.591" r="35.258" transform="translate(232.169 1920.541) rotate(-76.717)"/></g></g></g></g></g></svg>