<svg xmlns="http://www.w3.org/2000/svg" xmlns:xlink="http://www.w3.org/1999/xlink" viewBox="0 0 140.163 186.204"><defs><style>.cls-1{fill:none;}.cls-2{isolation:isolate;}.cls-3{fill:url(#Áåçûìÿííûé_ãðàäèåíò_244);}.cls-4{fill:#2e1d68;opacity:0.44;}.cls-12,.cls-14,.cls-24,.cls-25,.cls-29,.cls-39,.cls-4,.cls-40,.cls-44,.cls-46,.cls-47,.cls-51,.cls-6,.cls-67,.cls-68,.cls-7,.cls-72,.cls-82,.cls-83,.cls-87{mix-blend-mode:multiply;}.cls-5{fill:url(#Áåçûìÿííûé_ãðàäèåíò_216);}.cls-6{fill:url(#Áåçûìÿííûé_ãðàäèåíò_214);}.cls-7{fill:url(#Áåçûìÿííûé_ãðàäèåíò_132);}.cls-8{fill:#000f04;}.cls-9{clip-path:url(#clip-path);}.cls-10{fill:url(#Áåçûìÿííûé_ãðàäèåíò_210);}.cls-11{fill:url(#Áåçûìÿííûé_ãðàäèåíò_553);}.cls-12{fill:url(#Áåçûìÿííûé_ãðàäèåíò_212);}.cls-13,.cls-30,.cls-52,.cls-73,.cls-88{opacity:0.32;}.cls-100,.cls-102,.cls-103,.cls-104,.cls-105,.cls-106,.cls-107,.cls-108,.cls-109,.cls-110,.cls-112,.cls-113,.cls-114,.cls-115,.cls-116,.cls-117,.cls-118,.cls-119,.cls-120,.cls-121,.cls-122,.cls-123,.cls-124,.cls-125,.cls-126,.cls-127,.cls-128,.cls-129,.cls-13,.cls-130,.cls-131,.cls-132,.cls-133,.cls-134,.cls-135,.cls-136,.cls-137,.cls-138,.cls-139,.cls-140,.cls-141,.cls-142,.cls-143,.cls-144,.cls-145,.cls-146,.cls-147,.cls-148,.cls-149,.cls-150,.cls-151,.cls-152,.cls-153,.cls-154,.cls-155,.cls-157,.cls-158,.cls-159,.cls-16,.cls-160,.cls-161,.cls-17,.cls-18,.cls-19,.cls-20,.cls-21,.cls-22,.cls-30,.cls-31,.cls-32,.cls-33,.cls-34,.cls-35,.cls-36,.cls-37,.cls-41,.cls-42,.cls-43,.cls-52,.cls-53,.cls-54,.cls-55,.cls-56,.cls-57,.cls-58,.cls-59,.cls-60,.cls-61,.cls-62,.cls-63,.cls-64,.cls-65,.cls-73,.cls-74,.cls-75,.cls-76,.cls-77,.cls-78,.cls-79,.cls-80,.cls-88,.cls-89,.cls-90,.cls-91,.cls-92,.cls-93,.cls-94,.cls-95,.cls-96,.cls-97,.cls-98,.cls-99{mix-blend-mode:screen;}.cls-13{fill:url(#Áåçûìÿííûé_ãðàäèåíò_450);}.cls-14{fill:#b83d26;opacity:0.36;}.cls-15{fill:#fff;}.cls-16,.cls-17,.cls-22,.cls-36,.cls-37,.cls-43,.cls-53,.cls-54,.cls-55,.cls-57,.cls-77,.cls-79,.cls-80,.cls-93,.cls-94,.cls-95,.cls-96{opacity:0.89;}.cls-16{fill:url(#Áåçûìÿííûé_ãðàäèåíò_130);}.cls-17{fill:url(#Áåçûìÿííûé_ãðàäèåíò_130-2);}.cls-18,.cls-19,.cls-20,.cls-21,.cls-31,.cls-32,.cls-33,.cls-34,.cls-35,.cls-41,.cls-42,.cls-56,.cls-58,.cls-59,.cls-60,.cls-61,.cls-62,.cls-63,.cls-64,.cls-65,.cls-74,.cls-75,.cls-76,.cls-78,.cls-89,.cls-90,.cls-91,.cls-92{opacity:0.74;}.cls-18{fill:url(#linear-gradient);}.cls-19{fill:url(#linear-gradient-2);}.cls-20{fill:url(#linear-gradient-3);}.cls-21{fill:url(#linear-gradient-4);}.cls-22{fill:url(#Áåçûìÿííûé_ãðàäèåíò_130-3);}.cls-23{fill:url(#Áåçûìÿííûé_ãðàäèåíò_216-2);}.cls-24{fill:url(#Áåçûìÿííûé_ãðàäèåíò_214-2);}.cls-25{fill:url(#Áåçûìÿííûé_ãðàäèåíò_226);}.cls-26{clip-path:url(#clip-path-2);}.cls-27{fill:url(#Áåçûìÿííûé_ãðàäèåíò_210-2);}.cls-28{fill:url(#Áåçûìÿííûé_ãðàäèåíò_553-2);}.cls-29{fill:url(#Áåçûìÿííûé_ãðàäèåíò_212-2);}.cls-30{fill:url(#Áåçûìÿííûé_ãðàäèåíò_450-2);}.cls-31{fill:url(#linear-gradient-5);}.cls-32{fill:url(#linear-gradient-6);}.cls-33{fill:url(#linear-gradient-7);}.cls-34{fill:url(#linear-gradient-8);}.cls-35{fill:url(#linear-gradient-9);}.cls-36{fill:url(#Áåçûìÿííûé_ãðàäèåíò_130-4);}.cls-37{fill:url(#Áåçûìÿííûé_ãðàäèåíò_130-5);}.cls-38{fill:url(#Áåçûìÿííûé_ãðàäèåíò_216-3);}.cls-39{fill:url(#Áåçûìÿííûé_ãðàäèåíò_257);}.cls-40{fill:url(#Áåçûìÿííûé_ãðàäèåíò_214-3);}.cls-41{fill:url(#linear-gradient-10);}.cls-42{fill:url(#linear-gradient-11);}.cls-43{fill:url(#Áåçûìÿííûé_ãðàäèåíò_130-6);}.cls-44{fill:url(#Áåçûìÿííûé_ãðàäèåíò_214-4);}.cls-45{fill:url(#Áåçûìÿííûé_ãðàäèåíò_221);}.cls-46{fill:url(#Áåçûìÿííûé_ãðàäèåíò_214-5);}.cls-47{fill:url(#Áåçûìÿííûé_ãðàäèåíò_226-2);}.cls-48{clip-path:url(#clip-path-3);}.cls-49{fill:url(#Áåçûìÿííûé_ãðàäèåíò_210-3);}.cls-50{fill:url(#Áåçûìÿííûé_ãðàäèåíò_553-3);}.cls-51{fill:url(#Áåçûìÿííûé_ãðàäèåíò_212-3);}.cls-52{fill:url(#Áåçûìÿííûé_ãðàäèåíò_450-3);}.cls-53{fill:url(#Áåçûìÿííûé_ãðàäèåíò_130-7);}.cls-54{fill:url(#Áåçûìÿííûé_ãðàäèåíò_130-8);}.cls-55{fill:url(#Áåçûìÿííûé_ãðàäèåíò_130-9);}.cls-56{fill:url(#linear-gradient-12);}.cls-57{fill:url(#Áåçûìÿííûé_ãðàäèåíò_130-10);}.cls-58{fill:url(#linear-gradient-13);}.cls-59{fill:url(#linear-gradient-14);}.cls-60{fill:url(#linear-gradient-15);}.cls-61{fill:url(#Áåçûìÿííûé_ãðàäèåíò_256);}.cls-62{fill:url(#Áåçûìÿííûé_ãðàäèåíò_255);}.cls-63{fill:url(#Áåçûìÿííûé_ãðàäèåíò_255-2);}.cls-64{fill:url(#Áåçûìÿííûé_ãðàäèåíò_256-2);}.cls-65{fill:url(#Áåçûìÿííûé_ãðàäèåíò_255-3);}.cls-66{fill:url(#Áåçûìÿííûé_ãðàäèåíò_222);}.cls-67{fill:url(#Áåçûìÿííûé_ãðàäèåíò_214-6);}.cls-68{fill:url(#Áåçûìÿííûé_ãðàäèåíò_225);}.cls-69{clip-path:url(#clip-path-4);}.cls-70{fill:url(#Áåçûìÿííûé_ãðàäèåíò_210-4);}.cls-71{fill:url(#Áåçûìÿííûé_ãðàäèåíò_553-4);}.cls-72{fill:url(#Áåçûìÿííûé_ãðàäèåíò_212-4);}.cls-73{fill:url(#Áåçûìÿííûé_ãðàäèåíò_450-4);}.cls-74{fill:url(#linear-gradient-16);}.cls-75{fill:url(#linear-gradient-17);}.cls-76{fill:url(#linear-gradient-18);}.cls-77{fill:url(#Áåçûìÿííûé_ãðàäèåíò_130-11);}.cls-78{fill:url(#linear-gradient-19);}.cls-79{fill:url(#Áåçûìÿííûé_ãðàäèåíò_130-12);}.cls-80{fill:url(#Áåçûìÿííûé_ãðàäèåíò_130-13);}.cls-81{fill:url(#Áåçûìÿííûé_ãðàäèåíò_216-4);}.cls-82{fill:url(#Áåçûìÿííûé_ãðàäèåíò_214-7);}.cls-83{fill:url(#Áåçûìÿííûé_ãðàäèåíò_226-3);}.cls-84{clip-path:url(#clip-path-5);}.cls-85{fill:url(#Áåçûìÿííûé_ãðàäèåíò_210-5);}.cls-86{fill:url(#Áåçûìÿííûé_ãðàäèåíò_553-5);}.cls-87{fill:url(#Áåçûìÿííûé_ãðàäèåíò_212-5);}.cls-88{fill:url(#Áåçûìÿííûé_ãðàäèåíò_450-5);}.cls-89{fill:url(#linear-gradient-20);}.cls-90{fill:url(#linear-gradient-21);}.cls-91{fill:url(#linear-gradient-22);}.cls-92{fill:url(#linear-gradient-23);}.cls-93{fill:url(#Áåçûìÿííûé_ãðàäèåíò_130-14);}.cls-94{fill:url(#Áåçûìÿííûé_ãðàäèåíò_130-15);}.cls-95{fill:url(#Áåçûìÿííûé_ãðàäèåíò_130-16);}.cls-96{fill:url(#Áåçûìÿííûé_ãðàäèåíò_130-17);}.cls-97{fill:#b3ffff;}.cls-100,.cls-102,.cls-103,.cls-104,.cls-105,.cls-106,.cls-107,.cls-108,.cls-109,.cls-110,.cls-112,.cls-113,.cls-114,.cls-115,.cls-116,.cls-117,.cls-118,.cls-119,.cls-120,.cls-121,.cls-122,.cls-123,.cls-124,.cls-125,.cls-126,.cls-127,.cls-128,.cls-129,.cls-130,.cls-131,.cls-132,.cls-133,.cls-134,.cls-135,.cls-136,.cls-137,.cls-138,.cls-139,.cls-140,.cls-141,.cls-142,.cls-143,.cls-144,.cls-145,.cls-146,.cls-147,.cls-148,.cls-149,.cls-150,.cls-151,.cls-152,.cls-153,.cls-154,.cls-155,.cls-98,.cls-99{opacity:0.69;}.cls-98{fill:url(#radial-gradient);}.cls-99{fill:url(#radial-gradient-2);}.cls-100{fill:url(#radial-gradient-3);}.cls-101{opacity:0.65;}.cls-102{fill:url(#radial-gradient-4);}.cls-103{fill:url(#radial-gradient-5);}.cls-104{fill:url(#radial-gradient-6);}.cls-105{fill:url(#radial-gradient-7);}.cls-106{fill:url(#radial-gradient-8);}.cls-107{fill:url(#radial-gradient-9);}.cls-108{fill:url(#radial-gradient-10);}.cls-109{fill:url(#radial-gradient-11);}.cls-110{fill:url(#radial-gradient-12);}.cls-111{opacity:0.5;}.cls-112{fill:url(#radial-gradient-13);}.cls-113{fill:url(#radial-gradient-14);}.cls-114{fill:url(#radial-gradient-15);}.cls-115{fill:url(#radial-gradient-16);}.cls-116{fill:url(#radial-gradient-17);}.cls-117{fill:url(#radial-gradient-18);}.cls-118{fill:url(#radial-gradient-19);}.cls-119{fill:url(#radial-gradient-20);}.cls-120{fill:url(#radial-gradient-21);}.cls-121{fill:url(#radial-gradient-22);}.cls-122{fill:url(#radial-gradient-23);}.cls-123{fill:url(#radial-gradient-24);}.cls-124{fill:url(#radial-gradient-25);}.cls-125{fill:url(#radial-gradient-26);}.cls-126{fill:url(#radial-gradient-27);}.cls-127{fill:url(#radial-gradient-28);}.cls-128{fill:url(#radial-gradient-29);}.cls-129{fill:url(#radial-gradient-30);}.cls-130{fill:url(#radial-gradient-31);}.cls-131{fill:url(#radial-gradient-32);}.cls-132{fill:url(#radial-gradient-33);}.cls-133{fill:url(#radial-gradient-34);}.cls-134{fill:url(#radial-gradient-35);}.cls-135{fill:url(#radial-gradient-36);}.cls-136{fill:url(#radial-gradient-37);}.cls-137{fill:url(#radial-gradient-38);}.cls-138{fill:url(#radial-gradient-39);}.cls-139{fill:url(#radial-gradient-40);}.cls-140{fill:url(#radial-gradient-41);}.cls-141{fill:url(#radial-gradient-42);}.cls-142{fill:url(#radial-gradient-43);}.cls-143{fill:url(#radial-gradient-44);}.cls-144{fill:url(#radial-gradient-45);}.cls-145{fill:url(#radial-gradient-46);}.cls-146{fill:url(#radial-gradient-47);}.cls-147{fill:url(#radial-gradient-48);}.cls-148{fill:url(#radial-gradient-49);}.cls-149{fill:url(#radial-gradient-50);}.cls-150{fill:url(#radial-gradient-51);}.cls-151{fill:url(#radial-gradient-52);}.cls-152{fill:url(#radial-gradient-53);}.cls-153{fill:url(#radial-gradient-54);}.cls-154{fill:url(#radial-gradient-55);}.cls-155{fill:url(#radial-gradient-56);}.cls-156{opacity:0.9;}.cls-157{fill:url(#radial-gradient-57);}.cls-158{fill:url(#radial-gradient-58);}.cls-159{fill:url(#radial-gradient-59);}.cls-160{fill:url(#radial-gradient-60);}.cls-161{fill:url(#radial-gradient-61);}</style><linearGradient id="Áåçûìÿííûé_ãðàäèåíò_244" x1="73.545" y1="186.204" x2="73.545" y2="123.297" gradientUnits="userSpaceOnUse"><stop offset="0" stop-color="#003f4f"/><stop offset="0.026" stop-color="#024251"/><stop offset="0.373" stop-color="#17636d"/><stop offset="0.662" stop-color="#24777f"/><stop offset="0.857" stop-color="#297e85"/></linearGradient><linearGradient id="Áåçûìÿííûé_ãðàäèåíò_216" x1="26.048" y1="21.352" x2="50.83" y2="56.595" gradientUnits="userSpaceOnUse"><stop offset="0" stop-color="#a890fe"/><stop offset="0.008" stop-color="#a68ffd"/><stop offset="0.362" stop-color="#606acd"/><stop offset="0.657" stop-color="#2c4faa"/><stop offset="0.878" stop-color="#0c3e95"/><stop offset="1" stop-color="#00388d"/></linearGradient><linearGradient id="Áåçûìÿííûé_ãðàäèåíò_214" x1="25.473" y1="21.756" x2="52.83" y2="60.661" gradientUnits="userSpaceOnUse"><stop offset="0.019" stop-color="#fff"/><stop offset="0.51" stop-color="#c0a5cc"/><stop offset="0.983" stop-color="#814a98"/></linearGradient><linearGradient id="Áåçûìÿííûé_ãðàäèåíò_132" x1="55.8" y1="46.085" x2="35.487" y2="46.085" gradientUnits="userSpaceOnUse"><stop offset="0.019" stop-color="#fff"/><stop offset="0.51" stop-color="#c9a5cc"/><stop offset="0.983" stop-color="#924a98"/></linearGradient><clipPath id="clip-path"><path class="cls-1" d="M55.569,53.32a1.487,1.487,0,0,0,1.019-1.851c-.971-3.2-3.942-10.827-10.35-11.577-7.669-.9-12.03,5.9-11.995,10.956a.622.622,0,0,0,.742.615c.783-.167,2.264-.107,4.59,1.408C43.031,55.121,49.47,55.132,55.569,53.32Z"/></clipPath><linearGradient id="Áåçûìÿííûé_ãðàäèåíò_210" x1="45.604" y1="54.157" x2="45.604" y2="42.531" gradientUnits="userSpaceOnUse"><stop offset="0.115" stop-color="#f1eab9"/><stop offset="0.235" stop-color="#f2e1b2"/><stop offset="0.43" stop-color="#f4c9a0"/><stop offset="0.676" stop-color="#f9a183"/><stop offset="0.96" stop-color="#fe6b5a"/><stop offset="1" stop-color="#ff6354"/></linearGradient><linearGradient id="Áåçûìÿííûé_ãðàäèåíò_553" x1="59.484" y1="-25.212" x2="59.484" y2="-38.246" gradientTransform="translate(-10.053 84.783) rotate(-5.411)" gradientUnits="userSpaceOnUse"><stop offset="0" stop-color="#3e9044"/><stop offset="0.882" stop-color="#0a4a30"/></linearGradient><linearGradient id="Áåçûìÿííûé_ãðàäèåíò_212" x1="59.669" y1="-28.055" x2="59.669" y2="-36.071" gradientTransform="translate(-10.053 84.783) rotate(-5.411)" gradientUnits="userSpaceOnUse"><stop offset="0" stop-color="#9dc3ed"/><stop offset="0.079" stop-color="#8faad3"/><stop offset="0.248" stop-color="#757ba0"/><stop offset="0.414" stop-color="#5f5477"/><stop offset="0.576" stop-color="#4e3556"/><stop offset="0.73" stop-color="#42203f"/><stop offset="0.875" stop-color="#3b1331"/><stop offset="1" stop-color="#380e2c"/></linearGradient><linearGradient id="Áåçûìÿííûé_ãðàäèåíò_450" x1="59.304" y1="-20.789" x2="59.304" y2="-30.438" gradientTransform="translate(-10.053 84.783) rotate(-5.411)" gradientUnits="userSpaceOnUse"><stop offset="0"/><stop offset="0.478" stop-color="#818100"/><stop offset="0.838" stop-color="#dbdb00"/><stop offset="1" stop-color="#ff0"/></linearGradient><linearGradient id="Áåçûìÿííûé_ãðàäèåíò_130" x1="29.64" y1="52.554" x2="34.594" y2="57.509" gradientUnits="userSpaceOnUse"><stop offset="0" stop-color="#ff819f"/><stop offset="0.339" stop-color="#9b4e61"/><stop offset="0.645" stop-color="#48242d"/><stop offset="0.86" stop-color="#140a0c"/><stop offset="0.965"/></linearGradient><linearGradient id="Áåçûìÿííûé_ãðàäèåíò_130-2" x1="39.989" y1="55.362" x2="45.979" y2="61.352" xlink:href="#Áåçûìÿííûé_ãðàäèåíò_130"/><linearGradient id="linear-gradient" x1="41.344" y1="23.838" x2="47.557" y2="30.052" gradientUnits="userSpaceOnUse"><stop offset="0" stop-color="#ffff9f"/><stop offset="0.339" stop-color="#9b9b61"/><stop offset="0.645" stop-color="#48482d"/><stop offset="0.86" stop-color="#14140c"/><stop offset="0.965"/></linearGradient><linearGradient id="linear-gradient-2" x1="27.388" y1="18.193" x2="36.793" y2="27.597" xlink:href="#linear-gradient"/><linearGradient id="linear-gradient-3" x1="49.15" y1="31.069" x2="51.74" y2="33.659" xlink:href="#linear-gradient"/><linearGradient id="linear-gradient-4" x1="23.88" y1="31.796" x2="27.576" y2="35.492" xlink:href="#linear-gradient"/><linearGradient id="Áåçûìÿííûé_ãðàäèåíò_130-3" x1="28.823" y1="48.528" x2="31.741" y2="51.446" xlink:href="#Áåçûìÿííûé_ãðàäèåíò_130"/><linearGradient id="Áåçûìÿííûé_ãðàäèåíò_216-2" x1="64.918" y1="27.571" x2="98.643" y2="75.532" xlink:href="#Áåçûìÿííûé_ãðàäèåíò_216"/><linearGradient id="Áåçûìÿííûé_ãðàäèåíò_214-2" x1="63.973" y1="25.438" x2="110.466" y2="89.429" xlink:href="#Áåçûìÿííûé_ãðàäèåíò_214"/><linearGradient id="Áåçûìÿííûé_ãðàäèåíò_226" x1="69.747" y1="60.035" x2="105.542" y2="60.035" gradientUnits="userSpaceOnUse"><stop offset="0.017" stop-color="#924a98"/><stop offset="0.49" stop-color="#c9a5cc"/><stop offset="0.981" stop-color="#fff"/></linearGradient><clipPath id="clip-path-2"><path class="cls-1" d="M64.483,67.356a.686.686,0,0,1-.288-1.3,41.243,41.243,0,0,0,10.422-7.991c8.609-8.608,25.862-8,31.121,6.493a.68.68,0,0,1-.67.906c-1.188-.07-3.462.214-7.176,2.2-5.97,3.2-8.825,2.337-16.872.952A124,124,0,0,0,64.483,67.356Z"/></clipPath><linearGradient id="Áåçûìÿííûé_ãðàäèåíò_210-2" x1="84.793" y1="69.313" x2="84.793" y2="55.639" xlink:href="#Áåçûìÿííûé_ãðàäèåíò_210"/><linearGradient id="Áåçûìÿííûé_ãðàäèåíò_553-2" x1="95.678" y1="0.278" x2="95.678" y2="-20.33" gradientTransform="translate(37.528 -18.311) rotate(66.925)" xlink:href="#Áåçûìÿííûé_ãðàäèåíò_553"/><linearGradient id="Áåçûìÿííûé_ãðàäèåíò_212-2" x1="95.97" y1="-4.216" x2="95.97" y2="-16.891" xlink:href="#Áåçûìÿííûé_ãðàäèåíò_212"/><linearGradient id="Áåçûìÿííûé_ãðàäèåíò_450-2" x1="216.236" y1="39.097" x2="216.236" y2="23.84" gradientTransform="matrix(1.836, 0.119, -0.065, 0.998, -310.531, 16.524)" xlink:href="#Áåçûìÿííûé_ãðàäèåíò_450"/><linearGradient id="linear-gradient-5" x1="59.976" y1="44.969" x2="64.999" y2="49.992" xlink:href="#linear-gradient"/><linearGradient id="linear-gradient-6" x1="108.781" y1="39.946" x2="118.636" y2="49.801" xlink:href="#linear-gradient"/><linearGradient id="linear-gradient-7" x1="99.211" y1="38.851" x2="102.247" y2="41.887" xlink:href="#linear-gradient"/><linearGradient id="linear-gradient-8" x1="89.08" y1="28.627" x2="98.304" y2="37.851" xlink:href="#linear-gradient"/><linearGradient id="linear-gradient-9" x1="68.18" y1="22.426" x2="81.494" y2="35.741" xlink:href="#linear-gradient"/><linearGradient id="Áåçûìÿííûé_ãðàäèåíò_130-4" x1="80.097" y1="58.594" x2="106.63" y2="85.127" xlink:href="#Áåçûìÿííûé_ãðàäèåíò_130"/><linearGradient id="Áåçûìÿííûé_ãðàäèåíò_130-5" x1="65.407" y1="71.592" x2="87.059" y2="93.244" xlink:href="#Áåçûìÿííûé_ãðàäèåíò_130"/><linearGradient id="Áåçûìÿííûé_ãðàäèåíò_216-3" x1="99.533" y1="72.464" x2="111.19" y2="98.905" xlink:href="#Áåçûìÿííûé_ãðàäèåíò_216"/><linearGradient id="Áåçûìÿííûé_ãðàäèåíò_257" x1="90.718" y1="87.434" x2="116.43" y2="87.434" gradientUnits="userSpaceOnUse"><stop offset="0.393" stop-color="#924a98"/><stop offset="0.682" stop-color="#c9a5cc"/><stop offset="0.981" stop-color="#fff"/></linearGradient><linearGradient id="Áåçûìÿííûé_ãðàäèåíò_214-3" x1="96.882" y1="69.706" x2="119.099" y2="100.284" xlink:href="#Áåçûìÿííûé_ãðàäèåíò_214"/><linearGradient id="linear-gradient-10" x1="108.661" y1="63.406" x2="118.234" y2="72.979" xlink:href="#linear-gradient"/><linearGradient id="linear-gradient-11" x1="82.547" y1="82.005" x2="86.04" y2="85.498" xlink:href="#linear-gradient"/><linearGradient id="Áåçûìÿííûé_ãðàäèåíò_130-6" x1="76.715" y1="88.797" x2="84.806" y2="96.889" xlink:href="#Áåçûìÿííûé_ãðàäèåíò_130"/><linearGradient id="Áåçûìÿííûé_ãðàäèåíò_214-4" x1="75.422" y1="93.54" x2="83.42" y2="93.54" xlink:href="#Áåçûìÿííûé_ãðàäèåíò_214"/><linearGradient id="Áåçûìÿííûé_ãðàäèåíò_221" x1="21.961" y1="56.994" x2="62.127" y2="114.116" gradientUnits="userSpaceOnUse"><stop offset="0.226" stop-color="#a890fe"/><stop offset="0.232" stop-color="#a68ffd"/><stop offset="0.506" stop-color="#606acd"/><stop offset="0.734" stop-color="#2c4faa"/><stop offset="0.905" stop-color="#0c3e95"/><stop offset="1" stop-color="#00388d"/></linearGradient><linearGradient id="Áåçûìÿííûé_ãðàäèåíò_214-5" x1="22.966" y1="60.314" x2="63.083" y2="115.531" xlink:href="#Áåçûìÿííûé_ãðàäèåíò_214"/><linearGradient id="Áåçûìÿííûé_ãðàäèåíò_226-2" x1="37.592" y1="93.578" x2="68.624" y2="93.578" xlink:href="#Áåçûìÿííûé_ãðàäèåíò_226"/><clipPath id="clip-path-3"><path class="cls-1" d="M70.732,100.525a.713.713,0,0,0-.118-.59c-.9-1.2-4.8-6.394-10.013-12.974-5.971-7.527-16.872-9.69-19.122-1.211-1.858,7-2.831,10.111-4.332,11.371a.675.675,0,0,0,.142,1.111,27.074,27.074,0,0,1,6.6,4.909C47.942,107.182,66.59,117.287,70.732,100.525Z"/></clipPath><linearGradient id="Áåçûìÿííûé_ãðàäèåíò_210-3" x1="53.834" y1="108.935" x2="53.834" y2="85.718" xlink:href="#Áåçûìÿííûé_ãðàäèåíò_210"/><linearGradient id="Áåçûìÿííûé_ãðàäèåíò_553-3" x1="18.228" y1="-49.236" x2="18.228" y2="-69.584" gradientTransform="translate(55.852 155.663) rotate(-22.166)" xlink:href="#Áåçûìÿííûé_ãðàäèåíò_553"/><linearGradient id="Áåçûìÿííûé_ãðàäèåíò_212-3" x1="17.473" y1="-53.709" x2="17.473" y2="-66.225" gradientTransform="translate(55.852 155.663) rotate(-22.166)" xlink:href="#Áåçûìÿííûé_ãðàäèåíò_212"/><linearGradient id="Áåçûìÿííûé_ãðàäèåíò_450-3" x1="14.014" y1="-43.476" x2="14.014" y2="-58.541" gradientTransform="translate(55.852 155.663) rotate(-22.166)" xlink:href="#Áåçûìÿííûé_ãðàäèåíò_450"/><linearGradient id="Áåçûìÿííûé_ãðàäèåíò_130-7" x1="23.082" y1="99.341" x2="29.419" y2="105.678" xlink:href="#Áåçûìÿííûé_ãðàäèåíò_130"/><linearGradient id="Áåçûìÿííûé_ãðàäèåíò_130-8" x1="51.877" y1="119.128" x2="59.287" y2="126.538" xlink:href="#Áåçûìÿííûé_ãðàäèåíò_130"/><linearGradient id="Áåçûìÿííûé_ãðàäèåíò_130-9" x1="33.22" y1="108.502" x2="43.004" y2="118.286" xlink:href="#Áåçûìÿííûé_ãðàäèåíò_130"/><linearGradient id="linear-gradient-12" x1="21.324" y1="53.141" x2="40.307" y2="72.125" xlink:href="#linear-gradient"/><linearGradient id="Áåçûìÿííûé_ãðàäèåíò_130-10" x1="28.753" y1="106.469" x2="33.483" y2="111.2" xlink:href="#Áåçûìÿííûé_ãðàäèåíò_130"/><linearGradient id="linear-gradient-13" x1="49.748" y1="62.145" x2="56.228" y2="68.625" xlink:href="#linear-gradient"/><linearGradient id="linear-gradient-14" x1="23.459" y1="82.088" x2="26.793" y2="85.422" xlink:href="#linear-gradient"/><linearGradient id="linear-gradient-15" x1="18.869" y1="72.138" x2="26.424" y2="79.693" xlink:href="#linear-gradient"/><linearGradient id="Áåçûìÿííûé_ãðàäèåíò_256" x1="99.809" y1="156.488" x2="122.141" y2="156.488" gradientUnits="userSpaceOnUse"><stop offset="0.004"/><stop offset="0.137" stop-color="#001c27"/><stop offset="0.455" stop-color="#005b7f"/><stop offset="0.715" stop-color="#0089bf"/><stop offset="0.903" stop-color="#00a5e7"/><stop offset="1" stop-color="#00b0f6"/></linearGradient><linearGradient id="Áåçûìÿííûé_ãðàäèåíò_255" x1="35.336" y1="149.029" x2="60.232" y2="149.029" gradientUnits="userSpaceOnUse"><stop offset="0" stop-color="#00b0f6"/><stop offset="0.097" stop-color="#00a5e7"/><stop offset="0.285" stop-color="#0089bf"/><stop offset="0.545" stop-color="#005b7f"/><stop offset="0.863" stop-color="#001c27"/><stop offset="0.996"/></linearGradient><linearGradient id="Áåçûìÿííûé_ãðàäèåíò_255-2" x1="34.211" y1="169.338" x2="64.976" y2="169.338" xlink:href="#Áåçûìÿííûé_ãðàäèåíò_255"/><linearGradient id="Áåçûìÿííûé_ãðàäèåíò_256-2" x1="96.166" y1="139.466" x2="120.508" y2="139.466" xlink:href="#Áåçûìÿííûé_ãðàäèåíò_256"/><linearGradient id="Áåçûìÿííûé_ãðàäèåíò_255-3" x1="46.151" y1="174.741" x2="68.151" y2="174.741" xlink:href="#Áåçûìÿííûé_ãðàäèåíò_255"/><linearGradient id="Áåçûìÿííûé_ãðàäèåíò_222" x1="82.61" y1="94.096" x2="107.379" y2="129.322" gradientUnits="userSpaceOnUse"><stop offset="0.123" stop-color="#a890fe"/><stop offset="0.131" stop-color="#a68ffd"/><stop offset="0.441" stop-color="#606acd"/><stop offset="0.699" stop-color="#2c4faa"/><stop offset="0.893" stop-color="#0c3e95"/><stop offset="1" stop-color="#00388d"/></linearGradient><linearGradient id="Áåçûìÿííûé_ãðàäèåíò_214-6" x1="81.785" y1="95.077" x2="103.785" y2="125.357" xlink:href="#Áåçûìÿííûé_ãðàäèåíò_214"/><linearGradient id="Áåçûìÿííûé_ãðàäèåíò_225" x1="89.186" y1="111.64" x2="104.868" y2="111.64" gradientUnits="userSpaceOnUse"><stop offset="0.202" stop-color="#924a98"/><stop offset="0.584" stop-color="#c9a5cc"/><stop offset="0.981" stop-color="#fff"/></linearGradient><clipPath id="clip-path-4"><path class="cls-1" d="M88.9,116.988a2.065,2.065,0,0,1,0-2.011c1.644-2.9,6.745-11.284,10.542-10.711,3.711.56,5.042,6.5,5.415,8.75a2.036,2.036,0,0,1-.378,1.554C102.42,117.348,94.392,126.962,88.9,116.988Z"/></clipPath><linearGradient id="Áåçûìÿííûé_ãðàäèåíò_210-4" x1="96.769" y1="120.871" x2="96.769" y2="107.391" xlink:href="#Áåçûìÿííûé_ãðàäèåíò_210"/><linearGradient id="Áåçûìÿííûé_ãðàäèåíò_553-4" x1="102.985" y1="43.467" x2="102.985" y2="30.434" xlink:href="#Áåçûìÿííûé_ãðàäèåíò_553"/><linearGradient id="Áåçûìÿííûé_ãðàäèåíò_212-4" x1="103.17" y1="40.625" x2="103.17" y2="32.609" xlink:href="#Áåçûìÿííûé_ãðàäèåíò_212"/><linearGradient id="Áåçûìÿííûé_ãðàäèåíò_450-4" x1="102.805" y1="47.891" x2="102.805" y2="38.242" xlink:href="#Áåçûìÿííûé_ãðàäèåíò_450"/><linearGradient id="linear-gradient-16" x1="79.716" y1="94.981" x2="90.534" y2="105.799" xlink:href="#linear-gradient"/><linearGradient id="linear-gradient-17" x1="87.607" y1="92.807" x2="96.925" y2="102.124" xlink:href="#linear-gradient"/><linearGradient id="linear-gradient-18" x1="95.345" y1="87.805" x2="101.773" y2="94.232" xlink:href="#linear-gradient"/><linearGradient id="Áåçûìÿííûé_ãðàäèåíò_130-11" x1="89.331" y1="126.453" x2="96.578" y2="133.7" xlink:href="#Áåçûìÿííûé_ãðàäèåíò_130"/><linearGradient id="linear-gradient-19" x1="83.187" y1="115.143" x2="86.365" y2="118.32" xlink:href="#linear-gradient"/><linearGradient id="Áåçûìÿííûé_ãðàäèåíò_130-12" x1="85.206" y1="124.569" x2="91.564" y2="130.927" xlink:href="#Áåçûìÿííûé_ãðàäèåíò_130"/><linearGradient id="Áåçûìÿííûé_ãðàäèåíò_130-13" x1="97.193" y1="122.156" x2="104.381" y2="129.344" xlink:href="#Áåçûìÿííûé_ãðàäèåíò_130"/><linearGradient id="Áåçûìÿííûé_ãðàäèåíò_216-4" x1="59.664" y1="107.35" x2="78.076" y2="133.534" xlink:href="#Áåçûìÿííûé_ãðàäèåíò_216"/><linearGradient id="Áåçûìÿííûé_ãðàäèåíò_214-7" x1="59.902" y1="105.25" x2="76.874" y2="128.61" xlink:href="#Áåçûìÿííûé_ãðàäèåíò_214"/><linearGradient id="Áåçûìÿííûé_ãðàäèåíò_226-3" x1="66.226" y1="122.98" x2="78.6" y2="122.98" xlink:href="#Áåçûìÿííûé_ãðàäèåíò_226"/><clipPath id="clip-path-5"><path class="cls-1" d="M78.6,122.306a2.035,2.035,0,0,0-.459-1.563c-1.349-1.6-4.917-5.486-7.331-4.8-2.746.784-4.424,5.481-4.52,8.221a1.968,1.968,0,0,0,.473,1.339c1.194,1.414,4.549,4.945,7.681,4.11C77.484,128.807,78.362,124.26,78.6,122.306Z"/></clipPath><linearGradient id="Áåçûìÿííûé_ãðàäèåíò_210-5" x1="72.452" y1="129.306" x2="72.452" y2="118.413" xlink:href="#Áåçûìÿííûé_ãðàäèåíò_210"/><linearGradient id="Áåçûìÿííûé_ãðàäèåíò_553-5" x1="78.88" y1="49.601" x2="78.88" y2="39.674" xlink:href="#Áåçûìÿííûé_ãðàäèåíò_553"/><linearGradient id="Áåçûìÿííûé_ãðàäèåíò_212-5" x1="79.021" y1="47.436" x2="79.021" y2="41.331" xlink:href="#Áåçûìÿííûé_ãðàäèåíò_212"/><linearGradient id="Áåçûìÿííûé_ãðàäèåíò_450-5" x1="78.744" y1="52.969" x2="78.744" y2="45.621" xlink:href="#Áåçûìÿííûé_ãðàäèåíò_450"/><linearGradient id="linear-gradient-20" x1="56.363" y1="106.15" x2="63.163" y2="112.95" xlink:href="#linear-gradient"/><linearGradient id="linear-gradient-21" x1="62.455" y1="101.488" x2="68.877" y2="107.91" xlink:href="#linear-gradient"/><linearGradient id="linear-gradient-22" x1="55.769" y1="113.847" x2="61.795" y2="119.873" xlink:href="#linear-gradient"/><linearGradient id="linear-gradient-23" x1="74.8" y1="109.883" x2="76.054" y2="111.136" xlink:href="#linear-gradient"/><linearGradient id="Áåçûìÿííûé_ãðàäèåíò_130-14" x1="71.725" y1="132.538" x2="75.837" y2="136.65" xlink:href="#Áåçûìÿííûé_ãðàäèåíò_130"/><linearGradient id="Áåçûìÿííûé_ãðàäèåíò_130-15" x1="63.232" y1="124.921" x2="64.257" y2="125.946" xlink:href="#Áåçûìÿííûé_ãðàäèåíò_130"/><linearGradient id="Áåçûìÿííûé_ãðàäèåíò_130-16" x1="62.014" y1="127.705" x2="65.366" y2="131.057" xlink:href="#Áåçûìÿííûé_ãðàäèåíò_130"/><linearGradient id="Áåçûìÿííûé_ãðàäèåíò_130-17" x1="67.192" y1="130.969" x2="72.02" y2="135.797" xlink:href="#Áåçûìÿííûé_ãðàäèåíò_130"/><radialGradient id="radial-gradient" cx="93.761" cy="72.869" r="6.131" gradientTransform="translate(4.236 6.021) rotate(2.487)" gradientUnits="userSpaceOnUse"><stop offset="0" stop-color="aqua"/><stop offset="0.118" stop-color="#00c7c7" stop-opacity="0.779"/><stop offset="0.244" stop-color="#009292" stop-opacity="0.574"/><stop offset="0.371" stop-color="#066" stop-opacity="0.398"/><stop offset="0.498" stop-color="#004141" stop-opacity="0.255"/><stop offset="0.625" stop-color="#002424" stop-opacity="0.143"/><stop offset="0.751" stop-color="#001010" stop-opacity="0.063"/><stop offset="0.876" stop-color="#000404" stop-opacity="0.016"/><stop offset="1" stop-opacity="0"/></radialGradient><radialGradient id="radial-gradient-2" cx="57.452" cy="74.835" r="6.131" xlink:href="#radial-gradient"/><radialGradient id="radial-gradient-3" cx="102.785" cy="23.789" r="6.131" xlink:href="#radial-gradient"/><radialGradient id="radial-gradient-4" cx="97.332" cy="39.53" r="2.277" xlink:href="#radial-gradient"/><radialGradient id="radial-gradient-5" cx="72.803" cy="46.755" r="2.277" xlink:href="#radial-gradient"/><radialGradient id="radial-gradient-6" cx="47.766" cy="64.836" r="2.277" xlink:href="#radial-gradient"/><radialGradient id="radial-gradient-7" cx="39.508" cy="58.563" r="2.277" xlink:href="#radial-gradient"/><radialGradient id="radial-gradient-8" cx="57.386" cy="118.144" r="2.277" xlink:href="#radial-gradient"/><radialGradient id="radial-gradient-9" cx="64.833" cy="103.483" r="2.277" xlink:href="#radial-gradient"/><radialGradient id="radial-gradient-10" cx="74.322" cy="115.129" r="2.277" xlink:href="#radial-gradient"/><radialGradient id="radial-gradient-11" cx="93.511" cy="86.646" r="2.277" xlink:href="#radial-gradient"/><radialGradient id="radial-gradient-12" cx="50.139" cy="47.74" r="6.131" xlink:href="#radial-gradient"/><radialGradient id="radial-gradient-13" cx="125.264" cy="34.254" r="6.131" xlink:href="#radial-gradient"/><radialGradient id="radial-gradient-14" cx="35.076" cy="97.805" r="6.131" xlink:href="#radial-gradient"/><radialGradient id="radial-gradient-15" cx="6.596" cy="41.314" r="6.131" xlink:href="#radial-gradient"/><radialGradient id="radial-gradient-16" cx="33.343" cy="36.173" r="6.131" xlink:href="#radial-gradient"/><radialGradient id="radial-gradient-17" cx="132.755" cy="65.427" r="6.131" xlink:href="#radial-gradient"/><radialGradient id="radial-gradient-18" cx="110.432" cy="32.825" r="2.277" xlink:href="#radial-gradient"/><radialGradient id="radial-gradient-19" cx="12.026" cy="51.675" r="2.277" xlink:href="#radial-gradient"/><radialGradient id="radial-gradient-20" cx="20.448" cy="31.583" r="2.277" xlink:href="#radial-gradient"/><radialGradient id="radial-gradient-21" cx="24.73" cy="79.725" r="2.277" xlink:href="#radial-gradient"/><radialGradient id="radial-gradient-22" cx="87.267" cy="90.434" r="2.277" xlink:href="#radial-gradient"/><radialGradient id="radial-gradient-23" cx="108.941" cy="99.287" r="2.277" xlink:href="#radial-gradient"/><radialGradient id="radial-gradient-24" cx="132.267" cy="48.731" r="2.277" xlink:href="#radial-gradient"/><radialGradient id="radial-gradient-25" cx="60.879" cy="-6.392" r="2.277" xlink:href="#radial-gradient"/><radialGradient id="radial-gradient-26" cx="67.217" cy="4.04" r="2.277" xlink:href="#radial-gradient"/><radialGradient id="radial-gradient-27" cx="53.864" cy="11.413" r="2.277" xlink:href="#radial-gradient"/><radialGradient id="radial-gradient-28" cx="35.306" cy="46.31" r="2.277" xlink:href="#radial-gradient"/><radialGradient id="radial-gradient-29" cx="499.491" cy="130.644" r="6.131" gradientTransform="translate(498.963 -123.224) rotate(134.709)" xlink:href="#radial-gradient"/><radialGradient id="radial-gradient-30" cx="463.182" cy="132.612" r="6.131" gradientTransform="translate(211.892 -351.941) rotate(93.067)" xlink:href="#radial-gradient"/><radialGradient id="radial-gradient-31" cx="508.513" cy="81.564" r="6.131" gradientTransform="translate(617.707 175.498) rotate(173.559)" xlink:href="#radial-gradient"/><radialGradient id="radial-gradient-32" cx="503.061" cy="97.305" r="2.277" gradientTransform="translate(211.892 -351.941) rotate(93.067)" xlink:href="#radial-gradient"/><radialGradient id="radial-gradient-33" cx="478.531" cy="104.531" r="2.277" gradientTransform="translate(211.892 -351.941) rotate(93.067)" xlink:href="#radial-gradient"/><radialGradient id="radial-gradient-34" cx="453.495" cy="122.614" r="2.277" gradientTransform="translate(211.892 -351.941) rotate(93.067)" xlink:href="#radial-gradient"/><radialGradient id="radial-gradient-35" cx="445.237" cy="116.341" r="2.277" gradientTransform="translate(211.892 -351.941) rotate(93.067)" xlink:href="#radial-gradient"/><radialGradient id="radial-gradient-36" cx="463.118" cy="175.922" r="2.277" gradientTransform="translate(211.892 -351.941) rotate(93.067)" xlink:href="#radial-gradient"/><radialGradient id="radial-gradient-37" cx="470.565" cy="161.26" r="2.277" gradientTransform="translate(211.892 -351.941) rotate(93.067)" xlink:href="#radial-gradient"/><radialGradient id="radial-gradient-38" cx="480.054" cy="172.906" r="2.277" gradientTransform="translate(211.892 -351.941) rotate(93.067)" xlink:href="#radial-gradient"/><radialGradient id="radial-gradient-39" cx="499.242" cy="144.422" r="2.277" gradientTransform="translate(211.892 -351.941) rotate(93.067)" xlink:href="#radial-gradient"/><radialGradient id="radial-gradient-40" cx="455.867" cy="105.517" r="6.131" gradientTransform="translate(477.157 -153.196) rotate(134.552)" xlink:href="#radial-gradient"/><radialGradient id="radial-gradient-41" cx="530.993" cy="92.028" r="6.131" gradientTransform="translate(211.892 -351.941) rotate(93.067)" xlink:href="#radial-gradient"/><radialGradient id="radial-gradient-42" cx="440.807" cy="155.584" r="6.131" gradientTransform="matrix(-0.948, 0.319, -0.319, -0.948, 500.368, 86.635)" xlink:href="#radial-gradient"/><radialGradient id="radial-gradient-43" cx="412.324" cy="99.094" r="6.131" gradientTransform="matrix(-0.995, 0.103, -0.103, -0.995, 511.201, 110.811)" xlink:href="#radial-gradient"/><radialGradient id="radial-gradient-44" cx="439.071" cy="93.951" r="6.131" gradientTransform="translate(211.892 -351.941) rotate(93.067)" xlink:href="#radial-gradient"/><radialGradient id="radial-gradient-45" cx="538.485" cy="123.201" r="6.131" gradientTransform="translate(211.892 -351.941) rotate(93.067)" xlink:href="#radial-gradient"/><radialGradient id="radial-gradient-46" cx="516.16" cy="90.599" r="2.277" gradientTransform="translate(211.892 -351.941) rotate(93.067)" xlink:href="#radial-gradient"/><radialGradient id="radial-gradient-47" cx="417.754" cy="109.454" r="2.277" gradientTransform="translate(211.892 -351.941) rotate(93.067)" xlink:href="#radial-gradient"/><radialGradient id="radial-gradient-48" cx="426.175" cy="89.362" r="2.277" gradientTransform="translate(211.892 -351.941) rotate(93.067)" xlink:href="#radial-gradient"/><radialGradient id="radial-gradient-49" cx="430.459" cy="137.504" r="2.277" gradientTransform="translate(211.892 -351.941) rotate(93.067)" xlink:href="#radial-gradient"/><radialGradient id="radial-gradient-50" cx="492.998" cy="148.21" r="2.277" gradientTransform="translate(211.892 -351.941) rotate(93.067)" xlink:href="#radial-gradient"/><radialGradient id="radial-gradient-51" cx="514.672" cy="157.062" r="2.277" gradientTransform="translate(211.892 -351.941) rotate(93.067)" xlink:href="#radial-gradient"/><radialGradient id="radial-gradient-52" cx="537.997" cy="106.504" r="2.277" gradientTransform="translate(211.892 -351.941) rotate(93.067)" xlink:href="#radial-gradient"/><radialGradient id="radial-gradient-53" cx="466.605" cy="51.385" r="2.277" gradientTransform="translate(211.892 -351.941) rotate(93.067)" xlink:href="#radial-gradient"/><radialGradient id="radial-gradient-54" cx="472.944" cy="61.817" r="2.277" gradientTransform="translate(211.892 -351.941) rotate(93.067)" xlink:href="#radial-gradient"/><radialGradient id="radial-gradient-55" cx="459.591" cy="69.19" r="2.277" gradientTransform="translate(211.892 -351.941) rotate(93.067)" xlink:href="#radial-gradient"/><radialGradient id="radial-gradient-56" cx="441.035" cy="104.088" r="2.277" gradientTransform="translate(211.892 -351.941) rotate(93.067)" xlink:href="#radial-gradient"/><radialGradient id="radial-gradient-57" cx="46.665" cy="47.218" r="46.665" gradientUnits="userSpaceOnUse"><stop offset="0.023" stop-color="aqua"/><stop offset="0.041" stop-color="#00f2f2" stop-opacity="0.948"/><stop offset="0.113" stop-color="#00c0c0" stop-opacity="0.751"/><stop offset="0.19" stop-color="#009292" stop-opacity="0.573"/><stop offset="0.271" stop-color="#006b6b" stop-opacity="0.418"/><stop offset="0.357" stop-color="#004a4a" stop-opacity="0.289"/><stop offset="0.448" stop-color="#002f2f" stop-opacity="0.183"/><stop offset="0.547" stop-color="#001a1a" stop-opacity="0.102"/><stop offset="0.658" stop-color="#000b0b" stop-opacity="0.044"/><stop offset="0.79" stop-color="#000303" stop-opacity="0.01"/><stop offset="1" stop-opacity="0"/></radialGradient><radialGradient id="radial-gradient-58" cx="49.284" cy="92.365" r="46.665" xlink:href="#radial-gradient-57"/><radialGradient id="radial-gradient-59" cx="84.793" cy="64.577" r="46.665" gradientTransform="translate(28.068 -25.658) rotate(20.553)" xlink:href="#radial-gradient-57"/><radialGradient id="radial-gradient-60" cx="96.146" cy="111.242" r="38.692" gradientTransform="translate(182.78 -7.558) rotate(76.938)" xlink:href="#radial-gradient-57"/><radialGradient id="radial-gradient-61" cx="72.843" cy="121.413" r="31.588" gradientTransform="translate(50.908 -18.466) rotate(22.05)" xlink:href="#radial-gradient-57"/></defs><title>plant-10</title><g class="cls-2"><g id="Layer_2" data-name="Layer 2"><g id="plants"><g id="plant-10"><path class="cls-3" d="M115.63,145.711c-7.874-6.057-25.871,10.555-29.5,21.977,0,0,3.894-15.921,18.17-25.352s15.574,7.874,15.574,7.874,2.855-14.536-3.115-15.747-22.409,0-33.138,37.9c0,0,3.2-40.061,31.927-48.194,0,0,2.077,4.759,5.537,4.326,0,0,.347-7.028-5.191-4.985S88.461,130.656,82.318,170.8c0,0-1.817-32.532,7.354-42.4s6.474-11.555,6.474-11.555-16,9.824-15.69,47.549c0,0-2.876-26.911,9.995-62.86l-1.806-4.672S78.98,121.527,78.616,162.8c0,0-.065-26.952-3.2-36.124s-.972,2.942-.972,2.942,2.725,12.546,2.877,40.45c0,0-2.212-32.379-11.881-46.56l-2.633.421s6.571,3.829,11.657,40.039c0,0-6.474-29.158-20.54-37.236,1.159.733,14.559,9.874,20.54,44.5,0,0-9.937-35.222-27.8-41.492S26.653,135.8,26.653,135.8s-3.837,4.023,0,7.787c0,0,3.318,0,.463-7.831,0,0,1.99-10.563,17.132-6.017s23.361,26.523,27.687,36.993c0,0-8.14-13.584-14.366-19.728s-22.233,5.8-22.233,5.8,12.653-8.351,23.534,1.038a53.157,53.157,0,0,1,14.674,19.987s-14.31-26.39-39.411-18.862c0,0-3.925-.866-4.173,2.422a3.527,3.527,0,0,0,4.173-1.99s21.276-8.22,37.2,16.786c0,0-8.812-9.518-17.039-11.767s-19.3,7.1-20.08,18.173c0,0,7.614-7.358,17.651-9.521s19.783-.4,21.682,14.076c0,0-4.285-9.4-8.877-12.086S49.7,174.09,46.151,179.109c0,0,11.617-5.019,16.841-4.327s11.3,11.422,11.3,11.422-.448-3.029,1.888-.606a1.565,1.565,0,0,1,2.441.606s-1.057-7.874.674-8.566,4.153,6.489,4.153,6.489-.779-6.136,6.576-5.534,14.016,7.611,14.016,7.611-1.927-9.345-10.308-11.854-10.308,6.609-10.308,6.609,2.273-25.385,19.924-28.413,18.689,16.007,18.689,16.007S123.5,151.767,115.63,145.711Z"/><path class="cls-4" d="M73.528,144.825c-1.809-7.883-4.407-15.919-8.088-21.318l-2.633.421s1.019.6,2.563,3.526c1.472,2.791,3.418,7.7,5.419,16.22C70.344,139.621,71.7,137.617,73.528,144.825Z"/><path class="cls-4" d="M77.8,142a103.55,103.55,0,0,0-1.5-11.915l-1.421.207s-.084.2-.208.516c.3,1.668.835,5.131,1.352,10.529C75.963,137.1,77.207,137.921,77.8,142Z"/><path class="cls-4" d="M83.185,127.938a180.892,180.892,0,0,1,7.266-26.4l-1.806-4.672s-3.534,9.032-6.408,25.291C83.258,116.983,84.085,120.855,83.185,127.938Z"/><path class="cls-4" d="M62.992,174.782c5.223.693,11.3,11.422,11.3,11.422s-.448-3.029,1.888-.606a1.565,1.565,0,0,1,2.441.606s-1.057-7.874.674-8.566,4.153,6.489,4.153,6.489-.779-6.136,6.576-5.534,14.016,7.611,14.016,7.611c-3.461-12.979-18.131-12.048-20.616-5.245,0,0,2.273-25.385,19.924-28.413,14.552-2.5,17.81,10,18.506,14.461-1.511-17.409-10.128-19.628-18.419-17.074-7.409,2.283-13.829,10.713-16.2,15.135-.464.935-.713,1.513-.753,1.609-.13.341-.25.678-.356,1.011,0,0,3.894-15.921,18.17-25.352s15.574,7.874,15.574,7.874c0-6.489-2.784-14.017-7.881-12.892s-19.547,7.873-28.372,35.042c0,0,3.2-40.061,31.927-48.194,0,0,1.677,3.823,4.522,4.3-2.034-.643-3.138-4.691-3.138-4.691s-20.575,2.092-31.69,33.773A98.878,98.878,0,0,0,82.318,170.8s-1.817-32.532,7.354-42.4a45.12,45.12,0,0,0,5.361-6.714c-3.04,1.235-12.7,7.8-14.57,41.309,0,.468-.011.921-.007,1.4,0,0-.02-.189-.047-.522a115.305,115.305,0,0,1,.277-18.111c-.913,5.591-1.623,8.218-1.267-.035.034-.77.06-1.534.084-2.295-.5,5.963-.826,12.421-.887,19.362,0,0-.016-6.282-.384-13.808.1,5.663-.274,10.859-1.408,2.776-.016-.112-.032-.214-.047-.325.292,5.214.5,11.4.544,18.625a186.86,186.86,0,0,0-3.171-22.39c1.476,7.88,1.222,16.3-1.307,6.043l-.012-.051c.554,3.108,1.1,6.517,1.633,10.3,0,0-.044-.191-.121-.513a87.676,87.676,0,0,0-13.458-29.419c4.551,6.4,10.228,17.8,13.579,37.2,0,0-4.156-14.706-11.912-26.805-4.326-6-10.25-12.189-17.428-14.687-15.737-5.476-18.2,6.061-18.2,6.061.421,1.294-.012,8.594-1.656,5.749a5.782,5.782,0,0,0,1.388,2.038s3.318,0,.463-7.831c0,0,1.99-10.563,17.132-6.017s23.361,26.523,27.687,36.993c0,0-1.139-1.9-2.892-4.6-3.412-4.954-9.649-12.528-16.359-13.351a26.432,26.432,0,0,0-17.348,4.024s12.653-8.351,23.534,1.038a53.157,53.157,0,0,1,14.674,19.987C55.21,146.057,34.133,155.4,34.133,155.4s21.276-8.22,37.2,16.786a21.09,21.09,0,0,0-17.868-5.105c-11.291,1.752-19.251,11.511-19.251,11.511s7.614-7.358,17.651-9.521,19.783-.4,21.682,14.076c0,0-4.875-8.212-10.283-9.317s-17.11,5.278-17.11,5.278S57.768,174.09,62.992,174.782Z"/><path class="cls-5" d="M53.982,32.884s-.39-5.581-3.505-3.115c0,0-.389-5.581-4.153-7.527s-3.244.778-3.244.778S41,17.569,31.658,17.44s-8.306,10.253-1.3,14.795c0,0-5.062-3.893-7.139.649S28.933,44.046,32.956,46.9c0,0-3.115-.519-3.5,1.3,0,0-4.932,2.855-1.817,6.359,0,0-4.542,5.451,8.047,5.321,0,0-3.115,6.23,10.383,4.932s12.2-6.359,12.2-6.359,2.6,1.471,2.856-4.8c0,0,3.19-4.413.557-6.36s-1.764-7.4-2.115-11.616C59.238,31.781,55.669,29.639,53.982,32.884Z"/><path class="cls-6" d="M61.677,47.29c-1.646-1.216-1.923-3.8-1.986-6.6.059,8.734-3.311,4.843-6.813-.02-3.041-4.224.025-6.979.889-7.633-4.766,3.29-2.706,5.556-2.706,5.556-5.162-4.616-1.173-8.322-.641-8.777-4.715,3.616-1.954,7.042-1.954,7.042-9.63-2.158-6.243-11.74-5.511-13.544-4.435,9.868.319,12.359.319,12.359a14.623,14.623,0,0,1-12.913-3.439c3.828,4.624,7.462,4.932,7.462,4.932-2.463,3.177-13.736,4.151-14.841-1.675.837,4.186,6.672,9.065,9.974,11.409,0,0-3.115-.519-3.5,1.3,2.9-.312,4.627.205,5.646.981.64.487-.864,2.3-.278,2.3,1.543-.01,1.7,1.1,1.7,1.1-4.088-1.269-8.89,1.983-8.89,1.983,9.539-4.023,13.887.959,13.887.959-4.218.051-5.84,4.362-5.84,4.362,4.672-6.164,7.138-1.817,12.524-3.569a29.322,29.322,0,0,1,8.7-1.686c-.909,2.077,1.362,3.828,1.362,3.828-3.179-4.089,2.985-9.734,2.856-4.8C61.12,53.65,64.31,49.237,61.677,47.29Z"/><path class="cls-7" d="M34.242,49.237s-1.156-10.61,7.345-12.378,14.5,8.223,14.808,14c0,0,.424,1.532-.41,2.259s-8.4,4.826-15.389.311S34.242,49.237,34.242,49.237Z"/><path class="cls-8" d="M44.832,38.238c-5.447-.565-8.156,1.833-9.479,4.758-3.889,1.309-4.181-2.455-4.181-2.455-.357,3.959,2.239,4.737,3.5,4.428a15.27,15.27,0,0,0-.426,5.879L37.2,47.853,51.472,51.66l4.171.919a.784.784,0,0,0,.978-.982C55.878,48.128,53.261,39.112,44.832,38.238Z"/><g class="cls-9"><path class="cls-10" d="M56.967,52.871s-2.6-12.027-10.729-12.979S33.692,46.641,34.3,51.746c0,0,1.558-1.3,5.278,1.125S50.477,55.121,56.967,52.871Z"/><path class="cls-11" d="M52.349,46.885A6.753,6.753,0,0,1,46.6,54.091a6.013,6.013,0,0,1-6.6-5.8,6.752,6.752,0,0,1,5.753-7.206A6.014,6.014,0,0,1,52.349,46.885Z"/><path class="cls-12" d="M50.124,46.805a4.155,4.155,0,0,1-3.539,4.433,3.7,3.7,0,0,1-4.061-3.569,4.154,4.154,0,0,1,3.539-4.432A3.7,3.7,0,0,1,50.124,46.805Z"/><path class="cls-13" d="M51.143,53.172a5,5,0,0,1-4.26,5.336A4.452,4.452,0,0,1,42,54.212a5,5,0,0,1,4.259-5.335A4.452,4.452,0,0,1,51.143,53.172Z"/><path class="cls-14" d="M33.243,53.343s2.764-10.587,15.7-8.941c7.761.987,8.6,11.346,8.6,11.346l0-21.426L36.058,38.858Z"/><path class="cls-15" d="M46.824,45.844c-.181-.071.117-1.1,1.279-1.992a5.826,5.826,0,0,1,2.928-1.236c.188.1-.118,1.1-1.279,1.993A5.713,5.713,0,0,1,46.824,45.844Z"/><path class="cls-15" d="M45.718,46.693a.247.247,0,0,1-.031-.386.9.9,0,0,1,.638-.08.243.243,0,0,1,.031.386A.884.884,0,0,1,45.718,46.693Z"/></g><path class="cls-16" d="M28.46,58.816c-2.751-1.428,5.27-6.716,10-5.173-2.269-.824-5.828-1.192-10.825.915C27.635,54.558,25.387,57.263,28.46,58.816Z"/><path class="cls-17" d="M44.269,58.127c3.09-.389,3.159-1.393,7.426-2.786-1.034.237-2.2.55-3.489.969-5.386,1.752-7.852-2.595-12.524,3.569,0,0-2.485,4.986,6.667,5.1C35.524,64.606,41.186,58.515,44.269,58.127Z"/><path class="cls-18" d="M44.605,25.259c3.168-2.624,5.4,2.158,5.456,2.289-.489-1.782-1.531-4.166-3.737-5.306-3.764-1.947-3.244.778-3.244.778l-.125.3c-.435,1.073-1.808,4.894-.827,8.271A6.9,6.9,0,0,1,44.605,25.259Z"/><path class="cls-19" d="M31.138,20.3c6.982-1.774,10.539.853,11.31,1.647-1.144-1.595-4.1-4.41-10.79-4.5-8.178-.114-8.4,7.826-3.632,12.854C26.943,28.988,24.13,22.076,31.138,20.3Z"/><path class="cls-20" d="M50.477,29.769l-.057.048a5.131,5.131,0,0,0-1.286,6.447c-.924-1.557,3.9-7.345,4.521-5.143C53.25,29.737,52.366,28.274,50.477,29.769Z"/><path class="cls-21" d="M29.311,31.581c-.023-.013-.05-.03-.083-.053-1.614-.862-4.545-1.839-6.006,1.356a4.447,4.447,0,0,0-.073,3.221A4.389,4.389,0,0,0,24.8,38.266C21.906,36.006,24.579,29.3,29.311,31.581Z"/><path class="cls-22" d="M29.452,48.2s-2.459,1.433-2.8,3.511c.816-2.028,4.978-3.714,7.764-2.94A8.916,8.916,0,0,0,29.452,48.2Z"/><path class="cls-23" d="M88.894,28.834s-4.932-10.428-14.926-9.289-8.7,13.368-6.748,18.61,1.687,7.93,1.687,7.93-1.028-5.361-5.062-4.292-4.542,8.75-3.893,13.548-10.383,3.24-4.024,12.066c0,0-7.268,3.374,1.558,9.6S74.358,101.54,87.6,93.364c0,0,18.429,6.359,18.949-4.413,0,0,10.512,2.985,12.459-5.061s-12.2-13.109-12.2-13.109,5.581-3.374,4.153-6.749c0,0,12.849-6.693,9.6-17.947s-16.093-2.876-17.261-.706c0,0,2.262-3.938,1.131-7.113s-4.765-.32-5.414.977c0,0,1.3-7.527-2.725-11.031S88.894,28.834,88.894,28.834Z"/><path class="cls-24" d="M106.8,70.781s5.581-3.374,4.153-6.749c0,0,9.218-4.8,10.064-13.116-1.721,6.973-15.008,7.673-21.874-.32,0,0,4.456,2.347,4.153-5.217,0,0-.692,8.714-10.729,1.349,0,0,5.667,1.817,6.446-7.485,0,0-1.211,6.842-11.916,6.842,0,0,6.78-6.175,1.908-16.988.419,1.032,1.739,5.148-.721,11.488-2.6,6.7-19.664,17.558-19.664,17.558s2.359-4.568.283-12.058c0,0,2.509,11.112-5.538,17-3.914,2.862-6.622,3.248-8.373,2.892.258.446.563.921.932,1.434,5.624-1.99,33.1,5.764,31.173,22.047,0,0,3.091-12.62-7.811-17.333,0,0,22.778-2.715,27.309,15.71,0,0-.574-10.647-8.966-14.021,0,0,13.324-4.355,19.9,5.393a11.554,11.554,0,0,1,1.637,3.481C119.535,75.342,106.8,70.781,106.8,70.781Z"/><path class="cls-8" d="M105.738,64.555S103.365,50.794,90.711,50.6s-16.75,7.527-19.958,10.318-6.212,4.958-6.212,4.958l3.2.947,37.7-2.271Z"/><path class="cls-8" d="M110.049,53.7a7.655,7.655,0,0,1-6.1,6.487c-5.581,1.168-1.428-1.9-1.428-1.9S108.318,58.715,110.049,53.7Z"/><path class="cls-25" d="M105.542,63.684s-1.853-11.332-12.755-15.139-21.531,11.9-21.531,11.9S67,67.16,72.792,67.709A100,100,0,0,1,91.4,71.993c3.288,1.211,8.209-6.575,13.665-6.532l-.637-1.342Z"/><g class="cls-26"><path class="cls-27" d="M64.483,67.356a.686.686,0,0,1-.288-1.3,41.243,41.243,0,0,0,10.422-7.991c8.609-8.608,25.862-8,31.121,6.493a.68.68,0,0,1-.67.906c-1.188-.07-3.462.214-7.176,2.2-5.97,3.2-8.825,2.337-16.872.952A124,124,0,0,0,64.483,67.356Z"/><ellipse class="cls-28" cx="84.249" cy="65.779" rx="10.405" ry="9.726" transform="translate(-3.992 126.098) rotate(-72.337)"/><path class="cls-29" d="M90.5,64.543A6.568,6.568,0,0,1,84.9,71.552a5.849,5.849,0,0,1-6.42-5.643A6.567,6.567,0,0,1,84.078,58.9,5.847,5.847,0,0,1,90.5,64.543Z"/><path class="cls-30" d="M97.726,74.343c-.5,4.189-6.887,7.259-14.269,6.857S70.5,77.076,70.993,72.887s6.888-7.258,14.27-6.856S98.225,70.154,97.726,74.343Z"/><path class="cls-14" d="M56.015,74.675s6.843-17.342,37.11-15.085c18.156,1.354,20.408,18.629,20.408,18.629l-.578-35.8-50.083,8.4Z"/><path class="cls-15" d="M85.281,63.024c-.285-.114.186-1.741,2.023-3.151s4.327-2.111,4.629-1.954-.185,1.741-2.022,3.151S85.662,63.176,85.281,63.024Z"/><path class="cls-15" d="M83.532,64.366a.391.391,0,0,1-.048-.611,1.434,1.434,0,0,1,1.009-.127.385.385,0,0,1,.048.612A1.4,1.4,0,0,1,83.532,64.366Z"/></g><path class="cls-31" d="M68.907,46.085s-1.028-5.361-5.062-4.292c-3.77,1-4.46,7.774-4,12.572C59.051,43.958,68.2,42.483,68.907,46.085Z"/><path class="cls-32" d="M120.889,47.548a13.488,13.488,0,0,0-.328-1.463c-2.633-9.133-11.59-5.337-15.5-2.422C106.242,42.784,119.412,40.935,120.889,47.548Z"/><path class="cls-33" d="M99.017,39.243a13.522,13.522,0,0,1-1.062,4.551c1.062-1.7,3.7-7.319,5.951-5.373a3.3,3.3,0,0,1,.793,1.014,5.41,5.41,0,0,0-.268-1.169c-1.076-3.02-4.409-.589-5.292.774Z"/><path class="cls-34" d="M89.257,29.685a17.371,17.371,0,0,1,1.459,8.227c.557-3.471,1.12-10.176,4.537-9.181,3.395.988,3.922,6.275,3.955,8.217.061-2.506-.306-6.463-2.917-8.736-4.023-3.5-7.4.622-7.4.622l.115.263S89.11,29.312,89.257,29.685Z"/><path class="cls-35" d="M88.727,28.508c-.93-1.745-5.816-9.982-14.759-8.963-9.13,1.041-8.834,11.335-7.231,17.1C64.848,31.147,82.158,16.694,88.727,28.508Z"/><path class="cls-36" d="M106.545,88.951S117.057,91.936,119,83.89a6.422,6.422,0,0,0,.166-1.206,11.554,11.554,0,0,0-1.637-3.481c-6.576-9.748-19.9-5.393-19.9-5.393,8.392,3.374,8.966,14.021,8.966,14.021-4.531-18.425-27.309-15.71-27.309-15.71,12.249,3.133,17.818,15.265,20.178,23.052C103.159,94.879,106.333,93.332,106.545,88.951Z"/><path class="cls-37" d="M68.029,68.97c.782.278,1.574.566,2.4.892C82.39,74.569,79.371,88.305,77.2,94.71a10.883,10.883,0,0,0,8.954-.556l.951-4.7C88.337,79,77.465,72.072,68.029,68.97Z"/><path class="cls-38" d="M79.03,87.653s-2.206-3.634,6.619-4.8,17-17.6,30.24-22.689,11.032,4.13,11.032,4.13,6.878,1.817-1.947,7.138c0,0,3.115,1.687-.649,3.634,0,0,7.268-.908,8.826,2.336s-3.245,5.841-9.734,8.177c0,0,5.191-.519,7.268.519s-.779,2.985-.779,2.985,5.191,2.985-2.726,6.619c0,0,3.115,5.581-6.878,8.177,0,0-1.947,6.229-10.9,2.206,0,0-2.077,4.672-9.215-.779s-18.819-6.23-23.231-11.032S79.03,87.653,79.03,87.653Z"/><path class="cls-39" d="M116.322,85.058a19.168,19.168,0,0,0,.04-3.764S114.4,93.68,90.718,88.069a34.092,34.092,0,0,0,7.131,3.608c3.952,1.4,13.112,4.38,17.069-2.223l-.032-.668Z"/><path class="cls-40" d="M130.685,86.1c-2.077-1.038-7.268-.519-7.268-.519,3.77-1.358,6.96-2.8,8.675-4.413-7.164,6.24-14.278-4.456-14.278-4.456a8.581,8.581,0,0,0,6.511-1.644,6.462,6.462,0,0,1-4.369.433,10.133,10.133,0,0,0,5.018-4.067,4.578,4.578,0,0,1-1.168.39,12.841,12.841,0,0,0,3.115-7.528C124.26,79.347,97.979,83.7,88.908,86.55s-9.878,1.1-9.878,1.1a7.562,7.562,0,0,0-2.258,1.133c2.035-1.085,3.686-.289,6.325,2.7s13,4.672,26.692,1.854,10.513,10.54,10.513,10.54c4.607-10.253-5.451-12.589-5.451-12.589,8.683-2.6,12.329,4.413,12.329,4.413-2.6-6.3-10.058-6.246-10.058-6.246s7.073-3.683,12.784-.373C129.906,89.081,132.761,87.134,130.685,86.1Z"/><path class="cls-8" d="M121.427,91.85c-5.013,2.205-7.022.01-7.662-1.051a8.23,8.23,0,0,0,2.557-5.741c-1.774,7.787-12.157,6.575-19.553,4.1A23.435,23.435,0,0,0,83.1,88.786c7.181-1.723,17.824,5.616,25.611,4.318a10.982,10.982,0,0,0,3.067-.966C115.787,96.152,121.427,91.85,121.427,91.85Z"/><path class="cls-41" d="M126.921,64.292s2.206-9.215-11.032-4.13c-7.026,2.7-12.626,8.6-17.654,13.709C108.5,64.626,128.05,60.542,126.921,64.292Z"/><path class="cls-42" d="M83.628,87.909c-1.512.069-3-.312-2.456-1.354.781-1.513,5.08-2.842,9.351-5.757a11.593,11.593,0,0,1-4.874,2.053c-8.825,1.168-6.619,4.8-6.619,4.8S79.5,88.65,83.628,87.909Z"/><path class="cls-43" d="M76.5,89.015c-1.08,1.4,1.87,6.558,6.9,9.051l.163.065a7.99,7.99,0,0,0-1.327-1.263c-5-3.686-3.049-8.222-.983-7.24-1.655-1.407-2.957-1.649-4.469-.848l-.085.067a.842.842,0,0,0-.2.165Z"/><path class="cls-44" d="M78.226,95.411c.094.07.2.136.294.2.148.1.293.21.448.31.109.07.225.136.338.2.154.093.305.188.465.279.118.066.243.129.364.193.166.088.329.178.5.263.121.061.248.118.371.177.18.086.357.173.542.256.127.057.258.112.387.168.191.082.379.165.575.246.127.053.258.1.387.155.167.067.334.134.5.2-5.03-2.493-7.98-7.651-6.9-9.051-.036.031-.071.063-.106.1s-.045.041-.067.063c-.063.062-.123.128-.182.195-.015.017-.032.034-.047.052a3.126,3.126,0,0,0-.381.558c-.013.023-.022.049-.034.073-.037.075-.073.152-.1.232-.014.038-.025.079-.037.118-.023.069-.044.138-.061.209-.01.046-.017.094-.025.141-.012.068-.022.137-.028.208,0,.052,0,.1-.007.157,0,.07,0,.142,0,.215,0,.055.01.112.016.169.009.074.021.149.037.226.011.059.025.118.04.179.021.079.046.159.074.24.02.062.042.124.067.187.033.084.073.171.115.258.03.063.059.127.093.192.049.092.107.188.166.283.038.063.073.125.116.19.071.108.155.219.238.33.042.056.078.11.122.166.135.169.281.343.445.52a8.138,8.138,0,0,0,.6.589c.073.065.154.125.23.188C77.928,95.171,78.071,95.294,78.226,95.411Z"/><path class="cls-45" d="M67.869,78.568a21.776,21.776,0,0,0-9.951-15.314c-9.258-6.057-8.093,1.038-8.093,1.038S34.644,49.974,21.492,54.624s1.49,17.109,1.49,17.109-5.088-1.9-4.457,2.682,6.341,6.836,6.341,6.836-3.336.865-1.884,4.758,8.979,6.317,8.979,6.317-3.461,1.817,1.125,4.585c0,0-9.431-.951-12.892,6.057s2.769,9.345,5.538,8.479c0,0-.693,3.634,4.326,3.98,0,0,1.384,14.1,18.689,11.248,0,0,2.769,6.49,12.632,3.634s7.874-13.93,13.238-17.737-.692-6.316-.692-6.316,2.509-1.558-.173-3.634c0,0,4.3-1.516,3.461-5.278s-4.153-1.471-4.153-1.471,4.672-12.2,1.038-19.814C72.117,71.909,67.955,72.944,67.869,78.568Z"/><path class="cls-8" d="M70.614,99.935c-3.74-5.619-5.137-8.469-11.008-16C54.844,77.823,44.73,74,41.392,82.851c-1.99,5.278-1.417,10.759-4.245,14.27L55.409,97Z"/><path class="cls-46" d="M74.617,112.572c5.365-3.807-.692-6.316-.692-6.316s2.509-1.558-.173-3.634c0,0,4.3-1.516,3.461-5.278s-4.153-1.471-4.153-1.471a42.442,42.442,0,0,0,2.345-10.707c-.325,3.529-2.188,6.143-6.066,2.184a7.341,7.341,0,0,1-1.47-8.782c-3.245,5.235-.418,8.565-.418,8.565C50.709,74.557,49.779,66.455,49.8,64.668c-.333,4.7,1.289,6.418,1.289,6.418s-2.949,4.973-15.716,5.146c-9.822.133-12.111-3.919-12.366-4.442,3.087,7.374,15.078,5.846,15.078,5.846-4.95,6.6-13.22,3.615-13.22,3.615A16.422,16.422,0,0,0,33,83.673s-7.009,7.7-10.018,2.336c1.452,3.894,8.979,6.317,8.979,6.317s-3.461,1.817,1.125,4.585c4.737.3,7.917,8.2,7.917,8.2-14.536-5.386-15.271,6.338-15.271,6.338,2.574-11.313,17.737-3.115,17.737-3.115-17.716-4.045-13.411,7.1-13.411,7.1-2.055-14.73,28.855-.822,28.855-.822-14.341,2.357-10.166,12.07-10.166,12.07-1.731-6.662,7.181-10.6,13.971-10.81,2.429-.075,4.743,2.817,6.716,6.558C71,118.634,71.78,114.586,74.617,112.572Z"/><path class="cls-8" d="M33.692,84.668s4.456,3.375,7.527.779-.432,2.875-.432,2.875S37.239,89.47,33.692,84.668Z"/><path class="cls-47" d="M66.863,94.121C61.033,84.8,53.852,72.6,44.94,75.54s-3.016,16.213-7.348,21.128a64.465,64.465,0,0,1,6.3,6.473c3.038,3.634,11.839,14.623,21.844,5.191s-9.2-12.545-9.2-12.545l1.557-5.105Z"/><g class="cls-48"><path class="cls-49" d="M70.732,100.525a.713.713,0,0,0-.118-.59c-.9-1.2-4.8-6.394-10.013-12.974-5.971-7.527-16.872-9.69-19.122-1.211-1.858,7-2.831,10.111-4.332,11.371a.675.675,0,0,0,.142,1.111,27.074,27.074,0,0,1,6.6,4.909C47.942,107.182,66.59,117.287,70.732,100.525Z"/><path class="cls-50" d="M58.4,89.886c1.784,5.332-.391,11.391-4.857,13.534s-9.533-.443-11.316-5.775.391-11.391,4.857-13.534S56.62,84.554,58.4,89.886Z"/><path class="cls-51" d="M54.381,91.148c1.1,3.28-.24,7.007-2.987,8.325s-5.864-.273-6.961-3.552.241-7.007,2.988-8.324S53.284,87.869,54.381,91.148Z"/><path class="cls-52" d="M55.571,100.264c1.321,3.947-.289,8.433-3.6,10.02s-7.058-.328-8.378-4.276.289-8.433,3.6-10.02S54.251,96.316,55.571,100.264Z"/><path class="cls-14" d="M30.49,115.3s3.769-28.168,22.285-27.62c12.3.365,24.546,22.558,24.546,22.558L60.327,68.494,33.046,85.159Z"/><path class="cls-15" d="M50.49,90.83c-.274-.027-.291-1.721.92-3.6s3.165-3.27,3.465-3.206.29,1.72-.921,3.6S50.855,90.865,50.49,90.83Z"/><path class="cls-15" d="M49.337,92.619a.4.4,0,0,1-.2-.572,1.218,1.218,0,0,1,.832-.411.4.4,0,0,1,.2.571A1.2,1.2,0,0,1,49.337,92.619Z"/></g><path class="cls-53" d="M34.133,97.117a4.591,4.591,0,0,0-1.047-.206s-9.431-.951-12.892,6.057c-2.707,5.483.514,8.1,3.371,8.564C21.14,111.437,24.331,96.256,34.133,97.117Z"/><path class="cls-54" d="M60.048,116.126c-5.834.936-12,4.287-11.484,9.5.047.338.106.686.183,1.047a8.049,8.049,0,0,0,6.189,4.214C50.646,129.369,50.925,118.572,60.048,116.126Z"/><path class="cls-55" d="M49.968,111.215c-8.954-2.894-21.23-5.25-19.91,4.212.018.131.034.242.052.368a13.582,13.582,0,0,0,6.139,9.247C30.137,121.413,35.385,108.128,49.968,111.215Z"/><path class="cls-56" d="M23.552,72.585a9.774,9.774,0,0,0,5,2.874,9.725,9.725,0,0,1-5.57-10.791c1.344-9.331,18.172-7.734,25.949-1.167C45.505,60.57,32.759,50.64,21.492,54.624c-13.152,4.65,1.49,17.109,1.49,17.109l.262.427C23.326,72.282,23.43,72.426,23.552,72.585Z"/><path class="cls-57" d="M38.389,106.293c-4.657-1.375-11.065-1.844-12.657,5.154,0,0-.535,2.847,2.828,3.739C26.65,114.622,26.763,105.958,38.389,106.293Z"/><path class="cls-58" d="M52.594,72.259c-.057-.149-2.852-7.55,1.474-9.049a5.967,5.967,0,0,1,4.58.565c-.245-.173-.472-.353-.73-.521-9.258-6.057-8.093,1.038-8.093,1.038l-.024.376C49.789,65.593,50.039,68.21,52.594,72.259Z"/><path class="cls-59" d="M24.477,87.557c-1.658-1.569-.229-4.591,4.64-4.459a15.254,15.254,0,0,1-4.251-1.847s-3.336.865-1.884,4.758A3.74,3.74,0,0,0,24.477,87.557Z"/><path class="cls-60" d="M24.308,73.893a8.066,8.066,0,0,1-1.3-2.1,3.759,3.759,0,0,0,.343.543l-.107-.173c-.175-.262-.262-.427-.262-.427s-5.088-1.9-4.457,2.682,6.341,6.836,6.341,6.836C18.983,78.7,22.106,72.678,24.308,73.893Z"/><path class="cls-61" d="M122.032,168.553s1.471-16.786-6.4-22.842c-3.822-2.94-10.029-.532-15.821,4.024C114.284,139.626,123.026,156,122.032,168.553Z"/><path class="cls-62" d="M41.256,149.972s13.428-5.468,18.976-.045c-.906-1.077-1.8-2.07-2.663-2.919-6.226-6.143-22.233,5.8-22.233,5.8a24.07,24.07,0,0,1,5.91-2.828Z"/><path class="cls-63" d="M64.976,166.411c-3.1-2.448-6.947-4.969-10.685-5.991-8.226-2.25-19.3,7.1-20.08,18.173C36.889,160.8,57.62,161.123,64.976,166.411Z"/><path class="cls-64" d="M116.754,134.463c-3.9-.792-12.264-.543-20.588,10.279,7.227-7.653,23.119-14.982,24.342-3.211C120.317,138.174,119.408,135,116.754,134.463Z"/><path class="cls-65" d="M68.151,174.287a13.869,13.869,0,0,0-3.484-3.225c-4.591-2.69-14.968,3.028-18.516,8.047C53.843,171.568,63.724,169.963,68.151,174.287Z"/><path class="cls-66" d="M85.692,114.043s.18-4.4-3.634-11.508-.543-13.976,6.867-8.761c0,0-1.07-6.64,5.42-.237,0,0-2.6-6.489,4.326-6.4s9.463,9.691,7.441,15.055c0,0,1.73-1.817,3.288,0s-1.212,6.576-3.288,8.047c0,0,1.817.952,0,2.509a6.015,6.015,0,0,1,5.71,5.97c.347,5.8-5.71,5.624-5.71,5.624s.779,5.1-2.942,2.163c0,0,.606,9.518-3.807,11.768s-5.8.086-5.624-1.731a3.869,3.869,0,0,1-5.105-2.682s-2.682,1.365-4.239-2.822,3.114-8.08.951-10.935S81.626,114.3,85.692,114.043Z"/><path class="cls-67" d="M106.112,112.745c1.817-1.557,0-2.509,0-2.509a10.818,10.818,0,0,0,3.68-5.963c-1.256,4.775-4.746,1.672-6.946-1.435,0,0,2.314,1.947,3.266-.649,0,0-1.079,2.293-4.634-1.11A14.756,14.756,0,0,1,98.732,97.3a8.083,8.083,0,0,0-4.387-3.764s3.48,1.3,3.677,4.537C98.173,100.553,94,105.05,94,105.05a10.782,10.782,0,0,0-5.074-11.276c.149.039,5.831,5.858,3.644,13.454a12.239,12.239,0,0,1-4.227,5.888c-3.342,2.895-2.65.927-2.65.927a3.608,3.608,0,0,0-1.937.558c1.42-.482,3.55,1.1,3.889,4.331.306,2.912-1.537,2.08-2.622.731.107.145.214.291.324.437.824,1.087.655,2.327.217,3.675,1.636-3.675,11.316-4.265,3.071,10.082,0,0,5.854-7.394,3.933-10.641,0,0,9,2.573,1.172,13.323,0,0,8.328-8.968,1.839-12.769,0,0,7.073-3.259,7.592,2.732,0,0,.9-5.454-4.542-4.252,0,0,6.922-6.26,7.484,2.089,0,0,.822-6.869-3.85-4.97,0,0,3.4-9.43,8.357-4.249A6.367,6.367,0,0,0,106.112,112.745Z"/><path class="cls-8" d="M104.865,113.016s-.657-8.793-4.074-10.264-6.472,3.356-8.782,7.115-3.1,5.11-3.1,5.11Z"/><path class="cls-8" d="M106.761,102.481s-.39,3.818-4.067,3.861.692,1.99.692,1.99S107.54,107.791,106.761,102.481Z"/><path class="cls-68" d="M92.294,109.4c3.005-4.307,4.733-9.954,8.107-8.541s4.341,9.967,4.464,11.963-3.728,7.015-7.622,9.351-8.306-4.932-8.046-4.975a50.137,50.137,0,0,0,2.812-4.715Z"/><g class="cls-69"><path class="cls-70" d="M88.9,116.988a2.065,2.065,0,0,1,0-2.011c1.644-2.9,6.745-11.284,10.542-10.711,3.711.56,5.042,6.5,5.415,8.75a2.036,2.036,0,0,1-.378,1.554C102.42,117.348,94.392,126.962,88.9,116.988Z"/><path class="cls-71" d="M102.13,111.153a6.753,6.753,0,0,1-5.753,7.207,6.014,6.014,0,0,1-6.6-5.8,6.755,6.755,0,0,1,5.754-7.207A6.013,6.013,0,0,1,102.13,111.153Z"/><path class="cls-72" d="M99.905,111.074a4.153,4.153,0,0,1-3.539,4.432,3.7,3.7,0,0,1-4.06-3.568,4.154,4.154,0,0,1,3.539-4.433A3.7,3.7,0,0,1,99.905,111.074Z"/><path class="cls-73" d="M100.925,117.44a5,5,0,0,1-4.26,5.336,4.452,4.452,0,0,1-4.887-4.3,5,5,0,0,1,4.259-5.335A4.453,4.453,0,0,1,100.925,117.44Z"/><path class="cls-14" d="M84.092,132.3S85.5,108.746,98.726,108.67c7.823-.045,8.6,11.347,8.6,11.347l0-21.426L85.84,103.126Z"/><path class="cls-15" d="M96.605,110.113c-.18-.072.118-1.1,1.28-1.993a5.839,5.839,0,0,1,2.928-1.236c.188.1-.118,1.1-1.28,1.993A5.7,5.7,0,0,1,96.605,110.113Z"/><path class="cls-15" d="M95.5,110.962a.248.248,0,0,1-.03-.387.906.906,0,0,1,.638-.08.243.243,0,0,1,.03.387A.883.883,0,0,1,95.5,110.962Z"/></g><path class="cls-74" d="M90.288,95.4a9.056,9.056,0,0,0-1.363-1.625c-7.41-5.215-10.68,1.649-6.867,8.761a32.541,32.541,0,0,1,3.259,8.48c-.407-2.231-1.268-6.774-2.22-10.708A4.54,4.54,0,0,1,90.288,95.4Z"/><path class="cls-75" d="M94,105.05s.613-.662,1.36-1.615a11.673,11.673,0,0,0-1.274-3.5c-2.449-4.523-2.328-7.635-1.347-7.849-4.694-3.783-3.813,1.688-3.813,1.688A10.782,10.782,0,0,1,94,105.05Z"/><path class="cls-76" d="M98.722,97.283c-2.811-5.869-.3-12.191,4.489-8.346a6.772,6.772,0,0,0-4.54-1.8c-6.922-.086-4.326,6.4-4.326,6.4s.119.045.313.137A8.071,8.071,0,0,1,98.722,97.283Z"/><path class="cls-77" d="M92.567,123.216c4.186,3.773,3.575,13.629-.478,13.544a4.57,4.57,0,0,0,1.65-.221C101.569,125.789,92.567,123.216,92.567,123.216Z"/><path class="cls-78" d="M87.1,116.834c-.807-1.791-2.274-2.595-3.341-2.233a2.142,2.142,0,0,1,.338-.2c-1.792.851-.7,3.038.93,5.264C83.293,116.457,85.346,114.259,87.1,116.834Z"/><path class="cls-79" d="M88.634,133.857c6.088-10.594,2.4-13.039-.6-12.116,2.138-.69,2.56,14.942-2.143,11.653A2.573,2.573,0,0,0,88.634,133.857Z"/><path class="cls-80" d="M103.17,126.5c-.519-5.991-7.592-2.732-7.592-2.732,2.106-.679,6.985.012,7.452,6.924A26.918,26.918,0,0,0,103.17,126.5Z"/><path class="cls-81" d="M79.722,123.474s2.592-.086.734-3.028a15.255,15.255,0,0,1-2.551-9.258c.26-3.029-4.239-3.029-3.288,1.384,0,0-1.038-.692-1.73-5.624s-7.787-11.241-9.085,1c0,0-4.586-1.432-5.538,1.337s1.471,4.759,1.471,4.759-3.385-.606-1.692,4.413a9,9,0,0,0,6.1,5.97s-2.077.519-.779,2.076c0,0-3.807,2.25-1.557,6.836s5.71,0,5.71,0,.693,8.046,5.451,4.239c0,0,2.9,2.51,2.443-3.028,0,0,3.481,2.25,5.71-1.038S79.525,127.409,79.722,123.474Z"/><path class="cls-8" d="M73.644,116.126c-2.48-1.52-4.731-1.486-6.353,2.916-1.922.905-4.484-1.019-4.484-1.019,1.6,2.459,3.159,2.747,3.983,2.684a20.269,20.269,0,0,0-.476,3.063l4.994-.036,6.954-2.829A18.281,18.281,0,0,0,73.644,116.126Z"/><path class="cls-82" d="M80.456,120.446a15.841,15.841,0,0,1-2.589-8.068c.027,5.97-3.055,1.524-3.25.194,0,0,.022,2.245,1.385,3.2,0,0-10.906-.623-12.218-7.21.029,3.888,3.7,6.042,3.7,6.042s-2.424,2.38-7.746-.562c0,0,3.115,3.733,6.879,2.083,0,0-.035,10.94-5.75,6.544a8.494,8.494,0,0,0,3.284,1.756c1.017-.26,2.078.952,2.078.952a4.634,4.634,0,0,0-2.857,1.124,4.26,4.26,0,0,1,5.776,2.12s-2.25-.238-1.623,4.716c0,0-.471-7.16,4.891-2.12,0,0-3.42,1.233.56,6.359,0,0-4.022-5.905,1.375-6.208,0,0-1.7,1.363,1.068,3.18,0,0-2.641-1.868,0-3.66s3.818-6.94,5.521-2.748a10.466,10.466,0,0,1-1.215-4.667S82.314,123.388,80.456,120.446Z"/><path class="cls-83" d="M76.713,119.188c-3.522-4.358-10.49-7.654-10.424,4.07,0,0-.527,1.285,1.478,3.346s4.554,5.566,7.649,3.576,3.184-7.874,3.184-7.874l-3.184-3.591Z"/><g class="cls-84"><path class="cls-85" d="M78.6,122.306a2.035,2.035,0,0,0-.459-1.563c-1.349-1.6-4.917-5.486-7.331-4.8-2.746.784-4.424,5.481-4.52,8.221a1.968,1.968,0,0,0,.473,1.339c1.194,1.414,4.549,4.945,7.681,4.11C77.484,128.807,78.362,124.26,78.6,122.306Z"/><path class="cls-86" d="M77.387,121.246a5.144,5.144,0,0,1-4.382,5.488,4.58,4.58,0,0,1-5.028-4.418,5.145,5.145,0,0,1,4.382-5.489A4.581,4.581,0,0,1,77.387,121.246Z"/><path class="cls-87" d="M75.692,121.185A3.163,3.163,0,0,1,73,124.561a2.818,2.818,0,0,1-3.093-2.718,3.164,3.164,0,0,1,2.7-3.375A2.817,2.817,0,0,1,75.692,121.185Z"/><path class="cls-88" d="M76.468,126.034a3.808,3.808,0,0,1-3.244,4.064,3.391,3.391,0,0,1-3.722-3.272,3.808,3.808,0,0,1,3.244-4.063A3.39,3.39,0,0,1,76.468,126.034Z"/><path class="cls-14" d="M65.727,128.73s-.786-10.629,9.067-9.375c5.91.752,6.553,8.641,6.553,8.641V111.678L64.98,115.132Z"/><path class="cls-15" d="M72.032,120.715c0,.148-.812.228-1.771-.342a4.454,4.454,0,0,1-1.7-1.723c.016-.161.812-.228,1.771.343A4.35,4.35,0,0,1,72.032,120.715Z"/><path class="cls-15" d="M72.944,121.258c0,.059-.126.213-.265.131a.691.691,0,0,1-.236-.429.185.185,0,0,1,.265-.131A.675.675,0,0,1,72.944,121.258Z"/></g><path class="cls-89" d="M65.346,115.461c-7.406-.051-4.532-8.133-2.943-7.806-1.432-.193-3.529-.144-4.139,1.629-.951,2.769,1.471,4.759,1.471,4.759A9.191,9.191,0,0,0,65.346,115.461Z"/><path class="cls-90" d="M67.242,113.18c-6.13-4.968,3.147-12.8,5.258-7.725-1.662-4.51-7.529-8.53-8.7,2.492a3.912,3.912,0,0,0,.016.752A7.188,7.188,0,0,0,67.242,113.18Z"/><path class="cls-91" d="M58.686,117.179c-.551-3.049,1.049-3.136,1.049-3.136s-3.385-.606-1.692,4.413a9.257,9.257,0,0,0,2.849,4.232,7.417,7.417,0,0,0,.638.435C60.047,122.118,59.162,119.809,58.686,117.179Z"/><path class="cls-92" d="M77.076,109.286c-1.18-.7-3.115.243-2.459,3.286C74.617,110.568,76.124,109.1,77.076,109.286Z"/><path class="cls-93" d="M74.348,131.369c-5.4.3-1.375,6.208-1.375,6.208a2.3,2.3,0,0,0,1.374.562C71.483,138.041,73.191,131.556,74.348,131.369Z"/><path class="cls-94" d="M64.261,125.929s-.723-1.3-.082-1.506c-.031,0-2.108.522-.81,2.079a6.2,6.2,0,0,1,.906-.574Z"/><path class="cls-95" d="M66.8,126.329a4.857,4.857,0,0,0-3.434.173s-3.807,2.25-1.557,6.836a5.846,5.846,0,0,0,.472.8C59.523,129.739,65.3,125.908,66.8,126.329Z"/><path class="cls-96" d="M72.413,131.218c-5.362-5.04-4.891,2.12-4.891,2.12s.324,3.745,2.041,4.915C67.188,136.43,67.425,127.48,72.413,131.218Z"/><path class="cls-97" d="M94.988,82.9a.238.238,0,1,1-.228-.248A.238.238,0,0,1,94.988,82.9Z"/><path class="cls-98" d="M100.875,83.16a6.131,6.131,0,1,1-5.859-6.391A6.13,6.13,0,0,1,100.875,83.16Z"/><path class="cls-97" d="M58.627,83.292a.238.238,0,1,1-.228-.248A.239.239,0,0,1,58.627,83.292Z"/><path class="cls-99" d="M64.514,83.548a6.131,6.131,0,1,1-5.859-6.391A6.13,6.13,0,0,1,64.514,83.548Z"/><path class="cls-97" d="M106.134,34.26a.238.238,0,1,1-.228-.248A.238.238,0,0,1,106.134,34.26Z"/><path class="cls-100" d="M112.021,34.516a6.131,6.131,0,1,1-5.859-6.391A6.13,6.13,0,0,1,112.021,34.516Z"/><g class="cls-101"><path class="cls-97" d="M99.853,49.744a.088.088,0,1,1-.084-.092A.088.088,0,0,1,99.853,49.744Z"/><path class="cls-102" d="M102.04,49.839a2.277,2.277,0,1,1-2.176-2.374A2.276,2.276,0,0,1,102.04,49.839Z"/></g><g class="cls-101"><path class="cls-97" d="M75.033,55.9a.09.09,0,0,1-.093.084.088.088,0,0,1-.084-.092.087.087,0,0,1,.092-.084A.088.088,0,0,1,75.033,55.9Z"/><path class="cls-103" d="M77.219,55.993a2.277,2.277,0,1,1-2.176-2.374A2.276,2.276,0,0,1,77.219,55.993Z"/></g><g class="cls-101"><path class="cls-97" d="M49.234,72.876a.089.089,0,1,1-.085-.093A.09.09,0,0,1,49.234,72.876Z"/><path class="cls-104" d="M51.42,72.971A2.277,2.277,0,1,1,49.244,70.6,2.276,2.276,0,0,1,51.42,72.971Z"/></g><g class="cls-101"><path class="cls-97" d="M41.256,66.25a.089.089,0,1,1-.085-.092A.088.088,0,0,1,41.256,66.25Z"/><path class="cls-105" d="M43.443,66.345a2.278,2.278,0,1,1-2.177-2.374A2.277,2.277,0,0,1,43.443,66.345Z"/></g><g class="cls-101"><path class="cls-97" d="M56.531,126.553a.088.088,0,1,1-.084-.092A.088.088,0,0,1,56.531,126.553Z"/><path class="cls-106" d="M58.718,126.648a2.277,2.277,0,1,1-2.176-2.374A2.279,2.279,0,0,1,58.718,126.648Z"/></g><g class="cls-101"><path class="cls-97" d="M64.608,112.228a.088.088,0,1,1-.084-.092A.088.088,0,0,1,64.608,112.228Z"/><path class="cls-107" d="M66.8,112.323a2.277,2.277,0,1,1-2.176-2.374A2.277,2.277,0,0,1,66.8,112.323Z"/></g><g class="cls-101"><path class="cls-97" d="M73.584,124.276a.089.089,0,1,1-.085-.092A.088.088,0,0,1,73.584,124.276Z"/><path class="cls-108" d="M75.77,124.371A2.277,2.277,0,1,1,73.594,122,2.276,2.276,0,0,1,75.77,124.371Z"/></g><g class="cls-101"><path class="cls-97" d="M93.992,96.651a.09.09,0,0,1-.093.085.089.089,0,1,1,.093-.085Z"/><path class="cls-109" d="M96.178,96.746A2.277,2.277,0,1,1,94,94.372,2.277,2.277,0,0,1,96.178,96.746Z"/></g><path class="cls-97" d="M52.5,55.9a.238.238,0,1,1-.228-.248A.239.239,0,0,1,52.5,55.9Z"/><path class="cls-110" d="M58.383,56.16a6.131,6.131,0,1,1-5.859-6.391A6.13,6.13,0,0,1,58.383,56.16Z"/><g class="cls-111"><path class="cls-97" d="M128.139,45.691a.238.238,0,1,1-.228-.248A.239.239,0,0,1,128.139,45.691Z"/><path class="cls-112" d="M134.026,45.947a6.131,6.131,0,1,1-5.859-6.391A6.13,6.13,0,0,1,134.026,45.947Z"/><path class="cls-97" d="M35.274,105.271a.238.238,0,1,1-.227-.248A.239.239,0,0,1,35.274,105.271Z"/><path class="cls-113" d="M41.162,105.527A6.131,6.131,0,1,1,35.3,99.136,6.132,6.132,0,0,1,41.162,105.527Z"/><path class="cls-97" d="M9.271,47.6a.238.238,0,1,1-.227-.248A.238.238,0,0,1,9.271,47.6Z"/><path class="cls-114" d="M15.159,47.851A6.131,6.131,0,1,1,9.3,41.459,6.132,6.132,0,0,1,15.159,47.851Z"/><path class="cls-97" d="M36.218,43.619a.238.238,0,1,1-.228-.248A.239.239,0,0,1,36.218,43.619Z"/><path class="cls-115" d="M42.105,43.875a6.131,6.131,0,1,1-5.859-6.391A6.131,6.131,0,0,1,42.105,43.875Z"/><path class="cls-97" d="M134.27,77.161a.238.238,0,1,1-.228-.248A.239.239,0,0,1,134.27,77.161Z"/><path class="cls-116" d="M140.157,77.417a6.131,6.131,0,1,1-5.859-6.391A6.13,6.13,0,0,1,140.157,77.417Z"/><g class="cls-101"><path class="cls-97" d="M113.232,43.613a.088.088,0,1,1-.084-.092A.088.088,0,0,1,113.232,43.613Z"/><path class="cls-117" d="M115.419,43.708a2.277,2.277,0,1,1-2.176-2.374A2.276,2.276,0,0,1,115.419,43.708Z"/></g><g class="cls-101"><path class="cls-97" d="M14.1,58.175a.087.087,0,0,1-.092.084.088.088,0,1,1,.092-.084Z"/><path class="cls-118" d="M16.284,58.27A2.278,2.278,0,1,1,14.108,55.9,2.277,2.277,0,0,1,16.284,58.27Z"/></g><g class="cls-101"><path class="cls-97" d="M23.383,38.467a.088.088,0,1,1-.084-.092A.088.088,0,0,1,23.383,38.467Z"/><path class="cls-119" d="M25.57,38.562a2.277,2.277,0,1,1-2.176-2.374A2.277,2.277,0,0,1,25.57,38.562Z"/></g><g class="cls-101"><path class="cls-97" d="M25.572,86.751a.088.088,0,1,1-.084-.092A.088.088,0,0,1,25.572,86.751Z"/><path class="cls-120" d="M27.759,86.846a2.277,2.277,0,1,1-2.176-2.374A2.277,2.277,0,0,1,27.759,86.846Z"/></g><g class="cls-101"><path class="cls-97" d="M87.588,100.165a.088.088,0,1,1-.084-.092A.088.088,0,0,1,87.588,100.165Z"/><path class="cls-121" d="M89.775,100.26A2.277,2.277,0,1,1,87.6,97.886,2.276,2.276,0,0,1,89.775,100.26Z"/></g><g class="cls-101"><path class="cls-97" d="M108.858,109.951a.088.088,0,1,1-.176-.008.088.088,0,0,1,.176.008Z"/><path class="cls-122" d="M111.045,110.046a2.277,2.277,0,1,1-2.176-2.374A2.276,2.276,0,0,1,111.045,110.046Z"/></g><g class="cls-101"><path class="cls-97" d="M134.358,60.452a.088.088,0,1,1-.084-.092A.088.088,0,0,1,134.358,60.452Z"/><path class="cls-123" d="M136.545,60.547a2.277,2.277,0,1,1-2.176-2.374A2.278,2.278,0,0,1,136.545,60.547Z"/></g><g class="cls-101"><path class="cls-97" d="M65.427,2.281a.089.089,0,0,1-.092.085.09.09,0,0,1-.085-.093.089.089,0,0,1,.177.008Z"/><path class="cls-124" d="M67.614,2.376A2.278,2.278,0,1,1,65.437,0,2.277,2.277,0,0,1,67.614,2.376Z"/></g><g class="cls-101"><path class="cls-97" d="M71.306,12.979a.088.088,0,0,1-.176-.008.088.088,0,0,1,.176.008Z"/><path class="cls-125" d="M73.493,13.074A2.277,2.277,0,1,1,71.317,10.7,2.276,2.276,0,0,1,73.493,13.074Z"/></g><g class="cls-101"><path class="cls-97" d="M57.645,19.765a.088.088,0,1,1-.084-.092A.088.088,0,0,1,57.645,19.765Z"/><path class="cls-126" d="M59.832,19.861a2.277,2.277,0,1,1-2.176-2.374A2.277,2.277,0,0,1,59.832,19.861Z"/></g><g class="cls-101"><path class="cls-97" d="M37.589,53.826a.088.088,0,1,1-.084-.092A.088.088,0,0,1,37.589,53.826Z"/><path class="cls-127" d="M39.776,53.921A2.277,2.277,0,1,1,37.6,51.547,2.276,2.276,0,0,1,39.776,53.921Z"/></g></g><path class="cls-97" d="M54.7,140.1a.238.238,0,1,1,.251-.225A.238.238,0,0,1,54.7,140.1Z"/><circle class="cls-128" cx="54.708" cy="139.861" r="6.131" transform="translate(-79.11 71.693) rotate(-41.642)"/><path class="cls-97" d="M54.673,103.735a.238.238,0,1,1,.25-.224A.238.238,0,0,1,54.673,103.735Z"/><path class="cls-129" d="M54.358,109.62a6.131,6.131,0,1,1,6.45-5.794A6.13,6.13,0,0,1,54.358,109.62Z"/><path class="cls-97" d="M103.225,151.733a.238.238,0,1,1,.25-.224A.238.238,0,0,1,103.225,151.733Z"/><circle class="cls-130" cx="103.237" cy="151.496" r="6.131" transform="translate(-63.231 228.29) rotate(-80.492)"/><g class="cls-101"><path class="cls-97" d="M87.805,145.3a.089.089,0,1,1,.093-.084A.09.09,0,0,1,87.805,145.3Z"/><path class="cls-131" d="M87.688,147.483a2.277,2.277,0,1,1,2.395-2.152A2.278,2.278,0,0,1,87.688,147.483Z"/></g><g class="cls-101"><path class="cls-97" d="M81.9,120.416a.088.088,0,1,1,.093-.083A.088.088,0,0,1,81.9,120.416Z"/><path class="cls-132" d="M81.784,122.6a2.277,2.277,0,1,1,2.4-2.152A2.276,2.276,0,0,1,81.784,122.6Z"/></g><g class="cls-101"><path class="cls-97" d="M65.184,94.448a.089.089,0,1,1,.093-.084A.089.089,0,0,1,65.184,94.448Z"/><path class="cls-133" d="M65.067,96.633a2.277,2.277,0,1,1,2.4-2.152A2.278,2.278,0,0,1,65.067,96.633Z"/></g><g class="cls-101"><path class="cls-97" d="M71.889,86.537a.089.089,0,0,1,.01-.177.089.089,0,0,1-.01.177Z"/><path class="cls-134" d="M71.772,88.723a2.278,2.278,0,1,1,2.4-2.153A2.278,2.278,0,0,1,71.772,88.723Z"/></g><g class="cls-101"><path class="cls-97" d="M11.435,101.205a.089.089,0,1,1,.093-.084A.088.088,0,0,1,11.435,101.205Z"/><path class="cls-135" d="M11.318,103.39a2.277,2.277,0,1,1,2.4-2.152A2.277,2.277,0,0,1,11.318,103.39Z"/></g><g class="cls-101"><path class="cls-97" d="M25.678,109.426a.089.089,0,1,1,.093-.084A.088.088,0,0,1,25.678,109.426Z"/><path class="cls-136" d="M25.561,111.611a2.277,2.277,0,1,1,2.4-2.152A2.277,2.277,0,0,1,25.561,111.611Z"/></g><g class="cls-101"><path class="cls-97" d="M13.541,118.279a.089.089,0,0,1-.084-.093.089.089,0,0,1,.177.01A.089.089,0,0,1,13.541,118.279Z"/><path class="cls-137" d="M13.424,120.465a2.277,2.277,0,1,1,2.4-2.152A2.278,2.278,0,0,1,13.424,120.465Z"/></g><g class="cls-101"><path class="cls-97" d="M40.959,138.964a.089.089,0,0,1-.084-.093.089.089,0,0,1,.177.01A.089.089,0,0,1,40.959,138.964Z"/><path class="cls-138" d="M40.842,141.15a2.277,2.277,0,1,1,2.4-2.152A2.278,2.278,0,0,1,40.842,141.15Z"/></g><path class="cls-97" d="M82.121,97.88a.238.238,0,1,1,.251-.224A.238.238,0,0,1,82.121,97.88Z"/><circle class="cls-139" cx="82.134" cy="97.643" r="6.131" transform="translate(-44.076 78.904) rotate(-41.485)"/><g class="cls-111"><path class="cls-97" d="M91.572,173.622a.238.238,0,1,1,.251-.225A.237.237,0,0,1,91.572,173.622Z"/><path class="cls-140" d="M91.257,179.507a6.131,6.131,0,1,1,6.45-5.794A6.131,6.131,0,0,1,91.257,179.507Z"/><path class="cls-97" d="M32.93,80.163a.238.238,0,1,1,.25-.225A.238.238,0,0,1,32.93,80.163Z"/><circle class="cls-141" cx="32.943" cy="79.925" r="6.131" transform="translate(-53.499 81.004) rotate(-68.315)"/><path class="cls-97" d="M90.865,54.742a.238.238,0,1,1,.25-.225A.239.239,0,0,1,90.865,54.742Z"/><circle class="cls-142" cx="90.878" cy="54.504" r="6.131" transform="translate(22.899 135.796) rotate(-81.05)"/><path class="cls-97" d="M94.569,81.727a.238.238,0,1,1,.251-.225A.239.239,0,0,1,94.569,81.727Z"/><path class="cls-143" d="M94.254,87.611a6.131,6.131,0,1,1,6.45-5.794A6.131,6.131,0,0,1,94.254,87.611Z"/><path class="cls-97" d="M60.042,179.436a.238.238,0,1,1,.251-.225A.237.237,0,0,1,60.042,179.436Z"/><circle class="cls-144" cx="60.055" cy="179.199" r="6.131"/><g class="cls-101"><path class="cls-97" d="M93.8,158.738a.09.09,0,0,1-.084-.093.089.089,0,1,1,.084.093Z"/><path class="cls-145" d="M93.684,160.923a2.277,2.277,0,1,1,2.4-2.152A2.278,2.278,0,0,1,93.684,160.923Z"/></g><g class="cls-101"><path class="cls-97" d="M80.237,59.461a.089.089,0,1,1,.093-.084A.088.088,0,0,1,80.237,59.461Z"/><path class="cls-146" d="M80.12,61.646a2.277,2.277,0,1,1,2.4-2.152A2.276,2.276,0,0,1,80.12,61.646Z"/></g><g class="cls-101"><path class="cls-97" d="M99.85,68.945a.089.089,0,0,1,.01-.177.089.089,0,0,1-.01.177Z"/><path class="cls-147" d="M99.733,71.13a2.277,2.277,0,1,1,2.4-2.152A2.277,2.277,0,0,1,99.733,71.13Z"/></g><g class="cls-101"><path class="cls-97" d="M51.547,70.648a.089.089,0,1,1,.093-.084A.09.09,0,0,1,51.547,70.648Z"/><path class="cls-148" d="M51.43,72.833a2.277,2.277,0,1,1,2.4-2.152A2.276,2.276,0,0,1,51.43,72.833Z"/></g><g class="cls-101"><path class="cls-97" d="M37.51,132.526a.089.089,0,1,1,.093-.084A.089.089,0,0,1,37.51,132.526Z"/><path class="cls-149" d="M37.393,134.712a2.277,2.277,0,1,1,2.4-2.153A2.279,2.279,0,0,1,37.393,134.712Z"/></g><g class="cls-101"><path class="cls-97" d="M27.51,153.7a.088.088,0,1,1,.093-.083A.088.088,0,0,1,27.51,153.7Z"/><path class="cls-150" d="M27.393,155.882a2.277,2.277,0,1,1,2.4-2.152A2.277,2.277,0,0,1,27.393,155.882Z"/></g><g class="cls-101"><path class="cls-97" d="M76.75,179.693a.089.089,0,1,1,.093-.084A.089.089,0,0,1,76.75,179.693Z"/><path class="cls-151" d="M76.633,181.879a2.277,2.277,0,1,1,2.4-2.153A2.279,2.279,0,0,1,76.633,181.879Z"/></g><g class="cls-101"><path class="cls-97" d="M135.612,111.35a.088.088,0,1,1,.092-.083A.087.087,0,0,1,135.612,111.35Z"/><path class="cls-152" d="M135.494,113.536a2.277,2.277,0,1,1,2.4-2.152A2.278,2.278,0,0,1,135.494,113.536Z"/></g><g class="cls-101"><path class="cls-97" d="M124.855,117.122a.089.089,0,0,1,.01-.177.089.089,0,0,1-.01.177Z"/><path class="cls-153" d="M124.738,119.308a2.277,2.277,0,1,1,2.4-2.153A2.278,2.278,0,0,1,124.738,119.308Z"/></g><g class="cls-101"><path class="cls-97" d="M118.206,103.393a.088.088,0,1,1,.093-.083A.088.088,0,0,1,118.206,103.393Z"/><path class="cls-154" d="M118.089,105.579a2.277,2.277,0,1,1,2.4-2.152A2.277,2.277,0,0,1,118.089,105.579Z"/></g><g class="cls-101"><path class="cls-97" d="M84.35,83a.089.089,0,1,1,.093-.084A.09.09,0,0,1,84.35,83Z"/><path class="cls-155" d="M84.233,85.181a2.277,2.277,0,1,1,2.395-2.152A2.277,2.277,0,0,1,84.233,85.181Z"/></g></g><g class="cls-156"><circle class="cls-157" cx="46.665" cy="47.218" r="46.665"/><circle class="cls-158" cx="49.284" cy="92.365" r="46.665"/><circle class="cls-159" cx="84.793" cy="64.577" r="46.665" transform="translate(-17.274 33.879) rotate(-20.553)"/><circle class="cls-160" cx="96.146" cy="111.242" r="38.692" transform="translate(-33.947 179.759) rotate(-76.938)"/><circle class="cls-161" cx="72.843" cy="121.413" r="31.588" transform="translate(-40.252 36.227) rotate(-22.05)"/></g></g></g></g></g></svg>