<svg xmlns="http://www.w3.org/2000/svg" xmlns:xlink="http://www.w3.org/1999/xlink" viewBox="0 0 1471.261 1530.336"><defs><style>.cls-1{isolation:isolate;}.cls-2{fill:url(#Áåçûìÿííûé_ãðàäèåíò_357);}.cls-11,.cls-13,.cls-14,.cls-16,.cls-17,.cls-19,.cls-21,.cls-22,.cls-23,.cls-25,.cls-26,.cls-3,.cls-7{opacity:0.58;}.cls-11,.cls-13,.cls-14,.cls-16,.cls-17,.cls-19,.cls-20,.cls-21,.cls-22,.cls-23,.cls-25,.cls-26,.cls-29,.cls-3,.cls-30,.cls-32,.cls-33,.cls-35,.cls-36,.cls-37,.cls-38,.cls-43,.cls-47,.cls-52,.cls-53,.cls-54,.cls-55,.cls-56,.cls-60,.cls-61,.cls-62,.cls-63,.cls-64,.cls-65,.cls-66,.cls-7{mix-blend-mode:multiply;}.cls-3{fill:url(#Áåçûìÿííûé_ãðàäèåíò_683);}.cls-100,.cls-101,.cls-102,.cls-103,.cls-104,.cls-105,.cls-106,.cls-107,.cls-108,.cls-109,.cls-110,.cls-111,.cls-112,.cls-113,.cls-114,.cls-115,.cls-116,.cls-117,.cls-118,.cls-119,.cls-12,.cls-120,.cls-121,.cls-122,.cls-123,.cls-124,.cls-125,.cls-126,.cls-127,.cls-128,.cls-129,.cls-130,.cls-131,.cls-132,.cls-133,.cls-134,.cls-135,.cls-136,.cls-137,.cls-138,.cls-139,.cls-140,.cls-141,.cls-142,.cls-143,.cls-144,.cls-145,.cls-146,.cls-147,.cls-148,.cls-149,.cls-150,.cls-151,.cls-152,.cls-153,.cls-154,.cls-4,.cls-42,.cls-44,.cls-45,.cls-46,.cls-48,.cls-49,.cls-5,.cls-50,.cls-51,.cls-57,.cls-58,.cls-59,.cls-67,.cls-68,.cls-69,.cls-70,.cls-71,.cls-72,.cls-74,.cls-75,.cls-76,.cls-77,.cls-78,.cls-8,.cls-80,.cls-81,.cls-82,.cls-83,.cls-84,.cls-85,.cls-87,.cls-88,.cls-89,.cls-9,.cls-90,.cls-91,.cls-92,.cls-93,.cls-94,.cls-95,.cls-96,.cls-97,.cls-98{mix-blend-mode:screen;}.cls-4{fill:url(#Áåçûìÿííûé_ãðàäèåíò_237);}.cls-5{fill:url(#Áåçûìÿííûé_ãðàäèåíò_685);}.cls-6{fill:url(#Áåçûìÿííûé_ãðàäèåíò_357-2);}.cls-7{fill:url(#Áåçûìÿííûé_ãðàäèåíò_683-2);}.cls-8{fill:url(#Áåçûìÿííûé_ãðàäèåíò_237-2);}.cls-9{fill:url(#Áåçûìÿííûé_ãðàäèåíò_685-2);}.cls-10{fill:url(#Áåçûìÿííûé_ãðàäèåíò_702);}.cls-11{fill:url(#Áåçûìÿííûé_ãðàäèåíò_745);}.cls-12{fill:url(#Áåçûìÿííûé_ãðàäèåíò_237-3);}.cls-13{fill:url(#Áåçûìÿííûé_ãðàäèåíò_737);}.cls-14{fill:url(#Áåçûìÿííûé_ãðàäèåíò_751);}.cls-15{fill:url(#Áåçûìÿííûé_ãðàäèåíò_695);}.cls-16{fill:url(#Áåçûìÿííûé_ãðàäèåíò_751-2);}.cls-17{fill:url(#Áåçûìÿííûé_ãðàäèåíò_688);}.cls-18{fill:url(#Áåçûìÿííûé_ãðàäèåíò_702-2);}.cls-19{fill:url(#Áåçûìÿííûé_ãðàäèåíò_751-3);}.cls-20{fill:#78cf78;opacity:0.22;}.cls-21{fill:url(#Áåçûìÿííûé_ãðàäèåíò_751-4);}.cls-22{fill:url(#Áåçûìÿííûé_ãðàäèåíò_737-2);}.cls-23{fill:url(#Áåçûìÿííûé_ãðàäèåíò_745-2);}.cls-24{fill:url(#Áåçûìÿííûé_ãðàäèåíò_740);}.cls-25{fill:url(#Áåçûìÿííûé_ãðàäèåíò_683-3);}.cls-26{fill:url(#Áåçûìÿííûé_ãðàäèåíò_752);}.cls-27{fill:url(#Áåçûìÿííûé_ãðàäèåíò_674);}.cls-28{fill:url(#Áåçûìÿííûé_ãðàäèåíò_768);}.cls-29,.cls-30,.cls-32,.cls-33,.cls-35,.cls-36,.cls-37,.cls-38,.cls-43,.cls-47,.cls-52,.cls-53,.cls-54,.cls-55,.cls-56,.cls-60,.cls-61,.cls-62,.cls-63,.cls-64,.cls-65,.cls-66{opacity:0.61;}.cls-29{fill:url(#Áåçûìÿííûé_ãðàäèåíò_775);}.cls-30{fill:url(#Áåçûìÿííûé_ãðàäèåíò_373);}.cls-31{fill:url(#Áåçûìÿííûé_ãðàäèåíò_782);}.cls-32{fill:url(#Áåçûìÿííûé_ãðàäèåíò_775-2);}.cls-33{fill:url(#Áåçûìÿííûé_ãðàäèåíò_749);}.cls-34{fill:url(#Áåçûìÿííûé_ãðàäèåíò_766);}.cls-35{fill:url(#Áåçûìÿííûé_ãðàäèåíò_760);}.cls-36{fill:url(#Áåçûìÿííûé_ãðàäèåíò_760-2);}.cls-37{fill:url(#Áåçûìÿííûé_ãðàäèåíò_771);}.cls-38{fill:url(#Áåçûìÿííûé_ãðàäèåíò_760-3);}.cls-39{fill:url(#Áåçûìÿííûé_ãðàäèåíò_679);}.cls-40{fill:url(#Áåçûìÿííûé_ãðàäèåíò_680);}.cls-41{fill:url(#Áåçûìÿííûé_ãðàäèåíò_697);}.cls-42{fill:url(#Áåçûìÿííûé_ãðàäèåíò_684);}.cls-43{fill:url(#Áåçûìÿííûé_ãðàäèåíò_373-2);}.cls-44{fill:url(#Áåçûìÿííûé_ãðàäèåíò_237-4);}.cls-45{fill:url(#Áåçûìÿííûé_ãðàäèåíò_685-3);}.cls-46{fill:url(#Áåçûìÿííûé_ãðàäèåíò_746);}.cls-47{fill:url(#Áåçûìÿííûé_ãðàäèåíò_700);}.cls-48{fill:url(#Áåçûìÿííûé_ãðàäèåíò_746-2);}.cls-49{fill:url(#Áåçûìÿííûé_ãðàäèåíò_741);}.cls-50{fill:url(#Áåçûìÿííûé_ãðàäèåíò_685-4);}.cls-51{fill:url(#Áåçûìÿííûé_ãðàäèåíò_746-3);}.cls-52{fill:url(#Áåçûìÿííûé_ãðàäèåíò_373-3);}.cls-53{fill:url(#Áåçûìÿííûé_ãðàäèåíò_373-4);}.cls-54{fill:url(#Áåçûìÿííûé_ãðàäèåíò_750);}.cls-55{fill:url(#Áåçûìÿííûé_ãðàäèåíò_748);}.cls-56{fill:url(#Áåçûìÿííûé_ãðàäèåíò_749-2);}.cls-57{fill:url(#Áåçûìÿííûé_ãðàäèåíò_237-5);}.cls-58{fill:url(#Áåçûìÿííûé_ãðàäèåíò_685-5);}.cls-59{fill:url(#Áåçûìÿííûé_ãðàäèåíò_754);}.cls-60{fill:url(#Áåçûìÿííûé_ãðàäèåíò_756);}.cls-61{fill:url(#Áåçûìÿííûé_ãðàäèåíò_755);}.cls-62{fill:url(#Áåçûìÿííûé_ãðàäèåíò_764);}.cls-63{fill:url(#Áåçûìÿííûé_ãðàäèåíò_760-4);}.cls-64{fill:url(#Áåçûìÿííûé_ãðàäèåíò_760-5);}.cls-65{fill:url(#Áåçûìÿííûé_ãðàäèåíò_764-2);}.cls-66{fill:url(#Áåçûìÿííûé_ãðàäèåíò_764-3);}.cls-67{fill:url(#Áåçûìÿííûé_ãðàäèåíò_792);}.cls-68{fill:url(#Áåçûìÿííûé_ãðàäèåíò_792-2);}.cls-69{fill:url(#Áåçûìÿííûé_ãðàäèåíò_792-3);}.cls-70{fill:url(#Áåçûìÿííûé_ãðàäèåíò_795);}.cls-71{fill:url(#Áåçûìÿííûé_ãðàäèåíò_792-4);}.cls-72{fill:url(#Áåçûìÿííûé_ãðàäèåíò_798);}.cls-73{fill:#fff;}.cls-74{fill:url(#radial-gradient);}.cls-75{fill:url(#radial-gradient-2);}.cls-76{fill:url(#radial-gradient-3);}.cls-77{fill:url(#radial-gradient-4);}.cls-78{fill:url(#radial-gradient-5);}.cls-79{opacity:0.92;}.cls-100,.cls-101,.cls-102,.cls-103,.cls-104,.cls-105,.cls-106,.cls-107,.cls-108,.cls-109,.cls-110,.cls-111,.cls-112,.cls-113,.cls-114,.cls-115,.cls-116,.cls-117,.cls-118,.cls-119,.cls-120,.cls-121,.cls-122,.cls-123,.cls-124,.cls-125,.cls-126,.cls-127,.cls-128,.cls-129,.cls-130,.cls-131,.cls-132,.cls-133,.cls-134,.cls-135,.cls-136,.cls-137,.cls-138,.cls-139,.cls-140,.cls-141,.cls-142,.cls-143,.cls-144,.cls-145,.cls-146,.cls-147,.cls-148,.cls-149,.cls-150,.cls-151,.cls-152,.cls-153,.cls-80,.cls-81,.cls-82,.cls-83,.cls-84,.cls-85,.cls-87,.cls-88,.cls-89,.cls-90,.cls-91,.cls-92,.cls-93,.cls-94,.cls-95,.cls-96,.cls-97,.cls-98{opacity:0.68;}.cls-80{fill:url(#radial-gradient-6);}.cls-81{fill:url(#radial-gradient-7);}.cls-82{fill:url(#radial-gradient-8);}.cls-83{fill:url(#radial-gradient-9);}.cls-84{fill:url(#radial-gradient-10);}.cls-85{fill:url(#radial-gradient-11);}.cls-86{opacity:0.36;}.cls-87{fill:url(#radial-gradient-12);}.cls-88{fill:url(#radial-gradient-13);}.cls-89{fill:url(#radial-gradient-14);}.cls-90{fill:url(#radial-gradient-15);}.cls-91{fill:url(#radial-gradient-16);}.cls-92{fill:url(#radial-gradient-17);}.cls-93{fill:url(#radial-gradient-18);}.cls-94{fill:url(#radial-gradient-19);}.cls-95{fill:url(#radial-gradient-20);}.cls-96{fill:url(#radial-gradient-21);}.cls-97{fill:url(#radial-gradient-22);}.cls-98{fill:url(#radial-gradient-23);}.cls-99{opacity:0.56;}.cls-100{fill:url(#radial-gradient-24);}.cls-101{fill:url(#radial-gradient-25);}.cls-102{fill:url(#radial-gradient-26);}.cls-103{fill:url(#radial-gradient-27);}.cls-104{fill:url(#radial-gradient-28);}.cls-105{fill:url(#radial-gradient-29);}.cls-106{fill:url(#radial-gradient-30);}.cls-107{fill:url(#radial-gradient-31);}.cls-108{fill:url(#radial-gradient-32);}.cls-109{fill:url(#radial-gradient-33);}.cls-110{fill:url(#radial-gradient-34);}.cls-111{fill:url(#radial-gradient-35);}.cls-112{fill:url(#radial-gradient-36);}.cls-113{fill:url(#radial-gradient-37);}.cls-114{fill:url(#radial-gradient-38);}.cls-115{fill:url(#radial-gradient-39);}.cls-116{fill:url(#radial-gradient-40);}.cls-117{fill:url(#radial-gradient-41);}.cls-118{fill:url(#radial-gradient-42);}.cls-119{fill:url(#radial-gradient-43);}.cls-120{fill:url(#radial-gradient-44);}.cls-121{fill:url(#radial-gradient-45);}.cls-122{fill:url(#radial-gradient-46);}.cls-123{fill:url(#radial-gradient-47);}.cls-124{fill:url(#radial-gradient-48);}.cls-125{fill:url(#radial-gradient-49);}.cls-126{fill:url(#radial-gradient-50);}.cls-127{fill:url(#radial-gradient-51);}.cls-128{fill:url(#radial-gradient-52);}.cls-129{fill:url(#radial-gradient-53);}.cls-130{fill:url(#radial-gradient-54);}.cls-131{fill:url(#radial-gradient-55);}.cls-132{fill:url(#radial-gradient-56);}.cls-133{fill:url(#radial-gradient-57);}.cls-134{fill:url(#radial-gradient-58);}.cls-135{fill:url(#radial-gradient-59);}.cls-136{fill:url(#radial-gradient-60);}.cls-137{fill:url(#radial-gradient-61);}.cls-138{fill:url(#radial-gradient-62);}.cls-139{fill:url(#radial-gradient-63);}.cls-140{fill:url(#radial-gradient-64);}.cls-141{fill:url(#radial-gradient-65);}.cls-142{fill:url(#radial-gradient-66);}.cls-143{fill:url(#radial-gradient-67);}.cls-144{fill:url(#radial-gradient-68);}.cls-145{fill:url(#radial-gradient-69);}.cls-146{fill:url(#radial-gradient-70);}.cls-147{fill:url(#radial-gradient-71);}.cls-148{fill:url(#radial-gradient-72);}.cls-149{fill:url(#radial-gradient-73);}.cls-150{fill:url(#radial-gradient-74);}.cls-151{fill:url(#radial-gradient-75);}.cls-152{fill:url(#radial-gradient-76);}.cls-153{fill:url(#radial-gradient-77);}.cls-154{fill:url(#radial-gradient-78);}</style><linearGradient id="Áåçûìÿííûé_ãðàäèåíò_357" x1="1179.685" y1="908.259" x2="1203.559" y2="953.01" gradientUnits="userSpaceOnUse"><stop offset="0" stop-color="#00ff7c"/><stop offset="0.49" stop-color="#00c580"/><stop offset="1" stop-color="#008d83"/></linearGradient><linearGradient id="Áåçûìÿííûé_ãðàäèåíò_683" x1="1144.351" y1="941.263" x2="1239.803" y2="941.263" gradientUnits="userSpaceOnUse"><stop offset="0" stop-color="#008865"/><stop offset="0.185" stop-color="#2a9c7e"/><stop offset="0.599" stop-color="#93cdbe"/><stop offset="1" stop-color="#fff"/></linearGradient><linearGradient id="Áåçûìÿííûé_ãðàäèåíò_237" x1="1163.858" y1="917.471" x2="1240.148" y2="917.471" gradientUnits="userSpaceOnUse"><stop offset="0" stop-color="#b3e72c"/><stop offset="1"/></linearGradient><linearGradient id="Áåçûìÿííûé_ãðàäèåíò_685" x1="1196.034" y1="900.7" x2="1223.255" y2="927.92" gradientUnits="userSpaceOnUse"><stop offset="0" stop-color="#ff7"/><stop offset="0.109" stop-color="#caca5e"/><stop offset="0.231" stop-color="#959545"/><stop offset="0.355" stop-color="#676730"/><stop offset="0.479" stop-color="#42421f"/><stop offset="0.601" stop-color="#252511"/><stop offset="0.723" stop-color="#101008"/><stop offset="0.843" stop-color="#040402"/><stop offset="0.959"/></linearGradient><linearGradient id="Áåçûìÿííûé_ãðàäèåíò_357-2" x1="231.995" y1="1130.051" x2="254.294" y2="1171.848" xlink:href="#Áåçûìÿííûé_ãðàäèåíò_357"/><linearGradient id="Áåçûìÿííûé_ãðàäèåíò_683-2" x1="216.024" y1="1155.246" x2="266.155" y2="1155.246" xlink:href="#Áåçûìÿííûé_ãðàäèåíò_683"/><linearGradient id="Áåçûìÿííûé_ãðàäèåíò_237-2" x1="216.132" y1="1147.073" x2="265.176" y2="1147.073" xlink:href="#Áåçûìÿííûé_ãðàäèåíò_237"/><linearGradient id="Áåçûìÿííûé_ãðàäèåíò_685-2" x1="226.574" y1="1142.275" x2="244.516" y2="1160.217" xlink:href="#Áåçûìÿííûé_ãðàäèåíò_685"/><linearGradient id="Áåçûìÿííûé_ãðàäèåíò_702" x1="995.203" y1="569.69" x2="448.978" y2="569.69" gradientUnits="userSpaceOnUse"><stop offset="0" stop-color="#008d83"/><stop offset="0.156" stop-color="#009383"/><stop offset="0.363" stop-color="#00a482"/><stop offset="0.598" stop-color="#00bf80"/><stop offset="0.853" stop-color="#00e67e"/><stop offset="1" stop-color="#00ff7c"/></linearGradient><linearGradient id="Áåçûìÿííûé_ãðàäèåíò_745" x1="753.764" y1="834.566" x2="695.601" y2="542.884" gradientUnits="userSpaceOnUse"><stop offset="0.127" stop-color="#008865"/><stop offset="0.249" stop-color="#51ae96"/><stop offset="0.371" stop-color="#9bd0c2"/><stop offset="0.472" stop-color="#d1e9e3"/><stop offset="0.548" stop-color="#f2f9f7"/><stop offset="0.589" stop-color="#fff"/></linearGradient><linearGradient id="Áåçûìÿííûé_ãðàäèåíò_237-3" x1="535.127" y1="345.018" x2="722.667" y2="626.336" xlink:href="#Áåçûìÿííûé_ãðàäèåíò_237"/><linearGradient id="Áåçûìÿííûé_ãðàäèåíò_737" x1="763.364" y1="819.8" x2="723.194" y2="653.715" gradientUnits="userSpaceOnUse"><stop offset="0" stop-color="#008865"/><stop offset="0.083" stop-color="#2a9c7e"/><stop offset="0.27" stop-color="#93cdbe"/><stop offset="0.451" stop-color="#fff"/></linearGradient><linearGradient id="Áåçûìÿííûé_ãðàäèåíò_751" x1="642.031" y1="454.109" x2="642.031" y2="328.4" gradientUnits="userSpaceOnUse"><stop offset="0.549" stop-color="#fff"/><stop offset="0.73" stop-color="#93cdbe"/><stop offset="0.917" stop-color="#2a9c7e"/><stop offset="1" stop-color="#008865"/></linearGradient><linearGradient id="Áåçûìÿííûé_ãðàäèåíò_695" x1="234.411" y1="727.737" x2="454.362" y2="669.32" gradientUnits="userSpaceOnUse"><stop offset="0" stop-color="#00ff7c"/><stop offset="0.182" stop-color="#00de7e"/><stop offset="0.418" stop-color="#00bb80"/><stop offset="0.639" stop-color="#00a282"/><stop offset="0.84" stop-color="#009283"/><stop offset="1" stop-color="#008d83"/></linearGradient><linearGradient id="Áåçûìÿííûé_ãðàäèåíò_751-2" x1="341.376" y1="622.343" x2="309.717" y2="531.049" xlink:href="#Áåçûìÿííûé_ãðàäèåíò_751"/><linearGradient id="Áåçûìÿííûé_ãðàäèåíò_688" x1="373.334" y1="1016.767" x2="373.334" y2="758.542" gradientUnits="userSpaceOnUse"><stop offset="0.566" stop-color="#008865"/><stop offset="0.646" stop-color="#2a9c7e"/><stop offset="0.826" stop-color="#93cdbe"/><stop offset="1" stop-color="#fff"/></linearGradient><linearGradient id="Áåçûìÿííûé_ãðàäèåíò_702-2" x1="1270.471" y1="649.758" x2="986.241" y2="649.758" xlink:href="#Áåçûìÿííûé_ãðàäèåíò_702"/><linearGradient id="Áåçûìÿííûé_ãðàäèåíò_751-3" x1="642.031" y1="439.433" x2="642.031" y2="313.724" xlink:href="#Áåçûìÿííûé_ãðàäèåíò_751"/><linearGradient id="Áåçûìÿííûé_ãðàäèåíò_751-4" x1="1128.989" y1="584.36" x2="1128.989" y2="424.323" xlink:href="#Áåçûìÿííûé_ãðàäèåíò_751"/><linearGradient id="Áåçûìÿííûé_ãðàäèåíò_737-2" x1="1060.53" y1="873.821" x2="1081.816" y2="763.966" xlink:href="#Áåçûìÿííûé_ãðàäèåíò_737"/><linearGradient id="Áåçûìÿííûé_ãðàäèåíò_745-2" x1="1101.654" y1="875.192" x2="1101.654" y2="593.284" xlink:href="#Áåçûìÿííûé_ãðàäèåíò_745"/><linearGradient id="Áåçûìÿííûé_ãðàäèåíò_740" x1="695.107" y1="442.912" x2="695.107" y2="66.741" gradientUnits="userSpaceOnUse"><stop offset="0.269" stop-color="#6241a3"/><stop offset="0.774" stop-color="#2f0253"/></linearGradient><linearGradient id="Áåçûìÿííûé_ãðàäèåíò_683-3" x1="381.822" y1="877.161" x2="381.822" y2="793.533" xlink:href="#Áåçûìÿííûé_ãðàäèåíò_683"/><linearGradient id="Áåçûìÿííûé_ãðàäèåíò_752" x1="1128.989" y1="584.36" x2="1128.989" y2="424.323" gradientUnits="userSpaceOnUse"><stop offset="0.728" stop-color="#fff"/><stop offset="0.837" stop-color="#93cdbe"/><stop offset="0.95" stop-color="#2a9c7e"/><stop offset="1" stop-color="#008865"/></linearGradient><linearGradient id="Áåçûìÿííûé_ãðàäèåíò_674" x1="803.635" y1="695.637" x2="803.635" y2="691.527" gradientUnits="userSpaceOnUse"><stop offset="0.226" stop-color="#2f0253"/><stop offset="1" stop-color="#6241a3"/></linearGradient><linearGradient id="Áåçûìÿííûé_ãðàäèåíò_768" x1="750.011" y1="1379.735" x2="750.011" y2="779.524" gradientUnits="userSpaceOnUse"><stop offset="0.313" stop-color="#2f0253"/><stop offset="1" stop-color="#6241a3"/></linearGradient><linearGradient id="Áåçûìÿííûé_ãðàäèåíò_775" x1="750.011" y1="1327.412" x2="750.011" y2="1073.948" gradientUnits="userSpaceOnUse"><stop offset="0" stop-color="#2f0253"/><stop offset="0.118" stop-color="#330656"/><stop offset="0.243" stop-color="#3d135f"/><stop offset="0.371" stop-color="#4f286d"/><stop offset="0.502" stop-color="#674681"/><stop offset="0.635" stop-color="#876d9b"/><stop offset="0.769" stop-color="#ad9cbb"/><stop offset="0.903" stop-color="#dad2e0"/><stop offset="1" stop-color="#fff"/></linearGradient><linearGradient id="Áåçûìÿííûé_ãðàäèåíò_373" x1="828.27" y1="1379.735" x2="828.27" y2="932.129" gradientUnits="userSpaceOnUse"><stop offset="0" stop-color="#fff"/><stop offset="1" stop-color="#2f0253"/></linearGradient><linearGradient id="Áåçûìÿííûé_ãðàäèåíò_782" x1="686.67" y1="1374.707" x2="686.67" y2="784.268" gradientUnits="userSpaceOnUse"><stop offset="0.276" stop-color="#2f0253"/><stop offset="1" stop-color="#6241a3"/></linearGradient><linearGradient id="Áåçûìÿííûé_ãðàäèåíò_775-2" x1="686.67" y1="1374.707" x2="686.67" y2="1209.304" xlink:href="#Áåçûìÿííûé_ãðàäèåíò_775"/><linearGradient id="Áåçûìÿííûé_ãðàäèåíò_749" x1="684.809" y1="1569.259" x2="684.809" y2="1189.383" gradientUnits="userSpaceOnUse"><stop offset="0.416" stop-color="#2f0253"/><stop offset="1" stop-color="#fff"/></linearGradient><linearGradient id="Áåçûìÿííûé_ãðàäèåíò_766" x1="387.376" y1="904.541" x2="810.683" y2="1698.008" gradientUnits="userSpaceOnUse"><stop offset="0.205" stop-color="#6241a3"/><stop offset="0.674" stop-color="#2f0253"/></linearGradient><linearGradient id="Áåçûìÿííûé_ãðàäèåíò_760" x1="746.273" y1="1261.49" x2="746.273" y2="894.325" gradientUnits="userSpaceOnUse"><stop offset="0" stop-color="#fff"/><stop offset="0.064" stop-color="#d6cddd"/><stop offset="0.134" stop-color="#af9ebd"/><stop offset="0.209" stop-color="#8d74a0"/><stop offset="0.287" stop-color="#705189"/><stop offset="0.368" stop-color="#583475"/><stop offset="0.455" stop-color="#461e66"/><stop offset="0.55" stop-color="#390e5b"/><stop offset="0.658" stop-color="#310555"/><stop offset="0.809" stop-color="#2f0253"/></linearGradient><linearGradient id="Áåçûìÿííûé_ãðàäèåíò_760-2" x1="769.769" y1="948.281" x2="769.769" y2="875.205" xlink:href="#Áåçûìÿííûé_ãðàäèåíò_760"/><linearGradient id="Áåçûìÿííûé_ãðàäèåíò_771" x1="617.734" y1="1389.957" x2="617.734" y2="863.857" gradientUnits="userSpaceOnUse"><stop offset="0" stop-color="#fff"/><stop offset="0.079" stop-color="#d6cddd"/><stop offset="0.166" stop-color="#af9ebd"/><stop offset="0.258" stop-color="#8d74a0"/><stop offset="0.354" stop-color="#705189"/><stop offset="0.455" stop-color="#583475"/><stop offset="0.562" stop-color="#461e66"/><stop offset="0.679" stop-color="#390e5b"/><stop offset="0.813" stop-color="#310555"/><stop offset="1" stop-color="#2f0253"/></linearGradient><linearGradient id="Áåçûìÿííûé_ãðàäèåíò_760-3" x1="398.118" y1="1103.643" x2="398.118" y2="700.828" xlink:href="#Áåçûìÿííûé_ãðàäèåíò_760"/><linearGradient id="Áåçûìÿííûé_ãðàäèåíò_679" x1="750.011" y1="1568.085" x2="750.011" y2="1199.994" gradientUnits="userSpaceOnUse"><stop offset="0.382" stop-color="#2f0253"/><stop offset="1" stop-color="#6241a3"/></linearGradient><linearGradient id="Áåçûìÿííûé_ãðàäèåíò_680" x1="1100.746" y1="512.765" x2="1100.746" y2="236.292" gradientUnits="userSpaceOnUse"><stop offset="0" stop-color="#6241a3"/><stop offset="0.774" stop-color="#2f0253"/></linearGradient><linearGradient id="Áåçûìÿííûé_ãðàäèåíò_697" x1="312.807" y1="609.942" x2="312.807" y2="336.705" gradientUnits="userSpaceOnUse"><stop offset="0.251" stop-color="#6241a3"/><stop offset="0.774" stop-color="#2f0253"/></linearGradient><linearGradient id="Áåçûìÿííûé_ãðàäèåíò_684" x1="407.07" y1="876.634" x2="391.282" y2="822.39" gradientUnits="userSpaceOnUse"><stop offset="0"/><stop offset="0.163" stop-color="#22142e"/><stop offset="0.579" stop-color="#74449d"/><stop offset="0.867" stop-color="#a963e4"/><stop offset="1" stop-color="#bd6fff"/></linearGradient><linearGradient id="Áåçûìÿííûé_ãðàäèåíò_373-2" x1="393.283" y1="937.052" x2="393.283" y2="808.927" xlink:href="#Áåçûìÿííûé_ãðàäèåíò_373"/><linearGradient id="Áåçûìÿííûé_ãðàäèåíò_237-4" x1="280.198" y1="581.54" x2="369.479" y2="752.68" xlink:href="#Áåçûìÿííûé_ãðàäèåíò_237"/><linearGradient id="Áåçûìÿííûé_ãðàäèåíò_685-3" x1="261.129" y1="590.108" x2="435.684" y2="764.662" xlink:href="#Áåçûìÿííûé_ãðàäèåíò_685"/><linearGradient id="Áåçûìÿííûé_ãðàäèåíò_746" x1="335.539" y1="606.893" x2="295.703" y2="520.621" gradientUnits="userSpaceOnUse"><stop offset="0.325" stop-color="#bd6fff"/><stop offset="0.392" stop-color="#b96dfa"/><stop offset="0.476" stop-color="#ae66ea"/><stop offset="0.568" stop-color="#9b5bd1"/><stop offset="0.666" stop-color="#814cae"/><stop offset="0.77" stop-color="#5f3880"/><stop offset="0.877" stop-color="#362049"/><stop offset="0.986" stop-color="#060409"/><stop offset="1"/></linearGradient><linearGradient id="Áåçûìÿííûé_ãðàäèåíò_700" x1="312.816" y1="609.942" x2="312.816" y2="340.148" gradientUnits="userSpaceOnUse"><stop offset="0" stop-color="#2f0253"/><stop offset="0.206" stop-color="#684882"/><stop offset="0.418" stop-color="#9d88ae"/><stop offset="0.612" stop-color="#c7bbd1"/><stop offset="0.779" stop-color="#e6e0ea"/><stop offset="0.914" stop-color="#f8f7f9"/><stop offset="1" stop-color="#fff"/></linearGradient><linearGradient id="Áåçûìÿííûé_ãðàäèåíò_746-2" x1="631.659" y1="413.778" x2="631.659" y2="303.767" xlink:href="#Áåçûìÿííûé_ãðàäèåíò_746"/><linearGradient id="Áåçûìÿííûé_ãðàäèåíò_741" x1="782.486" y1="837.078" x2="747.436" y2="693.177" gradientUnits="userSpaceOnUse"><stop offset="0"/><stop offset="0.014" stop-color="#060409"/><stop offset="0.123" stop-color="#362049"/><stop offset="0.23" stop-color="#5f3880"/><stop offset="0.334" stop-color="#814cae"/><stop offset="0.432" stop-color="#9b5bd1"/><stop offset="0.524" stop-color="#ae66ea"/><stop offset="0.608" stop-color="#b96dfa"/><stop offset="0.675" stop-color="#bd6fff"/></linearGradient><linearGradient id="Áåçûìÿííûé_ãðàäèåíò_685-4" x1="536.937" y1="345.259" x2="819.893" y2="628.215" xlink:href="#Áåçûìÿííûé_ãðàäèåíò_685"/><linearGradient id="Áåçûìÿííûé_ãðàäèåíò_746-3" x1="1098.82" y1="779.494" x2="1052.886" y2="895.791" xlink:href="#Áåçûìÿííûé_ãðàäèåíò_746"/><linearGradient id="Áåçûìÿííûé_ãðàäèåíò_373-3" x1="809.291" y1="945.382" x2="809.291" y2="891.613" xlink:href="#Áåçûìÿííûé_ãðàäèåíò_373"/><linearGradient id="Áåçûìÿííûé_ãðàäèåíò_373-4" x1="843.754" y1="1120.223" x2="843.754" y2="892.036" xlink:href="#Áåçûìÿííûé_ãðàäèåíò_373"/><linearGradient id="Áåçûìÿííûé_ãðàäèåíò_750" x1="767.498" y1="866.618" x2="767.498" y2="727.627" gradientUnits="userSpaceOnUse"><stop offset="0" stop-color="#fff"/><stop offset="0.72" stop-color="#2f0253"/></linearGradient><linearGradient id="Áåçûìÿííûé_ãðàäèåíò_748" x1="990.219" y1="957.334" x2="836.186" y2="1111.367" gradientUnits="userSpaceOnUse"><stop offset="0" stop-color="#2f0253"/><stop offset="1" stop-color="#fff"/></linearGradient><linearGradient id="Áåçûìÿííûé_ãðàäèåíò_749-2" x1="1114.757" y1="792.045" x2="1019.334" y2="910.723" xlink:href="#Áåçûìÿííûé_ãðàäèåíò_749"/><linearGradient id="Áåçûìÿííûé_ãðàäèåíò_237-5" x1="1017.12" y1="529.272" x2="1198.386" y2="710.538" xlink:href="#Áåçûìÿííûé_ãðàäèåíò_237"/><linearGradient id="Áåçûìÿííûé_ãðàäèåíò_685-5" x1="1061.886" y1="488.043" x2="1209.43" y2="635.588" xlink:href="#Áåçûìÿííûé_ãðàäèåíò_685"/><linearGradient id="Áåçûìÿííûé_ãðàäèåíò_754" x1="1109.851" y1="417.914" x2="1128.999" y2="505.632" gradientUnits="userSpaceOnUse"><stop offset="0"/><stop offset="0.017" stop-color="#060409"/><stop offset="0.15" stop-color="#362049"/><stop offset="0.282" stop-color="#5f3880"/><stop offset="0.409" stop-color="#814cae"/><stop offset="0.53" stop-color="#9b5bd1"/><stop offset="0.643" stop-color="#ae66ea"/><stop offset="0.745" stop-color="#b96dfa"/><stop offset="0.828" stop-color="#bd6fff"/></linearGradient><linearGradient id="Áåçûìÿííûé_ãðàäèåíò_756" x1="694.14" y1="413.778" x2="694.14" y2="75.394" gradientUnits="userSpaceOnUse"><stop offset="0.105" stop-color="#2f0253"/><stop offset="0.109" stop-color="#320555"/><stop offset="0.18" stop-color="#5c3979"/><stop offset="0.255" stop-color="#836898"/><stop offset="0.334" stop-color="#a491b4"/><stop offset="0.416" stop-color="#c0b3cb"/><stop offset="0.504" stop-color="#d7cfde"/><stop offset="0.597" stop-color="#e9e4ed"/><stop offset="0.701" stop-color="#f5f3f7"/><stop offset="0.821" stop-color="#fdfcfd"/><stop offset="1" stop-color="#fff"/></linearGradient><linearGradient id="Áåçûìÿííûé_ãðàäèåíò_755" x1="1103.294" y1="512.765" x2="1103.294" y2="239.582" gradientUnits="userSpaceOnUse"><stop offset="0" stop-color="#2f0253"/><stop offset="0.027" stop-color="#3b115d"/><stop offset="0.139" stop-color="#684883"/><stop offset="0.254" stop-color="#9179a4"/><stop offset="0.37" stop-color="#b3a2c0"/><stop offset="0.488" stop-color="#cec4d7"/><stop offset="0.608" stop-color="#e4dee8"/><stop offset="0.732" stop-color="#f3f0f5"/><stop offset="0.859" stop-color="#fcfbfd"/><stop offset="1" stop-color="#fff"/></linearGradient><linearGradient id="Áåçûìÿííûé_ãðàäèåíò_764" x1="829.106" y1="1446.351" x2="829.106" y2="1366.987" gradientUnits="userSpaceOnUse"><stop offset="0" stop-color="#fff"/><stop offset="0.319" stop-color="#b5a5c2"/><stop offset="0.652" stop-color="#6e4e87"/><stop offset="0.887" stop-color="#401761"/><stop offset="1" stop-color="#2f0253"/></linearGradient><linearGradient id="Áåçûìÿííûé_ãðàäèåíò_760-4" x1="537.215" y1="1374.005" x2="537.215" y2="1255.447" xlink:href="#Áåçûìÿííûé_ãðàäèåíò_760"/><linearGradient id="Áåçûìÿííûé_ãðàäèåíò_760-5" x1="955.25" y1="1329.865" x2="903.583" y2="1148.392" xlink:href="#Áåçûìÿííûé_ãðàäèåíò_760"/><linearGradient id="Áåçûìÿííûé_ãðàäèåíò_764-2" x1="984.001" y1="1432.071" x2="984.001" y2="1332.175" xlink:href="#Áåçûìÿííûé_ãðàäèåíò_764"/><linearGradient id="Áåçûìÿííûé_ãðàäèåíò_764-3" x1="638.713" y1="1530.335" x2="638.713" y2="1358.053" xlink:href="#Áåçûìÿííûé_ãðàäèåíò_764"/><linearGradient id="Áåçûìÿííûé_ãðàäèåíò_792" x1="937.999" y1="1304.257" x2="841.58" y2="1187.029" gradientUnits="userSpaceOnUse"><stop offset="0.28"/><stop offset="0.352" stop-color="#030603"/><stop offset="0.447" stop-color="#0a170d"/><stop offset="0.555" stop-color="#16321d"/><stop offset="0.673" stop-color="#275834"/><stop offset="0.798" stop-color="#3c8a51"/><stop offset="0.928" stop-color="#56c574"/><stop offset="0.996" stop-color="#65e788"/></linearGradient><linearGradient id="Áåçûìÿííûé_ãðàäèåíò_792-2" x1="1024.477" y1="1360.916" x2="1024.477" y2="1284.767" xlink:href="#Áåçûìÿííûé_ãðàäèåíò_792"/><linearGradient id="Áåçûìÿííûé_ãðàäèåíò_792-3" x1="586.002" y1="1470.356" x2="586.002" y2="1338.797" xlink:href="#Áåçûìÿííûé_ãðàäèåíò_792"/><linearGradient id="Áåçûìÿííûé_ãðàäèåíò_795" x1="520.953" y1="1374.005" x2="520.953" y2="1170.775" gradientUnits="userSpaceOnUse"><stop offset="0.336"/><stop offset="0.383" stop-color="#030603"/><stop offset="0.446" stop-color="#0a170d"/><stop offset="0.518" stop-color="#16321d"/><stop offset="0.596" stop-color="#275834"/><stop offset="0.679" stop-color="#3c8a51"/><stop offset="0.765" stop-color="#56c574"/><stop offset="0.81" stop-color="#65e788"/></linearGradient><linearGradient id="Áåçûìÿííûé_ãðàäèåíò_792-4" x1="446.309" y1="1210.443" x2="446.309" y2="1148.332" xlink:href="#Áåçûìÿííûé_ãðàäèåíò_792"/><linearGradient id="Áåçûìÿííûé_ãðàäèåíò_798" x1="336.673" y1="1120.058" x2="406.047" y2="930.832" gradientUnits="userSpaceOnUse"><stop offset="0.336"/><stop offset="0.403" stop-color="#030603"/><stop offset="0.491" stop-color="#0a170d"/><stop offset="0.591" stop-color="#16321d"/><stop offset="0.7" stop-color="#275834"/><stop offset="0.816" stop-color="#3c8a51"/><stop offset="0.937" stop-color="#56c574"/><stop offset="1" stop-color="#65e788"/></linearGradient><radialGradient id="radial-gradient" cx="723.515" cy="556.684" r="439.001" gradientUnits="userSpaceOnUse"><stop offset="0" stop-color="#009583"/><stop offset="0.296" stop-color="#005b50" stop-opacity="0.612"/><stop offset="0.583" stop-color="#002a25" stop-opacity="0.281"/><stop offset="0.801" stop-color="#000b0a" stop-opacity="0.077"/><stop offset="0.923" stop-opacity="0"/></radialGradient><radialGradient id="radial-gradient-2" cx="1115.002" cy="685.766" r="356.259" xlink:href="#radial-gradient"/><radialGradient id="radial-gradient-3" cx="376.522" cy="735.21" r="301.98" xlink:href="#radial-gradient"/><radialGradient id="radial-gradient-4" cx="1192.077" cy="937.054" r="89.249" gradientTransform="translate(1011.748 -568.469) rotate(45)" xlink:href="#radial-gradient"/><radialGradient id="radial-gradient-5" cx="240.654" cy="1155.246" r="68.536" gradientTransform="translate(887.369 168.196) rotate(45)" xlink:href="#radial-gradient"/><radialGradient id="radial-gradient-6" cx="804.04" cy="691.469" r="74.726" gradientTransform="translate(724.441 -366.015) rotate(45)" gradientUnits="userSpaceOnUse"><stop offset="0" stop-color="aqua"/><stop offset="0.11" stop-color="#00c6c6" stop-opacity="0.777"/><stop offset="0.225" stop-color="#009292" stop-opacity="0.573"/><stop offset="0.343" stop-color="#006565" stop-opacity="0.397"/><stop offset="0.459" stop-color="#004141" stop-opacity="0.254"/><stop offset="0.576" stop-color="#002424" stop-opacity="0.143"/><stop offset="0.692" stop-color="#001010" stop-opacity="0.063"/><stop offset="0.808" stop-color="#000404" stop-opacity="0.016"/><stop offset="0.923" stop-opacity="0"/></radialGradient><radialGradient id="radial-gradient-7" cx="706.216" cy="500.583" r="74.726" gradientTransform="matrix(1, 0, 0, 1, 0, 0)" xlink:href="#radial-gradient-6"/><radialGradient id="radial-gradient-8" cx="575.563" cy="541.809" r="74.726" gradientTransform="matrix(1, 0, 0, 1, 0, 0)" xlink:href="#radial-gradient-6"/><radialGradient id="radial-gradient-9" cx="873.029" cy="561.133" r="74.726" gradientTransform="translate(652.486 -452.973) rotate(45)" xlink:href="#radial-gradient-6"/><radialGradient id="radial-gradient-10" cx="755.247" cy="361.967" r="34.766" gradientTransform="translate(931.095 -456.871) rotate(76.513)" xlink:href="#radial-gradient-6"/><radialGradient id="radial-gradient-11" cx="790.303" cy="439.081" r="34.766" gradientTransform="translate(541.951 -430.225) rotate(45)" xlink:href="#radial-gradient-6"/><radialGradient id="radial-gradient-12" cx="770.263" cy="296.947" r="34.766" gradientTransform="translate(895.965 -518.946) rotate(77.676)" xlink:href="#radial-gradient-6"/><radialGradient id="radial-gradient-13" cx="956.929" cy="341.88" r="34.766" gradientTransform="translate(966.259 -674.244) rotate(70.866)" xlink:href="#radial-gradient-6"/><radialGradient id="radial-gradient-14" cx="828.27" cy="496.806" r="34.766" gradientTransform="translate(593.89 -440.164) rotate(45)" xlink:href="#radial-gradient-6"/><radialGradient id="radial-gradient-15" cx="846.998" cy="331.713" r="34.766" gradientTransform="translate(978.356 -568.389) rotate(76.916)" xlink:href="#radial-gradient-6"/><radialGradient id="radial-gradient-16" cx="1017.406" cy="505.996" r="34.766" gradientTransform="translate(271.082 -350.827) rotate(22.5)" xlink:href="#radial-gradient-6"/><radialGradient id="radial-gradient-17" cx="958.686" cy="513.092" r="34.766" gradientTransform="translate(983.147 -573.988) rotate(63.133)" xlink:href="#radial-gradient-6"/><radialGradient id="radial-gradient-18" cx="589.101" cy="456.466" r="74.726" gradientTransform="translate(904.723 -218.652) rotate(77.286)" xlink:href="#radial-gradient-6"/><radialGradient id="radial-gradient-19" cx="674.006" cy="1127.282" r="34.766" gradientTransform="translate(1613.01 208.958) rotate(76.513)" xlink:href="#radial-gradient-6"/><radialGradient id="radial-gradient-20" cx="959.42" cy="1013.435" r="34.766" gradientTransform="matrix(1, 0, 0, 1, 0, 0)" xlink:href="#radial-gradient-6"/><radialGradient id="radial-gradient-21" cx="850.645" cy="789.399" r="34.766" gradientTransform="translate(1426.981 -217.866) rotate(76.916)" xlink:href="#radial-gradient-6"/><radialGradient id="radial-gradient-22" cx="1016.115" cy="906.067" r="34.766" gradientTransform="translate(1664.489 -291.037) rotate(76.717)" xlink:href="#radial-gradient-6"/><radialGradient id="radial-gradient-23" cx="1130.208" cy="766.721" r="74.726" gradientTransform="matrix(1, 0, 0, 1, 0, 0)" xlink:href="#radial-gradient-6"/><radialGradient id="radial-gradient-24" cx="306.094" cy="274.68" r="74.726" gradientTransform="matrix(1, 0, 0, 1, 0, 0)" xlink:href="#radial-gradient-6"/><radialGradient id="radial-gradient-25" cx="619.546" cy="93.17" r="74.726" gradientTransform="translate(247.342 -410.796) rotate(45)" xlink:href="#radial-gradient-6"/><radialGradient id="radial-gradient-26" cx="689.814" cy="161.674" r="74.726" gradientTransform="translate(316.362 -440.419) rotate(45)" xlink:href="#radial-gradient-6"/><radialGradient id="radial-gradient-27" cx="942.538" cy="286.773" r="74.726" gradientTransform="matrix(1, 0, 0, 1, 0, 0)" xlink:href="#radial-gradient-6"/><radialGradient id="radial-gradient-28" cx="1050.881" cy="618.38" r="74.726" gradientTransform="translate(745.057 -561.966) rotate(45)" xlink:href="#radial-gradient-6"/><radialGradient id="radial-gradient-29" cx="1153.565" cy="532.047" r="74.726" gradientTransform="matrix(1, 0, 0, 1, 0, 0)" xlink:href="#radial-gradient-6"/><radialGradient id="radial-gradient-30" cx="590.25" cy="698.421" r="74.726" gradientTransform="translate(666.739 -212.807) rotate(45)" xlink:href="#radial-gradient-6"/><radialGradient id="radial-gradient-31" cx="243.214" cy="1161.608" r="74.726" gradientTransform="matrix(1, 0, 0, 1, 0, 0)" xlink:href="#radial-gradient-6"/><radialGradient id="radial-gradient-32" cx="284.514" cy="660.226" r="74.726" gradientTransform="translate(889.143 271.29) rotate(80.561)" xlink:href="#radial-gradient-6"/><radialGradient id="radial-gradient-33" cx="344.336" cy="568.559" r="74.726" gradientTransform="matrix(1, 0, 0, 1, 0, 0)" xlink:href="#radial-gradient-6"/><radialGradient id="radial-gradient-34" cx="1074.448" cy="370.548" r="34.766" gradientTransform="translate(1268.104 -749.382) rotate(80.783)" xlink:href="#radial-gradient-6"/><radialGradient id="radial-gradient-35" cx="991.451" cy="387.628" r="34.766" gradientTransform="translate(1140.921 -666.36) rotate(76.717)" xlink:href="#radial-gradient-6"/><radialGradient id="radial-gradient-36" cx="597.596" cy="152.449" r="34.766" gradientTransform="translate(624.627 -463.693) rotate(78.201)" xlink:href="#radial-gradient-6"/><radialGradient id="radial-gradient-37" cx="632.118" cy="198.196" r="34.766" gradientTransform="translate(697.786 -461.002) rotate(78.28)" xlink:href="#radial-gradient-6"/><radialGradient id="radial-gradient-38" cx="729.313" cy="163.431" r="34.766" gradientTransform="translate(121.927 -272.102) rotate(23.012)" xlink:href="#radial-gradient-6"/><radialGradient id="radial-gradient-39" cx="538.972" cy="255.28" r="34.766" gradientTransform="translate(685.725 -322.753) rotate(78.901)" xlink:href="#radial-gradient-6"/><radialGradient id="radial-gradient-40" cx="652.047" cy="34.766" r="34.766" gradientTransform="matrix(1, 0, 0, 1, 0, 0)" xlink:href="#radial-gradient-6"/><radialGradient id="radial-gradient-41" cx="758.742" cy="77.706" r="34.766" gradientTransform="translate(662.667 -678.93) rotate(76.916)" xlink:href="#radial-gradient-6"/><radialGradient id="radial-gradient-42" cx="1026.217" cy="232.962" r="34.766" gradientTransform="translate(465.301 -657.412) rotate(45)" xlink:href="#radial-gradient-6"/><radialGradient id="radial-gradient-43" cx="227.592" cy="290.046" r="34.766" gradientTransform="translate(456.56 1.086) rotate(76.513)" xlink:href="#radial-gradient-6"/><radialGradient id="radial-gradient-44" cx="298.542" cy="324.811" r="34.766" gradientTransform="translate(547.337 -39.511) rotate(76.916)" xlink:href="#radial-gradient-6"/><radialGradient id="radial-gradient-45" cx="447.708" cy="1060.55" r="34.766" gradientTransform="translate(881.053 -5.95) rotate(45)" xlink:href="#radial-gradient-6"/><radialGradient id="radial-gradient-46" cx="337.777" cy="1050.383" r="34.766" gradientTransform="translate(841.666 68.805) rotate(45)" xlink:href="#radial-gradient-6"/><radialGradient id="radial-gradient-47" cx="565.227" cy="1089.218" r="34.766" gradientTransform="translate(935.745 -80.652) rotate(45)" xlink:href="#radial-gradient-6"/><radialGradient id="radial-gradient-48" cx="482.23" cy="1106.298" r="34.766" gradientTransform="translate(1445.556 379.355) rotate(76.513)" xlink:href="#radial-gradient-6"/><radialGradient id="radial-gradient-49" cx="243.214" cy="528.271" r="34.766" gradientTransform="matrix(1, 0, 0, 1, 0, 0)" xlink:href="#radial-gradient-6"/><radialGradient id="radial-gradient-50" cx="154.822" cy="604.859" r="34.766" gradientTransform="translate(473.046 67.683) rotate(45)" xlink:href="#radial-gradient-6"/><radialGradient id="radial-gradient-51" cx="461.837" cy="346.916" r="34.766" gradientTransform="translate(380.576 -224.959) rotate(45)" xlink:href="#radial-gradient-6"/><radialGradient id="radial-gradient-52" cx="378.84" cy="363.996" r="34.766" gradientTransform="translate(368.344 -161.269) rotate(45)" xlink:href="#radial-gradient-6"/><radialGradient id="radial-gradient-53" cx="1187.32" cy="673.977" r="34.766" gradientTransform="translate(1662.406 -605.971) rotate(80.783)" xlink:href="#radial-gradient-6"/><radialGradient id="radial-gradient-54" cx="1016.137" cy="728.056" r="34.766" gradientTransform="translate(812.433 -505.274) rotate(45)" xlink:href="#radial-gradient-6"/><radialGradient id="radial-gradient-55" cx="1059.465" cy="646.84" r="34.766" gradientTransform="translate(1445.586 -532.897) rotate(76.717)" xlink:href="#radial-gradient-6"/><radialGradient id="radial-gradient-56" cx="1162.516" cy="582.997" r="34.766" gradientTransform="translate(752.735 -651.267) rotate(45)" xlink:href="#radial-gradient-6"/><radialGradient id="radial-gradient-57" cx="1193.906" cy="948.281" r="34.766" gradientTransform="translate(1842.515 -431.557) rotate(76.717)" xlink:href="#radial-gradient-6"/><radialGradient id="radial-gradient-58" cx="1226.185" cy="922.083" r="34.766" gradientTransform="translate(1841.882 -483.152) rotate(76.717)" xlink:href="#radial-gradient-6"/><radialGradient id="radial-gradient-59" cx="399.627" cy="830.72" r="34.766" gradientTransform="translate(704.456 -39.267) rotate(45)" xlink:href="#radial-gradient-6"/><radialGradient id="radial-gradient-60" cx="280.738" cy="767.508" r="34.766" gradientTransform="translate(964.767 320.31) rotate(76.916)" xlink:href="#radial-gradient-6"/><radialGradient id="radial-gradient-61" cx="309.19" cy="724.348" r="34.766" gradientTransform="translate(698.382 39.652) rotate(52.73)" xlink:href="#radial-gradient-6"/><radialGradient id="radial-gradient-62" cx="385.289" cy="626.855" r="34.766" gradientTransform="matrix(1, 0, 0, 1, 0, 0)" xlink:href="#radial-gradient-6"/><radialGradient id="radial-gradient-63" cx="453.788" cy="547.652" r="34.766" gradientTransform="translate(876.631 -24.231) rotate(76.124)" xlink:href="#radial-gradient-6"/><radialGradient id="radial-gradient-64" cx="485.489" cy="655.7" r="34.766" gradientTransform="matrix(1, 0, 0, 1, 0, 0)" xlink:href="#radial-gradient-6"/><radialGradient id="radial-gradient-65" cx="537.215" cy="616.536" r="34.766" gradientTransform="translate(593.303 -199.289) rotate(45)" xlink:href="#radial-gradient-6"/><radialGradient id="radial-gradient-66" cx="447.332" cy="424.117" r="34.766" gradientTransform="translate(762.329 -105.749) rotate(77.257)" xlink:href="#radial-gradient-6"/><radialGradient id="radial-gradient-67" cx="566.223" cy="363.724" r="34.766" gradientTransform="translate(792.324 -270.139) rotate(76.916)" xlink:href="#radial-gradient-6"/><radialGradient id="radial-gradient-68" cx="650.29" cy="541.809" r="34.766" gradientTransform="matrix(1, 0, 0, 1, 0, 0)" xlink:href="#radial-gradient-6"/><radialGradient id="radial-gradient-69" cx="431.646" cy="709.908" r="74.726" gradientTransform="translate(1032.338 135.926) rotate(77.603)" xlink:href="#radial-gradient-6"/><radialGradient id="radial-gradient-70" cx="392.748" cy="960.313" r="74.726" gradientTransform="matrix(1, 0, 0, 1, 0, 0)" xlink:href="#radial-gradient-6"/><radialGradient id="radial-gradient-71" cx="302.318" cy="778.317" r="74.726" gradientTransform="translate(988.873 303.116) rotate(76.538)" xlink:href="#radial-gradient-6"/><radialGradient id="radial-gradient-72" cx="441.779" cy="821.697" r="34.766" gradientTransform="translate(710.422 -71.715) rotate(45)" xlink:href="#radial-gradient-6"/><radialGradient id="radial-gradient-73" cx="476.835" cy="898.811" r="34.766" gradientTransform="translate(775.217 -73.918) rotate(45)" xlink:href="#radial-gradient-6"/><radialGradient id="radial-gradient-74" cx="703.937" cy="965.726" r="34.766" gradientTransform="translate(1485.235 61.443) rotate(76.916)" xlink:href="#radial-gradient-6"/><radialGradient id="radial-gradient-75" cx="645.218" cy="972.822" r="34.766" gradientTransform="translate(876.869 -171.305) rotate(45)" xlink:href="#radial-gradient-6"/><radialGradient id="radial-gradient-76" cx="794.297" cy="1086.614" r="34.766" gradientTransform="matrix(1, 0, 0, 1, 0, 0)" xlink:href="#radial-gradient-6"/><radialGradient id="radial-gradient-77" cx="616.613" cy="856.463" r="34.766" gradientTransform="translate(786.213 -185.159) rotate(45)" xlink:href="#radial-gradient-6"/><radialGradient id="radial-gradient-78" cx="721.65" cy="571.541" r="721.641" gradientTransform="translate(0 249.466) scale(1 0.686)" xlink:href="#radial-gradient"/></defs><title>plant-4</title><g class="cls-1"><g id="Layer_2" data-name="Layer 2"><g id="plants"><g id="plant-4"><path class="cls-2" d="M1144.351,960.315S1215,978.7,1241.68,921.925c6.561-13.965-6.03-29.546-21.062-26.068C1191.5,902.6,1150.556,919.306,1144.351,960.315Z"/><path class="cls-3" d="M1144.351,960.315s67.557,17.42,95.452-35.044c-17.53,24.47-95.215,14.837-71.471-5.835C1156.322,929.254,1147.049,942.483,1144.351,960.315Z"/><path class="cls-4" d="M1220.618,895.857c-16.458,3.808-36.685,10.81-52.29,23.575-12.594,10.973,3.363,18.832,23.737,20.139-35.109-1.767,34.914-51.667,48.083-35.749A18.323,18.323,0,0,0,1220.618,895.857Z"/><path class="cls-5" d="M1195.557,904.7c29.832-16.013,62.373.958,30.628,17.388S1158.708,924.476,1195.557,904.7Z"/><path class="cls-6" d="M264.154,1119.2s-40.022,6.717-47.876,42.625c-3.773,17.25,15.325,29.378,29.69,19.109C259.581,1171.2,271.385,1153.016,264.154,1119.2Z"/><path class="cls-7" d="M245.968,1180.932c12.673-9.06,23.572-25.623,19.208-55.133-6.9,1.285-10.078,2.311-8.994,3.037,17.182,11.487-39.7,70.255-40.05,35.252C214.473,1180.068,232.26,1190.731,245.968,1180.932Z"/><path class="cls-8" d="M226.327,1174.55c-18.662-1.024,34.776-45.947,31.633-32.533,2.071-5.683,2.045-10.626-1.778-13.181-1.084-.726,2.094-1.752,8.994-3.037-.323-2.186-.524-4.269-1.023-6.6,0,0-40.022,6.716-47.875,42.625a18.834,18.834,0,0,0-.146,2.266C216.226,1173.575,220.527,1176.031,226.327,1174.55Z"/><path class="cls-9" d="M230.616,1138.234c14.414-14.414,26.161,14.516,12.283,23.13S207.326,1161.524,230.616,1138.234Z"/><path class="cls-10" d="M719.813,307.769S761.32,326.7,810.45,354.723c62.084,35.416,106.541,60.217,142.476,140,37.647,83.589-17.016,282.671-71.465,275.865L726.619,831s-45.091,35.732-152.289-28.076S345.471,628.512,425.444,464.312,607.51,298.41,607.51,298.41Z"/><path class="cls-11" d="M815.1,666.793c-43.39,46.791-95.287,7.661-95.287,7.661-91,95.258-238.971-16.1-102.207-130.908-96.394,69.9-166.895,167.507-107.165,215.719-10.117-8.01-19.956-16.482-29.342-25.4,28.632,27.213,61.545,50.2,93.231,69.057C681.528,866.729,726.619,831,726.619,831l154.842-60.4c35.1,4.388,70.248-76.782,80.74-157.418C944.133,731.123,815.1,666.793,815.1,666.793Z"/><path class="cls-12" d="M752.993,473.324c138.229-41.627,212.5,63.71,211.846,112.244,1.964-34.652-1.319-67.319-11.913-90.841-30.642-68.034-67.524-96.089-116.2-124.836-105.265-57.292-96.918,14.447-96.918,14.447-88.055-123.787-80.4,29.44-80.4,29.44-49.094-125.514-150.707-77-212.076,10.339-7.412,12.194-14.741,25.519-21.888,40.194-64.085,131.579,1.325,228.708,85,294.954C424.026,689.514,610.165,516.336,752.993,473.324Z"/><path class="cls-13" d="M726.619,831l154.842-60.4c26.677,3.335,53.376-42.784,69.274-100.5-16.057,50.693-41.211,79.195-44.389,70.294-3.191-8.933,11.509-47.722,11.509-47.722-107.813,164.758-114.24-1.2-114.24-1.2-15.314,209.505-89.692,18.592-89.692,18.592,29.589,174.885-89.852,124.386-185.49,62.8,15.182,10.963,30.679,21,45.9,30.057C681.528,866.729,726.619,831,726.619,831Z"/><path class="cls-14" d="M659.408,413.778s-7.657-153.227,80.4-29.44c0,0-8.347-71.742,96.924-14.444-8.411-4.967-17.133-9.953-26.28-15.172-49.129-28.026-90.637-46.953-90.637-46.953l-112.3-9.359s-84.657,1.463-160.179,125.709C508.7,336.773,610.314,288.263,659.408,413.778Z"/><path class="cls-15" d="M280.812,536.628s-74.869,124.213-42.539,234.814,131.02,111.452,144.632,102.094c0,0,68.062,11.06,91.033-28.076,0,0,62.958-31.479,5.105-158.245S314.2,460.72,280.812,536.628Z"/><path class="cls-16" d="M293.786,559.173c28.076,1.277,45.942,56.151,45.942,56.151s-22.971-93.16,32.542-63.807c23,12.158,48.132,38.506,70.275,68.889C384.016,529.5,308,474.8,280.812,536.628c0,0-23.669,39.27-38.644,93.31C242.187,629.878,265.722,557.9,293.786,559.173Z"/><path class="cls-17" d="M500.281,752.66c.441,15.758-2.094,30.048-11.241,36.223-25.524,17.229-63.809-4.395-63.809-4.395-40.648,48.976-202.594-4.67-159.422-49.278-18.605,16.375-27.684,36.365-19.671,58.1,38.079,88.741,124.121,88.917,136.767,80.222,0,0,68.062,11.06,91.033-28.075,0,0,28.994-14.557,29.515-63.564-.492-4.412-.9-9.167-1.123-14.707A78.207,78.207,0,0,0,500.281,752.66Z"/><path class="cls-18" d="M1084.8,424.325s-34.881,86.779-66.36,151.439-108.049,218.649-8.508,287.562c0,0,34.882,22.121,113.153,5.956s131.823-100.3,131.871-239.069C1254.994,510.27,1186.89,429.43,1084.8,424.325Z"/><path class="cls-19" d="M659.408,413.778s-7.657-153.227,80.4-29.44c0,0-8.347-71.742,96.924-14.444-8.411-4.967-17.133-9.953-26.28-15.172-49.129-28.026-90.637-46.953-90.637-46.953l-112.3-9.359s-84.657,1.463-160.179,125.709C508.7,336.773,610.314,288.263,659.408,413.778Z"/><path class="cls-20" d="M445.256,452.3c8.482,2.833,4.214,32.985-8.284,26.236S436.775,449.465,445.256,452.3Z"/><path class="cls-20" d="M602.712,643.391c8.481,2.833,4.213,32.985-8.284,26.236S594.23,640.557,602.712,643.391Z"/><path class="cls-20" d="M461.937,460.648c6.514-3.167,6.619-8.622,0-8.6S458,462.56,461.937,460.648Z"/><path class="cls-20" d="M445.615,804.262c-2.061-7.23,19.267-8.885,19.99-1.912S447.676,811.491,445.615,804.262Z"/><path class="cls-20" d="M468.1,797.9c5.34-.485,5.458-4.841,1.843-5.2S464.821,798.194,468.1,797.9Z"/><path class="cls-20" d="M689.24,523.817c-5.2-2.333,1.3-11.732,7.81-7.394S694.444,526.15,689.24,523.817Z"/><path class="cls-20" d="M694.881,627.846c7.23-1.891,7.739-15.266-1.553-12.375S687.651,629.738,694.881,627.846Z"/><path class="cls-20" d="M617.747,677.144c-3.244-5.061,1.22-7.277,4.049-3.277S617.747,677.144,617.747,677.144Z"/><path class="cls-20" d="M800.962,392.406c8.481,2.833,4.213,32.985-8.284,26.236S792.48,389.572,800.962,392.406Z"/><path class="cls-20" d="M816,426.158c-3.244-5.061,1.22-7.276,4.049-3.276S816,426.158,816,426.158Z"/><path class="cls-20" d="M362.7,724.778c-10.122-1.808-3.977-15.545,6.507-13.376S372.825,726.585,362.7,724.778Z"/><path class="cls-20" d="M372.825,697.125c2.891-2.351,5.771,4.688,1.62,6.771S369.933,699.477,372.825,697.125Z"/><path class="cls-20" d="M391.622,721.765c4.7-4.217-.748-9.64-4.712-7.832S386.923,725.983,391.622,721.765Z"/><path class="cls-20" d="M295.155,815.752c-7.619-6.818,5.423-18.436,14.1-14.1S302.024,821.9,295.155,815.752Z"/><path class="cls-20" d="M922.528,656.644c-2.062-7.23,19.266-8.885,19.989-1.912S924.589,663.874,922.528,656.644Z"/><path class="cls-20" d="M945.012,650.279c5.34-.486,5.458-4.841,1.843-5.2S941.733,650.576,945.012,650.279Z"/><path class="cls-20" d="M839.616,577.16c-10.122-1.808-3.977-15.544,6.506-13.375S849.737,578.967,839.616,577.16Z"/><path class="cls-20" d="M849.737,549.508c2.892-2.352,5.772,4.687,1.621,6.771S846.845,551.859,849.737,549.508Z"/><path class="cls-20" d="M868.535,574.148c4.7-4.218-.748-9.64-4.712-7.833S863.835,578.365,868.535,574.148Z"/><path class="cls-20" d="M1011.69,769.51c-10.121-1.807-3.976-15.544,6.507-13.375S1021.812,771.318,1011.69,769.51Z"/><path class="cls-20" d="M1021.812,741.858c2.892-2.352,5.772,4.687,1.621,6.771S1018.92,744.209,1021.812,741.858Z"/><path class="cls-20" d="M1040.61,766.5c4.7-4.218-.749-9.64-4.712-7.833S1035.91,770.715,1040.61,766.5Z"/><path class="cls-20" d="M772.068,668.134c-7.62-6.817,5.422-18.436,14.1-14.1S778.936,674.28,772.068,668.134Z"/><path class="cls-20" d="M356.887,584.327c-6.919-3.287-3.387-12.048,2.464-8.346S359.98,585.8,356.887,584.327Z"/><path class="cls-20" d="M592.105,524.849c7.048-9.5,20.584,10.052,10.463,15.665S586.7,532.13,592.105,524.849Z"/><path class="cls-20" d="M451.908,592.955c7.048-9.5,20.585,10.053,10.463,15.665S446.507,600.236,451.908,592.955Z"/><path class="cls-20" d="M598.844,502.329c5.893-3.2,9.146,3.478,3.362,6.286S592.951,505.526,598.844,502.329Z"/><path class="cls-20" d="M662.088,789.544c5.893-3.2,9.147,3.478,3.363,6.286S656.2,792.741,662.088,789.544Z"/><path class="cls-20" d="M571.955,490.1c2.912,1.228,8.813,11.475-6.315,5.737S556.524,483.588,571.955,490.1Z"/><path class="cls-20" d="M1127.681,710.862c8.482,2.834,4.214,32.986-8.284,26.237S1119.2,708.029,1127.681,710.862Z"/><path class="cls-20" d="M1214.21,591.288c-5.2-2.333,1.3-11.732,7.81-7.394S1219.413,593.621,1214.21,591.288Z"/><path class="cls-20" d="M1219.851,695.318c7.23-1.892,7.739-15.267-1.553-12.375S1212.621,697.209,1219.851,695.318Z"/><path class="cls-20" d="M1142.717,744.615c-3.244-5.061,1.22-7.276,4.049-3.277S1142.717,744.615,1142.717,744.615Z"/><path class="cls-20" d="M1117.074,592.32c7.048-9.5,20.585,10.053,10.463,15.665S1111.672,599.6,1117.074,592.32Z"/><path class="cls-20" d="M1123.813,569.8c5.893-3.2,9.146,3.478,3.363,6.286S1117.921,573,1123.813,569.8Z"/><path class="cls-20" d="M1096.924,557.566c2.912,1.228,8.813,11.475-6.314,5.738S1081.494,551.059,1096.924,557.566Z"/><path class="cls-21" d="M1079.266,468.14c16.165-4.679,42.752,26.906,42.752,26.906-58.917-111.346,57.108,0,57.108,0-28.256-49.055,5.213-34.063,34.435-3.648-29.931-40.053-74.464-64.358-128.765-67.073,0,0-18.324,45.559-40.378,95.236C1059.952,491.651,1073.668,469.761,1079.266,468.14Z"/><path class="cls-22" d="M1127.761,859.072c-10.8-10.9,23.815-42.547,23.815-42.547-112.734,76.136-76.474,4.6-76.474,4.6-42.438,49.667-94.07,30.726-112.179-31.726,5.135,28.749,19.181,54.665,47.005,73.928,0,0,34.882,22.121,113.153,5.956a131.056,131.056,0,0,0,57.762-28.219C1166.054,852.264,1136.838,868.238,1127.761,859.072Z"/><path class="cls-23" d="M1009.928,863.326s34.882,22.121,113.153,5.956c56.288-11.625,99.658-58.571,119.673-135.537-12.52,39.7-38.832,76.1-56.715,70.877-22.44-6.549-5.2-30.627-5.2-30.627-75.691,45.869-222.318-102.466-136.8-171.49-35.567,22.639-65.167,58.824-77.884,110.177,9.395-44.468,28.775-87.96,43.815-119.4C975.644,664.971,918.486,800.021,1009.928,863.326Z"/><path class="cls-24" d="M453.788,413.778c66.518-92.61,176.906-148.586,205.62,0,0,0-7.019-77.9,12.761-91.635s67.637,62.2,67.637,62.2-7.657-37.009,0-45.3S809.53,354.2,809.53,354.2s11.632-2.405-29.844-24.418c-47.83-25.388-78.165-102.413,19.462-150.269C896.434,131.825,901.1,50.663,927.4,100.6c35.732,67.85-91.884,98.053-67,136.337C878.49,264.766,925.3,185.9,935.92,137.4S925.488,61.469,895.5,61.469s-6.38,81.036-118.683,121.874c-74.187,26.977-199.082,85.5-270.547,155.692S453.788,413.778,453.788,413.778Z"/><path class="cls-25" d="M457.135,840.97c-39.489,10.438-33.714-47.437-33.714-47.437-12.019,63.991-88.27,20.493-88.27,20.493,63,49.344-20.152,75.618-73.836,7,42.076,60.946,110.427,60.186,121.59,52.511,0,0,68.062,11.06,91.033-28.075,0,0,22.973-11.548,28.392-48.646C496.378,819.711,481.6,834.5,457.135,840.97Z"/><path class="cls-26" d="M1079.266,468.14c16.165-4.679,42.752,26.906,42.752,26.906-58.917-111.346,57.108,0,57.108,0-28.256-49.055,5.213-34.063,34.435-3.648-29.931-40.053-74.464-64.358-128.765-67.073,0,0-18.324,45.559-40.378,95.236C1059.952,491.651,1073.668,469.761,1079.266,468.14Z"/><path class="cls-27" d="M803.615,691.469s0,1.421.041,3.85C803.648,692.855,803.615,691.469,803.615,691.469Z"/><path class="cls-28" d="M1214.655,952.28c-2,2-21.693,20.792-56.681,13.994-36.988-7.2-97.467-31.589-157.447-8.9-59.88,22.693-99.467,79.474-105.465,167.944-5.9,88.57,48.284,145.951,48.284,145.951L829.185,1379.735l-111.063-81.672s15.3-87.171-56.181-123.958-162.645,6.6-198.433-84.672c-35.688-91.269-30.59-181.839-60.58-195.934-29.99-14-110.063-17.094-117.56-45.885,0,0,21.192,23.592,77.373,22.293,53.483-1.3-20.593-51.283-27.59-55.881,5.3,3.2,48.183,29.69,64.478,30.389,14.5.5,21.693-38.187,23.792-50.882-1.4,13.295-4.8,55.781,7.6,61.679,14.595,7.1,61.526-19.441,68.776-46.285,0,0,8.4,15.1-15.894,36.088-24.192,21.094-37.587,43.386-40.786,70.177s10.2,130.856,40.186,169.742c29.99,38.988,93.768,30.69,156.347,23.593,62.479-7,101.466,26.191,125.658,91.968,0,0-15.4-102.465-3.2-205.031,2.9-31.888-15.1-20.292-17.594-59.779-1.3-19.793-5.6-32.69-9.5-40.587a3.24,3.24,0,0,1,4.8-4.1c25.291,17.994,28.49,50.283,28.89,56.98,0,.1.1.2.2.3,2-15,3.4-28.091,4.1-39.387v-.5c.4-14-5.6-25.192-12.1-33.189a3.192,3.192,0,0,1,4.2-4.7,75.025,75.025,0,0,1,7.9,5.6c-2.7-28.091-13.2-34.789-28.091-31.09-25.491,6.4-136.754-1.3-136.954-24.292,0,0,62.079,22.993,98.267,12,34.988-10.8,9.3-116.06,7.7-122.658,2.2,6,41.486,110.963,66.278,90.769,22.392-18.294,23.492-88.27,23.492-105.464.3,17.394,3.3,88.87,30.99,88.87,29.39,0,76.874-80.673,83.172-91.569-4.3,8.8-30.29,62.878-23.193,70.876,7.6,8.8,31.99-31.29,31.99-31.29s5,17.5-20.993,36.588c-25.891,19.193-39.087,25.192-39.087,25.192s9.4,4.2-14.895,18.693c-16.6,9.9-35.088,31.889-46.684,69.577a28.2,28.2,0,0,1,2.7-.9c18.793-4.6,27.691,20.093,22.792,35.388a3.2,3.2,0,0,1-6.2-.3c-2-11.1-6.7-23.092-17.894-10.2-6.6,7.5-10.2,17.194-11.2,27.191-.4,3.9-.7,7.8-.9,11.9-.7,10.8-1,21.293-1.1,31.589a2.948,2.948,0,0,0,2.2-1.1c7.9-10.3,25.291-30.19,53.282-48.583,21.509-14.106,34.007-28.112,41-38.01,2.056-2.91,6.683-.687,5.773,2.758-8.463,32.018-39.211,58.256-64.569,81.905a104.221,104.221,0,0,0-30.61,98.716c4.284,19.383,10.542,36.488,16.515,47.566,0,0-16.195-70.576,47.683-133.555,63.779-62.979,129.757-72.976,144.652-95.268,14.795-22.293-34.988-36.288-30.69-60.68,0,0,21.293,30.09,42.986,33.489,19.694,3.1,48.484-35.788,53.682-43.085-3.6,6.3-20.793,36.087-12,42.185,9.7,6.7,54.882-17.894,88.47-46.784-6.1,5.6-40.087,37.187-36.588,47.684,3.8,11.5,46.185-7.7,56.881-16.095,0,0,6.1,4.2-17.294,15.195-23.392,11.1-75.274,25.991-102.566,36.188-27.19,10.2-109.762,33.989-150.949,78.274-41.286,44.185-58.28,121.659-25.991,172.242,0,0-11.1-121.659,71.476-173.941,82.572-52.383,169.7-26.141,182.539-24.293,10.553,1.52,26.867-19.65,26.867-19.65s-7.374,14.952,2.822,21.85C1169.07,960.776,1200.36,963.476,1214.655,952.28Z"/><path class="cls-29" d="M1214.655,952.28c-2,2-21.693,20.792-56.681,13.994-36.988-7.2-97.467-31.589-157.447-8.9-59.88,22.693-99.467,79.474-105.465,167.944-5.9,88.57,48.284,145.951,48.284,145.951L829.185,1379.735l-111.063-81.672s15.3-87.171-56.181-123.958-162.645,6.6-198.433-84.672c-35.688-91.269-30.59-181.839-60.58-195.934-29.99-14-110.063-17.094-117.56-45.885,0,0,21.192,23.592,77.373,22.293,53.483-1.3-20.593-51.283-27.59-55.881,5.3,3.2,48.183,29.69,64.478,30.389,14.5.5,21.693-38.187,23.792-50.882-1.4,13.295-4.8,55.781,7.6,61.679,14.595,7.1,61.526-19.441,68.776-46.285,0,0,8.4,15.1-15.894,36.088-24.192,21.094-37.587,43.386-40.786,70.177s10.2,130.856,40.186,169.742c29.99,38.988,93.768,30.69,156.347,23.593,62.479-7,101.466,26.191,125.658,91.968,0,0-15.4-102.465-3.2-205.031,2.9-31.888-15.1-20.292-17.594-59.779-1.3-19.793-5.6-32.69-9.5-40.587a3.24,3.24,0,0,1,4.8-4.1c25.291,17.994,28.49,50.283,28.89,56.98,0,.1.1.2.2.3,2-15,3.4-28.091,4.1-39.387v-.5c.4-14-5.6-25.192-12.1-33.189a3.192,3.192,0,0,1,4.2-4.7,75.025,75.025,0,0,1,7.9,5.6c-2.7-28.091-13.2-34.789-28.091-31.09-25.491,6.4-136.754-1.3-136.954-24.292,0,0,62.079,22.993,98.267,12,34.988-10.8,9.3-116.06,7.7-122.658,2.2,6,41.486,110.963,66.278,90.769,22.392-18.294,23.492-88.27,23.492-105.464.3,17.394,3.3,88.87,30.99,88.87,29.39,0,76.874-80.673,83.172-91.569-4.3,8.8-30.29,62.878-23.193,70.876,7.6,8.8,31.99-31.29,31.99-31.29s5,17.5-20.993,36.588c-25.891,19.193-39.087,25.192-39.087,25.192s9.4,4.2-14.895,18.693c-16.6,9.9-35.088,31.889-46.684,69.577a28.2,28.2,0,0,1,2.7-.9c18.793-4.6,27.691,20.093,22.792,35.388a3.2,3.2,0,0,1-6.2-.3c-2-11.1-6.7-23.092-17.894-10.2-6.6,7.5-10.2,17.194-11.2,27.191-.4,3.9-.7,7.8-.9,11.9-.7,10.8-1,21.293-1.1,31.589a2.948,2.948,0,0,0,2.2-1.1c7.9-10.3,25.291-30.19,53.282-48.583,21.509-14.106,34.007-28.112,41-38.01,2.056-2.91,6.683-.687,5.773,2.758-8.463,32.018-39.211,58.256-64.569,81.905a104.221,104.221,0,0,0-30.61,98.716c4.284,19.383,10.542,36.488,16.515,47.566,0,0-16.195-70.576,47.683-133.555,63.779-62.979,129.757-72.976,144.652-95.268,14.795-22.293-34.988-36.288-30.69-60.68,0,0,21.293,30.09,42.986,33.489,19.694,3.1,48.484-35.788,53.682-43.085-3.6,6.3-20.793,36.087-12,42.185,9.7,6.7,54.882-17.894,88.47-46.784-6.1,5.6-40.087,37.187-36.588,47.684,3.8,11.5,46.185-7.7,56.881-16.095,0,0,6.1,4.2-17.294,15.195-23.392,11.1-75.274,25.991-102.566,36.188-27.19,10.2-109.762,33.989-150.949,78.274-41.286,44.185-58.28,121.659-25.991,172.242,0,0-11.1-121.659,71.476-173.941,82.572-52.383,169.7-26.141,182.539-24.293,10.553,1.52,26.867-19.65,26.867-19.65s-7.374,14.952,2.822,21.85C1169.07,960.776,1200.36,963.476,1214.655,952.28Z"/><path class="cls-30" d="M661.941,1174.105c71.476,36.787,56.181,123.958,56.181,123.958l111.063,81.672,114.161-108.463s-54.182-57.381-48.284-145.951c6-88.47,45.585-145.251,105.465-167.944,59.98-22.692,120.459,1.7,157.447,8.9,34.988,6.8,54.681-12,56.681-13.994-14.3,11.2-45.585,8.5-55.882,1.7-10.2-6.9-2.821-21.85-2.821-21.85s-15.123,22.656,7.907,26.91c0,0-13.272,2.4-45.457-5.956S979.091,928.411,918.9,1013.914s-30.2,164.625-26.8,188.873-44.666,126.34-85.078,50.62c0,0-30.2,74.869-42.538,17.016,0,0-28.927,9.972-36.158-30.109s-26.366-113.206-86.779-108.567-109.691,10.7-142.77-13.188c-21.5-15.525-43.857-67.627-56.886-102.22,5.21,23.3,11.865,48.141,21.622,73.094C499.3,1180.7,590.465,1137.317,661.941,1174.105Z"/><path class="cls-31" d="M265.993,1145.193s4.329-26.421,41.976-36.63,148.035-22.758,257.147,47S734.208,1337,734.208,1337l51.047,21.056s135.273-70.827,141.016-199.72,51.047-172.282,123.15-166.539,91.246,71.465,91.246,71.465-10.306-85.442-93.8-91.246-133.36,35.733-155.054,141.655c-12.522,61.132-54.991,102.073-88.669,125.766a78.657,78.657,0,0,1-85.685,2.738c-26.43-15.853-61.693-39.266-93.641-67.887-61.256-54.875-190.787-89.331-278.205-77.846s-112.941,37.945-112.941,37.945S262.941,1114.505,265.993,1145.193Z"/><path class="cls-32" d="M265.993,1145.193s4.329-26.421,41.976-36.63,148.035-22.758,257.147,47S734.208,1337,734.208,1337l51.047,21.056s135.273-70.827,141.016-199.72,51.047-172.282,123.15-166.539,91.246,71.465,91.246,71.465-10.306-85.442-93.8-91.246-133.36,35.733-155.054,141.655c-12.522,61.132-54.991,102.073-88.669,125.766a78.657,78.657,0,0,1-85.685,2.738c-26.43-15.853-61.693-39.266-93.641-67.887-61.256-54.875-190.787-89.331-278.205-77.846s-112.941,37.945-112.941,37.945S262.941,1114.505,265.993,1145.193Z"/><path class="cls-33" d="M265.993,1145.192s4.329-26.42,41.976-36.629,148.035-22.758,257.147,47S734.208,1337,734.208,1337l51.047,21.056s135.273-70.827,141.016-199.72,51.047-172.282,123.15-166.539c55.026,4.382,79.155,43.624,87.523,62-30.919-75.818-103-97.172-165.513-52.431-65.085,46.58-28.715,162.711-125.065,246.938s-133.926,27.877-211.205-53.6-198.444-98.265-243.11-98.265c-44.622,0-114.711,13.056-152.145,32.368a51.155,51.155,0,0,0-7.233,5.577S262.94,1114.5,265.993,1145.192Z"/><path class="cls-34" d="M558.165,1314.238s-34.122-78.9,3.4-140.165c0,0-29.777,28.714-123.362,16.8s-113.154,19.567-113.154,19.567,16.286-61.777,99.541-62.106,134.423,17.015,151.438-5.956,128.679-113.153,102.2-164.2S627.078,933.09,547.956,1002,270.6,1123.664,154.9,1022.422,93.641,764.636,160,700.828c0,0-57.852,109.75,78.272,202.485s305.429,50.2,377.745,16.165,124.214-4.254,96.138,99.541-82.526,293.046,120.81,313.7-59.554,57.239-59.554,57.239l-136.975-10.21Z"/><path class="cls-35" d="M763.628,1261.49c9.359-49.345,42.114-15.314,20.419-60.83s-22.334-186.534-15.1-222.905-22.972-17.653-18.08-39.56c4.866-21.79-4.79-37.46-15.945-43.87.058.265-.034.5.1.773,3.9,7.9,8.2,20.794,9.5,40.587,2.5,39.487,20.493,27.891,17.594,59.58-12.2,102.765,3.2,205.23,3.2,205.23-14.989-40.756-35.676-68.967-64.1-82.893C760.65,1147.911,763.628,1261.49,763.628,1261.49Z"/><path class="cls-36" d="M773,908.894c-.7,11.3-2.1,24.392-4.1,39.387,17.825-53.51,8.761-61.984-8-73.076,6.5,8,12.5,19.194,12.1,33.189Z"/><path class="cls-37" d="M832.966,1332.72c-180.1-18.3-157.96-168.818-131.041-275.113-20.52,68.351-49.822,74.112-19.424,167.3,33.3,102.093-76.692,79.122-104.768,30.627s-6.806-94.436-6.806-94.436-62.107,39.136-110.981,18.717c-48.754-20.368-94.679-30.546-134.6,30.208,2.673-3.619,25.536-30.261,112.855-19.148,93.586,11.912,123.363-16.8,123.363-16.8-37.525,61.264-3.4,140.165-3.4,140.165l78.271,65.51,136.976,10.209S1036.3,1353.374,832.966,1332.72Z"/><path class="cls-38" d="M708.753,990.943c-2.552-57.853-32.33-100.392-123.363-36.584S257.841,1079.423,155.747,965.42,160,700.828,160,700.828c-66.36,63.808-120.81,220.351-5.1,321.593S468.834,1070.916,547.956,1002s103.795-74.868,130.275-23.822c18.085,34.863-28.259,87.969-64.887,125.462C661.475,1061.735,710.71,1035.3,708.753,990.943Z"/><path class="cls-39" d="M819.227,1400.167s-1.276,43.389-31.266,31.266c0,0-45.942,36.371-76.57-4.467,0,0,45.942,12.124,57.427-40.837,0,0-21.695,45.3-112.3,38.285S544.851,1455.042,542.3,1482.48s33.818,47.856,33.818,47.856-56.789-12.762-68.275-59.98S514.861,1389.319,534,1368.9c0,0-61.256-59.98-111.027-65.723s-84.865,21.057-78.484,70.827c0,0-40.2-104.007,54.875-146.121s169.73-21.694,248.853,54.876,100.587-.039,136.549,30.628c0,0,19.734,16.815,58.7-81.675s118.684-181.216,185.044-151.864,71.465,136.55,51.047,187.6c0,0,3.828-92.31-37.009-87.63s-29.352,67.211-51.047,108.048c0,0,197.806-37.009,169.73,144.207,0,0-14.037-58.7-74.017-52.323s-114.855,26.8-154.416,19.143c0,0,13.991,15.314,14.014,42.113,0,0-15.291-28.076-50.385-29.99S830.712,1424.414,819.227,1400.167Z"/><path class="cls-40" d="M1047.433,512.765s21.305-55.685,36.938-52.814,37.647,35.095,37.647,35.095-42.433-62.851-21.695-61.256,78.8,61.256,78.8,61.256-24.315-36.451-21.056-43.071,41.841,21.844,49.118,31.058c0,0,6.076-5.215-14.981-23.082s-60.937-44.665-93.16-57.427S999.293,315,1004.4,279.693s41.688-47.218,49.77-24.672-5.1,29.777,6.807,45.941,30.215-45.672-18.7-60.986-66.749,17.916-26.812,84.7c26.1,43.643,62.532,82.632,39.987,137.932C1040.652,498.9,1047.433,512.765,1047.433,512.765Z"/><path class="cls-41" d="M248.287,609.942s15.19-54.6,40.394-59.064,44.347,42.114,44.347,42.114-9.89-57.428,0-67.637,76.557,49.888,76.557,49.888,11.818-4.265-28.382-34.574-59.66-71.784-64.765-133.678-25.2-72.742-56.151-69.87-.957,75.293-19.781,98.583-35.094,47.218-20.418,58.385,35.094-27.757,30.947-78.165,46.634-101.025,57.427-23.29C316.878,453.252,228.949,597.222,248.287,609.942Z"/><path class="cls-42" d="M431.019,855.212c-12.4-5.9-9-48.384-7.6-61.679-2.1,12.695-9.3,51.382-23.792,50.882-16.3-.7-59.18-27.19-64.478-30.389,7,4.6,81.073,54.582,27.59,55.881-48.8,1.128-71.18-16.508-76.222-21.164,22.464,23.432,81.153,34.594,99.151,22.666,18.292-12.124-37.662-48.335-37.662-48.335s42.554,25.364,56.805,27.491,16.377-38.711,16.377-38.711-1.7,45.3,9.146,51.9,65.986-18.8,69.459-54.825C492.545,835.771,445.614,862.31,431.019,855.212Z"/><path class="cls-43" d="M442.725,929.7a109.317,109.317,0,0,1,.39-14.511c3.2-26.791,16.594-49.083,40.786-70.177,24.292-20.993,15.894-36.088,15.894-36.088-3.473,36.02-58.611,61.418-69.459,54.825s-9.146-51.9-9.146-51.9-2.127,40.837-16.377,38.711-56.805-27.491-56.805-27.491,55.954,36.211,37.662,48.335c-18,11.928-76.687.766-99.151-22.666-.709-.654-1.151-1.129-1.151-1.129,7.5,28.791,87.57,31.89,117.56,45.885,11.147,5.239,17.442,21.073,22.79,43.553C408,868.005,442.14,890.159,442.725,929.7Z"/><path class="cls-44" d="M479.043,687.215a532.929,532.929,0,0,0-36.5-66.812c-22.143-30.381-47.279-56.729-70.274-68.886-55.513-29.353-32.542,63.807-32.542,63.807s-17.866-54.874-45.942-56.151-51.6,70.7-51.618,70.765c-11.658,42.07-18.047,93.091-3.9,141.5a191.4,191.4,0,0,0,7.866,21.872C211.3,698.819,497.121,636.483,502.33,767.189c.221,5.54.631,10.3,1.123,14.707C503.7,758.731,497.612,727.9,479.043,687.215Z"/><path class="cls-45" d="M291.021,564.916c25.736-5.105,55.3,65.022,55.3,65.022s-19.568-69.914,2.977-80.123,136.975,90.608,105.071,185.9-219.5,35.307-218.649-46.368S278.9,567.319,291.021,564.916Z"/><path class="cls-46" d="M288.681,550.878c25.205-4.466,44.347,42.114,44.347,42.114s-9.89-57.428,0-67.637,76.557,49.888,76.557,49.888c-17.134-20.514-75.6-68.818-81.981-59.034s0,58.777,0,58.777-10.634-43.037-38.285-34.955-41.032,69.911-41.032,69.911S263.477,555.345,288.681,550.878Z"/><path class="cls-47" d="M381.2,540.669c-31.159-23.493-49.741-53.834-58.953-95.052.037.279.007.6.054.873,4.341,24.9,2.322,40.367-9.5,31.86s2.461-50.622-2.643-94.012-62.958-77.846-61.877,12.762c1.075,90.191-41.481,95.64-30.126,71.467-4.952,10.661-5.616,19.783,1.926,25.522,14.676,11.166,35.1-27.757,30.948-78.165s46.634-101.025,57.427-23.291c8.417,60.618-79.513,204.589-60.175,217.309,0,0,13.382-61.829,41.032-69.911S327.6,574.986,327.6,574.986s-6.38-48.993,0-58.777,64.847,38.52,81.981,59.034C409.585,575.243,421.4,570.978,381.2,540.669Z"/><path class="cls-48" d="M659.408,413.778s-7.019-77.9,12.761-91.636,67.637,62.2,67.637,62.2-7.657-37.008,0-45.3S809.53,354.2,809.53,354.2c-131.06-75.654-75.254,15.676-75.254,15.676s-49.77-75.72-64.659-65.085-14.463,80.4-14.463,80.4-1.277-82.951-71.04-74.018S453.788,413.778,453.788,413.778C520.306,321.168,630.694,265.191,659.408,413.778Z"/><path class="cls-49" d="M726.619,751.449c77,165.9,77.037-13.613,77.037-13.613,12.378,137.4,96.1-10.209,96.1-10.209-29.351,79.548,5.907,41.214,26.9,4.626,0,0-24.392,40.087-31.99,31.29-7.1-8,18.894-62.079,23.193-70.876-6.3,10.9-53.782,91.569-83.172,91.569-27.691,0-30.69-71.476-30.99-88.87,0,17.194-1.1,87.17-23.492,105.464-24.792,20.194-64.078-84.771-66.278-90.769,1.6,6.6,27.291,111.862-7.7,122.658-36.188,11-98.267-12-98.267-12C786.221,891.7,726.619,751.449,726.619,751.449Z"/><path class="cls-50" d="M547.105,346.054c-82.082,33.838-176.915,238.005,60.854,299.9s370.49-160.8,265.206-247.577S728.959,359.453,744.273,392c0,0-41.231-56.477-61.772-51.848s-20.541,84.177-20.541,84.177S624.282,314.237,547.105,346.054Z"/><path class="cls-51" d="M1020.882,868.963c23.928,1.914,43.709-32.064,43.709-32.064s-13.24,25.838-4.467,32.141,58.561-25.421,70.508-34.693c0,0-23.9,23.609-22.876,34.3s45.948-5.393,64.113-20.53c-10.7,8.4-53.082,27.591-56.881,16.095-3.5-10.5,30.49-42.086,36.588-47.684-33.588,28.89-78.773,53.482-88.47,46.784-8.8-6.1,8.4-35.888,12-42.185-5.2,7.3-33.988,46.184-53.682,43.085-21.693-3.4-42.986-33.489-42.986-33.489S996.954,867.048,1020.882,868.963Z"/><path class="cls-52" d="M806.392,906.3c11.2-12.9,15.895-.9,17.894,10.2-1.529-16.263-5.039-24.557-16.843-24.877S794.3,945.382,794.3,945.382c.2-4.1.5-8,.9-11.9C796.2,923.489,799.8,913.792,806.392,906.3Z"/><path class="cls-53" d="M830.884,973.941c25.358-23.649,56.106-49.887,64.569-81.905-6.016,15.653-23.871,40.109-51.32,50.306s-85,89.68-27.344,177.881c-5.973-11.078-12.231-28.184-16.516-47.566A104.224,104.224,0,0,1,830.884,973.941Z"/><path class="cls-54" d="M811.267,864.894c-.149.409-.235.735-.369,1.124,11.426-27.8,26.757-44.93,40.779-53.292,24.292-14.5,14.895-18.693,14.895-18.693s13.2-6,39.087-25.192c25.991-19.093,20.993-36.588,20.993-36.588-20.993,36.588-56.251,74.922-26.9-4.626,0,0-83.718,147.61-96.1,10.209,0,0-.041,179.514-77.037,13.613,0,0,59.6,140.25-118.66,69.274.2,22.993,111.463,30.69,136.954,24.292,13.046-3.239,22.715,1.5,26.729,21.6C765.648,837.7,828.172,818.393,811.267,864.894Z"/><path class="cls-55" d="M857.852,1023.7c-31.9,63.17-4.489,107.146,17.217,126.315-32.289-50.583-15.295-128.057,25.991-172.242,16.913-18.186,40.81-32.865,64.98-44.616C924.023,950.887,882.422,975.049,857.852,1023.7Z"/><path class="cls-56" d="M1019.421,911.008c13.634-4.921,25.2-8.739,32.588-11.511,27.292-10.2,79.174-25.092,102.566-36.188,23.392-11,17.294-15.195,17.294-15.195-18.165,15.137-63.092,31.218-64.113,20.53s22.876-34.3,22.876-34.3c-11.947,9.272-61.734,41-70.508,34.693s4.467-32.141,4.467-32.141-19.781,33.978-43.709,32.064-42.448-38.243-42.448-38.243c-4.3,24.392,45.485,38.387,30.69,60.68a26.679,26.679,0,0,1-3.3,3.96C1026.862,877.532,1049.784,893.3,1019.421,911.008Z"/><path class="cls-57" d="M1254.348,654.576c.382-7.93.6-16.035.6-24.363.019-56.149-15.048-103.564-41.392-138.817-29.222-30.413-62.689-45.4-34.434,3.65,0,0-116.025-111.346-57.108,0,0,0-26.587-31.585-42.752-26.906-5.6,1.621-19.314,23.511-34.848,51.421-8.333,18.775-17.277,38.322-25.982,56.2-15.239,31.3-41,83.537-52.276,136.919C1009.21,538.834,1245.188,537.526,1254.348,654.576Z"/><path class="cls-58" d="M1079.692,471.943c18.578-7.962,49.3,33.206,49.3,33.206s-29.257-46.367-18.433-56.151,76.334,56.151,76.334,56.151-21.55-31.908-14.463-38.285,40.411,16.165,55.725,57-2.079,168.454-117.6,138.251S1052.652,483.532,1079.692,471.943Z"/><path class="cls-59" d="M1084.371,459.951c15.633,2.872,37.647,35.095,37.647,35.095s-42.432-62.851-21.695-61.256,78.8,61.256,78.8,61.256-24.314-36.452-21.057-43.071,41.842,21.844,49.119,31.058c-8.6-16.486-54.622-51.954-59.008-43.5s18.5,40.2,18.5,40.2-70.508-69.87-76.251-54.556c-4.626,12.337,7.918,35.121,12.977,43.525,1.287,1.948,2.018,3.242,2.018,3.242s-.8-1.214-2.018-3.242c-5.533-8.376-21.411-28.9-34.353-11.3-15.952,21.695-21.624,55.366-21.624,55.366S1068.738,457.08,1084.371,459.951Z"/><path class="cls-60" d="M906.722,206.861c-28.228,32.991-43.553,5.893-11.224-18.627s60.831-71.465,23.822-105.922-29.351,68.913-153.565,109.326S665.8,301.28,633.459,306.067c-29.723,4.4-38.331-34.593,19.734-67.775-53.616,28.044-108.138,62.647-146.925,100.742-71.465,70.19-52.48,74.744-52.48,74.744s60.562-93.673,130.326-102.607,71.04,74.018,71.04,74.018-.425-69.764,14.463-80.4,64.659,65.085,64.659,65.085S678.47,278.546,809.53,354.2c0,0,11.632-2.4-29.843-24.418C731.855,304.4,701.521,227.37,799.148,179.514,896.434,131.824,901.1,50.662,927.4,100.605c35.733,67.849-91.883,98.051-67,136.336,10.192,15.68,29.5-2.524,46.32-30.079Z"/><path class="cls-61" d="M1192.207,459.951c-21.057-17.866-60.937-44.665-93.16-57.427S999.293,315,1004.4,279.693s41.688-47.218,49.77-24.673-5.1,29.777,6.807,45.942c5.121,6.951,11.394-.552,13.027-12.544a2.368,2.368,0,0,1-1.542,1.059c-7.444,1.064-14.038-7.019-14.25-24.46s-10-27.438-33.394-25.1-34.669,29.139-18.929,63.171,55.938,91.458,75.081,95.712,52.857,20.874,33.606,24.18-45.517-19.076-45.517-19.076c36.019,38.089-7.925,49.39-6.709,29.306a91.628,91.628,0,0,1-6.9,29.4c-14.793,36.284-8.012,50.155-8.012,50.155s5.672-33.671,21.624-55.366c12.942-17.6,28.82,2.926,34.353,11.3-5.059-8.4-17.6-31.188-12.977-43.525,5.743-15.314,76.251,54.556,76.251,54.556s-22.891-31.746-18.5-40.2,50.4,27.014,59.008,43.5C1207.188,483.033,1213.264,477.818,1192.207,459.951Z"/><path class="cls-62" d="M866.147,1396.764c-35.733,9.358-67.212-29.777-67.212-29.777,14.463,19.567,16.209,52.564,0,51.046s-7.6-30.785-7.6-30.785c-28.87,76.413-79.943,39.718-79.943,39.718,30.628,40.837,76.57,4.467,76.57,4.467,29.99,12.123,31.266-31.266,31.266-31.266,11.485,24.247,42.114,8.933,77.208,10.847S946.82,1441,946.82,1441C938.162,1412.928,901.879,1387.405,866.147,1396.764Z"/><path class="cls-63" d="M422.977,1303.178C472.748,1308.921,534,1368.9,534,1368.9c14.974-10,43.729-29.14,110.09-29.14,65.956,0,90-24.706,90.294-25.007-51.739,24.265-60.575,17.353-126.027,19.9-65.51,2.552-96.989-105.5-195.679-73.167s-68.189,112.515-68.189,112.515C338.112,1324.235,373.207,1297.435,422.977,1303.178Z"/><path class="cls-64" d="M974.2,1184.92c-23.821,68.913-61.256,146.334-111.452,130.169s-71.409,19.568-71.409,19.568,24.617-20.419,64.6-8.508,90.183-24.673,135.572-38.285c21.695-40.837,10.21-103.37,51.047-108.049s37.009,87.631,37.009,87.631C1112.618,1135.575,998.017,1116.007,974.2,1184.92Z"/><path class="cls-65" d="M1121.38,1351.673c-46.793-37.435-117.407,65.509-184.619,17.015s-132.721-20.419-132.721-20.419c56.151-15.314,109.75,19.568,128.766,50.622,39.561,7.656,94.436-12.762,154.416-19.143s74.018,52.323,74.018,52.323c7.121-45.967-.326-77.846-15.356-99.9C1156.629,1350.241,1161.905,1384.093,1121.38,1351.673Z"/><path class="cls-66" d="M769.769,1358.053c3.164,14.889-24.384,50.621-60.959,50.621s-98.747-49.345-141.287,4.254c-37.736,47.548-50.593,68.5-61.992,45.069.569,4.025,1.28,8.118,2.311,12.359,11.486,47.218,68.275,59.979,68.275,59.979s-36.37-20.418-33.818-47.856,23.609-65.084,114.217-58.065,112.3-38.285,112.3-38.285C775.136,1368.147,769.769,1358.053,769.769,1358.053Z"/><path class="cls-67" d="M678.61,1337.216c10.947-.219,45.085-9.347,69.172-22.49s26,16.528,54.237-5.008,120.871-182.8,190.468-192.86,87.909,66.528,90.166,80.355c4.288,18.318,4.083,41.623-3.088,70.233,20.418-51.047,15.314-158.245-51.047-187.6s-146.074,53.374-185.044,151.864-58.7,81.674-58.7,81.674c-17.454-14.884-31.508-4.512-50.382,1.367-.233.243-15.791,16.134-55.886,22.445C678.554,1337.2,678.554,1337.217,678.61,1337.216Z"/><path class="cls-68" d="M895.453,1325.413c38.33-2.454,146.166-49.673,202.318-17.769,55.82,31.717,55.065,53.021,55.054,53.272,2.456-6.649-1.55-19.677-6.941-28.741-44.225-64.881-154.375-44.311-154.375-44.311-31.4,9.416-65.093,29.8-96.12,37.549C895.414,1325.411,895.428,1325.414,895.453,1325.413Z"/><path class="cls-69" d="M513.278,1466.991c-41.138-47.238,88-126.169,154.425-128.08,0,0-.809-.044-2.169-.114-6.608.6-13.71.964-21.44.964-66.361,0-95.116,19.143-110.09,29.14-19.143,20.418-37.647,54.237-26.162,101.455-1.031-4.241-1.742-8.334-2.311-12.359C507.965,1463,510.483,1465.862,513.278,1466.991Z"/><path class="cls-70" d="M412.682,1261.49a122.418,122.418,0,0,1,21.524-4.987c81.416-20.277,189.37,61.133,271.646,60.8-15.319-2.415-33.861-11.541-57.631-34.544-79.123-76.571-153.778-96.989-248.853-54.876s-54.875,146.121-54.875,146.121S313.992,1293.819,412.682,1261.49Z"/><path class="cls-71" d="M424.593,1148.336c-83.255.33-99.541,62.107-99.541,62.107s.107-.16.3-.42c21.108-32.126,43.908-44.3,67.9-45.745,74.153-14.678,126.5,21.628,174.312-14.81C545.168,1161.122,497.044,1148.05,424.593,1148.336Z"/><path class="cls-72" d="M185.95,933.155c104.008,110.961,323.508,33.245,401.354,0,76.737-32.772,141.951-27.624,130.757,56.934,11.3-80.015-37.014-101.213-102.043-70.612C543.7,953.508,374.4,996.048,238.273,903.313S160,700.828,160,700.828,81.942,822.193,185.95,933.155Z"/><path class="cls-73" d="M268.819,603.26c-3.328-11.814,14.65-25.217,29.781-19.934S278.426,637.363,268.819,603.26Z"/><path class="cls-73" d="M530.51,367.666c7.2-.541,4.842,46.017-13.807,44.7S517.853,368.618,530.51,367.666Z"/><path class="cls-73" d="M251.014,672.672c3.825-1.3,9.062,24.243-1.223,26.137S244.293,674.958,251.014,672.672Z"/><path class="cls-73" d="M359.23,555.373c.408-4.019,25.815,1.845,23.26,11.985S358.513,562.436,359.23,555.373Z"/><path class="cls-73" d="M504.738,410.353c7.814,8.157-7.611,16.036-10.244,11.1S500.2,405.61,504.738,410.353Z"/><path class="cls-73" d="M675.741,374.159c6.2-1.239,5.284,8.406,2.162,8.166S672.139,374.88,675.741,374.159Z"/><path class="cls-73" d="M782.338,353.3c6.2-1.239,5.284,8.406,2.162,8.166S778.736,354.02,782.338,353.3Z"/><path class="cls-73" d="M686.181,373.761c-3.362-2.794-3.757-28.011,5.807-21.767S689.543,376.556,686.181,373.761Z"/><path class="cls-73" d="M762.933,364.925c-5.814-2.185,1.974-11.78,9.648-12.908S774.358,369.219,762.933,364.925Z"/><path class="cls-73" d="M1186,487.558c-3.112,5.375-11.3-3.885-11.145-11.64S1192.115,477,1186,487.558Z"/><path class="cls-73" d="M1137.108,479.436c5.355,6.016-.826,8.977-3.032,5.594S1133.994,475.938,1137.108,479.436Z"/><path class="cls-73" d="M258.2,705.062c5.815,2.239,2.613,6.466-.1,4.921S254.823,703.76,258.2,705.062Z"/><path class="cls-73" d="M1115.919,463.741c-3.117-7.007,8.2-2.711,14.6,4.906S1122.046,477.509,1115.919,463.741Z"/><path class="cls-73" d="M1079.135,483.784c3.939-.237-1.543,18.5-7.062,17.326S1075.2,484.021,1079.135,483.784Z"/><circle class="cls-74" cx="723.515" cy="556.684" r="439.001"/><circle class="cls-75" cx="1115.002" cy="685.766" r="356.259"/><circle class="cls-76" cx="376.522" cy="735.21" r="301.98"/><circle class="cls-77" cx="1192.077" cy="937.054" r="89.249" transform="translate(-313.446 1117.382) rotate(-45)"/><circle class="cls-78" cx="240.654" cy="1155.246" r="68.536" transform="translate(-746.397 508.532) rotate(-45)"/><g class="cls-79"><circle class="cls-73" cx="804.04" cy="691.469" r="3.776"/><circle class="cls-80" cx="804.04" cy="691.469" r="74.726" transform="translate(-253.445 771.069) rotate(-45)"/><circle class="cls-73" cx="706.216" cy="500.583" r="3.776"/><circle class="cls-81" cx="706.216" cy="500.583" r="74.726"/><circle class="cls-73" cx="575.563" cy="541.809" r="3.776"/><circle class="cls-82" cx="575.563" cy="541.809" r="74.726"/><path class="cls-73" d="M876.805,561.133a3.776,3.776,0,1,1-3.776-3.776A3.776,3.776,0,0,1,876.805,561.133Z"/><circle class="cls-83" cx="873.029" cy="561.133" r="74.726" transform="translate(-141.077 781.677) rotate(-45)"/><path class="cls-73" d="M757,361.967a1.757,1.757,0,1,1-1.757-1.756A1.757,1.757,0,0,1,757,361.967Z"/><circle class="cls-84" cx="755.247" cy="361.967" r="34.766" transform="translate(227.123 1011.97) rotate(-76.513)"/><path class="cls-73" d="M792.06,439.081a1.757,1.757,0,1,1-1.757-1.757A1.757,1.757,0,0,1,792.06,439.081Z"/><circle class="cls-85" cx="790.303" cy="439.081" r="34.766" transform="translate(-79.003 687.432) rotate(-45)"/><g class="cls-86"><path class="cls-73" d="M772.02,296.947a1.757,1.757,0,1,1-1.757-1.756A1.757,1.757,0,0,1,772.02,296.947Z"/><circle class="cls-87" cx="770.263" cy="296.947" r="34.766" transform="translate(315.755 986.081) rotate(-77.676)"/></g><g class="cls-86"><path class="cls-73" d="M958.686,341.88a1.757,1.757,0,1,1-1.757-1.757A1.757,1.757,0,0,1,958.686,341.88Z"/><circle class="cls-88" cx="956.929" cy="341.88" r="34.766" transform="translate(320.273 1133.881) rotate(-70.866)"/></g><path class="cls-73" d="M830.027,496.806a1.757,1.757,0,1,1-1.757-1.756A1.756,1.756,0,0,1,830.027,496.806Z"/><circle class="cls-89" cx="828.27" cy="496.806" r="34.766" transform="translate(-108.7 731.187) rotate(-45)"/><g class="cls-86"><path class="cls-73" d="M848.755,331.713A1.757,1.757,0,1,1,847,329.956,1.757,1.757,0,0,1,848.755,331.713Z"/><circle class="cls-90" cx="846.998" cy="331.713" r="34.766" transform="translate(332.154 1081.629) rotate(-76.916)"/></g><path class="cls-73" d="M1019.162,506a1.757,1.757,0,1,1-1.756-1.757A1.757,1.757,0,0,1,1019.162,506Z"/><circle class="cls-91" cx="1017.406" cy="505.996" r="34.766" transform="translate(-116.191 427.861) rotate(-22.5)"/><circle class="cls-73" cx="958.686" cy="513.092" r="1.757"/><circle class="cls-92" cx="958.686" cy="513.092" r="34.766" transform="translate(67.73 1136.422) rotate(-63.133)"/><path class="cls-73" d="M592.877,456.466a3.776,3.776,0,1,1-3.776-3.776A3.776,3.776,0,0,1,592.877,456.466Z"/><circle class="cls-93" cx="589.101" cy="456.466" r="74.726" transform="translate(14.175 930.662) rotate(-77.286)"/><g class="cls-86"><circle class="cls-73" cx="674.006" cy="1127.282" r="1.757"/><circle class="cls-94" cx="674.006" cy="1127.282" r="34.766" transform="translate(-579.381 1519.797) rotate(-76.513)"/></g><g class="cls-86"><circle class="cls-73" cx="959.42" cy="1013.435" r="1.757"/><circle class="cls-95" cx="959.42" cy="1013.435" r="34.766"/></g><path class="cls-73" d="M852.4,789.4a1.757,1.757,0,1,1-1.757-1.756A1.756,1.756,0,0,1,852.4,789.4Z"/><circle class="cls-96" cx="850.645" cy="789.399" r="34.766" transform="translate(-110.829 1439.256) rotate(-76.916)"/><path class="cls-73" d="M1017.872,906.067a1.757,1.757,0,1,1-1.757-1.757A1.756,1.756,0,0,1,1017.872,906.067Z"/><circle class="cls-97" cx="1016.115" cy="906.067" r="34.766" transform="translate(-99.169 1686.829) rotate(-76.717)"/><circle class="cls-73" cx="1130.208" cy="766.721" r="3.776"/><circle class="cls-98" cx="1130.208" cy="766.721" r="74.726"/><g class="cls-99"><circle class="cls-73" cx="306.094" cy="274.68" r="3.776"/><circle class="cls-100" cx="306.094" cy="274.68" r="74.726"/></g><g class="cls-99"><path class="cls-73" d="M623.322,93.17a3.776,3.776,0,1,1-3.776-3.776A3.776,3.776,0,0,1,623.322,93.17Z"/><circle class="cls-101" cx="619.546" cy="93.17" r="74.726" transform="translate(115.58 465.374) rotate(-45)"/></g><g class="cls-99"><path class="cls-73" d="M693.59,161.674a3.776,3.776,0,1,1-3.776-3.776A3.777,3.777,0,0,1,693.59,161.674Z"/><circle class="cls-102" cx="689.814" cy="161.674" r="74.726" transform="translate(87.721 535.125) rotate(-45)"/></g><g class="cls-99"><circle class="cls-73" cx="942.538" cy="286.773" r="3.776"/><circle class="cls-103" cx="942.538" cy="286.773" r="74.726"/></g><circle class="cls-73" cx="1050.881" cy="618.38" r="3.776"/><circle class="cls-104" cx="1050.881" cy="618.38" r="74.727" transform="translate(-129.465 924.204) rotate(-45)"/><circle class="cls-73" cx="1153.565" cy="532.047" r="3.776"/><circle class="cls-105" cx="1153.565" cy="532.047" r="74.726"/><path class="cls-73" d="M594.026,698.421a3.777,3.777,0,1,1-3.776-3.776A3.777,3.777,0,0,1,594.026,698.421Z"/><circle class="cls-106" cx="590.25" cy="698.421" r="74.726" transform="translate(-320.978 621.932) rotate(-45)"/><path class="cls-73" d="M246.991,1161.608a3.777,3.777,0,1,1-3.777-3.776A3.776,3.776,0,0,1,246.991,1161.608Z"/><circle class="cls-107" cx="243.214" cy="1161.608" r="74.726"/><path class="cls-73" d="M288.29,660.226a3.776,3.776,0,1,1-3.776-3.777A3.776,3.776,0,0,1,288.29,660.226Z"/><circle class="cls-108" cx="284.514" cy="660.226" r="74.726" transform="translate(-413.432 832.615) rotate(-80.561)"/><circle class="cls-73" cx="344.336" cy="568.559" r="3.776"/><circle class="cls-109" cx="344.336" cy="568.559" r="74.726"/><g class="cls-86"><circle class="cls-73" cx="1074.448" cy="370.548" r="1.757"/><circle class="cls-110" cx="1074.448" cy="370.548" r="34.766" transform="translate(536.578 1371.767) rotate(-80.783)"/></g><g class="cls-86"><path class="cls-73" d="M993.208,387.628a1.757,1.757,0,1,1-1.757-1.757A1.757,1.757,0,0,1,993.208,387.628Z"/><circle class="cls-111" cx="991.451" cy="387.628" r="34.766" transform="translate(386.404 1263.498) rotate(-76.717)"/></g><g class="cls-86"><path class="cls-73" d="M599.352,152.449a1.757,1.757,0,1,1-1.756-1.757A1.757,1.757,0,0,1,599.352,152.449Z"/><circle class="cls-112" cx="597.596" cy="152.449" r="34.766" transform="translate(326.171 706.245) rotate(-78.201)"/></g><g class="cls-86"><path class="cls-73" d="M633.874,198.2a1.757,1.757,0,1,1-1.756-1.757A1.756,1.756,0,0,1,633.874,198.2Z"/><circle class="cls-113" cx="632.118" cy="198.196" r="34.766" transform="translate(309.657 776.879) rotate(-78.28)"/></g><g class="cls-86"><circle class="cls-73" cx="729.313" cy="163.431" r="1.757"/><circle class="cls-114" cx="729.313" cy="163.431" r="34.766" transform="translate(-5.852 298.113) rotate(-23.012)"/></g><g class="cls-86"><path class="cls-73" d="M540.729,255.28a1.757,1.757,0,1,1-1.757-1.757A1.757,1.757,0,0,1,540.729,255.28Z"/><circle class="cls-115" cx="538.972" cy="255.28" r="34.766" transform="translate(184.713 735.03) rotate(-78.901)"/></g><g class="cls-86"><path class="cls-73" d="M653.8,34.766a1.757,1.757,0,1,1-1.756-1.757A1.757,1.757,0,0,1,653.8,34.766Z"/><circle class="cls-116" cx="652.047" cy="34.766" r="34.766"/></g><g class="cls-86"><path class="cls-73" d="M760.5,77.706a1.757,1.757,0,1,1-1.757-1.757A1.756,1.756,0,0,1,760.5,77.706Z"/><circle class="cls-117" cx="758.742" cy="77.706" r="34.766" transform="translate(511.29 799.159) rotate(-76.916)"/></g><g class="cls-86"><path class="cls-73" d="M1027.973,232.962a1.757,1.757,0,1,1-1.756-1.757A1.757,1.757,0,0,1,1027.973,232.962Z"/><circle class="cls-118" cx="1026.217" cy="232.962" r="34.766" transform="translate(135.843 793.878) rotate(-45)"/></g><g class="cls-86"><path class="cls-73" d="M229.348,290.046a1.757,1.757,0,1,1-1.756-1.757A1.757,1.757,0,0,1,229.348,290.046Z"/><circle class="cls-119" cx="227.592" cy="290.046" r="34.766" transform="translate(-107.535 443.717) rotate(-76.513)"/></g><g class="cls-86"><path class="cls-73" d="M300.3,324.811a1.757,1.757,0,1,1-1.757-1.756A1.757,1.757,0,0,1,300.3,324.811Z"/><circle class="cls-120" cx="298.542" cy="324.811" r="34.766" transform="translate(-85.421 542.072) rotate(-76.916)"/></g><g class="cls-86"><path class="cls-73" d="M449.465,1060.55a1.757,1.757,0,1,1-1.757-1.756A1.756,1.756,0,0,1,449.465,1060.55Z"/><circle class="cls-121" cx="447.708" cy="1060.55" r="34.766" transform="translate(-618.792 627.206) rotate(-45)"/></g><path class="cls-73" d="M339.534,1050.383a1.757,1.757,0,1,1-1.757-1.757A1.757,1.757,0,0,1,339.534,1050.383Z"/><circle class="cls-122" cx="337.777" cy="1050.383" r="34.766" transform="translate(-643.8 546.495) rotate(-45)"/><g class="cls-86"><path class="cls-73" d="M566.984,1089.218a1.757,1.757,0,1,1-1.757-1.757A1.757,1.757,0,0,1,566.984,1089.218Z"/><circle class="cls-123" cx="565.227" cy="1089.218" r="34.766" transform="translate(-604.642 718.701) rotate(-45)"/></g><g class="cls-86"><path class="cls-73" d="M483.987,1106.3a1.757,1.757,0,1,1-1.757-1.757A1.757,1.757,0,0,1,483.987,1106.3Z"/><circle class="cls-124" cx="482.23" cy="1106.298" r="34.766" transform="translate(-706.026 1317.22) rotate(-76.513)"/></g><path class="cls-73" d="M244.971,528.271a1.757,1.757,0,1,1-1.757-1.757A1.757,1.757,0,0,1,244.971,528.271Z"/><circle class="cls-125" cx="243.214" cy="528.271" r="34.766"/><g class="cls-86"><path class="cls-73" d="M156.579,604.859a1.757,1.757,0,1,1-1.757-1.757A1.757,1.757,0,0,1,156.579,604.859Z"/><circle class="cls-126" cx="154.822" cy="604.859" r="34.766" transform="translate(-382.353 286.635) rotate(-45)"/></g><g class="cls-86"><path class="cls-73" d="M463.594,346.916a1.757,1.757,0,1,1-1.757-1.757A1.757,1.757,0,0,1,463.594,346.916Z"/><circle class="cls-127" cx="461.837" cy="346.916" r="34.766" transform="translate(-110.038 428.178) rotate(-45)"/></g><g class="cls-86"><path class="cls-73" d="M380.6,364a1.757,1.757,0,1,1-1.757-1.757A1.757,1.757,0,0,1,380.6,364Z"/><circle class="cls-128" cx="378.84" cy="363.996" r="34.766" transform="translate(-146.424 374.492) rotate(-45)"/></g><path class="cls-73" d="M1189.077,673.977a1.757,1.757,0,1,1-1.757-1.757A1.757,1.757,0,0,1,1189.077,673.977Z"/><circle class="cls-129" cx="1187.32" cy="673.977" r="34.766" transform="translate(331.858 1738.006) rotate(-80.783)"/><path class="cls-73" d="M1017.893,728.056a1.757,1.757,0,1,1-1.756-1.757A1.757,1.757,0,0,1,1017.893,728.056Z"/><circle class="cls-130" cx="1016.137" cy="728.056" r="34.766" transform="translate(-217.194 931.76) rotate(-45)"/><path class="cls-73" d="M1061.222,646.84a1.757,1.757,0,1,1-1.756-1.757A1.756,1.756,0,0,1,1061.222,646.84Z"/><circle class="cls-131" cx="1059.465" cy="646.84" r="34.766" transform="translate(186.514 1529.35) rotate(-76.717)"/><circle class="cls-73" cx="1162.516" cy="582.997" r="1.757"/><circle class="cls-132" cx="1162.516" cy="582.997" r="34.766" transform="translate(-71.748 992.779) rotate(-45)"/><path class="cls-73" d="M1195.663,948.281a1.757,1.757,0,1,1-1.757-1.757A1.757,1.757,0,0,1,1195.663,948.281Z"/><circle class="cls-133" cx="1193.906" cy="948.281" r="34.766" transform="translate(-3.311 1892.378) rotate(-76.717)"/><path class="cls-73" d="M1227.942,922.083a1.757,1.757,0,1,1-1.757-1.757A1.757,1.757,0,0,1,1227.942,922.083Z"/><circle class="cls-134" cx="1226.185" cy="922.083" r="34.766" transform="translate(47.049 1903.615) rotate(-76.717)"/><path class="cls-73" d="M401.384,830.72a1.757,1.757,0,1,1-1.757-1.757A1.757,1.757,0,0,1,401.384,830.72Z"/><circle class="cls-135" cx="399.627" cy="830.72" r="34.766" transform="translate(-470.36 525.891) rotate(-45)"/><circle class="cls-73" cx="280.738" cy="767.508" r="1.757"/><circle class="cls-136" cx="280.738" cy="767.508" r="34.766" transform="translate(-530.398 867.209) rotate(-76.916)"/><path class="cls-73" d="M310.947,724.348a1.757,1.757,0,1,1-1.757-1.757A1.757,1.757,0,0,1,310.947,724.348Z"/><circle class="cls-137" cx="309.19" cy="724.348" r="34.766" transform="translate(-454.476 531.753) rotate(-52.73)"/><path class="cls-73" d="M387.046,626.855a1.757,1.757,0,1,1-1.757-1.757A1.757,1.757,0,0,1,387.046,626.855Z"/><circle class="cls-138" cx="385.289" cy="626.855" r="34.766"/><path class="cls-73" d="M455.545,547.651a1.757,1.757,0,1,1-1.757-1.756A1.757,1.757,0,0,1,455.545,547.651Z"/><circle class="cls-139" cx="453.788" cy="547.652" r="34.766" transform="translate(-186.708 856.86) rotate(-76.124)"/><circle class="cls-73" cx="485.489" cy="655.7" r="1.757"/><circle class="cls-140" cx="485.489" cy="655.7" r="34.766"/><path class="cls-73" d="M538.972,616.536a1.757,1.757,0,1,1-1.757-1.757A1.757,1.757,0,0,1,538.972,616.536Z"/><circle class="cls-141" cx="537.215" cy="616.536" r="34.766" transform="translate(-278.61 560.448) rotate(-45)"/><g class="cls-86"><circle class="cls-73" cx="447.332" cy="424.117" r="1.757"/><circle class="cls-142" cx="447.332" cy="424.117" r="34.766" transform="translate(-65.012 766.878) rotate(-77.257)"/></g><path class="cls-73" d="M567.98,363.724a1.757,1.757,0,1,1-1.757-1.757A1.756,1.756,0,0,1,567.98,363.724Z"/><circle class="cls-143" cx="566.223" cy="363.724" r="34.766" transform="translate(83.76 832.908) rotate(-76.916)"/><path class="cls-73" d="M652.047,541.809a1.757,1.757,0,1,1-1.757-1.757A1.757,1.757,0,0,1,652.047,541.809Z"/><circle class="cls-144" cx="650.29" cy="541.809" r="34.766"/><circle class="cls-73" cx="431.646" cy="709.908" r="3.776"/><circle class="cls-145" cx="431.646" cy="709.908" r="74.726" transform="translate(-354.375 979.089) rotate(-77.603)"/><circle class="cls-73" cx="392.748" cy="960.313" r="3.776"/><circle class="cls-146" cx="392.748" cy="960.313" r="74.726"/><circle class="cls-73" cx="302.318" cy="778.317" r="3.776"/><circle class="cls-147" cx="302.318" cy="778.317" r="74.726" transform="translate(-524.994 891.14) rotate(-76.538)"/><path class="cls-73" d="M443.536,821.7a1.757,1.757,0,1,1-1.757-1.756A1.757,1.757,0,0,1,443.536,821.7Z"/><circle class="cls-148" cx="441.779" cy="821.697" r="34.766" transform="translate(-451.634 553.054) rotate(-45)"/><circle class="cls-73" cx="476.835" cy="898.811" r="1.757"/><circle class="cls-149" cx="476.835" cy="898.811" r="34.766" transform="translate(-495.893 600.429) rotate(-45)"/><path class="cls-73" d="M705.694,965.726a1.757,1.757,0,1,1-1.757-1.757A1.757,1.757,0,0,1,705.694,965.726Z"/><circle class="cls-150" cx="703.937" cy="965.726" r="34.766" transform="translate(-396.075 1432.768) rotate(-76.916)"/><path class="cls-73" d="M646.975,972.822a1.757,1.757,0,1,1-1.757-1.757A1.757,1.757,0,0,1,646.975,972.822Z"/><circle class="cls-151" cx="645.218" cy="972.822" r="34.766" transform="translate(-498.909 741.171) rotate(-45)"/><g class="cls-86"><path class="cls-73" d="M796.053,1086.614a1.757,1.757,0,1,1-1.757-1.757A1.757,1.757,0,0,1,796.053,1086.614Z"/><circle class="cls-152" cx="794.297" cy="1086.614" r="34.766"/></g><path class="cls-73" d="M618.37,856.463a1.757,1.757,0,1,1-1.757-1.757A1.757,1.757,0,0,1,618.37,856.463Z"/><circle class="cls-153" cx="616.613" cy="856.463" r="34.766" transform="translate(-425.009 686.864) rotate(-45)"/></g><ellipse class="cls-154" cx="721.65" cy="641.429" rx="721.65" ry="494.895"/></g></g></g></g></svg>