<svg xmlns="http://www.w3.org/2000/svg" xmlns:xlink="http://www.w3.org/1999/xlink" viewBox="0 0 1341.173 1440.848"><defs><style>.cls-1{isolation:isolate;}.cls-2{fill:url(#Áåçûìÿííûé_ãðàäèåíò_1062);}.cls-3{fill:url(#Áåçûìÿííûé_ãðàäèåíò_1062-2);}.cls-4{fill:url(#Áåçûìÿííûé_ãðàäèåíò_1062-3);}.cls-5{fill:url(#Áåçûìÿííûé_ãðàäèåíò_1062-4);}.cls-6{fill:url(#Áåçûìÿííûé_ãðàäèåíò_1062-5);}.cls-10,.cls-11,.cls-28,.cls-29,.cls-33,.cls-34,.cls-35,.cls-36,.cls-37,.cls-38,.cls-39,.cls-40,.cls-7,.cls-8,.cls-9{opacity:0.56;}.cls-10,.cls-11,.cls-13,.cls-14,.cls-18,.cls-23,.cls-24,.cls-28,.cls-29,.cls-30,.cls-31,.cls-33,.cls-34,.cls-35,.cls-36,.cls-37,.cls-38,.cls-39,.cls-40,.cls-47,.cls-50,.cls-7,.cls-8,.cls-9{mix-blend-mode:multiply;}.cls-7{fill:url(#Áåçûìÿííûé_ãðàäèåíò_340);}.cls-8{fill:url(#Áåçûìÿííûé_ãðàäèåíò_340-2);}.cls-9{fill:url(#Áåçûìÿííûé_ãðàäèåíò_340-3);}.cls-10{fill:url(#Áåçûìÿííûé_ãðàäèåíò_340-4);}.cls-11{fill:url(#Áåçûìÿííûé_ãðàäèåíò_340-5);}.cls-12{fill:url(#Áåçûìÿííûé_ãðàäèåíò_200);}.cls-13,.cls-14{opacity:0.82;}.cls-13{fill:url(#Áåçûìÿííûé_ãðàäèåíò_376);}.cls-14{fill:url(#Áåçûìÿííûé_ãðàäèåíò_379);}.cls-15{fill:url(#Áåçûìÿííûé_ãðàäèåíò_196);}.cls-100,.cls-101,.cls-102,.cls-103,.cls-104,.cls-105,.cls-106,.cls-107,.cls-108,.cls-109,.cls-110,.cls-111,.cls-112,.cls-113,.cls-114,.cls-115,.cls-116,.cls-117,.cls-118,.cls-119,.cls-120,.cls-121,.cls-122,.cls-123,.cls-124,.cls-125,.cls-16,.cls-17,.cls-20,.cls-21,.cls-26,.cls-27,.cls-41,.cls-42,.cls-43,.cls-44,.cls-45,.cls-46,.cls-51,.cls-52,.cls-53,.cls-54,.cls-55,.cls-56,.cls-57,.cls-58,.cls-59,.cls-60,.cls-61,.cls-62,.cls-63,.cls-64,.cls-65,.cls-66,.cls-67,.cls-68,.cls-69,.cls-70,.cls-71,.cls-72,.cls-73,.cls-74,.cls-75,.cls-76,.cls-77,.cls-78,.cls-79,.cls-80,.cls-81,.cls-82,.cls-83,.cls-84,.cls-85,.cls-86,.cls-87,.cls-88,.cls-89,.cls-90,.cls-91,.cls-92,.cls-93,.cls-94,.cls-95,.cls-97,.cls-98,.cls-99{mix-blend-mode:screen;}.cls-16{fill:url(#Áåçûìÿííûé_ãðàäèåíò_366);}.cls-17{fill:url(#Áåçûìÿííûé_ãðàäèåíò_366-2);}.cls-18,.cls-23,.cls-24{opacity:0.33;}.cls-18{fill:url(#Áåçûìÿííûé_ãðàäèåíò_347);}.cls-19{fill:url(#Áåçûìÿííûé_ãðàäèåíò_196-2);}.cls-20{fill:url(#Áåçûìÿííûé_ãðàäèåíò_366-3);}.cls-21{fill:url(#Áåçûìÿííûé_ãðàäèåíò_366-4);}.cls-22{fill:#a50024;}.cls-23{fill:url(#Áåçûìÿííûé_ãðàäèåíò_347-2);}.cls-24{fill:url(#Áåçûìÿííûé_ãðàäèåíò_347-3);}.cls-25{fill:url(#Áåçûìÿííûé_ãðàäèåíò_1062-6);}.cls-26{fill:url(#Áåçûìÿííûé_ãðàäèåíò_1055);}.cls-27{fill:url(#Áåçûìÿííûé_ãðàäèåíò_1055-2);}.cls-28{fill:url(#Áåçûìÿííûé_ãðàäèåíò_339);}.cls-29{fill:url(#Áåçûìÿííûé_ãðàäèåíò_339-2);}.cls-30{opacity:0.85;fill:url(#Áåçûìÿííûé_ãðàäèåíò_298);}.cls-31{opacity:0.83;fill:url(#Áåçûìÿííûé_ãðàäèåíò_298-2);}.cls-32{fill:url(#Áåçûìÿííûé_ãðàäèåíò_199);}.cls-33{fill:url(#Áåçûìÿííûé_ãðàäèåíò_340-6);}.cls-34{fill:url(#Áåçûìÿííûé_ãðàäèåíò_340-7);}.cls-35{fill:url(#Áåçûìÿííûé_ãðàäèåíò_298-3);}.cls-36{fill:url(#Áåçûìÿííûé_ãðàäèåíò_298-4);}.cls-37{fill:url(#Áåçûìÿííûé_ãðàäèåíò_298-5);}.cls-38{fill:url(#Áåçûìÿííûé_ãðàäèåíò_298-6);}.cls-39{fill:url(#Áåçûìÿííûé_ãðàäèåíò_298-7);}.cls-40{fill:url(#Áåçûìÿííûé_ãðàäèåíò_298-8);}.cls-41{fill:url(#Áåçûìÿííûé_ãðàäèåíò_1055-3);}.cls-42{fill:url(#Áåçûìÿííûé_ãðàäèåíò_1055-4);}.cls-43{fill:url(#Áåçûìÿííûé_ãðàäèåíò_1055-5);}.cls-44{fill:url(#Áåçûìÿííûé_ãðàäèåíò_1055-6);}.cls-45{fill:url(#Áåçûìÿííûé_ãðàäèåíò_1055-7);}.cls-46{fill:url(#Áåçûìÿííûé_ãðàäèåíò_1055-8);}.cls-47{fill:#ff3678;opacity:0.22;}.cls-48{fill:#fff;}.cls-49{fill:url(#Áåçûìÿííûé_ãðàäèåíò_674);}.cls-50{opacity:0.61;fill:url(#Áåçûìÿííûé_ãðàäèåíò_373);}.cls-51{fill:url(#Áåçûìÿííûé_ãðàäèåíò_380);}.cls-124,.cls-125,.cls-52,.cls-57,.cls-58,.cls-59,.cls-60{opacity:0.54;}.cls-52{fill:url(#radial-gradient);}.cls-53{fill:url(#Áåçûìÿííûé_ãðàäèåíò_380-2);}.cls-54{fill:url(#Áåçûìÿííûé_ãðàäèåíò_497);}.cls-55{fill:url(#Áåçûìÿííûé_ãðàäèåíò_497-2);}.cls-56{fill:url(#Áåçûìÿííûé_ãðàäèåíò_380-3);}.cls-57{fill:url(#radial-gradient-2);}.cls-58{fill:url(#radial-gradient-3);}.cls-59{fill:url(#radial-gradient-4);}.cls-60{fill:url(#radial-gradient-5);}.cls-100,.cls-101,.cls-102,.cls-103,.cls-104,.cls-105,.cls-106,.cls-107,.cls-108,.cls-109,.cls-110,.cls-111,.cls-112,.cls-113,.cls-114,.cls-115,.cls-116,.cls-117,.cls-118,.cls-119,.cls-120,.cls-121,.cls-122,.cls-123,.cls-61,.cls-62,.cls-63,.cls-64,.cls-65,.cls-66,.cls-67,.cls-68,.cls-69,.cls-70,.cls-71,.cls-72,.cls-73,.cls-74,.cls-75,.cls-76,.cls-77,.cls-78,.cls-79,.cls-80,.cls-81,.cls-82,.cls-83,.cls-84,.cls-85,.cls-86,.cls-87,.cls-88,.cls-89,.cls-90,.cls-91,.cls-92,.cls-93,.cls-94,.cls-95,.cls-97,.cls-98,.cls-99{opacity:0.68;}.cls-61{fill:url(#radial-gradient-6);}.cls-62{fill:url(#radial-gradient-7);}.cls-63{fill:url(#radial-gradient-8);}.cls-64{fill:url(#radial-gradient-9);}.cls-65{fill:url(#radial-gradient-10);}.cls-66{fill:url(#radial-gradient-11);}.cls-67{fill:url(#radial-gradient-12);}.cls-68{fill:url(#radial-gradient-13);}.cls-69{fill:url(#radial-gradient-14);}.cls-70{fill:url(#radial-gradient-15);}.cls-71{fill:url(#radial-gradient-16);}.cls-72{fill:url(#radial-gradient-17);}.cls-73{fill:url(#radial-gradient-18);}.cls-74{fill:url(#radial-gradient-19);}.cls-75{fill:url(#radial-gradient-20);}.cls-76{fill:url(#radial-gradient-21);}.cls-77{fill:url(#radial-gradient-22);}.cls-78{fill:url(#radial-gradient-23);}.cls-79{fill:url(#radial-gradient-24);}.cls-80{fill:url(#radial-gradient-25);}.cls-81{fill:url(#radial-gradient-26);}.cls-82{fill:url(#radial-gradient-27);}.cls-83{fill:url(#radial-gradient-28);}.cls-84{fill:url(#radial-gradient-29);}.cls-85{fill:url(#radial-gradient-30);}.cls-86{fill:url(#radial-gradient-31);}.cls-87{fill:url(#radial-gradient-32);}.cls-88{fill:url(#radial-gradient-33);}.cls-89{fill:url(#radial-gradient-34);}.cls-90{fill:url(#radial-gradient-35);}.cls-91{fill:url(#radial-gradient-36);}.cls-92{fill:url(#radial-gradient-37);}.cls-93{fill:url(#radial-gradient-38);}.cls-94{fill:url(#radial-gradient-39);}.cls-95{fill:url(#radial-gradient-40);}.cls-96{opacity:0.51;}.cls-97{fill:url(#radial-gradient-41);}.cls-98{fill:url(#radial-gradient-42);}.cls-99{fill:url(#radial-gradient-43);}.cls-100{fill:url(#radial-gradient-44);}.cls-101{fill:url(#radial-gradient-45);}.cls-102{fill:url(#radial-gradient-46);}.cls-103{fill:url(#radial-gradient-47);}.cls-104{fill:url(#radial-gradient-48);}.cls-105{fill:url(#radial-gradient-49);}.cls-106{fill:url(#radial-gradient-50);}.cls-107{fill:url(#radial-gradient-51);}.cls-108{fill:url(#radial-gradient-52);}.cls-109{fill:url(#radial-gradient-53);}.cls-110{fill:url(#radial-gradient-54);}.cls-111{fill:url(#radial-gradient-55);}.cls-112{fill:url(#radial-gradient-56);}.cls-113{fill:url(#radial-gradient-57);}.cls-114{fill:url(#radial-gradient-58);}.cls-115{fill:url(#radial-gradient-59);}.cls-116{fill:url(#radial-gradient-60);}.cls-117{fill:url(#radial-gradient-61);}.cls-118{fill:url(#radial-gradient-62);}.cls-119{fill:url(#radial-gradient-63);}.cls-120{fill:url(#Áåçûìÿííûé_ãðàäèåíò_384);}.cls-121{fill:url(#Áåçûìÿííûé_ãðàäèåíò_384-2);}.cls-122{fill:url(#Áåçûìÿííûé_ãðàäèåíò_383);}.cls-123{fill:url(#Áåçûìÿííûé_ãðàäèåíò_383-2);}.cls-124{fill:url(#radial-gradient-64);}.cls-125{fill:url(#radial-gradient-65);}</style><linearGradient id="Áåçûìÿííûé_ãðàäèåíò_1062" x1="604.958" y1="720.321" x2="665.442" y2="858.642" gradientUnits="userSpaceOnUse"><stop offset="0" stop-color="#ea002d"/><stop offset="0.673" stop-color="#ee3a79"/><stop offset="1" stop-color="#ef5299"/></linearGradient><linearGradient id="Áåçûìÿííûé_ãðàäèåíò_1062-2" x1="226.225" y1="872.598" x2="278.611" y2="924.985" xlink:href="#Áåçûìÿííûé_ãðàäèåíò_1062"/><linearGradient id="Áåçûìÿííûé_ãðàäèåíò_1062-3" x1="249.414" y1="1016.373" x2="324.201" y2="1091.161" xlink:href="#Áåçûìÿííûé_ãðàäèåíò_1062"/><linearGradient id="Áåçûìÿííûé_ãðàäèåíò_1062-4" x1="607.256" y1="945.151" x2="605.28" y2="1056.189" xlink:href="#Áåçûìÿííûé_ãðàäèåíò_1062"/><linearGradient id="Áåçûìÿííûé_ãðàäèåíò_1062-5" x1="1162.774" y1="834.041" x2="1090.447" y2="906.368" xlink:href="#Áåçûìÿííûé_ãðàäèåíò_1062"/><linearGradient id="Áåçûìÿííûé_ãðàäèåíò_340" x1="250.213" y1="953.146" x2="250.213" y2="886.548" gradientUnits="userSpaceOnUse"><stop offset="0" stop-color="#fff"/><stop offset="0.044" stop-color="#efd6e8"/><stop offset="0.112" stop-color="#d99ec8"/><stop offset="0.181" stop-color="#c76eac"/><stop offset="0.248" stop-color="#b74695"/><stop offset="0.314" stop-color="#ab2884"/><stop offset="0.378" stop-color="#a31277"/><stop offset="0.44" stop-color="#9e0470"/><stop offset="0.496" stop-color="#9c006d"/></linearGradient><linearGradient id="Áåçûìÿííûé_ãðàäèåíò_340-2" x1="287.19" y1="1085.477" x2="287.19" y2="1027.528" xlink:href="#Áåçûìÿííûé_ãðàäèåíò_340"/><linearGradient id="Áåçûìÿííûé_ãðàäèåíò_340-3" x1="606.498" y1="1043.593" x2="606.498" y2="954.068" xlink:href="#Áåçûìÿííûé_ãðàäèåíò_340"/><linearGradient id="Áåçûìÿííûé_ãðàäèåíò_340-4" x1="1110.966" y1="933.608" x2="1110.966" y2="856.569" xlink:href="#Áåçûìÿííûé_ãðàäèåíò_340"/><linearGradient id="Áåçûìÿííûé_ãðàäèåíò_340-5" x1="652.567" y1="886.245" x2="652.567" y2="757.568" xlink:href="#Áåçûìÿííûé_ãðàäèåíò_340"/><linearGradient id="Áåçûìÿííûé_ãðàäèåíò_200" x1="685.495" y1="805.265" x2="672.397" y2="1223.377" gradientUnits="userSpaceOnUse"><stop offset="0" stop-color="#ff3"/><stop offset="0.172" stop-color="#ffdf36"/><stop offset="0.55" stop-color="#ff8d3c"/><stop offset="1" stop-color="#ff2445"/></linearGradient><linearGradient id="Áåçûìÿííûé_ãðàäèåíò_376" x1="685.495" y1="805.265" x2="672.397" y2="1223.377" gradientUnits="userSpaceOnUse"><stop offset="0.66" stop-color="#fff"/><stop offset="0.678" stop-color="#efd6e8"/><stop offset="0.707" stop-color="#d99ec8"/><stop offset="0.736" stop-color="#c76eac"/><stop offset="0.764" stop-color="#b74695"/><stop offset="0.792" stop-color="#ab2884"/><stop offset="0.819" stop-color="#a31277"/><stop offset="0.845" stop-color="#9e0470"/><stop offset="0.869" stop-color="#9c006d"/></linearGradient><linearGradient id="Áåçûìÿííûé_ãðàäèåíò_379" x1="684.209" y1="805.225" x2="671.11" y2="1223.337" gradientUnits="userSpaceOnUse"><stop offset="0.131" stop-color="#9c006d"/><stop offset="0.23" stop-color="#9e0470"/><stop offset="0.338" stop-color="#a31277"/><stop offset="0.45" stop-color="#ab2884"/><stop offset="0.565" stop-color="#b74695"/><stop offset="0.683" stop-color="#c76eac"/><stop offset="0.803" stop-color="#d99ec8"/><stop offset="0.922" stop-color="#efd6e8"/><stop offset="1" stop-color="#fff"/></linearGradient><linearGradient id="Áåçûìÿííûé_ãðàäèåíò_196" x1="810.586" y1="1351.612" x2="810.586" y2="512.305" gradientUnits="userSpaceOnUse"><stop offset="0" stop-color="#ff2445"/><stop offset="0.45" stop-color="#ff8d3c"/><stop offset="0.828" stop-color="#ffdf36"/><stop offset="1" stop-color="#ff3"/></linearGradient><linearGradient id="Áåçûìÿííûé_ãðàäèåíò_366" x1="623.729" y1="243.537" x2="1012.437" y2="632.244" gradientUnits="userSpaceOnUse"><stop offset="0" stop-color="#ffffbd"/><stop offset="1"/></linearGradient><linearGradient id="Áåçûìÿííûé_ãðàäèåíò_366-2" x1="650.21" y1="279.712" x2="895.269" y2="524.77" xlink:href="#Áåçûìÿííûé_ãðàäèåíò_366"/><linearGradient id="Áåçûìÿííûé_ãðàäèåíò_347" x1="795.641" y1="1351.612" x2="795.641" y2="440.351" gradientUnits="userSpaceOnUse"><stop offset="0.061" stop-color="#9c006d"/><stop offset="0.168" stop-color="#9e0470"/><stop offset="0.284" stop-color="#a31277"/><stop offset="0.406" stop-color="#ab2884"/><stop offset="0.53" stop-color="#b74695"/><stop offset="0.658" stop-color="#c76eac"/><stop offset="0.787" stop-color="#d99ec8"/><stop offset="0.916" stop-color="#efd6e8"/><stop offset="1" stop-color="#fff"/></linearGradient><linearGradient id="Áåçûìÿííûé_ãðàäèåíò_196-2" x1="349.969" y1="1346.809" x2="349.969" y2="508.369" xlink:href="#Áåçûìÿííûé_ãðàäèåíò_196"/><linearGradient id="Áåçûìÿííûé_ãðàäèåíò_366-3" x1="229.08" y1="503.69" x2="332.818" y2="607.428" xlink:href="#Áåçûìÿííûé_ãðàäèåíò_366"/><linearGradient id="Áåçûìÿííûé_ãðàäèåíò_366-4" x1="188.275" y1="479.402" x2="399.453" y2="690.58" xlink:href="#Áåçûìÿííûé_ãðàäèåíò_366"/><linearGradient id="Áåçûìÿííûé_ãðàäèåíò_347-2" x1="375.189" y1="1283.263" x2="375.189" y2="604.686" xlink:href="#Áåçûìÿííûé_ãðàäèåíò_347"/><linearGradient id="Áåçûìÿííûé_ãðàäèåíò_347-3" x1="416.686" y1="1095.675" x2="416.686" y2="598.261" xlink:href="#Áåçûìÿííûé_ãðàäèåíò_347"/><linearGradient id="Áåçûìÿííûé_ãðàäèåíò_1062-6" x1="220.96" y1="421.077" x2="314.708" y2="635.467" xlink:href="#Áåçûìÿííûé_ãðàäèåíò_1062"/><linearGradient id="Áåçûìÿííûé_ãðàäèåíò_1055" x1="363.335" y1="663.888" x2="363.335" y2="582.578" gradientUnits="userSpaceOnUse"><stop offset="0" stop-color="#e52ea8"/><stop offset="1"/></linearGradient><linearGradient id="Áåçûìÿííûé_ãðàäèåíò_1055-2" x1="173.713" y1="702.865" x2="173.713" y2="650.63" xlink:href="#Áåçûìÿííûé_ãðàäèåíò_1055"/><linearGradient id="Áåçûìÿííûé_ãðàäèåíò_339" x1="364.956" y1="584.073" x2="400.966" y2="646.444" gradientUnits="userSpaceOnUse"><stop offset="0.504" stop-color="#9c006d"/><stop offset="0.56" stop-color="#9e0470"/><stop offset="0.622" stop-color="#a31277"/><stop offset="0.686" stop-color="#ab2884"/><stop offset="0.752" stop-color="#b74695"/><stop offset="0.819" stop-color="#c76eac"/><stop offset="0.888" stop-color="#d99ec8"/><stop offset="0.956" stop-color="#efd6e8"/><stop offset="1" stop-color="#fff"/></linearGradient><linearGradient id="Áåçûìÿííûé_ãðàäèåíò_339-2" x1="165.708" y1="639.793" x2="222.022" y2="737.332" xlink:href="#Áåçûìÿííûé_ãðàäèåíò_339"/><linearGradient id="Áåçûìÿííûé_ãðàäèåíò_298" x1="399.485" y1="788.503" x2="399.485" y2="647.544" gradientUnits="userSpaceOnUse"><stop offset="0" stop-color="#fff"/><stop offset="1" stop-color="#ea0029"/></linearGradient><linearGradient id="Áåçûìÿííûé_ãðàäèåíò_298-2" x1="809.203" y1="745.035" x2="809.203" y2="544.478" xlink:href="#Áåçûìÿííûé_ãðàäèåíò_298"/><linearGradient id="Áåçûìÿííûé_ãðàäèåíò_199" x1="816.426" y1="550.046" x2="816.426" y2="145.021" gradientUnits="userSpaceOnUse"><stop offset="0" stop-color="#ef5299"/><stop offset="0.457" stop-color="#ed2b66"/><stop offset="1" stop-color="#ea002d"/></linearGradient><linearGradient id="Áåçûìÿííûé_ãðàäèåíò_340-6" x1="758.752" y1="631.843" x2="593.274" y2="345.227" xlink:href="#Áåçûìÿííûé_ãðàäèåíò_340"/><linearGradient id="Áåçûìÿííûé_ãðàäèåíò_340-7" x1="1049.38" y1="730.346" x2="1101.534" y2="427.843" xlink:href="#Áåçûìÿííûé_ãðàäèåíò_340"/><linearGradient id="Áåçûìÿííûé_ãðàäèåíò_298-3" x1="418.754" y1="835.407" x2="418.754" y2="739.801" xlink:href="#Áåçûìÿííûé_ãðàäèåíò_298"/><linearGradient id="Áåçûìÿííûé_ãðàäèåíò_298-4" x1="488.137" y1="889.257" x2="488.137" y2="732.028" xlink:href="#Áåçûìÿííûé_ãðàäèåíò_298"/><linearGradient id="Áåçûìÿííûé_ãðàäèåíò_298-5" x1="453.709" y1="992.956" x2="453.709" y2="946.551" xlink:href="#Áåçûìÿííûé_ãðàäèåíò_298"/><linearGradient id="Áåçûìÿííûé_ãðàäèåíò_298-6" x1="791.939" y1="954.025" x2="791.939" y2="793.046" xlink:href="#Áåçûìÿííûé_ãðàäèåíò_298"/><linearGradient id="Áåçûìÿííûé_ãðàäèåíò_298-7" x1="876.02" y1="892.162" x2="876.02" y2="708.096" xlink:href="#Áåçûìÿííûé_ãðàäèåíò_298"/><linearGradient id="Áåçûìÿííûé_ãðàäèåíò_298-8" x1="813.87" y1="993.992" x2="813.87" y2="923.974" xlink:href="#Áåçûìÿííûé_ãðàäèåíò_298"/><linearGradient id="Áåçûìÿííûé_ãðàäèåíò_1055-3" x1="1079.981" y1="665.789" x2="1079.981" y2="473.291" xlink:href="#Áåçûìÿííûé_ãðàäèåíò_1055"/><linearGradient id="Áåçûìÿííûé_ãðàäèåíò_1055-4" x1="660.38" y1="590.903" x2="660.38" y2="435.928" xlink:href="#Áåçûìÿííûé_ãðàäèåíò_1055"/><linearGradient id="Áåçûìÿííûé_ãðàäèåíò_1055-5" x1="156.364" y1="435.158" x2="311.752" y2="590.546" xlink:href="#Áåçûìÿííûé_ãðàäèåíò_1055"/><linearGradient id="Áåçûìÿííûé_ãðàäèåíò_1055-6" x1="607.072" y1="141.627" x2="1026.86" y2="561.415" xlink:href="#Áåçûìÿííûé_ãðàäèåíò_1055"/><linearGradient id="Áåçûìÿííûé_ãðàäèåíò_1055-7" x1="177.563" y1="420.855" x2="332.599" y2="575.89" xlink:href="#Áåçûìÿííûé_ãðàäèåíò_1055"/><linearGradient id="Áåçûìÿííûé_ãðàäèåíò_1055-8" x1="622.507" y1="141.166" x2="877.778" y2="396.437" xlink:href="#Áåçûìÿííûé_ãðàäèåíò_1055"/><linearGradient id="Áåçûìÿííûé_ãðàäèåíò_674" x1="584.019" y1="1613.943" x2="584.019" y2="1209.785" gradientTransform="matrix(0.998, -0.064, 0.064, 0.998, -47.599, -117.147)" gradientUnits="userSpaceOnUse"><stop offset="0.226" stop-color="#2f0253"/><stop offset="1" stop-color="#6241a3"/></linearGradient><linearGradient id="Áåçûìÿííûé_ãðàäèåíò_373" x1="584.019" y1="1613.943" x2="584.019" y2="1391.804" gradientTransform="matrix(0.998, -0.064, 0.064, 0.998, -47.599, -117.147)" gradientUnits="userSpaceOnUse"><stop offset="0" stop-color="#fff"/><stop offset="1" stop-color="#2f0253"/></linearGradient><linearGradient id="Áåçûìÿííûé_ãðàäèåíò_380" x1="269.499" y1="1031.261" x2="303.734" y2="1065.495" gradientUnits="userSpaceOnUse"><stop offset="0" stop-color="#ff7"/><stop offset="1"/></linearGradient><radialGradient id="radial-gradient" cx="1282.248" cy="1249.858" r="97.748" gradientTransform="translate(-608.033 179.316) scale(0.692)" gradientUnits="userSpaceOnUse"><stop offset="0.128" stop-color="#ff00a1"/><stop offset="0.514" stop-color="#880056" stop-opacity="0.534"/><stop offset="0.85" stop-color="#260018" stop-opacity="0.151"/><stop offset="1" stop-opacity="0"/></radialGradient><linearGradient id="Áåçûìÿííûé_ãðàäèåíò_380-2" x1="246.99" y1="910.987" x2="283.877" y2="947.874" xlink:href="#Áåçûìÿííûé_ãðàäèåíò_380"/><linearGradient id="Áåçûìÿííûé_ãðàäèåíò_497" x1="612.249" y1="1046.671" x2="612.249" y2="977.724" gradientUnits="userSpaceOnUse"><stop offset="0"/><stop offset="1" stop-color="#ff7"/></linearGradient><linearGradient id="Áåçûìÿííûé_ãðàäèåíò_497-2" x1="657.945" y1="865.186" x2="657.945" y2="795.923" xlink:href="#Áåçûìÿííûé_ãðàäèåíò_497"/><linearGradient id="Áåçûìÿííûé_ãðàäèåíò_380-3" x1="1078.106" y1="888.735" x2="1109.774" y2="920.403" xlink:href="#Áåçûìÿííûé_ãðàäèåíò_380"/><radialGradient id="radial-gradient-2" cx="1256.709" cy="1059.098" r="126.414" xlink:href="#radial-gradient"/><radialGradient id="radial-gradient-3" cx="2493.994" cy="986.571" r="126.414" xlink:href="#radial-gradient"/><radialGradient id="radial-gradient-4" cx="1782.792" cy="1126.918" r="171.368" gradientTransform="translate(304.068 -464.164) rotate(45) scale(0.692)" xlink:href="#radial-gradient"/><radialGradient id="radial-gradient-5" cx="1811.599" cy="866.303" r="171.368" gradientTransform="translate(182.471 -531.034) rotate(45) scale(0.692)" xlink:href="#radial-gradient"/><radialGradient id="radial-gradient-6" cx="1033.706" cy="450.053" r="67.169" gradientTransform="translate(621.001 -599.123) rotate(45)" gradientUnits="userSpaceOnUse"><stop offset="0" stop-color="#f0f"/><stop offset="0.11" stop-color="#c600c6" stop-opacity="0.777"/><stop offset="0.225" stop-color="#920092" stop-opacity="0.573"/><stop offset="0.343" stop-color="#650065" stop-opacity="0.397"/><stop offset="0.459" stop-color="#410041" stop-opacity="0.254"/><stop offset="0.576" stop-color="#240024" stop-opacity="0.143"/><stop offset="0.692" stop-color="#100010" stop-opacity="0.063"/><stop offset="0.808" stop-color="#040004" stop-opacity="0.016"/><stop offset="0.923" stop-opacity="0"/></radialGradient><radialGradient id="radial-gradient-7" cx="307.484" cy="572.812" r="67.169" gradientTransform="translate(823.645 177.544) rotate(80.783)" xlink:href="#radial-gradient-6"/><radialGradient id="radial-gradient-8" cx="237.772" cy="617.141" r="67.169" gradientTransform="translate(506.026 12.626) rotate(45)" xlink:href="#radial-gradient-6"/><radialGradient id="radial-gradient-9" cx="240.315" cy="452.134" r="67.169" gradientTransform="translate(390.093 -37.501) rotate(45)" xlink:href="#radial-gradient-6"/><radialGradient id="radial-gradient-10" cx="406.129" cy="430.609" r="67.169" gradientTransform="translate(423.439 -161.054) rotate(45)" xlink:href="#radial-gradient-6"/><radialGradient id="radial-gradient-11" cx="448.239" cy="368.174" r="67.169" gradientTransform="translate(391.625 -209.117) rotate(45)" xlink:href="#radial-gradient-6"/><radialGradient id="radial-gradient-12" cx="621.373" cy="735.125" r="67.169" gradientTransform="translate(1247.473 4.022) rotate(80.783)" xlink:href="#radial-gradient-6"/><radialGradient id="radial-gradient-13" cx="845.183" cy="174.312" r="67.169" gradientTransform="translate(370.806 -546.58) rotate(45)" xlink:href="#radial-gradient-6"/><radialGradient id="radial-gradient-14" cx="570.235" cy="248.013" r="67.169" gradientTransform="translate(342.39 -330.576) rotate(45)" xlink:href="#radial-gradient-6"/><radialGradient id="radial-gradient-15" cx="1168.841" cy="395.361" r="67.169" gradientTransform="translate(1285.081 -833.048) rotate(76.717)" xlink:href="#radial-gradient-6"/><radialGradient id="radial-gradient-16" cx="818.569" cy="421.238" r="67.169" gradientTransform="translate(1040.47 -472.215) rotate(76.717)" xlink:href="#radial-gradient-6"/><radialGradient id="radial-gradient-17" cx="582.988" cy="946.552" r="67.169" gradientTransform="matrix(1, 0, 0, 1, 0, 0)" xlink:href="#radial-gradient-6"/><radialGradient id="radial-gradient-18" cx="607.164" cy="919.847" r="67.169" gradientTransform="translate(1362.907 117.587) rotate(76.717)" xlink:href="#radial-gradient-6"/><radialGradient id="radial-gradient-19" cx="1123.502" cy="868.589" r="67.169" gradientTransform="translate(943.251 -540.032) rotate(45)" xlink:href="#radial-gradient-6"/><radialGradient id="radial-gradient-20" cx="1126.896" cy="826.504" r="67.169" gradientTransform="translate(914.487 -554.758) rotate(45)" xlink:href="#radial-gradient-6"/><radialGradient id="radial-gradient-21" cx="236.921" cy="868.589" r="67.169" gradientTransform="translate(1056.344 495.595) rotate(80.783)" xlink:href="#radial-gradient-6"/><radialGradient id="radial-gradient-22" cx="897.542" cy="230.591" r="31.249" gradientTransform="translate(425.937 -567.12) rotate(45)" xlink:href="#radial-gradient-6"/><radialGradient id="radial-gradient-23" cx="867.477" cy="278.654" r="31.249" gradientTransform="matrix(1, 0, 0, 1, 0, 0)" xlink:href="#radial-gradient-6"/><radialGradient id="radial-gradient-24" cx="727.564" cy="293.734" r="31.249" gradientTransform="matrix(1, 0, 0, 1, 0, 0)" xlink:href="#radial-gradient-6"/><radialGradient id="radial-gradient-25" cx="351.9" cy="593.996" r="31.249" gradientTransform="translate(881.858 151.492) rotate(80.783)" xlink:href="#radial-gradient-6"/><radialGradient id="radial-gradient-26" cx="637.404" cy="978.866" r="31.249" gradientTransform="translate(423.115 -169.412) rotate(22.5)" xlink:href="#radial-gradient-6"/><radialGradient id="radial-gradient-27" cx="603.77" cy="776.786" r="31.249" gradientTransform="matrix(1, 0, 0, 1, 0, 0)" xlink:href="#radial-gradient-6"/><radialGradient id="radial-gradient-28" cx="639.463" cy="743.954" r="31.249" gradientTransform="translate(1216.597 -49.329) rotate(76.717)" xlink:href="#radial-gradient-6"/><radialGradient id="radial-gradient-29" cx="686.942" cy="795.294" r="31.249" gradientTransform="translate(1303.135 -55.992) rotate(76.717)" xlink:href="#radial-gradient-6"/><radialGradient id="radial-gradient-30" cx="1079.981" cy="865.195" r="31.249" gradientTransform="translate(1673.902 -384.677) rotate(76.717)" xlink:href="#radial-gradient-6"/><radialGradient id="radial-gradient-31" cx="1157.188" cy="856.569" r="31.249" gradientTransform="matrix(1, 0, 0, 1, 0, 0)" xlink:href="#radial-gradient-6"/><radialGradient id="radial-gradient-32" cx="237.772" cy="897.645" r="31.249" gradientTransform="matrix(0.16, 0.987, -0.987, 0.16, 1085.74, 519.156)" xlink:href="#radial-gradient-6"/><radialGradient id="radial-gradient-33" cx="265.892" cy="1035.715" r="31.249" gradientTransform="matrix(1, 0, 0, 1, 0, 0)" xlink:href="#radial-gradient-6"/><radialGradient id="radial-gradient-34" cx="124.78" cy="629.702" r="31.249" gradientTransform="matrix(1, 0, 0, 1, 0, 0)" xlink:href="#radial-gradient-6"/><radialGradient id="radial-gradient-35" cx="627.981" cy="326.746" r="31.249" gradientTransform="translate(849.916 -345.465) rotate(80.783)" xlink:href="#radial-gradient-6"/><radialGradient id="radial-gradient-36" cx="722.309" cy="156.316" r="31.249" gradientTransform="translate(708.491 -582.585) rotate(76.717)" xlink:href="#radial-gradient-6"/><radialGradient id="radial-gradient-37" cx="144.705" cy="487.38" r="31.249" gradientTransform="matrix(1, 0, 0, 1, 0, 0)" xlink:href="#radial-gradient-6"/><radialGradient id="radial-gradient-38" cx="778.07" cy="114.699" r="31.249" gradientTransform="translate(103.121 -289.024) rotate(22.5)" xlink:href="#radial-gradient-6"/><radialGradient id="radial-gradient-39" cx="575.915" cy="500.696" r="31.249" gradientTransform="matrix(1, 0, 0, 1, 0, 0)" xlink:href="#radial-gradient-6"/><radialGradient id="radial-gradient-40" cx="972.444" cy="441.505" r="31.249" gradientTransform="matrix(1, 0, 0, 1, 0, 0)" xlink:href="#radial-gradient-6"/><radialGradient id="radial-gradient-41" cx="1257.264" cy="735.125" r="31.249" gradientTransform="matrix(1, 0, 0, 1, 0, 0)" xlink:href="#radial-gradient-6"/><radialGradient id="radial-gradient-42" cx="1206.941" cy="672.134" r="31.249" gradientTransform="translate(828.776 -656.572) rotate(45)" xlink:href="#radial-gradient-6"/><radialGradient id="radial-gradient-43" cx="1059.727" cy="759.336" r="31.249" gradientTransform="matrix(0.16, 0.987, -0.987, 0.16, 1639.509, -408.34)" xlink:href="#radial-gradient-6"/><radialGradient id="radial-gradient-44" cx="909.245" cy="980.445" r="31.249" gradientTransform="translate(959.591 -355.768) rotate(45)" xlink:href="#radial-gradient-6"/><radialGradient id="radial-gradient-45" cx="956.356" cy="953.146" r="31.249" gradientTransform="matrix(1, 0, 0, 1, 0, 0)" xlink:href="#radial-gradient-6"/><radialGradient id="radial-gradient-46" cx="1045.801" cy="1046.671" r="31.249" gradientTransform="matrix(1, 0, 0, 1, 0, 0)" xlink:href="#radial-gradient-6"/><radialGradient id="radial-gradient-47" cx="1112.952" cy="996.964" r="31.249" gradientTransform="matrix(1, 0, 0, 1, 0, 0)" xlink:href="#radial-gradient-6"/><radialGradient id="radial-gradient-48" cx="295.395" cy="1141.844" r="31.249" gradientTransform="matrix(1, 0, 0, 1, 0, 0)" xlink:href="#radial-gradient-6"/><radialGradient id="radial-gradient-49" cx="201.001" cy="1046.671" r="31.249" gradientTransform="matrix(1, 0, 0, 1, 0, 0)" xlink:href="#radial-gradient-6"/><radialGradient id="radial-gradient-50" cx="214.854" cy="977.287" r="31.249" gradientTransform="matrix(1, 0, 0, 1, 0, 0)" xlink:href="#radial-gradient-6"/><radialGradient id="radial-gradient-51" cx="321.396" cy="911.478" r="31.249" gradientTransform="matrix(1, 0, 0, 1, 0, 0)" xlink:href="#radial-gradient-6"/><radialGradient id="radial-gradient-52" cx="338.96" cy="852.678" r="31.249" gradientTransform="translate(1090.951 326.88) rotate(76.717)" xlink:href="#radial-gradient-6"/><radialGradient id="radial-gradient-53" cx="131.207" cy="753.956" r="31.249" gradientTransform="matrix(1, 0, 0, 1, 0, 0)" xlink:href="#radial-gradient-6"/><radialGradient id="radial-gradient-54" cx="52.423" cy="569.417" r="31.249" gradientTransform="matrix(1, 0, 0, 1, 0, 0)" xlink:href="#radial-gradient-6"/><radialGradient id="radial-gradient-55" cx="384.358" cy="214.072" r="31.249" gradientTransform="matrix(0.16, 0.987, -0.987, 0.16, 534.099, -199.614)" xlink:href="#radial-gradient-6"/><radialGradient id="radial-gradient-56" cx="279.838" cy="298.389" r="31.249" gradientTransform="translate(505.951 -42.519) rotate(76.717)" xlink:href="#radial-gradient-6"/><radialGradient id="radial-gradient-57" cx="337.381" cy="332.255" r="31.249" gradientTransform="translate(152.83 -103.819) rotate(22.5)" xlink:href="#radial-gradient-6"/><radialGradient id="radial-gradient-58" cx="251.965" cy="228" r="31.249" gradientTransform="translate(415.976 -69.609) rotate(76.717)" xlink:href="#radial-gradient-6"/><radialGradient id="radial-gradient-59" cx="444.845" cy="99.186" r="31.249" gradientTransform="matrix(1, 0, 0, 1, 0, 0)" xlink:href="#radial-gradient-6"/><radialGradient id="radial-gradient-60" cx="470.963" cy="163.978" r="31.249" gradientTransform="matrix(1, 0, 0, 1, 0, 0)" xlink:href="#radial-gradient-6"/><radialGradient id="radial-gradient-61" cx="1086.936" cy="524.542" r="31.249" gradientTransform="matrix(1, 0, 0, 1, 0, 0)" xlink:href="#radial-gradient-6"/><radialGradient id="radial-gradient-62" cx="982.294" cy="232.659" r="31.249" gradientTransform="translate(1054.604 -774.219) rotate(80.783)" xlink:href="#radial-gradient-6"/><radialGradient id="radial-gradient-63" cx="1077.051" cy="308.879" r="31.249" gradientTransform="matrix(1, 0, 0, 1, 0, 0)" xlink:href="#radial-gradient-6"/><linearGradient id="Áåçûìÿííûé_ãðàäèåíò_384" x1="661.452" y1="1424.289" x2="870.953" y2="1424.289" gradientTransform="matrix(0.998, -0.064, 0.064, 0.998, -47.599, -117.147)" gradientUnits="userSpaceOnUse"><stop offset="0.077"/><stop offset="0.192" stop-color="#040004"/><stop offset="0.308" stop-color="#100010"/><stop offset="0.424" stop-color="#240024"/><stop offset="0.541" stop-color="#410041"/><stop offset="0.657" stop-color="#650065"/><stop offset="0.775" stop-color="#920092"/><stop offset="0.89" stop-color="#c600c6"/><stop offset="1" stop-color="#f0f"/></linearGradient><linearGradient id="Áåçûìÿííûé_ãðàäèåíò_384-2" x1="687.221" y1="1515.516" x2="942.875" y2="1515.516" xlink:href="#Áåçûìÿííûé_ãðàäèåíò_384"/><linearGradient id="Áåçûìÿííûé_ãðàäèåíò_383" x1="245.069" y1="1368.607" x2="468.961" y2="1368.607" gradientTransform="matrix(0.998, -0.064, 0.064, 0.998, -47.599, -117.147)" gradientUnits="userSpaceOnUse"><stop offset="0" stop-color="#f0f"/><stop offset="0.11" stop-color="#c600c6"/><stop offset="0.225" stop-color="#920092"/><stop offset="0.343" stop-color="#650065"/><stop offset="0.459" stop-color="#410041"/><stop offset="0.576" stop-color="#240024"/><stop offset="0.692" stop-color="#100010"/><stop offset="0.808" stop-color="#040004"/><stop offset="0.923"/></linearGradient><linearGradient id="Áåçûìÿííûé_ãðàäèåíò_383-2" x1="231.455" y1="1406.383" x2="459.718" y2="1406.383" xlink:href="#Áåçûìÿííûé_ãðàäèåíò_383"/><radialGradient id="radial-gradient-64" cx="-44.134" cy="-277.636" r="379.256" gradientTransform="matrix(0, 1.41, -1.069, 0, 501.827, 495.168)" xlink:href="#radial-gradient"/><radialGradient id="radial-gradient-65" cx="1271.383" cy="543.833" r="379.238" xlink:href="#radial-gradient"/></defs><title>plant-5</title><g class="cls-1"><g id="Layer_2" data-name="Layer 2"><g id="plants"><g id="plant-5"><path class="cls-2" d="M655.849,876.337c-54.66-8.8-84.061-30.933-68.886-84.678s7.587-83.778,22.13-94.844,40.467-11.381,67.023,52.8,65.758,69.868,34.46,117.289-29.95-7.271-29.95-7.271Z"/><path class="cls-3" d="M249.7,840.029c17.823-1.063,17.717,34.776,25.937,56.274s14.226,49,0,55.325-45.841-7.9-57.539-27.821S228.505,841.294,249.7,840.029Z"/><path class="cls-4" d="M315.472,1068.918c13.91-16.124-16.44-47.738-55.958-60.384s-6.323,46.79,13.911,68.92S315.472,1068.918,315.472,1068.918Z"/><path class="cls-5" d="M586.724,1036.355c-55.641-26.872-54.693-62.913-20.549-108.438s49-59.751,80.617-6.006,32.879,102.43-3.162,116.025S586.724,1036.355,586.724,1036.355Z"/><path class="cls-6" d="M1070.11,920.33c-2.53-43.944-19.918-43.312,24.659-83.146s65.442-50.583,72.4,2.845-15.261,79.466-38.253,83.146-30.034,10.433-30.034,10.433Z"/><path class="cls-7" d="M275.638,951.628c8.658-3.848,9.8-15.552,7.533-28.962.583,5.441-3.165,2.294-9.746-14.982-7.588-19.917-18.5-32.247-25.109-6.8-6.386,24.563-19.154,34.229-32.073,18.475a20.026,20.026,0,0,0,1.856,4.451C229.8,943.724,261.411,957.951,275.638,951.628Z"/><path class="cls-8" d="M315.472,1068.918c7.673-8.894,1.837-22.495-11.534-35.032,16.39,19.6-22.008-10.955-35.6-5.751-13.617,5.215,5.072,49.291-12.852,24.722a165.623,165.623,0,0,0,17.937,24.6C293.658,1099.584,315.472,1068.918,315.472,1068.918Z"/><path class="cls-9" d="M586.724,1036.355s20.866,15.175,56.906,1.58c18.308-6.9,26.946-22.891,26.913-43.971-1.464,12.369-11.38,29.091-15.848,3.347-5.148-29.666-21.814-47.9-48.214-42.205-26.32,5.673-73.355,70.229-61.247,10.862C536.549,994.026,547.613,1017.466,586.724,1036.355Z"/><path class="cls-10" d="M1070.109,920.33l28.77,13.278s7.041-6.753,30.034-10.433c10.5-1.68,20.8-8.085,28.275-19.571-5.414,6.878-17.2,5.791-24.482-31.487-6.812-34.863-66.441,1.378-62.175-9.475C1058.768,880.012,1068.278,888.5,1070.109,920.33Z"/><path class="cls-11" d="M655.849,876.337l24.777-16.707s-1.349,54.693,29.95,7.271c11.077-16.784,13.214-28.322,10.315-39.094-5.331,6.221-19.243.82-33.949-32.513-21.34-48.37-50.267-47.9-61.648-11.855-11.341,35.914-34.451,70.4-42.221,33.386C582.841,852.627,610.677,869.062,655.849,876.337Z"/><path class="cls-12" d="M295.4,1080.3s-32.877-26.556-22.444-38.886,36,2.492,61.648,34.618c43.154,54.061,99.668,62.7,128.987,79.194,37.937,21.34,67.043,55.729,75.4,109.545s4.742-57.381-34.618-103.854-111.441-87.256-158.862-120.451S248.765,939.457,249.714,914.8s16.123-16.6,30.824,19.917,70.658,92.473,125.193,126.142,131.439,92.965,137.8,196.335,51.886,54.526,58.051-16.132-7.113-167.4-25.133-210.079,33.195-71.606,63.07-44.1-5.69,54.535-19.917,144.637-2.845,122.348-22.762,173.089,64.019-32.247,87.256-182.1,7.113-195.421-40.783-248.986-7.587-87.234,24.185-79.172,27.979,51.216,33.195,105.276,24.66,134.959-15.175,263.094c0,0,3.32,167.5,6.165,91.147s146.533-174.512,230.47-211.027,128.038-75.875,152.224-138.946,53.112-29.875,35.092,15.175-89.627,111.433-180.677,137.282S726.858,1161.914,702.4,1277.6s-136.853,87.552-136.853,87.552l-31.3-38.258s9.588-51.767-13.278-102.431-49.318-54.061-113.338-76.349S308.37,1092.666,295.4,1080.3Z"/><path class="cls-13" d="M295.4,1080.3s-32.877-26.556-22.444-38.886,36,2.492,61.648,34.618c43.154,54.061,99.668,62.7,128.987,79.194,37.937,21.34,67.043,55.729,75.4,109.545s4.742-57.381-34.618-103.854-111.441-87.256-158.862-120.451S248.765,939.457,249.714,914.8s16.123-16.6,30.824,19.917,70.658,92.473,125.193,126.142,131.439,92.965,137.8,196.335,51.886,54.526,58.051-16.132-7.113-167.4-25.133-210.079,33.195-71.606,63.07-44.1-5.69,54.535-19.917,144.637-2.845,122.348-22.762,173.089,64.019-32.247,87.256-182.1,7.113-195.421-40.783-248.986-7.587-87.234,24.185-79.172,27.979,51.216,33.195,105.276,24.66,134.959-15.175,263.094c0,0,3.32,167.5,6.165,91.147s146.533-174.512,230.47-211.027,128.038-75.875,152.224-138.946,53.112-29.875,35.092,15.175-89.627,111.433-180.677,137.282S726.858,1161.914,702.4,1277.6s-136.853,87.552-136.853,87.552l-31.3-38.258s9.588-51.767-13.278-102.431-49.318-54.061-113.338-76.349S308.37,1092.666,295.4,1080.3Z"/><path class="cls-14" d="M407.628,1148.112c64.02,22.288,90.472,25.685,113.338,76.349s13.278,102.431,13.278,102.431l31.3,38.258S677.932,1393.282,702.4,1277.6s135.348-195.4,226.4-221.251c73.445-20.852,134.193-68.069,164.415-109.2-20.567,25.716-87.636,80.155-142.6,96.443-43.872,13-109.276,43.4-156.192,75.625a509.272,509.272,0,0,0-43.74,37.136,122.628,122.628,0,0,1-13.9,14.04c-26.317,28.133-44.107,57.1-45.09,83.468-2.845,76.349-6.164-91.146-6.164-91.146,3.5-11.256,6.393-22.02,9.027-32.562a551.978,551.978,0,0,1,2.512-63.765c6.518-70.5-4.606-127.766-23.058-150.863,22.9,42.2,27.31,95.967,10.1,206.978-23.237,149.853-107.174,232.841-87.256,182.1s8.536-82.987,22.762-173.089a391.013,391.013,0,0,1,12.257-53.164c-7.964,20.905-18.924,48.345-20.477,83.831-2.212,50.582-2.529,45.524-4.886,18.652s-3.65-66.074-20.182-119.406c12.558,48.743,20.24,122.65,15.268,179.632-6.165,70.658-51.689,119.5-58.051,16.132a203.927,203.927,0,0,0-21.366-79.531c-12.144-21.769-49.261-67.1-94.035-92.183C379.3,1058.129,310.285,1012.76,266.073,954.95c18.258,29.15,49.2,64.352,79.433,85.515,47.421,33.2,119.5,73.978,158.862,120.451s42.975,157.669,34.619,103.853a162.163,162.163,0,0,0-12.706-43.034c-15.7-32.092-47.772-54.53-67.911-61.768-20.234-7.271-117.918-40.148-166.951-83.111,2.352,2.118,3.976,3.443,3.976,3.443C308.369,1092.666,343.609,1125.824,407.628,1148.112Z"/><path class="cls-15" d="M1057.861,248.522C916.463,106.257,843.434,140.4,843.434,140.4S684.1,76,527.605,241.928s-106.431,352.085,0,378.38S667.025,684.8,667.025,684.8c34.776,58.171,23.395,107.489,43,115.076,0,0-3.794,26.557,5.69,30.351s29.085,56.273,30.35,96.108-72.081,209.287-73.978,348.391,30.982,58.8,30.35-2.529,3.478-193.8,104.96-260.187,118.555-57.855,105.276-154.595c0,0,34.144-13.278,31.3-51.216s22.762-46.473,47.422-54.06,49.371-38.172,53.744-55.326,8.22-32.247,8.22-32.247l29.085,15.492s94.843-22.763,106.225-87.256S1199.259,390.787,1057.861,248.522Zm-174.17,643.64c-8.421,14.311-17.536,20.887-25.715,19-6.849-1.581-13.029-21.186-16.091-46.742-5.379-70.252,36.328-107.336,52.132-87.635S893.587,868.108,883.691,892.162ZM809.2,865.005c17.582,15,3.977,57.866,3.654,58.874-14.249,30.608-37.933,42.185-46.563,36.6-1.092-.707-2.138-3-3.1-6.455C751.77,885.224,791.416,849.832,809.2,865.005ZM785.055,976.152c22.227-23.631,39.3-38.171,51.376-45.69C852.9,924.02,756.511,1018.238,785.055,976.152Z"/><path class="cls-16" d="M734.054,560.748c75.165-38.812,101.412-5.483,149.664,35.091s183.541,18.31,215.14-61.577S1075.077,323.377,940.742,252.9s-274.414-37.289-385.591,59.615S599.194,630.383,734.054,560.748Z"/><path class="cls-17" d="M638.256,292.23c84.366-102.064,379.028,7.508,358.192,120.371S371.114,615.409,638.256,292.23Z"/><path class="cls-18" d="M975.611,525.465c-2.5,37.3,29.689,89.153,52.451,104.484s-37.3,53.588-56.292,50.02-46.139-4.651,3.841,16.846,36.644,54.377,3.765,48.22-48.054,5.525-39.2,42.569-5.475,52.319-18.969,53.59-17.008-9.183-9.028,37.089-73.169,100.534-143.353,162.5-70.185,206.758-82.146,169.434,48.634-203.578,60.015-248.381-6.323-98.094-24.63-127.669,1.868-34.919,8.833-46.561-29.727,24.92-34.153-42.569S801.7,605.766,733.89,621.022s-167.4-41.812-128.2-84.176,162.5-45.525,267.769-77.916l-14.546-18.579L610.647,466.03,530.629,582.285,489.351,563.4l-7.7,32.853a111.48,111.48,0,0,0,45.956,24.053c106.432,26.3,139.42,64.494,139.42,64.494,34.776,58.171,23.395,107.489,43,115.076,0,0-3.794,26.557,5.69,30.351s29.085,56.273,30.35,96.108-72.081,209.287-73.978,348.391,30.982,58.8,30.35-2.529,3.478-193.8,104.96-260.187,118.555-57.855,105.276-154.595c0,0,34.144-13.278,31.3-51.216s22.762-46.473,47.422-54.06,49.371-38.172,53.744-55.326,8.22-32.247,8.22-32.247l29.085,15.492a208.466,208.466,0,0,0,27.194-9.18l-4.615-10.737S978.111,488.16,975.611,525.465Z"/><path class="cls-19" d="M547.522,1098.319c-42.679-60.7-45.525-88.2-48.37-138.471s66.391-114.761,60.7-163.131S531.4,688.6,531.4,688.6s16.162,4.205-18.475-41.052c0,0,18.186-42.255-20.414-80.744S327.041,367.085,238.332,406.337,107.449,525.777,125.469,611.928,227.584,734.12,227.584,734.12c11.381,37.938,83.462,53.113,107.489,58.171s26.251,30.35,40.946,53.113S406.838,870.7,406.838,870.7s2.213,17.546-8.22,30.35,16.6,30.824,16.6,30.824,8.061,51.689,15.174,70.184,44.577,100.534,66.865,122.822,45.525-4.268,47.9,191.584l31.3,30.35S590.2,1159.019,547.522,1098.319Zm-78.4-199.171c-2.872-1.609-6.354-5.037-9.914-9.891-21.818-33.5,11.053-109.61,47.536-107.715,36.515,1.9,16.709,68.243,3.138,91.976C496.392,893.189,480.706,905.637,469.118,899.148Zm-57.538-62.6a11.3,11.3,0,0,1-1.918-1.144c-13.486-11.571,29.626-83.293,25.019-49.778C431.305,812.9,422.043,841.359,411.58,836.551Zm43,170.237c-5.922,1.231-9.5-4.3-11.2-12.45-.1-.476-.138-.951-.215-1.382-4.326-23.728,22.156-44.786,22.046-16.332C465.179,990.947,461.715,1005.3,454.576,1006.788Z"/><path class="cls-20" d="M227.584,505.8c83.455-98.276,187.115,56.428,111.261,91.158S134.059,615.937,227.584,505.8Z"/><path class="cls-21" d="M229.7,665.8c83.412-2.845,86.722-.39,124.511,5.394s104.658-15.506,98.9-49.57-29.233-105.447-81.9-136.02-147.362-41.218-181.447-7.686S135.46,568.88,159.943,616.54,182.9,667.393,229.7,665.8Z"/><path class="cls-22" d="M140.366,574.409c-8.89-40.092,17.727-85.617,20.226-79.61s-11.018,94.843-11.018,94.843l.154,70.5s27.748,31.364,16.445,7.62,2.707-57.571,2.707-57.571,6.278,28.4,7.189,40.438,89.969,31.458,66.948,9.894S198.5,532.1,227.268,489.425,259.514,597.23,259.514,597.23s70.963,67.338,47.97-21.024S295.4,468.559,295.4,468.559s54.613,86.952,44.458,123.777,34.372,26.309,23.708-9.863,11.693-20.651,20.213,10.805,13.9-41.731,13.9-41.731-58.181-69.078-65.131-87.73,34.149,24.659,43.317,57.38,18.968-29.243,18.968-29.243l-53.956-68.92-37.41-10.116-50.9-.317-68.893,27.75-39.228,30.384L124.2,551.547l4.11,24.659Z"/><path class="cls-23" d="M335.073,792.291c24.027,5.059,26.251,30.35,40.946,53.113S406.838,870.7,406.838,870.7s2.213,17.546-8.22,30.35,16.6,30.824,16.6,30.824,8.061,51.689,15.174,70.184,44.577,100.534,66.865,122.822,45.525-4.268,47.9,191.584l31.3,30.35s8.663-118.666-9.225-197.827c7.733,40.713,11.239,129.887-2.631,134.282-13.967,4.426-10.117-48.054-19.917-121.4s-38.254-41.731-66.39-77.771-61.016-101.8-55.01-139.42,11.065-41.731,1.6-35.092-33.841.632-18.034-15.175,23.078-56.59,14.195-41.731-49.287-1.581-54.592-32.247,2.776-108.754-39.548-75.393-117.329-33.361-101.522-34.309,7.587-29.4,18.612-34.66l-25.171-7.835-46.981,26.556c27.337,27.123,55.753,39.333,55.753,39.333C238.965,772.058,311.046,787.233,335.073,792.291Z"/><path class="cls-24" d="M296.82,627.9s-40.467,41.1-15.492,38.569,23.711-.948,79.036.795,89.47-35.887,109.082-61.022,47.094,39.362,33.59,56.2,30.576,2.448,22.672,17.939-21.814-7.272-18.02,2.529,18.02,2.213,29.718,33.828,19.6,92.314,0,120.353c-16.525,23.639-36.122,61.027-37.886,112.53,5.7-48.562,65.644-107.752,60.332-152.9C554.161,748.347,531.4,688.6,531.4,688.6s16.162,4.205-18.475-41.052c0,0,18.186-42.255-20.414-80.744-.491-.49-1.057-1.083-1.576-1.611l-59.12,42.474Z"/><path class="cls-25" d="M230.113,382.567c-91.05,30.35-150.485,166.9-122.664,261.757s94.843,93.59,120.135,89.8l-8.694-18.968s-18.495,1.422-23.711-12.8c0,0,20.865,7.113,32.721-11.381a41.881,41.881,0,0,1,16.083-14.9,8.16,8.16,0,0,0,1.406-13.476c-31.044-26.432-102.373-107.7,3.693-232.867,0,0-18.969,84.361,0,172.881s2.529,61.675,79.668,58.026,145.427-50.438,160.6-97.228S321.163,352.218,230.113,382.567ZM164.829,470.93c11.381,4.742-18.969,122.348-18.969,122.348C125.943,549.176,153.448,466.188,164.829,470.93Zm6.639,105.276s.948,33.195,5.216,81.566S142.541,653.5,171.468,576.206Zm154.12-135.152c22.763,9.485,50.268,80.143,50.268,80.143S302.826,431.57,325.588,441.054Zm10.434,164.288c-25.411,56.681-57.381-179.463-57.381-179.463S361.432,548.661,336.022,605.342Zm45.524,0c-14.7,10.7-33.022-77.98-33.022-77.98S396.247,594.645,381.546,605.342Z"/><path class="cls-22" d="M467.244,440.351c-.655-119.115,168.069-242.526,199.1-253.85s-49.39,61.389-49.39,61.389-75.511,70.382-98.711,189.786c0,0,41.04-92.595,64.745-117.7s-17.935,86.367-17.935,86.367-2.963,44.517,6.509,19.541,25.932-20.724,18.334-5.461,23.184,57,27.078-31.523S708.642,206.235,707.492,228s-43.629,92.042-51.216,138.48,50.211-1.579,47.236-33.212,26.809-41.179,16.3-10.326-20.649,130.249-7,74.072,31.6-59.339,31.6-59.339,5.944,39.009,0,59.339,47.169,9.324,47.169,9.324L737.841,246.625s-.254-5.154,7.02-18.625,19.347-7.168,17.229,4.148S821.3,378.3,805.5,292.23s13.7-93.026,34.356-30.43,34.714,99.388,33.058,144.538,41.972-57.282,41.972-57.282-77.139-164.395-22.13-111.283,70.817,113.5,68.92,208.5S988.4,585.38,1018.349,615.49s-15.578-297.416-15.578-297.416L911.786,185.3s10.231,6.2,6.348-14.611,34.054,9.227,37.215,29.934,73.2,168.031,73.2,168.031-14.435-46.839,14.155-26.966,64.4,101.315,69.77,134.957,11.028-82.7,11.028-82.7-37.643-18.084-56.741-71.007,46.191,50.71,46.191,50.71l29.789,72.619-29.789,70.974L1066.9,538.111s-6.991,39.91,7.752,19.006,27.782,13.433,14.624,19.976,8.972,9.072,8.972,9.072l41.424-86.624s8.638-20.215,14.273-33.5,19.174,103.292-22.371,135.1-10.546,30.251,8.1,17.753,13.5,21.936-2.9,27.8,11.423,5.861,11.423,5.861l55.642-87.256-15.175-144.881L1082.439,280.769S978.111,142.93,869.99,139.136,731.912,97.405,616.954,180.867,456.473,389.91,456.473,389.91l-3.794,56.361Z"/><path class="cls-26" d="M384.359,611.928c-31.016,30.823-108.07,51.237-124.917,40.627,5.448,18.02,54.292,13.215,87.487-5.011s38.874-51.42,106.219-54.266a29.661,29.661,0,0,0,14.081-3.833C412.26,576.295,415.371,581.11,384.359,611.928Z"/><path class="cls-27" d="M188.066,696.815c10.432-15.807,36.04,7.9,31.3-22.92-3.332-21.656,7.086-23.094,16.231-18.777-16.989-8.855-23.764-5.318-20.741,17.016,3.078,22.741-25.84,5.08-32.608,19.075s-46.275,3.722-70.414-33.7c1.39,3.783,2.824,7.448,4.344,10.882C139.807,704.484,180.068,708.934,188.066,696.815Z"/><path class="cls-28" d="M474.86,520.621c11.132,37.906,8.815,71.368-21.712,72.657-67.345,2.846-73.024,36.04-106.219,54.266s-82.04,23.031-87.487,5.011C266.128,678,273,663.268,328.75,660.63c77.139-3.649,145.427-50.438,160.6-97.228C492.576,553.461,486.772,538.185,474.86,520.621Z"/><path class="cls-29" d="M219.364,673.9c4.742,30.824-20.866,7.113-31.3,22.92-8,12.119-48.259,7.669-71.89-28.425,31.215,70.526,88.471,69.171,111.408,65.73l-8.694-18.968s-18.495,1.422-23.711-12.8c0,0,20.865,7.113,32.721-11.381a41.881,41.881,0,0,1,16.083-14.9,8.16,8.16,0,0,0,1.406-13.476c-1.8-1.535-3.753-3.275-5.785-5.178C229.916,650.817,215.529,648.965,219.364,673.9Z"/><path class="cls-30" d="M366.441,706.3c-83.8.306-48.889,87.562-98.1,65.633,16.714,7.813,35.3,13.09,49.748,16.57-37.308-11.574,28.2-73.929,85.9-80.306,60.013-6.633,118.856-51.64,126.636-34.752-3.332-6-8.837-14.313-17.705-25.9C501.049,675,453.135,705.983,366.441,706.3Z"/><path class="cls-31" d="M890.223,651.29C810.555,606.4,780.282,606.4,682.4,634.219s-114.643-89.741-114.643-89.741l-2.7,86.449c76.9,24.862,101.972,53.875,101.972,53.875A198.081,198.081,0,0,1,687.4,732.163c-9-65.381,100.074-93.835,181.639-69.175,73.9,22.343,170.388,57.924,137.063,82.047,19.056-12.274,35.537-34.517,39.03-48.22,4.373-17.153,8.22-32.247,8.22-32.247C1008.461,679.743,969.892,696.183,890.223,651.29Z"/><path class="cls-32" d="M1221.543,471.088c-19.6-88.521-206.126-407.827-493.186-347.759S379.333,444.532,416.638,543.8s250.387,141,250.387,141-8.852-18.969-59.435-61.964S559.536,500.806,696.743,486.9s233.314-13.91,242.8-117.606-76.507-200.435-76.507-200.435c172.615,104.327,91.682,308.557,118.87,386.961s93.579,95.475,93.579,95.475a39.24,39.24,0,0,1-22.13,13.278l-8.22,32.247C1198.78,684.8,1241.144,559.609,1221.543,471.088ZM733.89,134.71S586.882,231.925,543.728,336.252,482.08,527.362,468.8,463.817,525.708,180.235,733.89,134.71ZM575.027,432.992c-12.8-4.741,12.33-36.514,18.494-35.971S587.831,437.735,575.027,432.992Zm-9.959-40.782C530.45,460.5,511.956,551.547,511.956,551.547,492.039,392.21,604.428,256.11,609.645,267.491S599.686,323.922,565.068,392.21Zm60.7,54.061c-45.05-146.059,96.266-277.417,116.183-283.582s7.113,11.381-44.576,102.905S625.768,446.271,625.768,446.271Zm98.637-133.729c-14.226,30.824-16.123,46.473-16.123,46.473C686.942,277.924,738.632,281.717,724.405,312.542Zm-7.113,102.9c-18.969-21.339,28.453-102.9,28.453-102.9C757.126,386.993,736.261,436.786,717.292,415.446Zm33.669-173.563c-12.329,1.423-5.216-31.3,4.742-27.5S766.044,240.143,750.961,241.883ZM866.828,430.622S799.806,306.06,796.012,229.554s5.058-73.978,5.058-73.978C827.626,152.414,894.649,380.67,866.828,430.622Zm88.521-230c-8.062,11.382-53.112-43.154-41.731-47.422C920.638,150.572,963.411,189.245,955.349,200.626ZM1101.882,355.7c9.958,25.608-1.422,28.927-30.35-24.185-23.082-42.382-36.775-54.838-41.377-58.155-.594-.365-1.182-.769-1.776-1.122a12.57,12.57,0,0,1,1.776,1.122C1062.207,293.112,1092.1,330.553,1101.882,355.7Zm-99.111-83.462c110.492,114.76,120.925,224.779,103.379,241.851s-18.968,13.278-38.886-89.627S1002.771,272.233,1002.771,272.233Zm75.874,306.344c-16.061-3.212-.948-40.308,15.176-33.2S1097.614,582.371,1078.645,578.577Zm46.948,66.865c-11.382-9.959,27.03-42.68,35.092-30.35S1136.974,655.4,1125.593,645.442Zm-8.536-35.092c-18.5.948-18.02-18.5,18.02-88.541s14.7-120.589,14.7-120.589C1213.323,514.084,1135.552,609.4,1117.057,610.35Z"/><path class="cls-33" d="M416.638,543.8c37.305,99.27,250.387,141,250.387,141s-8.852-18.969-59.435-61.964S559.536,500.806,696.743,486.9c112.849-11.441,197.846-13.525,229.762-71.579-31.834,42.717-90.035,54.5-229.13,41.862C558.148,444.532,587.989,482.469,546.89,561.693c-40.991,79.016-139.824-17.382-138.4-109.778C404.7,488.3,407.892,520.529,416.638,543.8Z"/><path class="cls-34" d="M1101.274,647.544c26.421-26.508-9.351-24.706-49.817-41.306-37.605-15.426-70.241-116.77-73.417-198.131-.012,60.217-7.493,114.953,3.865,147.708,27.189,78.4,93.579,95.475,93.579,95.475a39.24,39.24,0,0,1-22.13,13.278l-8.22,32.247c74.73-5.843,123.072-38.489,150.826-80.639C1150.465,678.091,1074.92,673.984,1101.274,647.544Z"/><path class="cls-35" d="M428.131,739.856c-17.3-2.5-38.654,80.863-18.469,95.551-13.486-11.571,29.626-83.293,25.019-49.778C437.492,762.917,436.226,741.025,428.131,739.856Z"/><path class="cls-36" d="M453.943,761.941C425.487,815.749,443.174,867.4,459.2,889.257c-21.818-33.5,11.053-109.61,47.536-107.715,36.515,1.9,16.709,68.243,3.138,91.976,15.2-22.128,27.528-53.578,27.528-76.8C537.406,753.089,488.719,696.183,453.943,761.941Z"/><path class="cls-37" d="M454.576,946.57c-9.336-.849-14.641,28.287-11.416,46.386-4.326-23.728,22.156-44.786,22.046-16.332C465.233,961.9,461.627,947.211,454.576,946.57Z"/><path class="cls-38" d="M796.012,793.157c-42.529,4.769-41.3,130.35-32.815,160.868-11.427-68.8,28.219-104.193,46.006-89.02,17.582,15,3.977,57.866,3.654,58.874a115.874,115.874,0,0,0,8.447-26C831.42,847.932,822.729,790.162,796.012,793.157Z"/><path class="cls-39" d="M892.12,708.2c-6.572-.779-12.646,1.9-37.937,46.789-14.754,26.187-16.586,73.654-12.3,109.434-5.379-70.252,36.328-107.336,52.132-87.635s-.43,91.323-10.326,115.377C892.2,877.705,900,855.354,905.4,825.8,916.147,767,915.764,711,892.12,708.2Z"/><path class="cls-40" d="M854.815,944.673c9-18.758,3.315-27.719-18.384-14.211,16.468-6.442-79.92,87.776-51.376,45.69-5.143,5.468-10.53,11.365-16.231,17.84C768.824,993.992,839.64,976.287,854.815,944.673Z"/><path class="cls-41" d="M1051.457,606.238c40.466,16.6,76.238,14.8,49.817,41.306-22.415,22.488,28.879,28.791,72.706-7.913-17.846,14.621-73.763,34.9-61.028,7.913,12.809-27.141,6.792-21.545-17.235-31.877-20.408-8.775-85.95-65.45-109.735-142.376C998.412,536.065,1023.561,594.795,1051.457,606.238Z"/><path class="cls-42" d="M546.89,561.693c41.1-79.224,11.258-117.161,150.485-104.515,113.3,10.291,172.919,4.379,208.343-21.25-45.822,33.1-123,2.914-223.319,10.343s-83.029-16.282-122.214,69.862c-39.147,86.057-116.831,54.915-145.143-19.792C437.589,570.919,512.537,627.914,546.89,561.693Z"/><path class="cls-43" d="M278.641,425.879s8.093,12,18.442,30.235a273.286,273.286,0,0,1,28.223-3.839c-4.948-8.751-6.094-13.878.282-11.221,4.151,1.73,8.459,5.528,12.73,10.526,32.82-.943,64.8,4.929,92.86,19.541-58.27-54.657-146.327-106.8-201.065-88.554C146.591,410.409,89.726,527.6,102.362,620.008c-2.434-27.649,12.234-56.638,37.381-82.658,3.694-35.989,17.74-69.481,25.086-66.42,4.571,1.9,2.406,22.024-1.817,45.411a297.334,297.334,0,0,1,48.271-30.686c8.758-17.524,21.059-36.179,37.8-55.932A377.507,377.507,0,0,0,242.94,471.6,316.767,316.767,0,0,1,283.575,459C280.462,439.319,278.641,425.879,278.641,425.879Z"/><path class="cls-44" d="M728.357,123.329C571.8,156.088,482.313,248.653,439.248,342.147,465.91,293.124,506.553,261.9,553.4,244.064,595.644,194.527,654.78,152.01,733.89,134.71c0,0-57.978,38.352-111.8,92.719a376.6,376.6,0,0,1,56.087-2.607c27.538-36.443,55.683-59.628,63.777-62.133,16.8-5.2,10.32,6.468-23.126,65.15,8.63,1.046,17.185,2.36,25.647,3.877.339-8.754,5.255-19.615,11.231-17.337,6.688,2.547,9.028,13.277,5.293,20.588,12.479,2.706,24.663,5.89,36.44,9.473-.7-5.122-1.186-10.1-1.424-14.886-3.794-76.508,5.058-73.978,5.058-73.978,12.723-1.515,34.717,50.107,51.137,109.77,50.778,23.9,85.584,55.054,88.023,84.244-1.815-95.922-77.2-180.736-77.2-180.736C946.807,219.485,970.8,293.639,976.481,365.529c3.984-39.3,22.954-56.925,48.414-60.488-12.38-21.917-22.124-32.808-22.124-32.808q15.581,16.183,28.566,32.166a101.558,101.558,0,0,1,25.718,2.332c-14.424-22.809-23.361-30.826-26.9-33.376-.594-.365-1.182-.769-1.776-1.122a12.57,12.57,0,0,1,1.776,1.122c15.535,9.576,30.541,23.313,43.018,37.784,47.016,15.418,97.571,54.123,118.082,85.881C1124.939,271.959,959.156,75.034,728.357,123.329Zm226.992,77.3c-8.062,11.382-53.112-43.154-41.731-47.422C920.638,150.572,963.411,189.245,955.349,200.626Z"/><path class="cls-45" d="M278.641,425.879S325.035,494.693,337.7,553.07q7.92-3.389,15.112-7.123c-2.661-10.728-4.288-18.585-4.288-18.585s4.475,6.32,10.247,15.354c26.692-15.026,43.432-33.458,38.9-53.292C382.5,423.034,270.186,358.044,200.4,402.8c-52.112,33.42-84.9,103.861-61.518,148.1.935-40.6,17.687-83.415,25.952-79.971,7.953,3.314-4.467,61.711-12.673,96.607,4.853,3.8,11.374,6.72,19.277,8.768a128.257,128.257,0,0,0,23.767,3.5c-7.26-38.836,2.338-89.26,53.882-150.086,0,0-15.553,69.174-4.407,147.972a379.367,379.367,0,0,0,59.743-12.677C289.927,509.242,278.641,425.879,278.641,425.879Zm46.947,15.175c22.763,9.485,50.268,80.143,50.268,80.143S302.826,431.57,325.588,441.054Z"/><path class="cls-46" d="M1017.313,233.347c-23.394-98-248.756-149.338-403.4-65.125-55.471,30.206-126.153,90.47-113.122,156.336,38.663-78.98,112.8-163.542,233.1-189.848,0,0-147.008,97.215-190.162,201.542-4.671,11.3-9.038,22.36-13.156,33.075a83.881,83.881,0,0,0,8.422,3.4c28.419-68.611,67.619-111.854,70.651-105.24,4.892,10.675-8.156,50.97-38.357,112.276a355.934,355.934,0,0,0,45.814,2.306c3.261-118.357,107.913-214.142,124.849-219.384,19.918-6.165,7.113,11.381-44.576,102.905-23.591,41.771-40.545,83.018-52.026,115.551,22.907-1.31,47.463-3.95,72.63-7.7,9.268-29.089,27.766-60.905,27.766-60.905a253.117,253.117,0,0,1,2.639,55.889c27.174-4.915,54.564-11.01,80.959-18.053-16.054-39.062-31.563-85.161-33.331-120.824-3.794-76.508,5.058-73.978,5.058-73.978,17.894-2.131,54.123,100.775,67.368,183.437a624.709,624.709,0,0,0,67.788-25.5c-15.865-80.133-73.191-144.656-73.191-144.656,57.947,35.023,87.246,81.319,101.728,130.319C1001.34,278.557,1022.694,255.888,1017.313,233.347ZM724.405,312.542c-14.226,30.824-16.123,46.473-16.123,46.473C686.942,277.924,738.632,281.717,724.405,312.542Zm26.556-70.659c-12.329,1.423-5.216-31.3,4.742-27.5S766.044,240.143,750.961,241.883Zm204.388-41.257c-8.062,11.382-53.112-43.154-41.731-47.422C920.638,150.572,963.411,189.245,955.349,200.626Z"/><path class="cls-47" d="M763.689,1000.755c10.894,3.639,5.412,42.368-10.64,33.7S752.8,997.115,763.689,1000.755Z"/><path class="cls-47" d="M785.114,1011.479c8.367-4.068,8.5-11.075,0-11.042S780.062,1013.935,785.114,1011.479Z"/><path class="cls-47" d="M649.85,713.777c8.366-4.068,8.5-11.075,0-11.041S644.8,716.233,649.85,713.777Z"/><path class="cls-47" d="M620.433,578.376c10.511-4.631,32.493,27.723,14.782,32.1S609.922,583.006,620.433,578.376Z"/><path class="cls-47" d="M643.5,571.908c3.458-8.636-1.154-13.914-7.424-8.173S641.415,577.124,643.5,571.908Z"/><path class="cls-47" d="M760.087,762.132c-2.648-9.287,24.746-11.413,25.675-2.456S762.734,771.418,760.087,762.132Z"/><path class="cls-47" d="M788.966,753.956c6.859-.623,7.011-6.218,2.368-6.682S784.755,754.338,788.966,753.956Z"/><path class="cls-47" d="M933.343,499.312c-6.684-3,1.673-15.068,10.031-9.5S940.026,502.308,933.343,499.312Z"/><path class="cls-47" d="M902.277,490.961c9.286-2.43,9.94-19.61-2-15.9S892.99,493.391,902.277,490.961Z"/><path class="cls-47" d="M856.435,494.135c-4.166-6.5,1.568-9.346,5.2-4.208S856.435,494.135,856.435,494.135Z"/><path class="cls-47" d="M986.347,665.5c-13-2.322-5.107-19.965,8.358-17.18S999.348,667.82,986.347,665.5Z"/><path class="cls-47" d="M929.846,725.3c-13-2.321-5.107-19.965,8.358-17.179S942.847,727.622,929.846,725.3Z"/><path class="cls-47" d="M999.348,629.98c3.715-3.02,7.413,6.021,2.082,8.7S995.634,633,999.348,629.98Z"/><path class="cls-47" d="M1023.492,661.629c6.036-5.417-.961-12.382-6.052-10.06S1017.456,667.046,1023.492,661.629Z"/><path class="cls-47" d="M251.917,714.769c-13-2.322-5.108-19.965,8.357-17.18S264.917,717.091,251.917,714.769Z"/><path class="cls-47" d="M264.917,679.251c3.715-3.02,7.414,6.021,2.082,8.7S261.2,682.272,264.917,679.251Z"/><path class="cls-47" d="M289.062,710.9c6.036-5.417-.961-12.382-6.053-10.06S283.026,716.317,289.062,710.9Z"/><path class="cls-47" d="M465.266,1016.286c-9.787-8.757,6.964-23.68,18.108-18.109S474.088,1024.179,465.266,1016.286Z"/><path class="cls-47" d="M475.855,990.736c-8.887-4.222-4.35-15.475,3.165-10.719S479.828,992.623,475.855,990.736Z"/><path class="cls-47" d="M782.294,565.96c9.053-12.2,26.44,12.912,13.439,20.121S775.356,575.312,782.294,565.96Z"/><path class="cls-47" d="M812.336,580.391c7.569-4.107,11.747,4.467,4.318,8.074S804.767,584.5,812.336,580.391Z"/><path class="cls-47" d="M724.558,648.055c3.741,1.578,11.321,14.74-8.11,7.37S704.739,639.7,724.558,648.055Z"/><path class="cls-47" d="M420.262,665.177c3.74,1.577,11.32,14.739-8.111,7.37S400.442,656.819,420.262,665.177Z"/><path class="cls-47" d="M516.954,720.159c3.741,1.578,11.321,14.74-8.11,7.37S497.135,711.8,516.954,720.159Z"/><path class="cls-48" d="M183.453,436.064c2.164-15.672,30.313-22.227,45.458-8.18S177.205,481.3,183.453,436.064Z"/><path class="cls-48" d="M176.163,451.458c4.089-3.224,21.421,25.57,9.736,32.289S168.976,457.122,176.163,451.458Z"/><path class="cls-48" d="M544.317,226.439c4.9,1.766-10.376,31.7-22.257,25.338S535.709,223.335,544.317,226.439Z"/><path class="cls-48" d="M886.123,609.685c6.374-2.42,51.55,36.312,32.269,40.352S874.92,613.937,886.123,609.685Z"/><path class="cls-48" d="M177.935,487.361c7.956,1.733,1.9,12.654-1.66,10.76S173.308,486.354,177.935,487.361Z"/><path class="cls-48" d="M973.438,296.169c4.843-6.546,12.322,3.454,9.132,5.927S970.622,299.975,973.438,296.169Z"/><path class="cls-48" d="M639.24,707.022c7.984-1.6,6.809,10.834,2.785,10.525S634.6,707.951,639.24,707.022Z"/><path class="cls-48" d="M777.45,128.15c2.968-4.79,35.088-9.784,28.82,3.536S774.482,132.939,777.45,128.15Z"/><path class="cls-48" d="M983.063,286.753c-5.629.242-27.835-23.5-13.3-25.813S988.692,286.51,983.063,286.753Z"/><path class="cls-48" d="M753.033,130.93c3.382-5.4,22.1-1.408,25.084,4.683S746.388,141.546,753.033,130.93Z"/><path class="cls-48" d="M474.982,659.808c-2.928-4.814,7.154-35.717,16.195-24.1S477.91,664.622,474.982,659.808Z"/><path class="cls-48" d="M470.363,671.344c-3.953-3.522,5.153-9.893,11.592-8.8S478.131,678.265,470.363,671.344Z"/><path class="cls-48" d="M614.229,722.007c-7.494-2.817,2.544-15.184,12.434-16.638S628.954,727.541,614.229,722.007Z"/><path class="cls-48" d="M695.108,370.664c7.985-1.6,6.81,10.834,2.786,10.524S690.465,371.592,695.108,370.664Z"/><path class="cls-48" d="M670.1,385.648c-7.493-2.816,2.544-15.183,12.435-16.637S684.822,391.182,670.1,385.648Z"/><path class="cls-48" d="M270.8,744.119c7.7,2.66.4,12.791-2.918,10.489S266.319,742.573,270.8,744.119Z"/><path class="cls-48" d="M241.64,744.4c-5.041-6.219,9.872-11.814,19.14-8.067S251.546,756.621,241.64,744.4Z"/><path class="cls-48" d="M594.24,539.159c7.119-4.333,21.218,28.626,9.286,32.5S587.12,543.493,594.24,539.159Z"/><path class="cls-49" d="M573.572,1418.968s50.692-38.933,70.493-41.247-27.9,56.376-27.9,56.376,95.153-121.228,67.511-11.491c0,0,43.235-45.975,94.652-21.959s77.47,40.2,77.47,40.2-61.9-85.321-106.093-69.886c0,0,16.732-41.866,40.644-41.36s121.626,100.31,121.626,100.31-51.491-94.355-81.767-127.07c0,0,100.3,55.542,165.887,129.049,0,0-79.789-114.6-137.932-153.932s-96.932-31.717-128.023.824c0,0,79.349-117.407,185.233,17.572,0,0-97.644-207.949-285.9,17.2,0,0,164.387-335.97,344.063-235.1,0,0-119.282-140.423-351.966,218.8,0,0,127.428-187.044,8.918-298.432,0,0,99.455,79.43-24.609,290.51,0,0,83.187-145.6,13.157-254.395,0,0,70.127,95.265-40.666,283.974,0,0,3.213-192.34-190.528-153.724,0,0,158.065-37.389,177.657,127.248,0,0-36.049-78.134-99.06-103.918s-179.83,82.875-179.83,82.875,83.169-56.61,126.824-71.092,76.185,8.786,100.816,58.659c0,0-38.241-44.805-87.577-37.455S275.553,1312,275.553,1312s104.461-72.5,149.173-71.836,107.758,100.58,107.758,100.58-44.077-32.883-85.509-32.338-170.759,112.743-170.759,112.743,115.279-84.382,161.5-84.519S573.572,1418.968,573.572,1418.968Z"/><path class="cls-50" d="M973.532,1078.459c-149.142-110.491-323.17,186.84-344.9,230.224s-7.066-11.42-7.066-11.42-23.343,31.209-26.358,25.1,10.666-33.025,10.666-33.025c-2.006,3.7-26.973,57.163-26.973,57.163s5.442-37.992-23.874-110.816c-27.139-67.419-98.478-80.419-154.11-72.69-.319.048-.651.113-.97.163,37.283-4.826,149.255-7.624,165.546,129.282,8.264,22.25,10.241,50.064,10.241,50.064s-12.214-54.057-73.535-120.246S386.278,1201.2,286.605,1271.4c0,0,83.169-56.61,126.824-71.092,42.757-14.184,74.821,7.913,99.264,55.683.047.071.1.135.149.2,22.62,34.192,35.09,73.911,35.09,73.911s-27.71-47.577-74.164-84.508-117.87,3.85-198.214,66.4c0,0,104.46-72.5,149.172-71.837s107.758,100.581,107.758,100.581c17.359,25.057,25.85,45.393,25.85,45.393s-57.023-70.9-112.309-65.275-169.809,100.288-169.809,100.288,115.28-84.383,161.5-84.52,135.852,82.335,135.852,82.335,50.692-38.934,70.493-41.247c17.636-2.061-18.2,44.171-26.259,54.326,12.3-15.264,91.392-110.758,65.871-9.441,0,0,43.235-45.975,94.652-21.959s77.469,40.2,77.469,40.2c-60.666-70.147-111.072-63.749-134.987-54.328l-14.951,8.05a62.882,62.882,0,0,1,14.951-8.05l28.895-15.558s16.732-41.866,40.644-41.36,121.626,100.31,121.626,100.31-9.537-17.47-22.8-39.969c-22.594-31.143-57.422-71.831-91.8-83.109-48.3-15.848-86.548,24.194-97.831,37.8-1.137,1.464-2.3,2.841-3.419,4.356,0,0,1.2-1.676,3.419-4.356,43.07-55.47,98.946-73.727,130.663-41.8,0,0,100.3,55.542,165.886,129.049,0,0-56.63-78.482-151.775-138.028s-153.837,45.518-153.837,45.518,6-17.707,39.658-60.6c0,0,79.349-117.407,185.233,17.572,0,0-34.434-62.05-106.929-72.86s-178.976,90.062-178.976,90.062S793.857,977.588,973.532,1078.459Z"/><path class="cls-51" d="M274.61,1050.66c-6.056-14.46,23.237-12.092,42.443,10.67S286.229,1078.4,274.61,1050.66Z"/><circle class="cls-52" cx="278.641" cy="1043.593" r="69.883"/><path class="cls-53" d="M255.088,902.942c5.116-4.066,30.508,27.821,23.553,48.686S242.759,912.742,255.088,902.942Z"/><path class="cls-54" d="M606.154,978.866c32.829-9.112,55.813,38.59,27.044,62.74S542.019,996.667,606.154,978.866Z"/><path class="cls-55" d="M644.687,798.124c15.6-10.21,69.209,16.3,37.712,54.554S592.316,832.411,644.687,798.124Z"/><path class="cls-56" d="M1099.037,871.984c15.958-.623,15.649,58.178-8.062,63.774S1078.171,872.8,1099.037,871.984Z"/><circle class="cls-57" cx="260.981" cy="911.682" r="90.377"/><circle class="cls-58" cx="1116.563" cy="861.53" r="90.377"/><circle class="cls-59" cx="624.767" cy="958.58" r="122.516" transform="translate(-494.828 722.539) rotate(-45)"/><circle class="cls-60" cx="644.687" cy="778.365" r="122.516" transform="translate(-361.563 683.84) rotate(-45)"/><path class="cls-48" d="M1037.1,450.053a3.395,3.395,0,1,1-3.394-3.394A3.394,3.394,0,0,1,1037.1,450.053Z"/><circle class="cls-61" cx="1033.706" cy="450.053" r="67.169" transform="translate(-15.47 862.758) rotate(-45)"/><path class="cls-48" d="M310.878,572.812a3.395,3.395,0,1,1-3.394-3.395A3.395,3.395,0,0,1,310.878,572.812Z"/><circle class="cls-62" cx="307.484" cy="572.812" r="67.169" transform="translate(-307.185 784.571) rotate(-80.783)"/><path class="cls-48" d="M241.167,617.141a3.395,3.395,0,1,1-3.4-3.395A3.395,3.395,0,0,1,241.167,617.141Z"/><circle class="cls-63" cx="237.772" cy="617.141" r="67.169" transform="translate(-366.743 348.887) rotate(-45)"/><path class="cls-48" d="M243.709,452.134a3.394,3.394,0,1,1-3.394-3.4A3.394,3.394,0,0,1,243.709,452.134Z"/><circle class="cls-64" cx="240.315" cy="452.134" r="67.169" transform="translate(-249.32 302.355) rotate(-45)"/><path class="cls-48" d="M409.523,430.609a3.395,3.395,0,1,1-3.394-3.395A3.395,3.395,0,0,1,409.523,430.609Z"/><circle class="cls-65" cx="406.129" cy="430.609" r="67.169" transform="translate(-185.534 413.299) rotate(-45)"/><path class="cls-48" d="M451.634,368.175a3.395,3.395,0,1,1-3.4-3.4A3.395,3.395,0,0,1,451.634,368.175Z"/><circle class="cls-66" cx="448.239" cy="368.175" r="67.169" transform="translate(-129.052 424.789) rotate(-45)"/><path class="cls-48" d="M624.767,735.125a3.394,3.394,0,1,1-3.394-3.394A3.394,3.394,0,0,1,624.767,735.125Z"/><circle class="cls-67" cx="621.373" cy="735.125" r="67.169" transform="translate(-203.793 1230.721) rotate(-80.783)"/><path class="cls-48" d="M848.577,174.312a3.394,3.394,0,1,1-3.394-3.394A3.394,3.394,0,0,1,848.577,174.312Z"/><circle class="cls-68" cx="845.183" cy="174.312" r="67.169" transform="translate(124.291 648.69) rotate(-45)"/><path class="cls-48" d="M573.63,248.013a3.395,3.395,0,1,1-3.395-3.394A3.394,3.394,0,0,1,573.63,248.013Z"/><circle class="cls-69" cx="570.235" cy="248.013" r="67.169" transform="translate(-8.354 475.858) rotate(-45)"/><path class="cls-48" d="M1172.236,395.361a3.395,3.395,0,1,1-3.4-3.394A3.394,3.394,0,0,1,1172.236,395.361Z"/><circle class="cls-70" cx="1168.841" cy="395.361" r="67.169" transform="translate(515.512 1442.099) rotate(-76.717)"/><path class="cls-48" d="M821.964,421.238a3.395,3.395,0,1,1-3.4-3.395A3.395,3.395,0,0,1,821.964,421.238Z"/><circle class="cls-71" cx="818.569" cy="421.238" r="67.169" transform="translate(220.532 1121.129) rotate(-76.717)"/><path class="cls-48" d="M586.382,946.552a3.395,3.395,0,1,1-3.394-3.395A3.395,3.395,0,0,1,586.382,946.552Z"/><circle class="cls-72" cx="582.988" cy="946.552" r="67.168"/><path class="cls-48" d="M610.559,919.847a3.395,3.395,0,1,1-3.395-3.394A3.394,3.394,0,0,1,610.559,919.847Z"/><circle class="cls-73" cx="607.164" cy="919.847" r="67.169" transform="translate(-427.574 1299.432) rotate(-76.717)"/><path class="cls-48" d="M1126.9,868.589a3.395,3.395,0,1,1-3.394-3.394A3.395,3.395,0,0,1,1126.9,868.589Z"/><circle class="cls-74" cx="1123.502" cy="868.589" r="67.169" transform="translate(-285.119 1048.84) rotate(-45)"/><path class="cls-48" d="M1130.29,826.5a3.394,3.394,0,1,1-3.394-3.394A3.394,3.394,0,0,1,1130.29,826.5Z"/><circle class="cls-75" cx="1126.896" cy="826.504" r="67.169" transform="translate(-254.367 1038.913) rotate(-45)"/><path class="cls-48" d="M240.315,868.589a3.395,3.395,0,1,1-3.394-3.394A3.395,3.395,0,0,1,240.315,868.589Z"/><circle class="cls-76" cx="236.921" cy="868.589" r="67.169" transform="translate(-658.403 963.318) rotate(-80.783)"/><path class="cls-48" d="M899.121,230.591a1.579,1.579,0,1,1-1.579-1.579A1.579,1.579,0,0,1,899.121,230.591Z"/><circle class="cls-77" cx="897.542" cy="230.591" r="31.249" transform="translate(99.832 702.197) rotate(-45)"/><circle class="cls-48" cx="867.477" cy="278.654" r="1.579"/><circle class="cls-78" cx="867.477" cy="278.654" r="31.249"/><circle class="cls-48" cx="727.564" cy="293.734" r="1.579"/><circle class="cls-79" cx="727.564" cy="293.734" r="31.249"/><path class="cls-48" d="M353.48,594a1.58,1.58,0,1,1-1.58-1.58A1.579,1.579,0,0,1,353.48,594Z"/><circle class="cls-80" cx="351.9" cy="593.996" r="31.249" transform="translate(-290.793 846.205) rotate(-80.783)"/><path class="cls-48" d="M638.983,978.866a1.579,1.579,0,1,1-1.579-1.579A1.579,1.579,0,0,1,638.983,978.866Z"/><circle class="cls-81" cx="637.404" cy="978.866" r="31.249" transform="translate(-326.076 318.436) rotate(-22.5)"/><circle class="cls-48" cx="603.77" cy="776.786" r="1.579"/><circle class="cls-82" cx="603.77" cy="776.786" r="31.249"/><path class="cls-48" d="M641.043,743.954a1.58,1.58,0,1,1-1.58-1.579A1.579,1.579,0,0,1,641.043,743.954Z"/><circle class="cls-83" cx="639.463" cy="743.954" r="31.249" transform="translate(-231.508 1195.385) rotate(-76.717)"/><path class="cls-48" d="M688.521,795.294a1.579,1.579,0,1,1-1.579-1.579A1.579,1.579,0,0,1,688.521,795.294Z"/><circle class="cls-84" cx="686.942" cy="795.294" r="31.249" transform="translate(-244.904 1281.139) rotate(-76.717)"/><path class="cls-48" d="M1081.56,865.2a1.579,1.579,0,1,1-1.579-1.579A1.579,1.579,0,0,1,1081.56,865.2Z"/><circle class="cls-85" cx="1079.981" cy="865.195" r="31.249" transform="translate(-10.198 1717.504) rotate(-76.717)"/><circle class="cls-48" cx="1157.188" cy="856.569" r="1.579"/><circle class="cls-86" cx="1157.188" cy="856.569" r="31.249"/><path class="cls-48" d="M239.352,897.645a1.58,1.58,0,1,1-1.58-1.579A1.579,1.579,0,0,1,239.352,897.645Z"/><circle class="cls-87" cx="237.772" cy="897.645" r="31.249" transform="translate(-686.369 988.561) rotate(-80.783)"/><path class="cls-48" d="M267.471,1035.715a1.58,1.58,0,1,1-1.58-1.579A1.58,1.58,0,0,1,267.471,1035.715Z"/><circle class="cls-88" cx="265.892" cy="1035.715" r="31.249"/><path class="cls-48" d="M126.359,629.7a1.58,1.58,0,1,1-1.579-1.579A1.579,1.579,0,0,1,126.359,629.7Z"/><circle class="cls-89" cx="124.78" cy="629.702" r="31.249"/><path class="cls-48" d="M629.56,326.746a1.579,1.579,0,1,1-1.579-1.579A1.579,1.579,0,0,1,629.56,326.746Z"/><circle class="cls-90" cx="627.981" cy="326.746" r="31.249" transform="translate(204.863 894.279) rotate(-80.783)"/><path class="cls-48" d="M723.889,156.316a1.58,1.58,0,1,1-1.58-1.579A1.579,1.579,0,0,1,723.889,156.316Z"/><circle class="cls-91" cx="722.309" cy="156.316" r="31.249" transform="translate(404.222 823.389) rotate(-76.717)"/><path class="cls-48" d="M146.284,487.38a1.579,1.579,0,1,1-1.579-1.579A1.579,1.579,0,0,1,146.284,487.38Z"/><circle class="cls-92" cx="144.705" cy="487.38" r="31.249"/><path class="cls-48" d="M779.649,114.7a1.579,1.579,0,1,1-1.579-1.579A1.579,1.579,0,0,1,779.649,114.7Z"/><circle class="cls-93" cx="778.07" cy="114.699" r="31.249" transform="translate(15.334 306.486) rotate(-22.5)"/><circle class="cls-48" cx="575.915" cy="500.696" r="1.579"/><circle class="cls-94" cx="575.915" cy="500.696" r="31.249"/><circle class="cls-48" cx="972.444" cy="441.505" r="1.579"/><circle class="cls-95" cx="972.444" cy="441.505" r="31.249"/><g class="cls-96"><circle class="cls-48" cx="1257.264" cy="735.125" r="1.579"/><circle class="cls-97" cx="1257.264" cy="735.125" r="31.249"/></g><g class="cls-96"><path class="cls-48" d="M1208.52,672.135a1.58,1.58,0,1,1-1.58-1.58A1.579,1.579,0,0,1,1208.52,672.135Z"/><circle class="cls-98" cx="1206.941" cy="672.135" r="31.249" transform="translate(-121.766 1050.299) rotate(-45)"/></g><g class="cls-96"><path class="cls-48" d="M1061.307,759.336a1.58,1.58,0,1,1-1.58-1.579A1.579,1.579,0,0,1,1061.307,759.336Z"/><circle class="cls-99" cx="1059.727" cy="759.336" r="31.249" transform="translate(140.447 1683.748) rotate(-80.783)"/></g><g class="cls-96"><path class="cls-48" d="M910.824,980.445a1.579,1.579,0,1,1-1.579-1.579A1.579,1.579,0,0,1,910.824,980.445Z"/><circle class="cls-100" cx="909.245" cy="980.445" r="31.249" transform="translate(-426.967 930.099) rotate(-45)"/></g><g class="cls-96"><circle class="cls-48" cx="956.356" cy="953.146" r="1.579"/><circle class="cls-101" cx="956.356" cy="953.146" r="31.249"/></g><g class="cls-96"><path class="cls-48" d="M1047.381,1046.671a1.58,1.58,0,1,1-1.58-1.579A1.58,1.58,0,0,1,1047.381,1046.671Z"/><circle class="cls-102" cx="1045.801" cy="1046.671" r="31.249"/></g><g class="cls-96"><circle class="cls-48" cx="1112.952" cy="996.964" r="1.579"/><circle class="cls-103" cx="1112.952" cy="996.964" r="31.249"/></g><g class="cls-96"><circle class="cls-48" cx="295.395" cy="1141.844" r="1.579"/><circle class="cls-104" cx="295.395" cy="1141.844" r="31.249"/></g><g class="cls-96"><circle class="cls-48" cx="201.001" cy="1046.671" r="1.579"/><circle class="cls-105" cx="201.001" cy="1046.671" r="31.249"/></g><g class="cls-96"><circle class="cls-48" cx="214.854" cy="977.287" r="1.579"/><circle class="cls-106" cx="214.854" cy="977.287" r="31.249"/></g><g class="cls-96"><circle class="cls-48" cx="321.396" cy="911.478" r="1.579"/><circle class="cls-107" cx="321.396" cy="911.478" r="31.249"/></g><g class="cls-96"><path class="cls-48" d="M340.539,852.678a1.579,1.579,0,1,1-1.579-1.579A1.579,1.579,0,0,1,340.539,852.678Z"/><circle class="cls-108" cx="338.96" cy="852.678" r="31.249" transform="translate(-568.785 986.665) rotate(-76.717)"/></g><g class="cls-96"><path class="cls-48" d="M132.786,753.956a1.579,1.579,0,1,1-1.579-1.579A1.579,1.579,0,0,1,132.786,753.956Z"/><circle class="cls-109" cx="131.207" cy="753.956" r="31.249"/></g><g class="cls-96"><circle class="cls-48" cx="52.423" cy="569.417" r="1.579"/><circle class="cls-110" cx="52.423" cy="569.417" r="31.249"/></g><g class="cls-96"><path class="cls-48" d="M385.938,214.072a1.58,1.58,0,1,1-1.58-1.579A1.579,1.579,0,0,1,385.938,214.072Z"/><circle class="cls-111" cx="384.358" cy="214.072" r="31.249" transform="translate(111.483 559.177) rotate(-80.783)"/></g><g class="cls-96"><path class="cls-48" d="M281.418,298.389a1.58,1.58,0,1,1-1.58-1.58A1.579,1.579,0,0,1,281.418,298.389Z"/><circle class="cls-112" cx="279.838" cy="298.389" r="31.249" transform="translate(-74.862 502.185) rotate(-76.717)"/></g><g class="cls-96"><path class="cls-48" d="M338.96,332.255a1.579,1.579,0,1,1-1.579-1.579A1.579,1.579,0,0,1,338.96,332.255Z"/><circle class="cls-113" cx="337.381" cy="332.255" r="31.249" transform="translate(-101.467 154.402) rotate(-22.5)"/></g><g class="cls-96"><path class="cls-48" d="M253.544,228a1.579,1.579,0,1,1-1.579-1.579A1.579,1.579,0,0,1,253.544,228Z"/><circle class="cls-114" cx="251.965" cy="228" r="31.249" transform="translate(-27.825 420.841) rotate(-76.717)"/></g><g class="cls-96"><path class="cls-48" d="M446.424,99.186a1.579,1.579,0,1,1-1.579-1.58A1.579,1.579,0,0,1,446.424,99.186Z"/><circle class="cls-115" cx="444.845" cy="99.186" r="31.249"/></g><g class="cls-96"><circle class="cls-48" cx="470.963" cy="163.978" r="1.579"/><circle class="cls-116" cx="470.963" cy="163.978" r="31.249"/></g><circle class="cls-48" cx="1086.936" cy="524.542" r="1.579"/><circle class="cls-117" cx="1086.936" cy="524.542" r="31.249"/><path class="cls-48" d="M983.874,232.659a1.58,1.58,0,1,1-1.58-1.579A1.58,1.58,0,0,1,983.874,232.659Z"/><circle class="cls-118" cx="982.294" cy="232.659" r="31.249" transform="translate(595.293 1165.002) rotate(-80.783)"/><path class="cls-48" d="M1078.63,308.879a1.58,1.58,0,1,1-1.579-1.58A1.579,1.579,0,0,1,1078.63,308.879Z"/><circle class="cls-119" cx="1077.051" cy="308.879" r="31.249"/><path class="cls-120" d="M828.366,1227.959c.49.192.9.363,1.366.549,57.9,18.136,85.642,67.847,85.642,67.847s-72.61-154.576-213.305-52.816C730,1226.546,781.528,1209.582,828.366,1227.959Z"/><path class="cls-121" d="M858.164,1277.959c-58.142-39.335-96.932-31.717-128.023.824,50.437-48.688,87.53-21.976,182.257,65.366,53.422,45.821,83.7,87.742,83.7,87.742S916.306,1317.294,858.164,1277.959Z"/><path class="cls-122" d="M286.605,1271.4c50.154-35.326,88.891-64.283,122.82-75.921,28.515-14.963,62.777-4.551,92.783,15.932,1.9,1.3,3.6,2.361,5.128,3.225-11.971-10.535-25.637-19.865-40.9-26.111C403.424,1162.742,286.605,1271.4,286.605,1271.4Z"/><path class="cls-123" d="M426.668,1221.513c-49.336,7.349-151.114,90.49-151.114,90.49,40.592-31.6,78.89-57.6,112.856-70.879,25.329-12.449,50.6-12.631,70.725-9.163A138.631,138.631,0,0,1,500.05,1245.6c-14.532-11.791-39.044-26.667-67.841-24.571C430.367,1221.166,428.542,1221.233,426.668,1221.513Z"/><ellipse class="cls-124" cx="798.713" cy="432.935" rx="419.303" ry="552.856" transform="translate(147.523 1066.438) rotate(-72.671)"/><circle class="cls-125" cx="271.128" cy="555.377" r="271.128"/></g></g></g></g></svg>