<svg xmlns="http://www.w3.org/2000/svg" xmlns:xlink="http://www.w3.org/1999/xlink" viewBox="0 0 1466.39 1490.259"><defs><style>.cls-1{fill:none;}.cls-2{isolation:isolate;}.cls-3{fill:url(#Áåçûìÿííûé_ãðàäèåíò_463);}.cls-4{fill:url(#Áåçûìÿííûé_ãðàäèåíò_461);}.cls-100,.cls-101,.cls-102,.cls-103,.cls-104,.cls-105,.cls-106,.cls-107,.cls-108,.cls-109,.cls-110,.cls-111,.cls-112,.cls-113,.cls-114,.cls-115,.cls-116,.cls-117,.cls-118,.cls-119,.cls-12,.cls-120,.cls-121,.cls-122,.cls-123,.cls-124,.cls-125,.cls-126,.cls-127,.cls-128,.cls-129,.cls-13,.cls-130,.cls-131,.cls-132,.cls-133,.cls-134,.cls-135,.cls-136,.cls-137,.cls-138,.cls-139,.cls-140,.cls-43,.cls-47,.cls-5,.cls-51,.cls-52,.cls-53,.cls-54,.cls-55,.cls-56,.cls-57,.cls-58,.cls-59,.cls-6,.cls-60,.cls-61,.cls-62,.cls-65,.cls-66,.cls-68,.cls-69,.cls-70,.cls-71,.cls-72,.cls-73,.cls-74,.cls-75,.cls-77,.cls-78,.cls-79,.cls-80,.cls-81,.cls-82,.cls-83,.cls-84,.cls-85,.cls-86,.cls-87,.cls-88,.cls-89,.cls-90,.cls-91,.cls-92,.cls-93,.cls-94,.cls-95,.cls-96,.cls-97,.cls-98,.cls-99{mix-blend-mode:screen;}.cls-5{fill:url(#Áåçûìÿííûé_ãðàäèåíò_497);}.cls-6{fill:url(#Áåçûìÿííûé_ãðàäèåíò_497-2);}.cls-11,.cls-38,.cls-39,.cls-40,.cls-44,.cls-45,.cls-7,.cls-8{opacity:0.56;}.cls-11,.cls-15,.cls-18,.cls-19,.cls-20,.cls-21,.cls-22,.cls-23,.cls-24,.cls-25,.cls-26,.cls-27,.cls-28,.cls-29,.cls-30,.cls-31,.cls-32,.cls-33,.cls-34,.cls-35,.cls-38,.cls-39,.cls-40,.cls-44,.cls-45,.cls-48,.cls-49,.cls-50,.cls-63,.cls-64,.cls-7,.cls-76,.cls-8{mix-blend-mode:multiply;}.cls-7{fill:url(#Áåçûìÿííûé_ãðàäèåíò_498);}.cls-8{fill:url(#Áåçûìÿííûé_ãðàäèåíò_498-2);}.cls-9{clip-path:url(#clip-path);}.cls-10{fill:url(#Áåçûìÿííûé_ãðàäèåíò_393);}.cls-11{fill:url(#Áåçûìÿííûé_ãðàäèåíò_498-3);}.cls-12{fill:url(#Áåçûìÿííûé_ãðàäèåíò_496);}.cls-13{fill:url(#Áåçûìÿííûé_ãðàäèåíò_496-2);}.cls-14{fill:url(#Áåçûìÿííûé_ãðàäèåíò_470);}.cls-15,.cls-18,.cls-19,.cls-20,.cls-21,.cls-22,.cls-23,.cls-24,.cls-25,.cls-26,.cls-27,.cls-28,.cls-29,.cls-30,.cls-31,.cls-32,.cls-33,.cls-34,.cls-35,.cls-48,.cls-49,.cls-50,.cls-63,.cls-64{opacity:0.67;}.cls-15{fill:url(#Áåçûìÿííûé_ãðàäèåíò_488);}.cls-16{fill:url(#Áåçûìÿííûé_ãðàäèåíò_397);}.cls-17{opacity:0.65;}.cls-18{fill:url(#Áåçûìÿííûé_ãðàäèåíò_466);}.cls-19{fill:url(#Áåçûìÿííûé_ãðàäèåíò_466-2);}.cls-20{fill:url(#Áåçûìÿííûé_ãðàäèåíò_466-3);}.cls-21{fill:url(#Áåçûìÿííûé_ãðàäèåíò_466-4);}.cls-22{fill:url(#Áåçûìÿííûé_ãðàäèåíò_466-5);}.cls-23{fill:url(#Áåçûìÿííûé_ãðàäèåíò_466-6);}.cls-24{fill:url(#Áåçûìÿííûé_ãðàäèåíò_466-7);}.cls-25{fill:url(#Áåçûìÿííûé_ãðàäèåíò_466-8);}.cls-26{fill:url(#Áåçûìÿííûé_ãðàäèåíò_466-9);}.cls-27{fill:url(#Áåçûìÿííûé_ãðàäèåíò_466-10);}.cls-28{fill:url(#Áåçûìÿííûé_ãðàäèåíò_466-11);}.cls-29{fill:url(#Áåçûìÿííûé_ãðàäèåíò_466-12);}.cls-30{fill:url(#Áåçûìÿííûé_ãðàäèåíò_466-13);}.cls-31{fill:url(#Áåçûìÿííûé_ãðàäèåíò_466-14);}.cls-32{fill:url(#Áåçûìÿííûé_ãðàäèåíò_466-15);}.cls-33{fill:url(#Áåçûìÿííûé_ãðàäèåíò_466-16);}.cls-34{fill:url(#Áåçûìÿííûé_ãðàäèåíò_466-17);}.cls-35{fill:url(#Áåçûìÿííûé_ãðàäèåíò_466-18);}.cls-36{clip-path:url(#clip-path-2);}.cls-37{fill:url(#Áåçûìÿííûé_ãðàäèåíò_393-2);}.cls-38{fill:url(#Áåçûìÿííûé_ãðàäèåíò_490);}.cls-39{fill:url(#Áåçûìÿííûé_ãðàäèåíò_498-4);}.cls-40{fill:url(#Áåçûìÿííûé_ãðàäèåíò_498-5);}.cls-41{clip-path:url(#clip-path-3);}.cls-42{fill:url(#Áåçûìÿííûé_ãðàäèåíò_393-3);}.cls-43{fill:url(#Áåçûìÿííûé_ãðàäèåíò_497-3);}.cls-44{fill:url(#Áåçûìÿííûé_ãðàäèåíò_498-6);}.cls-45{fill:url(#Áåçûìÿííûé_ãðàäèåíò_498-7);}.cls-46{fill:url(#Áåçûìÿííûé_ãðàäèåíò_501);}.cls-47{fill:url(#Áåçûìÿííûé_ãðàäèåíò_497-4);}.cls-48{fill:url(#Áåçûìÿííûé_ãðàäèåíò_466-19);}.cls-49{fill:url(#Áåçûìÿííûé_ãðàäèåíò_466-20);}.cls-50{fill:url(#Áåçûìÿííûé_ãðàäèåíò_466-21);}.cls-51{fill:url(#Áåçûìÿííûé_ãðàäèåíò_487);}.cls-52{fill:url(#Áåçûìÿííûé_ãðàäèåíò_487-2);}.cls-53{fill:url(#Áåçûìÿííûé_ãðàäèåíò_487-3);}.cls-54{fill:url(#Áåçûìÿííûé_ãðàäèåíò_487-4);}.cls-55{fill:url(#Áåçûìÿííûé_ãðàäèåíò_487-5);}.cls-56{fill:url(#Áåçûìÿííûé_ãðàäèåíò_487-6);}.cls-57{fill:url(#Áåçûìÿííûé_ãðàäèåíò_487-7);}.cls-58{fill:url(#Áåçûìÿííûé_ãðàäèåíò_487-8);}.cls-59{fill:url(#Áåçûìÿííûé_ãðàäèåíò_487-9);}.cls-60{fill:url(#Áåçûìÿííûé_ãðàäèåíò_487-10);}.cls-61{fill:url(#Áåçûìÿííûé_ãðàäèåíò_487-11);}.cls-62{fill:url(#Áåçûìÿííûé_ãðàäèåíò_487-12);}.cls-63{fill:url(#Áåçûìÿííûé_ãðàäèåíò_466-22);}.cls-64{fill:url(#Áåçûìÿííûé_ãðàäèåíò_466-23);}.cls-65{fill:url(#Áåçûìÿííûé_ãðàäèåíò_497-5);}.cls-66{fill:url(#Áåçûìÿííûé_ãðàäèåíò_496-3);}.cls-67{fill:#fff;}.cls-68{fill:url(#Áåçûìÿííûé_ãðàäèåíò_496-4);}.cls-69{fill:url(#Áåçûìÿííûé_ãðàäèåíò_496-5);}.cls-70{fill:url(#Áåçûìÿííûé_ãðàäèåíò_499);}.cls-71{fill:url(#Áåçûìÿííûé_ãðàäèåíò_496-6);}.cls-72{fill:url(#Áåçûìÿííûé_ãðàäèåíò_496-7);}.cls-73{fill:url(#Áåçûìÿííûé_ãðàäèåíò_497-6);}.cls-74{fill:url(#Áåçûìÿííûé_ãðàäèåíò_497-7);}.cls-75{fill:url(#Áåçûìÿííûé_ãðàäèåíò_497-8);}.cls-76{fill:#900040;opacity:0.29;}.cls-77{fill:url(#Áåçûìÿííûé_ãðàäèåíò_487-13);}.cls-78{fill:url(#Áåçûìÿííûé_ãðàäèåíò_500);}.cls-79,.cls-80,.cls-81,.cls-82,.cls-83,.cls-84{opacity:0.78;}.cls-79{fill:url(#radial-gradient);}.cls-80{fill:url(#radial-gradient-2);}.cls-81{fill:url(#radial-gradient-3);}.cls-82{fill:url(#radial-gradient-4);}.cls-83{fill:url(#radial-gradient-5);}.cls-84{fill:url(#radial-gradient-6);}.cls-100,.cls-101,.cls-102,.cls-103,.cls-104,.cls-105,.cls-106,.cls-107,.cls-108,.cls-109,.cls-110,.cls-111,.cls-112,.cls-113,.cls-114,.cls-115,.cls-116,.cls-117,.cls-118,.cls-119,.cls-120,.cls-121,.cls-122,.cls-123,.cls-124,.cls-125,.cls-126,.cls-127,.cls-128,.cls-129,.cls-130,.cls-131,.cls-132,.cls-133,.cls-134,.cls-135,.cls-136,.cls-137,.cls-138,.cls-139,.cls-140,.cls-85,.cls-86,.cls-87,.cls-88,.cls-89,.cls-90,.cls-91,.cls-92,.cls-93,.cls-94,.cls-95,.cls-96,.cls-97,.cls-98,.cls-99{opacity:0.68;}.cls-85{fill:url(#radial-gradient-7);}.cls-86{fill:url(#radial-gradient-8);}.cls-87{fill:url(#radial-gradient-9);}.cls-88{fill:url(#radial-gradient-10);}.cls-89{fill:url(#radial-gradient-11);}.cls-90{fill:url(#radial-gradient-12);}.cls-91{fill:url(#radial-gradient-13);}.cls-92{fill:url(#radial-gradient-14);}.cls-93{fill:url(#radial-gradient-15);}.cls-94{fill:url(#radial-gradient-16);}.cls-95{fill:url(#radial-gradient-17);}.cls-96{fill:url(#radial-gradient-18);}.cls-97{fill:url(#radial-gradient-19);}.cls-98{fill:url(#radial-gradient-20);}.cls-99{fill:url(#radial-gradient-21);}.cls-100{fill:url(#radial-gradient-22);}.cls-101{fill:url(#radial-gradient-23);}.cls-102{fill:url(#radial-gradient-24);}.cls-103{fill:url(#radial-gradient-25);}.cls-104{fill:url(#radial-gradient-26);}.cls-105{fill:url(#radial-gradient-27);}.cls-106{fill:url(#radial-gradient-28);}.cls-107{fill:url(#radial-gradient-29);}.cls-108{fill:url(#radial-gradient-30);}.cls-109{fill:url(#radial-gradient-31);}.cls-110{fill:url(#radial-gradient-32);}.cls-111{fill:url(#radial-gradient-33);}.cls-112{fill:url(#radial-gradient-34);}.cls-113{fill:url(#radial-gradient-35);}.cls-114{fill:url(#radial-gradient-36);}.cls-115{fill:url(#radial-gradient-37);}.cls-116{fill:url(#radial-gradient-38);}.cls-117{fill:url(#radial-gradient-39);}.cls-118{fill:url(#radial-gradient-40);}.cls-119{fill:url(#radial-gradient-41);}.cls-120{fill:url(#radial-gradient-42);}.cls-121{fill:url(#radial-gradient-43);}.cls-122{fill:url(#radial-gradient-44);}.cls-123{fill:url(#radial-gradient-45);}.cls-124{fill:url(#radial-gradient-46);}.cls-125{fill:url(#radial-gradient-47);}.cls-126{fill:url(#radial-gradient-48);}.cls-127{fill:url(#radial-gradient-49);}.cls-128{fill:url(#radial-gradient-50);}.cls-129{fill:url(#radial-gradient-51);}.cls-130{fill:url(#radial-gradient-52);}.cls-131{fill:url(#radial-gradient-53);}.cls-132{fill:url(#radial-gradient-54);}.cls-133{fill:url(#radial-gradient-55);}.cls-134{fill:url(#radial-gradient-56);}.cls-135{fill:url(#radial-gradient-57);}.cls-136{fill:url(#radial-gradient-58);}.cls-137{fill:url(#radial-gradient-59);}.cls-138{fill:url(#radial-gradient-60);}.cls-139{fill:url(#radial-gradient-61);}.cls-140{fill:url(#radial-gradient-62);}</style><linearGradient id="Áåçûìÿííûé_ãðàäèåíò_463" x1="967.592" y1="1130.77" x2="1017.962" y2="1066.678" gradientUnits="userSpaceOnUse"><stop offset="0" stop-color="#ff4f00"/><stop offset="0.241" stop-color="#ff7600"/><stop offset="0.761" stop-color="#ffc700"/><stop offset="1" stop-color="#ffe700"/></linearGradient><linearGradient id="Áåçûìÿííûé_ãðàäèåíò_461" x1="936.075" y1="941.154" x2="902.804" y2="1056.851" gradientUnits="userSpaceOnUse"><stop offset="0" stop-color="#ffe700"/><stop offset="0.239" stop-color="#ffc700"/><stop offset="0.759" stop-color="#ff7600"/><stop offset="1" stop-color="#ff4f00"/></linearGradient><linearGradient id="Áåçûìÿííûé_ãðàäèåíò_497" x1="925.859" y1="1037.785" x2="925.859" y2="970.072" gradientUnits="userSpaceOnUse"><stop offset="0"/><stop offset="1" stop-color="#ff7"/></linearGradient><linearGradient id="Áåçûìÿííûé_ãðàäèåíò_497-2" x1="993.87" y1="1130.549" x2="993.87" y2="1084.275" xlink:href="#Áåçûìÿííûé_ãðàäèåíò_497"/><linearGradient id="Áåçûìÿííûé_ãðàäèåíò_498" x1="973.182" y1="1156.825" x2="973.182" y2="1082.082" gradientUnits="userSpaceOnUse"><stop offset="0.1" stop-color="#9c006d"/><stop offset="0.164" stop-color="#9f0872"/><stop offset="0.262" stop-color="#a81e7e"/><stop offset="0.383" stop-color="#b64293"/><stop offset="0.522" stop-color="#c974af"/><stop offset="0.676" stop-color="#e2b3d4"/><stop offset="0.839" stop-color="#fff"/></linearGradient><linearGradient id="Áåçûìÿííûé_ãðàäèåíò_498-2" x1="915.265" y1="1076.082" x2="915.265" y2="987.631" xlink:href="#Áåçûìÿííûé_ãðàäèåíò_498"/><clipPath id="clip-path" transform="translate(40.902)"><path class="cls-1" d="M330.69,221.047c17.356-12.4,28.175,8.233,24.211,21.117s-4.361,22.768,32.233,15.952c62.58-11.657,140.5,88.229,38.039,156.389S290.2,351.985,320.26,301.063c24.5-41.5,31.29-39.266,11.657-46.015C317.412,250.062,319.033,229.379,330.69,221.047Z"/></clipPath><radialGradient id="Áåçûìÿííûé_ãðàäèåíò_393" cx="183.584" cy="362.414" r="74.842" gradientTransform="translate(757.126 166.346) rotate(95.299)" xlink:href="#Áåçûìÿííûé_ãðàäèåíò_461"/><linearGradient id="Áåçûìÿííûé_ãðàäèåíò_498-3" x1="392.182" y1="424.381" x2="392.182" y2="267.937" xlink:href="#Áåçûìÿííûé_ãðàäèåíò_498"/><linearGradient id="Áåçûìÿííûé_ãðàäèåíò_496" x1="991.681" y1="1145.258" x2="991.681" y2="1083.301" gradientUnits="userSpaceOnUse"><stop offset="0.184"/><stop offset="0.262" stop-color="#060603"/><stop offset="0.363" stop-color="#16160a"/><stop offset="0.478" stop-color="#313117"/><stop offset="0.602" stop-color="#575728"/><stop offset="0.734" stop-color="#87873f"/><stop offset="0.871" stop-color="#c1c15a"/><stop offset="1" stop-color="#ff7"/></linearGradient><linearGradient id="Áåçûìÿííûé_ãðàäèåíò_496-2" x1="920.328" y1="1049.382" x2="920.328" y2="955.503" xlink:href="#Áåçûìÿííûé_ãðàäèåíò_496"/><linearGradient id="Áåçûìÿííûé_ãðàäèåíò_470" x1="663.392" y1="1416.431" x2="663.392" y2="123.154" gradientUnits="userSpaceOnUse"><stop offset="0.06" stop-color="#592400"/><stop offset="0.354" stop-color="#672e06"/><stop offset="0.911" stop-color="#8d4717"/><stop offset="1" stop-color="#944b1a"/></linearGradient><linearGradient id="Áåçûìÿííûé_ãðàäèåíò_488" x1="663.392" y1="1416.431" x2="663.392" y2="317.182" gradientUnits="userSpaceOnUse"><stop offset="0" stop-color="#900040"/><stop offset="0.104" stop-color="#920544"/><stop offset="0.228" stop-color="#98134f"/><stop offset="0.361" stop-color="#a32c61"/><stop offset="0.502" stop-color="#b24d7a"/><stop offset="0.649" stop-color="#c4789a"/><stop offset="0.8" stop-color="#dbadc2"/><stop offset="0.952" stop-color="#f6eaef"/><stop offset="1" stop-color="#fff"/></linearGradient><linearGradient id="Áåçûìÿííûé_ãðàäèåíò_397" x1="735.207" y1="283.271" x2="735.207" y2="89.828" gradientUnits="userSpaceOnUse"><stop offset="0.063" stop-color="#ff4f00"/><stop offset="0.189" stop-color="#ff5b00"/><stop offset="0.418" stop-color="#ff7c00"/><stop offset="0.723" stop-color="#ffb100"/><stop offset="1" stop-color="#ffe700"/></linearGradient><linearGradient id="Áåçûìÿííûé_ãðàäèåíò_466" x1="168.362" y1="741.616" x2="168.362" y2="659.423" gradientUnits="userSpaceOnUse"><stop offset="0" stop-color="#fff"/><stop offset="0.048" stop-color="#f6eaef"/><stop offset="0.2" stop-color="#dbadc2"/><stop offset="0.351" stop-color="#c4789a"/><stop offset="0.498" stop-color="#b24d7a"/><stop offset="0.639" stop-color="#a32c61"/><stop offset="0.772" stop-color="#98134f"/><stop offset="0.896" stop-color="#920544"/><stop offset="1" stop-color="#900040"/></linearGradient><linearGradient id="Áåçûìÿííûé_ãðàäèåíò_466-2" x1="127.168" y1="681.82" x2="127.168" y2="652.204" xlink:href="#Áåçûìÿííûé_ãðàäèåíò_466"/><linearGradient id="Áåçûìÿííûé_ãðàäèåíò_466-3" x1="274.67" y1="867.004" x2="274.67" y2="725.727" xlink:href="#Áåçûìÿííûé_ãðàäèåíò_466"/><linearGradient id="Áåçûìÿííûé_ãðàäèåíò_466-4" x1="493.315" y1="1090.362" x2="493.315" y2="889.276" xlink:href="#Áåçûìÿííûé_ãðàäèåíò_466"/><linearGradient id="Áåçûìÿííûé_ãðàäèåíò_466-5" x1="398.219" y1="606.367" x2="398.219" y2="330.107" xlink:href="#Áåçûìÿííûé_ãðàäèåíò_466"/><linearGradient id="Áåçûìÿííûé_ãðàäèåíò_466-6" x1="279.41" y1="750.003" x2="279.41" y2="646.808" xlink:href="#Áåçûìÿííûé_ãðàäèåíò_466"/><linearGradient id="Áåçûìÿííûé_ãðàäèåíò_466-7" x1="191.992" y1="627.212" x2="191.992" y2="542.008" xlink:href="#Áåçûìÿííûé_ãðàäèåíò_466"/><linearGradient id="Áåçûìÿííûé_ãðàäèåíò_466-8" x1="207.879" y1="597.383" x2="207.879" y2="575.435" xlink:href="#Áåçûìÿííûé_ãðàäèåíò_466"/><linearGradient id="Áåçûìÿííûé_ãðàäèåíò_466-9" x1="909.515" y1="1178.745" x2="909.515" y2="1039.187" xlink:href="#Áåçûìÿííûé_ãðàäèåíò_466"/><linearGradient id="Áåçûìÿííûé_ãðàäèåíò_466-10" x1="706.909" y1="1416.431" x2="706.909" y2="987.631" xlink:href="#Áåçûìÿííûé_ãðàäèåíò_466"/><linearGradient id="Áåçûìÿííûé_ãðàäèåíò_466-11" x1="248.156" y1="1311.96" x2="248.156" y2="1253.998" xlink:href="#Áåçûìÿííûé_ãðàäèåíò_466"/><linearGradient id="Áåçûìÿííûé_ãðàäèåíò_466-12" x1="259.38" y1="1286.958" x2="259.38" y2="1260.309" xlink:href="#Áåçûìÿííûé_ãðàäèåíò_466"/><linearGradient id="Áåçûìÿííûé_ãðàäèåíò_466-13" x1="354.336" y1="1368.237" x2="354.336" y2="1303.951" xlink:href="#Áåçûìÿííûé_ãðàäèåíò_466"/><linearGradient id="Áåçûìÿííûé_ãðàäèåíò_466-14" x1="398.084" y1="1260.739" x2="398.084" y2="1173.781" xlink:href="#Áåçûìÿííûé_ãðàäèåíò_466"/><linearGradient id="Áåçûìÿííûé_ãðàäèåíò_466-15" x1="1103.58" y1="1416.431" x2="1103.58" y2="317.181" xlink:href="#Áåçûìÿííûé_ãðàäèåíò_466"/><linearGradient id="Áåçûìÿííûé_ãðàäèåíò_466-16" x1="1128.738" y1="1416.431" x2="1128.738" y2="317.184" xlink:href="#Áåçûìÿííûé_ãðàäèåíò_466"/><linearGradient id="Áåçûìÿííûé_ãðàäèåíò_466-17" x1="1005.153" y1="1416.431" x2="1005.153" y2="317.182" xlink:href="#Áåçûìÿííûé_ãðàäèåíò_466"/><linearGradient id="Áåçûìÿííûé_ãðàäèåíò_466-18" x1="1171.066" y1="1416.431" x2="1171.066" y2="317.184" xlink:href="#Áåçûìÿííûé_ãðàäèåíò_466"/><clipPath id="clip-path-2" transform="translate(40.902)"><path class="cls-1" d="M716.6,285.724c205.705-46.259,347.255,157.063,366.888,322.715s-78.531,414.742-436.83,376.7S203.69,401.067,716.6,285.724Z"/></clipPath><radialGradient id="Áåçûìÿííûé_ãðàäèåíò_393-2" cx="777.132" cy="621.936" fx="789.0056647741735" fy="532.4238575781989" r="330.848" xlink:href="#Áåçûìÿííûé_ãðàäèåíò_461"/><linearGradient id="Áåçûìÿííûé_ãðàäèåíò_490" x1="811.551" y1="518.523" x2="811.551" y2="166.701" gradientUnits="userSpaceOnUse"><stop offset="0.161" stop-color="#fff"/><stop offset="1" stop-color="#9c006d"/></linearGradient><linearGradient id="Áåçûìÿííûé_ãðàäèåíò_498-4" x1="720.436" y1="989.038" x2="720.436" y2="460.489" xlink:href="#Áåçûìÿííûé_ãðàäèåíò_498"/><linearGradient id="Áåçûìÿííûé_ãðàäèåíò_498-5" x1="375.515" y1="291.128" x2="375.515" y2="231.901" xlink:href="#Áåçûìÿííûé_ãðàäèåíò_498"/><clipPath id="clip-path-3" transform="translate(40.902)"><path class="cls-1" d="M179.149,840.351c15.608-6.771,111.175-54.6,237.435,42.947,174.71,134.984,116.523,309.83-61.683,307.376S107.367,1015.206,117.8,944.65,127,880.23,95.71,879s-49.7-39.266-25.768-66.874,63.806,0,65.647,31.29S156.522,850.167,179.149,840.351Z"/></clipPath><radialGradient id="Áåçûìÿííûé_ãðàäèåíò_393-3" cx="302.877" cy="957.125" r="208.394" xlink:href="#Áåçûìÿííûé_ãðàäèåíò_461"/><linearGradient id="Áåçûìÿííûé_ãðàäèåíò_497-3" x1="268.479" y1="1075.304" x2="268.479" y2="826.718" xlink:href="#Áåçûìÿííûé_ãðàäèåíò_497"/><linearGradient id="Áåçûìÿííûé_ãðàäèåíò_498-6" x1="138.808" y1="1015.036" x2="138.808" y2="813.87" xlink:href="#Áåçûìÿííûé_ãðàäèåíò_498"/><linearGradient id="Áåçûìÿííûé_ãðàäèåíò_498-7" x1="327.358" y1="1190.699" x2="327.358" y2="862.468" xlink:href="#Áåçûìÿííûé_ãðàäèåíò_498"/><linearGradient id="Áåçûìÿííûé_ãðàäèåíò_501" x1="652.534" y1="1511.928" x2="652.534" y2="429.674" gradientUnits="userSpaceOnUse"><stop offset="0.11" stop-color="#6f3100"/><stop offset="0.292" stop-color="#7d3a07"/><stop offset="0.632" stop-color="#a0521b"/><stop offset="1" stop-color="#ce7033"/></linearGradient><linearGradient id="Áåçûìÿííûé_ãðàäèåíò_497-4" x1="736.543" y1="642.622" x2="736.543" y2="310.816" xlink:href="#Áåçûìÿííûé_ãðàäèåíò_497"/><linearGradient id="Áåçûìÿííûé_ãðàäèåíò_466-19" x1="478.017" y1="1403.976" x2="478.017" y2="932.051" xlink:href="#Áåçûìÿííûé_ãðàäèåíò_466"/><linearGradient id="Áåçûìÿííûé_ãðàäèåíò_466-20" x1="701.73" y1="1320.127" x2="701.73" y2="556.891" xlink:href="#Áåçûìÿííûé_ãðàäèåíò_466"/><linearGradient id="Áåçûìÿííûé_ãðàäèåíò_466-21" x1="820.983" y1="1540.178" x2="820.983" y2="1467.285" xlink:href="#Áåçûìÿííûé_ãðàäèåíò_466"/><linearGradient id="Áåçûìÿííûé_ãðàäèåíò_487" x1="368.845" y1="402.264" x2="368.845" y2="338.03" gradientUnits="userSpaceOnUse"><stop offset="0" stop-color="#ff952c"/><stop offset="0.102" stop-color="#d07924"/><stop offset="0.234" stop-color="#995a1a"/><stop offset="0.368" stop-color="#6a3e12"/><stop offset="0.5" stop-color="#44280c"/><stop offset="0.63" stop-color="#261607"/><stop offset="0.758" stop-color="#110a03"/><stop offset="0.883" stop-color="#040301"/><stop offset="1"/></linearGradient><linearGradient id="Áåçûìÿííûé_ãðàäèåíò_487-2" x1="439.199" y1="398.24" x2="439.199" y2="321.202" xlink:href="#Áåçûìÿííûé_ãðàäèåíò_487"/><linearGradient id="Áåçûìÿííûé_ãðàäèåíò_487-3" x1="415.929" y1="396.814" x2="415.929" y2="370.792" xlink:href="#Áåçûìÿííûé_ãðàäèåíò_487"/><linearGradient id="Áåçûìÿííûé_ãðàäèåíò_487-4" x1="474.407" y1="1038.07" x2="474.407" y2="916.218" xlink:href="#Áåçûìÿííûé_ãðàäèåíò_487"/><linearGradient id="Áåçûìÿííûé_ãðàäèåíò_487-5" x1="285.376" y1="1189.294" x2="285.376" y2="1146.83" xlink:href="#Áåçûìÿííûé_ãðàäèåíò_487"/><linearGradient id="Áåçûìÿííûé_ãðàäèåíò_487-6" x1="373.91" y1="1107.615" x2="373.91" y2="949.893" xlink:href="#Áåçûìÿííûé_ãðàäèåíò_487"/><linearGradient id="Áåçûìÿííûé_ãðàäèåíò_487-7" x1="300.378" y1="1145.366" x2="300.378" y2="1095.01" xlink:href="#Áåçûìÿííûé_ãðàäèåíò_487"/><linearGradient id="Áåçûìÿííûé_ãðàäèåíò_487-8" x1="490.748" y1="904.443" x2="490.748" y2="601.417" xlink:href="#Áåçûìÿííûé_ãðàäèåíò_487"/><linearGradient id="Áåçûìÿííûé_ãðàäèåíò_487-9" x1="999.144" y1="914.984" x2="999.144" y2="649.283" xlink:href="#Áåçûìÿííûé_ãðàäèåíò_487"/><linearGradient id="Áåçûìÿííûé_ãðàäèåíò_487-10" x1="383.812" y1="813.638" x2="383.812" y2="567.379" xlink:href="#Áåçûìÿííûé_ãðàäèåíò_487"/><linearGradient id="Áåçûìÿííûé_ãðàäèåíò_487-11" x1="772.846" y1="947.729" x2="772.846" y2="544.946" xlink:href="#Áåçûìÿííûé_ãðàäèåíò_487"/><linearGradient id="Áåçûìÿííûé_ãðàäèåíò_487-12" x1="595.503" y1="961.728" x2="595.503" y2="808.239" xlink:href="#Áåçûìÿííûé_ãðàäèåíò_487"/><linearGradient id="Áåçûìÿííûé_ãðàäèåíò_466-22" x1="434.417" y1="1211.078" x2="434.417" y2="1021.665" xlink:href="#Áåçûìÿííûé_ãðàäèåíò_466"/><linearGradient id="Áåçûìÿííûé_ãðàäèåíò_466-23" x1="670.982" y1="1137.645" x2="670.982" y2="858.45" xlink:href="#Áåçûìÿííûé_ãðàäèåíò_466"/><linearGradient id="Áåçûìÿííûé_ãðàäèåíò_497-5" x1="722.347" y1="217.382" x2="722.347" y2="117.315" xlink:href="#Áåçûìÿííûé_ãðàäèåíò_497"/><linearGradient id="Áåçûìÿííûé_ãðàäèåíò_496-3" x1="723.744" y1="781.901" x2="723.744" y2="306.044" xlink:href="#Áåçûìÿííûé_ãðàäèåíò_496"/><linearGradient id="Áåçûìÿííûé_ãðàäèåíò_496-4" x1="723.6" y1="189.162" x2="723.6" y2="119.733" xlink:href="#Áåçûìÿííûé_ãðàäèåíò_496"/><linearGradient id="Áåçûìÿííûé_ãðàäèåíò_496-5" x1="339.441" y1="253.97" x2="339.441" y2="217.222" xlink:href="#Áåçûìÿííûé_ãðàäèåíò_496"/><linearGradient id="Áåçûìÿííûé_ãðàäèåíò_499" x1="382.969" y1="373.882" x2="382.969" y2="260.316" gradientUnits="userSpaceOnUse"><stop offset="0.376"/><stop offset="0.435" stop-color="#060603"/><stop offset="0.513" stop-color="#16160a"/><stop offset="0.601" stop-color="#313117"/><stop offset="0.696" stop-color="#575728"/><stop offset="0.797" stop-color="#87873f"/><stop offset="0.901" stop-color="#c1c15a"/><stop offset="1" stop-color="#ff7"/></linearGradient><linearGradient id="Áåçûìÿííûé_ãðàäèåíò_496-6" x1="93.103" y1="859.303" x2="93.103" y2="800.798" xlink:href="#Áåçûìÿííûé_ãðàäèåíò_496"/><linearGradient id="Áåçûìÿííûé_ãðàäèåíò_496-7" x1="351.225" y1="1092.17" x2="188.428" y2="826.816" xlink:href="#Áåçûìÿííûé_ãðàäèåíò_496"/><linearGradient id="Áåçûìÿííûé_ãðàäèåíò_497-6" x1="384.411" y1="345.238" x2="384.411" y2="260.604" xlink:href="#Áåçûìÿííûé_ãðàäèåíò_497"/><linearGradient id="Áåçûìÿííûé_ãðàäèåíò_497-7" x1="339.17" y1="246.418" x2="339.17" y2="217.942" xlink:href="#Áåçûìÿííûé_ãðàäèåíò_497"/><linearGradient id="Áåçûìÿííûé_ãðàäèåíò_497-8" x1="94.308" y1="854.617" x2="94.308" y2="802.191" xlink:href="#Áåçûìÿííûé_ãðàäèåíò_497"/><linearGradient id="Áåçûìÿííûé_ãðàäèåíò_487-13" x1="629.566" y1="1133.245" x2="730.173" y2="1233.852" xlink:href="#Áåçûìÿííûé_ãðàäèåíò_487"/><linearGradient id="Áåçûìÿííûé_ãðàäèåíò_500" x1="822.144" y1="1392.142" x2="822.144" y2="1257.957" gradientUnits="userSpaceOnUse"><stop offset="0"/><stop offset="0.117" stop-color="#040301"/><stop offset="0.242" stop-color="#110a03"/><stop offset="0.37" stop-color="#261607"/><stop offset="0.5" stop-color="#44280c"/><stop offset="0.632" stop-color="#6a3e12"/><stop offset="0.766" stop-color="#995a1a"/><stop offset="0.898" stop-color="#d07924"/><stop offset="1" stop-color="#ff952c"/></linearGradient><radialGradient id="radial-gradient" cx="805.838" cy="597.383" r="574.184" gradientUnits="userSpaceOnUse"><stop offset="0" stop-color="#ff0"/><stop offset="0.923" stop-opacity="0"/></radialGradient><radialGradient id="radial-gradient-2" cx="351.106" cy="989.819" r="310.204" gradientUnits="userSpaceOnUse"><stop offset="0" stop-color="#ff0"/><stop offset="0.209" stop-color="#c0c000" stop-opacity="0.751"/><stop offset="0.562" stop-color="#5a5a00" stop-opacity="0.351"/><stop offset="0.807" stop-color="#191900" stop-opacity="0.098"/><stop offset="0.923" stop-opacity="0"/></radialGradient><radialGradient id="radial-gradient-3" cx="383.812" cy="330.107" r="144.126" gradientTransform="translate(345.837 -174.71) rotate(45)" gradientUnits="userSpaceOnUse"><stop offset="0" stop-color="#ff0"/><stop offset="0.301" stop-color="#a8a800" stop-opacity="0.659"/><stop offset="0.732" stop-color="#303000" stop-opacity="0.189"/><stop offset="0.923" stop-opacity="0"/></radialGradient><radialGradient id="radial-gradient-4" cx="983.093" cy="1123.907" r="101.929" gradientTransform="translate(1082.663 -365.967) rotate(45)" gradientUnits="userSpaceOnUse"><stop offset="0" stop-color="#ff0"/><stop offset="0.016" stop-color="#fafa00" stop-opacity="0.981"/><stop offset="0.472" stop-color="#757500" stop-opacity="0.46"/><stop offset="0.782" stop-color="#212100" stop-opacity="0.129"/><stop offset="0.923" stop-opacity="0"/></radialGradient><radialGradient id="radial-gradient-5" cx="956.242" cy="1020.733" r="101.929" gradientTransform="matrix(1, 0, 0, 1, 0, 0)" xlink:href="#radial-gradient-4"/><radialGradient id="radial-gradient-6" cx="772.497" cy="796.366" r="693.893" gradientUnits="userSpaceOnUse"><stop offset="0" stop-color="#ffa200"/><stop offset="0.137" stop-color="#d78900" stop-opacity="0.845"/><stop offset="0.685" stop-color="#3e2700" stop-opacity="0.243"/><stop offset="0.923" stop-opacity="0"/></radialGradient><radialGradient id="radial-gradient-7" cx="915.971" cy="85.78" r="86.9" gradientTransform="matrix(-0.714, 0.701, -0.701, -0.714, 1846.466, 54.663)" gradientUnits="userSpaceOnUse"><stop offset="0" stop-color="#ff0"/><stop offset="0.11" stop-color="#c6c600" stop-opacity="0.777"/><stop offset="0.225" stop-color="#929200" stop-opacity="0.573"/><stop offset="0.343" stop-color="#656500" stop-opacity="0.397"/><stop offset="0.459" stop-color="#414100" stop-opacity="0.254"/><stop offset="0.576" stop-color="#242400" stop-opacity="0.143"/><stop offset="0.692" stop-color="#101000" stop-opacity="0.063"/><stop offset="0.808" stop-color="#040400" stop-opacity="0.016"/><stop offset="0.923" stop-opacity="0"/></radialGradient><radialGradient id="radial-gradient-8" cx="813.808" cy="436.527" r="86.9" gradientTransform="translate(547.03 -447.594) rotate(45)" xlink:href="#radial-gradient-7"/><radialGradient id="radial-gradient-9" cx="470.233" cy="733.813" r="86.9" gradientTransform="matrix(1, 0, 0, 1, 0, 0)" xlink:href="#radial-gradient-7"/><radialGradient id="radial-gradient-10" cx="840.27" cy="342.282" r="86.9" gradientTransform="translate(488.139 -493.909) rotate(45)" xlink:href="#radial-gradient-7"/><radialGradient id="radial-gradient-11" cx="596.2" cy="361.942" r="86.9" gradientTransform="translate(430.554 -315.567) rotate(45)" xlink:href="#radial-gradient-7"/><radialGradient id="radial-gradient-12" cx="1018.431" cy="385.772" r="86.9" gradientTransform="matrix(1, 0, 0, 1, 0, 0)" xlink:href="#radial-gradient-7"/><radialGradient id="radial-gradient-13" cx="386.806" cy="1111.712" r="86.9" gradientTransform="translate(899.392 52.099) rotate(45)" xlink:href="#radial-gradient-7"/><radialGradient id="radial-gradient-14" cx="212.896" cy="1050.287" r="86.901" gradientTransform="translate(304.991 -57.468) rotate(11.172)" xlink:href="#radial-gradient-7"/><radialGradient id="radial-gradient-15" cx="586.866" cy="901.17" r="86.9" gradientTransform="matrix(1, 0, 0, 1, 0, 0)" xlink:href="#radial-gradient-7"/><radialGradient id="radial-gradient-16" cx="629.743" cy="1041.149" r="86.9" gradientTransform="matrix(1, 0, 0, 1, 0, 0)" xlink:href="#radial-gradient-7"/><radialGradient id="radial-gradient-17" cx="647.433" cy="229.855" r="86.9" gradientTransform="matrix(1, 0, 0, 1, 0, 0)" xlink:href="#radial-gradient-7"/><radialGradient id="radial-gradient-18" cx="759.273" cy="1070.414" r="86.9" gradientTransform="translate(979.283 -223.37) rotate(45)" xlink:href="#radial-gradient-7"/><radialGradient id="radial-gradient-19" cx="222.313" cy="1191.684" r="86.9" gradientTransform="translate(907.762 191.837) rotate(45)" xlink:href="#radial-gradient-7"/><radialGradient id="radial-gradient-20" cx="430.341" cy="552.828" r="86.9" gradientTransform="translate(516.952 -142.377) rotate(45)" xlink:href="#radial-gradient-7"/><radialGradient id="radial-gradient-21" cx="396.251" cy="416.513" r="86.9" gradientTransform="matrix(1, 0, 0, 1, 0, 0)" xlink:href="#radial-gradient-7"/><radialGradient id="radial-gradient-22" cx="1080.783" cy="243.608" r="86.9" gradientTransform="matrix(-0.043, 0.999, -0.999, -0.043, 1417.766, -206.014)" xlink:href="#radial-gradient-7"/><radialGradient id="radial-gradient-23" cx="1218.599" cy="1011.086" r="86.9" gradientTransform="translate(1071.865 -565.54) rotate(45)" xlink:href="#radial-gradient-7"/><radialGradient id="radial-gradient-24" cx="1058.558" cy="297.432" r="86.9" gradientTransform="translate(1943.438 211.256) rotate(126.631)" xlink:href="#radial-gradient-7"/><radialGradient id="radial-gradient-25" cx="180.755" cy="940.978" r="86.9" gradientTransform="translate(718.314 147.793) rotate(45)" xlink:href="#radial-gradient-7"/><radialGradient id="radial-gradient-26" cx="424.864" cy="267.937" r="86.9" gradientTransform="translate(313.9 -221.947) rotate(45)" xlink:href="#radial-gradient-7"/><radialGradient id="radial-gradient-27" cx="747.877" cy="314.004" r="86.9" gradientTransform="matrix(1, 0, 0, 1, 0, 0)" xlink:href="#radial-gradient-7"/><radialGradient id="radial-gradient-28" cx="813.747" cy="145.437" r="86.9" gradientTransform="matrix(1, 0, 0, 1, 0, 0)" xlink:href="#radial-gradient-7"/><radialGradient id="radial-gradient-29" cx="812.447" cy="648.494" r="40.429" gradientTransform="translate(1256.932 -291.213) rotate(76.717)" xlink:href="#radial-gradient-7"/><radialGradient id="radial-gradient-30" cx="840.943" cy="595.331" r="40.429" gradientTransform="translate(1227.14 -359.894) rotate(76.717)" xlink:href="#radial-gradient-7"/><radialGradient id="radial-gradient-31" cx="395.349" cy="308.366" r="40.429" gradientTransform="translate(636.406 -131.273) rotate(80.783)" xlink:href="#radial-gradient-7"/><radialGradient id="radial-gradient-32" cx="143.917" cy="867.04" r="40.429" gradientTransform="translate(954.698 527.768) rotate(76.717)" xlink:href="#radial-gradient-7"/><radialGradient id="radial-gradient-33" cx="175.295" cy="566.203" r="40.429" gradientTransform="translate(686.076 265.511) rotate(76.717)" xlink:href="#radial-gradient-7"/><radialGradient id="radial-gradient-34" cx="229.344" cy="1105.308" r="40.429" gradientTransform="translate(440.441 -3.63) rotate(22.5)" xlink:href="#radial-gradient-7"/><radialGradient id="radial-gradient-35" cx="229.344" cy="1064.879" r="40.429" gradientTransform="translate(1243.736 667.922) rotate(80.783)" xlink:href="#radial-gradient-7"/><radialGradient id="radial-gradient-36" cx="786.207" cy="58.561" r="40.429" gradientTransform="matrix(0.676, 0.737, -0.737, 0.676, 617.65, -97.833)" xlink:href="#radial-gradient-7"/><radialGradient id="radial-gradient-37" cx="502.159" cy="1116.801" r="40.429" gradientTransform="translate(1473.712 371.487) rotate(76.717)" xlink:href="#radial-gradient-7"/><radialGradient id="radial-gradient-38" cx="208.921" cy="1118.105" r="40.429" gradientTransform="translate(1249.115 657.885) rotate(76.717)" xlink:href="#radial-gradient-7"/><radialGradient id="radial-gradient-39" cx="129.638" cy="1143.344" r="40.429" gradientTransform="translate(846.436 243.21) rotate(45)" xlink:href="#radial-gradient-7"/><radialGradient id="radial-gradient-40" cx="651.317" cy="1169.052" r="40.429" gradientTransform="translate(1017.411 -118.143) rotate(45)" xlink:href="#radial-gradient-7"/><radialGradient id="radial-gradient-41" cx="1145.254" cy="351.546" r="40.429" gradientTransform="matrix(-0.043, 0.999, -0.999, -0.043, 1492.423, -145.302)" xlink:href="#radial-gradient-7"/><radialGradient id="radial-gradient-42" cx="976.615" cy="143.422" r="40.429" gradientTransform="translate(1072.977 -266.58) rotate(78.261)" xlink:href="#radial-gradient-7"/><radialGradient id="radial-gradient-43" cx="970.705" cy="316.047" r="40.429" gradientTransform="translate(1055.275 -701.303) rotate(76.717)" xlink:href="#radial-gradient-7"/><radialGradient id="radial-gradient-44" cx="839.974" cy="1025.093" r="40.429" gradientTransform="translate(970.873 -293.709) rotate(45)" xlink:href="#radial-gradient-7"/><radialGradient id="radial-gradient-45" cx="193.855" cy="-6.789" r="40.429" gradientTransform="matrix(0.676, 0.737, -0.737, 0.676, 617.65, -97.833)" xlink:href="#radial-gradient-7"/><radialGradient id="radial-gradient-46" cx="183.612" cy="39.545" r="40.429" gradientTransform="matrix(0.676, 0.737, -0.737, 0.676, 617.65, -97.833)" xlink:href="#radial-gradient-7"/><radialGradient id="radial-gradient-47" cx="1056.749" cy="1234.858" r="40.429" gradientTransform="translate(1182.691 -385.553) rotate(45)" xlink:href="#radial-gradient-7"/><radialGradient id="radial-gradient-48" cx="191.305" cy="671.664" r="40.429" gradientTransform="translate(801.048 331.16) rotate(76.717)" xlink:href="#radial-gradient-7"/><radialGradient id="radial-gradient-49" cx="752.583" cy="904.707" r="40.429" gradientTransform="translate(1460.18 -35.603) rotate(76.717)" xlink:href="#radial-gradient-7"/><radialGradient id="radial-gradient-50" cx="630.744" cy="451.006" r="40.429" gradientTransform="translate(924.77 -266.485) rotate(76.717)" xlink:href="#radial-gradient-7"/><radialGradient id="radial-gradient-51" cx="440.609" cy="438.333" r="40.429" gradientTransform="translate(201.282 -135.247) rotate(22.5)" xlink:href="#radial-gradient-7"/><radialGradient id="radial-gradient-52" cx="274.58" cy="564.241" r="40.429" gradientTransform="translate(760.641 167.371) rotate(76.717)" xlink:href="#radial-gradient-7"/><radialGradient id="radial-gradient-53" cx="760.557" cy="118.478" r="40.429" gradientTransform="translate(964.839 -226.041) rotate(78.261)" xlink:href="#radial-gradient-7"/><radialGradient id="radial-gradient-54" cx="1001.948" cy="464.079" r="40.429" gradientTransform="translate(621.617 -572.559) rotate(45)" xlink:href="#radial-gradient-7"/><radialGradient id="radial-gradient-55" cx="999.405" cy="197.891" r="40.429" gradientTransform="matrix(0.676, 0.737, -0.737, 0.676, 617.65, -97.833)" xlink:href="#radial-gradient-7"/><radialGradient id="radial-gradient-56" cx="704.279" cy="953.88" r="40.429" gradientTransform="matrix(1, 0, 0, 1, 0, 0)" xlink:href="#radial-gradient-7"/><radialGradient id="radial-gradient-57" cx="794.903" cy="971.584" r="40.429" gradientTransform="translate(919.835 -277.511) rotate(45)" xlink:href="#radial-gradient-7"/><radialGradient id="radial-gradient-58" cx="889.569" cy="894.154" r="40.429" gradientTransform="translate(892.811 -367.129) rotate(45)" xlink:href="#radial-gradient-7"/><radialGradient id="radial-gradient-59" cx="238.461" cy="738.206" r="40.429" gradientTransform="translate(591.834 47.598) rotate(45)" xlink:href="#radial-gradient-7"/><radialGradient id="radial-gradient-60" cx="988.77" cy="947.441" r="40.429" gradientTransform="translate(959.546 -421.667) rotate(45)" xlink:href="#radial-gradient-7"/><radialGradient id="radial-gradient-61" cx="623.974" cy="150.265" r="40.429" gradientTransform="translate(626.86 -491.54) rotate(76.717)" xlink:href="#radial-gradient-7"/><radialGradient id="radial-gradient-62" cx="1164.925" cy="1089.546" r="40.429" gradientTransform="translate(1111.624 -504.606) rotate(45)" xlink:href="#radial-gradient-7"/></defs><title>plant-3</title><g class="cls-2"><g id="Layer_2" data-name="Layer 2"><g id="plants"><g id="plant-3"><path class="cls-3" d="M965.075,1156.316s46.014,7.976,52.763-38.038-74.237-51.536-80.372-3.068S965.075,1156.316,965.075,1156.316Z" transform="translate(40.902)"/><path class="cls-4" d="M877.954,1063.061s-46.014-26.382-13.5-80.986,115.079-14.747,113.022,26.382C974.278,1072.469,906.79,1091.9,877.954,1063.061Z" transform="translate(40.902)"/><path class="cls-5" d="M915.174,1034.838c51.172,16.633,81.8-41.719,36.4-60.739S833.062,1008.15,915.174,1034.838Z" transform="translate(40.902)"/><path class="cls-6" d="M993.3,1085.454c32.517,7.6,30.07,45.309,5.847,45.094S951.271,1075.638,993.3,1085.454Z" transform="translate(40.902)"/><path class="cls-7" d="M937.466,1115.21c-6.135,48.468,27.609,41.106,27.609,41.106s29.314,5.007,44.569-16.393c-23.507,25.376-67.511-47.443-38.363-57.841C954.923,1084.814,939.966,1095.458,937.466,1115.21Z" transform="translate(40.902)"/><path class="cls-8" d="M877.954,1063.06c28.836,28.836,96.323,9.409,99.525-54.6a32.225,32.225,0,0,0-1.24-10.278c5.8,38.283-45.879,60.572-89.389,47.4-43.56-13.191-19.632-57.944-19.632-57.944h-5.681C835.323,1038.414,877.954,1063.06,877.954,1063.06Z" transform="translate(40.902)"/><g class="cls-9"><circle class="cls-10" cx="379.3" cy="315.68" r="108.776" transform="translate(-71.224 360.666) rotate(-45)"/></g><path class="cls-11" d="M469.04,330.107c-4.55-20.464-51.536-45.3-51.536-45.3,36.488,25.655,40.186,50.309,33.256,70.405s-36.017,33.588-29.676,17.023-2.353-36.506-2.353-36.506c7.056,28.222-28.222,50-28.222,50s-40.411-19.013-36.569-47.7c3.151-23.521,7.36-31.047,8.775-33-27.98,31.324-25.89,80.7-25.89,80.7s-32.181-4.6-24.983-61.868c-6.035,28.8-.236,65.8,17.979,88.689a108.907,108.907,0,0,0,96.645,1.033c75.308-51.1,50.6-119.52,7.22-145.646C455.954,286.03,469.04,330.107,469.04,330.107Z" transform="translate(40.902)"/><path class="cls-12" d="M965.128,1113.453c8.411,21.055,30.233,41.887,44.515,26.471,3.845-5.392,6.837-12.385,8.195-21.646,2.738-18.673-9.034-30.543-24.325-34.977C1027.411,1093.665,983.569,1145.081,965.128,1113.453Z" transform="translate(40.902)"/><path class="cls-13" d="M915.341,977.781c38.074,16.258-36,77.7-51.372,50.395,3.542,7.189,10.369,13.61,22.881,17.4,43.509,13.176,95.185-9.113,89.389-47.4-10.031-36.025-78.687-64.709-109.624-19.382C880.43,975.356,896.352,969.672,915.341,977.781Z" transform="translate(40.902)"/><path class="cls-14" d="M913.387,1399.457a3.2,3.2,0,0,0,1.465-5.931c-27.12-17.805-54.35-75.846-30.149-90.577,28.222-17.179,73.623,2.481,119.024,47.869s92.029,13.44,111.661-54.026-63.806-41.741-45.4,0c0,0-3.954-23.579,19.633-29.428s-11.043,97.346-38.447,99.8-40.084-53.99-75.668-93.664c-31.061-34.631-103.879-50.875-136.581-21.533a3.15,3.15,0,0,1-5.047-3.541c5.067-12.2,13.2-26.526,24.649-31.371,21.269-9,65.034.818,82.621-14.724s10.635-22.5,11.862-35.585c1.193-12.728,19.793,5.876,33.606-18.3a3.2,3.2,0,0,0-.513-3.846c-4.59-4.451-17.928-16.163-31.358-16.324a3.079,3.079,0,0,1-2.941-3.985c1.772-5.7,3.643-15.821-1.858-23.626a3.139,3.139,0,0,0-4.394-.537c-7.411,5.392-27.171,23.52-6.858,52.3,21.024,29.784-41.1,33.752-59.342,34.278a3.157,3.157,0,0,1-3.072-4.3c4.58-11.823,15.517-45.011,3.925-67.2-10.859-20.787-6.186-27.924-3.3-30.159a3.142,3.142,0,0,1,2.888-.529c9.1,2.785,66.514,17.658,97.967-39.47a3.249,3.249,0,0,0-2.592-4.765c-14.23-1.071-56.827-1.754-86.353,24.376a3.151,3.151,0,0,1-5.231-1.693c-1.969-9.292-9.352-27.885-36.862-45.364a3.184,3.184,0,0,0-4.88,2.769c.455,12.8,3.033,43.34,17.09,55.161,18,15.133.409,17.587,8.18,45.4,6.962,24.915-24.148,71.162-74.514,99.347-3.167,1.773-6.463-2.175-4.023-4.861,19.1-21.024,47.822-63.181,23.32-107.574-34.766-62.989,55.343-142.9,100.272-133.417s20.388,33.412,68.243,9.485,41.72-12.271,41.106,24.541,23.928,46.628,100,33.744,50.922,106.14,15.338,126.386-58.9-1.227-57.058-19.633,36.811-8.589,44.787,3.068c0,0-44.174-46.015-63.193-1.841s39.266,85.28,103.072,37.425,28.223-129.454-9.816-147.246-106.14-1.227-104.913-38.652c1.18-35.991,25.056-78.223-22.77-75.95a3.155,3.155,0,0,1-2.744-4.907c8.706-12.8,33.151-40.212,56.8,11.529C1110.48,996.8,1173.06,995.573,1206.19,906S1174.9,793.11,1143,815.81s21.473,41.72,21.473,41.72-23.927-14.111-11.043-28.836,63.807,15.338,47.241,72.4-67.487,74.85-79.758,46.014c-11.775-27.671-12.815-78.507-45.953-79.314a3.126,3.126,0,0,1-3.157-3.9c6.153-21.808,32.574-127.733-2.426-229.853C1030.9,521.783,823.356,878.275,815.02,892.667a2.288,2.288,0,0,0-.324.958c-1.044,8.179-14.41,112.407-23.249,157.779-9.2,47.241,21.474,57.671,9.2,98.164-10.122,33.4-39.867,45.514-49.972,48.73a3.059,3.059,0,0,1-3.98-2.407c-3.138-17.7-19.2-99.794-50.347-120.56-34.971-23.314-47.651-24.745-38.652-60.739s-16.361-25.554-16.361-25.554-6.544,50.1,0,66.456,53.99,18.815,59.717,86.711c5.032,59.668-13.943,58.055-18.616,56.788a2.753,2.753,0,0,1-1.524-1c-4.656-5.944-40.734-50.557-79.66-57.427-41.72-7.362-34.358-26.995-18.815-54.808s-.818-169.333-117.388-241.729c-115.48-71.719-25.039-346.348-40.04-412.318a2.852,2.852,0,0,1,.976-2.95c9.865-8.071,66.4-57.852,28.882-110.275a3.2,3.2,0,0,0-5.661,2.713c5.479,18.933,6.9,50.05-27.34,77.038a3.234,3.234,0,0,1-5.064-1.426c-1.154-3.677-1.257-11.134,4.28-26.021a3.188,3.188,0,0,0-4.383-4c-9.6,4.829-25.3,15.32-25.01,32.181a3.194,3.194,0,0,1-4.083,3c-10.589-3.017-36.284-15.368-33.669-63.944a3.163,3.163,0,0,0-5.706-2.109c-9.361,13.357-24.518,41.22-17.544,74.349,8.556,40.64,60.455,31.411,73.644,28.37a3.118,3.118,0,0,1,3.807,2.556c1.388,8.515,2.33,33.788-20.675,80.04-28.6,57.492-120.12,161.208-72.637,263.338a3.148,3.148,0,0,1-3.1,4.542c-19.167-1.776-79.806-13.644-34.418-92.943,53.377-93.256,51.536-165.039-41.719-165.652s-120.865,77.3-55.831,93.869,69.942-44.787,50.309-54.6-35.585,14.724-35.585,14.724,14.725-3.681,7.363,7.976-42.334-3.068-26.382-27,78.984-49.7,114.955-10.43-32.742,109.821-57.9,136.816c-23.511,25.232-26.119,60.647-18.344,82.2a3.155,3.155,0,0,1-2.945,4.347c-16.48-.255-70.046-4.578-62.764-50.348,8.589-53.99,71.783-45.4,23.314-82.826s-69.942,28.836-56.444,34.971,27.608-7.362,27.608-7.362-15.93,5.712-20.859-7.976,30.743-29.762,49.081-14.725,13.5,22.087-27,51.536c-40.416,29.394-40.492,87.515,83.35,95.055a2.577,2.577,0,0,1,1.219.353c4.495,2.681,38.515,22.34,107.465,45.7,70.961,24.045,125.665,141.86,130.354,152.21a2.514,2.514,0,0,0,1.009,1.169c4.559,2.924,31.105,19.515,54.261,24.543,25.428,5.522,50.583,13.5,29.109,63.193s-16.565,54.6-16.565,54.6-18.156-12.419-6.338-36.588,19.836-65.257-10.84-69.552c-27.433-3.84-124.113,85.275-144.251,104.162a3.143,3.143,0,0,0,1.093,5.257c17.866,6.56,81.832,29.543,124.752,38.441,50.309,10.43,63.806-16.565,129.454,47.241,0,0-72.811-50.013-128.741-10.282s-84.766,35.437-116.056-11.805-105.526-44.787-149.7-3.681-53.377,116.57,21.473,109.821,27-64.42,5.522-66.261-16.565,27.609-16.565,27.609,14.111-11.043,21.473,4.908-43.56,14.725-33.744-27,40.493-85.893,100.619-67.488,66.874,92.029,125.772,74.851c41.191-12.014,51.774-17.427,61.13-17.287a3.182,3.182,0,0,1,1.175,6.086c-8.673,3.681-19.938,12.007-27.334,30.833-13.5,34.358,43.56,76.077-17.792,98.164s-149.087-1.227-142.951-40.492,58.284-15.338,48.468,4.294c0,0,17.792-20.86-12.27-41.106s-96.937,9.817-61.966,69.328,155.221,31.9,193.873-.613,3.068-68.715,17.793-87.734,42.333-31.29,83.439-17.792,59.512,26.381,57.058,59.512-2.774,79.19-47.242,90.188,70.556,0,70.556,0Z" transform="translate(40.902)"/><path class="cls-15" d="M913.387,1399.457a3.2,3.2,0,0,0,1.465-5.931c-27.12-17.805-54.35-75.846-30.149-90.577,28.222-17.179,73.623,2.481,119.024,47.869s92.029,13.44,111.661-54.026-63.806-41.741-45.4,0c0,0-3.954-23.579,19.633-29.428s-11.043,97.346-38.447,99.8-40.084-53.99-75.668-93.664c-31.061-34.631-103.879-50.875-136.581-21.533a3.15,3.15,0,0,1-5.047-3.541c5.067-12.2,13.2-26.526,24.649-31.371,21.269-9,65.034.818,82.621-14.724s10.635-22.5,11.862-35.585c1.193-12.728,19.793,5.876,33.606-18.3a3.2,3.2,0,0,0-.513-3.846c-4.59-4.451-17.928-16.163-31.358-16.324a3.079,3.079,0,0,1-2.941-3.985c1.772-5.7,3.643-15.821-1.858-23.626a3.139,3.139,0,0,0-4.394-.537c-7.411,5.392-27.171,23.52-6.858,52.3,21.024,29.784-41.1,33.752-59.342,34.278a3.157,3.157,0,0,1-3.072-4.3c4.58-11.823,15.517-45.011,3.925-67.2-10.859-20.787-6.186-27.924-3.3-30.159a3.142,3.142,0,0,1,2.888-.529c9.1,2.785,66.514,17.658,97.967-39.47a3.249,3.249,0,0,0-2.592-4.765c-14.23-1.071-56.827-1.754-86.353,24.376a3.151,3.151,0,0,1-5.231-1.693c-1.969-9.292-9.352-27.885-36.862-45.364a3.184,3.184,0,0,0-4.88,2.769c.455,12.8,3.033,43.34,17.09,55.161,18,15.133.409,17.587,8.18,45.4,6.962,24.915-24.148,71.162-74.514,99.347-3.167,1.773-6.463-2.175-4.023-4.861,19.1-21.024,47.822-63.181,23.32-107.574-34.766-62.989,55.343-142.9,100.272-133.417s20.388,33.412,68.243,9.485,41.72-12.271,41.106,24.541,23.928,46.628,100,33.744,50.922,106.14,15.338,126.386-58.9-1.227-57.058-19.633,36.811-8.589,44.787,3.068c0,0-44.174-46.015-63.193-1.841s39.266,85.28,103.072,37.425,28.223-129.454-9.816-147.246-106.14-1.227-104.913-38.652c1.18-35.991,25.056-78.223-22.77-75.95a3.155,3.155,0,0,1-2.744-4.907c8.706-12.8,33.151-40.212,56.8,11.529C1110.48,996.8,1173.06,995.573,1206.19,906S1174.9,793.11,1143,815.81s21.473,41.72,21.473,41.72-23.927-14.111-11.043-28.836,63.807,15.338,47.241,72.4-67.487,74.85-79.758,46.014c-11.775-27.671-12.815-78.507-45.953-79.314a3.126,3.126,0,0,1-3.157-3.9c6.153-21.808,32.574-127.733-2.426-229.853C1030.9,521.783,823.356,878.275,815.02,892.667a2.288,2.288,0,0,0-.324.958c-1.044,8.179-14.41,112.407-23.249,157.779-9.2,47.241,21.474,57.671,9.2,98.164-10.122,33.4-39.867,45.514-49.972,48.73a3.059,3.059,0,0,1-3.98-2.407c-3.138-17.7-19.2-99.794-50.347-120.56-34.971-23.314-47.651-24.745-38.652-60.739s-16.361-25.554-16.361-25.554-6.544,50.1,0,66.456,53.99,18.815,59.717,86.711c5.032,59.668-13.943,58.055-18.616,56.788a2.753,2.753,0,0,1-1.524-1c-4.656-5.944-40.734-50.557-79.66-57.427-41.72-7.362-34.358-26.995-18.815-54.808s-.818-169.333-117.388-241.729c-115.48-71.719-25.039-346.348-40.04-412.318a2.852,2.852,0,0,1,.976-2.95c9.865-8.071,66.4-57.852,28.882-110.275a3.2,3.2,0,0,0-5.661,2.713c5.479,18.933,6.9,50.05-27.34,77.038a3.234,3.234,0,0,1-5.064-1.426c-1.154-3.677-1.257-11.134,4.28-26.021a3.188,3.188,0,0,0-4.383-4c-9.6,4.829-25.3,15.32-25.01,32.181a3.194,3.194,0,0,1-4.083,3c-10.589-3.017-36.284-15.368-33.669-63.944a3.163,3.163,0,0,0-5.706-2.109c-9.361,13.357-24.518,41.22-17.544,74.349,8.556,40.64,60.455,31.411,73.644,28.37a3.118,3.118,0,0,1,3.807,2.556c1.388,8.515,2.33,33.788-20.675,80.04-28.6,57.492-120.12,161.208-72.637,263.338a3.148,3.148,0,0,1-3.1,4.542c-19.167-1.776-79.806-13.644-34.418-92.943,53.377-93.256,51.536-165.039-41.719-165.652s-120.865,77.3-55.831,93.869,69.942-44.787,50.309-54.6-35.585,14.724-35.585,14.724,14.725-3.681,7.363,7.976-42.334-3.068-26.382-27,78.984-49.7,114.955-10.43-32.742,109.821-57.9,136.816c-23.511,25.232-26.119,60.647-18.344,82.2a3.155,3.155,0,0,1-2.945,4.347c-16.48-.255-70.046-4.578-62.764-50.348,8.589-53.99,71.783-45.4,23.314-82.826s-69.942,28.836-56.444,34.971,27.608-7.362,27.608-7.362-15.93,5.712-20.859-7.976,30.743-29.762,49.081-14.725,13.5,22.087-27,51.536c-40.416,29.394-40.492,87.515,83.35,95.055a2.577,2.577,0,0,1,1.219.353c4.495,2.681,38.515,22.34,107.465,45.7,70.961,24.045,125.665,141.86,130.354,152.21a2.514,2.514,0,0,0,1.009,1.169c4.559,2.924,31.105,19.515,54.261,24.543,25.428,5.522,50.583,13.5,29.109,63.193s-16.565,54.6-16.565,54.6-18.156-12.419-6.338-36.588,19.836-65.257-10.84-69.552c-27.433-3.84-124.113,85.275-144.251,104.162a3.143,3.143,0,0,0,1.093,5.257c17.866,6.56,81.832,29.543,124.752,38.441,50.309,10.43,63.806-16.565,129.454,47.241,0,0-72.811-50.013-128.741-10.282s-84.766,35.437-116.056-11.805-105.526-44.787-149.7-3.681-53.377,116.57,21.473,109.821,27-64.42,5.522-66.261-16.565,27.609-16.565,27.609,14.111-11.043,21.473,4.908-43.56,14.725-33.744-27,40.493-85.893,100.619-67.488,66.874,92.029,125.772,74.851c41.191-12.014,51.774-17.427,61.13-17.287a3.182,3.182,0,0,1,1.175,6.086c-8.673,3.681-19.938,12.007-27.334,30.833-13.5,34.358,43.56,76.077-17.792,98.164s-149.087-1.227-142.951-40.492,58.284-15.338,48.468,4.294c0,0,17.792-20.86-12.27-41.106s-96.937,9.817-61.966,69.328,155.221,31.9,193.873-.613,3.068-68.715,17.793-87.734,42.333-31.29,83.439-17.792,59.512,26.381,57.058,59.512-2.774,79.19-47.242,90.188,70.556,0,70.556,0Z" transform="translate(40.902)"/><path class="cls-16" d="M821.11,283.368c-85.9-12.368-76.291-36.909-48.069-99.489s-66.26-92.028-92.028-39.265,113.863,115.7-27.735,158.47S737.194,447.7,737.194,447.7L863.843,338.488Z" transform="translate(40.902)"/><g class="cls-17"><path class="cls-18" d="M182.831,674.086c-11.044,9.2-42.6,30.676-34.726,67,.044.2.105.337.151.528a46.367,46.367,0,0,1,.217-13.54c7.292-45.834,53.9-46.581,38.173-68.653C189.009,664.415,188.316,669.514,182.831,674.086Z" transform="translate(40.902)"/><path class="cls-19" d="M116.6,652.2c-6.383,11.8-7.022,25.4-1.253,28.017,13.5,6.135,27.609-7.363,27.609-7.363C124.147,683.116,108.027,669.022,116.6,652.2Z" transform="translate(40.902)"/><path class="cls-20" d="M227.528,796.748a2.593,2.593,0,0,1,1.219.354c4.495,2.681,38.514,22.339,107.465,45.7,14.233,4.823,27.8,13.455,40.448,24.2-25.586-26.5-2.409-45.059,40.537-10.088s-43.287-66.792-43.287-66.792-64.956-20.583-72.45-64.4a142.631,142.631,0,0,0,13.369,58.847,3.148,3.148,0,0,1-3.1,4.542c-2.494-.231-5.7-.64-9.271-1.339,30.186,9,86.759,49.3,48.476,42.144-41.106-7.685-128.227-45.4-128.227-45.4s-92.017-1.841-102.555-42.966C120.3,766.81,148.939,791.963,227.528,796.748Z" transform="translate(40.902)"/><path class="cls-21" d="M525.337,896.547l7.2,19.267s42.946,106.14,17.792,99.957c-20.522-5.045-106.368-83.486-151.084-126.495,38.261,43,64.158,98.763,67.318,105.739a2.519,2.519,0,0,0,1.009,1.169c4.559,2.924,31.105,19.515,54.261,24.543,22.26,4.834,44.308,11.551,35.05,46.489,7.7-20.431,28.075,1.829,23.029,23.146.815-1.51,1.651-3.038,2.525-4.6C594.75,1063.732,586.99,970.4,525.337,896.547Z" transform="translate(40.902)"/><path class="cls-22" d="M407.994,582.671l3.507,9.38c7.84-69.752,19.73-132.987,13.511-160.337a2.852,2.852,0,0,1,.976-2.95c9.132-7.472,58.2-50.69,35.686-98.657,17.152,54.436-45.09,84.4-45.09,84.4s-21.913-30.956-6.144-44.115c-8.943,5.693-18.979,15.053-18.747,28.578.876,31.646,9.552,34.8,9.552,34.8-98.777-15.766-53.011-97.849-53.011-97.849-9.361,13.357-24.519,41.22-17.544,74.349,8.555,40.64,60.455,31.411,73.644,28.37a3.118,3.118,0,0,1,3.807,2.556c1.387,8.514,2.329,33.788-20.675,80.04-11.107,22.331-31.7,51.654-49.958,85.131C358.747,563.415,407.994,582.671,407.994,582.671Z" transform="translate(40.902)"/><path class="cls-23" d="M261.066,750c-1.223-13.109,2.919-30.545,16.247-53.831a350.158,350.158,0,0,0,23.756-49.364,64.224,64.224,0,0,1-10.646,13.167C274.7,674.086,248.477,713.964,261.066,750Z" transform="translate(40.902)"/><path class="cls-24" d="M218.975,612.119c-25.82,3.682-90.135-15.337-55.777-55.228a96.382,96.382,0,0,1,16.571-14.883c-45.289,22.163-49.257,69.837-.006,82.382,39.793,10.136,57-8.9,59.923-27.453C235.773,604.41,229.1,610.677,218.975,612.119Z" transform="translate(40.902)"/><path class="cls-25" d="M222.1,578.376c-14.725-9.2-27.608,6.135-27.608,6.135s14.724-3.681,7.362,7.976c-2.175,3.443-6.771,4.535-11.74,3.816C201.763,601.348,236.82,587.579,222.1,578.376Z" transform="translate(40.902)"/><path class="cls-26" d="M867.115,1120.937c-1.709-19.764,25.109,15.527,10.5,57.808,4.989-13.933,13.191-43.238,2.588-63.535-10.859-20.787-6.186-27.924-3.3-30.159a3.145,3.145,0,0,1,2.888-.529c8.884,2.719,63.777,16.774,95.642-35.752-27.082,35.824-116.435,39.078-131.846-9.583,2.031,13.4,6.291,28.737,15.343,36.348C876.932,1090.669,859.344,1093.123,867.115,1120.937Z" transform="translate(40.902)"/><path class="cls-27" d="M792.08,1048.079c-.213,1.129-.425,2.258-.633,3.324-6.052,31.067,5.1,46.235,9.985,64.481.241-13.353,20.282,6.688,16.6,26.321s-35.585,45.639-50.309,48.383a86.334,86.334,0,0,1-17.046,7.71,3.059,3.059,0,0,1-3.98-2.408c-3.138-17.7-19.2-99.793-50.347-120.559-34.971-23.314-47.651-24.745-38.652-60.739s-16.361-25.554-16.361-25.554-6.544,50.1,0,66.456,53.99,18.815,59.717,86.711c5.032,59.668-13.943,58.055-18.616,56.788-.264-.173,9.617,18.062,9.617,18.062s-52.15-60.3-93.255-60.21-43.784-31.7-24.653-54.767c1.652-3.786,3.574-7.647,5.767-11.716,5.046-21.317-15.326-43.577-23.022-23.162a120.336,120.336,0,0,1-5.948,16.72c-13.6,31.479-16.61,44.962-16.994,50.635l.429,3.969s-37.847,9.486-19.528,27,39.161-8.59,93.152,39.879c17.254,15.49,21.07,20.546,18.319,20.29.663.637,1.252,1.141,1.926,1.8,0,0-1.255-.854-3.487-2.219-2.794-1.04-7.73-3.838-13.241-7.229a173.953,173.953,0,0,0-24.579-9.9l30.275,25.677c14.658-.355,1.216,1.031,1.216,1.031l-1.216-1.031c-4.836.117-12.715.422-25.165,1.031-50.188,2.455-90.8,16.566-85.28,61.353s23.314,70.555-60.126,91.415c-58.679,14.67-127.252-4.272-146.732-34.431a79.311,79.311,0,0,0,6.849,14.8c34.971,59.512,155.221,31.9,193.874-.613s3.067-68.715,17.792-87.734,42.333-31.29,83.439-17.793,59.512,26.382,57.058,59.512-2.774,79.19-47.242,90.189,70.556,0,70.556,0l231.146-12.086a3.2,3.2,0,0,0,1.467-5.931c-27.121-17.805-54.351-75.846-30.15-90.577,28.222-17.179,73.623,2.481,119.024,47.869,44.346,44.331,89.789,14.783,110.177-49.479-14.3,44.119-47.872,82.363-86.454,61.735-41.311-22.087-67.9-106.753-139.884-92.029s-92.437,28.631-96.937,20.042,32.783-21.8,48.295-39.12a3.15,3.15,0,0,1-5.047-3.542c5.067-12.2,13.2-26.525,24.649-31.37,21.269-9,65.034.818,82.621-14.724s10.635-22.5,11.862-35.585c1.193-12.728,19.793,5.876,33.606-18.3-7.764,8.983-60.923-.3-56.127-26.586-1.763,8.195-.368,18.419,8.2,30.565,9.04,12.807,2.669,20.819-8.938,25.859.155-.081.293-.09.449-.177,23.113-12.853,29.756,23.81-15.031,26.264s-55.011-9-82.415,14.315-52.763,9-52.763,9l12.606-7.407c-3.167,1.773-6.463-2.175-4.023-4.861,19.1-21.024,47.822-63.182,23.32-107.575-18.525-33.562-1.591-71.923,25.067-99.012C827.054,993.722,803.362,1020.385,792.08,1048.079Z" transform="translate(40.902)"/><path class="cls-28" d="M277.779,1254c25.973,19.685-58.981,83.871-77.117,25.829,3.6,20.4,20.073,34.821,54.565,31.711,15.582-1.4,25.786-5.036,32.078-9.892l6.994-8.924C299.368,1279.911,289.364,1263.782,277.779,1254Z" transform="translate(40.902)"/><path class="cls-29" d="M264.43,1261.536c-17.746-5.89-20.247,11.35-20.247,11.35s14.111-11.044,21.473,4.908c2.275,4.93-1.03,8.2-6.374,9.164C274.182,1286,282.175,1267.426,264.43,1261.536Z" transform="translate(40.902)"/><path class="cls-30" d="M338.052,1306.016c-21.473,9.2-19.547,43.456,15.074,62.221-14.237-8.407-22.638-19.7-20.595-32.771,6.135-39.266,58.285-15.339,48.468,4.294C396.249,1320.217,359.526,1296.813,338.052,1306.016Z" transform="translate(40.902)"/><path class="cls-31" d="M501.556,1234.847c-37.731,13.5-80.064,30.984-100-.306s-60-59.874-98.778-60.739-55.216,25.154-67.188,64.215c-.093.3-.143.568-.232.866,12.547-37.637,42.775-72.225,97.177-55.572,60.125,18.406,66.874,92.029,125.772,74.85,41.191-12.014,51.774-17.426,61.13-17.286a3.182,3.182,0,0,1,1.175,6.086s7.023-2.911,32.178-12.42S539.288,1221.35,501.556,1234.847Z" transform="translate(40.902)"/></g><path class="cls-32" d="M1071.756,1153.862c-5.891,25.345,28.813,41.709,64.306,15.131-35.125,19.46-58.084-1.774-56.258-20.039,1.094-10.942,13.89-11.874,25.77-8.409C1089.635,1132.842,1076.573,1133.14,1071.756,1153.862Z" transform="translate(40.902)"/><path class="cls-33" d="M1059.9,1154.791c-13.211,42.317,43,78.994,104.574,32.815,32.124-24.094,39.041-56.736,33.149-85.487C1206.8,1164.841,1050.173,1240.359,1059.9,1154.791Z" transform="translate(40.902)"/><path class="cls-34" d="M912.17,974.431c44.929,9.484,20.388,33.412,68.243,9.484s41.72-12.27,41.106,24.542,23.928,46.628,100,33.743c66.591-11.277,55.622,78.507,27.987,114.651,39.5-42.868,35.563-122.868-20.753-119.066s-105.4,2.816-96.2-35.343,18.979-63.781-29.162-46.982-23.127-22.682,23.571-29.7a3.154,3.154,0,0,1-2.744-4.906c8.707-12.8,33.151-40.212,56.8,11.528,28.2,61.682,86.7,62.956,120.709-15.658-21.024,40.836-74.541,84.069-107.819,19.34-33.75-65.647-75.684-42.947-75.684-42.947s11.38-23.039,56.72-25.324a3.126,3.126,0,0,1-3.157-3.9c6.153-21.808,32.575-127.733-2.426-229.853C1030.9,521.783,823.356,878.274,815.019,892.667a2.3,2.3,0,0,0-.323.958c-.419,3.284-2.828,22.069-6.129,46.3l21.294,76.729C853.741,988.505,888.966,969.533,912.17,974.431Z" transform="translate(40.902)"/><path class="cls-35" d="M1153.427,828.694c11.664-13.33,54.335,10.13,50.053,57.013.061-.258.158-.458.215-.724,9.244-43.142-14.684-71.014-43.519-67.946-26.824,2.853-26.282,19.841-20.623,26.139,9.283,8.736,24.918,14.353,24.918,14.353S1140.543,843.418,1153.427,828.694Z" transform="translate(40.902)"/><g class="cls-36"><circle class="cls-37" cx="777.132" cy="621.936" r="393.883"/></g><path class="cls-38" d="M1061.891,518.523c-39.212-109.232-124.565-212.982-240.715-235.069-1.619-.31-3.072-.546-4.563-.778-3.073-.477-6.036-.971-8.851-1.485C736.375,268.16,746.381,243,773.041,183.879a57.356,57.356,0,0,0,4.893-17.178c-7.379,40.49-49.067,72.4-84.5,32.278,23.293,37.672,54.8,75.425-40.159,104.1-.753.227-1.346.48-2.078.71q-4.255,1.341-8.054,2.754c-.816.282-1.612.578-2.425.863a556.125,556.125,0,0,0-79.51,34.914c38.38-17.686,91.26-29.7,174-35.741C835.4,299.268,1001.68,366.038,1061.891,518.523Z" transform="translate(40.902)"/><path class="cls-39" d="M392.468,814.174a395.239,395.239,0,0,0,64.225,85.209c48.525,45.85,112.891,77.578,189.962,85.76,358.3,38.038,456.463-211.053,436.83-376.7-.6-5.074-1.354-10.191-2.183-15.328C1109.25,797.422,936.72,830.535,936.72,830.535,996.1,657.521,772.845,484.507,772.845,484.507s6.332,13.5,32.307,56.529,34.473,70.54,45.21,125.976,39.249,221.194-77.517,195.426S682.488,652.9,701.731,586.409c12.295-42.486,22.523-60.208,28.322-67.5C585.121,656.392,606.571,862.438,606.571,862.438,472,821.945,438.057,686.969,509.2,601.417c53.612-64.474,78.684-80.734,87.793-84.839C401.469,577.8,409.145,741.616,409.145,741.616S326.3,602.051,421.516,460.489C340.277,570.954,337.008,707.67,392.468,814.174Z" transform="translate(40.902)"/><path class="cls-40" d="M326.166,251.3a14.723,14.723,0,0,0,5.751,3.749C349.808,261.2,345.7,260,326.3,291.128c21.057-25.843,72.953-36.636,98.563-27.744-12.156-5.421-25.24-7.6-37.73-5.268-36.593,6.816-36.2-3.068-32.233-15.952a21.447,21.447,0,0,0,.362-10.263,7.713,7.713,0,0,0-.253,1.674C355.1,246.351,343.154,260.279,326.166,251.3Z" transform="translate(40.902)"/><g class="cls-41"><circle class="cls-42" cx="302.877" cy="957.125" r="302.877"/></g><path class="cls-43" d="M163.811,867c43.989-57.952,160.819-52.22,230.491,9.718S331.445,1104.049,209.9,1070.977,116.57,929.241,163.811,867Z" transform="translate(40.902)"/><path class="cls-44" d="M95.71,879C127,880.23,128.227,874.1,117.8,944.65c-2.69,18.2-.025,43.236,8.4,70.386-23.826-81.461,21.609-164.916,89.536-187.379a190.748,190.748,0,0,0-36.583,12.694c-22.627,9.816-41.719,34.357-43.56,3.067-.653-11.1-6.141-21.676-13.954-29.548,19.524,26.123-37.72,82.671-59.75,40.907C67.262,868.223,79.8,878.379,95.71,879Z" transform="translate(40.902)"/><path class="cls-45" d="M458.508,979.826c-40.9-65.852-136.2-94.843-136.2-94.843s39.266,17.129,64.6,45.428,88.374,118.947,35.067,147.169-133.464-11.154-146.935-25.515-22.671-26.43-22.671-26.43c23.722,98.982,90.8,103.481,90.8,103.481s-71.578,7.363-111.669-34.106c-37.3-38.578-43.061-56.192-43.685-58.464,27.07,112.229,112.567,131.467,112.567,131.467-68.58-9.781-138.167-61.9-167.5-134.073,29.411,73.819,100.3,155.058,222.02,156.734,178.206,2.454,236.393-172.392,61.683-307.377a358.857,358.857,0,0,0-29.994-20.829C446.154,904.465,497.066,1041.9,458.508,979.826Z" transform="translate(40.902)"/><path class="cls-46" d="M1083.821,615.289s38.4,284.4-200.562,345.27a3.6,3.6,0,0,0-2.655,2.512c-3.212,11.513-21.41,69.679-63.389,78.516-42.345,8.915-27.006,82.6-23.832,96.058a3.59,3.59,0,0,1-1.09,3.537c-8,7.456-42.253,43.662-20.479,99.187,24.541,62.58,66.261,77.3,78.532,79.759s28.222,82.212,121.478,88.347c47.808,3.145,66.914,8.226,74.183,12.43,3.395,1.964,1.811,7.2-2.112,7.2H570.75a3.881,3.881,0,0,1-3.533-5.567c3.552-7.039,15.242-18.285,53.67-18.565,34.357-.251,96.937-93.665,3.681-132.93-90.691-38.186-135.909-49.748-159.874-84.179a3.752,3.752,0,0,0-4.941-1.24c-19.871,11.2-136.294,69.39-240.777-38.8,0,0,50.6,42.972,132.8,33.6,4.243-.484,4.5-6.648.342-7.612-29.313-6.789-83.774-25.092-126.026-72.151-3.225-3.592,1.646-8.69,5.4-5.658,29.067,23.457,76.432,50.15,137.763,45.021,4.352-.364,4.912-6.636.67-7.678-26.778-6.577-69.487-24.791-100.677-75.229-2.309-3.733,2.44-7.9,5.783-5.059,23.65,20.122,70.419,48.324,143.389,43.512,86.379-5.695,8.276-115.661-31.521-165.165a3.9,3.9,0,0,1,5.448-5.5c27.683,21.9,70.683,62.223,90.988,114.209a3.85,3.85,0,0,0,7.454-1.051c1.779-23.494-1.427-70.442-42.718-121.852-2.959-3.684,2.027-8.443,5.6-5.349,41.669,36.091,98.982,104.686,62.323,188.188a3.69,3.69,0,0,0-.145,2.708c2.544,7.171,12.482,42.956-31.593,68.1a3.806,3.806,0,0,0-1.574,5.152c5.389,9.535,24.793,35.592,73.169,28.537,51.5-7.511,86.112-3.763,106.3,13.7a3.931,3.931,0,0,0,6.391-3.211c-.748-17.007,2.774-50.248,34.555-82.887,35.789-36.757,35.105-72.75,33.211-86.343a3.9,3.9,0,0,0-5.645-2.967c-11.66,6.149-44.49,18.372-83.4-11.566a3.626,3.626,0,0,0-2.645-.775c-10.783,1.317-81.228,6.75-122.333-69.3a3.3,3.3,0,0,0-1.169-1.282c-6.45-4.038-54.5-34.889-76.466-71.2a2.96,2.96,0,0,0-1.072-1.091c-7.749-4.58-83.58-52.192-97.549-168.986C323.986,533.346,461.3,414.505,461.3,414.505s-197.125,185.952-44.4,399.133c2.407,3.359,7.763,1.254,7.06-2.818-6-34.8-6.549-115.655,80.633-216.781,3.124-3.624,8.829.373,6.344,4.461-39.916,65.673-91.082,193.581,20.849,305.943,3.248,3.261,8.581-.774,6.189-4.706-12.547-20.625-28.863-51.837-39.193-88.413-1.244-4.4,4.838-7.057,7.112-3.085,25.019,43.718,84.174,128.088,179.23,153.489a3.849,3.849,0,0,0,4.119-5.93c-22.89-32.7-93.091-159.743,7.982-378.568,2.024-4.382,8.625-2.028,7.313,2.617-22.771,80.571-52.847,240.84,36.606,323.084,110.235,101.35,170.086-165.286,64.014-361.9-2.315-4.29,3.589-8.126,6.491-4.21,60.835,82.082,149.88,237.167,85.146,377.229a3.835,3.835,0,0,0,4.388,5.417C937.352,909.76,1085.614,855.294,1083.821,615.289Z" transform="translate(40.902)"/><path class="cls-47" d="M735.207,311.493c206.349-15.952,437.985,254.9,98.639,322.548S259.958,348.231,735.207,311.493Z" transform="translate(40.902)"/><path class="cls-48" d="M674.059,1279.635c-56.444-44.992-144.792-44.992-170.968-64.625s-10.2-17.173,13.294-13.722c-20.3-6.371-30.122-19.937-33.7-26.267a3.806,3.806,0,0,1,1.574-5.152c44.075-25.148,34.137-60.933,31.593-68.1a3.69,3.69,0,0,1,.145-2.708c27.566-62.79,2-117.146-30.1-155.6,35.8,43.086,36.787,116.811,8.661,137.376-.213.418-.463.4-.463.4.165-.116.3-.284.463-.4.738-1.45,1.019-8.391-11.216-41.716-18.305-46.867-54.959-84.114-82.3-107.07,36.618,35.436,88.936,118.621,72.606,163.526-16.355,44.975-126.993,45.764-186.584-14.271a160.567,160.567,0,0,0,82.872,51.046c4.242,1.042,3.683,7.314-.67,7.679,90.476-9.278,31.577,20.171-10.961,25.079-26.385,3.045-71.625-19.4-102.2-36.884,35.524,27.095,73.313,39.334,96.021,44.593,75.23-7.342-11.018,50.946-79.8,15.475,87.651,48.347,170.916,6.644,187.436-2.667a3.751,3.751,0,0,1,4.94,1.239c23.966,34.432,69.185,45.994,159.876,84.179,93.255,39.266,30.675,132.68-3.682,132.931C686.33,1401.522,730.5,1324.627,674.059,1279.635Z" transform="translate(40.902)"/><path class="cls-49" d="M771.815,1240.369c-21.776-55.525,12.479-91.731,20.478-99.187a3.59,3.59,0,0,0,1.09-3.537c-3.174-13.461-18.513-87.143,23.832-96.058,41.978-8.838,60.177-67,63.389-78.516a3.6,3.6,0,0,1,2.655-2.512c97.453-24.822,148.757-86.824,175.368-151.549-53.933,126.258-188.239,136.867-188.239,136.867s10.634-6.544,26.4-31.823c59.8-129.378-11.612-271.528-70.8-357.163,115.787,161.937,45.094,469.094-62.76,418.435C656.785,925.332,646.559,702.947,684.2,607.413c-81.437,200.31-16.773,317.224,5.041,348.384,18.449,19.737,42.085,32.618,42.085,32.618C576.655,959.683,523.3,875.01,506.205,834.045a379.145,379.145,0,0,0,31.764,65.692c36.587,50.622,79.756,67.9,94.23,72.514,1.725.462,3.3.99,5.049,1.439,0,0-1.842-.417-5.049-1.439-245.959-65.84-213.235-253.4-152.12-347.043-62.3,86.41-61.5,154.478-56.125,185.612,7.395,31.171,9.547,38.5,10.17,40.009.252.156.291.707,0,0-74.1-43.464-87.37-129.08-89.29-145.864.344,4.2.683,8.406,1.194,12.681,13.969,116.794,89.8,164.405,97.55,168.986a2.965,2.965,0,0,1,1.071,1.091c21.962,36.315,70.016,67.166,76.466,71.2a3.3,3.3,0,0,1,1.169,1.282c41.105,76.052,111.55,70.62,122.333,69.3a3.626,3.626,0,0,1,2.645.775c38.914,29.938,71.744,17.715,83.4,11.566a3.9,3.9,0,0,1,5.645,2.967c1.689,12.118,2.34,42.049-22.884,74.444,32.13-41.079,45.708,1.674,19.531,58.935s27.813,139.884,117.387,141.929C838.075,1317.673,796.355,1302.949,771.815,1240.369Z" transform="translate(40.902)"/><path class="cls-50" d="M868.751,1416.431c-51.536-17-44.991-4.275-76.077,0s-53.172-28-76.895-14.909c-18.608,10.266-57.39,23.505-104.535,26.586h419.478s-48.264,0-102.254-18.406S920.287,1433.425,868.751,1416.431Z" transform="translate(40.902)"/><path class="cls-51" d="M387.609,401.974c-10.589-3.018-36.284-15.369-33.669-63.944C335.778,410.276,387.609,401.974,387.609,401.974Z" transform="translate(40.902)"/><path class="cls-52" d="M421.869,398.24s53.807-18.247,27.34-77.038C454.687,340.135,456.11,371.252,421.869,398.24Z" transform="translate(40.902)"/><path class="cls-53" d="M421.084,370.792s-20.009,11.952-4.279,26.022C415.651,393.137,415.548,385.68,421.084,370.792Z" transform="translate(40.902)"/><path class="cls-54" d="M490.793,1038.07c23.288-27.444,4.322-85.444-42.719-121.852C489.366,967.627,492.572,1014.576,490.793,1038.07Z" transform="translate(40.902)"/><path class="cls-55" d="M351.777,1180.431c-82.2,9.37-132.8-33.6-132.8-33.6C298.681,1215.262,351.777,1180.431,351.777,1180.431Z" transform="translate(40.902)"/><path class="cls-56" d="M418.424,1095.577c-72.97,4.812-119.739-23.39-143.389-43.512,35.409,47.193,128.051,65.6,178.36,50.261s-8.255-114.06-51.369-152.433C442.643,1004.1,494.762,1090.544,418.424,1095.577Z" transform="translate(40.902)"/><path class="cls-57" d="M231.5,1095.01s19.884,69.841,137.763,45.021C307.928,1145.16,260.563,1118.467,231.5,1095.01Z" transform="translate(40.902)"/><path class="cls-58" d="M509.2,601.417c-.009,0-71.752,95.983-57.641,173.287S531.78,904.443,531.78,904.443C421.459,793.7,469.571,667.894,509.2,601.417Z" transform="translate(40.902)"/><path class="cls-59" d="M915.341,914.984c152.038-51.523,163.006-175.071,167.6-264.172.026-.516-.028-1.015-.013-1.529C1072.434,837.994,963.047,897.829,915.341,914.984Z" transform="translate(40.902)"/><path class="cls-60" d="M416.9,813.638C351.528,722.4,350.323,636.2,370.247,567.379c-.079.2-.168.375-.246.58C307.542,731.493,416.9,813.638,416.9,813.638Z" transform="translate(40.902)"/><path class="cls-61" d="M741.138,902.931c-89.453-82.244-59.377-242.513-36.607-323.084-45.6,100.988-55.872,336.631,77.713,366.03s97.138-299.6,25.255-400.423l-.361-.508C910.357,741.158,850.65,1003.616,741.138,902.931Z" transform="translate(40.902)"/><path class="cls-62" d="M505.888,808.239c22.357,68.31,71.059,128.846,179.23,153.489C590.062,936.326,530.907,851.957,505.888,808.239Z" transform="translate(40.902)"/><path class="cls-63" d="M503.091,1095.01l-9.776-11.294s13.866,22.905,5.276,50.718-67.488,6.953-67.488,6.953l22.9,11.043s-6.839,23.062-55.924,21.351l30.156,4.964s18.544,32.959-87.111,31.289c58.911,6.289,106.568-17.612,118.624-24.407a3.751,3.751,0,0,1,4.94,1.239,93.058,93.058,0,0,0,23.086,22.813c-20.233-16.882-23.527-34.068,11.4-16.834a56.719,56.719,0,0,1-16.494-17.824,3.806,3.806,0,0,1,1.574-5.152c44.075-25.148,34.137-60.933,31.593-68.1a3.69,3.69,0,0,1,.145-2.708c12.138-27.647,13.957-53.653,9.471-77.392C533.3,1070.665,503.091,1095.01,503.091,1095.01Z" transform="translate(40.902)"/><path class="cls-64" d="M869.058,947.729c-34.971,83.143-80.065,65.329-80.065,65.329s-6.442,8.9-64.113,16.566-115.65-49.7-115.65-49.7l28.222,38.039c-95.1-7.363-122.4-89.882-122.4-89.882l6.782,24.328c-67.761-37.637-85.927-93.963-85.927-93.963l5.215,19.633a36.278,36.278,0,0,1-19.154-7.736,152.1,152.1,0,0,0,21.608,16.285,2.965,2.965,0,0,1,1.071,1.091c21.962,36.315,70.016,67.166,76.466,71.2a3.3,3.3,0,0,1,1.169,1.282c41.105,76.052,111.55,70.62,122.333,69.3a3.626,3.626,0,0,1,2.645.775c38.914,29.938,71.744,17.715,83.4,11.566a3.9,3.9,0,0,1,5.645,2.967,87.5,87.5,0,0,1-1.8,31.491c17.26-55.718,45.894,14.359,58.873,61.335-3.174-13.461-18.513-87.143,23.832-96.058,41.978-8.838,60.177-67,63.389-78.516a3.6,3.6,0,0,1,2.655-2.512,294.008,294.008,0,0,0,36.734-11.968,185.682,185.682,0,0,1-50.935,9.25Z" transform="translate(40.902)"/><path class="cls-65" d="M681.013,144.614c-8.488,17.379.982,35.861,12.423,54.364,11.344,12.844,23.318,18.242,34.612,18.4-40.948-2.315-3.85-124.022,38.9-83.715C745.18,110.8,698.064,109.7,681.013,144.614Z" transform="translate(40.902)"/><path class="cls-66" d="M735.207,306.584c-82.736,6.041-135.616,18.055-174,35.741,5.47-2.939,11.087-5.793,16.781-8.6-68.744,33.752-120.346,77.635-156.476,126.764-95.22,141.563-12.371,281.127-12.371,281.127s-83.532-112.709,96.743-228.478c48.3-31.021,56.92,23.8,3.308,88.279C465.43,654.05,461.5,725.365,496.245,781.9c-45.63-103.7,244.893-307.824,205.486-195.492-13.251,37.772-24.594,116.1-11.439,179.752-6.55-59.019,136.459-235.918,162.538-84.341q1.228,7.134,2.589,13.886c-1.738-11.135-3.567-21-5.057-28.694-10.737-55.436-19.235-82.944-45.21-125.976l-.774-1.282c-6.191-10.271,7.433-20.83,15.9-12.338,43.8,43.912,104.576,117.151,121.7,198.947-12.6-125.617,94.969-278.643,129.773-176.663a442.446,442.446,0,0,0-17.216-50.184c2.594,6.309,5.068,12.645,7.351,19.007C1001.68,366.038,835.4,299.268,735.207,306.584Z" transform="translate(40.902)"/><path class="cls-67" d="M550.536,392.887c19.45-18.305,158.7-49.9,165.243-40.9S439.284,497.6,550.536,392.887Z" transform="translate(40.902)"/><path class="cls-67" d="M681.422,391.3c.6-7.01,56.444-56.494,95.71-45.041S679.926,408.791,681.422,391.3Z" transform="translate(40.902)"/><path class="cls-67" d="M957.917,523.772c13.088-15.542-.818-33.539-18-27S944.828,539.315,957.917,523.772Z" transform="translate(40.902)"/><path class="cls-67" d="M933.636,556.891c-16.04-13.655,14.983-30.665,14.724-20.848S943.712,565.47,933.636,556.891Z" transform="translate(40.902)"/><path class="cls-67" d="M696.67,156.26c-16.039-13.656,14.984-30.666,14.725-20.849S706.747,164.838,696.67,156.26Z" transform="translate(40.902)"/><path class="cls-67" d="M991.456,527.631c11.146-10.393,5.727-23.492,0-19.4S975.914,542.125,991.456,527.631Z" transform="translate(40.902)"/><path class="cls-68" d="M697.578,132.343c27.858-32.5,90.341,3.751,50.923,41.72S664.448,171,697.578,132.343Z" transform="translate(40.902)"/><path class="cls-69" d="M336.068,253.963c11.5.333,19.009-10.294,18.942-20.388a7.713,7.713,0,0,1,.253-1.674,23.711,23.711,0,0,1,.438,5.254c.409-12.436-9.782-26.994-25.011-16.108a21.972,21.972,0,0,0-7.522,10.226C330.454,216.944,344.869,248.62,336.068,253.963Z" transform="translate(40.902)"/><path class="cls-70" d="M326.3,291.128c-1.888,3.029-3.869,6.254-6.041,9.934-5.389,9.129-8.731,20.839-10.056,33.489a106.559,106.559,0,0,1,1.638-10.69c-2.8,22.247.371,36.479,5.266,45.648-16.453-40.854,12.554-60.215,22.631-50.041,1.959-4.481,9.05-14.111,15.162-13.424,7.255.814,2.19,8.465-.961,31.986-2.022,15.1,8.214,27.475,18.365,35.852-22.294-21.937,11.033-54.423,25.914-52.68,14.838,1.737,22.588,14.858,20.619,29.061a31.114,31.114,0,0,0-.107-14.537,68.732,68.732,0,0,1,4,15.025c-.625-23.688,36.191-11.638,24.851,11.025,1.281-2.085,2.828-4.168,3.178-6.567,2.369-16.279,1.028-34.745-8.1-41.723-12.168-9.3-2.342-14.5,9.853-5.23a23.09,23.09,0,0,1,2.689,2.4c-1.095-7.105-.692-11.14.533-13-5.721-11.077-13.132-22.477-22.047-29.719,0,0-.869-1.067-8.822-4.554C399.254,254.492,347.358,265.284,326.3,291.128Z" transform="translate(40.902)"/><path class="cls-71" d="M107.88,859.3c14.31-12.236,23.394-32.535,13.755-45.433a51.942,51.942,0,0,1,5.349,6.335c-13.409-18.828-39.49-28.328-57.042-8.076a42.725,42.725,0,0,0-10.719,24.956C63.258,810.113,126.874,840.37,107.88,859.3Z" transform="translate(40.902)"/><path class="cls-72" d="M386.591,862.469c-73.363-45.633-133.994-43.437-170.86-34.812C147.806,850.122,102.37,933.576,126.2,1015.036a214.948,214.948,0,0,1-8.345-38.392c2.432,21,9.2,45.439,20.584,70.162-1.98-4.3-3.853-8.6-5.554-12.866,16.809,41.363,46.867,76.085,82.353,100.079-60.051-47.148-59.955-93.288-18.07-68.069a228.432,228.432,0,0,1-9.353-29.4c.583,2.124,5.676,17.675,36.833,51.231,8.93,8.511,16.835,15.385,23.934,21.055,15.652,9.981,33.28,15.243,49.094,17.976-12.377-2.742-39.079-12.348-57.986-45.568-18.777-32.993-5.31-44.239,18.212-36.411-2.023-5.979-3.891-12.338-5.534-19.194,0,0,9.2,12.069,22.671,26.43a31.475,31.475,0,0,0,3.216,2.9c2.132,1.388,4.294,2.913,6.467,4.525,20.906,13.4,66.585,32.195,107.47,27.062-69.417,1.2-125.367-96.168-91.119-138.825,27.784-34.607,74.843-25.757,106.464,9.2a283.164,283.164,0,0,0-20.63-26.516c-25.332-28.3-7.5-23.912-7.5-23.912s16.824.866,68.778,58.852c-26.071-42.379-66.563-70.7-63.571-84.1,1.723-7.713,12.575-5.121,23.406.494A137.81,137.81,0,0,0,386.591,862.469Z" transform="translate(40.902)"/><path class="cls-73" d="M372.41,265.274c47.495-12.32,65.238,1.431,72.4,21.473s-43.4,72.805-89.9,54.808S312.489,280.816,372.41,265.274Z" transform="translate(40.902)"/><path class="cls-74" d="M339.441,218.134c13.984-2.791,19.778,25.666,3.213,28.12S315.879,222.838,339.441,218.134Z" transform="translate(40.902)"/><path class="cls-75" d="M85.587,803.54c20.482-8.272,56.137,23.313,27.3,45.4S37.732,822.866,85.587,803.54Z" transform="translate(40.902)"/><path class="cls-67" d="M375.732,267.937c32.027-8.908,53.33,5.042,45.352,11.108S355.126,273.668,375.732,267.937Z" transform="translate(40.902)"/><path class="cls-67" d="M357.89,279.045c2.925-5.051,17.278-5.182,17.842-2.114S352.163,288.93,357.89,279.045Z" transform="translate(40.902)"/><path class="cls-67" d="M180.376,872.663c6.5-8.925,36.4-45.4,65.852-24.541S159.516,901.3,180.376,872.663Z" transform="translate(40.902)"/><path class="cls-67" d="M252.772,844.441c-5.832-6.318,65.034-2.179,77.714,14.862S267.5,860.393,252.772,844.441Z" transform="translate(40.902)"/><path class="cls-67" d="M343.165,876.344c-11.253-3.75-10.634-19.837-5.726-17.894S350.527,878.8,343.165,876.344Z" transform="translate(40.902)"/><path class="cls-67" d="M146.858,1013.774c-3.125-16.476,41.7,23.723,32.7,27S150.97,1035.452,146.858,1013.774Z" transform="translate(40.902)"/><path class="cls-67" d="M89.984,808.239c13.761-2.247,38.7,21.615,21.392,18.479S68.715,811.71,89.984,808.239Z" transform="translate(40.902)"/><path class="cls-67" d="M959.144,1015.771c11.48-8.855,4.908-21.589-6.953-17.724S937.466,1032.492,959.144,1015.771Z" transform="translate(40.902)"/><path class="cls-67" d="M999.144,1094.759c10,.827,22.989,17.535,7.446,12.653S989.244,1093.941,999.144,1094.759Z" transform="translate(40.902)"/><path class="cls-76" d="M712.3,1393.137c30.063-18.406,64.814,22.6,80.372,5.24s47.242-.946,75.464-3.542c15.554-1.431,14.5-19.11,10.443-34.7-.834-1.072-1.667-2.142-2.452-3.2a65.56,65.56,0,0,1-3.083,22.1c-8.8,28.758-33.744-23.928-69.942,6.135s-16.938-22.055-96.194,4.908c-17.226,5.861-36.7,2.814-54.9-4.63q-1.624,1.836-3.3,3.528C658.291,1394.367,687.55,1408.292,712.3,1393.137Z" transform="translate(40.902)"/><path class="cls-76" d="M537.072,1235.263c4.432,1.882,9.018,3.8,13.87,5.782-12.941-17.265,2.359-30.562,24.823-39.869-6.11.575-12.475,1.326-19.151,2.288C537.425,1212.586,533.531,1224.146,537.072,1235.263Z" transform="translate(40.902)"/><path class="cls-76" d="M672.912,1341.159c-.105.8-.269,1.586-.4,2.379,81.8,41.085,150.489,15.878,187.922-11.024-4.155-6.993-7.244-11.818-10.088-12.387C790.151,1372.272,712.653,1356.546,672.912,1341.159Z" transform="translate(40.902)"/><path class="cls-76" d="M615.7,1200.661a185.645,185.645,0,0,0-21.735-.6c-44.833,11.96-42.03,31.342-28.03,47.061l7.353,2.955C554.891,1230.443,585.318,1211.873,615.7,1200.661Z" transform="translate(40.902)"/><path class="cls-76" d="M622.18,1270.051c.815.341,1.567.648,2.389.994a118.149,118.149,0,0,1,15.526,7.862c-31.692-40.262-.037-60.753,14.041-67.391a72.011,72.011,0,0,0-16.757-6.959C601.771,1221.655,608.729,1249.931,622.18,1270.051Z" transform="translate(40.902)"/><path class="cls-76" d="M673.3,1328.631a62.125,62.125,0,0,1-.016,8.51c60.492,28.075,119.993-7.427,148.758-29.741a112.654,112.654,0,0,1-17.861-14.972C809.173,1303.17,704.212,1358.841,673.3,1328.631Z" transform="translate(40.902)"/><path class="cls-76" d="M676.194,1171.539a102.122,102.122,0,0,0-7.649,42.51c38.247,81.152,91.576,86.281,127.8,69.421-8.859-10.961-17.421-24.972-24.53-43.1a108.372,108.372,0,0,1-3.892-12.1C707.272,1244.864,683.1,1210.08,676.194,1171.539Z" transform="translate(40.902)"/><path class="cls-76" d="M780.055,1155.684a87.825,87.825,0,0,1,12.238-14.5,3.59,3.59,0,0,0,1.09-3.537c-63.617,27.837-68.853-15.817-67.986-36.908a119.11,119.11,0,0,1-8.641,14.048C719.425,1163.64,752.634,1165.057,780.055,1155.684Z" transform="translate(40.902)"/><path class="cls-76" d="M702.862,1131.42c-2.105,2.171-4.067,4.344-5.929,6.515,4.863,54.487,39.781,60.965,68.692,54.439a84.607,84.607,0,0,1,3.121-13.636C722.081,1197.465,706.061,1165.535,702.862,1131.42Z" transform="translate(40.902)"/><path class="cls-77" d="M713.626,1119.042a148.214,148.214,0,0,1-10.526,12.119c-31.781,32.64-35.3,65.881-34.555,82.888a3.931,3.931,0,0,1-6.391,3.211c-19.659-17.008-53.13-20.918-102.422-14.181,80.765,1.743,125.386,75.828,125.386,75.828-47.1-94.146,62.505-167.074,59.978-138.037C751.592,1105.413,737.981,1087.878,713.626,1119.042Z" transform="translate(40.902)"/><path class="cls-78" d="M706.91,1300.085s29.494,90.8,114.073,86.712,56.417,6.476,115.737,15.067l.657.1c-57.847-18.709-73.926-70.112-84.328-80.111l-2.7-1.721S766.183,1362.774,706.91,1300.085Z" transform="translate(40.902)"/><circle class="cls-79" cx="805.838" cy="597.383" r="574.184"/><circle class="cls-80" cx="351.106" cy="989.819" r="310.204"/><circle class="cls-81" cx="383.812" cy="330.107" r="144.126" transform="translate(-80.104 368.082) rotate(-45)"/><circle class="cls-82" cx="983.093" cy="1123.907" r="101.929" transform="translate(-465.879 1024.336) rotate(-45)"/><circle class="cls-83" cx="956.242" cy="1020.733" r="101.929"/><circle class="cls-84" cx="772.497" cy="796.366" r="693.893"/><path class="cls-67" d="M1135.7,638.369a4.391,4.391,0,1,1,.268-6.205A4.39,4.39,0,0,1,1135.7,638.369Z" transform="translate(40.902)"/><circle class="cls-85" cx="1132.734" cy="635.133" r="86.9" transform="translate(500.535 1745.725) rotate(-88.061)"/><circle class="cls-67" cx="854.71" cy="436.527" r="4.392"/><circle class="cls-86" cx="813.808" cy="436.527" r="86.9" transform="translate(-29.411 703.305) rotate(-45)"/><circle class="cls-67" cx="470.233" cy="733.813" r="4.391"/><circle class="cls-87" cx="470.233" cy="733.813" r="86.9"/><circle class="cls-67" cx="881.172" cy="342.281" r="4.392"/><circle class="cls-88" cx="840.27" cy="342.282" r="86.9" transform="translate(44.981 694.412) rotate(-45)"/><path class="cls-67" d="M600.592,361.942a4.392,4.392,0,1,1-4.392-4.392A4.391,4.391,0,0,1,600.592,361.942Z" transform="translate(40.902)"/><circle class="cls-89" cx="596.2" cy="361.942" r="86.9" transform="translate(-40.407 527.588) rotate(-45)"/><circle class="cls-67" cx="1018.431" cy="385.772" r="4.391"/><circle class="cls-90" cx="1018.431" cy="385.772" r="86.9"/><circle class="cls-67" cx="427.708" cy="1111.712" r="4.391"/><circle class="cls-91" cx="386.806" cy="1111.712" r="86.9" transform="translate(-631.904 599.126) rotate(-45)"/><path class="cls-67" d="M314.008,1011.709a4.392,4.392,0,1,1-6.092-1.2A4.391,4.391,0,0,1,314.008,1011.709Z" transform="translate(40.902)"/><circle class="cls-92" cx="310.361" cy="1014.154" r="86.9" transform="translate(-585.311 516.497) rotate(-45)"/><circle class="cls-67" cx="586.866" cy="901.17" r="4.391"/><circle class="cls-93" cx="586.866" cy="901.17" r="86.9"/><circle class="cls-67" cx="629.743" cy="1041.149" r="4.392"/><circle class="cls-94" cx="629.743" cy="1041.149" r="86.9"/><circle class="cls-67" cx="647.433" cy="229.855" r="4.392"/><circle class="cls-95" cx="647.433" cy="229.855" r="86.9"/><path class="cls-67" d="M763.665,1070.414a4.392,4.392,0,1,1-4.392-4.391A4.392,4.392,0,0,1,763.665,1070.414Z" transform="translate(40.902)"/><circle class="cls-96" cx="759.273" cy="1070.414" r="86.9" transform="translate(-493.61 850.404) rotate(-45)"/><circle class="cls-67" cx="263.215" cy="1191.684" r="4.391"/><circle class="cls-97" cx="222.313" cy="1191.684" r="86.9" transform="translate(-736.632 506.235) rotate(-45)"/><path class="cls-67" d="M434.732,552.828a4.392,4.392,0,1,1-4.391-4.392A4.391,4.391,0,0,1,434.732,552.828Z" transform="translate(40.902)"/><circle class="cls-98" cx="430.341" cy="552.828" r="86.9" transform="translate(-223.963 466.216) rotate(-45)"/><circle class="cls-67" cx="396.251" cy="416.513" r="4.391"/><circle class="cls-99" cx="396.251" cy="416.513" r="86.9"/><path class="cls-67" d="M1130.812,866.511a4.392,4.392,0,1,1,.267-6.2A4.392,4.392,0,0,1,1130.812,866.511Z" transform="translate(40.902)"/><circle class="cls-100" cx="1127.843" cy="863.275" r="86.9" transform="translate(-239.188 1050.353) rotate(-45)"/><circle class="cls-67" cx="1259.501" cy="1011.086" r="4.391"/><circle class="cls-101" cx="1218.599" cy="1011.086" r="86.9" transform="translate(-317.125 1157.82) rotate(-45)"/><path class="cls-67" d="M1076.125,886.518a4.391,4.391,0,1,1,.267-6.205A4.392,4.392,0,0,1,1076.125,886.518Z" transform="translate(40.902)"/><circle class="cls-102" cx="1073.156" cy="883.282" r="86.9" transform="translate(44.752 1771.222) rotate(-79.163)"/><circle class="cls-67" cx="221.656" cy="940.978" r="4.392"/><circle class="cls-103" cx="180.755" cy="940.978" r="86.9" transform="translate(-571.529 403.419) rotate(-45)"/><circle class="cls-67" cx="465.765" cy="267.937" r="4.391"/><circle class="cls-104" cx="424.864" cy="267.937" r="86.9" transform="translate(-24.119 378.901) rotate(-45)"/><circle class="cls-67" cx="747.877" cy="314.004" r="4.391"/><circle class="cls-105" cx="747.877" cy="314.004" r="86.9"/><circle class="cls-67" cx="813.747" cy="145.437" r="4.392"/><circle class="cls-106" cx="813.747" cy="145.437" r="86.9"/><circle class="cls-67" cx="853.349" cy="648.494" r="2.043"/><circle class="cls-107" cx="812.447" cy="648.494" r="40.429" transform="translate(35.541 1290.214) rotate(-76.717)"/><path class="cls-67" d="M842.986,595.331a2.043,2.043,0,1,1-2.043-2.043A2.043,2.043,0,0,1,842.986,595.331Z" transform="translate(40.902)"/><circle class="cls-108" cx="840.943" cy="595.331" r="40.429" transform="translate(109.23 1276.999) rotate(-76.717)"/><circle class="cls-67" cx="436.251" cy="308.366" r="2.043"/><circle class="cls-109" cx="395.349" cy="308.366" r="40.429" transform="translate(68.539 649.216) rotate(-80.783)"/><path class="cls-67" d="M145.96,867.04A2.043,2.043,0,1,1,143.917,865,2.043,2.043,0,0,1,145.96,867.04Z" transform="translate(40.902)"/><circle class="cls-110" cx="143.917" cy="867.04" r="40.429" transform="translate(-692.093 807.902) rotate(-76.717)"/><circle class="cls-67" cx="216.196" cy="566.202" r="2.043"/><circle class="cls-111" cx="175.295" cy="566.203" r="40.429" transform="translate(-375.134 606.721) rotate(-76.717)"/><circle class="cls-67" cx="270.246" cy="1105.308" r="2.043"/><circle class="cls-112" cx="229.344" cy="1105.308" r="40.429" transform="translate(-364.624 171.903) rotate(-22.5)"/><circle class="cls-67" cx="270.246" cy="1064.879" r="2.043"/><circle class="cls-113" cx="229.344" cy="1064.879" r="40.429" transform="translate(-817.62 1120.687) rotate(-80.783)"/><path class="cls-67" d="M1066.452,522.616a2.043,2.043,0,1,1,.125-2.887A2.043,2.043,0,0,1,1066.452,522.616Z" transform="translate(40.902)"/><circle class="cls-114" cx="1105.973" cy="521.11" r="40.429"/><path class="cls-67" d="M504.2,1116.8a2.043,2.043,0,1,1-2.043-2.043A2.043,2.043,0,0,1,504.2,1116.8Z" transform="translate(40.902)"/><circle class="cls-115" cx="502.159" cy="1116.801" r="40.429" transform="translate(-659.238 1348.938) rotate(-76.717)"/><circle class="cls-67" cx="249.823" cy="1118.105" r="2.043"/><circle class="cls-116" cx="208.921" cy="1118.105" r="40.429" transform="translate(-886.372 1064.549) rotate(-76.717)"/><path class="cls-67" d="M131.681,1143.344a2.043,2.043,0,1,1-2.043-2.043A2.043,2.043,0,0,1,131.681,1143.344Z" transform="translate(40.902)"/><circle class="cls-117" cx="129.638" cy="1143.344" r="40.429" transform="translate(-729.594 426.545) rotate(-45)"/><circle class="cls-67" cx="692.219" cy="1169.052" r="2.043"/><circle class="cls-118" cx="651.317" cy="1169.052" r="40.429" transform="translate(-594.976 802.958) rotate(-45)"/><path class="cls-67" d="M1093.268,985.255a2.043,2.043,0,1,1,.124-2.887A2.043,2.043,0,0,1,1093.268,985.255Z" transform="translate(40.902)"/><circle class="cls-119" cx="1091.886" cy="983.749" r="40.429" transform="translate(-334.908 1060.214) rotate(-45)"/><path class="cls-67" d="M1132.634,720.293a2.043,2.043,0,1,1,.124-2.887A2.043,2.043,0,0,1,1132.634,720.293Z" transform="translate(40.902)"/><circle class="cls-120" cx="1131.253" cy="718.787" r="40.429" transform="translate(-167.591 680.46) rotate(-30.793)"/><circle class="cls-67" cx="1011.607" cy="316.047" r="2.043"/><circle class="cls-121" cx="970.705" cy="316.047" r="40.429" transform="translate(480.992 1188.172) rotate(-76.717)"/><circle class="cls-67" cx="880.876" cy="1025.093" r="2.043"/><circle class="cls-122" cx="839.974" cy="1025.093" r="40.429" transform="translate(-437.926 894.194) rotate(-45)"/><path class="cls-67" d="M714.178,41.935a2.043,2.043,0,1,1,.125-2.887A2.043,2.043,0,0,1,714.178,41.935Z" transform="translate(40.902)"/><circle class="cls-123" cx="753.699" cy="40.429" r="40.429"/><path class="cls-67" d="M673.111,65.709a2.043,2.043,0,1,1,.125-2.887A2.043,2.043,0,0,1,673.111,65.709Z" transform="translate(40.902)"/><circle class="cls-124" cx="712.632" cy="64.203" r="40.429"/><circle class="cls-67" cx="1097.65" cy="1234.857" r="2.043"/><circle class="cls-125" cx="1056.749" cy="1234.858" r="40.429" transform="translate(-522.76 1108.916) rotate(-45)"/><path class="cls-67" d="M193.348,671.663a2.043,2.043,0,1,1-2.043-2.043A2.044,2.044,0,0,1,193.348,671.663Z" transform="translate(40.902)"/><circle class="cls-126" cx="191.305" cy="671.664" r="40.429" transform="translate(-465.442 703.534) rotate(-76.717)"/><path class="cls-67" d="M754.626,904.707a2.043,2.043,0,1,1-2.043-2.043A2.043,2.043,0,0,1,754.626,904.707Z" transform="translate(40.902)"/><circle class="cls-127" cx="752.583" cy="904.707" r="40.429" transform="translate(-259.929 1429.298) rotate(-76.717)"/><path class="cls-67" d="M632.787,451.006a2.043,2.043,0,1,1-2.043-2.043A2.043,2.043,0,0,1,632.787,451.006Z" transform="translate(40.902)"/><circle class="cls-128" cx="630.744" cy="451.006" r="40.429" transform="translate(87.789 961.257) rotate(-76.717)"/><circle class="cls-67" cx="481.51" cy="438.333" r="2.043"/><circle class="cls-129" cx="440.609" cy="438.333" r="40.429" transform="translate(-93.302 201.98) rotate(-22.5)"/><path class="cls-67" d="M276.623,564.241a2.043,2.043,0,1,1-2.043-2.043A2.043,2.043,0,0,1,276.623,564.241Z" transform="translate(40.902)"/><circle class="cls-130" cx="274.58" cy="564.241" r="40.429" transform="translate(-296.751 701.839) rotate(-76.717)"/><path class="cls-67" d="M1004.96,544.218a2.043,2.043,0,1,1,.124-2.887A2.044,2.044,0,0,1,1004.96,544.218Z" transform="translate(40.902)"/><circle class="cls-131" cx="1003.579" cy="542.712" r="40.429" transform="matrix(0.859, -0.512, 0.512, 0.859, -95.451, 590.276)"/><path class="cls-67" d="M1003.992,464.079a2.044,2.044,0,1,1-2.044-2.043A2.044,2.044,0,0,1,1003.992,464.079Z" transform="translate(40.902)"/><circle class="cls-132" cx="1001.948" cy="464.079" r="40.429" transform="translate(6.212 844.41) rotate(-45)"/><path class="cls-67" d="M1107.9,773.908a2.043,2.043,0,1,1,.125-2.887A2.042,2.042,0,0,1,1107.9,773.908Z" transform="translate(40.902)"/><circle class="cls-133" cx="1147.422" cy="772.402" r="40.429"/><circle class="cls-67" cx="704.279" cy="953.88" r="2.043"/><circle class="cls-134" cx="704.279" cy="953.88" r="40.429"/><path class="cls-67" d="M796.946,971.584a2.043,2.043,0,1,1-2.043-2.044A2.043,2.043,0,0,1,796.946,971.584Z" transform="translate(40.902)"/><circle class="cls-135" cx="794.903" cy="971.584" r="40.429" transform="translate(-413.29 846.652) rotate(-45)"/><circle class="cls-67" cx="930.471" cy="894.154" r="2.043"/><circle class="cls-136" cx="889.569" cy="894.154" r="40.429" transform="translate(-330.812 890.912) rotate(-45)"/><path class="cls-67" d="M240.5,738.206a2.043,2.043,0,1,1-2.043-2.043A2.043,2.043,0,0,1,240.5,738.206Z" transform="translate(40.902)"/><circle class="cls-137" cx="238.461" cy="738.206" r="40.429" transform="translate(-411.245 384.833) rotate(-45)"/><path class="cls-67" d="M990.814,947.441a2.044,2.044,0,1,1-2.044-2.043A2.043,2.043,0,0,1,990.814,947.441Z" transform="translate(40.902)"/><circle class="cls-138" cx="988.77" cy="947.441" r="40.429" transform="translate(-339.436 976.665) rotate(-45)"/><circle class="cls-67" cx="664.876" cy="150.265" r="2.043"/><circle class="cls-139" cx="623.974" cy="150.265" r="40.429" transform="translate(375.27 723.023) rotate(-76.717)"/><circle class="cls-67" cx="1205.827" cy="1089.546" r="2.043"/><circle class="cls-140" cx="1164.925" cy="1089.546" r="40.429" transform="translate(-388.325 1142.847) rotate(-45)"/></g></g></g></g></svg>