<svg xmlns="http://www.w3.org/2000/svg" xmlns:xlink="http://www.w3.org/1999/xlink" viewBox="0 0 69.577 156.504"><defs><style>.cls-1{isolation:isolate;}.cls-10,.cls-11,.cls-12,.cls-13,.cls-17,.cls-18,.cls-19,.cls-2,.cls-20,.cls-21,.cls-22,.cls-23,.cls-24,.cls-25,.cls-3,.cls-31,.cls-4,.cls-5,.cls-54,.cls-57,.cls-6,.cls-7,.cls-75,.cls-77,.cls-8,.cls-81,.cls-82,.cls-83,.cls-84,.cls-9{mix-blend-mode:screen;}.cls-2{fill:url(#radial-gradient);}.cls-10,.cls-11,.cls-12,.cls-13,.cls-17,.cls-18,.cls-19,.cls-23,.cls-24,.cls-25,.cls-3{opacity:0.75;}.cls-3{fill:url(#linear-gradient);}.cls-20,.cls-21,.cls-22,.cls-4,.cls-5,.cls-8,.cls-9{opacity:0.42;}.cls-4{fill:url(#_376);}.cls-5{fill:url(#_376-2);}.cls-6,.cls-7{opacity:0.77;}.cls-6{fill:url(#radial-gradient-2);}.cls-7{fill:url(#radial-gradient-3);}.cls-8{fill:url(#_376-3);}.cls-9{fill:url(#_376-4);}.cls-10{fill:url(#linear-gradient-2);}.cls-11{fill:url(#linear-gradient-3);}.cls-12{fill:url(#linear-gradient-4);}.cls-13{fill:url(#linear-gradient-5);}.cls-14,.cls-15,.cls-16,.cls-26,.cls-27,.cls-28{mix-blend-mode:soft-light;}.cls-14{fill:url(#_276);}.cls-15{fill:url(#_276-2);}.cls-16{fill:url(#_276-3);}.cls-17{fill:url(#linear-gradient-6);}.cls-18{fill:url(#linear-gradient-7);}.cls-19{fill:url(#linear-gradient-8);}.cls-20{fill:url(#_376-5);}.cls-21{fill:url(#_376-6);}.cls-22{fill:url(#_376-7);}.cls-23{fill:url(#linear-gradient-9);}.cls-24{fill:url(#linear-gradient-10);}.cls-25{fill:url(#linear-gradient-11);}.cls-26{fill:url(#_276-4);}.cls-27{fill:url(#_276-5);}.cls-28{fill:url(#_276-6);}.cls-29,.cls-30,.cls-32,.cls-33{mix-blend-mode:color-dodge;}.cls-29{fill:url(#radial-gradient-4);}.cls-30{fill:url(#radial-gradient-5);}.cls-31{fill:url(#radial-gradient-6);}.cls-32{fill:url(#radial-gradient-7);}.cls-33{fill:url(#radial-gradient-8);}.cls-34,.cls-35,.cls-36,.cls-37,.cls-38,.cls-39,.cls-40,.cls-41,.cls-42,.cls-43,.cls-44,.cls-45,.cls-46,.cls-47,.cls-49,.cls-50,.cls-51,.cls-52,.cls-53,.cls-54,.cls-55,.cls-56,.cls-57,.cls-58,.cls-59,.cls-61,.cls-62,.cls-63,.cls-64,.cls-65,.cls-66,.cls-67,.cls-69,.cls-70,.cls-71,.cls-72,.cls-73,.cls-75,.cls-76,.cls-78,.cls-79,.cls-80,.cls-81,.cls-82,.cls-83,.cls-84{fill-rule:evenodd;}.cls-34{fill:url(#_72);}.cls-35,.cls-36,.cls-38,.cls-39,.cls-41,.cls-42,.cls-43,.cls-52,.cls-53,.cls-55,.cls-59,.cls-61,.cls-63,.cls-65,.cls-67,.cls-69,.cls-71,.cls-73,.cls-76{mix-blend-mode:multiply;}.cls-35{fill:url(#_3);}.cls-36{fill:url(#_214);}.cls-37{fill:url(#_72-2);}.cls-38{fill:url(#_3-2);}.cls-39{fill:url(#_214-2);}.cls-40{fill:url(#_72-3);}.cls-41{fill:url(#_3-3);}.cls-42,.cls-43,.cls-52,.cls-53,.cls-55{opacity:0.71;}.cls-42{fill:url(#_4);}.cls-43{fill:url(#_278);}.cls-44{fill:#fff;}.cls-45{fill:url(#_161);}.cls-46{fill:url(#_162);}.cls-47{fill:url(#_43);}.cls-48{fill:url(#_8);}.cls-49{fill:url(#_72-4);}.cls-50{fill:url(#_5);}.cls-51{fill:url(#_416);}.cls-52{fill:url(#_4-2);}.cls-53{fill:url(#_4-3);}.cls-54,.cls-75{opacity:0.52;}.cls-54{fill:url(#_320);}.cls-55{fill:#dccbdf;}.cls-56{fill:url(#_416-2);}.cls-57{fill:url(#radial-gradient-9);}.cls-58{fill:url(#_161-2);}.cls-59{fill:url(#_3-4);}.cls-60{fill:url(#_2);}.cls-61{fill:url(#_3-5);}.cls-62{fill:url(#_2-2);}.cls-63{fill:url(#_3-6);}.cls-64{fill:url(#_2-3);}.cls-65{fill:url(#_3-7);}.cls-66{fill:url(#_2-4);}.cls-67{fill:url(#_3-8);}.cls-68{fill:url(#_2-5);}.cls-69{fill:url(#_3-9);}.cls-70{fill:url(#_2-6);}.cls-71{fill:url(#_3-10);}.cls-72{fill:url(#_2-7);}.cls-73{fill:url(#_3-11);}.cls-74{fill:url(#_2-8);}.cls-75{fill:url(#_320-2);}.cls-76{fill:url(#_214-3);}.cls-77{fill:url(#radial-gradient-10);}.cls-78{fill:url(#_43-2);}.cls-79{fill:url(#_43-3);}.cls-80{fill:url(#_43-4);}.cls-81,.cls-82,.cls-83,.cls-84{opacity:0.5;}.cls-81{fill:url(#_213);}.cls-82{fill:url(#_213-2);}.cls-83{fill:url(#_213-3);}.cls-84{fill:url(#_213-4);}</style><radialGradient id="radial-gradient" cx="36.033" cy="120.59" r="31.842" gradientTransform="translate(145.269 58.077) rotate(76.855)" gradientUnits="userSpaceOnUse"><stop offset="0" stop-color="#e65a29"/><stop offset="0.061" stop-color="#cb5024" stop-opacity="0.884"/><stop offset="0.197" stop-color="#963b1b" stop-opacity="0.652"/><stop offset="0.335" stop-color="#682913" stop-opacity="0.453"/><stop offset="0.472" stop-color="#431a0c" stop-opacity="0.289"/><stop offset="0.608" stop-color="#250f07" stop-opacity="0.163"/><stop offset="0.741" stop-color="#110703" stop-opacity="0.072"/><stop offset="0.873" stop-color="#040201" stop-opacity="0.018"/><stop offset="1" stop-opacity="0"/></radialGradient><linearGradient id="linear-gradient" x1="36.167" y1="70.776" x2="36.167" y2="132.634" gradientUnits="userSpaceOnUse"><stop offset="0.006" stop-color="#f1e532"/><stop offset="0.055" stop-color="#f0dc31"/><stop offset="0.138" stop-color="#efc230"/><stop offset="0.243" stop-color="#ed992d"/><stop offset="0.366" stop-color="#e96029"/><stop offset="0.379" stop-color="#e95a29"/><stop offset="0.461" stop-color="#d15125" stop-opacity="0.897"/><stop offset="0.634" stop-color="#93391a" stop-opacity="0.631"/><stop offset="0.883" stop-color="#311309" stop-opacity="0.209"/><stop offset="1" stop-opacity="0"/></linearGradient><linearGradient id="_376" x1="37.964" y1="120.333" x2="37.775" y2="130.625" gradientUnits="userSpaceOnUse"><stop offset="0.006" stop-color="#e95a29"/><stop offset="0.148" stop-color="#e05627"/><stop offset="0.383" stop-color="#c64d23"/><stop offset="0.683" stop-color="#9d3d1c"/><stop offset="1" stop-color="#6a2913"/></linearGradient><linearGradient id="_376-2" x1="7012.485" y1="-5563.237" x2="7022.982" y2="-5563.237" gradientTransform="translate(7046.759 -5469.13) rotate(180)" xlink:href="#_376"/><radialGradient id="radial-gradient-2" cx="1538.716" cy="4005.512" r="12.25" gradientTransform="translate(-4047.464 -1408.866) scale(2.655 0.388)" gradientUnits="userSpaceOnUse"><stop offset="0.006" stop-color="#d23a22"/><stop offset="0.167" stop-color="#a22d1a" stop-opacity="0.771"/><stop offset="0.381" stop-color="#691d11" stop-opacity="0.499"/><stop offset="0.579" stop-color="#3c100a" stop-opacity="0.283"/><stop offset="0.754" stop-color="#1b0704" stop-opacity="0.129"/><stop offset="0.901" stop-color="#070201" stop-opacity="0.034"/><stop offset="1" stop-opacity="0"/></radialGradient><radialGradient id="radial-gradient-3" cx="1538.567" cy="4000.511" r="7.898" xlink:href="#radial-gradient-2"/><linearGradient id="_376-3" x1="40.228" y1="103.733" x2="40.046" y2="113.635" xlink:href="#_376"/><linearGradient id="_376-4" x1="44.434" y1="85.849" x2="44.289" y2="93.724" xlink:href="#_376"/><linearGradient id="linear-gradient-2" x1="28.601" y1="86.485" x2="27.892" y2="152.221" xlink:href="#linear-gradient"/><linearGradient id="linear-gradient-3" x1="36.348" y1="86.57" x2="35.64" y2="152.305" xlink:href="#linear-gradient"/><linearGradient id="linear-gradient-4" x1="40.781" y1="86.617" x2="40.073" y2="152.362" xlink:href="#linear-gradient"/><linearGradient id="linear-gradient-5" x1="45.323" y1="86.293" x2="44.119" y2="107.537" xlink:href="#linear-gradient"/><linearGradient id="_276" x1="39.372" y1="73.859" x2="37.97" y2="126.36" gradientUnits="userSpaceOnUse"><stop offset="0.006" stop-color="#f1e532"/><stop offset="0.138" stop-color="#f0dc31"/><stop offset="0.359" stop-color="#efc230"/><stop offset="0.639" stop-color="#ed992d"/><stop offset="0.966" stop-color="#e96029"/><stop offset="1" stop-color="#e95a29"/></linearGradient><linearGradient id="_276-2" x1="29.656" y1="69.945" x2="28.169" y2="125.611" xlink:href="#_276"/><linearGradient id="_276-3" x1="42.08" y1="70.289" x2="40.592" y2="125.967" xlink:href="#_276"/><linearGradient id="linear-gradient-6" x1="16.221" y1="65.364" x2="16.221" y2="146.352" xlink:href="#linear-gradient"/><linearGradient id="linear-gradient-7" x1="52.777" y1="65.364" x2="52.777" y2="146.352" xlink:href="#linear-gradient"/><linearGradient id="linear-gradient-8" x1="20.862" y1="64.596" x2="20.862" y2="145.584" xlink:href="#linear-gradient"/><linearGradient id="_376-5" x1="15.963" y1="110.796" x2="15.963" y2="136.643" xlink:href="#_376"/><linearGradient id="_376-6" x1="54.297" y1="107.528" x2="54.297" y2="137.008" xlink:href="#_376"/><linearGradient id="_376-7" x1="20.579" y1="110.169" x2="20.579" y2="136.618" xlink:href="#_376"/><linearGradient id="linear-gradient-9" x1="19.487" y1="104.755" x2="19.487" y2="140.894" xlink:href="#linear-gradient"/><linearGradient id="linear-gradient-10" x1="54.237" y1="104.755" x2="54.237" y2="140.894" xlink:href="#linear-gradient"/><linearGradient id="linear-gradient-11" x1="15.095" y1="104.755" x2="15.095" y2="140.894" xlink:href="#linear-gradient"/><linearGradient id="_276-4" x1="17.527" y1="109.812" x2="17.527" y2="154.07" xlink:href="#_276"/><linearGradient id="_276-5" x1="20.405" y1="109.811" x2="20.405" y2="154.07" xlink:href="#_276"/><linearGradient id="_276-6" x1="52.074" y1="111.949" x2="52.074" y2="153.385" xlink:href="#_276"/><radialGradient id="radial-gradient-4" cx="33.486" cy="102.93" r="6.053" gradientUnits="userSpaceOnUse"><stop offset="0" stop-color="#dd5634"/><stop offset="0.082" stop-color="#c54d2e" stop-opacity="0.891"/><stop offset="0.332" stop-color="#80321e" stop-opacity="0.577"/><stop offset="0.559" stop-color="#491c11" stop-opacity="0.329"/><stop offset="0.752" stop-color="#210d08" stop-opacity="0.15"/><stop offset="0.906" stop-color="#090302" stop-opacity="0.04"/><stop offset="1" stop-opacity="0"/></radialGradient><radialGradient id="radial-gradient-5" cx="27.434" cy="140.248" r="16.256" xlink:href="#radial-gradient-4"/><radialGradient id="radial-gradient-6" cx="36.66" cy="73.287" r="14.674" gradientTransform="translate(103.321 25.628) rotate(81.012)" gradientUnits="userSpaceOnUse"><stop offset="0" stop-color="#e65a29"/><stop offset="0.148" stop-color="#c04b22" stop-opacity="0.836"/><stop offset="0.57" stop-color="#5a2310" stop-opacity="0.39"/><stop offset="0.863" stop-color="#190a04" stop-opacity="0.109"/><stop offset="1" stop-opacity="0"/></radialGradient><radialGradient id="radial-gradient-7" cx="40.743" cy="139.819" r="13.125" xlink:href="#radial-gradient-4"/><radialGradient id="radial-gradient-8" cx="26.28" cy="98.07" r="11.847" xlink:href="#radial-gradient-4"/><radialGradient id="_72" cx="-263.161" cy="160.612" r="21.131" gradientTransform="translate(212.634 -108.886) scale(0.775 0.96)" gradientUnits="userSpaceOnUse"><stop offset="0" stop-color="#b0b4bc"/><stop offset="0.138" stop-color="#aaadbc"/><stop offset="0.338" stop-color="#9a9abe"/><stop offset="0.575" stop-color="#807bbf"/><stop offset="0.754" stop-color="#685ec1"/><stop offset="0.975" stop-color="#7a75d7"/></radialGradient><linearGradient id="_3" x1="15.924" y1="59.932" x2="29.935" y2="59.932" gradientUnits="userSpaceOnUse"><stop offset="0" stop-color="#b2a5da"/><stop offset="0.406" stop-color="#a585bd"/><stop offset="0.764" stop-color="#9c71aa"/><stop offset="1" stop-color="#9969a3"/></linearGradient><linearGradient id="_214" x1="10.011" y1="59.505" x2="24.135" y2="59.505" gradientUnits="userSpaceOnUse"><stop offset="0" stop-color="#e7e3f4"/><stop offset="0.073" stop-color="#dfd6ec"/><stop offset="0.372" stop-color="#c1a7cd"/><stop offset="0.637" stop-color="#ac85b7"/><stop offset="0.856" stop-color="#9f71a9"/><stop offset="1" stop-color="#9a69a4"/></linearGradient><radialGradient id="_72-2" cx="1893.784" cy="160.612" r="21.131" gradientTransform="matrix(-0.775, 0, 0, 0.96, 1533.414, -108.886)" xlink:href="#_72"/><linearGradient id="_3-2" x1="1644.991" y1="59.932" x2="1659.002" y2="59.932" gradientTransform="matrix(-1, 0, 0, 1, 1703.052, 0)" xlink:href="#_3"/><linearGradient id="_214-2" x1="1639.078" y1="59.505" x2="1653.202" y2="59.505" gradientTransform="matrix(-1, 0, 0, 1, 1703.052, 0)" xlink:href="#_214"/><radialGradient id="_72-3" cx="-226.119" cy="163.518" r="22.954" xlink:href="#_72"/><linearGradient id="_3-3" x1="40.056" y1="53.172" x2="30.981" y2="80.129" xlink:href="#_3"/><linearGradient id="_4" x1="37.449" y1="47.618" x2="37.449" y2="52.949" gradientUnits="userSpaceOnUse"><stop offset="0" stop-color="#9969a3"/><stop offset="0.134" stop-color="#a175aa"/><stop offset="0.375" stop-color="#b795be"/><stop offset="0.694" stop-color="#d9c8dd"/><stop offset="1" stop-color="#fff"/></linearGradient><linearGradient id="_278" x1="31.542" y1="63.146" x2="44.892" y2="63.146" gradientUnits="userSpaceOnUse"><stop offset="0" stop-color="#7a69a3"/><stop offset="0.134" stop-color="#8575aa"/><stop offset="0.375" stop-color="#a195be"/><stop offset="0.694" stop-color="#cec8dd"/><stop offset="1" stop-color="#fff"/></linearGradient><radialGradient id="_161" cx="47.959" cy="61.112" r="37.137" gradientUnits="userSpaceOnUse"><stop offset="0.006" stop-color="#dd5438"/><stop offset="0.214" stop-color="#da5139"/><stop offset="0.376" stop-color="#d0483d"/><stop offset="0.522" stop-color="#c03842"/><stop offset="0.659" stop-color="#a8224b"/><stop offset="0.789" stop-color="#8b0555"/><stop offset="0.81" stop-color="#850057"/><stop offset="1" stop-color="#b83145"/></radialGradient><radialGradient id="_162" cx="47.038" cy="20.859" r="28.918" gradientUnits="userSpaceOnUse"><stop offset="0" stop-color="#ffd5bd"/><stop offset="0.103" stop-color="#f8d0bf"/><stop offset="0.253" stop-color="#e5c2c6"/><stop offset="0.43" stop-color="#c5abd2"/><stop offset="0.627" stop-color="#9a8ce1"/><stop offset="0.754" stop-color="#7a75ed"/><stop offset="0.975" stop-color="#7a82ed"/></radialGradient><linearGradient id="_43" x1="33.333" y1="10.968" x2="42.194" y2="10.968" gradientUnits="userSpaceOnUse"><stop offset="0" stop-color="#590043"/><stop offset="0.06" stop-color="#5b0044"/><stop offset="0.468" stop-color="#650046"/><stop offset="0.994" stop-color="#680047"/></linearGradient><radialGradient id="_8" cx="1859.605" cy="23.099" r="19.47" gradientTransform="matrix(-0.707, -0.707, -0.707, 0.707, 1373.693, 1324.891)" gradientUnits="userSpaceOnUse"><stop offset="0.025" stop-color="#6a64b7"/><stop offset="0.939" stop-color="#5a4fbb"/></radialGradient><radialGradient id="_72-4" cx="1859.614" cy="21.652" r="19.842" gradientTransform="matrix(-1, 0, 0, 1, 1900.183, 0)" xlink:href="#_72"/><radialGradient id="_5" cx="1863.154" cy="36.348" r="14.778" gradientTransform="matrix(-1, 0, 0, 1, 1900.183, 0)" gradientUnits="userSpaceOnUse"><stop offset="0.025" stop-color="#8d37e1"/><stop offset="0.939" stop-color="#3f32b3"/></radialGradient><radialGradient id="_416" cx="1860.699" cy="23.613" r="12.184" gradientTransform="matrix(-1, 0, 0, 1, 1900.183, 0)" gradientUnits="userSpaceOnUse"><stop offset="0.006" stop-color="#fc0"/><stop offset="0.223" stop-color="#fec902"/><stop offset="0.408" stop-color="#fcbe08"/><stop offset="0.581" stop-color="#f8ad13"/><stop offset="0.748" stop-color="#f29422"/><stop offset="0.907" stop-color="#ea7435"/><stop offset="1" stop-color="#e55e42"/></radialGradient><linearGradient id="_4-2" x1="1862.463" y1="27.338" x2="1862.463" y2="16.113" gradientTransform="matrix(-1, 0, 0, 1, 1900.183, 0)" xlink:href="#_4"/><linearGradient id="_4-3" x1="33.795" y1="38.413" x2="40.683" y2="19.249" xlink:href="#_4"/><linearGradient id="_320" x1="1851.476" y1="19.575" x2="1859.627" y2="19.575" gradientTransform="matrix(-1, 0, 0, 1, 1900.183, 0)" gradientUnits="userSpaceOnUse"><stop offset="0" stop-color="#fff"/><stop offset="1" stop-color="#623964"/></linearGradient><radialGradient id="_416-2" cx="37.69" cy="7.77" r="3.752" gradientTransform="matrix(1, 0, 0, 1, 0, 0)" xlink:href="#_416"/><radialGradient id="radial-gradient-9" cx="37.641" cy="7.188" r="7.188" gradientUnits="userSpaceOnUse"><stop offset="0" stop-color="#ff2a00"/><stop offset="0.173" stop-color="#c52000" stop-opacity="0.772"/><stop offset="0.399" stop-color="#801500" stop-opacity="0.501"/><stop offset="0.602" stop-color="#490c00" stop-opacity="0.285"/><stop offset="0.777" stop-color="#210500" stop-opacity="0.13"/><stop offset="0.915" stop-color="#090100" stop-opacity="0.035"/><stop offset="1" stop-opacity="0"/></radialGradient><radialGradient id="_161-2" cx="61.865" cy="35.895" r="57.567" xlink:href="#_161"/><linearGradient id="_3-4" x1="36.814" y1="15.605" x2="38.329" y2="15.605" xlink:href="#_3"/><linearGradient id="_2" x1="37.051" y1="15.605" x2="38.255" y2="15.605" gradientUnits="userSpaceOnUse"><stop offset="0" stop-color="#5b58a2"/><stop offset="0.439" stop-color="#5f59a2"/><stop offset="0.848" stop-color="#6a5ca1"/><stop offset="0.994" stop-color="#705ea1"/></linearGradient><linearGradient id="_3-5" x1="26.889" y1="25.602" x2="28.405" y2="25.602" xlink:href="#_3"/><linearGradient id="_2-2" x1="27.127" y1="25.602" x2="28.33" y2="25.602" xlink:href="#_2"/><linearGradient id="_3-6" x1="47.099" y1="25.602" x2="48.615" y2="25.602" xlink:href="#_3"/><linearGradient id="_2-3" x1="47.337" y1="25.602" x2="48.541" y2="25.602" xlink:href="#_2"/><linearGradient id="_3-7" x1="44.632" y1="32.601" x2="46.147" y2="32.601" xlink:href="#_3"/><linearGradient id="_2-4" x1="44.869" y1="32.601" x2="46.073" y2="32.601" xlink:href="#_2"/><linearGradient id="_3-8" x1="28.668" y1="31.999" x2="30.183" y2="31.999" xlink:href="#_3"/><linearGradient id="_2-5" x1="28.906" y1="31.999" x2="30.109" y2="31.999" xlink:href="#_2"/><linearGradient id="_3-9" x1="30.109" y1="18.414" x2="31.625" y2="18.414" xlink:href="#_3"/><linearGradient id="_2-6" x1="30.347" y1="18.414" x2="31.551" y2="18.414" xlink:href="#_2"/><linearGradient id="_3-10" x1="44.339" y1="19.094" x2="45.855" y2="19.094" xlink:href="#_3"/><linearGradient id="_2-7" x1="44.577" y1="19.094" x2="45.781" y2="19.094" xlink:href="#_2"/><linearGradient id="_3-11" x1="36.814" y1="36.513" x2="38.329" y2="36.513" xlink:href="#_3"/><linearGradient id="_2-8" x1="37.051" y1="36.513" x2="38.255" y2="36.513" xlink:href="#_2"/><linearGradient id="_320-2" x1="16.65" y1="23.578" x2="30.867" y2="23.578" gradientTransform="matrix(1, 0, 0, 1, 0, 0)" xlink:href="#_320"/><linearGradient id="_214-3" x1="35.981" y1="26.101" x2="35.981" y2="40.868" xlink:href="#_214"/><radialGradient id="radial-gradient-10" cx="47.939" cy="19.575" r="9.52" gradientUnits="userSpaceOnUse"><stop offset="0.006" stop-color="#f4ff09"/><stop offset="0.066" stop-color="#dfe908" stop-opacity="0.912"/><stop offset="0.267" stop-color="#9ca306" stop-opacity="0.639"/><stop offset="0.457" stop-color="#646904" stop-opacity="0.411"/><stop offset="0.631" stop-color="#393c02" stop-opacity="0.234"/><stop offset="0.785" stop-color="#1a1b01" stop-opacity="0.106"/><stop offset="0.913" stop-color="#070700" stop-opacity="0.028"/><stop offset="1" stop-opacity="0"/></radialGradient><linearGradient id="_43-2" x1="17.528" y1="42.007" x2="20.273" y2="42.007" xlink:href="#_43"/><linearGradient id="_43-3" x1="37.066" y1="44.118" x2="39.152" y2="44.118" xlink:href="#_43"/><linearGradient id="_43-4" x1="58.237" y1="41.584" x2="59.693" y2="41.584" xlink:href="#_43"/><linearGradient id="_213" x1="41.352" y1="44.134" x2="34.846" y2="44.134" gradientUnits="userSpaceOnUse"><stop offset="0" stop-color="#fff"/><stop offset="1" stop-color="#660f0f"/></linearGradient><linearGradient id="_213-2" x1="22.058" y1="42.105" x2="15.196" y2="42.105" xlink:href="#_213"/><linearGradient id="_213-3" x1="62.139" y1="41.464" x2="56.182" y2="41.464" xlink:href="#_213"/><linearGradient id="_213-4" x1="86.299" y1="43.012" x2="20.075" y2="43.012" xlink:href="#_213"/></defs><title>ship-1</title><g class="cls-1"><g id="Layer_2" data-name="Layer 2"><g id="Spaceships"><g id="ship-1"><circle class="cls-2" cx="36.033" cy="120.59" r="31.842" transform="translate(-89.591 128.255) rotate(-76.855)"/><path class="cls-3" d="M47.86,82.616c-.243-2.686-4.538-18-4.538-18l-6.15.227-6.151-.227s-6.3,19.188-6.545,21.874-4.412,14.791,5.478,24.958a10.351,10.351,0,0,1,.99-6.118c1.6-3.677,3.408,1.362,3.475,4.251s-3.969,10.242-2.852,15.758c1.051,5.186,5.1,11.764,5.581,12.532v.074l.024-.037.023.037v-.074c.48-.768,6.674-10.592,7.825-15.754,2.607-11.687-6.369-19.1-2.949-24.295,2.042-3.1,2.907,1.889,2.907,1.889C51.435,89.6,48.1,85.3,47.86,82.616Z"/><path class="cls-4" d="M40.541,115.238c4.456,2.743,4.113,8.379,3.206,10.57s-8.06,9.559-8.06,9.559-3.5-7.32-4.12-10.032,2.986-6.747,2.986-6.747a3.6,3.6,0,0,0,2.993,1.709C39.885,120.568,40.541,115.238,40.541,115.238Z"/><path class="cls-5" d="M25.62,87.609c-1.861,6.152-2.293,8.692-1.386,11.526s5.233,7.156,5.233,7.156a28.953,28.953,0,0,1,3.612-7.434c2.83-4.438-.257-16.932-.257-16.932s-.948,4.831-2.17,6.841C27.784,93.482,25.62,87.609,25.62,87.609Z"/><ellipse class="cls-6" cx="37.058" cy="145.273" rx="32.519" ry="4.753"/><ellipse class="cls-7" cx="36.663" cy="143.333" rx="20.966" ry="3.065"/><path class="cls-8" d="M44.311,118.312s-8.426-7.7-8.652-11.144,3.309-8.405,3.309-8.405-1.82,5.428.091,7.528c3.549,3.9,1.405-3.939,1.405-3.939C45.9,111.512,44.311,118.312,44.311,118.312Z"/><path class="cls-9" d="M44.952,97.394c.272-.071,3.944-5.768,3.672-9.208s-3.672-6.261-3.672-6.261,1.428,4.986,0,5.553-2.881-2.9-2.881-2.9-3.375,6.445-1.335,8.853A26.31,26.31,0,0,0,44.952,97.394Z"/><path class="cls-10" d="M28.714,103.674a10.356,10.356,0,0,1-4.232-9.566c.279-3.533,1.385-4.449,1.385-4.449a7.438,7.438,0,0,0,1.36,7.007c.98,1.155,4.9-3.569,4.9-3.569a4.989,4.989,0,0,1,0,4.3A40.581,40.581,0,0,1,28.714,103.674Z"/><path class="cls-11" d="M34.108,121.9s-1.861,3.4-.79,6.422a11.9,11.9,0,0,0,2.72,4.533s2.794-2.455,2.794-4.438S34.122,124.66,34.108,121.9Z"/><path class="cls-12" d="M37.059,104.972s-1.262,4.392,1.071,6.587a82.294,82.294,0,0,1,5.617,6.225s1.477-5.162-.291-7S37.1,107.861,37.059,104.972Z"/><path class="cls-13" d="M45.813,83.7c1.768,1.983,3.038,3.919,1.95,6.611a61.3,61.3,0,0,1-3.235,6.355s-3.066-3.624-2.3-7.007a1.913,1.913,0,0,0,2.905.524C46.811,88.8,45.813,83.7,45.813,83.7Z"/><path class="cls-14" d="M34.345,104.122c2.125,9-1.443,10.512-2.736,16.462s2.6,11.5,4.3,13.641c0,0,8.451-4.746,8.907-13.458.637-12.149-3.536-17.095-5.576-19.49s-2.522-7.169-2.522-7.169S33.324,99.8,34.345,104.122Z"/><path class="cls-15" d="M28.942,109.86A28.9,28.9,0,0,1,24.96,86.84c3.259-13.508,6.052-18.557,6.052-18.557A23.455,23.455,0,0,0,31.5,84.574c3.492,9.065,3.016,11.151-.146,16.393S28.942,109.86,28.942,109.86Z"/><path class="cls-16" d="M45.137,98.031s5.256-6.6,2.842-14.7a82.289,82.289,0,0,0-7.37-16.293s-6.4,2.833-5.755,15.5S43.116,94.108,45.137,98.031Z"/><path class="cls-17" d="M31.942,143.412c2.189.283-3.08-17.539-10.738-17-10.356.73-10.356-9.523-10.356-9.523s-6.127,7.114-3.616,11.4.1,9.311-3.114,7.323A10.263,10.263,0,0,1,0,131.436s1.906,7.445,4.922,9.884C17.276,151.311,26.347,142.688,31.942,143.412Z"/><path class="cls-18" d="M37.259,143.7c-.648.337,12.642-12.555,12.377-19.376-.424-10.933-5.642-8.971-3.42-18.413,0,0,2.6,6.1,4.044,3.007,1.652-3.531-1.369-6.2-.553-10.635a35.616,35.616,0,0,0,8.919,17.732c6.023,6.366,10.6,12.6,5.474,16.783s4.219,5.65,4.219,5.65.1,3.331-5.826,5.537S40.456,142.037,37.259,143.7Z"/><path class="cls-19" d="M24.646,125.15s-12.293.484-5.545-12.513c2.223-4.282-.091-11.37-.091-11.37a23.083,23.083,0,0,1,3.907,8.72C24.189,115.476,23,121.868,24.646,125.15Z"/><path class="cls-20" d="M8.638,122.54c-1.945,4.222-.5,6.7,1.206,8.9s11.249,4.182,13.961,6.275c0,0,1.352-7.847-.831-9.1,0,0,.871,2.3-2.112,2.407s-4.641-.851-7.377-3.348c-2.243-2.046-4.144-6.984-4.144-6.984Z"/><path class="cls-21" d="M45.965,107.091c-.068,11.369,7.924,14.3,8.1,19.425s-.528,6.7-.528,6.7,10.879-4.861,8.839-10.1S52.733,111.66,52.03,109.776c0,0,1.3,2.825-.9,2.511S45.965,107.091,45.965,107.091Z"/><path class="cls-22" d="M22.192,123.691c-3.6-.53-5.468-5.44-3.66-8.814s2.787-5.1,2.787-5.1a9.364,9.364,0,0,1-.457,6.234c-1.426,3.575,1.708,1.731,1.708,1.731S24.5,124.031,22.192,123.691Z"/><path class="cls-23" d="M20.862,122.1c-2.782-2.354-3.814-4.438-2.035-7.769s2.2-3.01,2.2-3.01a12.541,12.541,0,0,0-1.276,5.914A23.3,23.3,0,0,0,20.862,122.1Z"/><path class="cls-24" d="M47.61,111.974c-.226,4.943,3.794,7.89,5.65,9.486,4.294,3.692,4.109,8.962,3.465,9.659,0,0,4.822-4.865,4.068-8.012-.969-4.05-6.124-9.9-6.124-9.9s.022,1.877-2.313,1.589S47.61,111.974,47.61,111.974Z"/><path class="cls-25" d="M9.944,122.1c-5.405,11.116,11.375,13.121,11.375,13.121s-5.1-2.005-7.608-4.568C10.532,127.4,9.944,122.1,9.944,122.1Z"/><path class="cls-26" d="M9.77,119.023c-5.894,7.272-.994,11.364.142,14.712s-4.437,4.6-6.1,2.511c0,0,.76,8.4,11.278,8.75s16.143-3,16.143-3-.779-12.973-7.019-13.915-9.582.83-12.431-2.933S9.77,119.023,9.77,119.023Z"/><path class="cls-27" d="M21.774,119.088c-1.8,5.033,1.551,6,1.551,6s-6.42-.939-5.8-6.312c.3-2.629,1.248-3.86,3.792-9,1.606-3.243-1.832-7.218-1.832-7.218A17.537,17.537,0,0,1,21.774,119.088Z"/><path class="cls-28" d="M46.187,110.374a24.463,24.463,0,0,0,4.067,9.5c6.158,8.34-11.382,23.458-11.382,23.458s18.465-.836,22-7.192,6.625-9.467,2.255-14.045S49,116.511,46.187,110.374Z"/><circle class="cls-29" cx="33.487" cy="102.93" r="6.053"/><circle class="cls-30" cx="27.434" cy="140.248" r="16.256"/><circle class="cls-31" cx="36.661" cy="73.287" r="14.674" transform="translate(-41.454 98.049) rotate(-81.012)"/><circle class="cls-32" cx="40.743" cy="139.819" r="13.125"/><circle class="cls-33" cx="26.28" cy="98.07" r="11.847"/><path class="cls-34" d="M29.935,45.806a40.721,40.721,0,0,0-8.581,12.363l0,0A73.153,73.153,0,0,0,15.924,74.8s-4.516-9.546-4.809-15.29v0c-.014-.264-.019-.52-.014-.765.061-2.768,1.308-9.526,7.076-13.677q.622-.45,1.318-.855l3.736.572,1.852.283Z"/><path class="cls-35" d="M29.935,45.806C19.256,55.756,15.924,74.8,15.924,74.8c.517-13.431,1.895-17.268,1.895-17.268,2.67-6.5,5.34-10.312,7.264-12.468Z"/><path class="cls-36" d="M21.732,57.386l.059-.119q.176-.355.357-.709l.039-.077q.409-.8.851-1.586l.052-.092q.444-.792.922-1.574l.033-.052c.145-.236.292-.47.441-.7.025-.038.049-.076.073-.114q.483-.748,1-1.477l.1-.138q.215-.3.437-.6c.032-.044.064-.088.1-.131q.264-.352.535-.7l.061-.076q.237-.3.479-.591l.149-.177c.154-.184.311-.366.469-.546.033-.037.065-.075.1-.112q.282-.316.571-.625l.146-.153c.151-.159.3-.316.458-.471.057-.058.114-.115.172-.172.2-.2.4-.4.608-.587l-6.7-1.025L19.5,44.209q-.695.4-1.318.855c2.137.838,2.316,3.417,2.057,5.537-5.947,12.515-9.119,8.905-9.119,8.905v0c.293,5.744,4.809,15.29,4.809,15.29a73.192,73.192,0,0,1,5.43-16.631h0C21.477,57.908,21.6,57.647,21.732,57.386Z"/><path class="cls-37" d="M44.05,45.806a40.721,40.721,0,0,1,8.581,12.363l0,0A73.153,73.153,0,0,1,58.061,74.8s4.516-9.546,4.809-15.29v0c.014-.264.019-.52.014-.765-.061-2.768-1.308-9.526-7.076-13.677q-.622-.45-1.318-.855l-3.736.572-1.852.283Z"/><path class="cls-38" d="M44.05,45.806C54.729,55.756,58.061,74.8,58.061,74.8c-.517-13.431-1.9-17.268-1.9-17.268-2.67-6.5-5.34-10.312-7.264-12.468Z"/><path class="cls-39" d="M52.253,57.386l-.059-.119q-.176-.355-.357-.709l-.039-.077q-.41-.8-.851-1.586L50.9,54.8q-.446-.792-.922-1.574l-.033-.052c-.145-.236-.292-.47-.441-.7l-.074-.114q-.481-.748-1-1.477l-.1-.138q-.215-.3-.437-.6c-.032-.044-.064-.088-.1-.131q-.264-.352-.535-.7L47.2,49.24q-.237-.3-.48-.591l-.148-.177c-.154-.184-.311-.366-.469-.546l-.1-.112q-.28-.316-.57-.625l-.146-.153q-.226-.239-.458-.471c-.057-.058-.114-.115-.172-.172-.2-.2-.4-.4-.608-.587l6.7-1.025,3.736-.572q.694.4,1.318.855c-2.137.838-2.316,3.417-2.057,5.537,5.946,12.515,9.119,8.905,9.119,8.905v0c-.293,5.744-4.809,15.29-4.809,15.29a73.192,73.192,0,0,0-5.43-16.631h0C52.508,57.908,52.381,57.647,52.253,57.386Z"/><path class="cls-40" d="M44.768,63.145c-.841,7.667-6.4,16.16-7.347,17.565v.2l-.012-.017-.059-.086-.068.1v-.2c-.949-1.4-6.508-9.9-7.347-17.565,0,0-.2-3.119,1.3-9.468.2-.85.434-1.761.7-2.728.463-1.68,1.035-3.535,1.736-5.569h7.347a44.4,44.4,0,0,1,1.932,5.588c.259.931.477,1.837.667,2.709l0,.009A48.063,48.063,0,0,1,44.768,63.145Z"/><path class="cls-41" d="M44.768,63.145c-.841,7.667-6.4,16.16-7.347,17.565v.2s-.026-.036-.071-.1l-.068.1v-.2c-.949-1.4-6.508-9.9-7.347-17.565,0,0-.2-3.119,1.3-9.468-.3,10.89,6.256,11.526,6.256,11.526s7.441-2.264,6.131-11.517A48.063,48.063,0,0,1,44.768,63.145Z"/><path class="cls-42" d="M42.957,50.968l-.043-.019c-4.589-2.1-10.972,0-10.972,0,.463-1.68,1.035-3.535,1.736-5.569h7.347A44.4,44.4,0,0,1,42.957,50.968Z"/><path class="cls-43" d="M37.506,45.38l-.085,35.33s0,.066-.012.186l-.059-.086-.068.1v-.2c-.949-1.4-6.508-9.9-7.347-17.565,0,0-.2-3.119,1.3-9.468.2-.85.434-1.761.7-2.728.463-1.68,1.035-3.535,1.736-5.569Z"/><path class="cls-44" d="M37.712,54.6a13.09,13.09,0,0,0,.158,4.922C40.005,55.857,37.712,54.6,37.712,54.6Z"/><path class="cls-45" d="M62.735,43.43s-6.443,4-25,4-25-4-25-4l.333-6.444A11.317,11.317,0,0,1,16.61,35.1l.132,2c13.109,2.444,15.713,2.444,21,2.444s7.888,0,21-2.444l.133-2a6.723,6.723,0,0,1,3.495,1.558Z"/><path class="cls-46" d="M58.736,37.1c-6.184,1.74-15.713,2.555-21,2.555s-14.814-.815-21-2.555c0,0-2.88-23.335,16.591-26.374a29.863,29.863,0,0,1,8.861.007C61.611,13.8,58.736,37.1,58.736,37.1Z"/><path class="cls-47" d="M42.194,10.73c-.431.964-8.094,1.19-8.861,0v-.007a29.863,29.863,0,0,1,8.861.007Z"/><circle class="cls-48" cx="37.653" cy="26.916" r="11.468" transform="translate(-8.004 34.508) rotate(-45)"/><path class="cls-49" d="M26.185,26c.475,6.824,5.135,11.467,11.468,11.467A11.467,11.467,0,0,0,49.121,26c0-6.334-5.134-12.267-11.468-12.267A11.886,11.886,0,0,0,26.185,26Z"/><path class="cls-50" d="M29.211,26c0,4.664,3.136,9.085,7.789,9.391,6.516.43,8.827-4.463,9.081-8.9.01-.163.015-.327.015-.493a8.443,8.443,0,1,0-16.885,0Z"/><path class="cls-51" d="M30.477,26a7.176,7.176,0,1,0,7.176-7.177A7.176,7.176,0,0,0,30.477,26Z"/><path class="cls-52" d="M30.677,27.69c-.151-2.6,1.273-6.851,6.747-6.42,6.7.528,7.2,6.42,7.2,6.42l1.452-1.2c.01-.163.015-.327.015-.493a8.443,8.443,0,0,0-16.752-1.5Z"/><path class="cls-53" d="M49.121,27.69S47.4,37.13,37.653,37.469C27.557,37.821,26.185,26.6,26.185,26.6S23.463,39.374,37.294,39.374C47.891,39.374,49.121,27.69,49.121,27.69Z"/><path class="cls-44" d="M41.132,24.8c.133,1.862-2.427.9-2.691.422s.369-1.109.95-1.161S41.079,24.058,41.132,24.8Z"/><path class="cls-54" d="M42.174,15.108s4.729,1.583,6.533,7.985l-2.246.95s-.382-3.941-5.905-6.614Z"/><path class="cls-55" d="M28.894,25.087l-2.287.515S25.8,35.419,35.435,37.27l.187-1.848S28.753,33.494,28.894,25.087Z"/><path class="cls-56" d="M41.436,11.111c0-4.675-1.739-7.1-3.746-7.1s-3.747,2.424-3.747,7.1a10.627,10.627,0,0,0,3.7.418A11.806,11.806,0,0,0,41.436,11.111Z"/><path class="cls-44" d="M38.072,4.578a3.454,3.454,0,0,0,1.444,3.407s.709-.383.445-1.7S38.072,4.578,38.072,4.578Z"/><path class="cls-57" d="M44.829,7.188A7.188,7.188,0,1,1,37.641,0,7.189,7.189,0,0,1,44.829,7.188Z"/><path class="cls-44" d="M44.632,16.4c-1.255.561,1.9,3.045,2.467,2.838a6.6,6.6,0,0,0-1.1-1.5A9.411,9.411,0,0,0,44.632,16.4Z"/><path class="cls-58" d="M62.364,36.655c-13.48,5.777-37.568,5.275-49.289.331A11.317,11.317,0,0,1,16.61,35.1l.132,2c13.109,2.444,15.713,2.444,21,2.444s7.888,0,21-2.444l.133-2A6.723,6.723,0,0,1,62.364,36.655Z"/><path class="cls-59" d="M38.329,15.605a.758.758,0,1,1-.758-.758A.757.757,0,0,1,38.329,15.605Z"/><circle class="cls-60" cx="37.653" cy="15.605" r="0.602"/><path class="cls-61" d="M28.405,25.6a.758.758,0,1,1-.758-.758A.758.758,0,0,1,28.405,25.6Z"/><path class="cls-62" d="M28.33,25.6a.6.6,0,1,1-.6-.6A.6.6,0,0,1,28.33,25.6Z"/><path class="cls-63" d="M48.615,25.6a.758.758,0,1,1-.758-.758A.758.758,0,0,1,48.615,25.6Z"/><path class="cls-64" d="M48.541,25.6a.6.6,0,1,1-.6-.6A.6.6,0,0,1,48.541,25.6Z"/><path class="cls-65" d="M46.147,32.6a.758.758,0,1,1-.757-.758A.757.757,0,0,1,46.147,32.6Z"/><path class="cls-66" d="M46.073,32.6a.6.6,0,1,1-.6-.6A.6.6,0,0,1,46.073,32.6Z"/><path class="cls-67" d="M30.183,32a.758.758,0,1,1-.757-.757A.757.757,0,0,1,30.183,32Z"/><circle class="cls-68" cx="29.507" cy="31.999" r="0.602"/><path class="cls-69" d="M31.625,18.414a.762.762,0,1,1-.758-.68A.722.722,0,0,1,31.625,18.414Z"/><path class="cls-70" d="M31.551,18.414a.606.606,0,1,1-.6-.54A.574.574,0,0,1,31.551,18.414Z"/><path class="cls-71" d="M45.855,19.094a.758.758,0,1,1-.758-.758A.758.758,0,0,1,45.855,19.094Z"/><path class="cls-72" d="M45.781,19.094a.6.6,0,1,1-.6-.6A.6.6,0,0,1,45.781,19.094Z"/><path class="cls-73" d="M38.329,36.512a.758.758,0,1,1-.758-.757A.758.758,0,0,1,38.329,36.512Z"/><circle class="cls-74" cx="37.653" cy="36.513" r="0.602"/><path class="cls-75" d="M30.867,11.245c-9.052,2.707-13.563,15.847-14.2,24.666,0,0-.367-8.553,2.628-15.037C22.654,13.6,30.867,11.245,30.867,11.245Z"/><path class="cls-76" d="M21.13,22.624A39.671,39.671,0,0,0,17.38,37.27l-.638-.173-.132-2a13.057,13.057,0,0,0-3.535,1.889s4.7,2.666,21.164,3.855c0,0,8.536.422,24.5-3.744l.15-4.34a4.283,4.283,0,0,1-2.428,3.755c-.606.336-19.644,5.288-33.31.957C18.16,35.889,21.13,22.624,21.13,22.624Z"/><path class="cls-44" d="M47.857,15.449c.632,3.285,2.294,5.65,3.2,5.317s1.207-3.342,0-4.56S47.615,14.191,47.857,15.449Z"/><circle class="cls-77" cx="47.939" cy="19.575" r="9.52"/><path class="cls-78" d="M17.918,38.575a23.308,23.308,0,0,1-.723,6.562l1.127.3s-.61-4.218.432-6.669Z"/><path class="cls-79" d="M36.814,40.807s.593.771,0,6.622H38a29.953,29.953,0,0,1-.259-6.589Z"/><path class="cls-80" d="M58.886,37.969a41.543,41.543,0,0,0,0,6.99l-.826.24a40.64,40.64,0,0,0,0-7.008Z"/><path class="cls-81" d="M37.739,40.84A15.721,15.721,0,0,1,38,47.429a22.166,22.166,0,0,1-.357-4.269C37.741,41.359,37.739,40.84,37.739,40.84Z"/><path class="cls-82" d="M18.754,38.77s-.184,3.587-.432,6.669a20.325,20.325,0,0,1-.156-3.621A22.55,22.55,0,0,1,18.754,38.77Z"/><path class="cls-83" d="M58.886,37.969a29.9,29.9,0,0,1,.368,3.7,7.308,7.308,0,0,1-.367,3.288s-.2-2.25-.15-3.881S58.886,37.969,58.886,37.969Z"/><path class="cls-84" d="M48.381,40.159c1.689,1.826,1.393,4.379,1.393,5.121S48.615,46.9,48.615,46.9l5.8-.851s-.752.64-1.123-1.656-.271-4.35,1.123-5.267Z"/><path class="cls-44" d="M48.381,40.159c1.4-1.019,6.034-1.034,6.034-1.034a11.492,11.492,0,0,1-3.017.8A17.809,17.809,0,0,1,48.381,40.159Z"/></g></g></g></g></svg>