<svg xmlns="http://www.w3.org/2000/svg" xmlns:xlink="http://www.w3.org/1999/xlink" viewBox="0 0 112.161 150.454"><defs><style>.cls-1{isolation:isolate;}.cls-10,.cls-100,.cls-11,.cls-12,.cls-13,.cls-14,.cls-15,.cls-2,.cls-25,.cls-29,.cls-3,.cls-30,.cls-31,.cls-32,.cls-33,.cls-34,.cls-35,.cls-36,.cls-37,.cls-38,.cls-39,.cls-4,.cls-40,.cls-41,.cls-42,.cls-43,.cls-44,.cls-45,.cls-46,.cls-47,.cls-48,.cls-49,.cls-5,.cls-52,.cls-53,.cls-54,.cls-55,.cls-56,.cls-57,.cls-58,.cls-60,.cls-64,.cls-65,.cls-66,.cls-67,.cls-68,.cls-69,.cls-70,.cls-71,.cls-72,.cls-73,.cls-74,.cls-75,.cls-76,.cls-77,.cls-78,.cls-79,.cls-80,.cls-81,.cls-82,.cls-83,.cls-84,.cls-85,.cls-86,.cls-87,.cls-88,.cls-89,.cls-90,.cls-91,.cls-92,.cls-93,.cls-94,.cls-95,.cls-96,.cls-97,.cls-98,.cls-99{fill-rule:evenodd;}.cls-2{fill:url(#_242);}.cls-3{fill:url(#_242-2);}.cls-4{fill:url(#_242-3);}.cls-5{fill:url(#_242-4);}.cls-12,.cls-13,.cls-14,.cls-15,.cls-16,.cls-17,.cls-18,.cls-19,.cls-20,.cls-26,.cls-27,.cls-28,.cls-34,.cls-36,.cls-42,.cls-43,.cls-55,.cls-56,.cls-59,.cls-6,.cls-60,.cls-61,.cls-62,.cls-63,.cls-64,.cls-7,.cls-72,.cls-73,.cls-74,.cls-8,.cls-85,.cls-86,.cls-87,.cls-88,.cls-9,.cls-92,.cls-93,.cls-94,.cls-95,.cls-96{mix-blend-mode:screen;}.cls-6{fill:url(#radial-gradient);}.cls-7{fill:url(#radial-gradient-2);}.cls-8{fill:url(#radial-gradient-3);}.cls-9{fill:url(#radial-gradient-4);}.cls-10{fill:url(#_119);}.cls-100,.cls-11,.cls-30,.cls-33,.cls-54,.cls-57,.cls-58,.cls-65,.cls-67,.cls-68,.cls-69,.cls-71,.cls-75,.cls-76,.cls-77,.cls-79,.cls-80,.cls-81,.cls-82,.cls-84,.cls-89,.cls-90,.cls-91,.cls-97,.cls-98,.cls-99{mix-blend-mode:multiply;}.cls-11{fill:url(#_210);}.cls-12,.cls-13,.cls-14,.cls-15{opacity:0.6;}.cls-12{fill:url(#linear-gradient);}.cls-13{fill:url(#linear-gradient-2);}.cls-14{fill:url(#linear-gradient-3);}.cls-15{fill:url(#linear-gradient-4);}.cls-16{fill:url(#radial-gradient-5);}.cls-17{fill:url(#radial-gradient-6);}.cls-18{fill:url(#radial-gradient-7);}.cls-19{fill:url(#radial-gradient-8);}.cls-20{fill:url(#radial-gradient-9);}.cls-21,.cls-22,.cls-23,.cls-24,.cls-25{mix-blend-mode:color-dodge;}.cls-21{fill:url(#radial-gradient-10);}.cls-22{fill:url(#radial-gradient-11);}.cls-23{fill:url(#radial-gradient-12);}.cls-24{fill:url(#radial-gradient-13);}.cls-25{fill:url(#radial-gradient-14);}.cls-26{fill:url(#radial-gradient-15);}.cls-27{fill:url(#radial-gradient-16);}.cls-28{fill:url(#radial-gradient-17);}.cls-29{fill:url(#_184);}.cls-100,.cls-30,.cls-33,.cls-42,.cls-43,.cls-72,.cls-73,.cls-74,.cls-85,.cls-86,.cls-87,.cls-88,.cls-92,.cls-93,.cls-94,.cls-95,.cls-96,.cls-97,.cls-98,.cls-99{opacity:0.5;}.cls-30{fill:url(#_210-2);}.cls-31{fill:url(#_220);}.cls-32{fill:url(#_184-2);}.cls-33{fill:url(#_210-3);}.cls-34{opacity:0.35;fill:url(#_152);}.cls-35{fill:#fff;}.cls-36{fill:url(#radial-gradient-18);}.cls-37{fill:url(#_43);}.cls-38{fill:url(#_43-2);}.cls-39{fill:url(#_43-3);}.cls-40{fill:url(#_119-2);}.cls-41{fill:url(#_162);}.cls-42{fill:url(#_320);}.cls-43{fill:url(#_494);}.cls-44{fill:url(#_162-2);}.cls-45{fill:#2b1f54;}.cls-46{fill:url(#_242-5);}.cls-47{fill:url(#_242-6);}.cls-48{fill:url(#_242-7);}.cls-49{fill:url(#_242-8);}.cls-50{fill:url(#_119-3);}.cls-51{fill:url(#_119-4);}.cls-52{fill:url(#_501);}.cls-53{fill:url(#_501-2);}.cls-54{fill:url(#_214);}.cls-55,.cls-56{opacity:0.91;}.cls-55{fill:url(#_320-2);}.cls-56{fill:url(#_320-3);}.cls-57{fill:url(#_210-4);}.cls-58,.cls-71,.cls-84{opacity:0.71;}.cls-58{fill:url(#_68);}.cls-59{fill:url(#radial-gradient-19);}.cls-60{fill:url(#radial-gradient-20);}.cls-61{fill:url(#radial-gradient-21);}.cls-62{fill:url(#radial-gradient-22);}.cls-63{fill:url(#radial-gradient-23);}.cls-64{fill:url(#radial-gradient-24);}.cls-65{fill:url(#_210-5);}.cls-66{fill:url(#_119-5);}.cls-67{fill:url(#_210-6);}.cls-68{fill:url(#_210-7);}.cls-69{fill:url(#_210-8);}.cls-70{fill:url(#_162-3);}.cls-71{fill:url(#_68-2);}.cls-72{fill:url(#_494-2);}.cls-73{fill:url(#_494-3);}.cls-74{fill:url(#_494-4);}.cls-75{fill:url(#_210-9);}.cls-76{fill:url(#_210-10);}.cls-77{fill:url(#_210-11);}.cls-78{fill:url(#_119-6);}.cls-79{fill:url(#_210-12);}.cls-80{fill:url(#_210-13);}.cls-81{fill:url(#_210-14);}.cls-82{fill:url(#_210-15);}.cls-83{fill:url(#_162-4);}.cls-84{fill:url(#_68-3);}.cls-85{fill:url(#_494-5);}.cls-86{fill:url(#_494-6);}.cls-87{fill:url(#_494-7);}.cls-88{fill:url(#_494-8);}.cls-89{fill:url(#_210-16);}.cls-90{fill:url(#_210-17);}.cls-91{fill:url(#_210-18);}.cls-92{fill:url(#_320-4);}.cls-93{fill:url(#_320-5);}.cls-94{fill:url(#_61);}.cls-95{fill:url(#_61-2);}.cls-96{fill:url(#_61-3);}.cls-97{fill:url(#_210-19);}.cls-98{fill:url(#_210-20);}.cls-99{fill:url(#_210-21);}.cls-100{fill:url(#_210-22);}</style><linearGradient id="_242" x1="33.881" y1="10.598" x2="31.411" y2="6.319" gradientUnits="userSpaceOnUse"><stop offset="0.006" stop-color="#ff5c63"/><stop offset="0.259" stop-color="#fd5963"/><stop offset="0.456" stop-color="#f54f61"/><stop offset="0.633" stop-color="#e93f5f"/><stop offset="0.8" stop-color="#d7275c"/><stop offset="0.957" stop-color="#c10a58"/><stop offset="1" stop-color="#ba0057"/></linearGradient><linearGradient id="_242-2" x1="50.201" y1="8.175" x2="47.905" y2="4.199" xlink:href="#_242"/><linearGradient id="_242-3" x1="67.918" y1="8.843" x2="65.087" y2="3.94" xlink:href="#_242"/><linearGradient id="_242-4" x1="86.317" y1="10.839" x2="83.711" y2="6.325" xlink:href="#_242"/><radialGradient id="radial-gradient" cx="85.415" cy="8.819" r="5.78" gradientUnits="userSpaceOnUse"><stop offset="0" stop-color="#ff2a00"/><stop offset="0.173" stop-color="#c52000" stop-opacity="0.772"/><stop offset="0.399" stop-color="#801500" stop-opacity="0.501"/><stop offset="0.602" stop-color="#490c00" stop-opacity="0.285"/><stop offset="0.777" stop-color="#210500" stop-opacity="0.13"/><stop offset="0.915" stop-color="#090100" stop-opacity="0.035"/><stop offset="1" stop-opacity="0"/></radialGradient><radialGradient id="radial-gradient-2" cx="66.61" cy="5.78" r="5.78" xlink:href="#radial-gradient"/><radialGradient id="radial-gradient-3" cx="49.26" cy="6.355" r="5.78" xlink:href="#radial-gradient"/><radialGradient id="radial-gradient-4" cx="32.924" cy="8.069" r="5.78" xlink:href="#radial-gradient"/><linearGradient id="_119" x1="36.869" y1="51.003" x2="51.985" y2="51.003" gradientUnits="userSpaceOnUse"><stop offset="0" stop-color="#5b58a3"/><stop offset="0.439" stop-color="#5f59a3"/><stop offset="0.848" stop-color="#6a5ca2"/><stop offset="0.994" stop-color="#705ea2"/></linearGradient><linearGradient id="_210" x1="44.427" y1="57.055" x2="44.427" y2="47.389" gradientUnits="userSpaceOnUse"><stop offset="0" stop-color="#b3a6db"/><stop offset="0.413" stop-color="#a685be"/><stop offset="0.766" stop-color="#9d71ab"/><stop offset="1" stop-color="#9a69a4"/></linearGradient><linearGradient id="linear-gradient" x1="60.428" y1="44.003" x2="60.428" y2="120.367" gradientUnits="userSpaceOnUse"><stop offset="0" stop-color="#067fff"/><stop offset="0.173" stop-color="#0562c5" stop-opacity="0.772"/><stop offset="0.399" stop-color="#034080" stop-opacity="0.501"/><stop offset="0.602" stop-color="#022449" stop-opacity="0.285"/><stop offset="0.777" stop-color="#011121" stop-opacity="0.13"/><stop offset="0.915" stop-color="#000409" stop-opacity="0.035"/><stop offset="1" stop-opacity="0"/></linearGradient><linearGradient id="linear-gradient-2" x1="19.497" y1="58.21" x2="19.497" y2="135.352" xlink:href="#linear-gradient"/><linearGradient id="linear-gradient-3" x1="95.448" y1="58.21" x2="95.448" y2="135.352" xlink:href="#linear-gradient"/><linearGradient id="linear-gradient-4" x1="44.427" y1="55.813" x2="44.427" y2="121.476" xlink:href="#linear-gradient"/><radialGradient id="radial-gradient-5" cx="-459.662" cy="-33042.735" r="34.523" gradientTransform="translate(754.376 5525.63) scale(1.516 0.163)" gradientUnits="userSpaceOnUse"><stop offset="0" stop-color="#067fff"/><stop offset="0.122" stop-color="#0562c4" stop-opacity="0.77"/><stop offset="0.246" stop-color="#034891" stop-opacity="0.568"/><stop offset="0.372" stop-color="#023264" stop-opacity="0.394"/><stop offset="0.497" stop-color="#022040" stop-opacity="0.252"/><stop offset="0.623" stop-color="#011224" stop-opacity="0.141"/><stop offset="0.749" stop-color="#000810" stop-opacity="0.063"/><stop offset="0.874" stop-color="#000204" stop-opacity="0.016"/><stop offset="1" stop-opacity="0"/></radialGradient><radialGradient id="radial-gradient-6" cx="-130.74" cy="-60338.369" r="34.517" gradientTransform="translate(194.579 5956.283) scale(1.036 0.096)" xlink:href="#radial-gradient-5"/><radialGradient id="radial-gradient-7" cx="-96.66" cy="-60338.369" r="17.089" gradientTransform="translate(194.579 5956.283) scale(1.036 0.096)" xlink:href="#radial-gradient-5"/><radialGradient id="radial-gradient-8" cx="-170.763" cy="-60338.369" r="17.089" gradientTransform="translate(194.579 5956.283) scale(1.036 0.096)" xlink:href="#radial-gradient-5"/><radialGradient id="radial-gradient-9" cx="-147.607" cy="-60365.635" r="17.088" gradientTransform="translate(194.579 5956.283) scale(1.036 0.096)" xlink:href="#radial-gradient-5"/><radialGradient id="radial-gradient-10" cx="-982.551" cy="6800.631" r="14.95" gradientTransform="translate(1280.308 -14748.56) scale(1.243 2.178)" xlink:href="#linear-gradient"/><radialGradient id="radial-gradient-11" cx="-1234.649" cy="6808.977" r="14.95" gradientTransform="translate(2240.606 -14748.56) scale(1.766 2.178)" xlink:href="#linear-gradient"/><radialGradient id="radial-gradient-12" cx="-982.26" cy="4652.465" r="18.331" gradientTransform="translate(1280.308 -5731.912) scale(1.243 1.245)" gradientUnits="userSpaceOnUse"><stop offset="0" stop-color="#067fff"/><stop offset="0.561" stop-color="#033972" stop-opacity="0.446"/><stop offset="1" stop-opacity="0"/></radialGradient><radialGradient id="radial-gradient-13" cx="-982.551" cy="4708.811" r="17.12" xlink:href="#radial-gradient-12"/><radialGradient id="radial-gradient-14" cx="-982.551" cy="4683.912" r="3.624" xlink:href="#radial-gradient-12"/><radialGradient id="radial-gradient-15" cx="-1014.622" cy="797.878" r="14.95" gradientTransform="translate(1369.325 -483.831) scale(1.291 0.674)" xlink:href="#linear-gradient"/><radialGradient id="radial-gradient-16" cx="-152.131" cy="5038.227" r="14.95" gradientTransform="translate(129.656 -6921.814) scale(0.721 1.386)" xlink:href="#linear-gradient"/><radialGradient id="radial-gradient-17" cx="-47.439" cy="5835.031" r="14.95" gradientTransform="translate(129.656 -9978.726) scale(0.721 1.722)" xlink:href="#linear-gradient"/><radialGradient id="_184" cx="60.094" cy="51.838" r="24.462" gradientUnits="userSpaceOnUse"><stop offset="0.006" stop-color="#60dbff"/><stop offset="0.182" stop-color="#56d6ff"/><stop offset="0.479" stop-color="#3ccaff"/><stop offset="0.857" stop-color="#12b6ff"/><stop offset="1" stop-color="#00aeff"/></radialGradient><linearGradient id="_210-2" x1="66.149" y1="55.333" x2="60.796" y2="43.365" xlink:href="#_210"/><radialGradient id="_220" cx="61.205" cy="26.074" r="29.538" gradientUnits="userSpaceOnUse"><stop offset="0.025" stop-color="#1b95b8"/><stop offset="0.939" stop-color="#5a4fbc"/></radialGradient><radialGradient id="_184-2" cx="58.887" cy="25.505" r="36.958" xlink:href="#_184"/><linearGradient id="_210-3" x1="59.721" y1="24.969" x2="59.721" y2="20.67" xlink:href="#_210"/><linearGradient id="_152" x1="45.701" y1="23.916" x2="30.48" y2="20.976" gradientUnits="userSpaceOnUse"><stop offset="0"/><stop offset="1" stop-color="#9ccec2"/></linearGradient><radialGradient id="radial-gradient-18" cx="67.625" cy="2243.081" r="13.776" gradientTransform="translate(0 -909.561) scale(1 0.417)" gradientUnits="userSpaceOnUse"><stop offset="0.006" stop-color="#98fffc"/><stop offset="0.066" stop-color="#8be9e6" stop-opacity="0.912"/><stop offset="0.267" stop-color="#61a3a1" stop-opacity="0.639"/><stop offset="0.457" stop-color="#3f6968" stop-opacity="0.411"/><stop offset="0.631" stop-color="#243c3b" stop-opacity="0.234"/><stop offset="0.785" stop-color="#101b1b" stop-opacity="0.106"/><stop offset="0.913" stop-color="#040707" stop-opacity="0.028"/><stop offset="1" stop-opacity="0"/></radialGradient><linearGradient id="_43" x1="34.07" y1="25.985" x2="39.95" y2="18.776" gradientUnits="userSpaceOnUse"><stop offset="0" stop-color="#590043"/><stop offset="0.06" stop-color="#5b0044"/><stop offset="0.468" stop-color="#650046"/><stop offset="0.994" stop-color="#680047"/></linearGradient><linearGradient id="_43-2" x1="53.992" y1="27.448" x2="59.771" y2="20.363" xlink:href="#_43"/><linearGradient id="_43-3" x1="75.112" y1="26.287" x2="80.128" y2="20.138" xlink:href="#_43"/><linearGradient id="_119-2" x1="59.158" y1="21.698" x2="59.158" y2="12.62" xlink:href="#_119"/><radialGradient id="_162" cx="71.473" cy="13.918" r="51.23" gradientUnits="userSpaceOnUse"><stop offset="0" stop-color="#ffd5bd"/><stop offset="0.103" stop-color="#f8d0bf"/><stop offset="0.253" stop-color="#e5c2c6"/><stop offset="0.43" stop-color="#c5abd2"/><stop offset="0.627" stop-color="#9a8ce1"/><stop offset="0.754" stop-color="#7a75ed"/><stop offset="0.975" stop-color="#7a82ed"/></radialGradient><linearGradient id="_320" x1="59.158" y1="13.058" x2="101.636" y2="13.058" gradientUnits="userSpaceOnUse"><stop offset="0" stop-color="#fff"/><stop offset="1" stop-color="#623964"/></linearGradient><radialGradient id="_494" cx="-8909.831" cy="12.293" r="19.557" gradientTransform="matrix(-1, 0, 0, 1, -8867.318, 0)" xlink:href="#_320"/><radialGradient id="_162-2" cx="76.822" cy="30.14" r="49.954" xlink:href="#_162"/><linearGradient id="_242-5" x1="596.536" y1="-55.263" x2="593.103" y2="-61.21" gradientTransform="matrix(0.902, -0.024, -0.015, 1.11, -465.45, 95.162)" xlink:href="#_242"/><linearGradient id="_242-6" x1="49.875" y1="323.047" x2="46.128" y2="316.558" gradientTransform="matrix(1, -0.064, 0, 1, 0, -300.963)" xlink:href="#_242"/><linearGradient id="_242-7" x1="269.737" y1="256.26" x2="265.824" y2="249.482" gradientTransform="matrix(0.92, -0.08, 0.08, 1.08, -239.624, -239.624)" xlink:href="#_242"/><linearGradient id="_242-8" x1="814.13" y1="-556.588" x2="810.688" y2="-562.549" gradientTransform="matrix(0.881, 0.08, -0.089, 1.127, -673.994, 577.798)" xlink:href="#_242"/><linearGradient id="_119-3" x1="62.285" y1="34.588" x2="85.415" y2="34.588" xlink:href="#_119"/><linearGradient id="_119-4" x1="32.38" y1="36.654" x2="46.904" y2="36.654" xlink:href="#_119"/><linearGradient id="_501" x1="74.103" y1="44.994" x2="72.738" y2="39.956" gradientUnits="userSpaceOnUse"><stop offset="0" stop-color="#9a69a4"/><stop offset="0.109" stop-color="#a075af"/><stop offset="0.712" stop-color="#c1b1e9"/><stop offset="1" stop-color="#cec9ff"/></linearGradient><linearGradient id="_501-2" x1="41.941" y1="47.268" x2="39.527" y2="38.136" xlink:href="#_501"/><linearGradient id="_214" x1="66.246" y1="31.305" x2="59.842" y2="15.769" gradientUnits="userSpaceOnUse"><stop offset="0" stop-color="#e7e3f4"/><stop offset="0.073" stop-color="#dfd6ec"/><stop offset="0.372" stop-color="#c1a7cd"/><stop offset="0.637" stop-color="#ac85b7"/><stop offset="0.856" stop-color="#9f71a9"/><stop offset="1" stop-color="#9a69a4"/></linearGradient><linearGradient id="_320-2" x1="15.861" y1="16.199" x2="72.229" y2="16.199" xlink:href="#_320"/><linearGradient id="_320-3" x1="23.816" y1="29.979" x2="78.402" y2="29.979" xlink:href="#_320"/><linearGradient id="_210-4" x1="21.919" y1="29.973" x2="37.206" y2="31.389" xlink:href="#_210"/><linearGradient id="_68" x1="104.368" y1="28.598" x2="91.351" y2="32.797" gradientUnits="userSpaceOnUse"><stop offset="0" stop-color="#9a69a4"/><stop offset="0.134" stop-color="#a275ab"/><stop offset="0.375" stop-color="#b795bf"/><stop offset="0.694" stop-color="#dac8dd"/><stop offset="1" stop-color="#fff"/></linearGradient><radialGradient id="radial-gradient-19" cx="-929.644" cy="560.987" r="8.266" gradientTransform="translate(1269.573 -392.823) scale(1.283 0.763)" gradientUnits="userSpaceOnUse"><stop offset="0.006" stop-color="#f4ff09"/><stop offset="0.066" stop-color="#dfe908" stop-opacity="0.912"/><stop offset="0.267" stop-color="#9ca306" stop-opacity="0.639"/><stop offset="0.457" stop-color="#646904" stop-opacity="0.411"/><stop offset="0.631" stop-color="#393c02" stop-opacity="0.234"/><stop offset="0.785" stop-color="#1a1b01" stop-opacity="0.106"/><stop offset="0.913" stop-color="#070700" stop-opacity="0.028"/><stop offset="1" stop-opacity="0"/></radialGradient><radialGradient id="radial-gradient-20" cx="-1084.707" cy="3195.735" r="11.302" gradientTransform="translate(1481.716 -1195.967) scale(1.313 0.377)" xlink:href="#radial-gradient-19"/><radialGradient id="radial-gradient-21" cx="27.14" cy="10.838" r="5.78" xlink:href="#radial-gradient"/><radialGradient id="radial-gradient-22" cx="47.468" cy="13.754" r="5.78" xlink:href="#radial-gradient"/><radialGradient id="radial-gradient-23" cx="72.39" cy="14.4" r="5.78" xlink:href="#radial-gradient"/><radialGradient id="radial-gradient-24" cx="92.169" cy="11.4" r="5.78" xlink:href="#radial-gradient"/><linearGradient id="_210-5" x1="84.857" y1="44.003" x2="84.857" y2="35.428" xlink:href="#_210"/><linearGradient id="_119-5" x1="89.286" y1="45.998" x2="89.286" y2="34.986" xlink:href="#_119"/><linearGradient id="_210-6" x1="88.895" y1="40.371" x2="88.895" y2="36.562" xlink:href="#_210"/><linearGradient id="_210-7" x1="90.736" y1="42.224" x2="90.736" y2="39.563" xlink:href="#_210"/><linearGradient id="_210-8" x1="84.425" y1="40.492" x2="94.148" y2="40.492" xlink:href="#_210"/><radialGradient id="_162-3" cx="99.857" cy="49.975" r="15.216" xlink:href="#_162"/><linearGradient id="_68-2" x1="100.211" y1="51.364" x2="84.467" y2="55.93" xlink:href="#_68"/><radialGradient id="_494-2" cx="98.324" cy="49.873" r="8.084" xlink:href="#_320"/><radialGradient id="_494-3" cx="91.508" cy="40.865" r="1.354" xlink:href="#_320"/><radialGradient id="_494-4" cx="89.732" cy="37.742" r="1.267" xlink:href="#_320"/><linearGradient id="_210-9" x1="89.322" y1="38.113" x2="89.322" y2="36.535" xlink:href="#_210"/><linearGradient id="_210-10" x1="91.216" y1="40.991" x2="91.216" y2="39.563" xlink:href="#_210"/><linearGradient id="_210-11" x1="33.43" y1="44.003" x2="33.43" y2="34.968" xlink:href="#_210"/><linearGradient id="_119-6" x1="27.142" y1="47.888" x2="27.142" y2="33.944" xlink:href="#_119"/><linearGradient id="_210-12" x1="31.092" y1="39.219" x2="31.092" y2="34.968" xlink:href="#_210"/><linearGradient id="_210-13" x1="27.694" y1="42.203" x2="27.694" y2="37.487" xlink:href="#_210"/><linearGradient id="_210-14" x1="25.3" y1="44.553" x2="25.3" y2="39.977" xlink:href="#_210"/><linearGradient id="_210-15" x1="19.129" y1="40.916" x2="35.155" y2="40.916" xlink:href="#_210"/><radialGradient id="_162-4" cx="25.166" cy="53.675" r="9.708" xlink:href="#_162"/><linearGradient id="_68-3" x1="20.554" y1="52.08" x2="10.005" y2="54.599" xlink:href="#_68"/><radialGradient id="_494-5" cx="27.719" cy="52.46" r="5.543" xlink:href="#_320"/><radialGradient id="_494-6" cx="24.696" cy="42.106" r="1.821" xlink:href="#_320"/><radialGradient id="_494-7" cx="27.063" cy="39.4" r="1.646" xlink:href="#_320"/><radialGradient id="_494-8" cx="30.444" cy="36.457" r="1.286" xlink:href="#_320"/><linearGradient id="_210-16" x1="26.056" y1="38.959" x2="29.42" y2="38.959" xlink:href="#_210"/><linearGradient id="_210-17" x1="23.101" y1="41.505" x2="27.973" y2="41.505" xlink:href="#_210"/><linearGradient id="_210-18" x1="29.483" y1="36.522" x2="33.088" y2="36.522" xlink:href="#_210"/><linearGradient id="_320-4" x1="81.667" y1="17.072" x2="81.667" y2="20.782" xlink:href="#_320"/><linearGradient id="_320-5" x1="78.988" y1="26.131" x2="79.548" y2="31.729" xlink:href="#_320"/><linearGradient id="_61" x1="37.555" y1="27.964" x2="37.555" y2="19.628" gradientUnits="userSpaceOnUse"><stop offset="0" stop-color="#fff"/><stop offset="1"/></linearGradient><linearGradient id="_61-2" x1="57.385" y1="29.134" x2="57.385" y2="21.549" xlink:href="#_61"/><linearGradient id="_61-3" x1="78.428" y1="28.216" x2="78.428" y2="21.103" xlink:href="#_61"/><linearGradient id="_210-19" x1="47.15" y1="36.535" x2="48.837" y2="36.535" xlink:href="#_210"/><linearGradient id="_210-20" x1="48.52" y1="40.097" x2="49.478" y2="40.097" xlink:href="#_210"/><linearGradient id="_210-21" x1="75.2" y1="42.655" x2="77.967" y2="42.655" xlink:href="#_210"/><linearGradient id="_210-22" x1="78.363" y1="43.07" x2="79.703" y2="43.07" xlink:href="#_210"/></defs><title>ship-5</title><g class="cls-1"><g id="Layer_2" data-name="Layer 2"><g id="Spaceships"><g id="ship-5"><path class="cls-2" d="M29.705,9.924a3.8,3.8,0,0,1,1.863-3.695c2.971-1.787,4.811,1.1,4.572,3.065Z"/><path class="cls-3" d="M45.966,7.28c-.117-.873.062-2.893,3.132-3.287s3.667,2.1,3.438,2.834Z"/><path class="cls-4" d="M63.111,6.906s-.756-2.6,2.813-2.9C70.23,3.637,70.4,7.28,69.864,7.72Z"/><path class="cls-5" d="M81.761,8.769a2.688,2.688,0,0,1,2.711-2.414c2.258,0,4.423,1.365,3.672,3.429Z"/><circle class="cls-6" cx="85.415" cy="8.819" r="5.78"/><circle class="cls-7" cx="66.61" cy="5.78" r="5.78"/><circle class="cls-8" cx="49.26" cy="6.355" r="5.78"/><circle class="cls-9" cx="32.924" cy="8.069" r="5.78"/><path class="cls-10" d="M46.526,44.459s-7.348.419-9.657,11.756c0,0,5.563,2.519,15.116.63C51.985,56.845,51.985,45.718,46.526,44.459Z"/><path class="cls-11" d="M46.526,44.459s-7.348.419-9.657,11.756c0,0,5.563,2.519,15.116.63C51.985,56.845,51.985,45.718,46.526,44.459Z"/><path class="cls-12" d="M38.7,45.1c1.847,45.055,10.41,75.265,22.5,75.265S82.152,44,82.152,44Z"/><path class="cls-13" d="M8.632,58.21s2.176,77.142,10.865,77.142S30.361,58.21,30.361,58.21Z"/><path class="cls-14" d="M84.583,58.21s2.177,77.142,10.865,77.142S106.312,58.21,106.312,58.21Z"/><path class="cls-15" d="M36.869,55.813s1.514,65.663,7.558,65.663,7.558-65.663,7.558-65.663Z"/><ellipse class="cls-16" cx="57.758" cy="139.664" rx="52.32" ry="5.627"/><ellipse class="cls-17" cx="59.158" cy="139.664" rx="35.758" ry="3.327"/><ellipse class="cls-18" cx="94.458" cy="139.664" rx="17.703" ry="1.647"/><ellipse class="cls-19" cx="17.703" cy="139.664" rx="17.703" ry="1.647"/><ellipse class="cls-20" cx="41.687" cy="137.036" rx="17.703" ry="1.647"/><ellipse class="cls-21" cx="59.39" cy="60.495" rx="18.577" ry="32.557"/><ellipse class="cls-22" cx="59.721" cy="78.669" rx="26.408" ry="32.557"/><ellipse class="cls-23" cx="59.752" cy="59.011" rx="22.778" ry="22.817"/><ellipse class="cls-24" cx="59.39" cy="129.145" rx="21.274" ry="21.31"/><path class="cls-25" d="M63.894,98.153a4.5,4.5,0,1,1-4.5-4.511A4.508,4.508,0,0,1,63.894,98.153Z"/><ellipse class="cls-26" cx="59.752" cy="54.257" rx="19.296" ry="10.083"/><ellipse class="cls-27" cx="19.954" cy="61.673" rx="10.78" ry="20.723"/><ellipse class="cls-28" cx="95.448" cy="67.447" rx="10.78" ry="25.74"/><path class="cls-29" d="M83.441,42.43a20.2,20.2,0,0,1-3.116,4.155,28.476,28.476,0,0,1-21.167,9,24.06,24.06,0,0,1-13.44-4.141,28.36,28.36,0,0,1-7.834-7.738Z"/><path class="cls-30" d="M83.441,42.43a20.2,20.2,0,0,1-3.116,4.155c-1.786-1.022-33.9,1.128-34.607,4.859h0a28.36,28.36,0,0,1-7.834-7.738Z"/><path class="cls-31" d="M19.954,25.531s1.069-5.379,39.2-5.994c36.29-.586,43.3,4.734,43.3,4.734s-10.137,9.211-42.7,8.326C24.984,31.652,19.954,25.531,19.954,25.531Z"/><path class="cls-32" d="M25.077,16.4v8.467s6.581,4.339,34.081,4.269,35.269-4.862,35.269-4.862V16.4Z"/><path class="cls-33" d="M24.984,21.311s-.941,6.653,58.494-.208c8.145-.94,10.98,1.708,10.98,1.708V17.159L24.984,15.42Z"/><path class="cls-34" d="M25.077,24.864s1.168-2.392,2.661-2.707c8.608-1.82,32.014-.459,32.014-.459L25.077,16.2Z"/><path class="cls-35" d="M71.656,26.821c-4.159,1.3.63,1.72,2.169,1.07S73.9,26.121,71.656,26.821Z"/><path class="cls-36" d="M81.4,25.579c0,3.172-6.168,5.743-13.776,5.743s-13.776-2.571-13.776-5.743,6.168-5.743,13.776-5.743S81.4,22.407,81.4,25.579Z"/><path class="cls-37" d="M36.869,27.9a91.439,91.439,0,0,0,.245-11.673h.77l-.508,11.742Z"/><polygon class="cls-38" points="56.497 29.126 57.408 29.126 57.758 17.867 57.023 17.867 56.497 29.126"/><path class="cls-39" d="M77.821,28.179h.861l-.431-10.312-1.039-.424A39.68,39.68,0,0,1,77.821,28.179Z"/><path class="cls-40" d="M15.861,12.62l.258,1.312s14.9,6.6,39.744,7.6c31.863,1.283,46.593-5.131,46.593-5.131V12.62s-25.7,7.8-45.013,6.856S15.861,12.62,15.861,12.62Z"/><path class="cls-41" d="M15.861,12.62S35.7,6.007,55.852,4.905c0,0,30.7,1.417,46.6,7.715,0,0-13.855,8.187-44.557,7.085S15.861,12.62,15.861,12.62Z"/><path class="cls-42" d="M101.636,13.052s-10.122,2.415-11.3,2.051c-4.693-1.443-17.7-5.367-31.173-8.748A49.255,49.255,0,0,1,75.2,17.785c.256.29-9.713,1.664-9.466,1.964C65.735,19.749,85.415,20.361,101.636,13.052Z"/><path class="cls-43" d="M55.852,4.905S27.883,7.974,35.015,14.579c4.287,3.971,34.151,4.9,34.151,4.9l-2.594.132S35.714,20.872,15.861,12.62A183.251,183.251,0,0,1,55.852,4.905Z"/><path class="cls-44" d="M19.954,25.531s3.584,9.9,16.285,18.175c0,0,24.336,7.016,47.8-.856,0,0,12.6-5.2,18.421-18.579,0,0-9.457,6.808-37.629,7.558C29.575,32.767,19.954,25.531,19.954,25.531Z"/><path class="cls-45" d="M76.973,16.955c0,.374-2.34.74-5.214.817s-5.2-.164-5.2-.539,2.34-.739,5.215-.816S76.978,16.581,76.973,16.955Z"/><path class="cls-46" d="M67.976,17.66s.538-4.841,3.953-5.535,4.187,5.224,4.187,5.224A33.935,33.935,0,0,1,67.976,17.66Z"/><path class="cls-45" d="M42.845,16.515c-.525.508,6.244,1.616,10.007.582C55.511,16.366,43.93,15.465,42.845,16.515Z"/><path class="cls-45" d="M22.81,13.119c-.256.544,7.07,1.786,7.926,1.365C33.268,13.238,23.062,12.584,22.81,13.119Z"/><path class="cls-47" d="M43.88,17.019c-.088-.827.085-4.093,3.391-4.725s5.955,2.385,5.26,4.884a15.908,15.908,0,0,1-4.333.338A16.889,16.889,0,0,1,43.88,17.019Z"/><path class="cls-48" d="M23.613,13.56a3.908,3.908,0,0,1,1.174-4.92c2.691-2.059,7.086.855,5.469,5.936A20.813,20.813,0,0,1,23.613,13.56Z"/><path class="cls-45" d="M87.743,13.946c.722.313,8.965.333,9.056-.82S85.918,13.156,87.743,13.946Z"/><path class="cls-49" d="M88.048,14.015s-.388-3.739,2.472-5.446,5.819,1.2,5.778,4.985A21.913,21.913,0,0,1,88.048,14.015Z"/><path class="cls-50" d="M62.323,31.818c.021.593.045,1.185.058,1.778l.048,1.778c.017.593.033,1.186.04,1.778L62.5,38.93l-.183-.191c.915.018,1.837.016,2.755,0s1.838-.03,2.756-.064c1.836-.065,3.67-.192,5.5-.359s3.652-.391,5.463-.685c1.806-.318,3.6-.69,5.37-1.181l-.125.141.323-1.605c.107-.536.225-1.069.337-1.6l.341-1.6c.111-.535.233-1.067.351-1.6l.031.006-1.184,6.442,0,.013-.013,0A49.8,49.8,0,0,1,78.834,37.9c-1.817.306-3.645.552-5.481.722s-3.676.274-5.519.33-3.686.064-5.528,0h-.021V38.93l.006-7.112Z"/><path class="cls-51" d="M44.836,30.932c.174.925.328,1.853.5,2.777l.489,2.777.5,2.773.516,2.769.059.319-.324.01c-1.2.035-2.388.02-3.581-.016-.6-.017-1.192-.042-1.787-.08-.3-.017-.6-.035-.892-.059s-.595-.039-.892-.069c-1.188-.111-2.372-.258-3.552-.434-.588-.1-1.175-.2-1.758-.33-.291-.061-.584-.118-.873-.192l-.865-.221.007-.031q1.743.372,3.512.6c1.179.147,2.362.266,3.547.347s2.373.137,3.561.167,2.377.036,3.564.012l-.028.035c-.171-.925-.337-1.851-.492-2.778s-.307-1.856-.451-2.785q-.431-2.789-.8-5.586Z"/><path class="cls-52" d="M62.306,38.952s8.026,1.381,19.846-1.752A83.089,83.089,0,0,1,62.306,38.952Z"/><path class="cls-53" d="M46.9,42.347a72.769,72.769,0,0,1-12.786-.978S41.054,43.665,46.9,42.347Z"/><path class="cls-54" d="M94.427,21.7a98.663,98.663,0,0,0-44.736,7.268s10.374.144,15.415,0L49.369,31.693s-21.242-.807-29.415-6.162c0,0,.306-1.38,5.1-2.71l.023-5.894a66.584,66.584,0,0,1-8.958-2.995l-.258-1.312s16.757,6.872,45.344,7.187c29.124.322,41.251-7.187,41.251-7.187V16.4a49.665,49.665,0,0,1-8.308,2.424Z"/><path class="cls-35" d="M78.4,30.932a27.392,27.392,0,0,1,10.153-1.74A31.112,31.112,0,0,1,78.4,30.932Z"/><path class="cls-35" d="M72.229,19.334S84.51,16.81,89.948,16.939C89.948,16.939,79.747,19.65,72.229,19.334Z"/><path class="cls-55" d="M15.861,12.62s26.685,7.216,56.368,6.714a151.031,151.031,0,0,1-30.541-.754C21,15.756,15.861,12.62,15.861,12.62Z"/><path class="cls-56" d="M23.816,27.4S43.865,34.587,78.4,30.932c0,0-16.555,2.538-29.829,1.28C29.376,30.393,23.816,27.4,23.816,27.4Z"/><path class="cls-57" d="M35.714,30.393c-12.806-2.414-9.979,4.194-9.979,4.194s-4.431-5.521-5.781-9.056a33.238,33.238,0,0,0,5.346,2.39A78.593,78.593,0,0,0,35.714,30.393Z"/><path class="cls-58" d="M102.456,24.271s-3.408,2.407-15.078,5.209c0,0,10.829-2.264,5.648,7.72C93.026,37.2,100.548,30.326,102.456,24.271Z"/><path class="cls-35" d="M73.894,33.472c1.182,1.115,6.4.63,7.027-.07s-1.61-1.19-2.519-1.19S73.234,32.85,73.894,33.472Z"/><ellipse class="cls-59" cx="77.212" cy="34.929" rx="10.602" ry="6.302"/><path class="cls-60" d="M72.229,9.784c0,2.355-6.645,4.264-14.841,4.264S42.546,12.139,42.546,9.784,49.191,5.52,57.388,5.52,72.229,7.429,72.229,9.784Z"/><path class="cls-35" d="M49.691,6.6c-1,.659,5.478,1.92,6.177.68S52.12,4.99,49.691,6.6Z"/><path class="cls-35" d="M72.807,14.837c.2,1.482,1.5,1.008,1.01-.027S72.635,13.561,72.807,14.837Z"/><path class="cls-35" d="M94.1,10.215c-1.416.62,1.083,2.754,1.147,1.931S94.939,9.847,94.1,10.215Z"/><path class="cls-35" d="M49.738,14.387c-1.176.633,1.33,1.779,1.365,1.285S50.858,13.786,49.738,14.387Z"/><path class="cls-35" d="M28.368,10.26c-1.35.807.508,3.174.889,2.2S29.037,9.859,28.368,10.26Z"/><circle class="cls-61" cx="27.14" cy="10.838" r="5.78"/><circle class="cls-62" cx="47.468" cy="13.754" r="5.78"/><circle class="cls-63" cx="72.39" cy="14.4" r="5.78"/><path class="cls-64" d="M97.949,11.4a5.78,5.78,0,1,1-5.78-5.78A5.78,5.78,0,0,1,97.949,11.4Z"/><path class="cls-45" d="M89.318,35.011c-3.743-.28-5.878,3.814-4.443,5.144C86.752,41.9,92.679,35.263,89.318,35.011Z"/><path class="cls-65" d="M86.793,35.428C81.569,37.333,80.213,44,80.213,44A23.921,23.921,0,0,0,89.5,39.716Z"/><path class="cls-66" d="M94.148,43.619,90.438,46a10.408,10.408,0,0,0-1.973-3.774q-.159-.195-.321-.378A12.39,12.39,0,0,0,86.6,40.371c-.044-.036-.088-.071-.131-.1-.816-.64-2.044-1.43-2.044-1.43a4.353,4.353,0,0,1,4.894-3.826,12.379,12.379,0,0,1,1.7,1.551q.157.174.3.35a12.216,12.216,0,0,1,1.7,2.651c.115.242.218.479.311.71.135.336.247.659.342.962A10.392,10.392,0,0,1,94.148,43.619Z"/><path class="cls-67" d="M91.321,36.912c-2.807.407-4.721,3.459-4.721,3.459-.044-.036-.088-.071-.131-.1.888-2.476,2.192-3.523,4.547-3.705Q91.173,36.736,91.321,36.912Z"/><path class="cls-68" d="M93.329,40.273a10.551,10.551,0,0,0-4.864,1.951q-.159-.195-.321-.378a12.116,12.116,0,0,1,4.874-2.283C93.133,39.805,93.236,40.042,93.329,40.273Z"/><path class="cls-69" d="M94.148,43.619,90.438,46a10.408,10.408,0,0,0-1.973-3.774q-.159-.195-.321-.378A12.39,12.39,0,0,0,86.6,40.371c-.044-.036-.088-.071-.131-.1-.816-.64-2.044-1.43-2.044-1.43a4.353,4.353,0,0,1,4.894-3.826c-3.5,1.68-1.175,5.606-1.175,5.606a11.716,11.716,0,0,0,2.592,1.813c.641.2,2.158-.693,2.935-1.2A10.392,10.392,0,0,1,94.148,43.619Z"/><path class="cls-70" d="M106.358,59.656a34.032,34.032,0,0,1-4.827,1.131h0c-9.525,1.512-17.114-1.35-17-1.738a20.791,20.791,0,0,1,4.619-8.292c-.42-2.415-1.68-2.625-1.68-2.625a11.833,11.833,0,0,1,1.849-3.411,7.727,7.727,0,0,1,7.073-2.992c1.05,1.575,1.26,4.979,1.26,4.979A13.2,13.2,0,0,1,106.358,59.656Z"/><path class="cls-71" d="M101.528,60.787c-9.525,1.512-17.114-1.35-17-1.738a20.791,20.791,0,0,1,4.619-8.292c-.42-2.415-1.68-2.625-1.68-2.625a11.833,11.833,0,0,1,1.849-3.411c.513,2.572,6.811,3.115,7.7,3.167,0,0-6.759,7.54-6.161,9.01A18.591,18.591,0,0,0,101.528,60.787Z"/><path class="cls-72" d="M90.331,43.642s1.752-1.554,5.531-1.418a7.067,7.067,0,0,1,1.627,4.713s6.477,1.709,8.828,11.109a13.535,13.535,0,0,0-8.671-11.338,11.244,11.244,0,0,0-1.26-4.979A8.525,8.525,0,0,0,90.331,43.642Z"/><path class="cls-35" d="M98.788,47.475a12.508,12.508,0,0,1,3.414,2.609A10.91,10.91,0,0,1,98.788,47.475Z"/><path class="cls-35" d="M92.755,42.53a7.946,7.946,0,0,0,3.631-.8A5.993,5.993,0,0,0,92.755,42.53Z"/><path class="cls-73" d="M93.329,40.273a10.241,10.241,0,0,0-3.642,1.185A33.8,33.8,0,0,1,93.329,40.273Z"/><path class="cls-74" d="M91.321,36.912a5.579,5.579,0,0,0-3.177,1.659A12.412,12.412,0,0,1,91.321,36.912Z"/><path class="cls-75" d="M91.016,36.562a3.662,3.662,0,0,0-3.388,1.551A5.961,5.961,0,0,1,91.016,36.562Z"/><path class="cls-76" d="M93.018,39.563s-.814-.02-3.6,1.428A32.539,32.539,0,0,1,93.018,39.563Z"/><path class="cls-77" d="M33.9,34.968C37.534,39.77,37.376,44,37.376,44l-1.137-.3s-5.149-3.464-6.756-5.24Z"/><path class="cls-45" d="M35.154,39.455c-.233,3.881-6.32-4.588-3.918-5.423C32.845,33.472,35.405,35.275,35.154,39.455Z"/><path class="cls-78" d="M35.155,37.88s-4.409,1.54-9.168,10.008l-6.858-2.66A19.4,19.4,0,0,1,21.624,41.4a26.048,26.048,0,0,1,9.611-7.369S34.35,33.017,35.155,37.88Z"/><path class="cls-79" d="M33.53,38.8c-.179.124-.37.263-.571.419-1.262-2.772-3-3.636-4.305-3.855.228-.134.46-.267.7-.4A7.5,7.5,0,0,1,33.53,38.8Z"/><path class="cls-80" d="M30.4,41.614q-.255.281-.519.589a8.262,8.262,0,0,0-4.9-4.236c.189-.161.385-.322.584-.48A9.521,9.521,0,0,1,30.4,41.614Z"/><path class="cls-81" d="M28.587,43.839q-.255.343-.514.714a7.638,7.638,0,0,0-6.059-3.622q.4-.466.853-.954A9.858,9.858,0,0,1,28.587,43.839Z"/><path class="cls-82" d="M35.155,37.88s-4.409,1.54-9.168,10.008l-6.858-2.66A19.4,19.4,0,0,1,21.624,41.4a2.281,2.281,0,0,0,2.431,1.868C27.232,43.2,31.725,39,31.725,39s1.96-3.567-.49-4.966C31.235,34.032,34.35,33.017,35.155,37.88Z"/><path class="cls-83" d="M30.361,58.21a28.445,28.445,0,0,1-7.191,2.017h-.009a26.918,26.918,0,0,1-2.7.245A25.083,25.083,0,0,1,8.632,58.21c2.729-7.663,8.608-9.658,8.608-9.658a30.819,30.819,0,0,1,1.574-4.828,12.052,12.052,0,0,1,4.094.474,11.651,11.651,0,0,1,5.144,3.095,16.236,16.236,0,0,0-2,3.149A22.232,22.232,0,0,1,30.361,58.21Z"/><path class="cls-84" d="M23.17,60.227h-.009l-2.7.245A25.083,25.083,0,0,1,8.632,58.21c2.729-7.663,8.608-9.658,8.608-9.658a30.819,30.819,0,0,1,1.574-4.828,12.052,12.052,0,0,1,4.094.474,3.4,3.4,0,0,0-2.729,1.625,16.1,16.1,0,0,1,5.877,4.618c-.086-.067-3.813-2.966-6.927-.839-3.149,2.152-4.356,7.505-4.094,8.293S23.17,60.227,23.17,60.227Z"/><path class="cls-85" d="M25.077,45.079a17.1,17.1,0,0,1,2.975,2.214l-2,3.148s3.308,3.937,4.305,7.769c0,0-1.829.691-5.061,1.631,0,0,3.608-1.175,4.183-1.894,0,0-1.848-5.525-4.183-8.009a10.144,10.144,0,0,0,2.122-2.593A6.4,6.4,0,0,0,25.077,45.079Z"/><path class="cls-35" d="M27.147,46.937c1.7.614-1.282-1.575-2.5-2.073s-.217,0-.217,0A8.943,8.943,0,0,0,27.147,46.937Z"/><path class="cls-35" d="M26.453,51.444A10.739,10.739,0,0,1,28.944,54.8S28,54.809,26.453,51.444Z"/><path class="cls-86" d="M22.389,40.961A6.739,6.739,0,0,1,27,43.252S24.259,41.111,22.389,40.961Z"/><path class="cls-87" d="M25.182,38.028s1.767.238,3.762,2.744A10.165,10.165,0,0,0,25.182,38.028Z"/><path class="cls-88" d="M28.944,35.428a4.71,4.71,0,0,1,3,2.059A7.881,7.881,0,0,0,28.944,35.428Z"/><path class="cls-89" d="M26.056,37.684a8.894,8.894,0,0,1,3.364,2.551Z"/><path class="cls-90" d="M23.1,40.048s2.038.159,4.872,2.915A21.972,21.972,0,0,0,23.1,40.048Z"/><path class="cls-91" d="M29.483,35.016a6.626,6.626,0,0,1,3.605,3.012S31.02,35.545,29.483,35.016Z"/><path class="cls-92" d="M75.957,19.142v2.169s9.27-.561,11.421-1.233l-.81-2.349Z"/><path class="cls-93" d="M78.4,30.932l-8.4-2.1s10.854-.516,13.443-1.435l5.114,1.8Z"/><polygon class="cls-94" points="37.376 27.964 37.377 19.628 37.734 19.68 37.376 27.964"/><polygon class="cls-95" points="57.408 29.126 57.127 29.134 57.522 21.549 57.643 21.549 57.408 29.126"/><polygon class="cls-96" points="78.682 28.179 78.402 28.216 78.174 21.103 78.402 21.103 78.682 28.179"/><path class="cls-97" d="M47.156,35.956c-.129,2.963,2.047,2.42,1.627.5S47.208,34.749,47.156,35.956Z"/><path class="cls-98" d="M48.521,40.048c-.042.919,1.259,1.212.892.187S48.573,38.891,48.521,40.048Z"/><path class="cls-99" d="M75.6,43.706c.826.594,2.925-1.1,2.223-1.644s-1.856-.774-2.223-.4S74.92,43.215,75.6,43.706Z"/><path class="cls-100" d="M79.7,42.963c.088.5-.769.829-1.014.743s-.42-1.259-.254-1.276S79.591,42.359,79.7,42.963Z"/></g></g></g></g></svg>