<svg xmlns="http://www.w3.org/2000/svg" xmlns:xlink="http://www.w3.org/1999/xlink" viewBox="0 0 116.607 144.395"><defs><style>.cls-1{isolation:isolate;}.cls-10,.cls-11,.cls-12,.cls-13,.cls-14,.cls-15,.cls-16,.cls-17,.cls-18,.cls-2,.cls-53,.cls-78,.cls-80,.cls-9{mix-blend-mode:color-dodge;}.cls-2{fill:url(#radial-gradient);}.cls-19,.cls-3,.cls-4,.cls-46,.cls-5,.cls-50,.cls-56,.cls-57,.cls-6,.cls-61,.cls-62,.cls-63,.cls-64,.cls-65,.cls-67,.cls-69,.cls-7,.cls-70,.cls-76,.cls-77,.cls-79,.cls-8{mix-blend-mode:screen;}.cls-3{fill:url(#radial-gradient-2);}.cls-19,.cls-20,.cls-24,.cls-25,.cls-26,.cls-27,.cls-28,.cls-29,.cls-30,.cls-31,.cls-32,.cls-33,.cls-34,.cls-4,.cls-42,.cls-43,.cls-44,.cls-45,.cls-46,.cls-47,.cls-48,.cls-49,.cls-5,.cls-50,.cls-51,.cls-52,.cls-53,.cls-54,.cls-55,.cls-56,.cls-57,.cls-58,.cls-59,.cls-6,.cls-60,.cls-63,.cls-65,.cls-66,.cls-67,.cls-68,.cls-69,.cls-7,.cls-71,.cls-72,.cls-73,.cls-74,.cls-75,.cls-76,.cls-77,.cls-8{fill-rule:evenodd;}.cls-4{fill:url(#radial-gradient-3);}.cls-19,.cls-5,.cls-6,.cls-7,.cls-8{opacity:0.6;}.cls-5{fill:url(#linear-gradient);}.cls-6{fill:url(#linear-gradient-2);}.cls-7{fill:url(#linear-gradient-3);}.cls-8{fill:url(#linear-gradient-4);}.cls-56,.cls-61,.cls-63,.cls-64,.cls-70,.cls-71,.cls-72,.cls-73,.cls-74,.cls-75,.cls-9{opacity:0.5;}.cls-9{fill:url(#radial-gradient-4);}.cls-10{fill:url(#radial-gradient-5);}.cls-11{fill:url(#radial-gradient-6);}.cls-12{fill:url(#radial-gradient-7);}.cls-13{fill:url(#radial-gradient-8);}.cls-14{fill:url(#radial-gradient-9);}.cls-15{fill:url(#radial-gradient-10);}.cls-16{fill:url(#radial-gradient-11);}.cls-17{fill:url(#radial-gradient-12);}.cls-18{fill:url(#radial-gradient-13);}.cls-19{fill:url(#linear-gradient-5);}.cls-20{fill:url(#_423);}.cls-21{fill:url(#_119);}.cls-22{fill:url(#_119-2);}.cls-23{fill:url(#_119-3);}.cls-24{fill:url(#_501);}.cls-25{fill:url(#_501-2);}.cls-26,.cls-28,.cls-29,.cls-41,.cls-52,.cls-54{opacity:0.71;}.cls-26,.cls-28,.cls-29,.cls-35,.cls-36,.cls-37,.cls-38,.cls-39,.cls-40,.cls-41,.cls-51,.cls-52,.cls-54,.cls-58,.cls-59,.cls-60,.cls-71,.cls-72,.cls-73,.cls-74,.cls-75{mix-blend-mode:multiply;}.cls-26{fill:url(#_68);}.cls-27{fill:url(#_230);}.cls-28{fill:url(#_68-2);}.cls-29{fill:url(#_68-3);}.cls-30{fill:url(#_487);}.cls-31{fill:url(#_472);}.cls-32{fill:url(#_230-2);}.cls-33{fill:url(#_230-3);}.cls-34{fill:url(#_119-4);}.cls-35,.cls-36,.cls-37,.cls-38,.cls-39,.cls-40{opacity:0.37;}.cls-35{fill:url(#_311);}.cls-36{fill:url(#_311-2);}.cls-37{fill:url(#_311-3);}.cls-38{fill:url(#_311-4);}.cls-39{fill:url(#_311-5);}.cls-40{fill:url(#_311-6);}.cls-41{fill:url(#_68-4);}.cls-42{fill:url(#_423-2);}.cls-43{fill:url(#_423-3);}.cls-44{fill:url(#_119-5);}.cls-45{fill:url(#_162);}.cls-46{fill:url(#linear-gradient-6);}.cls-47{fill:url(#_38);}.cls-48{fill:url(#_230-4);}.cls-49{fill:url(#_230-5);}.cls-50{fill:url(#_494);}.cls-51{opacity:0.49;fill:url(#_174);}.cls-52{fill:url(#_68-5);}.cls-53{opacity:0.24;fill:url(#_170);}.cls-54{fill:url(#_68-6);}.cls-55{fill:#fff;}.cls-56{fill:url(#_320);}.cls-57{fill:url(#radial-gradient-14);}.cls-58{fill:url(#_267);}.cls-59{fill:url(#_240);}.cls-60{fill:url(#_210);}.cls-61{fill:url(#_320-2);}.cls-62{opacity:0.55;fill:url(#linear-gradient-7);}.cls-63{fill:url(#_494-2);}.cls-64{fill:url(#_320-3);}.cls-65{fill:url(#_494-3);}.cls-66{fill:url(#_423-4);}.cls-67{fill:url(#_494-4);}.cls-68{fill:url(#_423-5);}.cls-69{fill:url(#_494-5);}.cls-70{fill:url(#_80);}.cls-71{fill:url(#_210-2);}.cls-72{fill:url(#_210-3);}.cls-73{fill:url(#_210-4);}.cls-74{fill:url(#_210-5);}.cls-75{fill:url(#_210-6);}.cls-76{opacity:0.45;fill:url(#_80-2);}.cls-77{opacity:0.2;fill:url(#_80-3);}.cls-78{opacity:0.52;fill:url(#radial-gradient-15);}.cls-79{fill:url(#radial-gradient-16);}.cls-80{fill:url(#radial-gradient-17);}</style><radialGradient id="radial-gradient" cx="59.28" cy="55.592" r="23.206" gradientTransform="translate(56.672 -25.635) rotate(45)" gradientUnits="userSpaceOnUse"><stop offset="0" stop-color="#067fff"/><stop offset="0.173" stop-color="#0562c5" stop-opacity="0.772"/><stop offset="0.399" stop-color="#034080" stop-opacity="0.501"/><stop offset="0.602" stop-color="#022449" stop-opacity="0.285"/><stop offset="0.777" stop-color="#011121" stop-opacity="0.13"/><stop offset="0.915" stop-color="#000409" stop-opacity="0.035"/><stop offset="1" stop-opacity="0"/></radialGradient><radialGradient id="radial-gradient-2" cx="-2226.037" cy="-27671.073" r="36.196" gradientTransform="translate(3643.782 5234.74) scale(1.611 0.184)" gradientUnits="userSpaceOnUse"><stop offset="0" stop-color="#f1e532"/><stop offset="0.097" stop-color="#c4bb29" stop-opacity="0.815"/><stop offset="0.224" stop-color="#918a1e" stop-opacity="0.601"/><stop offset="0.354" stop-color="#645f15" stop-opacity="0.417"/><stop offset="0.483" stop-color="#403d0d" stop-opacity="0.266"/><stop offset="0.612" stop-color="#242207" stop-opacity="0.15"/><stop offset="0.742" stop-color="#100f03" stop-opacity="0.066"/><stop offset="0.871" stop-color="#040401" stop-opacity="0.017"/><stop offset="1" stop-opacity="0"/></radialGradient><radialGradient id="radial-gradient-3" cx="2189.312" cy="2007.784" r="41.925" gradientTransform="translate(-1515.538 -3107.979) scale(0.72 1.585)" xlink:href="#radial-gradient-2"/><linearGradient id="linear-gradient" x1="40.672" y1="58.646" x2="40.672" y2="139.522" gradientUnits="userSpaceOnUse"><stop offset="0.006" stop-color="#ef8c1d"/><stop offset="0.143" stop-color="#c37218" stop-opacity="0.816"/><stop offset="0.376" stop-color="#7e4a0f" stop-opacity="0.529"/><stop offset="0.587" stop-color="#482a09" stop-opacity="0.302"/><stop offset="0.768" stop-color="#211304" stop-opacity="0.138"/><stop offset="0.911" stop-color="#090501" stop-opacity="0.037"/><stop offset="1" stop-opacity="0"/></linearGradient><linearGradient id="linear-gradient-2" x1="76.236" y1="55.968" x2="76.236" y2="139.024" xlink:href="#linear-gradient"/><linearGradient id="linear-gradient-3" x1="44.316" y1="58.005" x2="44.316" y2="139.522" xlink:href="#linear-gradient"/><linearGradient id="linear-gradient-4" x1="59.086" y1="58.388" x2="59.086" y2="109.177" gradientUnits="userSpaceOnUse"><stop offset="0.006" stop-color="#f1e532"/><stop offset="0.044" stop-color="#c6bd29" stop-opacity="0.823"/><stop offset="0.088" stop-color="#9d9521" stop-opacity="0.652"/><stop offset="0.138" stop-color="#777119" stop-opacity="0.495"/><stop offset="0.191" stop-color="#575312" stop-opacity="0.36"/><stop offset="0.251" stop-color="#3c390c" stop-opacity="0.247"/><stop offset="0.318" stop-color="#262408" stop-opacity="0.156"/><stop offset="0.396" stop-color="#151404" stop-opacity="0.085"/><stop offset="0.493" stop-color="#090802" stop-opacity="0.036"/><stop offset="0.628" stop-color="#020200" stop-opacity="0.008"/><stop offset="1" stop-opacity="0"/></linearGradient><radialGradient id="radial-gradient-4" cx="-202.491" cy="1788.629" r="28.399" gradientTransform="translate(271.459 -2576.812) scale(1.05 1.481)" gradientUnits="userSpaceOnUse"><stop offset="0" stop-color="#f1e532"/><stop offset="0.183" stop-color="#c0b728" stop-opacity="0.798"/><stop offset="0.587" stop-color="#5a5513" stop-opacity="0.373"/><stop offset="0.868" stop-color="#191805" stop-opacity="0.104"/><stop offset="1" stop-opacity="0"/></radialGradient><radialGradient id="radial-gradient-5" cx="48.185" cy="83.783" r="8.987" gradientTransform="translate(73.356 -9.532) rotate(45)" gradientUnits="userSpaceOnUse"><stop offset="0" stop-color="#e95a29"/><stop offset="0.005" stop-color="#e55828" stop-opacity="0.983"/><stop offset="0.073" stop-color="#b54620" stop-opacity="0.778"/><stop offset="0.146" stop-color="#8a3518" stop-opacity="0.594"/><stop offset="0.223" stop-color="#652712" stop-opacity="0.433"/><stop offset="0.306" stop-color="#461b0c" stop-opacity="0.299"/><stop offset="0.396" stop-color="#2c1108" stop-opacity="0.189"/><stop offset="0.495" stop-color="#180904" stop-opacity="0.105"/><stop offset="0.608" stop-color="#0b0402" stop-opacity="0.045"/><stop offset="0.749" stop-color="#020100" stop-opacity="0.01"/><stop offset="1" stop-opacity="0"/></radialGradient><radialGradient id="radial-gradient-6" cx="59.891" cy="3100.279" r="8.987" gradientTransform="translate(0 -6339.41) scale(1 2.075)" xlink:href="#radial-gradient-5"/><radialGradient id="radial-gradient-7" cx="65.663" cy="74.052" r="8.987" gradientTransform="translate(68.272 -24.885) rotate(43.074)" xlink:href="#radial-gradient-5"/><radialGradient id="radial-gradient-8" cx="69.419" cy="65.662" r="12.614" gradientTransform="matrix(1, 0, 0, 1, 0, 0)" xlink:href="#radial-gradient-5"/><radialGradient id="radial-gradient-9" cx="59.891" cy="79.701" r="7.415" gradientTransform="translate(73.899 -19.005) rotate(45)" xlink:href="#radial-gradient-5"/><radialGradient id="radial-gradient-10" cx="69.42" cy="3321.665" r="7.415" gradientTransform="translate(0 -7282.061) scale(1 2.221)" xlink:href="#radial-gradient-5"/><radialGradient id="radial-gradient-11" cx="48.785" cy="3258.776" r="7.415" gradientTransform="translate(0 -6942.087) scale(1 2.159)" gradientUnits="userSpaceOnUse"><stop offset="0" stop-color="#e95a29"/><stop offset="0.1" stop-color="#e35828" stop-opacity="0.975"/><stop offset="0.232" stop-color="#d35125" stop-opacity="0.904"/><stop offset="0.381" stop-color="#b74720" stop-opacity="0.787"/><stop offset="0.544" stop-color="#91381a" stop-opacity="0.623"/><stop offset="0.717" stop-color="#602511" stop-opacity="0.413"/><stop offset="0.896" stop-color="#250e07" stop-opacity="0.161"/><stop offset="1" stop-opacity="0"/></radialGradient><radialGradient id="radial-gradient-12" cx="43.921" cy="2851.551" r="7.415" gradientTransform="translate(0 -5455.008) scale(1 1.943)" xlink:href="#radial-gradient-5"/><radialGradient id="radial-gradient-13" cx="72.485" cy="3116.608" r="8.987" gradientTransform="translate(0 -6566.669) scale(1 2.135)" xlink:href="#radial-gradient-5"/><linearGradient id="linear-gradient-5" x1="59.873" y1="81.454" x2="59.873" y2="146.119" xlink:href="#linear-gradient"/><radialGradient id="_423" cx="69.286" cy="59.481" r="24.649" gradientUnits="userSpaceOnUse"><stop offset="0" stop-color="#b1b5bd"/><stop offset="0.137" stop-color="#abaebd"/><stop offset="0.336" stop-color="#9b9bbf"/><stop offset="0.57" stop-color="#817cc0"/><stop offset="0.754" stop-color="#685ec2"/><stop offset="0.975" stop-color="#7a75d8"/></radialGradient><linearGradient id="_119" x1="69.419" y1="54.51" x2="72.485" y2="54.51" gradientUnits="userSpaceOnUse"><stop offset="0" stop-color="#5b58a3"/><stop offset="0.439" stop-color="#5f59a3"/><stop offset="0.848" stop-color="#6a5ca2"/><stop offset="0.994" stop-color="#705ea2"/></linearGradient><linearGradient id="_119-2" x1="57.982" y1="55.108" x2="58.904" y2="55.108" xlink:href="#_119"/><linearGradient id="_119-3" x1="45.5" y1="54.446" x2="48.185" y2="54.446" xlink:href="#_119"/><linearGradient id="_501" x1="73.321" y1="63.068" x2="70.042" y2="50.666" gradientUnits="userSpaceOnUse"><stop offset="0" stop-color="#9a69a4"/><stop offset="0.109" stop-color="#a075af"/><stop offset="0.712" stop-color="#c1b1e9"/><stop offset="1" stop-color="#cec9ff"/></linearGradient><linearGradient id="_501-2" x1="60.471" y1="65.047" x2="56.658" y2="50.625" xlink:href="#_501"/><linearGradient id="_68" x1="58.891" y1="58.005" x2="58.891" y2="48.519" gradientUnits="userSpaceOnUse"><stop offset="0" stop-color="#9a69a4"/><stop offset="0.134" stop-color="#a275ab"/><stop offset="0.375" stop-color="#b795bf"/><stop offset="0.694" stop-color="#dac8dd"/><stop offset="1" stop-color="#fff"/></linearGradient><linearGradient id="_230" x1="25.403" y1="34.288" x2="89.061" y2="34.288" gradientUnits="userSpaceOnUse"><stop offset="0" stop-color="#860057"/><stop offset="0.026" stop-color="#8c0555"/><stop offset="0.186" stop-color="#a9224b"/><stop offset="0.355" stop-color="#c13842"/><stop offset="0.536" stop-color="#d1483d"/><stop offset="0.736" stop-color="#db5139"/><stop offset="0.994" stop-color="#de5438"/></linearGradient><linearGradient id="_68-2" x1="44.173" y1="55.239" x2="41.277" y2="58.888" xlink:href="#_68"/><linearGradient id="_68-3" x1="25.403" y1="39.047" x2="41.232" y2="39.047" xlink:href="#_68"/><linearGradient id="_487" x1="60.728" y1="20.143" x2="65.42" y2="43.601" gradientUnits="userSpaceOnUse"><stop offset="0" stop-color="#590043"/><stop offset="0.035" stop-color="#610540"/><stop offset="0.193" stop-color="#7e1836"/><stop offset="0.361" stop-color="#96262e"/><stop offset="0.54" stop-color="#a63128"/><stop offset="0.739" stop-color="#b03725"/><stop offset="0.994" stop-color="#b33924"/></linearGradient><radialGradient id="_472" cx="64.002" cy="43.058" r="24.745" gradientUnits="userSpaceOnUse"><stop offset="0.006" stop-color="#60dbff"/><stop offset="0.182" stop-color="#56d5ff"/><stop offset="0.479" stop-color="#3cc4ff"/><stop offset="0.857" stop-color="#12a9ff"/><stop offset="1" stop-color="#009dff"/></radialGradient><linearGradient id="_230-2" x1="-60.952" y1="246.766" x2="-25.315" y2="246.766" gradientTransform="translate(66.289 -194.583) rotate(-2.682)" xlink:href="#_230"/><linearGradient id="_230-3" x1="-61.056" y1="242.1" x2="-25.315" y2="242.1" gradientTransform="translate(66.289 -194.583) rotate(-2.682)" xlink:href="#_230"/><linearGradient id="_119-4" x1="67.503" y1="7.577" x2="66.924" y2="0.858" xlink:href="#_119"/><radialGradient id="_311" cx="71.807" cy="2.387" r="0.846" gradientUnits="userSpaceOnUse"><stop offset="0" stop-color="#662d89"/><stop offset="0.381" stop-color="#9f7bb5"/><stop offset="0.994" stop-color="#fff"/></radialGradient><radialGradient id="_311-2" cx="68.87" cy="1.173" r="0.877" xlink:href="#_311"/><radialGradient id="_311-3" cx="66.043" cy="1.442" r="0.931" xlink:href="#_311"/><radialGradient id="_311-4" cx="64.226" cy="2.406" r="0.968" xlink:href="#_311"/><radialGradient id="_311-5" cx="62.657" cy="4.147" r="0.997" xlink:href="#_311"/><radialGradient id="_311-6" cx="62.001" cy="6.09" r="1.036" xlink:href="#_311"/><linearGradient id="_68-4" x1="67.43" y1="5.975" x2="66.156" y2="-0.454" xlink:href="#_68"/><radialGradient id="_423-2" cx="74.326" cy="1.815" r="6.612" xlink:href="#_423"/><radialGradient id="_423-3" cx="84.523" cy="1.348" r="14.603" xlink:href="#_423"/><linearGradient id="_119-5" x1="-749.574" y1="-3314.943" x2="-743.188" y2="-3314.943" gradientTransform="matrix(0.853, 1.058, -1.047, 0.844, -2756.851, 3594.759)" xlink:href="#_119"/><radialGradient id="_162" cx="79.865" cy="6.444" r="10.257" gradientUnits="userSpaceOnUse"><stop offset="0" stop-color="#ffd5bd"/><stop offset="0.103" stop-color="#f8d0bf"/><stop offset="0.253" stop-color="#e5c2c6"/><stop offset="0.43" stop-color="#c5abd2"/><stop offset="0.627" stop-color="#9a8ce1"/><stop offset="0.754" stop-color="#7a75ed"/><stop offset="0.975" stop-color="#7a82ed"/></radialGradient><linearGradient id="linear-gradient-6" x1="63.743" y1="-6.01" x2="94.674" y2="24.399" gradientUnits="userSpaceOnUse"><stop offset="0.006" stop-color="#f4ff09"/><stop offset="0.066" stop-color="#dfe908" stop-opacity="0.912"/><stop offset="0.267" stop-color="#9ca306" stop-opacity="0.639"/><stop offset="0.457" stop-color="#646904" stop-opacity="0.411"/><stop offset="0.631" stop-color="#393c02" stop-opacity="0.234"/><stop offset="0.785" stop-color="#1a1b01" stop-opacity="0.106"/><stop offset="0.913" stop-color="#070700" stop-opacity="0.028"/><stop offset="1" stop-opacity="0"/></linearGradient><linearGradient id="_38" x1="74.05" y1="8.089" x2="81.389" y2="8.089" gradientUnits="userSpaceOnUse"><stop offset="0.006" stop-color="#fc0"/><stop offset="0.223" stop-color="#fec902"/><stop offset="0.408" stop-color="#fcbe08"/><stop offset="0.581" stop-color="#f8ad13"/><stop offset="0.748" stop-color="#f29422"/><stop offset="0.907" stop-color="#ea7435"/><stop offset="1" stop-color="#e55e42"/></linearGradient><linearGradient id="_230-4" x1="174.812" y1="703.922" x2="194.362" y2="703.922" gradientTransform="matrix(0.973, -0.199, 0.004, 1.027, -87.963, -637.45)" xlink:href="#_230"/><linearGradient id="_230-5" x1="174.812" y1="701.039" x2="194.362" y2="701.039" gradientTransform="matrix(0.973, -0.199, 0.004, 1.027, -87.963, -637.45)" xlink:href="#_230"/><radialGradient id="_494" cx="66.345" cy="57.918" r="1.935" gradientUnits="userSpaceOnUse"><stop offset="0" stop-color="#fff"/><stop offset="1" stop-color="#623964"/></radialGradient><linearGradient id="_174" x1="27.299" y1="51.992" x2="44.892" y2="26.189" gradientUnits="userSpaceOnUse"><stop offset="0" stop-color="#662d89"/><stop offset="0.102" stop-color="#6f3990"/><stop offset="0.287" stop-color="#8659a2"/><stop offset="0.534" stop-color="#ac8cbf"/><stop offset="0.829" stop-color="#dfd3e6"/><stop offset="1" stop-color="#fff"/></linearGradient><linearGradient id="_68-5" x1="92.902" y1="49.965" x2="101.065" y2="40.854" xlink:href="#_68"/><radialGradient id="_170" cx="33.438" cy="31.964" r="10.192" gradientUnits="userSpaceOnUse"><stop offset="0" stop-color="#eaaee6"/><stop offset="1" stop-color="#8a2787"/></radialGradient><linearGradient id="_68-6" x1="25.643" y1="36.669" x2="36.661" y2="36.669" xlink:href="#_68"/><linearGradient id="_320" x1="45.602" y1="52.616" x2="45.602" y2="54.092" xlink:href="#_494"/><radialGradient id="radial-gradient-14" cx="483.736" cy="-1348.291" r="13.699" gradientTransform="matrix(0.929, 0.369, -0.225, 0.566, -685.24, 606.769)" gradientUnits="userSpaceOnUse"><stop offset="0.006" stop-color="#98fffc"/><stop offset="0.066" stop-color="#8be9e6" stop-opacity="0.912"/><stop offset="0.267" stop-color="#61a3a1" stop-opacity="0.639"/><stop offset="0.457" stop-color="#3f6968" stop-opacity="0.411"/><stop offset="0.631" stop-color="#243c3b" stop-opacity="0.234"/><stop offset="0.785" stop-color="#101b1b" stop-opacity="0.106"/><stop offset="0.913" stop-color="#040707" stop-opacity="0.028"/><stop offset="1" stop-opacity="0"/></radialGradient><linearGradient id="_267" x1="56.065" y1="40.68" x2="41.393" y2="49.303" gradientUnits="userSpaceOnUse"><stop offset="0" stop-color="#e7e3f4"/><stop offset="0.247" stop-color="#cdbad9"/><stop offset="0.45" stop-color="#bb9dc6"/><stop offset="0.627" stop-color="#cd6da7"/><stop offset="0.787" stop-color="#db488f"/><stop offset="0.917" stop-color="#e33280"/><stop offset="1" stop-color="#e62a7b"/></linearGradient><linearGradient id="_240" x1="73.653" y1="31.12" x2="48.762" y2="47.019" gradientUnits="userSpaceOnUse"><stop offset="0" stop-color="#fff"/><stop offset="0.098" stop-color="#edf4ff"/><stop offset="0.39" stop-color="#bed7ff"/><stop offset="0.647" stop-color="#9cc2ff"/><stop offset="0.86" stop-color="#88b6ff"/><stop offset="1" stop-color="#80b1ff"/></linearGradient><linearGradient id="_210" x1="91.845" y1="49.461" x2="93.825" y2="49.461" gradientUnits="userSpaceOnUse"><stop offset="0" stop-color="#b3a6db"/><stop offset="0.413" stop-color="#a685be"/><stop offset="0.766" stop-color="#9d71ab"/><stop offset="1" stop-color="#9a69a4"/></linearGradient><linearGradient id="_320-2" x1="18.646" y1="53.168" x2="50.452" y2="53.168" xlink:href="#_494"/><linearGradient id="linear-gradient-7" x1="84.674" y1="48.046" x2="100.285" y2="48.046" xlink:href="#linear-gradient-6"/><radialGradient id="_494-2" cx="50.655" cy="22.39" r="6.295" xlink:href="#_494"/><linearGradient id="_320-3" x1="71.653" y1="51.999" x2="70.739" y2="43.776" xlink:href="#_494"/><radialGradient id="_494-3" cx="79.099" cy="2.547" r="0.853" xlink:href="#_494"/><radialGradient id="_423-4" cx="64.38" cy="10.193" r="7.266" xlink:href="#_423"/><radialGradient id="_494-4" cx="63.298" cy="9.498" r="2.196" xlink:href="#_494"/><radialGradient id="_423-5" cx="66.763" cy="13.495" r="12.177" xlink:href="#_423"/><radialGradient id="_494-5" cx="63.879" cy="12.731" r="2.057" xlink:href="#_494"/><linearGradient id="_80" x1="64.673" y1="22.601" x2="62.977" y2="14.047" gradientUnits="userSpaceOnUse"><stop offset="0" stop-color="#623964"/><stop offset="1" stop-color="#fff"/></linearGradient><linearGradient id="_210-2" x1="29.513" y1="51.799" x2="35.174" y2="51.799" xlink:href="#_210"/><linearGradient id="_210-3" x1="22.063" y1="53.186" x2="24.886" y2="53.186" xlink:href="#_210"/><linearGradient id="_210-4" x1="23.667" y1="50.701" x2="29.9" y2="50.701" xlink:href="#_210"/><linearGradient id="_210-5" x1="94.017" y1="45.523" x2="99.084" y2="45.523" xlink:href="#_210"/><linearGradient id="_210-6" x1="89.995" y1="46.079" x2="93.468" y2="46.079" xlink:href="#_210"/><linearGradient id="_80-2" x1="33.849" y1="21.84" x2="52.615" y2="21.84" xlink:href="#_80"/><linearGradient id="_80-3" x1="58.904" y1="52.391" x2="75.097" y2="52.391" xlink:href="#_80"/><radialGradient id="radial-gradient-15" cx="34.909" cy="29.133" r="25.58" gradientUnits="userSpaceOnUse"><stop offset="0.002" stop-color="#27a2d9"/><stop offset="0.182" stop-color="#1d79a2" stop-opacity="0.746"/><stop offset="0.392" stop-color="#134e69" stop-opacity="0.483"/><stop offset="0.587" stop-color="#0b2c3c" stop-opacity="0.274"/><stop offset="0.759" stop-color="#05141b" stop-opacity="0.124"/><stop offset="0.902" stop-color="#010507" stop-opacity="0.033"/><stop offset="1" stop-opacity="0"/></radialGradient><radialGradient id="radial-gradient-16" cx="79.099" cy="8.66" r="8.281" gradientTransform="translate(9.416 -29.757) rotate(22.62)" xlink:href="#linear-gradient-6"/><radialGradient id="radial-gradient-17" cx="46.471" cy="64.729" r="12.614" gradientTransform="translate(102.956 8.525) rotate(80.819)" xlink:href="#radial-gradient-5"/></defs><title>ship-6</title><g class="cls-1"><g id="Layer_2" data-name="Layer 2"><g id="Spaceships"><g id="ship-6"><circle class="cls-2" cx="59.28" cy="55.592" r="23.206" transform="translate(-21.946 58.2) rotate(-45)"/><ellipse class="cls-3" cx="58.303" cy="137.728" rx="58.303" ry="6.667"/><path class="cls-4" d="M91.732,67.1c0,28.6-19.47,70.624-32.452,70.624S28.049,91.952,28.049,63.35,46.3,12.593,59.28,12.593,91.732,38.5,91.732,67.1Z"/><polygon class="cls-5" points="45.525 58.646 32.559 139.141 37.975 139.522 48.785 59.21 45.525 58.646"/><polygon class="cls-6" points="86.127 139.024 82.034 138.77 66.345 55.968 72.485 58.388 86.127 139.024"/><polygon class="cls-7" points="48.323 58.005 52.476 59.21 48.133 139.522 36.156 139.024 48.323 58.005"/><path class="cls-8" d="M45.525,58.646l26.96-.258s3.091,50.789-14.46,50.789C44.007,109.177,45.525,58.646,45.525,58.646Z"/><ellipse class="cls-9" cx="58.904" cy="71.969" rx="29.811" ry="42.056"/><circle class="cls-10" cx="48.185" cy="83.783" r="8.987" transform="translate(-45.13 58.611) rotate(-45)"/><ellipse class="cls-11" cx="59.891" cy="92.119" rx="8.987" ry="18.644"/><circle class="cls-12" cx="65.663" cy="74.052" r="8.987" transform="translate(-32.875 64.804) rotate(-43.074)"/><circle class="cls-13" cx="69.419" cy="65.662" r="12.614"/><circle class="cls-14" cx="59.891" cy="79.701" r="7.415" transform="translate(-38.815 65.693) rotate(-45)"/><ellipse class="cls-15" cx="69.42" cy="96.353" rx="7.415" ry="16.471"/><ellipse class="cls-16" cx="48.785" cy="94.915" rx="7.415" ry="16.012"/><ellipse class="cls-17" cx="43.921" cy="86.696" rx="7.415" ry="14.41"/><ellipse class="cls-18" cx="72.485" cy="88.223" rx="8.987" ry="19.19"/><polygon class="cls-19" points="54.083 138.31 65.663 137.804 59.89 59.868 57.232 59.21 54.083 138.31"/><path class="cls-20" d="M40.321,49.752l-2.346,6.713s9.39,4.28,26.455,3.4c6.385-.329,15.377-3.891,15.377-3.891L79.286,50.8Z"/><path class="cls-21" d="M72.46,58.4c-.286-.64-.545-1.284-.8-1.93-.132-.321-.25-.647-.381-.968s-.247-.647-.374-.969l-.184-.486c-.062-.161-.129-.321-.189-.484-.119-.325-.252-.644-.371-.97-.249-.647-.5-1.29-.742-1.951l.024-.012c.319.618.624,1.244.905,1.881s.55,1.279.8,1.928.483,1.3.706,1.964.436,1.322.631,1.99Z"/><path class="cls-22" d="M58.121,59.969a19.647,19.647,0,0,1-.137-2.447c-.006-.409.011-.816.021-1.225s.042-.815.072-1.222c.016-.2.035-.407.055-.61s.037-.407.063-.609c.055-.405.1-.811.17-1.213a21.322,21.322,0,0,1,.513-2.4l.026,0c-.126.8-.245,1.608-.335,2.416s-.172,1.617-.233,2.428-.114,1.622-.147,2.435-.052,1.625-.041,2.438Z"/><path class="cls-23" d="M45.5,58.639c.125-.729.294-1.445.48-2.156.089-.357.194-.708.291-1.063s.211-.7.318-1.054.226-.7.344-1.046.239-.7.372-1.038c.257-.689.532-1.372.855-2.037l.025.008c-.468,1.391-.91,2.79-1.347,4.191s-.882,2.8-1.313,4.2Z"/><path class="cls-24" d="M72.485,58.388l-2.152-5.35S70.442,54.925,72.485,58.388Z"/><path class="cls-25" d="M58.121,59.969a30.349,30.349,0,0,1,.182-6.931A12.839,12.839,0,0,0,58.121,59.969Z"/><path class="cls-26" d="M42.718,58.005c7.854-3.136,32.774-4.616,35.54-1.5l1.549-.526L79.286,50.8l-38.7-2.276-2.609,7.946A43.76,43.76,0,0,0,42.718,58.005Z"/><path class="cls-27" d="M89.061,49.255a63.854,63.854,0,0,1-14.49,4.788s-8.119,1.235-21.281-.237c-4.7-.526-9.088-1.166-12.968-1.929C33.342,50.505,28,48.737,25.4,46.524A34.723,34.723,0,0,1,32.7,27.6l0,0a33.3,33.3,0,0,1,4.709-4.877c10.86-9.18,21.023-9.063,27.8-8.419C76.685,15.394,86.368,24.56,89.061,49.255Z"/><path class="cls-28" d="M52.186,51.581,51.1,53.546l1.945.232A87.815,87.815,0,0,0,41.232,57.6l-3.257-1.133L40.456,50.2Z"/><path class="cls-29" d="M41.232,35.885c0,4-.508,11.047-.91,15.992C33.342,50.505,28,48.737,25.4,46.524A34.723,34.723,0,0,1,32.7,27.6l0,0C41.406,23.474,41.232,29.27,41.232,35.885Z"/><path class="cls-30" d="M87.835,45.707c-1.436.921-9.359,5.475-13.587,5.454-16.288-.083-25.431-3.01-29.1-4.538a3.3,3.3,0,0,1-2.035-2.891c-.543-11.1,1.358-17.491,5.326-22.284a25.273,25.273,0,0,1,2.641-2.724,13.47,13.47,0,0,1,3.538-1.989h0a23.4,23.4,0,0,1,18.472.6C81.661,21.1,85.3,31.574,86.805,38.686h0A51.7,51.7,0,0,1,87.835,45.707Z"/><path class="cls-31" d="M87.019,45.6s-7.05,3.919-11.829,4.527A74,74,0,0,1,44.336,45.2s-.048-1.006-.02-2.607c.027-1.488.12-3.492.382-5.676A32.848,32.848,0,0,1,46.966,27.8c3.1-7.019,8.515-12.36,19.81-11.23a17.583,17.583,0,0,1,5.5,1.472,19.985,19.985,0,0,1,6.955,5.33C83.528,28.39,86.389,35.987,87.019,45.6Z"/><path class="cls-32" d="M16.95,54.713a2.231,2.231,0,0,0,.57,1.219s4.179,2.714,21.157-.3a76.571,76.571,0,0,0,13.509-4.052l.237-1.2s-16.339,3.051-25.248,3.66S16.95,54.713,16.95,54.713Z"/><path class="cls-33" d="M25.643,44.088S15.6,52.764,16.95,54.713c.786,1.136,19.506,1.294,35.473-4.33,0,0-5.862-.255-11.894-1.128C40.529,49.255,30.686,44.867,25.643,44.088Z"/><path class="cls-34" d="M74.291,3.23,72.944,4.842s-3.3-4.277-7.429-1.786c-2.736,1.651-2.385,5.6-2.385,5.6h-2.7s-.007-.211.011-.566a11.117,11.117,0,0,1,1.078-4.275h0A6.564,6.564,0,0,1,65.515.363a8.055,8.055,0,0,1,8,2.043A7.555,7.555,0,0,1,74.291,3.23Z"/><path class="cls-35" d="M71.2,3.222l-.254-.056c.383-1.753,1.7-1.612,1.714-1.61l-.031.258C72.589,1.809,71.536,1.707,71.2,3.222Z"/><path class="cls-36" d="M68.469,2.321c-.336-1.857.73-2.28.775-2.3l.093.244c-.038.015-.907.375-.611,2.007Z"/><path class="cls-37" d="M66.427,2.6A8.384,8.384,0,0,0,65.408.437l.215-.148a8.545,8.545,0,0,1,1.056,2.237Z"/><path class="cls-38" d="M64.82,3.477a2.146,2.146,0,0,0-1.447-1.89l.069-.251a2.415,2.415,0,0,1,1.637,2.117Z"/><path class="cls-39" d="M63.785,4.652c-1.238-1.291-2.275-.529-2.285-.521l-.158-.207a1.959,1.959,0,0,1,2.631.548Z"/><path class="cls-40" d="M63.208,6.562C61.855,5.25,60.84,6.215,60.8,6.257l-.183-.186a1.911,1.911,0,0,1,2.775.3Z"/><path class="cls-41" d="M74.291,3.23,72.944,4.842s-3.3-4.277-7.429-1.786c-2.736,1.651-2.385,5.6-2.385,5.6H61.305l-.861-.566a11.117,11.117,0,0,1,1.078-4.275h0c1.987.212,1.632-1.632,4.433-2.646s6.033,1.768,6.033,1.768c.842.375,1.418.115,1.526-.535A7.555,7.555,0,0,1,74.291,3.23Z"/><path class="cls-42" d="M77.766,2.883s-3.432-.826-4.518.825a6.6,6.6,0,0,0-.782,3.953Z"/><path class="cls-43" d="M83.871,4.418A3.633,3.633,0,0,0,82.7,2.9h0c-1.586-1.655-5.042-1.2-7.879,1.086-2.469,1.989-3.682,4.731-3.112,6.663v0a3.533,3.533,0,0,0,1.246,1.9l.2-.151c1.773.918,4.668.307,7.107-1.658,2.216-1.785,3.42-4.177,3.232-6.045Z"/><path class="cls-44" d="M80.99,11.648c-2.936,2.366-6.535,2.771-8.038.905s-.342-5.3,2.594-7.661,6.536-2.771,8.039-.906S83.926,9.282,80.99,11.648Z"/><path class="cls-45" d="M80.19,10.655c-1.8,1.448-3.944,1.856-5.176,1.082a2.051,2.051,0,0,1-.5-.443c-1.061-1.317-.24-3.739,1.833-5.41A5.831,5.831,0,0,1,80.425,4.44a2.311,2.311,0,0,1,1.6.806C83.084,6.563,82.263,8.984,80.19,10.655Z"/><polygon class="cls-46" points="74.514 11.294 94.215 29.997 97.389 26.355 82.022 5.246 74.514 11.294"/><path class="cls-47" d="M79.093,10.293a5.834,5.834,0,0,1-4.079,1.444,2.051,2.051,0,0,1-.5-.443c-1.061-1.317-.24-3.739,1.833-5.41A5.831,5.831,0,0,1,80.425,4.44a1.974,1.974,0,0,1,.5.443C81.986,6.2,81.166,8.622,79.093,10.293Z"/><path class="cls-48" d="M103.7,48.205s-.648,1.04-1.017,1.134c-5.354,1.358-17.721.7-17.721.7l-.289-1.275s7.32-1.523,11.937-1.248C99.531,47.692,103.7,48.205,103.7,48.205Z"/><path class="cls-49" d="M88.186,43.06s2.88.514,6,1.44c7.308,2.166,9.514,3.7,9.514,3.7s-1.979.594-19.027.561a12.126,12.126,0,0,0,4.146-1.541Z"/><polygon class="cls-50" points="64.43 59.868 64.425 55.968 67.305 55.968 68.266 59.378 64.43 59.868"/><path class="cls-51" d="M40.529,49.255,36.3,47.485c-7,3.755-17.657,3.557-17.657,3.557s4.962-5.281,7-6.954c0,0,.428-10.1,9.687-19.454,3.09-3.121,11.679-6.374,11.115-4.466-.7,2.35-3.475,10.356-4.344,16.822S40.529,49.255,40.529,49.255Z"/><path class="cls-52" d="M84.674,48.766,81.9,52.106s2.564-.866,5.231-1.979a92.518,92.518,0,0,0,13.692-.429c.511-.057,2.01-.434,2.01-.434l.868-1.059C97.938,48.989,84.674,48.766,84.674,48.766Z"/><path class="cls-53" d="M25.643,44.088S34.687,28.3,41.232,19.84A34.719,34.719,0,0,0,25.643,44.088Z"/><path class="cls-54" d="M30.98,29.99a32.612,32.612,0,0,0-5.337,14.1,41.809,41.809,0,0,1,6.916,1.974s4.271-11.93,4.1-16.8S30.98,29.99,30.98,29.99Z"/><path class="cls-55" d="M68.937,20.1c-2.839-1.864-1.98.944.076,1.764S69.269,20.316,68.937,20.1Z"/><polygon class="cls-56" points="48.185 51.877 48.185 53.171 43.02 54.652 43.549 53.038 48.185 51.877"/><path class="cls-57" d="M80.037,27.78c-1.7,4.279-8.778,5.485-15.809,2.692s-11.354-8.526-9.654-12.806,8.778-5.484,15.809-2.692S81.737,23.5,80.037,27.78Z"/><path class="cls-58" d="M87.835,45.707c-1.436.921-9.359,5.475-13.587,5.454-16.379-.083-25.533-3.043-29.163-4.563a3.225,3.225,0,0,1-1.972-2.819c-.55-11.131,1.351-17.531,5.324-22.331.031-.038,2.609.063,2.609.063s-1.265,6.408,2,16.7c0,0,2.588,9.273,19.991,11.5,0,0,16.022-.462,12.692-12.8l1.074,1.774h0A51.7,51.7,0,0,1,87.835,45.707Z"/><path class="cls-59" d="M87.019,45.6s-7.05,3.919-11.829,4.527A74,74,0,0,1,44.336,45.2s-2.525-12.8,4.872-21.48c19.667,28.826,47.4,9.94,23.071-5.677a19.985,19.985,0,0,1,6.955,5.33C83.528,28.39,86.389,35.987,87.019,45.6Z"/><polygon class="cls-60" points="91.845 48.899 91.845 50.155 93.536 50.155 93.825 48.767 91.845 48.899"/><path class="cls-61" d="M18.646,55.108a133.3,133.3,0,0,0,31.806-4.064A83.444,83.444,0,0,1,18.646,55.108Z"/><path class="cls-62" d="M84.674,48.766s3.137-.669,4.146-1.541c0,0,.605,1.316,11.465,1.294C100.285,48.519,91.856,49.093,84.674,48.766Z"/><path class="cls-63" d="M56.828,15.975c-9.688,2.518-11.281,7.919-12.345,12.83,0,0,.621-3.336,4.858-8.227C51.542,18.037,56.828,15.975,56.828,15.975Z"/><path class="cls-64" d="M54.844,49.461a109.345,109.345,0,0,0,20.5,1.236A58.01,58.01,0,0,0,87.5,45.913S81.491,50,75.582,51.044A77.077,77.077,0,0,1,54.844,49.461Z"/><polygon class="cls-65" points="78.041 2.233 78.801 3.127 80.156 2.847 79.234 1.966 78.041 2.233"/><path class="cls-66" d="M57.161,7.777l-.333,3.765a56.1,56.1,0,0,1,9.948-.232l-.522-3.533A19.741,19.741,0,0,0,57.161,7.777Z"/><polygon class="cls-67" points="61.169 7.236 61.169 11.542 65.428 11.759 64.693 7.472 61.169 7.236"/><path class="cls-68" d="M53.048,11.947v2.838s9.47-.7,16.242.394L68.8,11.021A41.256,41.256,0,0,0,53.048,11.947Z"/><polygon class="cls-69" points="61.802 10.695 65.956 10.732 65.663 14.767 61.802 14.614 61.802 10.695"/><path class="cls-70" d="M51.046,21.511c7.2-5.145,20.339-5.608,26.995.879,0,0-4.915-6.913-15.384-6.041C53.38,17.122,51.046,21.511,51.046,21.511Z"/><path class="cls-71" d="M31.443,51.182c-5.3,1.34,1.854,1.774,3.244,1.2S34.339,50.45,31.443,51.182Z"/><path class="cls-72" d="M22.233,53.262c1.66.512,3.649.321,2.086-.224S21.618,53.072,22.233,53.262Z"/><path class="cls-73" d="M24.886,51.8c1.874.039,7.715-1.383,3.545-2.082S22.175,51.742,24.886,51.8Z"/><path class="cls-74" d="M95.12,44.781c-3.264.472,1.52,1.961,3.964,1.332Z"/><path class="cls-75" d="M90,45.523c.646,2.654,4.113,1.051,3.36.39S89.829,44.809,90,45.523Z"/><path class="cls-76" d="M41.794,19.472a18.97,18.97,0,0,0,10.821-2.009S47.5,19.339,45.2,25.984c0,0,.732-6.755-11.347.233A37.386,37.386,0,0,1,41.794,19.472Z"/><path class="cls-77" d="M62,54.51s9.265.156,12.049-.4l1.047-2.7s-10.163-.1-16.193-1.164Z"/><circle class="cls-78" cx="34.909" cy="29.133" r="25.58"/><circle class="cls-79" cx="79.099" cy="8.66" r="8.281" transform="translate(2.754 31.089) rotate(-22.62)"/><circle class="cls-80" cx="46.471" cy="64.729" r="12.614" transform="translate(-24.843 100.277) rotate(-80.819)"/></g></g></g></g></svg>