<svg xmlns="http://www.w3.org/2000/svg" xmlns:xlink="http://www.w3.org/1999/xlink" viewBox="0 0 90.052 155.193"><defs><style>.cls-1{isolation:isolate;}.cls-10,.cls-11,.cls-12,.cls-14,.cls-16,.cls-17,.cls-18,.cls-19,.cls-2,.cls-20,.cls-21,.cls-22,.cls-23,.cls-24,.cls-25,.cls-26,.cls-27,.cls-28,.cls-29,.cls-30,.cls-35,.cls-36,.cls-37,.cls-38,.cls-39,.cls-4,.cls-40,.cls-41,.cls-42,.cls-43,.cls-44,.cls-45,.cls-46,.cls-47,.cls-48,.cls-49,.cls-5,.cls-50,.cls-51,.cls-52,.cls-53,.cls-54,.cls-55,.cls-56,.cls-57,.cls-58,.cls-59,.cls-6,.cls-7,.cls-9{fill-rule:evenodd;}.cls-2,.cls-4,.cls-5,.cls-6,.cls-7{opacity:0.6;}.cls-11,.cls-12,.cls-13,.cls-2,.cls-25,.cls-26,.cls-27,.cls-29,.cls-3,.cls-30,.cls-34,.cls-4,.cls-47,.cls-48,.cls-49,.cls-5,.cls-50,.cls-54,.cls-55,.cls-56,.cls-57,.cls-6,.cls-7{mix-blend-mode:screen;}.cls-2{fill:url(#radial-gradient);}.cls-3{fill:url(#radial-gradient-2);}.cls-4{fill:url(#linear-gradient);}.cls-5{fill:url(#linear-gradient-2);}.cls-6{fill:url(#linear-gradient-3);}.cls-7{fill:url(#linear-gradient-4);}.cls-10,.cls-31,.cls-8,.cls-9{mix-blend-mode:color-dodge;}.cls-8{fill:url(#radial-gradient-3);}.cls-9{fill:url(#radial-gradient-4);}.cls-10{fill:url(#radial-gradient-5);}.cls-11{fill:url(#radial-gradient-6);}.cls-12{fill:url(#radial-gradient-7);}.cls-13{fill:url(#radial-gradient-8);}.cls-14{fill:url(#_423);}.cls-15{fill:url(#_214);}.cls-16{fill:url(#_119);}.cls-17{fill:url(#_435);}.cls-18{fill:url(#_162);}.cls-19,.cls-20,.cls-28,.cls-39,.cls-41,.cls-43{opacity:0.71;}.cls-19,.cls-20,.cls-28,.cls-32,.cls-33,.cls-37,.cls-39,.cls-41,.cls-43,.cls-58,.cls-59{mix-blend-mode:multiply;}.cls-19{fill:url(#_68);}.cls-20{fill:url(#_68-2);}.cls-21{fill:url(#_423-2);}.cls-22{fill:url(#_460);}.cls-23{fill:url(#_460-2);}.cls-24{fill:#fff;}.cls-25{opacity:0.64;fill:url(#_89);}.cls-26{fill:url(#_494);}.cls-27{fill:url(#_494-2);}.cls-28{fill:url(#_68-3);}.cls-29{fill:url(#radial-gradient-9);}.cls-30{fill:url(#radial-gradient-10);}.cls-31{fill:url(#radial-gradient-11);}.cls-32{fill:url(#_210);}.cls-33{fill:url(#_210-2);}.cls-34{opacity:0.91;fill:url(#_494-3);}.cls-35{fill:url(#_184);}.cls-36{fill:url(#_119-2);}.cls-37{fill:url(#_214-2);}.cls-38{fill:url(#_423-3);}.cls-39{fill:url(#_68-4);}.cls-40{fill:url(#_423-4);}.cls-41{fill:url(#_68-5);}.cls-42{fill:url(#_423-5);}.cls-43{fill:url(#_68-6);}.cls-44{fill:url(#_473);}.cls-45{fill:url(#_473-2);}.cls-46{fill:url(#_460-3);}.cls-47,.cls-48,.cls-49,.cls-54,.cls-55,.cls-56{opacity:0.16;}.cls-47{fill:url(#_89-2);}.cls-48{fill:url(#_89-3);}.cls-49{fill:url(#_89-4);}.cls-50,.cls-57{opacity:0.5;}.cls-50{fill:url(#_494-4);}.cls-51{fill:url(#_473-3);}.cls-52{fill:url(#_473-4);}.cls-53{fill:url(#_460-4);}.cls-54{fill:url(#_89-5);}.cls-55{fill:url(#_89-6);}.cls-56{fill:url(#_89-7);}.cls-57{fill:url(#_494-5);}.cls-58{fill:url(#_210-3);}.cls-59{fill:url(#_210-4);}</style><radialGradient id="radial-gradient" cx="45.542" cy="108.539" r="35.483" gradientUnits="userSpaceOnUse"><stop offset="0" stop-color="#961f63"/><stop offset="0.116" stop-color="#7f1a54" stop-opacity="0.846"/><stop offset="0.414" stop-color="#490f30" stop-opacity="0.484"/><stop offset="0.671" stop-color="#210716" stop-opacity="0.221"/><stop offset="0.875" stop-color="#090206" stop-opacity="0.059"/><stop offset="1" stop-opacity="0"/></radialGradient><radialGradient id="radial-gradient-2" cx="489.247" cy="1931.733" r="28.325" gradientTransform="translate(-197.564 -3071.07) scale(0.496 1.632)" gradientUnits="userSpaceOnUse"><stop offset="0.008" stop-color="#8880ea"/><stop offset="0.126" stop-color="#726cc5" stop-opacity="0.841"/><stop offset="0.365" stop-color="#4a4680" stop-opacity="0.546"/><stop offset="0.58" stop-color="#2a2849" stop-opacity="0.311"/><stop offset="0.764" stop-color="#131221" stop-opacity="0.142"/><stop offset="0.91" stop-color="#050509" stop-opacity="0.038"/><stop offset="1" stop-opacity="0"/></radialGradient><linearGradient id="linear-gradient" x1="45.433" y1="65.585" x2="45.433" y2="149.555" gradientUnits="userSpaceOnUse"><stop offset="0" stop-color="#8a2787"/><stop offset="0.402" stop-color="#882685" stop-opacity="0.986"/><stop offset="0.557" stop-color="#81247e" stop-opacity="0.936"/><stop offset="0.669" stop-color="#752173" stop-opacity="0.848"/><stop offset="0.76" stop-color="#641c62" stop-opacity="0.724"/><stop offset="0.839" stop-color="#4e164c" stop-opacity="0.562"/><stop offset="0.909" stop-color="#320e31" stop-opacity="0.362"/><stop offset="0.971" stop-color="#120512" stop-opacity="0.13"/><stop offset="1" stop-opacity="0"/></linearGradient><linearGradient id="linear-gradient-2" x1="37.628" y1="65.585" x2="37.628" y2="149.555" xlink:href="#radial-gradient"/><linearGradient id="linear-gradient-3" x1="51.345" y1="65.585" x2="51.345" y2="149.555" xlink:href="#radial-gradient"/><linearGradient id="linear-gradient-4" x1="42.175" y1="65.557" x2="42.175" y2="149.555" xlink:href="#radial-gradient"/><radialGradient id="radial-gradient-3" cx="1907.28" cy="2527.99" r="22.887" gradientTransform="translate(-634.4 -4570.391) scale(0.36 1.838)" gradientUnits="userSpaceOnUse"><stop offset="0" stop-color="#eaaee6"/><stop offset="0.119" stop-color="#c592c2" stop-opacity="0.841"/><stop offset="0.36" stop-color="#805f7d" stop-opacity="0.546"/><stop offset="0.577" stop-color="#493648" stop-opacity="0.311"/><stop offset="0.762" stop-color="#211921" stop-opacity="0.142"/><stop offset="0.91" stop-color="#090709" stop-opacity="0.038"/><stop offset="1" stop-opacity="0"/></radialGradient><radialGradient id="radial-gradient-4" cx="1878.854" cy="70.195" r="17.038" gradientTransform="translate(-634.4) scale(0.36 1)" gradientUnits="userSpaceOnUse"><stop offset="0" stop-color="#27a2d9"/><stop offset="0.069" stop-color="#2393c5" stop-opacity="0.907"/><stop offset="0.323" stop-color="#175f80" stop-opacity="0.588"/><stop offset="0.553" stop-color="#0d3649" stop-opacity="0.335"/><stop offset="0.749" stop-color="#061921" stop-opacity="0.153"/><stop offset="0.904" stop-color="#020709" stop-opacity="0.041"/><stop offset="1" stop-opacity="0"/></radialGradient><radialGradient id="radial-gradient-5" cx="1864.476" cy="2625.008" r="17.038" gradientTransform="translate(-634.4 -4893.379) scale(0.36 1.897)" xlink:href="#radial-gradient-3"/><radialGradient id="radial-gradient-6" cx="-50.363" cy="-23218.762" r="13.157" gradientTransform="translate(126.441 5190.348) scale(1.598 0.217)" gradientUnits="userSpaceOnUse"><stop offset="0" stop-color="#fff"/><stop offset="0.122" stop-color="#c4c4c4" stop-opacity="0.77"/><stop offset="0.246" stop-color="#919191" stop-opacity="0.568"/><stop offset="0.372" stop-color="#646464" stop-opacity="0.394"/><stop offset="0.497" stop-color="#404040" stop-opacity="0.252"/><stop offset="0.623" stop-color="#242424" stop-opacity="0.141"/><stop offset="0.749" stop-color="#101010" stop-opacity="0.063"/><stop offset="0.874" stop-color="#040404" stop-opacity="0.016"/><stop offset="1" stop-opacity="0"/></radialGradient><radialGradient id="radial-gradient-7" cx="-50.363" cy="-23218.762" r="25.974" gradientTransform="translate(126.441 5190.348) scale(1.598 0.217)" gradientUnits="userSpaceOnUse"><stop offset="0" stop-color="#8a2787"/><stop offset="1" stop-opacity="0"/></radialGradient><radialGradient id="radial-gradient-8" cx="45.726" cy="-25.928" r="13.59" gradientTransform="translate(0 93.806)" gradientUnits="userSpaceOnUse"><stop offset="0" stop-color="#067fff"/><stop offset="0.173" stop-color="#0562c5" stop-opacity="0.772"/><stop offset="0.399" stop-color="#034080" stop-opacity="0.501"/><stop offset="0.602" stop-color="#022449" stop-opacity="0.285"/><stop offset="0.777" stop-color="#011121" stop-opacity="0.13"/><stop offset="0.915" stop-color="#000409" stop-opacity="0.035"/><stop offset="1" stop-opacity="0"/></radialGradient><radialGradient id="_423" cx="48.934" cy="67.785" r="12.316" gradientUnits="userSpaceOnUse"><stop offset="0" stop-color="#b1b5bd"/><stop offset="0.137" stop-color="#abaebd"/><stop offset="0.336" stop-color="#9b9bbf"/><stop offset="0.57" stop-color="#817cc0"/><stop offset="0.754" stop-color="#685ec2"/><stop offset="0.975" stop-color="#7a75d8"/></radialGradient><linearGradient id="_214" x1="45.522" y1="67.485" x2="45.522" y2="61.633" gradientUnits="userSpaceOnUse"><stop offset="0" stop-color="#e7e3f4"/><stop offset="0.073" stop-color="#dfd6ec"/><stop offset="0.372" stop-color="#c1a7cd"/><stop offset="0.637" stop-color="#ac85b7"/><stop offset="0.856" stop-color="#9f71a9"/><stop offset="1" stop-color="#9a69a4"/></linearGradient><linearGradient id="_119" x1="26.312" y1="62.168" x2="63.904" y2="62.168" gradientUnits="userSpaceOnUse"><stop offset="0" stop-color="#5b58a3"/><stop offset="0.439" stop-color="#5f59a3"/><stop offset="0.848" stop-color="#6a5ca2"/><stop offset="0.994" stop-color="#705ea2"/></linearGradient><linearGradient id="_435" x1="13.977" y1="54.42" x2="62.65" y2="54.42" gradientUnits="userSpaceOnUse"><stop offset="0.025" stop-color="#7a82ed"/><stop offset="0.206" stop-color="#7a75ed"/><stop offset="0.986" stop-color="#fdd3be"/><stop offset="1" stop-color="#ffd5bd"/></linearGradient><radialGradient id="_162" cx="50.852" cy="33.786" r="26.819" gradientUnits="userSpaceOnUse"><stop offset="0" stop-color="#ffd5bd"/><stop offset="0.103" stop-color="#f8d0bf"/><stop offset="0.253" stop-color="#e5c2c6"/><stop offset="0.43" stop-color="#c5abd2"/><stop offset="0.627" stop-color="#9a8ce1"/><stop offset="0.754" stop-color="#7a75ed"/><stop offset="0.975" stop-color="#7a82ed"/></radialGradient><linearGradient id="_68" x1="40.657" y1="47.406" x2="31.023" y2="39.514" gradientUnits="userSpaceOnUse"><stop offset="0" stop-color="#9a69a4"/><stop offset="0.134" stop-color="#a275ab"/><stop offset="0.375" stop-color="#b795bf"/><stop offset="0.694" stop-color="#dac8dd"/><stop offset="1" stop-color="#fff"/></linearGradient><linearGradient id="_68-2" x1="27.524" y1="65.347" x2="62.453" y2="65.347" xlink:href="#_68"/><radialGradient id="_423-2" cx="52.985" cy="59.261" r="21.929" xlink:href="#_423"/><radialGradient id="_460" cx="50.392" cy="35.734" r="2.392" gradientUnits="userSpaceOnUse"><stop offset="0.006" stop-color="#ff9aff"/><stop offset="0.093" stop-color="#fb94ff"/><stop offset="0.209" stop-color="#f183ff"/><stop offset="0.342" stop-color="#e068ff"/><stop offset="0.486" stop-color="#c841ff"/><stop offset="0.639" stop-color="#a910ff"/><stop offset="0.684" stop-color="#9f00ff"/><stop offset="0.743" stop-color="#9900f8"/><stop offset="0.828" stop-color="#8700e5"/><stop offset="0.929" stop-color="#6a00c6"/><stop offset="1" stop-color="#5200ab"/></radialGradient><radialGradient id="_460-2" cx="-1753.729" cy="-211.517" r="9.177" gradientTransform="matrix(1.774, 0.101, -0.057, 0.998, 3153.232, 419.4)" xlink:href="#_460"/><linearGradient id="_89" x1="42.433" y1="31.867" x2="37.961" y2="32.087" gradientUnits="userSpaceOnUse"><stop offset="0" stop-color="#623964"/><stop offset="1" stop-color="#ffc209"/></linearGradient><radialGradient id="_494" cx="60.957" cy="55.984" r="4.683" gradientUnits="userSpaceOnUse"><stop offset="0" stop-color="#fff"/><stop offset="1" stop-color="#623964"/></radialGradient><radialGradient id="_494-2" cx="52.398" cy="56.007" r="11.245" xlink:href="#_494"/><linearGradient id="_68-3" x1="37.723" y1="55.279" x2="23.97" y2="56.196" xlink:href="#_68"/><radialGradient id="radial-gradient-9" cx="-665.109" cy="-178.257" r="3.818" gradientTransform="translate(1104.705 278.462) scale(1.583 1.331)" gradientUnits="userSpaceOnUse"><stop offset="0.006" stop-color="#f4ff09"/><stop offset="0.066" stop-color="#dfe908" stop-opacity="0.912"/><stop offset="0.267" stop-color="#9ca306" stop-opacity="0.639"/><stop offset="0.457" stop-color="#646904" stop-opacity="0.411"/><stop offset="0.631" stop-color="#393c02" stop-opacity="0.234"/><stop offset="0.785" stop-color="#1a1b01" stop-opacity="0.106"/><stop offset="0.913" stop-color="#070700" stop-opacity="0.028"/><stop offset="1" stop-opacity="0"/></radialGradient><radialGradient id="radial-gradient-10" cx="0.622" cy="-218.809" r="3.818" gradientTransform="translate(48.392 329.622) scale(1.044 1.365)" xlink:href="#radial-gradient-9"/><radialGradient id="radial-gradient-11" cx="-480.505" cy="-214.127" r="3.818" gradientTransform="translate(691.999 329.622) scale(1.365)" gradientUnits="userSpaceOnUse"><stop offset="0.006" stop-color="#b61e2d"/><stop offset="0.082" stop-color="#a21b28" stop-opacity="0.889"/><stop offset="0.318" stop-color="#69111a" stop-opacity="0.575"/><stop offset="0.536" stop-color="#3b0a0f" stop-opacity="0.327"/><stop offset="0.729" stop-color="#1b0407" stop-opacity="0.148"/><stop offset="0.89" stop-color="#070102" stop-opacity="0.039"/><stop offset="1" stop-opacity="0"/></radialGradient><linearGradient id="_210" x1="31.874" y1="45.046" x2="57.495" y2="45.046" gradientUnits="userSpaceOnUse"><stop offset="0" stop-color="#b3a6db"/><stop offset="0.413" stop-color="#a685be"/><stop offset="0.766" stop-color="#9d71ab"/><stop offset="1" stop-color="#9a69a4"/></linearGradient><linearGradient id="_210-2" x1="40.486" y1="37.252" x2="47.879" y2="37.252" xlink:href="#_210"/><radialGradient id="_494-3" cx="44.873" cy="51.108" r="6.534" xlink:href="#_494"/><radialGradient id="_184" cx="44.762" cy="54.367" r="5.066" gradientUnits="userSpaceOnUse"><stop offset="0.006" stop-color="#60dbff"/><stop offset="0.182" stop-color="#56d6ff"/><stop offset="0.479" stop-color="#3ccaff"/><stop offset="0.857" stop-color="#12b6ff"/><stop offset="1" stop-color="#00aeff"/></radialGradient><linearGradient id="_119-2" x1="37.753" y1="54.192" x2="51.771" y2="54.192" xlink:href="#_119"/><linearGradient id="_214-2" x1="44.649" y1="55.279" x2="44.649" y2="52.643" xlink:href="#_214"/><radialGradient id="_423-3" cx="32.165" cy="72.019" r="5.08" xlink:href="#_423"/><linearGradient id="_68-4" x1="40.123" y1="69.353" x2="44.989" y2="69.353" xlink:href="#_68"/><radialGradient id="_423-4" cx="46.257" cy="72.976" r="4.575" xlink:href="#_423"/><linearGradient id="_68-5" x1="29.932" y1="68.424" x2="35.619" y2="68.424" xlink:href="#_68"/><radialGradient id="_423-5" cx="-4307.445" cy="72.019" r="5.08" gradientTransform="matrix(-1, 0, 0, 1, -4250.466, 0)" xlink:href="#_423"/><linearGradient id="_68-6" x1="49.962" y1="68.672" x2="57.112" y2="68.672" xlink:href="#_68"/><radialGradient id="_473" cx="30.367" cy="19.649" r="38.714" gradientUnits="userSpaceOnUse"><stop offset="0.004" stop-color="#eaaee6"/><stop offset="0.22" stop-color="#e095eb"/><stop offset="0.676" stop-color="#c855f6"/><stop offset="1" stop-color="#b524ff"/></radialGradient><radialGradient id="_473-2" cx="2.713" cy="68.593" r="14.713" xlink:href="#_473"/><radialGradient id="_460-3" cx="46.526" cy="18.115" r="59.588" xlink:href="#_460"/><linearGradient id="_89-2" x1="-24.369" y1="28.299" x2="-0.595" y2="42.626" xlink:href="#_89"/><linearGradient id="_89-3" x1="-18.17" y1="18.013" x2="5.604" y2="32.34" xlink:href="#_89"/><linearGradient id="_89-4" x1="-22.011" y1="24.384" x2="1.764" y2="38.712" xlink:href="#_89"/><radialGradient id="_494-4" cx="26.171" cy="22.28" r="25.453" xlink:href="#_494"/><radialGradient id="_473-3" cx="-4663.758" cy="19.258" r="38.714" gradientTransform="matrix(-1, 0, 0, 1, -4604.073, 0)" xlink:href="#_473"/><radialGradient id="_473-4" cx="-4691.413" cy="68.202" r="14.713" gradientTransform="matrix(-1, 0, 0, 1, -4604.073, 0)" xlink:href="#_473"/><radialGradient id="_460-4" cx="-4647.6" cy="17.725" r="59.588" gradientTransform="matrix(-1, 0, 0, 1, -4604.073, 0)" xlink:href="#_460"/><linearGradient id="_89-5" x1="-4718.495" y1="27.908" x2="-4694.721" y2="42.236" gradientTransform="matrix(-1, 0, 0, 1, -4604.073, 0)" xlink:href="#_89"/><linearGradient id="_89-6" x1="-4712.296" y1="17.622" x2="-4688.522" y2="31.95" gradientTransform="matrix(-1, 0, 0, 1, -4604.073, 0)" xlink:href="#_89"/><linearGradient id="_89-7" x1="-4716.136" y1="23.994" x2="-4692.362" y2="38.321" gradientTransform="matrix(-1, 0, 0, 1, -4604.073, 0)" xlink:href="#_89"/><radialGradient id="_494-5" cx="-4667.954" cy="21.89" r="25.453" gradientTransform="matrix(-1, 0, 0, 1, -4604.073, 0)" xlink:href="#_494"/><linearGradient id="_210-3" x1="7.177" y1="63.572" x2="27.524" y2="63.572" xlink:href="#_210"/><linearGradient id="_210-4" x1="62.528" y1="63.182" x2="82.876" y2="63.182" xlink:href="#_210"/></defs><title>ship-9</title><g class="cls-1"><g id="Layer_2" data-name="Layer 2"><g id="Spaceships"><g id="ship-9"><path class="cls-2" d="M58.98,67.523c8.009,17.037-14.3,29.751-13.991,38.726s21.567,4.983,27.713,11.268c10.322,10.556-28.426,32.038-28.426,32.038s24.818-33.96,8.706-30.817c-38.661,7.542-40.457-17.793-32.635-26.289,7.284-7.911,23.065-15.479,12.5-24.926Z"/><ellipse class="cls-3" cx="44.907" cy="82.292" rx="14.038" ry="46.237"/><polygon class="cls-4" points="33.213 65.585 34.244 149.555 56.222 149.555 57.654 65.585 33.213 65.585"/><polygon class="cls-5" points="36.239 65.585 37.368 65.585 39.017 149.555 37.906 149.555 36.239 65.585"/><polygon class="cls-6" points="55.759 65.585 48.767 65.585 46.931 149.555 53.971 149.555 55.759 65.585"/><polygon class="cls-7" points="40.075 65.557 44.276 65.557 43.137 149.555 40.356 149.555 40.075 65.557"/><ellipse class="cls-8" cx="52.411" cy="75.296" rx="8.242" ry="42.058"/><path class="cls-9" d="M48.311,70.195c0,9.41-2.747,17.038-6.136,17.038S36.04,79.605,36.04,70.195s2.747-17.038,6.135-17.038S48.311,60.785,48.311,70.195Z"/><path class="cls-10" d="M43.133,85.474c0,17.848-2.747,32.317-6.135,32.317s-6.136-14.469-6.136-32.317S33.609,53.157,37,53.157,43.133,67.626,43.133,85.474Z"/><path class="cls-11" d="M66.989,149.555c0,1.577-9.414,2.856-21.028,2.856s-21.028-1.279-21.028-2.856,9.415-2.856,21.028-2.856S66.989,147.977,66.989,149.555Z"/><path class="cls-12" d="M87.473,149.555c0,3.114-18.586,5.638-41.512,5.638S4.45,152.669,4.45,149.555s18.585-5.639,41.511-5.639S87.473,146.441,87.473,149.555Z"/><circle class="cls-13" cx="45.726" cy="67.878" r="13.59"/><path class="cls-14" d="M29.881,64.611A15.937,15.937,0,0,0,33.324,69.5a69.919,69.919,0,0,0,22.814,0s3.824-2.785,5.026-4.891Z"/><ellipse class="cls-15" cx="45.522" cy="64.611" rx="15.641" ry="2.442"/><path class="cls-16" d="M26.312,59.081c1.68,3.493,6.438,5.173,6.438,5.173a43.192,43.192,0,0,0,25.066-.28A13.72,13.72,0,0,0,63.9,58.359Z"/><path class="cls-17" d="M49.581,49.871c-21.592-.809-27.956,3.013-27.956,3.013s3.719,6.414,24.1,6.191S70.3,52.884,70.3,52.884,62.947,50.372,49.581,49.871Z"/><path class="cls-18" d="M64.346,52.613A67.55,67.55,0,0,1,40.053,55.6,53.421,53.421,0,0,1,26.7,53.079S26.63,35.267,44.771,34.818a22.432,22.432,0,0,1,5.464.5C63.214,38.21,64.346,52.613,64.346,52.613Z"/><path class="cls-19" d="M47.879,36.355c-1.435,1.691-10.641,1.6-10.641,1.6s-3.178.769-4.715,5.893,1.28,9.706,7.53,11.745A53.421,53.421,0,0,1,26.7,53.079S26.63,35.267,44.771,34.818A3.855,3.855,0,0,1,47.879,36.355Z"/><path class="cls-20" d="M59.724,62.884c-6.715-.677-21.608.469-23.294,2.284a43.634,43.634,0,0,0,16.837,0s-4.325,1.885-14.14,1.684l.267,3.385a31.658,31.658,0,0,1-6.276-.892,17.306,17.306,0,0,1-3.237-4.734s-.076-.562,1.4-1.011a13.586,13.586,0,0,1-3.754-2.776s34.3-.247,34.929-.367Z"/><path class="cls-21" d="M21.625,52.884a14.586,14.586,0,0,0,0,6.288S40.114,66.7,70.3,58.65c0,0,.8-4.543,0-5.766a63.021,63.021,0,0,1-29.387,5.229C24.316,57,21.625,52.884,21.625,52.884Z"/><path class="cls-22" d="M41.428,35.667c-1.134.438,3.534,2.554,7.26.284C50.756,34.691,43.151,35,41.428,35.667Z"/><path class="cls-23" d="M42.182,36.319s2.255,1.622,5.7.036a13.774,13.774,0,0,0,2.889-4.064c1.443-3.341,1.441-7.343-5.246-4.75-1.553.6-2.17-1.758-3.989-.516C37.54,29.751,42.182,36.319,42.182,36.319Z"/><path class="cls-24" d="M48.635,29.093c-2.06,4.275.7,2.539,1.231,1.649C50.689,29.36,49.89,26.488,48.635,29.093Z"/><path class="cls-25" d="M40.918,27.541a13.317,13.317,0,0,0,1.237,8.741s-2.335-4.264-2.267-5.723C39.995,28.258,40.918,27.541,40.918,27.541Z"/><path class="cls-26" d="M63.51,55.43a56.34,56.34,0,0,1-6.687,1.476l.651,4.4s4.332-.684,6.43-1.14Z"/><path class="cls-27" d="M36.671,57.734s17.391,1.347,31.454-4.079C68.125,53.655,55.214,60.405,36.671,57.734Z"/><path class="cls-28" d="M27.524,60.824a26.689,26.689,0,0,1,4.35-3.9l8.014-1.3A63.739,63.739,0,0,1,26.7,53.079l.148-1.94s-4.665,1.1-5.222,1.745c0,0-.854,4.06,0,6.288Z"/><path class="cls-24" d="M52.317,37.319c-1.526-.078.537,2.407,1.432,2.069S53.2,37.365,52.317,37.319Z"/><path class="cls-29" d="M57.816,41.238c0,2.806-2.707,5.081-6.045,5.081s-6.045-2.275-6.045-5.081,2.707-5.082,6.045-5.082S57.816,38.431,57.816,41.238Z"/><path class="cls-30" d="M53.026,30.927c0,2.878-1.784,5.212-3.985,5.212s-3.984-2.334-3.984-5.212,1.784-5.212,3.984-5.212S53.026,28.048,53.026,30.927Z"/><circle class="cls-31" cx="36.061" cy="37.317" r="5.212"/><path class="cls-32" d="M31.914,39.878l.53,1.388.517,1.392c.342.929.694,1.855,1.028,2.787l2,5.592-.251-.212c1.51.206,3.049.334,4.58.409s3.068.1,4.6.051c.765-.026,1.53-.067,2.292-.129s1.521-.155,2.276-.267,1.5-.254,2.246-.427,1.47-.39,2.186-.641l-.188.184c.382-.938.747-1.893,1.095-2.85s.678-1.923.992-2.893.62-1.943.9-2.925c.132-.492.271-.983.387-1.48s.238-.993.351-1.492l.042.007c-.175,1.008-.39,2.009-.634,3s-.52,1.978-.815,2.957-.609,1.952-.939,2.92-.676,1.93-1.045,2.884l-.006.014-.014.005a22.585,22.585,0,0,1-2.218.676c-.752.183-1.512.331-2.275.455s-1.532.209-2.3.28-1.542.112-2.315.139q-2.318.068-4.635-.07c-1.543-.092-3.083-.234-4.613-.463l-.019,0-.007-.019L31.874,39.891Z"/><path class="cls-33" d="M40.518,36.469c1.372,1.331,7.361.848,7.361.848s-4.249,1.216-5.989.483S40.518,36.469,40.518,36.469Z"/><path class="cls-34" d="M35.684,51.171s11.61,1.589,18.378-1.036a20.024,20.024,0,0,1-8.914,1.942A67.447,67.447,0,0,1,35.684,51.171Z"/><path class="cls-35" d="M37.753,55.4,39.888,53.2l10.058-.313,1.825,2.387S44.087,56.479,37.753,55.4Z"/><polygon class="cls-36" points="38.365 55.5 39.888 53.494 49.755 53.232 50.579 55.43 51.771 55.271 49.946 52.884 39.888 53.197 37.753 55.404 38.365 55.5"/><polygon class="cls-37" points="38.529 54.602 38.681 55.084 40.483 53.827 49.405 53.827 50.335 54.777 50.768 53.96 49.946 52.884 39.888 53.197 38.529 54.602"/><path class="cls-38" d="M35.684,69.4s-4.543,4.794-6.293,4.2c-.876-.3-.341-1.819.541-3.359h0a15.045,15.045,0,0,1,2.608-3.463c.883-.651,2.682.8,3.079,2.006A1.286,1.286,0,0,1,35.684,69.4Z"/><path class="cls-39" d="M44.107,68.271a20.953,20.953,0,0,0-3.984,2.016s2.933.163,4.866.148Z"/><path class="cls-40" d="M43.317,68.767c-.84,2.2.77,7.244,2.2,7.244,1.891,0,3.044-6.894,2.1-7.419S43.649,67.9,43.317,68.767Z"/><path class="cls-41" d="M35.619,68.779c-2.2-1.027-5.687,1.458-5.687,1.458h0a15.045,15.045,0,0,1,2.608-3.463C33.423,66.122,35.222,67.568,35.619,68.779Z"/><path class="cls-42" d="M53.46,69.4S58,74.191,59.753,73.6c.876-.3.341-1.819-.541-3.359h0A15.016,15.016,0,0,0,56.6,66.773c-.883-.651-2.682.8-3.079,2.006A1.3,1.3,0,0,0,53.46,69.4Z"/><path class="cls-43" d="M57.112,67.267a4.711,4.711,0,0,0-.508-.494c-.131-.078-1.422-1.1-6.642,3.477,0,0,2.515-.36,3.938-.405.045,0,.217.252.915.878,0,0-.31-2.336.451-3.2A1.527,1.527,0,0,1,57.112,67.267Z"/><path class="cls-44" d="M26.316.428,26.7,5.576C24.69,28.7,25.4,42.6,24.846,53.105l-.7.879S19.758,39.946,21.278,25A111.412,111.412,0,0,1,26.316.428Z"/><path class="cls-45" d="M24.822,60.179l1.519.381-.029,2.329s-12.036,2.458,1.212,10.758H26.341L13.17,66.611Z"/><path class="cls-46" d="M26.341,73.647A32.04,32.04,0,0,1,7.177,63.508,34.02,34.02,0,0,1,0,51.542C2.624,32.086,27.292-3.556,26.313.747c-5.538,24.321-2.17,53.238-2.17,53.238L21.625,53.5v5.675l3.2,1.007.578,2.264C12.76,65.527,26.341,73.647,26.341,73.647Z"/><path class="cls-47" d="M2.8,46.811c-.88,8.411,5.285.93,5.634-2.867S3.276,42.3,2.8,46.811Z"/><path class="cls-48" d="M9.259,34.518c-1.363,3.491,1.574,5.669,2.834,2.017S10.833,30.486,9.259,34.518Z"/><path class="cls-49" d="M10.67,43.622c-1.387,2.464.688,4.032,1.764,2.089S12.081,41.114,10.67,43.622Z"/><path class="cls-50" d="M24.69,9.6c-4.343,16.117-1.251,35.337-1.251,35.337a197.878,197.878,0,0,1,.147-21.184C24.331,15.038,24.69,9.6,24.69,9.6Z"/><path class="cls-51" d="M63.737.037l-.383,5.149c2.009,23.123,1.3,37.023,1.853,47.529l.7.879S70.3,39.556,68.774,24.609A111.452,111.452,0,0,0,63.737.037Z"/><path class="cls-52" d="M65.231,59.789l-1.519.38.028,2.33s12.037,2.458-1.212,10.758h1.184l13.17-7.036Z"/><path class="cls-53" d="M63.712,73.257A32.043,32.043,0,0,0,82.876,63.118a34.026,34.026,0,0,0,7.176-11.966C87.428,31.7,62.76-3.947,63.74.357c5.537,24.32,2.17,53.237,2.17,53.237l2.518-.487v5.675l-3.2,1.006-.578,2.265C77.292,65.137,63.712,73.257,63.712,73.257Z"/><path class="cls-54" d="M87.249,46.421c.88,8.41-5.284.93-5.634-2.867S86.777,41.907,87.249,46.421Z"/><path class="cls-55" d="M80.794,34.128c1.363,3.49-1.575,5.669-2.834,2.017S79.219,30.1,80.794,34.128Z"/><path class="cls-56" d="M79.383,43.231c1.386,2.465-.689,4.033-1.764,2.09S77.971,40.723,79.383,43.231Z"/><path class="cls-57" d="M65.363,9.208c4.342,16.116,1.25,35.337,1.25,35.337a197.9,197.9,0,0,0-.147-21.185C65.721,14.648,65.363,9.208,65.363,9.208Z"/><path class="cls-58" d="M27.524,73.647c-6.279,0-16.015-4.975-20.347-10.139L21.625,53.5v5.675l4.716,1.388-.029,2.329C14.319,65.977,27.524,73.647,27.524,73.647Z"/><path class="cls-59" d="M68.428,53.107,82.876,63.118s-6.455,8.855-20.348,10.139c0,0,5.772-3.265,6.216-6.635.376-2.855-5-4.123-5-4.123l-.028-2.33,4.716-1.387V53.107Z"/></g></g></g></g></svg>