<svg xmlns="http://www.w3.org/2000/svg" xmlns:xlink="http://www.w3.org/1999/xlink" viewBox="0 0 112.207 140.746"><defs><style>.cls-1{isolation:isolate;}.cls-10,.cls-11,.cls-12,.cls-13,.cls-2,.cls-29,.cls-3,.cls-30,.cls-31,.cls-32,.cls-33,.cls-4{opacity:0.6;}.cls-10,.cls-11,.cls-12,.cls-13,.cls-2,.cls-29,.cls-3,.cls-30,.cls-31,.cls-32,.cls-33,.cls-4,.cls-40,.cls-5,.cls-6,.cls-62,.cls-64,.cls-66,.cls-7,.cls-75,.cls-76,.cls-77,.cls-78,.cls-79,.cls-8,.cls-82,.cls-83,.cls-84,.cls-85,.cls-86,.cls-87,.cls-9{mix-blend-mode:screen;}.cls-2{fill:url(#linear-gradient);}.cls-3{fill:url(#linear-gradient-2);}.cls-4{fill:url(#linear-gradient-3);}.cls-5{fill:url(#radial-gradient);}.cls-6{fill:url(#radial-gradient-2);}.cls-7{fill:url(#radial-gradient-3);}.cls-8{fill:url(#radial-gradient-4);}.cls-9{fill:url(#radial-gradient-5);}.cls-10{fill:url(#linear-gradient-4);}.cls-11{fill:url(#linear-gradient-5);}.cls-12{fill:url(#linear-gradient-6);}.cls-13{fill:url(#linear-gradient-7);}.cls-14,.cls-15,.cls-16,.cls-17,.cls-18,.cls-19,.cls-20,.cls-21,.cls-22,.cls-23,.cls-24,.cls-25,.cls-26,.cls-27,.cls-28{mix-blend-mode:color-dodge;}.cls-14{fill:url(#radial-gradient-6);}.cls-15{fill:url(#radial-gradient-7);}.cls-16{fill:url(#radial-gradient-8);}.cls-17{fill:url(#radial-gradient-9);}.cls-18{fill:url(#radial-gradient-10);}.cls-19{fill:url(#radial-gradient-11);}.cls-20{fill:url(#radial-gradient-12);}.cls-21{fill:url(#radial-gradient-13);}.cls-22{fill:url(#radial-gradient-14);}.cls-23{fill:url(#radial-gradient-15);}.cls-24{fill:url(#radial-gradient-16);}.cls-25{fill:url(#radial-gradient-17);}.cls-26{fill:url(#radial-gradient-18);}.cls-27{fill:url(#radial-gradient-19);}.cls-28{fill:url(#radial-gradient-20);}.cls-29{fill:url(#linear-gradient-8);}.cls-30{fill:url(#linear-gradient-9);}.cls-31{fill:url(#linear-gradient-10);}.cls-32{fill:url(#linear-gradient-11);}.cls-33{fill:url(#linear-gradient-12);}.cls-34,.cls-35,.cls-36,.cls-37,.cls-38,.cls-39,.cls-40,.cls-41,.cls-42,.cls-43,.cls-44,.cls-45,.cls-46,.cls-47,.cls-48,.cls-49,.cls-50,.cls-51,.cls-52,.cls-53,.cls-54,.cls-55,.cls-56,.cls-57,.cls-58,.cls-59,.cls-60,.cls-61,.cls-62,.cls-63,.cls-64,.cls-65,.cls-66,.cls-67,.cls-68,.cls-69,.cls-70,.cls-71,.cls-72,.cls-73,.cls-74,.cls-75,.cls-76,.cls-78,.cls-80,.cls-81,.cls-82,.cls-83,.cls-84,.cls-85,.cls-87{fill-rule:evenodd;}.cls-34{fill:url(#_10);}.cls-35{fill:url(#_162);}.cls-36{fill:url(#_91);}.cls-37{fill:url(#_161);}.cls-38{fill:url(#_43);}.cls-39{fill:url(#_43-2);}.cls-40,.cls-82,.cls-83{opacity:0.2;}.cls-40{fill:url(#_80);}.cls-41{fill:url(#_142);}.cls-42{fill:url(#_142-2);}.cls-43{fill:url(#_10-2);}.cls-44,.cls-45,.cls-46,.cls-51,.cls-56,.cls-61,.cls-63,.cls-69,.cls-73,.cls-81{mix-blend-mode:multiply;}.cls-44{fill:url(#_214);}.cls-45{fill:url(#_214-2);}.cls-46{fill:url(#_214-3);}.cls-47{fill:url(#_91-2);}.cls-48{fill:url(#_423);}.cls-49{fill:url(#_220);}.cls-50{fill:url(#_10-3);}.cls-51{fill:url(#_9);}.cls-52{fill:url(#_91-3);}.cls-53{fill:url(#_423-2);}.cls-54{fill:url(#_220-2);}.cls-55{fill:url(#_10-4);}.cls-56{fill:url(#_9-2);}.cls-57{fill:url(#_91-4);}.cls-58{fill:url(#_423-3);}.cls-59{fill:url(#_220-3);}.cls-60{fill:url(#_10-5);}.cls-61{fill:url(#_9-3);}.cls-62,.cls-84,.cls-87{opacity:0.56;}.cls-62{fill:url(#_494);}.cls-63{fill:#ddcce0;opacity:0.71;}.cls-64,.cls-66,.cls-85{opacity:0.5;}.cls-64{fill:url(#_213);}.cls-65{fill:url(#_494-2);}.cls-66{fill:url(#_494-3);}.cls-67{fill:url(#_11);}.cls-68{fill:url(#_43-3);}.cls-69{opacity:0.73;fill:url(#_4);}.cls-70{fill:url(#_10-6);}.cls-71{fill:url(#_11-2);}.cls-72{fill:url(#_43-4);}.cls-73{fill:url(#_214-4);}.cls-74{fill:url(#_10-7);}.cls-75{fill:url(#linear-gradient-13);}.cls-76{fill:url(#linear-gradient-14);}.cls-77{fill:url(#radial-gradient-21);}.cls-78{fill:url(#radial-gradient-22);}.cls-79{fill:url(#radial-gradient-23);}.cls-80{fill:#fff;}.cls-81{fill:url(#_9-4);}.cls-82{fill:url(#_80-2);}.cls-83{fill:url(#_80-3);}.cls-84{fill:url(#_494-4);}.cls-85{fill:url(#_494-5);}.cls-86{fill:url(#radial-gradient-24);}.cls-87{fill:url(#_494-6);}</style><linearGradient id="linear-gradient" x1="57.722" y1="47.758" x2="57.722" y2="132.995" gradientUnits="userSpaceOnUse"><stop offset="0" stop-color="#067fff"/><stop offset="0.173" stop-color="#0562c5" stop-opacity="0.772"/><stop offset="0.399" stop-color="#034080" stop-opacity="0.501"/><stop offset="0.602" stop-color="#022449" stop-opacity="0.285"/><stop offset="0.777" stop-color="#011121" stop-opacity="0.13"/><stop offset="0.915" stop-color="#000409" stop-opacity="0.035"/><stop offset="1" stop-opacity="0"/></linearGradient><linearGradient id="linear-gradient-2" x1="36.587" y1="50.545" x2="36.587" y2="131.448" xlink:href="#linear-gradient"/><linearGradient id="linear-gradient-3" x1="80.179" y1="50.545" x2="80.179" y2="131.448" xlink:href="#linear-gradient"/><radialGradient id="radial-gradient" cx="56.104" cy="15162.689" r="30.636" gradientTransform="translate(0 -1710.591) scale(1 0.121)" gradientUnits="userSpaceOnUse"><stop offset="0" stop-color="#067fff"/><stop offset="0.122" stop-color="#0562c4" stop-opacity="0.77"/><stop offset="0.246" stop-color="#034891" stop-opacity="0.568"/><stop offset="0.372" stop-color="#023264" stop-opacity="0.394"/><stop offset="0.497" stop-color="#022040" stop-opacity="0.252"/><stop offset="0.623" stop-color="#011224" stop-opacity="0.141"/><stop offset="0.749" stop-color="#000810" stop-opacity="0.063"/><stop offset="0.874" stop-color="#000204" stop-opacity="0.016"/><stop offset="1" stop-opacity="0"/></radialGradient><radialGradient id="radial-gradient-2" cx="56.104" cy="15162.689" r="49.973" xlink:href="#radial-gradient"/><radialGradient id="radial-gradient-3" cx="56.104" cy="15162.689" r="56.096" gradientTransform="translate(0 -1710.591) scale(1 0.121)" gradientUnits="userSpaceOnUse"><stop offset="0.448" stop-color="#067fff"/><stop offset="0.516" stop-color="#0562c4" stop-opacity="0.77"/><stop offset="0.584" stop-color="#034891" stop-opacity="0.568"/><stop offset="0.653" stop-color="#023264" stop-opacity="0.394"/><stop offset="0.723" stop-color="#022040" stop-opacity="0.252"/><stop offset="0.792" stop-color="#011224" stop-opacity="0.141"/><stop offset="0.861" stop-color="#000810" stop-opacity="0.063"/><stop offset="0.931" stop-color="#000204" stop-opacity="0.016"/><stop offset="1" stop-opacity="0"/></radialGradient><radialGradient id="radial-gradient-4" cx="36.806" cy="15162.689" r="13.467" xlink:href="#radial-gradient"/><radialGradient id="radial-gradient-5" cx="80.179" cy="15162.689" r="13.467" xlink:href="#radial-gradient"/><linearGradient id="linear-gradient-4" x1="24.114" y1="131.916" x2="24.114" y2="54.184" xlink:href="#linear-gradient"/><linearGradient id="linear-gradient-5" x1="46.855" y1="131.916" x2="46.855" y2="54.183" xlink:href="#linear-gradient"/><linearGradient id="linear-gradient-6" x1="64.394" y1="131.916" x2="64.394" y2="54.183" xlink:href="#linear-gradient"/><linearGradient id="linear-gradient-7" x1="84.073" y1="131.916" x2="84.073" y2="54.184" xlink:href="#linear-gradient"/><radialGradient id="radial-gradient-6" cx="28.193" cy="2503.023" r="9.741" gradientTransform="translate(0 -1149.396) scale(1 0.511)" gradientUnits="userSpaceOnUse"><stop offset="0.357" stop-color="#067fff"/><stop offset="0.436" stop-color="#0562c4" stop-opacity="0.77"/><stop offset="0.515" stop-color="#034891" stop-opacity="0.568"/><stop offset="0.596" stop-color="#023264" stop-opacity="0.394"/><stop offset="0.677" stop-color="#022040" stop-opacity="0.252"/><stop offset="0.758" stop-color="#011224" stop-opacity="0.141"/><stop offset="0.838" stop-color="#000810" stop-opacity="0.063"/><stop offset="0.919" stop-color="#000204" stop-opacity="0.016"/><stop offset="1" stop-opacity="0"/></radialGradient><radialGradient id="radial-gradient-7" cx="45.291" cy="2504.513" r="9.741" xlink:href="#radial-gradient-6"/><radialGradient id="radial-gradient-8" cx="1403.817" cy="2503.023" r="9.741" gradientTransform="translate(-2639.482 -1149.396) scale(1.925 0.511)" xlink:href="#radial-gradient-6"/><radialGradient id="radial-gradient-9" cx="1220.641" cy="2503.92" r="9.741" gradientTransform="translate(-1999.409 -1149.396) scale(1.704 0.511)" xlink:href="#radial-gradient-6"/><radialGradient id="radial-gradient-10" cx="1513.278" cy="469.102" r="9.741" gradientTransform="translate(-3165.458 -309.183) scale(2.129 0.762)" xlink:href="#radial-gradient-6"/><radialGradient id="radial-gradient-11" cx="-1098.47" cy="2116.824" r="9.74" gradientTransform="translate(792.386 -1068.497) scale(0.691 0.529)" xlink:href="#radial-gradient-6"/><radialGradient id="radial-gradient-12" cx="-1034.353" cy="2116.824" r="9.74" gradientTransform="translate(792.386 -1068.497) scale(0.691 0.529)" xlink:href="#radial-gradient-6"/><radialGradient id="radial-gradient-13" cx="-3786.087" cy="-2273.839" r="9.741" gradientTransform="translate(1593.629 9747.409) scale(0.406 4.258)" xlink:href="#radial-gradient-6"/><radialGradient id="radial-gradient-14" cx="-3776.31" cy="-1826.559" r="9.741" gradientTransform="translate(1593.629 4634.333) scale(0.406 2.508)" xlink:href="#radial-gradient-6"/><radialGradient id="radial-gradient-15" cx="-5062.479" cy="-1966.688" r="9.741" gradientTransform="matrix(0.394, -0.098, 0.515, 2.064, 3071.625, 3681.126)" xlink:href="#radial-gradient-6"/><radialGradient id="radial-gradient-16" cx="-3776.188" cy="-1498.257" r="9.741" gradientTransform="translate(1593.629 3046.077) scale(0.406 1.952)" xlink:href="#radial-gradient-6"/><radialGradient id="radial-gradient-17" cx="-6062.825" cy="-2347.681" r="5.861" gradientTransform="matrix(0.352, -0.203, 0.975, 1.69, 4451.296, 2861.974)" xlink:href="#radial-gradient-6"/><radialGradient id="radial-gradient-18" cx="-2743.509" cy="-1622.774" r="5.861" gradientTransform="matrix(0.401, 0.065, -0.399, 2.476, 500.3, 4315.922)" xlink:href="#radial-gradient-6"/><radialGradient id="radial-gradient-19" cx="-891.032" cy="-1437.521" r="5.861" gradientTransform="matrix(0.377, 0.152, -0.939, 2.326, -930.987, 3600.364)" xlink:href="#radial-gradient-6"/><radialGradient id="radial-gradient-20" cx="-3798.483" cy="-1826.66" r="9.741" gradientTransform="translate(1593.629 4634.333) scale(0.406 2.508)" xlink:href="#radial-gradient-6"/><linearGradient id="linear-gradient-8" x1="36.779" y1="131.491" x2="36.779" y2="21.804" xlink:href="#linear-gradient"/><linearGradient id="linear-gradient-9" x1="48.099" y1="126.216" x2="48.099" y2="80.862" xlink:href="#linear-gradient"/><linearGradient id="linear-gradient-10" x1="69.431" y1="126.216" x2="69.431" y2="80.862" xlink:href="#linear-gradient"/><linearGradient id="linear-gradient-11" x1="77.993" y1="131.491" x2="77.993" y2="21.803" xlink:href="#linear-gradient"/><linearGradient id="linear-gradient-12" x1="28.437" y1="131.491" x2="28.437" y2="21.804" xlink:href="#linear-gradient"/><radialGradient id="_10" cx="-829.11" cy="1866.612" r="25.888" gradientTransform="translate(529.197 -1142.769) scale(0.57 0.636)" gradientUnits="userSpaceOnUse"><stop offset="0.006" stop-color="#60daff"/><stop offset="0.182" stop-color="#56d4ff"/><stop offset="0.479" stop-color="#3cc3ff"/><stop offset="0.857" stop-color="#12a8ff"/><stop offset="1" stop-color="#009cff"/></radialGradient><radialGradient id="_162" cx="67.876" cy="16.93" r="39.671" gradientUnits="userSpaceOnUse"><stop offset="0" stop-color="#ffd5bd"/><stop offset="0.103" stop-color="#f8d0bf"/><stop offset="0.253" stop-color="#e5c2c6"/><stop offset="0.43" stop-color="#c5abd2"/><stop offset="0.627" stop-color="#9a8ce1"/><stop offset="0.754" stop-color="#7a75ed"/><stop offset="0.975" stop-color="#7a82ed"/></radialGradient><radialGradient id="_91" cx="55.72" cy="28.861" r="24.158" gradientUnits="userSpaceOnUse"><stop offset="0.025" stop-color="#6a64b8"/><stop offset="0.939" stop-color="#5a4fbc"/></radialGradient><radialGradient id="_161" cx="68.55" cy="14.022" r="48.36" gradientUnits="userSpaceOnUse"><stop offset="0.006" stop-color="#dd5438"/><stop offset="0.214" stop-color="#da5139"/><stop offset="0.376" stop-color="#d0483d"/><stop offset="0.522" stop-color="#c03842"/><stop offset="0.659" stop-color="#a8224b"/><stop offset="0.789" stop-color="#8b0555"/><stop offset="0.81" stop-color="#850057"/><stop offset="1" stop-color="#b83145"/></radialGradient><linearGradient id="_43" x1="55.734" y1="-2.212" x2="55.734" y2="13.931" gradientUnits="userSpaceOnUse"><stop offset="0" stop-color="#590043"/><stop offset="0.06" stop-color="#5b0044"/><stop offset="0.468" stop-color="#650046"/><stop offset="0.994" stop-color="#680047"/></linearGradient><linearGradient id="_43-2" x1="11.446" y1="17.496" x2="100.023" y2="17.496" xlink:href="#_43"/><linearGradient id="_80" x1="54.574" y1="18.74" x2="54.574" y2="24.645" gradientUnits="userSpaceOnUse"><stop offset="0" stop-color="#623964"/><stop offset="1" stop-color="#fff"/></linearGradient><linearGradient id="_142" x1="22.161" y1="18.202" x2="49.627" y2="18.202" gradientUnits="userSpaceOnUse"><stop offset="0" stop-color="#720043"/><stop offset="0.058" stop-color="#740547"/><stop offset="0.322" stop-color="#7b1557"/><stop offset="0.616" stop-color="#801f60"/><stop offset="0.994" stop-color="#812263"/></linearGradient><linearGradient id="_142-2" x1="70.711" y1="12.477" x2="87.067" y2="12.477" xlink:href="#_142"/><radialGradient id="_10-2" cx="61.794" cy="10.473" r="30.768" gradientTransform="matrix(1, 0, 0, 1, 0, 0)" xlink:href="#_10"/><linearGradient id="_214" x1="24.835" y1="30.138" x2="36.806" y2="30.138" gradientUnits="userSpaceOnUse"><stop offset="0" stop-color="#e7e3f4"/><stop offset="0.073" stop-color="#dfd6ec"/><stop offset="0.372" stop-color="#c1a7cd"/><stop offset="0.637" stop-color="#ac85b7"/><stop offset="0.856" stop-color="#9f71a9"/><stop offset="1" stop-color="#9a69a4"/></linearGradient><linearGradient id="_214-2" x1="55.295" y1="29.365" x2="55.295" y2="37.16" xlink:href="#_214"/><linearGradient id="_214-3" x1="80.52" y1="26.526" x2="73.288" y2="37.054" xlink:href="#_214"/><radialGradient id="_91-2" cx="55.865" cy="31.783" r="6.215" xlink:href="#_91"/><radialGradient id="_423" cx="55.865" cy="32.235" r="6.215" gradientUnits="userSpaceOnUse"><stop offset="0" stop-color="#b1b5bd"/><stop offset="0.137" stop-color="#abaebd"/><stop offset="0.336" stop-color="#9b9bbf"/><stop offset="0.57" stop-color="#817cc0"/><stop offset="0.754" stop-color="#685ec2"/><stop offset="0.975" stop-color="#7a75d8"/></radialGradient><radialGradient id="_220" cx="55.72" cy="34.674" r="4.819" gradientUnits="userSpaceOnUse"><stop offset="0.025" stop-color="#1b95b8"/><stop offset="0.939" stop-color="#5a4fbc"/></radialGradient><radialGradient id="_10-3" cx="55.72" cy="153.788" r="3.822" gradientTransform="translate(0 -104.112) scale(1 0.889)" xlink:href="#_10"/><linearGradient id="_9" x1="55.554" y1="33.381" x2="55.554" y2="31.078" gradientUnits="userSpaceOnUse"><stop offset="0" stop-color="#e6e2f3"/><stop offset="0.068" stop-color="#dfd6eb"/><stop offset="0.369" stop-color="#c1a7cc"/><stop offset="0.635" stop-color="#ab85b6"/><stop offset="0.855" stop-color="#9e71a8"/><stop offset="1" stop-color="#9969a3"/></linearGradient><radialGradient id="_91-3" cx="80.212" cy="30.606" r="6.344" xlink:href="#_91"/><radialGradient id="_423-2" cx="80.066" cy="29.975" r="5.965" xlink:href="#_423"/><radialGradient id="_220-2" cx="80.25" cy="32.328" r="4.459" xlink:href="#_220"/><radialGradient id="_10-4" cx="79.643" cy="151.718" r="3.479" gradientTransform="translate(0 -104.112) scale(1 0.889)" xlink:href="#_10"/><linearGradient id="_9-2" x1="79.672" y1="32.096" x2="79.672" y2="29.608" xlink:href="#_9"/><radialGradient id="_91-4" cx="31.482" cy="28.557" r="6.159" xlink:href="#_91"/><radialGradient id="_423-3" cx="2653.228" cy="29.733" r="5.965" gradientTransform="matrix(-1, 0, 0, 1, 2683.979, 0)" xlink:href="#_423"/><radialGradient id="_220-3" cx="31.099" cy="32.845" r="4.459" xlink:href="#_220"/><radialGradient id="_10-5" cx="2652.854" cy="151.718" r="3.479" gradientTransform="matrix(-1, 0, 0, 0.889, 2683.979, -104.112)" xlink:href="#_10"/><linearGradient id="_9-3" x1="2652.873" y1="32.096" x2="2652.873" y2="29.608" gradientTransform="matrix(-1, 0, 0, 1, 2683.979, 0)" xlink:href="#_9"/><radialGradient id="_494" cx="57.646" cy="24.576" r="4.932" gradientUnits="userSpaceOnUse"><stop offset="0" stop-color="#fff"/><stop offset="1" stop-color="#623964"/></radialGradient><linearGradient id="_213" x1="68.87" y1="9.544" x2="73.615" y2="20.294" gradientUnits="userSpaceOnUse"><stop offset="0" stop-color="#fff"/><stop offset="1" stop-color="#660f0f"/></linearGradient><radialGradient id="_494-2" cx="13.367" cy="12.305" r="0.007" xlink:href="#_494"/><radialGradient id="_494-3" cx="47.186" cy="-5.071" r="25.54" xlink:href="#_494"/><linearGradient id="_11" x1="32.701" y1="42.849" x2="38.048" y2="42.849" gradientUnits="userSpaceOnUse"><stop offset="0" stop-color="#850057"/><stop offset="0.026" stop-color="#8b0555"/><stop offset="0.186" stop-color="#a8224b"/><stop offset="0.355" stop-color="#c03842"/><stop offset="0.536" stop-color="#d0483d"/><stop offset="0.736" stop-color="#da5139"/><stop offset="0.994" stop-color="#dd5438"/></linearGradient><linearGradient id="_43-3" x1="450.106" y1="164.958" x2="455.339" y2="164.958" gradientTransform="translate(-392.63 -174.878) rotate(7.62)" xlink:href="#_43"/><linearGradient id="_4" x1="456.436" y1="158.797" x2="449.959" y2="158.797" gradientTransform="translate(-392.63 -174.878) rotate(7.62)" gradientUnits="userSpaceOnUse"><stop offset="0" stop-color="#9969a3"/><stop offset="0.134" stop-color="#a175aa"/><stop offset="0.375" stop-color="#b795be"/><stop offset="0.694" stop-color="#d9c8dd"/><stop offset="1" stop-color="#fff"/></linearGradient><radialGradient id="_10-6" cx="819.483" cy="2300.202" r="5.508" gradientTransform="matrix(0.798, 0.214, -0.158, 0.588, -256.015, -1479.172)" xlink:href="#_10"/><linearGradient id="_11-2" x1="73.125" y1="42.849" x2="79.523" y2="42.849" xlink:href="#_11"/><linearGradient id="_43-4" x1="2594.926" y1="-121.97" x2="2600.158" y2="-121.97" gradientTransform="matrix(-0.991, 0.133, 0.133, 0.991, 2668.253, -174.878)" xlink:href="#_43"/><linearGradient id="_214-4" x1="76.491" y1="42.645" x2="64.289" y2="42.645" xlink:href="#_214"/><radialGradient id="_10-7" cx="3350.419" cy="1379.157" r="5.508" gradientTransform="matrix(-0.798, 0.214, 0.158, 0.588, 2531.638, -1479.172)" xlink:href="#_10"/><linearGradient id="linear-gradient-13" x1="34.539" y1="47.801" x2="32.088" y2="54.767" xlink:href="#linear-gradient"/><linearGradient id="linear-gradient-14" x1="2171.093" y1="47.801" x2="2168.642" y2="54.767" gradientTransform="matrix(-1, 0, 0, 1, 2248.185, 0)" xlink:href="#linear-gradient"/><radialGradient id="radial-gradient-21" cx="34.214" cy="49.296" r="3.634" xlink:href="#linear-gradient"/><radialGradient id="radial-gradient-22" cx="77.418" cy="48.887" r="3.634" xlink:href="#linear-gradient"/><radialGradient id="radial-gradient-23" cx="55.72" cy="1549.517" r="11.987" gradientTransform="translate(0 -991.202) scale(1 0.67)" xlink:href="#linear-gradient"/><linearGradient id="_9-4" x1="31.637" y1="9.608" x2="80.57" y2="9.608" xlink:href="#_9"/><linearGradient id="_80-2" x1="39.196" y1="12.949" x2="39.196" y2="16.332" xlink:href="#_80"/><linearGradient id="_80-3" x1="83.061" y1="4.695" x2="83.061" y2="12.268" xlink:href="#_80"/><radialGradient id="_494-4" cx="43.215" cy="29.787" r="5.426" xlink:href="#_494"/><radialGradient id="_494-5" cx="49.457" cy="5.355" r="9.653" xlink:href="#_494"/><radialGradient id="radial-gradient-24" cx="521.101" cy="8.083" r="6.311" gradientTransform="translate(-794.92) scale(1.646 1)" gradientUnits="userSpaceOnUse"><stop offset="0.006" stop-color="#98fffc"/><stop offset="0.066" stop-color="#8be9e6" stop-opacity="0.912"/><stop offset="0.267" stop-color="#61a3a1" stop-opacity="0.639"/><stop offset="0.457" stop-color="#3f6968" stop-opacity="0.411"/><stop offset="0.631" stop-color="#243c3b" stop-opacity="0.234"/><stop offset="0.785" stop-color="#101b1b" stop-opacity="0.106"/><stop offset="0.913" stop-color="#040707" stop-opacity="0.028"/><stop offset="1" stop-opacity="0"/></radialGradient><radialGradient id="_494-6" cx="67.007" cy="30.199" r="4.878" xlink:href="#_494"/></defs><title>ship-2</title><g class="cls-1"><g id="Layer_2" data-name="Layer 2"><g id="Spaceships"><g id="ship-2"><path class="cls-2" d="M43.733,43.983s9.9,38.031,0,88.054H71.71s-12.3-43.287-4-88.054Z"/><path class="cls-3" d="M32.253,47.148s2.728,54.971,0,83.391h8.669a713.34,713.34,0,0,1-4.756-83.578Z"/><path class="cls-4" d="M75.844,47.148s2.729,54.971,0,83.391h8.67a713.34,713.34,0,0,1-4.756-83.578Z"/><path class="cls-5" d="M86.744,130.16c0,2.053-13.718,3.718-30.64,3.718s-30.64-1.665-30.64-3.718,13.718-3.719,30.64-3.719S86.744,128.106,86.744,130.16Z"/><path class="cls-6" d="M106.083,130.16c0,3.35-22.376,6.066-49.979,6.066s-49.98-2.716-49.98-6.066,22.377-6.066,49.98-6.066S106.083,126.81,106.083,130.16Z"/><ellipse class="cls-7" cx="56.104" cy="130.16" rx="56.104" ry="6.809"/><ellipse class="cls-8" cx="36.806" cy="130.16" rx="13.469" ry="1.635"/><ellipse class="cls-9" cx="80.179" cy="130.16" rx="13.469" ry="1.635"/><path class="cls-10" d="M27.017,130.539c-24.011-25.181-1.758-36.7.788-48.889a175.3,175.3,0,0,0,2.951-26.359s1.112,22.868-3.982,36.485,5.479,38.763,5.479,38.763Z"/><path class="cls-11" d="M43.024,130.16H47.39s4.679-25.651,2.885-46.024A229.23,229.23,0,0,0,43.733,46.82a193.247,193.247,0,0,1,4.394,41.93A177.407,177.407,0,0,1,43.024,130.16Z"/><path class="cls-12" d="M57.091,130.539H72.613s-9.131-34.761-8.857-56.347,1.1-26.56,1.1-26.56-5.7,28.258-7.761,47.418A170.835,170.835,0,0,0,57.091,130.539Z"/><path class="cls-13" d="M75.844,130.539h8.67A48.3,48.3,0,0,0,91.9,110.354c2.789-21.2-9.67-33.494-11.02-44.044,0,0,5.329,16.151,7.624,29.468C90.4,106.79,75.844,130.539,75.844,130.539Z"/><ellipse class="cls-14" cx="28.193" cy="129.399" rx="9.741" ry="4.977"/><path class="cls-15" d="M55.032,130.16c0,2.748-4.361,4.976-9.741,4.976s-9.741-2.228-9.741-4.976,4.362-4.977,9.741-4.977S55.032,127.411,55.032,130.16Z"/><ellipse class="cls-16" cx="62.305" cy="129.399" rx="18.748" ry="4.977"/><path class="cls-17" d="M97.655,129.857c0,2.748-7.433,4.976-16.6,4.976s-16.6-2.228-16.6-4.976,7.434-4.977,16.6-4.977S97.655,127.108,97.655,129.857Z"/><ellipse class="cls-18" cx="55.554" cy="48.085" rx="20.734" ry="7.419"/><path class="cls-19" d="M40.4,50.457c0,2.843-3.012,5.149-6.727,5.149s-6.728-2.306-6.728-5.149,3.012-5.149,6.728-5.149S40.4,47.613,40.4,50.457Z"/><path class="cls-20" d="M84.686,50.457c0,2.843-3.012,5.149-6.728,5.149S71.23,53.3,71.23,50.457s3.013-5.149,6.728-5.149S84.686,47.613,84.686,50.457Z"/><ellipse class="cls-21" cx="55.72" cy="66.31" rx="3.957" ry="41.473"/><path class="cls-22" d="M63.648,52.774c0,13.494-1.771,24.434-3.956,24.434s-3.957-10.94-3.957-24.434S57.506,28.34,59.692,28.34,63.648,39.28,63.648,52.774Z"/><path class="cls-23" d="M67.1,119.662c2.771,11.1,3.3,20.531,1.179,21.06s-6.086-8.041-8.858-19.144-3.3-20.531-1.179-21.061S64.332,108.559,67.1,119.662Z"/><ellipse class="cls-24" cx="59.741" cy="121.03" rx="3.957" ry="19.017"/><path class="cls-25" d="M30.528,125.736c3.157,5.469,4.793,10.435,3.655,11.092s-4.622-3.242-7.779-8.711-4.794-10.436-3.655-11.093S27.37,120.267,30.528,125.736Z"/><path class="cls-26" d="M49.666,120.433c-1.291,8.016-3.39,14.345-4.688,14.135s-1.3-6.876-.013-14.893,3.39-14.344,4.688-14.135S50.957,112.416,49.666,120.433Z"/><path class="cls-27" d="M85.688,122.2c-3.04,7.529-6.493,13.233-7.712,12.74s.257-6.994,3.3-14.523,6.493-13.233,7.713-12.74S88.729,114.671,85.688,122.2Z"/><ellipse class="cls-28" cx="50.685" cy="52.522" rx="3.957" ry="24.434"/><path class="cls-29" d="M39.386,130.161H34.214s-5.088-5.892-6.021-19.41S38.3,91.9,41.812,81.954s0-20.988,0-20.988,4.413,7.406,3.479,14.924S28.472,96.627,29.564,108.632,39.386,130.161,39.386,130.161Z"/><path class="cls-30" d="M43.024,130.16h9.459s4.366-22.788,1.577-38.711S41.208,57.106,41.208,57.106s5.212,7.506,7.516,23.514S43.024,130.16,43.024,130.16Z"/><path class="cls-31" d="M69.7,129.4c.364.213,6.9,0,6.9,0s-7.627-11.6-7.748-35.766,2.376-37.48,2.376-37.48-8.2,18.282-8.925,34.9S69.7,129.4,69.7,129.4Z"/><path class="cls-32" d="M75.3,128.525c-6.386-15.951,9.636-55.118,9.992-62.638s-7.335-15.43-7.335-15.43A16.873,16.873,0,0,1,83.2,63.016c-.1,8.084-13.241,29.933-12.491,41.451s3.073,24.254,3.073,24.254Z"/><path class="cls-33" d="M37.934,129.4h5.623s-5.626-15.081-9.344-22.464-18.231-17.048-17.322-27.9S31.077,52.774,31.077,52.774,12.212,67.854,13.369,79.936s17.921,21.63,22.181,33.136S37.934,129.4,37.934,129.4Z"/><path class="cls-34" d="M42.363,43.127c5.336,5.545,20.087,6.452,26.743,0Z"/><path class="cls-35" d="M100.023,11.024A171.1,171.1,0,0,1,85.261,29.878a103.145,103.145,0,0,1-7.744,7.7,56.728,56.728,0,0,1-7.311,5.568h0a49.634,49.634,0,0,1-28.939,0,61.856,61.856,0,0,1-9.314-7.4c-2.491-2.349-4.89-4.878-7.114-7.389A172.183,172.183,0,0,1,11.446,11.024l44.288,6.605Z"/><path class="cls-36" d="M55.72,32.221c-19.6-1.745-29.232-4.858-33.924-7.414l1.61,1.905a159.375,159.375,0,0,0,32.314,6.2,159.387,159.387,0,0,0,32.314-6.2l1.61-1.905C84.952,27.363,75.322,30.476,55.72,32.221Z"/><path class="cls-37" d="M100.023,11.024C81.563,23.968,55.734,23.968,55.734,23.968s-24.087,0-42.363-11.657h0l0,0c-.07-.043-.137-.088-.207-.132q-.865-.558-1.712-1.151S22.956,0,55.492,0c.7,0,1.38.006,2.056.014C89.121.457,100.023,11.024,100.023,11.024Z"/><path class="cls-38" d="M82.451,6.377c-.108.7-.764,1.379-1.878,2.015h0l-.01,0a13.019,13.019,0,0,1-1.85.859c-4.637,1.792-13.126,3.052-22.977,3.052-10.707,0-19.806-1.491-24.1-3.53-1.564-.742-2.488-1.556-2.622-2.4-.534-3.384,19.77-5.334,26.718-5.334S82.985,2.993,82.451,6.377Z"/><path class="cls-39" d="M11.446,11.024S27.5,23.242,55.734,23.242c26.548,0,44.289-12.218,44.289-12.218S82.8,23.968,55.494,23.968C27.1,23.968,11.446,11.024,11.446,11.024Z"/><path class="cls-40" d="M28.575,19.825a95.822,95.822,0,0,0,27.159,4.143,96.116,96.116,0,0,0,24.839-3.823s-9.62,4.662-25.078,4.662A75.809,75.809,0,0,1,28.575,19.825Z"/><path class="cls-41" d="M22.161,16.838s6.977-2.956,9.075-3.493l16.369,2.691,2.022,7.024h-.715a28.576,28.576,0,0,0-1.6-6.635,158.964,158.964,0,0,0-16.238-2.854,33.89,33.89,0,0,0-8.476,3.67Z"/><path class="cls-42" d="M75.215,21.092a28.3,28.3,0,0,0-4.5-6.126S84.442,11.325,86.64,7.045c.819-1.595-1.415-3.183-1.415-3.183l.407.125s1.878,1.292,1.337,2.876c-1,2.931-9.663,6.613-15.48,8.3,0,0,1.77,2.6,4.06,5.929Z"/><path class="cls-43" d="M80.57,8.392l-.008,0-1.852.86c-4.636,1.792-13.126,3.051-22.976,3.051-10.707,0-19.8-1.492-24.1-3.529a35.09,35.09,0,0,1,4.668-1.869c.008,0,.018-.006.025-.01a61.832,61.832,0,0,1,19.4-3.039A70.835,70.835,0,0,1,77,7.1C79.235,7.809,80.5,8.367,80.57,8.392Z"/><path class="cls-44" d="M34.994,34.836a5.817,5.817,0,0,1-3.045.906c-2.491-2.349-4.89-4.878-7.114-7.389,1.325-4.855,7.709-4.431,10.074-2.312C37.368,28.243,37.479,33.205,34.994,34.836Z"/><path class="cls-45" d="M50.189,28.611c-3.5,4.531-.032,9.929,5.04,10.353a6.165,6.165,0,0,0,6.542-7.089C61.287,27.815,54.1,23.548,50.189,28.611Z"/><path class="cls-46" d="M85.261,29.878a58.252,58.252,0,0,1-5.741,5.864c-6.11,2.177-11.454-2.624-5.264-10.244,4.224-5.2,10.7.961,10.991,3.012A5.95,5.95,0,0,1,85.261,29.878Z"/><path class="cls-47" d="M62.041,31.64c0,3.1-2.83,5.62-6.321,5.62S49.4,34.744,49.4,31.64s2.664-6.593,6.155-6.593S62.041,28.536,62.041,31.64Z"/><path class="cls-48" d="M62.041,32.092c0,3.1-2.83,5.62-6.321,5.62S49.4,35.2,49.4,32.092,52.063,25.5,55.554,25.5,62.041,28.988,62.041,32.092Z"/><path class="cls-49" d="M60.892,32.381c0,2.539-2.229,4.278-5.085,4.278s-5.259-1.739-5.259-4.278a5.208,5.208,0,0,1,10.344,0Z"/><path class="cls-50" d="M59.405,32.381a3.686,3.686,0,1,1-7.37,0,3.711,3.711,0,0,1,7.37,0Z"/><path class="cls-51" d="M50.548,32.092l1.6,1.084s.953-1.532,3.879-1.532c2.975,0,3.365,1.034,3.365,1.034l1.2-1.85a5.2,5.2,0,0,0-4.869-3.045C51.887,27.623,50.278,31.031,50.548,32.092Z"/><path class="cls-52" d="M85.178,29.623c-.965,2.627-5.793,5-8.465,5.259a4.883,4.883,0,0,1-3.828-3.532c-1.1-4.226,2.928-8.978,6.758-8.9C84.4,22.549,86.34,26.459,85.178,29.623Z"/><path class="cls-53" d="M85.268,30.167a8.037,8.037,0,0,1-6.443,4.912c-2.713.259-4.943-1.341-4.943-3.965,0-3.18,3.085-7.857,7.046-8.1C84.8,22.775,86.431,27,85.268,30.167Z"/><path class="cls-54" d="M84.174,30.516a6.012,6.012,0,0,1-5.141,3.824c-2.278.214-4.17-.9-4.095-3.05.089-2.5,2.623-5.039,5.6-5.247C83.464,25.837,85.013,28.018,84.174,30.516Z"/><path class="cls-55" d="M82.876,30.625a5.064,5.064,0,0,1-3.841,3.344A2.533,2.533,0,0,1,76.3,31.176a4.328,4.328,0,0,1,3.947-3.584C82.244,27.442,83.389,28.885,82.876,30.625Z"/><path class="cls-56" d="M74.948,31.025l1.39.85a4.925,4.925,0,0,1,3.687-1.685c2.689-.22,2.759.7,2.759.7L84.4,29.057s0-3.095-3.858-3.014C76.547,26.126,74.936,30.272,74.948,31.025Z"/><path class="cls-57" d="M25.5,29.623c.965,2.627,6.654,4.686,9.326,4.942,0,0,2.541-.584,2.928-4.089a7.252,7.252,0,0,0-7.3-7.927A5.205,5.205,0,0,0,25.5,29.623Z"/><path class="cls-58" d="M25.5,30.167a8.037,8.037,0,0,0,6.443,4.912c2.713.259,4.944-1.341,4.944-3.965,0-3.18-3.085-7.857-7.047-8.1C25.966,22.775,24.337,27,25.5,30.167Z"/><path class="cls-59" d="M26.594,30.516a6.012,6.012,0,0,0,5.141,3.824c2.278.214,4.171-.9,4.095-3.05-.089-2.5-2.623-5.039-5.6-5.247C27.3,25.837,25.755,28.018,26.594,30.516Z"/><path class="cls-60" d="M27.892,30.625a5.064,5.064,0,0,0,3.841,3.344,2.533,2.533,0,0,0,2.738-2.793,4.328,4.328,0,0,0-3.947-3.584C28.524,27.442,27.38,28.885,27.892,30.625Z"/><path class="cls-61" d="M35.82,31.025l-1.389.85a4.929,4.929,0,0,0-3.688-1.685c-2.689-.22-2.758.7-2.758.7l-1.613-1.837s0-3.095,3.858-3.014C34.221,26.126,36.043,30.03,35.82,31.025Z"/><path class="cls-62" d="M59.132,27.185l-.581.981a6.6,6.6,0,0,0-5.278-.23l-.751-1.307a5.425,5.425,0,0,1,3.729-.969A3.445,3.445,0,0,1,59.132,27.185Z"/><path class="cls-63" d="M81.325,23.239l-.436,2.494s2.75.143,3.507,2.433l1.118-1.053A4.586,4.586,0,0,0,81.325,23.239Z"/><path class="cls-63" d="M50.852,34.366a6.749,6.749,0,0,0,6.028,2.293l.2.921s-4.565.88-6.9-2.772Z"/><path class="cls-63" d="M29.111,23.191l.169,2.663a3.7,3.7,0,0,0-3.075,3.583l-.927-.576a6.073,6.073,0,0,1,.782-3.814A5.4,5.4,0,0,1,29.111,23.191Z"/><path class="cls-64" d="M57.8,12.288c12.008,4.487,7.258,10.45,7.258,10.45s11.624-1.1,19.912-4.536a3.364,3.364,0,0,1-3.638-.689c-1.55-1.61-5.225-5.46-5.045-6.489s2.423-1.769,2.423-1.769a68.924,68.924,0,0,1-11.13,2.387C60.318,12.708,57.8,12.288,57.8,12.288Z"/><polygon class="cls-65" points="13.367 12.307 13.369 12.311 13.361 12.309 13.365 12.307 13.367 12.307"/><path class="cls-66" d="M57.548.014C28.507,1.654,23.5,5.316,19.062,7.572c-3.333,1.691-6.257,4.281-5.9,4.6q-.865-.558-1.712-1.151S22.956,0,55.492,0C56.187,0,56.872.006,57.548.014Z"/><path class="cls-67" d="M41.208,42.777s-4.156,6.3-4.418,6.511c-.181.011-.4.01-.636,0a11.181,11.181,0,0,1-4.518-.935,20.429,20.429,0,0,1,.335-7.087c.014-.1.034-.209.054-.316.269-1.426.625-2.952,1.058-4.5C33.083,36.453,39.063,35.407,41.208,42.777Z"/><path class="cls-68" d="M36.79,49.288c-.181.011-.4.01-.636,0a11.181,11.181,0,0,1-4.518-.935s.525-.553,3.026-.076C36.687,48.666,36.79,49.288,36.79,49.288Z"/><path class="cls-69" d="M41.208,42.778l-4.039,6.109c.975-2-1.874-8.008-5.2-7.62h-.005l.059-.314c.27-1.425.626-2.953,1.056-4.5C33.082,36.454,39.062,35.407,41.208,42.778Z"/><path class="cls-70" d="M36.59,49.107a10.643,10.643,0,0,1-2.348-.1,10.871,10.871,0,0,1-2.4-.678,7.777,7.777,0,0,1,2.51.007A7.519,7.519,0,0,1,36.59,49.107Z"/><path class="cls-71" d="M70.423,42.777s4.156,6.3,4.418,6.511c.181.011.4.01.636,0A11.181,11.181,0,0,0,80,48.355a20.429,20.429,0,0,0-.335-7.087c-.014-.1-.034-.209-.054-.316-.27-1.426-.625-2.952-1.058-4.5C78.548,36.453,72.568,35.407,70.423,42.777Z"/><path class="cls-72" d="M74.841,49.288c.181.011.4.01.636,0A11.181,11.181,0,0,0,80,48.355s-.526-.553-3.026-.076C74.944,48.666,74.841,49.288,74.841,49.288Z"/><path class="cls-73" d="M79.605,40.952c-.27-1.425-.626-2.953-1.057-4.5A6.894,6.894,0,0,0,74.936,37c-8.468,1.859-11.18,7.718-11.18,7.718s4.563-.967,6.446-1.573l.381-.122,3.879,5.868c-.975-2,1.874-8.008,5.2-7.62h0Z"/><path class="cls-74" d="M75.041,49.107a10.643,10.643,0,0,0,2.348-.1,10.871,10.871,0,0,0,2.4-.678,7.777,7.777,0,0,0-2.51.007A7.519,7.519,0,0,0,75.041,49.107Z"/><path class="cls-75" d="M31.839,48.329s-2.154,8.69-.387,8.884c2.4.263,5.138-8.106,5.138-8.106Z"/><path class="cls-76" d="M79.792,48.329s2.154,8.69.387,8.884c-2.4.263-5.138-8.106-5.138-8.106Z"/><circle class="cls-77" cx="34.214" cy="49.296" r="3.634"/><path class="cls-78" d="M81.052,48.887a3.634,3.634,0,1,1-3.634-3.634A3.634,3.634,0,0,1,81.052,48.887Z"/><ellipse class="cls-79" cx="55.72" cy="46.82" rx="11.987" ry="8.03"/><path class="cls-80" d="M63.111,24.423c5.477,3.238,8.439-.825,7.6-1.363S62.36,23.979,63.111,24.423Z"/><path class="cls-81" d="M80.57,8.392l-.008,0-1.852.86c-4.636,1.792-13.126,3.051-22.976,3.051-10.707,0-19.8-1.492-24.1-3.529a35.09,35.09,0,0,1,4.668-1.869c-2.293.832-2.711,1.737-1.423,2.347s17.7,4.058,30.8,1.768S78.048,8.129,77,7.1C79.235,7.809,80.5,8.367,80.57,8.392Z"/><path class="cls-82" d="M47.315,16.425s-12.81-2.669-16.238-2.854A120.764,120.764,0,0,0,47.315,16.425Z"/><path class="cls-83" d="M87.055,6.087c.25,1.875-3.282,4.319-8.166,6.39,0,0,6.228-2.005,7.706-4.063C87.676,6.909,87.055,6.087,87.055,6.087Z"/><path class="cls-84" d="M38.027,30.35a19.044,19.044,0,0,0,10.355,1.774A95.984,95.984,0,0,1,38.027,30.35Z"/><path class="cls-80" d="M61.287,7.284c-1.273.617,2.566,2.64,3.437,2S64.482,5.735,61.287,7.284Z"/><path class="cls-85" d="M63.02,4.231c-10.013,0-27.126,2.678-27.126,2.678A81.161,81.161,0,0,1,50.185,4.1,54.535,54.535,0,0,1,63.02,4.231Z"/><ellipse class="cls-86" cx="63.02" cy="8.083" rx="10.39" ry="6.311"/><path class="cls-80" d="M64.87,12c3.389,1.776,6.2-.613,5.391-.645S64.87,12,64.87,12Z"/><path class="cls-87" d="M62.305,32.221s7.3-1.052,9.4-1.534a15.442,15.442,0,0,1-5.452,1.534A12.364,12.364,0,0,1,62.305,32.221Z"/></g></g></g></g></svg>