<svg xmlns="http://www.w3.org/2000/svg" xmlns:xlink="http://www.w3.org/1999/xlink" viewBox="0 0 115.408 152.651"><defs><style>.cls-1{isolation:isolate;}.cls-10,.cls-11,.cls-12,.cls-13,.cls-14,.cls-18,.cls-19,.cls-2,.cls-20,.cls-21,.cls-22,.cls-23,.cls-25,.cls-27,.cls-28,.cls-29,.cls-3,.cls-30,.cls-31,.cls-32,.cls-33,.cls-34,.cls-35,.cls-36,.cls-37,.cls-38,.cls-39,.cls-4,.cls-40,.cls-41,.cls-43,.cls-44,.cls-45,.cls-46,.cls-47,.cls-48,.cls-49,.cls-5,.cls-50,.cls-51,.cls-52,.cls-53,.cls-54,.cls-55,.cls-56,.cls-57,.cls-58,.cls-59,.cls-6,.cls-60,.cls-61,.cls-62,.cls-63,.cls-64,.cls-65,.cls-66,.cls-67,.cls-68,.cls-69,.cls-7,.cls-70,.cls-71,.cls-72,.cls-73,.cls-74,.cls-75,.cls-77,.cls-79,.cls-8,.cls-80,.cls-83,.cls-84,.cls-9{fill-rule:evenodd;}.cls-10,.cls-2,.cls-28{opacity:0.2;}.cls-10,.cls-11,.cls-12,.cls-13,.cls-14,.cls-15,.cls-16,.cls-18,.cls-19,.cls-2,.cls-20,.cls-21,.cls-28,.cls-29,.cls-3,.cls-30,.cls-31,.cls-32,.cls-33,.cls-34,.cls-35,.cls-36,.cls-4,.cls-44,.cls-45,.cls-47,.cls-5,.cls-6,.cls-62,.cls-63,.cls-64,.cls-68,.cls-69,.cls-7,.cls-70,.cls-71,.cls-72,.cls-73,.cls-74,.cls-76,.cls-77,.cls-78,.cls-8,.cls-9{mix-blend-mode:screen;}.cls-2{fill:url(#linear-gradient);}.cls-11,.cls-12,.cls-13,.cls-14,.cls-29,.cls-3,.cls-30,.cls-31,.cls-32,.cls-33,.cls-34,.cls-35,.cls-36,.cls-4,.cls-5,.cls-6,.cls-7,.cls-8,.cls-9{opacity:0.1;}.cls-3{fill:url(#_341);}.cls-4{fill:url(#_341-2);}.cls-5{fill:url(#_341-3);}.cls-6{fill:url(#_341-4);}.cls-7{fill:url(#_341-5);}.cls-8{fill:url(#_341-6);}.cls-9{fill:url(#_341-7);}.cls-10{fill:url(#linear-gradient-2);}.cls-11{fill:url(#_341-8);}.cls-12{fill:url(#_341-9);}.cls-13{fill:url(#_341-10);}.cls-14{fill:url(#_341-11);}.cls-15{fill:url(#radial-gradient);}.cls-16{fill:url(#radial-gradient-2);}.cls-17,.cls-22,.cls-23,.cls-24,.cls-25,.cls-26,.cls-27{mix-blend-mode:color-dodge;}.cls-17{fill:url(#radial-gradient-3);}.cls-18{fill:url(#linear-gradient-3);}.cls-19{fill:url(#linear-gradient-4);}.cls-20{fill:url(#linear-gradient-5);}.cls-21{fill:url(#linear-gradient-6);}.cls-22{fill:url(#radial-gradient-4);}.cls-23{fill:url(#radial-gradient-5);}.cls-24{fill:url(#radial-gradient-6);}.cls-25{fill:url(#radial-gradient-7);}.cls-26{fill:url(#radial-gradient-8);}.cls-27{fill:url(#radial-gradient-9);}.cls-28{fill:url(#linear-gradient-7);}.cls-29{fill:url(#_341-12);}.cls-30{fill:url(#_341-13);}.cls-31{fill:url(#_341-14);}.cls-32{fill:url(#_341-15);}.cls-33{fill:url(#_341-16);}.cls-34{fill:url(#_341-17);}.cls-35{fill:url(#_341-18);}.cls-36{fill:url(#_341-19);}.cls-37{fill:url(#_72);}.cls-38{fill:url(#_119);}.cls-39{fill:url(#_72-2);}.cls-40{fill:url(#_119-2);}.cls-41,.cls-46,.cls-49,.cls-54,.cls-57,.cls-58,.cls-59,.cls-60,.cls-61,.cls-65,.cls-66,.cls-67,.cls-79,.cls-81,.cls-83{mix-blend-mode:multiply;}.cls-41{fill:url(#_3);}.cls-42{fill:url(#_416);}.cls-43{fill:url(#_229);}.cls-44,.cls-45,.cls-62,.cls-63,.cls-64,.cls-68,.cls-69,.cls-70,.cls-71,.cls-72,.cls-77{opacity:0.5;}.cls-44{fill:url(#_494);}.cls-45{fill:url(#_494-2);}.cls-46{fill:url(#_3-2);}.cls-47,.cls-74{opacity:0.3;}.cls-47{fill:url(#_494-3);}.cls-48{fill:url(#_2);}.cls-49{fill:url(#_3-3);}.cls-50{fill:url(#_72-3);}.cls-51{fill:url(#_119-3);}.cls-52{fill:url(#_72-4);}.cls-53{fill:url(#_2-2);}.cls-54{fill:url(#_3-4);}.cls-55{fill:url(#_423);}.cls-56{fill:url(#_10);}.cls-57,.cls-58{opacity:0.71;}.cls-57{fill:url(#_4);}.cls-58{fill:url(#_4-2);}.cls-59{fill:url(#_3-5);}.cls-60{fill:url(#_3-6);}.cls-61{fill:url(#_3-7);}.cls-62{fill:url(#_494-4);}.cls-63{fill:url(#_494-5);}.cls-64{fill:url(#_494-6);}.cls-65{fill:url(#_3-8);}.cls-66{fill:url(#_3-9);}.cls-67{fill:url(#_3-10);}.cls-68{fill:url(#_494-7);}.cls-69{fill:url(#_494-8);}.cls-70{fill:url(#_494-9);}.cls-71{fill:url(#_494-10);}.cls-72{fill:url(#_494-11);}.cls-73{fill:url(#radial-gradient-10);}.cls-74,.cls-75{fill:#fff;}.cls-76{fill:url(#radial-gradient-11);}.cls-77{fill:url(#_494-12);}.cls-78{fill:url(#radial-gradient-12);}.cls-79{fill:url(#_3-11);}.cls-80{fill:url(#_2-3);}.cls-81{fill:url(#_3-12);}.cls-82{fill:url(#_2-4);}.cls-83{fill:url(#_3-13);}.cls-84{fill:url(#_2-5);}</style><linearGradient id="linear-gradient" x1="-4.067" y1="82.605" x2="127.308" y2="85.875" gradientUnits="userSpaceOnUse"><stop offset="0.006" stop-color="#f3a840"/><stop offset="0.03" stop-color="#eca33e" stop-opacity="0.971"/><stop offset="0.394" stop-color="#885e24" stop-opacity="0.56"/><stop offset="0.687" stop-color="#3f2b11" stop-opacity="0.259"/><stop offset="0.895" stop-color="#110c05" stop-opacity="0.072"/><stop offset="1" stop-opacity="0"/></linearGradient><radialGradient id="_341" cx="33.536" cy="99.407" r="7.316" gradientUnits="userSpaceOnUse"><stop offset="0" stop-color="#302e53"/><stop offset="0.191" stop-color="#383661"/><stop offset="1" stop-color="#595499"/></radialGradient><radialGradient id="_341-2" cx="36.835" cy="77.024" r="6.996" xlink:href="#_341"/><radialGradient id="_341-3" cx="44.781" cy="85.6" r="5.704" xlink:href="#_341"/><radialGradient id="_341-4" cx="50.476" cy="98.385" r="8.289" xlink:href="#_341"/><radialGradient id="_341-5" cx="39.555" cy="110.193" r="4.493" xlink:href="#_341"/><radialGradient id="_341-6" cx="49.821" cy="109.595" r="4.979" xlink:href="#_341"/><radialGradient id="_341-7" cx="34.063" cy="89.892" r="3.765" xlink:href="#_341"/><linearGradient id="linear-gradient-2" x1="69.346" y1="51.893" x2="69.346" y2="104.415" xlink:href="#linear-gradient"/><radialGradient id="_341-8" cx="73.623" cy="70.21" r="6.74" xlink:href="#_341"/><radialGradient id="_341-9" cx="62.103" cy="66.895" r="4.463" xlink:href="#_341"/><radialGradient id="_341-10" cx="65.039" cy="79.943" r="6.268" xlink:href="#_341"/><radialGradient id="_341-11" cx="71.654" cy="60.104" r="4.844" xlink:href="#_341"/><radialGradient id="radial-gradient" cx="1620.146" cy="14257.499" r="21.737" gradientTransform="translate(-4242.974 -1977.299) scale(2.655 0.149)" gradientUnits="userSpaceOnUse"><stop offset="0" stop-color="#dd5634"/><stop offset="0.034" stop-color="#cf5131" stop-opacity="0.937"/><stop offset="0.176" stop-color="#993b24" stop-opacity="0.691"/><stop offset="0.319" stop-color="#6a2919" stop-opacity="0.48"/><stop offset="0.461" stop-color="#441a10" stop-opacity="0.307"/><stop offset="0.601" stop-color="#260f09" stop-opacity="0.173"/><stop offset="0.739" stop-color="#110704" stop-opacity="0.077"/><stop offset="0.873" stop-color="#040201" stop-opacity="0.019"/><stop offset="1" stop-opacity="0"/></radialGradient><radialGradient id="radial-gradient-2" cx="1620.146" cy="3999.222" r="21.738" gradientTransform="translate(-4242.974 -1407.481) scale(2.655 0.388)" xlink:href="#radial-gradient"/><radialGradient id="radial-gradient-3" cx="1619.443" cy="2126.673" r="21.738" gradientTransform="translate(-4237.868 -1034.775) scale(2.653 0.553)" xlink:href="#radial-gradient"/><linearGradient id="linear-gradient-3" x1="56.173" y1="60.611" x2="56.173" y2="138.491" gradientUnits="userSpaceOnUse"><stop offset="0" stop-color="#dd5634"/><stop offset="0.064" stop-color="#af4429" stop-opacity="0.79"/><stop offset="0.132" stop-color="#863420" stop-opacity="0.606"/><stop offset="0.205" stop-color="#622617" stop-opacity="0.442"/><stop offset="0.285" stop-color="#431a10" stop-opacity="0.304"/><stop offset="0.371" stop-color="#2b110a" stop-opacity="0.193"/><stop offset="0.468" stop-color="#170906" stop-opacity="0.106"/><stop offset="0.581" stop-color="#0a0402" stop-opacity="0.046"/><stop offset="0.724" stop-color="#020101" stop-opacity="0.01"/><stop offset="1" stop-opacity="0"/></linearGradient><linearGradient id="linear-gradient-4" x1="-110.386" y1="-91.519" x2="-110.386" y2="-11.646" gradientTransform="matrix(0.998, -0.06, 0.06, 0.998, 160.822, 145.473)" gradientUnits="userSpaceOnUse"><stop offset="0" stop-color="#dd5634"/><stop offset="0.082" stop-color="#c54d2e" stop-opacity="0.891"/><stop offset="0.332" stop-color="#80321e" stop-opacity="0.577"/><stop offset="0.559" stop-color="#491c11" stop-opacity="0.329"/><stop offset="0.752" stop-color="#210d08" stop-opacity="0.15"/><stop offset="0.906" stop-color="#090302" stop-opacity="0.04"/><stop offset="1" stop-opacity="0"/></linearGradient><linearGradient id="linear-gradient-5" x1="277.555" y1="247.843" x2="277.555" y2="330.402" gradientTransform="translate(-190.82 -207.616) rotate(4.382)" xlink:href="#linear-gradient-4"/><linearGradient id="linear-gradient-6" x1="55.153" y1="60.296" x2="55.153" y2="126.703" gradientTransform="matrix(1, 0, 0, 1, 0, 0)" xlink:href="#linear-gradient-4"/><radialGradient id="radial-gradient-4" cx="-3051.096" cy="-1350.338" r="6.996" gradientTransform="matrix(0.439, 0.001, -0.006, 1.959, 1379.41, 2713.067)" xlink:href="#linear-gradient-4"/><radialGradient id="radial-gradient-5" cx="-1421.588" cy="-2047.479" r="6.996" gradientTransform="matrix(0.641, -0.018, 0.101, 3.592, 1173.408, 7404.648)" xlink:href="#linear-gradient-4"/><radialGradient id="radial-gradient-6" cx="-1428.235" cy="-2035.657" r="6.996" gradientTransform="matrix(0.642, 0, 0, 3.593, 968.265, 7433.277)" gradientUnits="userSpaceOnUse"><stop offset="0.429" stop-color="#dd5634"/><stop offset="0.475" stop-color="#c54d2e" stop-opacity="0.891"/><stop offset="0.618" stop-color="#80321e" stop-opacity="0.577"/><stop offset="0.748" stop-color="#491c11" stop-opacity="0.329"/><stop offset="0.858" stop-color="#210d08" stop-opacity="0.15"/><stop offset="0.946" stop-color="#090302" stop-opacity="0.04"/><stop offset="1" stop-opacity="0"/></radialGradient><radialGradient id="radial-gradient-7" cx="-1409.995" cy="-2041.883" r="6.996" gradientTransform="matrix(0.641, -0.018, 0.101, 3.592, 1173.408, 7404.648)" xlink:href="#radial-gradient-6"/><radialGradient id="radial-gradient-8" cx="-1429.485" cy="-2044.568" r="6.996" gradientTransform="matrix(0.642, 0, 0, 3.593, 967.363, 7433.312)" xlink:href="#radial-gradient-6"/><radialGradient id="radial-gradient-9" cx="-2501.115" cy="-2059.497" r="6.996" gradientTransform="matrix(0.516, -0.023, 0.161, 3.589, 1685.251, 7410.703)" xlink:href="#linear-gradient-4"/><linearGradient id="linear-gradient-7" x1="59.525" y1="161.465" x2="59.525" y2="86.336" xlink:href="#linear-gradient"/><radialGradient id="_341-12" cx="25.491" cy="127.024" r="6.234" xlink:href="#_341"/><radialGradient id="_341-13" cx="36.439" cy="130.316" r="7.559" xlink:href="#_341"/><radialGradient id="_341-14" cx="49.478" cy="125.071" r="7.209" xlink:href="#_341"/><radialGradient id="_341-15" cx="58.347" cy="134.111" r="7.168" xlink:href="#_341"/><radialGradient id="_341-16" cx="75.779" cy="117.743" r="12.148" xlink:href="#_341"/><radialGradient id="_341-17" cx="92.134" cy="121.907" r="6.144" xlink:href="#_341"/><radialGradient id="_341-18" cx="83.652" cy="131.12" r="4.442" xlink:href="#_341"/><radialGradient id="_341-19" cx="43.497" cy="137.632" r="3.568" xlink:href="#_341"/><radialGradient id="_72" cx="76.145" cy="19.272" r="32.49" gradientUnits="userSpaceOnUse"><stop offset="0" stop-color="#b0b4bc"/><stop offset="0.138" stop-color="#aaadbc"/><stop offset="0.338" stop-color="#9a9abe"/><stop offset="0.575" stop-color="#807bbf"/><stop offset="0.754" stop-color="#685ec1"/><stop offset="0.975" stop-color="#7a75d7"/></radialGradient><linearGradient id="_119" x1="71.755" y1="38.906" x2="77.095" y2="38.906" gradientUnits="userSpaceOnUse"><stop offset="0" stop-color="#5b58a3"/><stop offset="0.439" stop-color="#5f59a3"/><stop offset="0.848" stop-color="#6a5ca2"/><stop offset="0.994" stop-color="#705ea2"/></linearGradient><radialGradient id="_72-2" cx="22.818" cy="13.659" r="32.49" xlink:href="#_72"/><linearGradient id="_119-2" x1="32" y1="38.906" x2="37.34" y2="38.906" xlink:href="#_119"/><linearGradient id="_3" x1="36.551" y1="29.08" x2="30.596" y2="39.759" gradientUnits="userSpaceOnUse"><stop offset="0" stop-color="#b2a5da"/><stop offset="0.406" stop-color="#a585bd"/><stop offset="0.764" stop-color="#9c71aa"/><stop offset="1" stop-color="#9969a3"/></linearGradient><radialGradient id="_416" cx="58.252" cy="3.206" r="14.946" gradientUnits="userSpaceOnUse"><stop offset="0.006" stop-color="#fc0"/><stop offset="0.223" stop-color="#fec902"/><stop offset="0.408" stop-color="#fcbe08"/><stop offset="0.581" stop-color="#f8ad13"/><stop offset="0.748" stop-color="#f29422"/><stop offset="0.907" stop-color="#ea7435"/><stop offset="1" stop-color="#e55e42"/></radialGradient><radialGradient id="_229" cx="83.848" cy="31.86" r="40.073" gradientUnits="userSpaceOnUse"><stop offset="0.006" stop-color="#f9f"/><stop offset="0.093" stop-color="#fb93ff"/><stop offset="0.21" stop-color="#f182ff"/><stop offset="0.343" stop-color="#df67ff"/><stop offset="0.488" stop-color="#c740ff"/><stop offset="0.642" stop-color="#a80fff"/><stop offset="0.684" stop-color="#9e00ff"/><stop offset="0.831" stop-color="#9c00fd"/><stop offset="0.884" stop-color="#9600f6"/><stop offset="0.922" stop-color="#8c00eb"/><stop offset="0.952" stop-color="#7d00da"/><stop offset="0.978" stop-color="#6900c4"/><stop offset="1" stop-color="#5200aa"/></radialGradient><radialGradient id="_494" cx="65.597" cy="-1.231" r="26.374" gradientUnits="userSpaceOnUse"><stop offset="0" stop-color="#fff"/><stop offset="1" stop-color="#623964"/></radialGradient><radialGradient id="_494-2" cx="49.638" cy="29.753" r="4.418" xlink:href="#_494"/><linearGradient id="_3-2" x1="36.428" y1="29.373" x2="49.678" y2="29.373" xlink:href="#_3"/><radialGradient id="_494-3" cx="28.562" cy="32.213" r="6.668" xlink:href="#_494"/><linearGradient id="_2" x1="35.611" y1="22.988" x2="74.014" y2="22.988" gradientUnits="userSpaceOnUse"><stop offset="0" stop-color="#5b58a2"/><stop offset="0.439" stop-color="#5f59a2"/><stop offset="0.848" stop-color="#6a5ca1"/><stop offset="0.994" stop-color="#705ea1"/></linearGradient><linearGradient id="_3-3" x1="35.611" y1="23.26" x2="74.014" y2="23.26" xlink:href="#_3"/><radialGradient id="_72-3" cx="60.272" cy="21.351" r="17.096" xlink:href="#_72"/><linearGradient id="_119-3" x1="29.522" y1="58.313" x2="80.072" y2="58.313" xlink:href="#_119"/><radialGradient id="_72-4" cx="61.269" cy="26.585" r="29.819" xlink:href="#_72"/><linearGradient id="_2-2" x1="56.045" y1="32.574" x2="59.384" y2="32.574" xlink:href="#_2"/><linearGradient id="_3-4" x1="39.638" y1="34.485" x2="59.384" y2="34.485" xlink:href="#_3"/><radialGradient id="_423" cx="61.994" cy="53.091" r="22.911" gradientUnits="userSpaceOnUse"><stop offset="0" stop-color="#b1b5bd"/><stop offset="0.137" stop-color="#abaebd"/><stop offset="0.336" stop-color="#9b9bbf"/><stop offset="0.57" stop-color="#817cc0"/><stop offset="0.754" stop-color="#685ec2"/><stop offset="0.975" stop-color="#7a75d8"/></radialGradient><radialGradient id="_10" cx="54.038" cy="57.612" r="14.952" gradientUnits="userSpaceOnUse"><stop offset="0.006" stop-color="#60daff"/><stop offset="0.182" stop-color="#56d4ff"/><stop offset="0.479" stop-color="#3cc3ff"/><stop offset="0.857" stop-color="#12a8ff"/><stop offset="1" stop-color="#009cff"/></radialGradient><linearGradient id="_4" x1="30.882" y1="43.458" x2="30.882" y2="33.343" gradientUnits="userSpaceOnUse"><stop offset="0" stop-color="#9969a3"/><stop offset="0.134" stop-color="#a175aa"/><stop offset="0.375" stop-color="#b795be"/><stop offset="0.694" stop-color="#d9c8dd"/><stop offset="1" stop-color="#fff"/></linearGradient><linearGradient id="_4-2" x1="77.868" y1="43.458" x2="77.868" y2="33.343" xlink:href="#_4"/><linearGradient id="_3-5" x1="54.299" y1="49.409" x2="55.326" y2="49.409" xlink:href="#_3"/><linearGradient id="_3-6" x1="38.497" y1="50.332" x2="41.593" y2="50.332" xlink:href="#_3"/><linearGradient id="_3-7" x1="1843.108" y1="50.344" x2="1846.283" y2="50.344" gradientTransform="matrix(-1, 0, 0, 1, 1914.516, 0)" xlink:href="#_3"/><radialGradient id="_494-4" cx="55.179" cy="49.409" r="4.579" xlink:href="#_494"/><radialGradient id="_494-5" cx="70.192" cy="50.391" r="4.669" xlink:href="#_494"/><radialGradient id="_494-6" cx="40.477" cy="50.285" r="4.665" xlink:href="#_494"/><linearGradient id="_3-8" x1="54.042" y1="18.758" x2="54.812" y2="18.758" xlink:href="#_3"/><linearGradient id="_3-9" x1="41.825" y1="19.915" x2="42.692" y2="19.915" xlink:href="#_3"/><linearGradient id="_3-10" x1="65.999" y1="19.757" x2="66.981" y2="19.757" xlink:href="#_3"/><radialGradient id="_494-7" cx="42.525" cy="19.837" r="1.909" xlink:href="#_494"/><radialGradient id="_494-8" cx="54.834" cy="18.763" r="1.928" xlink:href="#_494"/><radialGradient id="_494-9" cx="66.883" cy="19.804" r="1.91" xlink:href="#_494"/><radialGradient id="_494-10" cx="64.666" cy="49.96" r="5.708" xlink:href="#_494"/><radialGradient id="_494-11" cx="63.256" cy="19.313" r="2.864" xlink:href="#_494"/><radialGradient id="radial-gradient-10" cx="54.506" cy="45.62" r="37.756" gradientTransform="matrix(1, 0, 0, 1, 0, 0)" xlink:href="#linear-gradient-4"/><radialGradient id="radial-gradient-11" cx="266.87" cy="63.526" r="7.773" gradientTransform="translate(-81.881 -227.971) rotate(45.854)" gradientUnits="userSpaceOnUse"><stop offset="0.006" stop-color="#f3ff09"/><stop offset="0.066" stop-color="#dee908" stop-opacity="0.912"/><stop offset="0.267" stop-color="#9ba306" stop-opacity="0.639"/><stop offset="0.457" stop-color="#646904" stop-opacity="0.411"/><stop offset="0.631" stop-color="#393c02" stop-opacity="0.234"/><stop offset="0.785" stop-color="#1a1b01" stop-opacity="0.106"/><stop offset="0.913" stop-color="#070700" stop-opacity="0.028"/><stop offset="1" stop-opacity="0"/></radialGradient><radialGradient id="_494-12" cx="76.77" cy="24.373" r="2.981" xlink:href="#_494"/><radialGradient id="radial-gradient-12" cx="54.042" cy="55.498" r="18.483" gradientTransform="translate(95.639 -9.85) rotate(76.718)" gradientUnits="userSpaceOnUse"><stop offset="0" stop-color="#f0a540"/><stop offset="0.136" stop-color="#c58735" stop-opacity="0.82"/><stop offset="0.371" stop-color="#805822" stop-opacity="0.532"/><stop offset="0.584" stop-color="#493213" stop-opacity="0.303"/><stop offset="0.767" stop-color="#211709" stop-opacity="0.138"/><stop offset="0.911" stop-color="#090602" stop-opacity="0.037"/><stop offset="1" stop-opacity="0"/></radialGradient><linearGradient id="_3-11" x1="47.736" y1="23.991" x2="48.609" y2="23.991" xlink:href="#_3"/><linearGradient id="_2-3" x1="47.873" y1="23.991" x2="48.566" y2="23.991" xlink:href="#_2"/><linearGradient id="_3-12" x1="47.779" y1="34.987" x2="48.651" y2="34.987" xlink:href="#_3"/><linearGradient id="_2-4" x1="47.915" y1="34.987" x2="48.609" y2="34.987" xlink:href="#_2"/><linearGradient id="_3-13" x1="39.202" y1="35.996" x2="40.075" y2="35.996" xlink:href="#_3"/><linearGradient id="_2-5" x1="39.339" y1="35.996" x2="40.032" y2="35.996" xlink:href="#_2"/></defs><title>ship-3</title><g class="cls-1"><g id="Layer_2" data-name="Layer 2"><g id="Spaceships"><g id="ship-3"><path class="cls-2" d="M54.042,113.918c-7.388,0-10.641-4.323-10.641-4.323s-1.036,6.117-3.65,6.117h0a5.044,5.044,0,0,1-2.776-2.179c-1.186-2.106-.165-5.018-.018-5.411.011-.031.018-.046.018-.046a26.949,26.949,0,0,1-6.854-1.211l0,0a5.264,5.264,0,0,1-3.16-2.3c-1.637-3.565,2.567-9.4,2.567-9.4a4.785,4.785,0,0,1,0-2.594c1.177-4.045,7.815-5.458,7.815-5.458a.058.058,0,0,1-.018-.008,12.573,12.573,0,0,1-5.357-4.64,8.877,8.877,0,0,1-1.083-6.341c1.021-5.579,5.055-6.867,5.055-6.867s-1.973-13.113,5.65-17.008c9.272-4.736,5.5,27.355,5.5,27.355,4.664,3.954,3.149,8.007,1.268,10.559l0,0a14.5,14.5,0,0,1-2.527,2.632.1.1,0,0,0,.018-.009c.055-.027.191-.1.4-.184.02-.007.04-.016.06-.025,1.645-.688,7.138-2.476,11.415,2.086,3.261,3.48,2.533,7.267,1.384,9.794a13.089,13.089,0,0,1-1.817,2.921,7.678,7.678,0,0,1,4.5,3.336C63.216,113.33,57.676,113.918,54.042,113.918Z"/><path class="cls-3" d="M30.119,106.865l0,0a5.264,5.264,0,0,1-3.16-2.3c-1.637-3.565,2.567-9.4,2.567-9.4,6.528-4.607,10.65-4.487,10.954,0S37.284,108.5,30.119,106.865Z"/><path class="cls-4" d="M42.525,81.973c-1.532,3.548-7.584,3.8-10.561.488a8.877,8.877,0,0,1-1.083-6.341c1.021-5.579,5.055-6.867,5.055-6.867C41.448,70.968,44.058,78.426,42.525,81.973Z"/><path class="cls-5" d="M48.351,90.159l0,0c-5.1,2.727-7.537.908-8.71,0s1.9-7.913,7.445-10.559C51.747,83.554,50.232,87.607,48.351,90.159Z"/><path class="cls-6" d="M59.1,104.455c-3.178,2.015-17.559-1.017-18.1-2.745s.91-7.822,4.821-8.913l.007,0a.1.1,0,0,0,.018-.009c.055-.024.2-.089.4-.184.02-.007.04-.016.06-.025,1.645-.688,7.138-2.476,11.415,2.086C60.975,98.141,60.247,101.928,59.1,104.455Z"/><path class="cls-7" d="M39.751,115.712h0a5.044,5.044,0,0,1-2.776-2.179c-1.186-2.106-.165-5.018-.018-5.411.011-.031.018-.046.018-.046,2.11-3.729,5.084-3.818,5.552-2.954S42.69,115.523,39.751,115.712Z"/><path class="cls-8" d="M52.056,106.53c-5.491-1.2-7.146-2.092-7.743,0s4.363,6.912,8.389,7.367S55.966,107.388,52.056,106.53Z"/><path class="cls-9" d="M29.524,92.567c1.177-4.045,7.815-5.458,7.815-5.458C42.052,88.878,32.244,93.433,29.524,92.567Z"/><path class="cls-10" d="M81.372,70.337a13.33,13.33,0,0,1-3.9,4.42h0a33.461,33.461,0,0,1-4.962,3.2s2.259,9.351-6.836,9.351a3.941,3.941,0,0,1-1.861-.494l-.007,0c-3.169-1.7-5.5-7.549-3.356-13.739A8.779,8.779,0,0,1,57.3,69.5l0,0a4.114,4.114,0,0,1,.282-3.735c2.223-3.879,6.759-2.224,7.178-2.062l.031.012a14.449,14.449,0,0,1,2.441-6.259,6.708,6.708,0,0,1,2.31-1.955c3.949-1.959,6.41,2.661,6.488,2.812l0,0c2.67.729.771,6.855.771,6.855S83.243,66.259,81.372,70.337Z"/><path class="cls-11" d="M81.372,70.337a13.33,13.33,0,0,1-3.9,4.42h0c-6.812,1.514-11.011-.787-11.829-2.515S68.553,66.6,76.8,65.169C76.8,65.169,83.243,66.259,81.372,70.337Z"/><path class="cls-12" d="M65.532,68.786c-2.8,1.91-7.114,2.519-8.231.715l0,0a4.114,4.114,0,0,1,.282-3.735c2.223-3.879,6.759-2.224,7.178-2.062l.031.012C67.371,64.784,68.331,66.876,65.532,68.786Z"/><path class="cls-13" d="M63.813,86.816l-.007,0c-3.169-1.7-5.5-7.549-3.356-13.739,1.919-.742,7.648,1.417,9.467,4.884S68.8,88.007,63.813,86.816Z"/><path class="cls-14" d="M72.51,65.057c-2.865-.819-6.216-4.588-5.281-7.6l0-.008a6.708,6.708,0,0,1,2.31-1.955c3.949-1.959,6.41,2.661,6.488,2.812l0,0C76.8,62.943,75.374,65.875,72.51,65.057Z"/><ellipse class="cls-15" cx="57.704" cy="144.217" rx="57.704" ry="3.234"/><ellipse class="cls-16" cx="57.704" cy="144.217" rx="57.704" ry="8.434"/><ellipse class="cls-17" cx="57.704" cy="140.637" rx="57.66" ry="12.014"/><polygon class="cls-18" points="44.771 59.303 42.525 141.739 69.82 141.739 64.978 59.066 44.771 59.303"/><path class="cls-19" d="M50.04,59.043l-5.269.239s-3.234,79.487,1.613,79.2C52.037,138.138,50.04,59.043,50.04,59.043Z"/><path class="cls-20" d="M60,58.824l5.3.226s6.836,82.576,1.279,82.151S60,58.824,60,58.824Z"/><path class="cls-21" d="M59.092,59.066l-7.883.151s.729,65.655,4.359,65.655C59.384,124.872,59.092,59.066,59.092,59.066Z"/><path class="cls-22" d="M51.083,63.763c-.024,7.568-1.42,13.7-3.117,13.693s-3.053-6.145-3.028-13.713,1.42-13.7,3.117-13.693S51.108,56.2,51.083,63.763Z"/><path class="cls-23" d="M59.64,76.383c.39,13.877-1.3,25.183-3.781,25.252s-4.8-11.123-5.192-25,1.3-25.183,3.78-25.252S59.25,62.506,59.64,76.383Z"/><ellipse class="cls-24" cx="52.083" cy="119.09" rx="4.488" ry="25.136" transform="translate(-3.325 1.51) rotate(-1.61)"/><path class="cls-25" d="M67.639,96.276c.39,13.877-1.3,25.183-3.781,25.252s-4.8-11.123-5.192-25,1.3-25.183,3.78-25.252S67.249,82.4,67.639,96.276Z"/><ellipse class="cls-26" cx="50.382" cy="87.109" rx="4.488" ry="25.136" transform="translate(-2.428 1.45) rotate(-1.61)"/><path class="cls-27" d="M66.62,75.958c.621,13.868-.492,25.183-2.486,25.272S60.019,90.15,59.4,76.281s.492-25.183,2.487-25.273S66,62.089,66.62,75.958Z"/><path class="cls-28" d="M96.573,123.076a9.173,9.173,0,0,1,.841,2.737l0,0C98.11,131.047,93,133.2,93,133.2s5.95.447,7.316,6.382c1,4.347-34.784,4.632-34.784,4.632H42.258c-7.546,0-28.484-3.345-21.485-6.368a10.291,10.291,0,0,1-1.427-9.808q.287-.834.636-1.595c2.905-6.388,9.007-9.134,11.018-2.4a6.554,6.554,0,0,1,2.033-1.782c1.828-1.029,4.872-1.51,9.495,2.211.143.115.288.233.434.357a23.742,23.742,0,0,1,1.778-3.322,12.706,12.706,0,0,1,4.134-4.273c3.074-1.718,6.953,1.3,6.474,7.859a24.3,24.3,0,0,1-1.775,7.113c.163-.188,6.035-6.95,10.781-3.9a44.432,44.432,0,0,1,.725-13.405V114.9a23.61,23.61,0,0,1,2.805-7.173c3.679-5.972,14.091-2.723,18.658,4.245l0,0a14.948,14.948,0,0,1,1.535,3.031S93.278,116.124,96.573,123.076Z"/><path class="cls-29" d="M19.982,126.445c2.905-6.388,9.007-9.134,11.018-2.4C30.5,132.5,23.966,140.035,19.982,126.445Z"/><path class="cls-30" d="M32.776,139.1c-3.219.261-3.337-8.936.257-16.83,1.828-1.029,4.872-1.51,9.495,2.211C42.57,133.358,35.98,138.838,32.776,139.1Z"/><path class="cls-31" d="M55.348,125.1a11.513,11.513,0,0,1-.754,2.075c-5.156,10.834-14.272,6.548-9.854-5.661a12.706,12.706,0,0,1,4.134-4.273C51.948,115.522,55.827,118.537,55.348,125.1Z"/><path class="cls-32" d="M60.616,139.1c-10.035,2.966-12.717,2.389-7.045-6.889l0,0c.163-.188,6.035-6.95,10.781-3.9C64.354,128.312,70.035,136.317,60.616,139.1Z"/><path class="cls-33" d="M86.543,111.972l0,0c1.812,4.233-4.673,18.321-13.535,18.858-8.975.542-8.758-3.7-7.931-15.927V114.9a23.61,23.61,0,0,1,2.805-7.173C71.564,101.755,81.976,105,86.543,111.972Z"/><path class="cls-34" d="M96.573,123.076a9.173,9.173,0,0,1,.841,2.737l0,0c-1.531,2.45-4.806,3.163-7.128,2.959C86,128.4,86.3,117.225,88.08,115.007,88.08,115.007,93.278,116.124,96.573,123.076Z"/><path class="cls-35" d="M78.509,132.277c1.332-7.9,7.948-4.063,10.06-1.4C90.826,133.722,77.707,137.035,78.509,132.277Z"/><path class="cls-36" d="M42.242,134.62c-4.5-.209-3.363,5.909,2.029,6.027S47.951,134.885,42.242,134.62Z"/><path class="cls-37" d="M80.758,33.032A31.456,31.456,0,0,1,77.1,43.663l-2.118-8.915,0-.01-.139-.589-3.081,1.162v-8.59a19.819,19.819,0,0,1,8.934-3.9A29.685,29.685,0,0,1,80.758,33.032Z"/><polygon class="cls-38" points="76.453 43.663 77.095 43.663 74.836 34.148 71.755 35.312 71.755 36.133 74.425 34.97 76.453 43.663"/><path class="cls-39" d="M37.34,26.721v8.59l-3.081-1.162L32,43.663a31.174,31.174,0,0,1-2.932-7.175,32.628,32.628,0,0,1-1.1-9.656,23.569,23.569,0,0,1,.441-4.013,17.513,17.513,0,0,1,5.841,1.926A19.924,19.924,0,0,1,37.34,26.721Z"/><polygon class="cls-40" points="37.34 35.311 37.34 36.133 34.67 34.97 32.641 43.663 32 43.663 34.259 34.149 37.34 35.311"/><path class="cls-41" d="M37.34,26.721v9.412L34.67,34.97l-2.029,8.693H32a31.174,31.174,0,0,1-2.932-7.175,88.762,88.762,0,0,0,5.179-11.743A19.924,19.924,0,0,1,37.34,26.721Z"/><path class="cls-42" d="M70.728,18.4,38.9,19.019s.183-.745.563-1.932v0c1.052-3.29,3.619-9.977,8.032-13.624l0,0a10.074,10.074,0,0,1,6.5-2.51C64.67.947,70.728,18.4,70.728,18.4Z"/><path class="cls-43" d="M72.644,45.05H36.98a86.435,86.435,0,0,1,.136-20.623c.222-1.7.411-2.67.411-2.67L54.812,19.7l6.983.83,4.922.585h0l5.379.639A83.509,83.509,0,0,1,72.644,45.05Z"/><path class="cls-44" d="M69.13,45.46c-1.107-12.428-1.431-19.1-.609-20.715.493-.97,4-2.253,4-2.253L60.049,19.757c1.861,1.436,2.7,2.255,2.807,4.616.32,6.951-1.883,20.42-1.883,20.42Z"/><path class="cls-45" d="M49.4,23.51A63.128,63.128,0,0,1,49.678,36Z"/><path class="cls-46" d="M49.233,21.073V35.654s-8.326,1.027-12.8,1.848v.308S43.312,36.647,49.678,36c0,0-.342-11.808-.274-15.06Z"/><path class="cls-47" d="M40.021,45.05l-2.9.41c-.7-14.683,1.265-23.514,1.265-23.514C38.028,29.408,39.735,43.682,40.021,45.05Z"/><path class="cls-48" d="M35.611,23.948l1.505.479.064-.479A73.641,73.641,0,0,1,54.8,22.1a60.48,60.48,0,0,1,17.712,2.327l.1.818s1.4-.749,1.4-1.3A61.9,61.9,0,0,0,54.8,20.731,61.577,61.577,0,0,0,35.611,23.948Z"/><path class="cls-49" d="M35.611,23.948s2.875-3.491,19.2-3.491,19.2,3.491,19.2,3.491-.04.44-.722.868l-.681.429-.069-.356s-3.153-1.511-11.415-1.9c-10.114-.477-23.027.522-24.206,3.076l.2-1.637Z"/><path class="cls-50" d="M54.812,16.042a57.108,57.108,0,0,0-19.2,2.977v4.929a89.236,89.236,0,0,1,19.2-2.464,89.239,89.239,0,0,1,19.2,2.464V19.019A57.115,57.115,0,0,0,54.812,16.042Z"/><path class="cls-51" d="M29.552,58.039c-.719.274,11.467,3.423,25.26,3.423a98.5,98.5,0,0,0,25.26-3.423S69.7,55.164,53.135,55.164,29.552,58.039,29.552,58.039Z"/><path class="cls-52" d="M59.384,42.329h-.978l.719-19.51h.822S61.174,28.764,59.384,42.329Z"/><path class="cls-53" d="M56.045,26.823s1.445-2.96,3.08-4a85.455,85.455,0,0,1-.719,19.51l-1.129-7.188-1.232.2Z"/><path class="cls-54" d="M59.125,22.819c-1.635,1.044-3.08,4-3.08,4L39.638,46.151l15.174-1.1,2.465-9.91,1.129,7.188A85.455,85.455,0,0,0,59.125,22.819Z"/><path class="cls-55" d="M75.349,44.939a109.967,109.967,0,0,0-20.537-1.994,109.963,109.963,0,0,0-20.536,1.994l-4.724,13.1c16.738-2.464,25.26-2.156,25.26-2.156s8.523-.308,25.26,2.156Z"/><path class="cls-56" d="M44.441,59.066a55.074,55.074,0,0,1,20.537,0s-1.943,1.855-10.166,1.951S44.441,59.066,44.441,59.066Z"/><path class="cls-57" d="M33.82,36v0L32,43.663a32.1,32.1,0,0,1-4.035-16.831C28.92,35.915,31.212,37.026,33.82,36Z"/><path class="cls-58" d="M80.758,33.032A31.456,31.456,0,0,1,77.1,43.663l-2.118-8.915C75.811,38.221,79.53,34.41,80.758,33.032Z"/><path class="cls-59" d="M54.3,42.945a65.6,65.6,0,0,1,0,12.928h1.027s-.822-10.224-.514-12.928Z"/><path class="cls-60" d="M40.936,43.865A79.782,79.782,0,0,1,38.5,56.881l.865-.094s1.062-9.722,2.231-13Z"/><path class="cls-61" d="M68.976,43.9a79.271,79.271,0,0,0,2.432,12.979l-.865-.094s-1.141-9.7-2.31-12.98Z"/><path class="cls-62" d="M54.812,42.945h.274s.123,2.962.24,6.879.242,6.049.242,6.049h-.242s-.374-3.414-.477-7.452S54.812,42.945,54.812,42.945Z"/><path class="cls-63" d="M68.976,43.9s2.05,8.979,2.432,12.979c0,0-.75-2.7-1.588-6.916A36.539,36.539,0,0,1,68.976,43.9Z"/><path class="cls-64" d="M41.593,43.783s-.979,8.774-2.231,13c0,0,.487-3.94,1.072-7.813A24.151,24.151,0,0,1,41.593,43.783Z"/><path class="cls-65" d="M54.042,16.026a17.3,17.3,0,0,1,0,5.463l.77,0a25.483,25.483,0,0,1,0-5.442Z"/><path class="cls-66" d="M41.825,17.281a36.485,36.485,0,0,1,.267,5.357l.6-.1-.434-5.348Z"/><path class="cls-67" d="M66.981,17.116l-.357,5.376L66,22.4a44.745,44.745,0,0,0,.491-5.374Z"/><polygon class="cls-68" points="42.258 17.192 42.466 17.15 42.793 22.525 42.258 17.192"/><path class="cls-69" d="M54.812,16.042a19.354,19.354,0,0,1,0,5.442,14.9,14.9,0,0,1-.156-2.77C54.7,17.016,54.812,16.042,54.812,16.042Z"/><path class="cls-70" d="M66.981,17.116a10.054,10.054,0,0,1,.153,2.391,12.906,12.906,0,0,1-.51,2.985s.1-1.522.177-3.139S66.981,17.116,66.981,17.116Z"/><path class="cls-71" d="M60.951,43.134c1.22.392,1.494.872,1.665,3.952s.24,7.53,0,8.078S60.357,56,60.357,56a75.065,75.065,0,0,1,8.619.792s-1.517-.459-1.833-1.281S65.719,45.443,66,44.9s2.234-1.089,2.234-1.089-1.8-.235-3.925-.42S60.951,43.134,60.951,43.134Z"/><path class="cls-72" d="M61.64,16.333s.463-.06.54.915a24.882,24.882,0,0,1-.27,3.945c-.089.368-1.4.55-1.4.55s2.934.269,4.789.551c0,0-.606-.143-.735-.631s-.025-4.423.283-4.547A5.747,5.747,0,0,1,66,16.934s-1.076-.2-2.357-.366S61.64,16.333,61.64,16.333Z"/><path class="cls-73" d="M44.441,59.066s1.524,18.894,9.6,18.894S64.978,59.066,64.978,59.066,54.367,56.533,44.441,59.066Z"/><path class="cls-74" d="M50.487,1.637S47.951,11.45,39.459,17.085c1.052-3.29,3.619-9.977,8.032-13.624l0,0Z"/><path class="cls-75" d="M57.714,3.719c.312,2.23,1.415,4.365,2.8,4.775s1.539-1.129,1.077-2.387S57.484,2.077,57.714,3.719Z"/><circle class="cls-76" cx="58.406" cy="7.774" r="7.773" transform="translate(9.932 41.269) rotate(-42.225)"/><path class="cls-77" d="M80.689,22.819a50.731,50.731,0,0,0-7.837,3.109,19.047,19.047,0,0,1,3.918-2.069A37.491,37.491,0,0,1,80.689,22.819Z"/><path class="cls-75" d="M76.77,23.859c-1.013.979,1.471.123,2.462-.39.762-.394,0-.389,0-.389Z"/><path class="cls-75" d="M63.506,43.319c-1.335.173,1.472.789,2.362.721s1.432-.352.419-.458S63.506,43.319,63.506,43.319Z"/><path class="cls-75" d="M62.723,16.453c-.072.786,3.076.821,2.46.376Z"/><circle class="cls-78" cx="54.042" cy="55.498" r="18.483" transform="translate(-12.387 95.343) rotate(-76.718)"/><path class="cls-79" d="M48.609,23.991a.437.437,0,1,1-.437-.436A.437.437,0,0,1,48.609,23.991Z"/><path class="cls-80" d="M48.566,23.991a.347.347,0,1,1-.347-.347A.346.346,0,0,1,48.566,23.991Z"/><circle class="cls-81" cx="48.215" cy="34.987" r="0.436"/><circle class="cls-82" cx="48.262" cy="34.987" r="0.347"/><path class="cls-83" d="M40.075,36a.437.437,0,1,1-.437-.436A.437.437,0,0,1,40.075,36Z"/><path class="cls-84" d="M40.032,36a.347.347,0,1,1-.347-.346A.347.347,0,0,1,40.032,36Z"/></g></g></g></g></svg>