<svg xmlns="http://www.w3.org/2000/svg" xmlns:xlink="http://www.w3.org/1999/xlink" viewBox="0 0 106.987 150.15"><defs><style>.cls-1{isolation:isolate;}.cls-13,.cls-16,.cls-17,.cls-18,.cls-19,.cls-2,.cls-20,.cls-21,.cls-22,.cls-24,.cls-25,.cls-26,.cls-27,.cls-28,.cls-29,.cls-3,.cls-30,.cls-34,.cls-35,.cls-36,.cls-37,.cls-38,.cls-39,.cls-4,.cls-40,.cls-41,.cls-42,.cls-43,.cls-44,.cls-45,.cls-46,.cls-47,.cls-48,.cls-49,.cls-5,.cls-51,.cls-52,.cls-53,.cls-54,.cls-55,.cls-56,.cls-57,.cls-58,.cls-59,.cls-6,.cls-60,.cls-61,.cls-62,.cls-63,.cls-64,.cls-65,.cls-66,.cls-67,.cls-68,.cls-69,.cls-70,.cls-71,.cls-72,.cls-73,.cls-74,.cls-75,.cls-76,.cls-77,.cls-78,.cls-79,.cls-80,.cls-81,.cls-82,.cls-83,.cls-84,.cls-85,.cls-86,.cls-9{fill-rule:evenodd;}.cls-11,.cls-12,.cls-13,.cls-14,.cls-15,.cls-16,.cls-17,.cls-18,.cls-19,.cls-2,.cls-20,.cls-21,.cls-22,.cls-23,.cls-24,.cls-25,.cls-26,.cls-27,.cls-28,.cls-29,.cls-30,.cls-4,.cls-5,.cls-6,.cls-7{opacity:0.45;}.cls-11,.cls-12,.cls-13,.cls-14,.cls-15,.cls-16,.cls-17,.cls-18,.cls-19,.cls-2,.cls-20,.cls-21,.cls-22,.cls-23,.cls-24,.cls-25,.cls-26,.cls-27,.cls-28,.cls-29,.cls-3,.cls-30,.cls-33,.cls-4,.cls-40,.cls-48,.cls-5,.cls-50,.cls-58,.cls-6,.cls-7,.cls-75,.cls-76,.cls-77,.cls-78,.cls-82,.cls-83,.cls-86{mix-blend-mode:screen;}.cls-2{fill:url(#linear-gradient);}.cls-3{fill:url(#radial-gradient);}.cls-4{fill:url(#linear-gradient-2);}.cls-5{fill:url(#linear-gradient-3);}.cls-6{fill:url(#linear-gradient-4);}.cls-7{fill:url(#radial-gradient-2);}.cls-10,.cls-31,.cls-32,.cls-8,.cls-9{mix-blend-mode:color-dodge;}.cls-8{fill:url(#radial-gradient-3);}.cls-9{fill:url(#radial-gradient-4);}.cls-10{fill:url(#radial-gradient-5);}.cls-11{fill:url(#radial-gradient-6);}.cls-12{fill:url(#radial-gradient-7);}.cls-13{fill:url(#radial-gradient-8);}.cls-14{fill:url(#radial-gradient-9);}.cls-15{fill:url(#radial-gradient-10);}.cls-16{fill:url(#linear-gradient-5);}.cls-17{fill:url(#linear-gradient-6);}.cls-18{fill:url(#linear-gradient-7);}.cls-19{fill:url(#_287);}.cls-20{fill:url(#_287-2);}.cls-21{fill:url(#_287-3);}.cls-22{fill:url(#_287-4);}.cls-23{fill:url(#_287-5);}.cls-24{fill:url(#_287-6);}.cls-25{fill:url(#_287-7);}.cls-26{fill:url(#_287-8);}.cls-27{fill:url(#_287-9);}.cls-28{fill:url(#_287-10);}.cls-29{fill:url(#_287-11);}.cls-30{fill:url(#_287-12);}.cls-31{fill:url(#radial-gradient-11);}.cls-32{fill:url(#radial-gradient-12);}.cls-33{fill:url(#radial-gradient-13);}.cls-34{fill:url(#_119);}.cls-35{fill:url(#_119-2);}.cls-36{fill:url(#_162);}.cls-37,.cls-38,.cls-39,.cls-45,.cls-46,.cls-47,.cls-58{opacity:0.5;}.cls-37,.cls-38,.cls-39,.cls-41,.cls-45,.cls-46,.cls-47,.cls-49,.cls-52,.cls-54,.cls-57,.cls-61,.cls-66,.cls-67,.cls-68,.cls-69,.cls-81,.cls-84{mix-blend-mode:multiply;}.cls-37{fill:url(#_210);}.cls-38{fill:url(#_210-2);}.cls-39{fill:url(#_210-3);}.cls-40,.cls-48{opacity:0.91;}.cls-40{fill:url(#_320);}.cls-41,.cls-49,.cls-52,.cls-54,.cls-57,.cls-66,.cls-67,.cls-68,.cls-69,.cls-81,.cls-84{opacity:0.71;}.cls-41{fill:url(#_110);}.cls-42{fill:url(#_119-3);}.cls-43{fill:url(#_119-4);}.cls-44{fill:url(#_162-2);}.cls-45{fill:url(#_210-4);}.cls-46{fill:url(#_210-5);}.cls-47{fill:url(#_210-6);}.cls-48{fill:url(#_320-2);}.cls-49{fill:url(#_110-2);}.cls-50{fill:url(#radial-gradient-14);}.cls-51{fill:url(#_423);}.cls-52{fill:url(#_68);}.cls-53{fill:url(#_230);}.cls-54{fill:url(#_68-2);}.cls-55{fill:url(#_435);}.cls-56{fill:url(#_162-3);}.cls-57{fill:url(#_68-3);}.cls-58{fill:url(#_61);}.cls-59{fill:#2b1f54;}.cls-60{fill:url(#_472);}.cls-61{fill:url(#_214);}.cls-62{fill:url(#_435-2);}.cls-63{fill:url(#_435-3);}.cls-64{fill:url(#_435-4);}.cls-65{fill:url(#_435-5);}.cls-66{fill:url(#_68-4);}.cls-67{fill:url(#_68-5);}.cls-68{fill:url(#_68-6);}.cls-69{fill:url(#_68-7);}.cls-70{fill:url(#_423-2);}.cls-71{fill:url(#_423-3);}.cls-72{fill:url(#_435-6);}.cls-73{fill:url(#_162-4);}.cls-74{fill:#fff;}.cls-75{opacity:0.64;fill:url(#_89);}.cls-76{fill:url(#radial-gradient-15);}.cls-77{fill:url(#_494);}.cls-78{fill:url(#_494-2);}.cls-79{fill:url(#_119-5);}.cls-80{fill:url(#_162-5);}.cls-81{fill:url(#_110-3);}.cls-82{fill:url(#_320-3);}.cls-83{opacity:0.2;fill:url(#_89-2);}.cls-84{fill:url(#_68-8);}.cls-85{fill:#72ffff;}.cls-86{fill:url(#radial-gradient-16);}</style><linearGradient id="linear-gradient" x1="53.392" y1="59.428" x2="53.392" y2="139.751" gradientUnits="userSpaceOnUse"><stop offset="0.006" stop-color="#b61e2d"/><stop offset="0.114" stop-color="#ad1d2b" stop-opacity="0.95"/><stop offset="0.291" stop-color="#941825" stop-opacity="0.815"/><stop offset="0.516" stop-color="#6c121b" stop-opacity="0.594"/><stop offset="0.776" stop-color="#35090d" stop-opacity="0.292"/><stop offset="1" stop-opacity="0"/></linearGradient><radialGradient id="radial-gradient" cx="-3616.076" cy="-9834.073" r="7.119" gradientTransform="translate(13396.812 3977.916) scale(3.69 0.39)" gradientUnits="userSpaceOnUse"><stop offset="0" stop-color="#ea7052"/><stop offset="0.084" stop-color="#c45e45" stop-opacity="0.839"/><stop offset="0.213" stop-color="#914533" stop-opacity="0.619"/><stop offset="0.344" stop-color="#643023" stop-opacity="0.429"/><stop offset="0.476" stop-color="#401f16" stop-opacity="0.274"/><stop offset="0.607" stop-color="#24110d" stop-opacity="0.154"/><stop offset="0.738" stop-color="#100806" stop-opacity="0.068"/><stop offset="0.869" stop-color="#040201" stop-opacity="0.017"/><stop offset="1" stop-opacity="0"/></radialGradient><linearGradient id="linear-gradient-2" x1="41.61" y1="57.013" x2="41.61" y2="140.99" gradientUnits="userSpaceOnUse"><stop offset="0.006" stop-color="#e95a29"/><stop offset="0.221" stop-color="#a33f1d" stop-opacity="0.699"/><stop offset="0.423" stop-color="#692812" stop-opacity="0.45"/><stop offset="0.608" stop-color="#3c170a" stop-opacity="0.256"/><stop offset="0.771" stop-color="#1b0a05" stop-opacity="0.116"/><stop offset="0.907" stop-color="#070301" stop-opacity="0.031"/><stop offset="1" stop-opacity="0"/></linearGradient><linearGradient id="linear-gradient-3" x1="55.051" y1="56.283" x2="55.051" y2="140.99" gradientUnits="userSpaceOnUse"><stop offset="0.006" stop-color="#f3a840"/><stop offset="0.035" stop-color="#e9a13d" stop-opacity="0.957"/><stop offset="0.243" stop-color="#a3712b" stop-opacity="0.67"/><stop offset="0.439" stop-color="#69481c" stop-opacity="0.431"/><stop offset="0.619" stop-color="#3c2910" stop-opacity="0.245"/><stop offset="0.777" stop-color="#1b1307" stop-opacity="0.111"/><stop offset="0.91" stop-color="#070502" stop-opacity="0.029"/><stop offset="1" stop-opacity="0"/></linearGradient><linearGradient id="linear-gradient-4" x1="53.627" y1="56.023" x2="53.627" y2="140.99" xlink:href="#linear-gradient-3"/><radialGradient id="radial-gradient-2" cx="-3863.351" cy="-6102.16" r="11.907" gradientTransform="translate(17409.212 3215.676) scale(4.492 0.504)" gradientUnits="userSpaceOnUse"><stop offset="0.006" stop-color="#d23a22"/><stop offset="0.167" stop-color="#a22d1a" stop-opacity="0.771"/><stop offset="0.381" stop-color="#691d11" stop-opacity="0.499"/><stop offset="0.579" stop-color="#3c100a" stop-opacity="0.283"/><stop offset="0.754" stop-color="#1b0704" stop-opacity="0.129"/><stop offset="0.901" stop-color="#070201" stop-opacity="0.034"/><stop offset="1" stop-opacity="0"/></radialGradient><radialGradient id="radial-gradient-3" cx="6576.934" cy="1673.386" r="27.482" gradientTransform="translate(-3399.953 -2333.854) scale(0.525 1.438)" gradientUnits="userSpaceOnUse"><stop offset="0" stop-color="#ef8c1d"/><stop offset="0.133" stop-color="#c57318" stop-opacity="0.824"/><stop offset="0.37" stop-color="#804b0f" stop-opacity="0.534"/><stop offset="0.583" stop-color="#492b09" stop-opacity="0.304"/><stop offset="0.766" stop-color="#211304" stop-opacity="0.139"/><stop offset="0.911" stop-color="#090501" stop-opacity="0.037"/><stop offset="1" stop-opacity="0"/></radialGradient><radialGradient id="radial-gradient-4" cx="44909.117" cy="993.583" r="27.486" gradientTransform="matrix(0.119, 0.021, -0.02, 1.431, -5262.872, -2273.048)" xlink:href="#radial-gradient-3"/><radialGradient id="radial-gradient-5" cx="13657.291" cy="3934.65" r="14.888" gradientTransform="translate(-4655.885 -10268.849) scale(0.345 2.637)" gradientUnits="userSpaceOnUse"><stop offset="0" stop-color="#ef8c1d"/><stop offset="0.177" stop-color="#c07117" stop-opacity="0.804"/><stop offset="0.584" stop-color="#5a350b" stop-opacity="0.376"/><stop offset="0.867" stop-color="#190f03" stop-opacity="0.105"/><stop offset="1" stop-opacity="0"/></radialGradient><radialGradient id="radial-gradient-6" cx="32.006" cy="135.293" r="5.29" gradientTransform="matrix(1, 0, 0, 1, 0, 0)" xlink:href="#radial-gradient-2"/><radialGradient id="radial-gradient-7" cx="68.182" cy="125.854" r="5.29" gradientTransform="matrix(1, 0, 0, 1, 0, 0)" xlink:href="#radial-gradient-2"/><radialGradient id="radial-gradient-8" cx="37.296" cy="115.273" r="5.29" gradientTransform="matrix(1, 0, 0, 1, 0, 0)" xlink:href="#radial-gradient-2"/><radialGradient id="radial-gradient-9" cx="70.916" cy="98.507" r="5.29" gradientTransform="matrix(1, 0, 0, 1, 0, 0)" xlink:href="#radial-gradient-2"/><radialGradient id="radial-gradient-10" cx="69.992" cy="139.142" r="5.29" gradientTransform="matrix(1, 0, 0, 1, 0, 0)" xlink:href="#radial-gradient-2"/><linearGradient id="linear-gradient-5" x1="35.57" y1="106.277" x2="35.57" y2="144.608" xlink:href="#linear-gradient"/><linearGradient id="linear-gradient-6" x1="-14675.108" y1="106.277" x2="-14675.108" y2="144.608" gradientTransform="matrix(-1, 0, 0, 1, -14607.405, 0)" xlink:href="#linear-gradient"/><linearGradient id="linear-gradient-7" x1="51.694" y1="106.277" x2="51.694" y2="144.608" xlink:href="#linear-gradient"/><linearGradient id="_287" x1="32.255" y1="134.547" x2="32.255" y2="136.249" gradientUnits="userSpaceOnUse"><stop offset="0.006" stop-color="#b61e2d"/><stop offset="0.271" stop-color="#b11e36"/><stop offset="0.704" stop-color="#a21f4f"/><stop offset="1" stop-color="#961f63"/></linearGradient><linearGradient id="_287-2" x1="37.341" y1="119.481" x2="37.341" y2="120.604" xlink:href="#_287"/><linearGradient id="_287-3" x1="37.473" y1="114.866" x2="37.473" y2="115.717" xlink:href="#_287"/><linearGradient id="_287-4" x1="68.444" y1="125.447" x2="68.444" y2="126.297" xlink:href="#_287"/><linearGradient id="_287-5" x1="69.992" y1="138.327" x2="69.992" y2="140.029" xlink:href="#_287"/><linearGradient id="_287-6" x1="67.025" y1="138.32" x2="67.025" y2="138.839" xlink:href="#_287"/><linearGradient id="_287-7" x1="71.343" y1="98.517" x2="71.343" y2="100.219" xlink:href="#_287"/><linearGradient id="_287-8" x1="56.851" y1="120.447" x2="56.851" y2="121.424" xlink:href="#_287"/><linearGradient id="_287-9" x1="49.379" y1="109.994" x2="49.379" y2="111.695" xlink:href="#_287"/><linearGradient id="_287-10" x1="43.571" y1="102.152" x2="43.571" y2="103.115" xlink:href="#_287"/><linearGradient id="_287-11" x1="42.223" y1="109.163" x2="42.223" y2="110.115" xlink:href="#_287"/><linearGradient id="_287-12" x1="62.095" y1="115.275" x2="62.095" y2="115.848" xlink:href="#_287"/><radialGradient id="radial-gradient-11" cx="-3843.631" cy="3595.969" r="14.888" gradientTransform="translate(7794.093 -8327.11) scale(2.014 2.346)" xlink:href="#radial-gradient-5"/><radialGradient id="radial-gradient-12" cx="-5039.017" cy="3917.133" r="14.888" gradientTransform="translate(15351.043 -10352.264) scale(3.036 2.664)" xlink:href="#radial-gradient-5"/><radialGradient id="radial-gradient-13" cx="-4407.351" cy="3498.097" r="13.775" gradientTransform="translate(10607.934 -8173.337) scale(2.395 2.37)" gradientUnits="userSpaceOnUse"><stop offset="0" stop-color="#961f63"/><stop offset="0.374" stop-color="#59123b" stop-opacity="0.593"/><stop offset="0.799" stop-color="#190511" stop-opacity="0.167"/><stop offset="1" stop-opacity="0"/></radialGradient><linearGradient id="_119" x1="-10297.452" y1="39.587" x2="-10281.404" y2="39.587" gradientTransform="matrix(-1, 0, 0, 1, -10257.908, 0)" gradientUnits="userSpaceOnUse"><stop offset="0" stop-color="#5b58a3"/><stop offset="0.439" stop-color="#5f59a3"/><stop offset="0.848" stop-color="#6a5ca2"/><stop offset="0.994" stop-color="#705ea2"/></linearGradient><linearGradient id="_119-2" x1="-10289.428" y1="62.045" x2="-10282.894" y2="62.045" xlink:href="#_119"/><radialGradient id="_162" cx="-10279.608" cy="25.835" r="31.1" gradientTransform="matrix(-1, 0, 0, 1, -10257.908, 0)" gradientUnits="userSpaceOnUse"><stop offset="0" stop-color="#ffd5bd"/><stop offset="0.103" stop-color="#f8d0bf"/><stop offset="0.253" stop-color="#e5c2c6"/><stop offset="0.43" stop-color="#c5abd2"/><stop offset="0.627" stop-color="#9a8ce1"/><stop offset="0.754" stop-color="#7a75ed"/><stop offset="0.975" stop-color="#7a82ed"/></radialGradient><linearGradient id="_210" x1="-10281.999" y1="61.031" x2="-10277.017" y2="61.031" gradientTransform="matrix(-1, 0, 0, 1, -10257.908, 0)" gradientUnits="userSpaceOnUse"><stop offset="0" stop-color="#b3a6db"/><stop offset="0.413" stop-color="#a685be"/><stop offset="0.766" stop-color="#9d71ab"/><stop offset="1" stop-color="#9a69a4"/></linearGradient><linearGradient id="_210-2" x1="-10280.919" y1="70.668" x2="-10277.093" y2="70.668" xlink:href="#_210"/><linearGradient id="_210-3" x1="-10283.266" y1="66.963" x2="-10280.654" y2="66.963" xlink:href="#_210"/><linearGradient id="_320" x1="-10280.363" y1="46.695" x2="-10276.547" y2="46.695" gradientTransform="matrix(-1, 0, 0, 1, -10257.908, 0)" gradientUnits="userSpaceOnUse"><stop offset="0" stop-color="#fff"/><stop offset="1" stop-color="#623964"/></linearGradient><linearGradient id="_110" x1="33.195" y1="44.851" x2="41.397" y2="44.851" gradientUnits="userSpaceOnUse"><stop offset="0" stop-color="#cc87cf"/><stop offset="0.086" stop-color="#c781cb"/><stop offset="0.687" stop-color="#a65aaf"/><stop offset="1" stop-color="#9a4ba4"/></linearGradient><linearGradient id="_119-3" x1="62.892" y1="39.587" x2="78.94" y2="39.587" gradientTransform="matrix(1, 0, 0, 1, 0, 0)" xlink:href="#_119"/><linearGradient id="_119-4" x1="70.916" y1="62.045" x2="77.45" y2="62.045" gradientTransform="matrix(1, 0, 0, 1, 0, 0)" xlink:href="#_119"/><radialGradient id="_162-2" cx="81.904" cy="40.424" r="31.1" gradientTransform="matrix(1, 0, 0, 1, 0, 0)" xlink:href="#_162"/><linearGradient id="_210-4" x1="78.859" y1="57.528" x2="82.409" y2="57.528" gradientTransform="matrix(1, 0, 0, 1, 0, 0)" xlink:href="#_210"/><linearGradient id="_210-5" x1="79.425" y1="70.668" x2="83.251" y2="70.668" gradientTransform="matrix(1, 0, 0, 1, 0, 0)" xlink:href="#_210"/><linearGradient id="_210-6" x1="76.693" y1="66.963" x2="78.091" y2="66.963" gradientTransform="matrix(1, 0, 0, 1, 0, 0)" xlink:href="#_210"/><linearGradient id="_320-2" x1="79.981" y1="46.695" x2="83.798" y2="46.695" gradientTransform="matrix(1, 0, 0, 1, 0, 0)" xlink:href="#_320"/><linearGradient id="_110-2" x1="61.225" y1="45.011" x2="68.922" y2="45.011" xlink:href="#_110"/><radialGradient id="radial-gradient-14" cx="996.964" cy="61.487" r="10.915" gradientTransform="translate(-797.608) scale(0.851 1)" gradientUnits="userSpaceOnUse"><stop offset="0.006" stop-color="#662d89"/><stop offset="0.175" stop-color="#4e2268" stop-opacity="0.76"/><stop offset="0.437" stop-color="#2c143b" stop-opacity="0.434"/><stop offset="0.671" stop-color="#14091b" stop-opacity="0.197"/><stop offset="0.867" stop-color="#050207" stop-opacity="0.052"/><stop offset="1" stop-opacity="0"/></radialGradient><radialGradient id="_423" cx="53.977" cy="57.142" r="6.935" gradientUnits="userSpaceOnUse"><stop offset="0" stop-color="#b1b5bd"/><stop offset="0.137" stop-color="#abaebd"/><stop offset="0.336" stop-color="#9b9bbf"/><stop offset="0.57" stop-color="#817cc0"/><stop offset="0.754" stop-color="#685ec2"/><stop offset="0.975" stop-color="#7a75d8"/></radialGradient><linearGradient id="_68" x1="41.819" y1="55.577" x2="60.752" y2="55.577" gradientUnits="userSpaceOnUse"><stop offset="0" stop-color="#9a69a4"/><stop offset="0.134" stop-color="#a275ab"/><stop offset="0.375" stop-color="#b795bf"/><stop offset="0.694" stop-color="#dac8dd"/><stop offset="1" stop-color="#fff"/></linearGradient><linearGradient id="_230" x1="32.255" y1="42.66" x2="69.992" y2="42.66" gradientUnits="userSpaceOnUse"><stop offset="0" stop-color="#860057"/><stop offset="0.026" stop-color="#8c0555"/><stop offset="0.186" stop-color="#a9224b"/><stop offset="0.355" stop-color="#c13842"/><stop offset="0.536" stop-color="#d1483d"/><stop offset="0.736" stop-color="#db5139"/><stop offset="0.994" stop-color="#de5438"/></linearGradient><linearGradient id="_68-2" x1="32.255" y1="42.657" x2="69.992" y2="42.657" xlink:href="#_68"/><linearGradient id="_435" x1="23.242" y1="25.697" x2="65.745" y2="25.697" gradientUnits="userSpaceOnUse"><stop offset="0.025" stop-color="#7a82ed"/><stop offset="0.206" stop-color="#7a75ed"/><stop offset="0.986" stop-color="#fdd3be"/><stop offset="1" stop-color="#ffd5bd"/></linearGradient><radialGradient id="_162-3" cx="56.116" cy="6.783" r="25.451" gradientTransform="matrix(1, 0, 0, 1, 0, 0)" xlink:href="#_162"/><linearGradient id="_68-3" x1="47.1" y1="18.903" x2="37.958" y2="11.414" xlink:href="#_68"/><linearGradient id="_61" x1="50.517" y1="25.35" x2="50.517" y2="6.754" gradientUnits="userSpaceOnUse"><stop offset="0" stop-color="#fff"/><stop offset="1"/></linearGradient><radialGradient id="_472" cx="50.517" cy="137.866" r="5.166" gradientTransform="translate(0 -102.943) scale(1 0.889)" gradientUnits="userSpaceOnUse"><stop offset="0.006" stop-color="#60dbff"/><stop offset="0.182" stop-color="#56d5ff"/><stop offset="0.479" stop-color="#3cc4ff"/><stop offset="0.857" stop-color="#12a9ff"/><stop offset="1" stop-color="#009dff"/></radialGradient><linearGradient id="_214" x1="50.293" y1="20.661" x2="50.293" y2="17.549" gradientUnits="userSpaceOnUse"><stop offset="0" stop-color="#e7e3f4"/><stop offset="0.073" stop-color="#dfd6ec"/><stop offset="0.372" stop-color="#c1a7cd"/><stop offset="0.637" stop-color="#ac85b7"/><stop offset="0.856" stop-color="#9f71a9"/><stop offset="1" stop-color="#9a69a4"/></linearGradient><linearGradient id="_435-2" x1="33.914" y1="30.693" x2="33.914" y2="33.591" xlink:href="#_435"/><linearGradient id="_435-3" x1="44.704" y1="31.814" x2="44.704" y2="35.062" xlink:href="#_435"/><linearGradient id="_435-4" x1="58.548" y1="31.814" x2="58.548" y2="34.572" xlink:href="#_435"/><linearGradient id="_435-5" x1="68.311" y1="29.933" x2="68.311" y2="33.154" xlink:href="#_435"/><linearGradient id="_68-4" x1="31.325" y1="31.827" x2="36.502" y2="31.827" xlink:href="#_68"/><linearGradient id="_68-5" x1="40.911" y1="33.049" x2="48.497" y2="33.049" xlink:href="#_68"/><linearGradient id="_68-6" x1="55.111" y1="33.095" x2="61.984" y2="33.095" xlink:href="#_68"/><linearGradient id="_68-7" x1="65.097" y1="31.444" x2="71.526" y2="31.444" xlink:href="#_68"/><radialGradient id="_423-2" cx="57.3" cy="30.659" r="19.146" xlink:href="#_423"/><radialGradient id="_423-3" cx="52.971" cy="7.788" r="5.442" xlink:href="#_423"/><linearGradient id="_435-6" x1="46.066" y1="5.974" x2="54.673" y2="5.974" xlink:href="#_435"/><radialGradient id="_162-4" cx="-1841.938" cy="-250.587" r="4.981" gradientTransform="matrix(1.774, 0.101, -0.057, 0.998, 3307.075, 439.574)" xlink:href="#_162"/><linearGradient id="_89" x1="48.417" y1="3.542" x2="50.017" y2="3.542" gradientUnits="userSpaceOnUse"><stop offset="0" stop-color="#623964"/><stop offset="1" stop-color="#ffc209"/></linearGradient><radialGradient id="radial-gradient-15" cx="1510.276" cy="350.626" r="1.708" gradientTransform="translate(-1131.133 -516.363) scale(0.783 1.48)" gradientUnits="userSpaceOnUse"><stop offset="0.006" stop-color="#f4ff09"/><stop offset="0.066" stop-color="#dfe908" stop-opacity="0.912"/><stop offset="0.267" stop-color="#9ca306" stop-opacity="0.639"/><stop offset="0.457" stop-color="#646904" stop-opacity="0.411"/><stop offset="0.631" stop-color="#393c02" stop-opacity="0.234"/><stop offset="0.785" stop-color="#1a1b01" stop-opacity="0.106"/><stop offset="0.913" stop-color="#070700" stop-opacity="0.028"/><stop offset="1" stop-opacity="0"/></radialGradient><radialGradient id="_494" cx="52.769" cy="6.814" r="2.099" gradientTransform="matrix(1, 0, 0, 1, 0, 0)" xlink:href="#_320"/><radialGradient id="_494-2" cx="64.503" cy="27.392" r="4.285" gradientTransform="matrix(1, 0, 0, 1, 0, 0)" xlink:href="#_320"/><linearGradient id="_119-5" x1="50.517" y1="43.914" x2="53.652" y2="43.914" gradientTransform="translate(0 15.171) scale(1 1.032)" xlink:href="#_119"/><radialGradient id="_162-5" cx="52.493" cy="35.563" r="6.276" gradientTransform="matrix(1, 0, 0, 1, 0, 0)" xlink:href="#_162"/><linearGradient id="_110-3" x1="45.206" y1="47.748" x2="51.172" y2="47.748" xlink:href="#_110"/><linearGradient id="_320-3" x1="45.206" y1="27.099" x2="70.527" y2="27.099" gradientTransform="matrix(1, 0, 0, 1, 0, 0)" xlink:href="#_320"/><linearGradient id="_89-2" x1="58.805" y1="55.454" x2="60.627" y2="42.098" xlink:href="#_89"/><linearGradient id="_68-8" x1="43.989" y1="27.345" x2="31.979" y2="28.146" xlink:href="#_68"/><radialGradient id="radial-gradient-16" cx="57.866" cy="12.099" r="3.623" gradientTransform="matrix(1, 0, 0, 1, 0, 0)" xlink:href="#radial-gradient-15"/></defs><title>ship-7</title><g class="cls-1"><g id="Layer_2" data-name="Layer 2"><g id="Spaceships"><g id="ship-7"><path class="cls-2" d="M42.06,140.99S46.58,90.28,45.008,58.3l12.681.128c1.617,53.349,7.035,82.561,7.035,82.561Z"/><path class="cls-3" d="M79.039,142.628c0,1.533-11.762,2.776-26.271,2.776s-26.27-1.243-26.27-2.776,11.761-2.776,26.27-2.776S79.039,141.1,79.039,142.628Z"/><path class="cls-4" d="M45.12,57.243C44.812,107.7,36.8,140.99,36.8,140.99h8.016l1.612-83.955S45.122,56.913,45.12,57.243Z"/><polygon class="cls-5" points="53.725 56.533 54.736 140.99 56.376 140.99 55.051 56.283 53.725 56.533"/><polygon class="cls-6" points="49.678 56.023 47.77 140.99 59.484 140.99 57.353 57.035 49.678 56.023"/><ellipse class="cls-7" cx="53.493" cy="142.628" rx="53.493" ry="5.996"/><ellipse class="cls-8" cx="50.307" cy="72.475" rx="14.418" ry="39.519"/><path class="cls-9" d="M51.033,92.041c-.306,21.712-2.015,39.054-3.817,38.735S44.2,112.6,44.507,90.885s2.015-39.054,3.817-38.735S51.339,70.329,51.033,92.041Z"/><ellipse class="cls-10" cx="54.514" cy="106.036" rx="5.135" ry="39.256"/><circle class="cls-11" cx="32.006" cy="135.293" r="5.29"/><circle class="cls-12" cx="68.182" cy="125.854" r="5.29"/><path class="cls-13" d="M42.586,115.273a5.29,5.29,0,1,1-5.29-5.29A5.29,5.29,0,0,1,42.586,115.273Z"/><circle class="cls-14" cx="70.916" cy="98.507" r="5.29"/><circle class="cls-15" cx="69.992" cy="139.142" r="5.29"/><path class="cls-16" d="M44.389,106.036c-6.5,16.949-17.674,36.839-17.674,36.839l14.805.369s1.292-11.59,1.954-18.6C44.7,111.634,44.389,106.036,44.389,106.036Z"/><path class="cls-17" d="M58.866,106.036c6.5,16.949,17.674,36.839,17.674,36.839l-14.805.369s-1.6-11.568-1.954-18.6C59.247,113.968,58.866,106.036,58.866,106.036Z"/><path class="cls-18" d="M52.084,88.411s-1.345,40.331-3.747,54.833h6.714S51.378,97.121,52.084,88.411Z"/><path class="cls-19" d="M33.081,135.362a.826.826,0,1,1-.826-.825A.826.826,0,0,1,33.081,135.362Z"/><path class="cls-20" d="M37.886,120.019a.545.545,0,1,1-.545-.546A.545.545,0,0,1,37.886,120.019Z"/><path class="cls-21" d="M37.886,115.273a.413.413,0,1,1-.413-.412A.413.413,0,0,1,37.886,115.273Z"/><path class="cls-22" d="M68.856,125.854a.413.413,0,1,1-.412-.413A.412.412,0,0,1,68.856,125.854Z"/><circle class="cls-23" cx="69.992" cy="139.142" r="0.826"/><path class="cls-24" d="M67.277,138.569a.252.252,0,1,1-.252-.252A.252.252,0,0,1,67.277,138.569Z"/><path class="cls-25" d="M72.169,99.332a.826.826,0,1,1-.826-.825A.826.826,0,0,1,72.169,99.332Z"/><path class="cls-26" d="M57.325,120.915a.475.475,0,1,1-.475-.474A.475.475,0,0,1,57.325,120.915Z"/><path class="cls-27" d="M50.205,110.809a.826.826,0,1,1-.826-.826A.825.825,0,0,1,50.205,110.809Z"/><path class="cls-28" d="M44.039,102.613a.468.468,0,1,1-.468-.467A.468.468,0,0,1,44.039,102.613Z"/><path class="cls-29" d="M42.684,109.619a.462.462,0,1,1-.461-.462A.461.461,0,0,1,42.684,109.619Z"/><path class="cls-30" d="M62.374,115.549a.279.279,0,1,1-.279-.278A.279.279,0,0,1,62.374,115.549Z"/><ellipse class="cls-31" cx="53.02" cy="110.471" rx="29.984" ry="34.933"/><ellipse class="cls-32" cx="52.084" cy="82.587" rx="45.2" ry="39.66"/><ellipse class="cls-33" cx="52.768" cy="117.503" rx="32.989" ry="32.647"/><path class="cls-34" d="M24.986,36.716s7.97,4.636,13.975,4.759l.583,1.185s-9.92-.8-16.048-6.146Z"/><path class="cls-35" d="M25.344,80.087,26.5,78.108S26.808,58.7,31.52,45.2L30.013,44S23.4,69.1,25.344,80.087Z"/><path class="cls-36" d="M39.544,42.66A72.143,72.143,0,0,1,23.5,36.514a14.828,14.828,0,0,0-3.987,2.335S16.3,65.4,22.232,80.087h3.112s.2-19.259,5.567-35.208a46.082,46.082,0,0,0,8.633,3.4Z"/><path class="cls-37" d="M21.8,57.528c3.61-.523,2.311,7.122.45,7.03S16.466,58.3,21.8,57.528Z"/><path class="cls-38" d="M22.556,67.929C24.242,71.755,20.7,75.3,20.7,75.3a58.037,58.037,0,0,1-1.513-8.926S21.246,64.957,22.556,67.929Z"/><path class="cls-39" d="M24,66.088c1.031.085,2.861,2.859-.914,1.257C22.257,67,23.1,66.014,24,66.088Z"/><path class="cls-40" d="M22.455,36.97l-2.428,2.365s-.955,11.931-1.385,17.085a164.507,164.507,0,0,1,.867-17.571A25.62,25.62,0,0,1,22.455,36.97Z"/><path class="cls-41" d="M34.776,40.824H33.2s-.114,2.631,2.537,6.164L41.4,48.879l-2.436-7.4A19.232,19.232,0,0,1,34.776,40.824Z"/><path class="cls-42" d="M77.45,36.716s-7.97,4.636-13.975,4.759l-.583,1.185s9.92-.8,16.048-6.146Z"/><path class="cls-43" d="M77.092,80.087l-1.156-1.979S75.628,58.7,70.916,45.2L72.423,44S79.037,69.1,77.092,80.087Z"/><path class="cls-44" d="M62.892,42.66A72.143,72.143,0,0,0,78.94,36.514a14.828,14.828,0,0,1,3.987,2.335S86.137,65.4,80.2,80.087H77.092S76.9,60.828,71.525,44.879a46.082,46.082,0,0,1-8.633,3.4Z"/><path class="cls-45" d="M81.415,54.507c-3.63.363-2.852,6.137-.992,6.045S83.275,54.321,81.415,54.507Z"/><path class="cls-46" d="M79.88,67.929c-1.686,3.826,1.858,7.37,1.858,7.37a58.037,58.037,0,0,0,1.513-8.926S81.19,64.957,79.88,67.929Z"/><path class="cls-47" d="M77.417,65.532c-1.031.085-.9,2.864,0,2.864S78.317,65.457,77.417,65.532Z"/><path class="cls-48" d="M79.981,36.97l2.428,2.365s.955,11.931,1.385,17.085a164.507,164.507,0,0,0-.867-17.571A25.62,25.62,0,0,0,79.981,36.97Z"/><path class="cls-49" d="M67.661,40.824l1.261.017A14.3,14.3,0,0,1,67.475,46.7l-6.25,2.5,1.667-6.538Z"/><ellipse class="cls-50" cx="50.808" cy="61.487" rx="9.288" ry="10.915"/><path class="cls-51" d="M41.819,53.859,42.6,57.3a19.878,19.878,0,0,0,8.575,1.685,28.742,28.742,0,0,0,8.283-.972l1.3-4.15Z"/><path class="cls-52" d="M42.6,57.3c5.868-1,15.764-1.443,17.081,0l1.074-3.437H41.819Z"/><path class="cls-53" d="M69.992,29.025s-.424,2.257-1.232,5.547c-1.453,5.917-4.147,15.179-7.844,20.681a62.462,62.462,0,0,1-11.461,1.036,20.919,20.919,0,0,1-8.544-1.574s-6.127-12.754-8.656-25.69Z"/><path class="cls-54" d="M69.992,29.025s-.424,2.257-1.232,5.547c-13.357-.489-27.276,1.359-29.215,4.714S41.566,52.774,44.7,54.5a15.826,15.826,0,0,0,4.751,1.785,20.919,20.919,0,0,1-8.544-1.574s-6.127-12.754-8.656-25.69Z"/><path class="cls-55" d="M54.333,22.46c-18.855-.707-24.412,2.631-24.412,2.631s3.89,4.129,21.689,3.934,20.813-3.934,20.813-3.934S66,22.9,54.333,22.46Z"/><path class="cls-56" d="M68.922,24.649a64.107,64.107,0,0,1-23.054,2.83A50.776,50.776,0,0,1,33.2,25.091s-.065-16.9,17.15-17.33a21.337,21.337,0,0,1,5.186.471C67.847,10.981,68.922,24.649,68.922,24.649Z"/><path class="cls-57" d="M55.531,8.232l-.42.466C53.749,10.3,43.2,10.74,43.2,10.74s-3.015.73-4.474,5.593,1.215,9.21,7.145,11.146A50.776,50.776,0,0,1,33.2,25.091s-.065-16.9,17.15-17.33A21.337,21.337,0,0,1,55.531,8.232Z"/><path class="cls-58" d="M59.06,18.918c0,4.2-3.825,7.6-8.543,7.6s-8.544-3.4-8.544-7.6,3.6-8.911,8.32-8.911S59.06,14.724,59.06,18.918Z"/><path class="cls-59" d="M57.507,19.309c0,3.433-3.012,5.782-6.873,5.782s-7.108-2.349-7.108-5.782,3.13-6.214,6.991-6.214S57.507,15.877,57.507,19.309Z"/><path class="cls-60" d="M55.5,19.309a5.275,5.275,0,0,1-4.98,5.078,5.274,5.274,0,0,1-4.98-5.078,4.728,4.728,0,0,1,4.98-4.427A4.728,4.728,0,0,1,55.5,19.309Z"/><path class="cls-61" d="M43.526,18.918l2.159,1.466s1.288-2.07,5.243-2.07c4.02,0,4.547,1.4,4.547,1.4l1.623-2.5s-1.4-3.9-6.581-4.115S43.161,17.485,43.526,18.918Z"/><path class="cls-62" d="M36.5,31.819a2.7,2.7,0,0,1-.67,1.1c-.029.028-.047.043-.047.043a2.789,2.789,0,0,1-3.53,0h0a2.3,2.3,0,0,1-.891-2.268Z"/><path class="cls-63" d="M48.5,32.4a4.12,4.12,0,0,1-.971,1.663,4.061,4.061,0,0,1-5.07.224h0a3.073,3.073,0,0,1-1.545-2.469Z"/><path class="cls-64" d="M61.984,31.814a2.184,2.184,0,0,1-.315,1.131,4.08,4.08,0,0,1-4.549,1.432,3.073,3.073,0,0,1-2.009-2.045Z"/><path class="cls-65" d="M71.124,31.331a3.763,3.763,0,0,1-4.284,1.624h0l-.018-.008a2.534,2.534,0,0,1-.245-.111A3.782,3.782,0,0,1,65.1,31.39l6.419-1.457A2.2,2.2,0,0,1,71.124,31.331Z"/><path class="cls-66" d="M36.5,31.819a2.7,2.7,0,0,1-.67,1.1c-.029.028-.047.043-.047.043-.115-.637-2.8-.872-3.53,0h0a2.3,2.3,0,0,1-.891-2.268Z"/><path class="cls-67" d="M48.5,32.4a4.12,4.12,0,0,1-.971,1.663c-.146-1.045-5.01-.609-5.07.223a3.073,3.073,0,0,1-1.545-2.469Z"/><path class="cls-68" d="M61.984,31.814a2.184,2.184,0,0,1-.315,1.131h0c-.542-.457-4.271.361-4.547,1.432h0a3.073,3.073,0,0,1-2.009-2.045Z"/><path class="cls-69" d="M71.124,31.331c-.594-1.05-3.562.441-4.284,1.624h0l-.018-.008-.245-.111A3.782,3.782,0,0,1,65.1,31.39l6.419-1.457A2.2,2.2,0,0,1,71.124,31.331Z"/><path class="cls-70" d="M29.921,25.091a12.739,12.739,0,0,0,0,5.491s16.145,6.577,42.5-.456c0,0,.681-1.383,0-5.035,0,0-9.823,4.129-24.315,3.156S29.921,25.091,29.921,25.091Z"/><path class="cls-71" d="M45.871,8.7l.2-2.788,8.607.072L55.111,8.7A15.325,15.325,0,0,1,45.871,8.7Z"/><path class="cls-72" d="M54.673,5.982c0,.465-2,.834-4.38.834s-4.227-.441-4.227-.906,1.845-.778,4.227-.778S54.673,5.517,54.673,5.982Z"/><path class="cls-73" d="M48.4,5.974a4.379,4.379,0,0,0,3.777.1s-.369-5.4-1.737-5.4S48.4,5.974,48.4,5.974Z"/><path class="cls-74" d="M50.577,1.275c-.455,1.351.55,2,.579,1.363S50.7.927,50.577,1.275Z"/><path class="cls-75" d="M49.72,1.207c1.124,2.352-1.3,4.669-1.3,4.669a23.21,23.21,0,0,1,.8-3.58C49.61,1.39,49.72,1.207,49.72,1.207Z"/><path class="cls-76" d="M52.145,2.528c0,1.4-.6,2.528-1.337,2.528s-1.336-1.132-1.336-2.528S50.07,0,50.808,0,52.145,1.132,52.145,2.528Z"/><polygon class="cls-77" points="51.707 6.816 53.504 6.548 53.699 9.078 51.464 9.379 51.707 6.816"/><path class="cls-78" d="M66.46,26.866s-2.427.543-5.235.946v4.635s3.784-.6,5.615-1Z"/><polygon class="cls-79" points="53.652 39.587 50.517 39.286 51.792 81.74 52.911 81.74 53.652 39.587"/><polygon class="cls-80" points="50.517 39.286 53.652 39.587 53.3 36.514 51.059 36.514 50.517 39.286"/><path class="cls-81" d="M51.059,36.514s-2.79,4.885-5.853,19.447l3.259.335-1,2.406,3.709.279-.655-19.695Z"/><path class="cls-82" d="M45.206,28.025s13.649,1.831,25.321-2.26C70.527,25.765,60.767,28.985,45.206,28.025Z"/><path class="cls-83" d="M60.916,55.253c6.5-12.6,5.031-26.819-1.444-14.848-2.963,5.478-5.143,15.712-5.143,15.712Z"/><path class="cls-84" d="M35.072,32.024a45.667,45.667,0,0,1,5.064-4.545h5.732A54.832,54.832,0,0,1,33.2,25.091l.062-1.115s-2.85.552-3.336,1.115c0,0-.746,3.545,0,5.491Z"/><path class="cls-74" d="M61.225,38.051a9.087,9.087,0,0,0-2.852,4.667C58.281,43.242,61.973,37.478,61.225,38.051Z"/><path class="cls-74" d="M57.507,10.135c-1.448-.074.51,2.285,1.359,1.964S58.346,10.178,57.507,10.135Z"/><path class="cls-85" d="M49.217,22.9c-.456.381,1.712.662,1.955.186S50.226,22.053,49.217,22.9Z"/><path class="cls-86" d="M61.49,12.1a3.624,3.624,0,1,1-3.624-3.624A3.624,3.624,0,0,1,61.49,12.1Z"/></g></g></g></g></svg>