<svg xmlns="http://www.w3.org/2000/svg" xmlns:xlink="http://www.w3.org/1999/xlink" viewBox="0 0 111.583 157.875"><defs><style>.cls-1{isolation:isolate;}.cls-10,.cls-100,.cls-103,.cls-104,.cls-105,.cls-106,.cls-107,.cls-108,.cls-109,.cls-11,.cls-12,.cls-13,.cls-14,.cls-15,.cls-16,.cls-17,.cls-18,.cls-19,.cls-2,.cls-20,.cls-22,.cls-23,.cls-24,.cls-25,.cls-26,.cls-3,.cls-30,.cls-31,.cls-32,.cls-33,.cls-34,.cls-35,.cls-36,.cls-37,.cls-38,.cls-39,.cls-4,.cls-40,.cls-41,.cls-42,.cls-43,.cls-44,.cls-45,.cls-46,.cls-47,.cls-48,.cls-49,.cls-5,.cls-50,.cls-51,.cls-52,.cls-53,.cls-54,.cls-55,.cls-56,.cls-57,.cls-58,.cls-59,.cls-6,.cls-60,.cls-61,.cls-62,.cls-63,.cls-64,.cls-65,.cls-66,.cls-67,.cls-68,.cls-69,.cls-7,.cls-70,.cls-71,.cls-72,.cls-73,.cls-74,.cls-75,.cls-76,.cls-77,.cls-78,.cls-79,.cls-8,.cls-80,.cls-81,.cls-83,.cls-84,.cls-86,.cls-87,.cls-89,.cls-9,.cls-90,.cls-91,.cls-92,.cls-93,.cls-94,.cls-95,.cls-96,.cls-97,.cls-98,.cls-99{fill-rule:evenodd;}.cls-2{fill:url(#_472);}.cls-105,.cls-107,.cls-109,.cls-3,.cls-4,.cls-89,.cls-90,.cls-91,.cls-92,.cls-93{mix-blend-mode:multiply;}.cls-3{fill:url(#_240);}.cls-4{fill:url(#_214);}.cls-5{fill:url(#_169);}.cls-6{fill:url(#_38);}.cls-7{fill:url(#_38-2);}.cls-8{fill:url(#_38-3);}.cls-9{fill:url(#_38-4);}.cls-10,.cls-100,.cls-101,.cls-11,.cls-12,.cls-13,.cls-21,.cls-22,.cls-23,.cls-24,.cls-25,.cls-26,.cls-88,.cls-94,.cls-95,.cls-96,.cls-97,.cls-98,.cls-99{mix-blend-mode:screen;}.cls-10{fill:url(#radial-gradient);}.cls-11{fill:url(#radial-gradient-2);}.cls-12{fill:url(#radial-gradient-3);}.cls-13{fill:url(#radial-gradient-4);}.cls-14{fill:url(#_162);}.cls-15{fill:url(#_162-2);}.cls-16{fill:url(#_162-3);}.cls-17{fill:url(#_162-4);}.cls-18{fill:url(#_114);}.cls-19{fill:#fff;}.cls-20{fill:url(#_132);}.cls-21{fill:url(#radial-gradient-5);}.cls-22{fill:url(#radial-gradient-6);}.cls-23{fill:url(#linear-gradient);}.cls-24{fill:url(#linear-gradient-2);}.cls-25{fill:url(#linear-gradient-3);}.cls-26{fill:url(#linear-gradient-4);}.cls-102,.cls-27,.cls-28,.cls-29,.cls-30,.cls-82,.cls-83,.cls-84,.cls-85,.cls-86{mix-blend-mode:color-dodge;}.cls-27{fill:url(#radial-gradient-7);}.cls-28{fill:url(#radial-gradient-8);}.cls-29{fill:url(#radial-gradient-9);}.cls-30{fill:url(#radial-gradient-10);}.cls-31{fill:url(#_45);}.cls-32{fill:url(#_45-2);}.cls-33{fill:url(#_45-3);}.cls-34{fill:url(#_45-4);}.cls-35{fill:url(#_45-5);}.cls-36{fill:url(#_45-6);}.cls-37{fill:url(#_45-7);}.cls-38{fill:url(#_45-8);}.cls-39{fill:url(#_45-9);}.cls-40{fill:url(#_45-10);}.cls-41{fill:url(#_45-11);}.cls-42{fill:url(#_45-12);}.cls-43{fill:url(#_45-13);}.cls-44{fill:url(#_45-14);}.cls-45{fill:url(#_45-15);}.cls-46{fill:url(#_45-16);}.cls-47{fill:url(#_45-17);}.cls-48{fill:url(#_45-18);}.cls-49{fill:url(#_45-19);}.cls-50{fill:url(#_45-20);}.cls-51{fill:url(#_45-21);}.cls-52{fill:url(#_45-22);}.cls-53{fill:url(#_45-23);}.cls-54{fill:url(#_45-24);}.cls-55{fill:url(#_45-25);}.cls-56{fill:url(#_45-26);}.cls-57{fill:url(#_45-27);}.cls-58{fill:url(#_45-28);}.cls-59{fill:url(#_45-29);}.cls-60{fill:url(#_45-30);}.cls-61{fill:url(#_45-31);}.cls-62{fill:url(#_45-32);}.cls-63{fill:url(#_45-33);}.cls-64{fill:url(#_45-34);}.cls-65{fill:url(#_45-35);}.cls-66{fill:url(#_45-36);}.cls-67{fill:url(#_45-37);}.cls-68{fill:url(#_45-38);}.cls-69{fill:url(#_45-39);}.cls-70{fill:url(#_45-40);}.cls-71{fill:url(#_45-41);}.cls-72{fill:url(#_45-42);}.cls-73{fill:url(#_45-43);}.cls-74{fill:url(#_45-44);}.cls-75{fill:url(#_45-45);}.cls-76{fill:url(#_45-46);}.cls-77{fill:url(#_45-47);}.cls-78{fill:url(#_45-48);}.cls-79{fill:url(#_45-49);}.cls-80{fill:url(#_45-50);}.cls-81{fill:url(#_45-51);}.cls-82{fill:url(#radial-gradient-11);}.cls-83{fill:url(#radial-gradient-12);}.cls-84{fill:url(#radial-gradient-13);}.cls-85{fill:url(#radial-gradient-14);}.cls-86{fill:url(#radial-gradient-15);}.cls-87{fill:url(#_157);}.cls-88{opacity:0.69;fill:url(#radial-gradient-16);}.cls-89{fill:url(#_210);}.cls-90{fill:url(#_210-2);}.cls-91{fill:url(#_210-3);}.cls-92{fill:url(#_210-4);}.cls-93{fill:url(#_210-5);}.cls-94{fill:url(#_494);}.cls-95{fill:url(#_494-2);}.cls-100,.cls-96,.cls-97,.cls-98,.cls-99{opacity:0.44;}.cls-96{fill:url(#_501);}.cls-97{fill:url(#_501-2);}.cls-98{fill:url(#_501-3);}.cls-99{fill:url(#_501-4);}.cls-100{fill:url(#_501-5);}.cls-101{fill:url(#radial-gradient-17);}.cls-102{opacity:0.52;fill:url(#radial-gradient-18);}.cls-103{fill:#1c1042;}.cls-104{fill:url(#_79);}.cls-105,.cls-107,.cls-109{opacity:0.73;}.cls-105{fill:url(#_68);}.cls-106{fill:url(#_79-2);}.cls-107{fill:url(#_68-2);}.cls-108{fill:url(#_79-3);}.cls-109{fill:url(#_68-3);}</style><radialGradient id="_472" cx="401.209" cy="1097.326" r="37.605" gradientTransform="translate(-501.846 -976.112) rotate(-8.685)" gradientUnits="userSpaceOnUse"><stop offset="0.006" stop-color="#60dbff"/><stop offset="0.182" stop-color="#56d5ff"/><stop offset="0.479" stop-color="#3cc4ff"/><stop offset="0.857" stop-color="#12a9ff"/><stop offset="1" stop-color="#009dff"/></radialGradient><linearGradient id="_240" x1="402.046" y1="1083.381" x2="386.587" y2="1109.571" gradientTransform="translate(-501.846 -976.112) rotate(-8.685)" gradientUnits="userSpaceOnUse"><stop offset="0" stop-color="#fff"/><stop offset="0.098" stop-color="#edf4ff"/><stop offset="0.39" stop-color="#bed7ff"/><stop offset="0.647" stop-color="#9cc2ff"/><stop offset="0.86" stop-color="#88b6ff"/><stop offset="1" stop-color="#80b1ff"/></linearGradient><linearGradient id="_214" x1="380.614" y1="1083.57" x2="365.31" y2="1083.57" gradientTransform="translate(-501.846 -976.112) rotate(-8.685)" gradientUnits="userSpaceOnUse"><stop offset="0" stop-color="#e7e3f4"/><stop offset="0.073" stop-color="#dfd6ec"/><stop offset="0.372" stop-color="#c1a7cd"/><stop offset="0.637" stop-color="#ac85b7"/><stop offset="0.856" stop-color="#9f71a9"/><stop offset="1" stop-color="#9a69a4"/></linearGradient><radialGradient id="_169" cx="415.157" cy="1140.049" r="58.831" gradientTransform="translate(-501.846 -976.112) rotate(-8.685)" gradientUnits="userSpaceOnUse"><stop offset="0.006" stop-color="#ff9aff"/><stop offset="0.082" stop-color="#fb94ff"/><stop offset="0.184" stop-color="#f183ff"/><stop offset="0.301" stop-color="#e068ff"/><stop offset="0.427" stop-color="#c841ff"/><stop offset="0.561" stop-color="#a910ff"/><stop offset="0.601" stop-color="#9f00ff"/><stop offset="0.64" stop-color="#9100f0"/><stop offset="0.735" stop-color="#7600d2"/><stop offset="0.828" stop-color="#6200bc"/><stop offset="0.917" stop-color="#5600af"/><stop offset="1" stop-color="#5200ab"/></radialGradient><linearGradient id="_38" x1="348.447" y1="1097.836" x2="347.315" y2="1094.118" gradientTransform="translate(-501.846 -976.112) rotate(-8.685)" gradientUnits="userSpaceOnUse"><stop offset="0.006" stop-color="#fc0"/><stop offset="0.223" stop-color="#fec902"/><stop offset="0.408" stop-color="#fcbe08"/><stop offset="0.581" stop-color="#f8ad13"/><stop offset="0.748" stop-color="#f29422"/><stop offset="0.907" stop-color="#ea7435"/><stop offset="1" stop-color="#e55e42"/></linearGradient><linearGradient id="_38-2" x1="370.287" y1="1097.084" x2="369.641" y2="1092.881" xlink:href="#_38"/><linearGradient id="_38-3" x1="412.989" y1="1102.102" x2="414.073" y2="1097.627" xlink:href="#_38"/><linearGradient id="_38-4" x1="442.129" y1="1110.831" x2="443.343" y2="1106.098" xlink:href="#_38"/><radialGradient id="radial-gradient" cx="346.732" cy="1094.768" r="5.456" gradientTransform="translate(-501.846 -976.112) rotate(-8.685)" gradientUnits="userSpaceOnUse"><stop offset="0.006" stop-color="#f4ff09"/><stop offset="0.066" stop-color="#dfe908" stop-opacity="0.912"/><stop offset="0.267" stop-color="#9ca306" stop-opacity="0.639"/><stop offset="0.457" stop-color="#646904" stop-opacity="0.411"/><stop offset="0.631" stop-color="#393c02" stop-opacity="0.234"/><stop offset="0.785" stop-color="#1a1b01" stop-opacity="0.106"/><stop offset="0.913" stop-color="#070700" stop-opacity="0.028"/><stop offset="1" stop-opacity="0"/></radialGradient><radialGradient id="radial-gradient-2" cx="369.709" cy="1093.911" r="5.456" xlink:href="#radial-gradient"/><radialGradient id="radial-gradient-3" cx="413.754" cy="1098.714" r="5.456" xlink:href="#radial-gradient"/><radialGradient id="radial-gradient-4" cx="443.098" cy="1107.286" r="5.456" xlink:href="#radial-gradient"/><radialGradient id="_162" cx="350.557" cy="1096.438" r="6.747" gradientTransform="translate(-501.846 -976.112) rotate(-8.685)" gradientUnits="userSpaceOnUse"><stop offset="0" stop-color="#ffd5bd"/><stop offset="0.103" stop-color="#f8d0bf"/><stop offset="0.253" stop-color="#e5c2c6"/><stop offset="0.43" stop-color="#c5abd2"/><stop offset="0.627" stop-color="#9a8ce1"/><stop offset="0.754" stop-color="#7a75ed"/><stop offset="0.975" stop-color="#7a82ed"/></radialGradient><radialGradient id="_162-2" cx="372.386" cy="1095.39" r="6.54" xlink:href="#_162"/><radialGradient id="_162-3" cx="416.25" cy="1100.537" r="8.258" xlink:href="#_162"/><radialGradient id="_162-4" cx="444.487" cy="1109.422" r="9.196" xlink:href="#_162"/><radialGradient id="_114" cx="420.647" cy="1107.223" r="60.854" gradientTransform="translate(-501.846 -976.112) rotate(-8.685)" gradientUnits="userSpaceOnUse"><stop offset="0" stop-color="#ccc7bf"/><stop offset="0.121" stop-color="#c5c0bf"/><stop offset="0.296" stop-color="#b3adc0"/><stop offset="0.504" stop-color="#958dc1"/><stop offset="0.735" stop-color="#6c62c2"/><stop offset="0.754" stop-color="#685ec2"/><stop offset="0.975" stop-color="#7a75d8"/></radialGradient><linearGradient id="_132" x1="-162.89" y1="1794.471" x2="-141.446" y2="1794.471" gradientTransform="matrix(-1.678, -0.014, 0.012, -1.397, -222.706, 2569.146)" gradientUnits="userSpaceOnUse"><stop offset="0" stop-color="#e55e42"/><stop offset="0.093" stop-color="#ea7435"/><stop offset="0.252" stop-color="#f29422"/><stop offset="0.419" stop-color="#f8ad13"/><stop offset="0.592" stop-color="#fcbe08"/><stop offset="0.777" stop-color="#fec902"/><stop offset="0.994" stop-color="#fc0"/></linearGradient><radialGradient id="radial-gradient-5" cx="-3391.446" cy="-9043.787" r="19.277" gradientTransform="translate(7796.878 2773.178) scale(2.283 0.29)" gradientUnits="userSpaceOnUse"><stop offset="0" stop-color="#067fff"/><stop offset="0.144" stop-color="#0569d4" stop-opacity="0.831"/><stop offset="0.46" stop-color="#033d7a" stop-opacity="0.479"/><stop offset="0.718" stop-color="#011c38" stop-opacity="0.221"/><stop offset="0.904" stop-color="#000810" stop-opacity="0.061"/><stop offset="1" stop-opacity="0"/></radialGradient><radialGradient id="radial-gradient-6" cx="-3559.193" cy="-7060.051" r="10.278" gradientTransform="translate(8450.768 2464.23) scale(2.359 0.327)" gradientUnits="userSpaceOnUse"><stop offset="0" stop-color="#fff"/><stop offset="0.037" stop-color="#ebebeb" stop-opacity="0.921"/><stop offset="0.145" stop-color="#b4b4b4" stop-opacity="0.708"/><stop offset="0.258" stop-color="#848484" stop-opacity="0.518"/><stop offset="0.372" stop-color="#5c5c5c" stop-opacity="0.359"/><stop offset="0.488" stop-color="#3a3a3a" stop-opacity="0.229"/><stop offset="0.607" stop-color="#212121" stop-opacity="0.128"/><stop offset="0.729" stop-color="#0e0e0e" stop-opacity="0.057"/><stop offset="0.857" stop-color="#040404" stop-opacity="0.014"/><stop offset="1" stop-opacity="0"/></radialGradient><linearGradient id="linear-gradient" x1="53.891" y1="150.271" x2="53.891" y2="65.161" gradientUnits="userSpaceOnUse"><stop offset="0" stop-opacity="0"/><stop offset="0.096" stop-color="#000810" stop-opacity="0.061"/><stop offset="0.282" stop-color="#011c38" stop-opacity="0.221"/><stop offset="0.54" stop-color="#033d7a" stop-opacity="0.479"/><stop offset="0.856" stop-color="#0569d4" stop-opacity="0.831"/><stop offset="1" stop-color="#067fff"/></linearGradient><linearGradient id="linear-gradient-2" x1="43.82" y1="151.098" x2="43.82" y2="63.461" gradientUnits="userSpaceOnUse"><stop offset="0" stop-opacity="0"/><stop offset="0.154" stop-color="#010304" stop-opacity="0.016"/><stop offset="0.292" stop-color="#030b0e" stop-opacity="0.066"/><stop offset="0.423" stop-color="#061821" stop-opacity="0.151"/><stop offset="0.551" stop-color="#0a2c3a" stop-opacity="0.269"/><stop offset="0.676" stop-color="#10445c" stop-opacity="0.422"/><stop offset="0.798" stop-color="#186384" stop-opacity="0.609"/><stop offset="0.917" stop-color="#2086b3" stop-opacity="0.827"/><stop offset="1" stop-color="#27a2d9"/></linearGradient><linearGradient id="linear-gradient-3" x1="61.315" y1="151.098" x2="61.315" y2="63.446" xlink:href="#linear-gradient-2"/><linearGradient id="linear-gradient-4" x1="49.21" y1="151.098" x2="49.21" y2="63.274" xlink:href="#linear-gradient-2"/><radialGradient id="radial-gradient-7" cx="54.545" cy="2422.882" r="20.049" gradientTransform="translate(0 -7010.392) scale(1 2.927)" gradientUnits="userSpaceOnUse"><stop offset="0" stop-color="#067fff"/><stop offset="0.037" stop-color="#0675eb" stop-opacity="0.921"/><stop offset="0.145" stop-color="#045ab4" stop-opacity="0.708"/><stop offset="0.258" stop-color="#034284" stop-opacity="0.518"/><stop offset="0.372" stop-color="#022e5c" stop-opacity="0.359"/><stop offset="0.488" stop-color="#011d3a" stop-opacity="0.229"/><stop offset="0.607" stop-color="#011021" stop-opacity="0.128"/><stop offset="0.729" stop-color="#00070e" stop-opacity="0.057"/><stop offset="0.857" stop-color="#000204" stop-opacity="0.014"/><stop offset="1" stop-opacity="0"/></radialGradient><radialGradient id="radial-gradient-8" cx="6401.452" cy="1693.733" r="14.61" gradientTransform="matrix(0, 0.5, -2.565, 0, 4407.156, -3117.524)" gradientUnits="userSpaceOnUse"><stop offset="0" stop-color="#27a2d9"/><stop offset="0.083" stop-color="#2086b3" stop-opacity="0.827"/><stop offset="0.202" stop-color="#186384" stop-opacity="0.609"/><stop offset="0.324" stop-color="#10445c" stop-opacity="0.422"/><stop offset="0.449" stop-color="#0a2c3a" stop-opacity="0.269"/><stop offset="0.577" stop-color="#061821" stop-opacity="0.151"/><stop offset="0.708" stop-color="#030b0e" stop-opacity="0.066"/><stop offset="0.846" stop-color="#010304" stop-opacity="0.016"/><stop offset="1" stop-opacity="0"/></radialGradient><radialGradient id="radial-gradient-9" cx="6559.783" cy="1450.808" r="12.852" gradientTransform="translate(-3231.125 -2788.789) scale(0.5 1.971)" xlink:href="#radial-gradient-8"/><radialGradient id="radial-gradient-10" cx="6744.625" cy="2165.07" r="12.853" gradientTransform="matrix(0.5, -0.016, 0.106, 3.276, -3557.222, -6898.116)" xlink:href="#radial-gradient-8"/><radialGradient id="_45" cx="32.647" cy="128.834" r="0.368" gradientUnits="userSpaceOnUse"><stop offset="0.006" stop-color="#60dbff"/><stop offset="0.409" stop-color="#56d5ff"/><stop offset="1" stop-color="#40c7ff"/></radialGradient><radialGradient id="_45-2" cx="35.322" cy="118.902" r="0.573" xlink:href="#_45"/><radialGradient id="_45-3" cx="43.146" cy="119.832" r="0.703" xlink:href="#_45"/><radialGradient id="_45-4" cx="44.85" cy="115.785" r="0.523" xlink:href="#_45"/><radialGradient id="_45-5" cx="41.214" cy="113.313" r="0.594" xlink:href="#_45"/><radialGradient id="_45-6" cx="41.221" cy="110.359" r="0.65" xlink:href="#_45"/><radialGradient id="_45-7" cx="38.874" cy="109.962" r="1.011" xlink:href="#_45"/><radialGradient id="_45-8" cx="37.461" cy="147.197" r="0.531" xlink:href="#_45"/><radialGradient id="_45-9" cx="41.668" cy="148.19" r="0.533" xlink:href="#_45"/><radialGradient id="_45-10" cx="41.653" cy="146.742" r="0.263" xlink:href="#_45"/><radialGradient id="_45-11" cx="43.182" cy="148.994" r="0.274" xlink:href="#_45"/><radialGradient id="_45-12" cx="44.839" cy="137.906" r="0.495" xlink:href="#_45"/><radialGradient id="_45-13" cx="46.692" cy="138.079" r="0.254" xlink:href="#_45"/><radialGradient id="_45-14" cx="46.319" cy="140.832" r="0.126" xlink:href="#_45"/><radialGradient id="_45-15" cx="51.607" cy="141.257" r="0.277" xlink:href="#_45"/><radialGradient id="_45-16" cx="63.874" cy="142.301" r="0.234" xlink:href="#_45"/><radialGradient id="_45-17" cx="62.352" cy="139.804" r="0.139" xlink:href="#_45"/><radialGradient id="_45-18" cx="66.295" cy="139.196" r="0.538" xlink:href="#_45"/><radialGradient id="_45-19" cx="65.554" cy="134.353" r="0.275" xlink:href="#_45"/><radialGradient id="_45-20" cx="70.386" cy="129.005" r="0.3" xlink:href="#_45"/><radialGradient id="_45-21" cx="63.41" cy="126.545" r="0.217" xlink:href="#_45"/><radialGradient id="_45-22" cx="55.509" cy="128.597" r="0.13" xlink:href="#_45"/><radialGradient id="_45-23" cx="66.605" cy="120.797" r="0.51" xlink:href="#_45"/><radialGradient id="_45-24" cx="70.331" cy="119.146" r="0.283" xlink:href="#_45"/><radialGradient id="_45-25" cx="72.797" cy="119.716" r="0.296" xlink:href="#_45"/><radialGradient id="_45-26" cx="61.446" cy="119.137" r="0.524" xlink:href="#_45"/><radialGradient id="_45-27" cx="55.635" cy="117.344" r="0.239" xlink:href="#_45"/><radialGradient id="_45-28" cx="46.462" cy="129.455" r="0.247" xlink:href="#_45"/><radialGradient id="_45-29" cx="72.565" cy="113.399" r="0.513" xlink:href="#_45"/><radialGradient id="_45-30" cx="68.069" cy="112.84" r="0.346" xlink:href="#_45"/><radialGradient id="_45-31" cx="67.965" cy="111.126" r="0.541" xlink:href="#_45"/><radialGradient id="_45-32" cx="69.608" cy="109.468" r="0.538" xlink:href="#_45"/><radialGradient id="_45-33" cx="62.266" cy="106.209" r="0.83" xlink:href="#_45"/><radialGradient id="_45-34" cx="59.047" cy="108.045" r="0.662" xlink:href="#_45"/><radialGradient id="_45-35" cx="60.935" cy="112.974" r="0.545" xlink:href="#_45"/><radialGradient id="_45-36" cx="53.425" cy="105.996" r="0.182" xlink:href="#_45"/><radialGradient id="_45-37" cx="50.218" cy="105.231" r="0.346" xlink:href="#_45"/><radialGradient id="_45-38" cx="49.419" cy="104.582" r="0.225" xlink:href="#_45"/><radialGradient id="_45-39" cx="57.708" cy="104.334" r="0.238" xlink:href="#_45"/><radialGradient id="_45-40" cx="60.363" cy="103.421" r="0.768" xlink:href="#_45"/><radialGradient id="_45-41" cx="62.125" cy="103.938" r="0.636" xlink:href="#_45"/><radialGradient id="_45-42" cx="60.906" cy="99.271" r="0.401" xlink:href="#_45"/><radialGradient id="_45-43" cx="64.272" cy="94.983" r="0.504" xlink:href="#_45"/><radialGradient id="_45-44" cx="56.062" cy="94.264" r="0.447" xlink:href="#_45"/><radialGradient id="_45-45" cx="41.442" cy="101.53" r="0.207" xlink:href="#_45"/><radialGradient id="_45-46" cx="40.198" cy="99.268" r="0.523" xlink:href="#_45"/><radialGradient id="_45-47" cx="38.367" cy="102.71" r="0.53" xlink:href="#_45"/><radialGradient id="_45-48" cx="41.795" cy="94.74" r="0.556" xlink:href="#_45"/><radialGradient id="_45-49" cx="57.875" cy="88.35" r="0.471" xlink:href="#_45"/><radialGradient id="_45-50" cx="67.306" cy="87.848" r="0.444" xlink:href="#_45"/><radialGradient id="_45-51" cx="70.979" cy="93.09" r="0.579" xlink:href="#_45"/><radialGradient id="radial-gradient-11" cx="39.641" cy="99.268" r="2.771" gradientTransform="matrix(1, 0, 0, 1, 0, 0)" xlink:href="#radial-gradient-8"/><radialGradient id="radial-gradient-12" cx="70.689" cy="93.09" r="2.772" gradientTransform="matrix(1, 0, 0, 1, 0, 0)" xlink:href="#radial-gradient-8"/><radialGradient id="radial-gradient-13" cx="37.461" cy="147.197" r="2.772" gradientTransform="matrix(1, 0, 0, 1, 0, 0)" xlink:href="#radial-gradient-8"/><radialGradient id="radial-gradient-14" cx="72.482" cy="119.993" r="2.771" gradientTransform="matrix(1, 0, 0, 1, 0, 0)" xlink:href="#radial-gradient-8"/><radialGradient id="radial-gradient-15" cx="63.257" cy="126.567" r="2.772" gradientTransform="matrix(1, 0, 0, 1, 0, 0)" xlink:href="#radial-gradient-8"/><radialGradient id="_157" cx="63.921" cy="62.62" r="24.773" gradientUnits="userSpaceOnUse"><stop offset="0" stop-color="#f4b2d1"/><stop offset="0.09" stop-color="#eaacd1"/><stop offset="0.242" stop-color="#d09bd3"/><stop offset="0.437" stop-color="#a67fd5"/><stop offset="0.664" stop-color="#6c59d8"/><stop offset="0.754" stop-color="#5348d9"/><stop offset="0.975" stop-color="#7a82ed"/></radialGradient><radialGradient id="radial-gradient-16" cx="743.291" cy="495.936" r="20.188" gradientTransform="matrix(0, 0.873, -1.106, 0, 603.159, -585.696)" gradientUnits="userSpaceOnUse"><stop offset="0.196" stop-color="#ef8c1d"/><stop offset="0.211" stop-color="#e8881c" stop-opacity="0.973"/><stop offset="0.381" stop-color="#a35f14" stop-opacity="0.681"/><stop offset="0.542" stop-color="#693d0d" stop-opacity="0.439"/><stop offset="0.688" stop-color="#3c2307" stop-opacity="0.249"/><stop offset="0.818" stop-color="#1b1003" stop-opacity="0.113"/><stop offset="0.926" stop-color="#070401" stop-opacity="0.03"/><stop offset="1" stop-opacity="0"/></radialGradient><linearGradient id="_210" x1="378.688" y1="1097.233" x2="373.353" y2="1114.813" gradientTransform="translate(-501.846 -976.112) rotate(-8.685)" gradientUnits="userSpaceOnUse"><stop offset="0" stop-color="#b3a6db"/><stop offset="0.413" stop-color="#a685be"/><stop offset="0.766" stop-color="#9d71ab"/><stop offset="1" stop-color="#9a69a4"/></linearGradient><linearGradient id="_210-2" x1="366.57" y1="1093.56" x2="361.237" y2="1111.135" xlink:href="#_210"/><linearGradient id="_210-3" x1="392.855" y1="1101.53" x2="387.52" y2="1119.112" xlink:href="#_210"/><linearGradient id="_210-4" x1="409.311" y1="1106.523" x2="403.975" y2="1124.105" xlink:href="#_210"/><linearGradient id="_210-5" x1="424.783" y1="1111.217" x2="419.447" y2="1128.801" xlink:href="#_210"/><radialGradient id="_494" cx="417.483" cy="1104.761" r="22.473" gradientTransform="translate(-501.846 -976.112) rotate(-8.685)" gradientUnits="userSpaceOnUse"><stop offset="0" stop-color="#fff"/><stop offset="1" stop-color="#623964"/></radialGradient><radialGradient id="_494-2" cx="428.551" cy="1108.149" r="4.275" xlink:href="#_494"/><linearGradient id="_501" x1="364.353" y1="1094.207" x2="361.525" y2="1104.469" gradientTransform="translate(-501.846 -976.112) rotate(-8.685)" gradientUnits="userSpaceOnUse"><stop offset="0" stop-color="#9a69a4"/><stop offset="0.109" stop-color="#a075af"/><stop offset="0.712" stop-color="#c1b1e9"/><stop offset="1" stop-color="#cec9ff"/></linearGradient><linearGradient id="_501-2" x1="377.844" y1="1097.921" x2="375.015" y2="1108.186" xlink:href="#_501"/><linearGradient id="_501-3" x1="392.542" y1="1101.97" x2="389.713" y2="1112.236" xlink:href="#_501"/><linearGradient id="_501-4" x1="408.968" y1="1106.496" x2="406.139" y2="1116.763" xlink:href="#_501"/><linearGradient id="_501-5" x1="426.097" y1="1111.215" x2="423.267" y2="1121.483" xlink:href="#_501"/><radialGradient id="radial-gradient-17" cx="517.348" cy="1205.325" r="10.837" gradientTransform="matrix(0.801, 0, 0, 1.484, -349.518, -1757.651)" xlink:href="#radial-gradient"/><radialGradient id="radial-gradient-18" cx="411.571" cy="1078.693" r="28.026" gradientTransform="translate(192.091 -1119.773) rotate(27.061)" gradientUnits="userSpaceOnUse"><stop offset="0.002" stop-color="#8a2787"/><stop offset="0.176" stop-color="#681d66" stop-opacity="0.755"/><stop offset="0.438" stop-color="#3b113a" stop-opacity="0.431"/><stop offset="0.672" stop-color="#1b081a" stop-opacity="0.195"/><stop offset="0.867" stop-color="#070207" stop-opacity="0.052"/><stop offset="1" stop-opacity="0"/></radialGradient><radialGradient id="_79" cx="357.812" cy="1109.917" r="9.178" gradientTransform="translate(-501.846 -976.112) rotate(-8.685)" gradientUnits="userSpaceOnUse"><stop offset="0" stop-color="#ffd5bd"/><stop offset="0.093" stop-color="#f8d0be"/><stop offset="0.227" stop-color="#e5c1c2"/><stop offset="0.386" stop-color="#c5a9c8"/><stop offset="0.565" stop-color="#9988d1"/><stop offset="0.754" stop-color="#635edb"/><stop offset="0.975" stop-color="#7a82ed"/></radialGradient><linearGradient id="_68" x1="358.195" y1="1105.919" x2="352.182" y2="1104.17" gradientTransform="translate(-501.846 -976.112) rotate(-8.685)" gradientUnits="userSpaceOnUse"><stop offset="0" stop-color="#9a69a4"/><stop offset="0.134" stop-color="#a275ab"/><stop offset="0.375" stop-color="#b795bf"/><stop offset="0.694" stop-color="#dac8dd"/><stop offset="1" stop-color="#fff"/></linearGradient><radialGradient id="_79-2" cx="389.737" cy="1112.314" r="8.893" xlink:href="#_79"/><linearGradient id="_68-2" x1="391.117" y1="1107.699" x2="382.262" y2="1105.294" xlink:href="#_68"/><radialGradient id="_79-3" cx="426.32" cy="1118.6" r="7.472" xlink:href="#_79"/><linearGradient id="_68-3" x1="426.359" y1="1113.706" x2="418.706" y2="1114.908" xlink:href="#_68"/></defs><title>ship-4</title><g class="cls-1"><g id="Layer_2" data-name="Layer 2"><g id="Spaceships"><g id="ship-4"><path class="cls-2" d="M26.548,53.571S25.2,36.952,35.029,26.394c9.588-10.3,27.363-12.767,38.772.086A29.353,29.353,0,0,1,80.53,53.662Z"/><path class="cls-3" d="M80.53,53.662,45.266,53.6l-18.718-.032a44.185,44.185,0,0,1,3.617-19.86A25.65,25.65,0,0,0,32.1,36.5C40.482,47.018,55.465,48.888,64,48.216c9.938-.783,13.423-5.485,14.954-13.815h0A29.038,29.038,0,0,1,80.53,53.662Z"/><path class="cls-4" d="M45.266,53.6l-18.718-.032a44.185,44.185,0,0,1,3.617-19.86,28.108,28.108,0,0,1,4.864-7.317A27.467,27.467,0,0,1,46.745,19C36.578,25.363,32.519,31.072,32.1,36.5a14.718,14.718,0,0,0,1.491,7.35C35.5,48,39.882,51.179,45.266,53.6Z"/><path class="cls-5" d="M35.018,64.051.269,60.325S21.822,51.88,62.555,53.22s46.267,9,46.267,9-19.9,2.183-35.438,2.471Z"/><path class="cls-6" d="M6.8,52.785C2.368,53.854,3.75,57.422,3.75,57.422l8.462-3.484S10.51,51.892,6.8,52.785Z"/><path class="cls-7" d="M28.665,47.764c-4.113.826-3.934,4.351-3.934,4.351l9.5-1.655S33.009,46.891,28.665,47.764Z"/><path class="cls-8" d="M73.407,46.778a7.853,7.853,0,0,0-5.47,1.94l10.084.567A6.373,6.373,0,0,0,73.407,46.778Z"/><path class="cls-9" d="M103.543,50.146c-4.791-.219-5.7,3.262-5.7,3.262l10.318,2.1S107.248,50.316,103.543,50.146Z"/><path class="cls-10" d="M11.6,52.885a5.456,5.456,0,1,1-6.218-4.569A5.457,5.457,0,0,1,11.6,52.885Z"/><path class="cls-11" d="M34.185,48.569A5.456,5.456,0,1,1,27.968,44,5.455,5.455,0,0,1,34.185,48.569Z"/><path class="cls-12" d="M78.449,46.666a5.456,5.456,0,1,1-6.218-4.57A5.455,5.455,0,0,1,78.449,46.666Z"/><path class="cls-13" d="M108.749,50.708a5.456,5.456,0,1,1-6.217-4.569A5.455,5.455,0,0,1,108.749,50.708Z"/><path class="cls-14" d="M2.6,56.862l.768,1.276,10.468-2.666a12.465,12.465,0,0,0-.825-2.415S5.6,54.523,2.6,56.862Z"/><path class="cls-15" d="M23.855,53.2l-.232-1.517a28.92,28.92,0,0,1,10.9-2.524l.943,2.555Z"/><path class="cls-16" d="M67.392,48.355l-.38,1.925,13.129,1.234-.741-2.44A39.825,39.825,0,0,0,67.392,48.355Z"/><path class="cls-17" d="M96.756,52.287,96.527,54l12.194,3.143a7.315,7.315,0,0,0,.256-2.737A77.481,77.481,0,0,0,96.756,52.287Z"/><path class="cls-18" d="M0,58.567l.269,1.758a182.23,182.23,0,0,1,65.419-5.866c35.975,3.456,43.134,7.759,43.134,7.759l2.761-5.205s-25.709-9.319-59.939-7.768S0,58.567,0,58.567Z"/><path class="cls-19" d="M63.1,28.678c-.448,4.15,3.893,4.607,4.207,3.455S63.453,25.385,63.1,28.678Z"/><path class="cls-20" d="M35.81,64.257c.682-.6,7.675-.931,17.59-.848s18.369.854,18.363,1.527-8.414.923-18.329.839S35.3,64.7,35.81,64.257Z"/><ellipse class="cls-21" cx="54.545" cy="152.288" rx="44.008" ry="5.587"/><path class="cls-22" d="M77.812,152.769c0,1.859-10.856,3.365-24.247,3.365s-24.248-1.506-24.248-3.365S40.173,149.4,53.565,149.4,77.812,150.911,77.812,152.769Z"/><path class="cls-23" d="M39.845,63.651,41.6,151.1h23.6l2.743-86.99A160.081,160.081,0,0,0,39.845,63.651Z"/><polygon class="cls-24" points="41.59 63.558 43.307 63.461 46.051 151.098 44.226 151.098 41.59 63.558"/><polygon class="cls-25" points="65.424 63.88 59.329 63.446 57.206 151.098 63.027 151.098 65.424 63.88"/><polygon class="cls-26" points="46.859 63.352 51.56 63.274 51.465 151.098 48.496 151.098 46.859 63.352"/><ellipse class="cls-27" cx="54.545" cy="80.413" rx="20.049" ry="58.674"/><ellipse class="cls-28" cx="62.218" cy="83.348" rx="37.479" ry="7.305" transform="translate(-22.933 143.076) rotate(-88.306)"/><ellipse class="cls-29" cx="48.766" cy="70.753" rx="6.426" ry="25.332"/><path class="cls-30" d="M49.42,84.748c.754,23.253-1.511,42.2-5.058,42.311s-7.034-18.642-7.788-41.894,1.51-42.2,5.057-42.31S48.666,61.5,49.42,84.748Z"/><path class="cls-31" d="M32.336,129.01c.232.521.9-.049.57-.417S32.17,128.636,32.336,129.01Z"/><path class="cls-32" d="M34.824,119.182c.476.653,1.379-.106,1.03-.6S34.349,118.53,34.824,119.182Z"/><path class="cls-33" d="M42.941,120.463c.725.378,1.175-.794.727-1.028s-.959-.558-1.151,0A.729.729,0,0,0,42.941,120.463Z"/><path class="cls-34" d="M44.237,115.93c.073.52,1.544.19,1.169-.306S44.17,115.459,44.237,115.93Z"/><path class="cls-35" d="M40.586,113.655c.347.457,1.747-.324,1.185-.71S40.279,113.251,40.586,113.655Z"/><path class="cls-36" d="M40.97,111.06c.645.448,1.111-1.5.4-1.468S40.524,110.75,40.97,111.06Z"/><path class="cls-37" d="M38.46,111.127c.608.259,1.331-.748,1.154-1.386s-.423-1.135-1.039-.944S37.983,110.923,38.46,111.127Z"/><path class="cls-38" d="M36.867,147.344c.226.746,1.513-.1,1.128-.456S36.744,146.939,36.867,147.344Z"/><path class="cls-39" d="M41.51,148.68a.5.5,0,0,0,.633-.724c-.172-.278-.8-.49-.959,0S41.24,148.6,41.51,148.68Z"/><path class="cls-40" d="M41.512,146.967c.4.174.463-.2.342-.354s-.416-.219-.423,0S41.32,146.883,41.512,146.967Z"/><path class="cls-41" d="M43.017,148.717c-.3.109.252.736.379.528S43.315,148.61,43.017,148.717Z"/><path class="cls-42" d="M44.245,138.044c.045.519,1.332.048,1.177-.33S44.209,137.631,44.245,138.044Z"/><path class="cls-43" d="M46.593,138.323c.269.031.356-.053.356-.278s-.289-.279-.44-.139A.255.255,0,0,0,46.593,138.323Z"/><path class="cls-44" d="M46.282,140.957c.087.055.251-.2.083-.251S46.139,140.866,46.282,140.957Z"/><path class="cls-45" d="M51.434,140.985c-.226.185.163.722.355.544S51.66,140.8,51.434,140.985Z"/><path class="cls-46" d="M63.672,142.459c.158.207.485-.068.432-.239a.194.194,0,0,0-.322-.1C63.706,142.212,63.577,142.335,63.672,142.459Z"/><path class="cls-47" d="M62.323,139.957c.223.045.153-.334.046-.309S62.152,139.923,62.323,139.957Z"/><path class="cls-48" d="M66.2,139.772c.408.108.936-.787.257-1.108S65.538,139.6,66.2,139.772Z"/><path class="cls-49" d="M65.772,134.589c-.142.229-.62-.2-.414-.464S65.905,134.375,65.772,134.589Z"/><path class="cls-50" d="M70.087,129.1c.072.329.719.248.583-.193S70.034,128.855,70.087,129.1Z"/><path class="cls-51" d="M63.233,126.691a.267.267,0,0,0,.417-.216c-.028-.1-.213-.153-.363-.088S63.134,126.642,63.233,126.691Z"/><path class="cls-52" d="M55.456,128.707c.221.155.2-.284.086-.251S55.323,128.614,55.456,128.707Z"/><path class="cls-53" d="M66.157,121.187c.385.334,1.185-.342.94-.647s-.464-.246-.74-.131S65.978,121.032,66.157,121.187Z"/><path class="cls-54" d="M70.547,119.377c-.128.289-.7-.319-.371-.5S70.665,119.108,70.547,119.377Z"/><path class="cls-55" d="M72.647,119.454c-.451.105.141.659.364.516S73.076,119.353,72.647,119.454Z"/><path class="cls-56" d="M61.258,119.66c.436.212.746-.35.641-.624a.7.7,0,0,0-.641-.466C61.016,118.6,60.758,119.417,61.258,119.66Z"/><path class="cls-57" d="M55.375,117.42c-.048.329.544-.025.521-.165S55.433,117.014,55.375,117.42Z"/><path class="cls-58" d="M46.252,129.577c.1.334.53-.089.446-.211S46.07,129,46.252,129.577Z"/><path class="cls-59" d="M72.013,113.655c-.208.44.893-.007,1.1-.37S72.484,112.66,72.013,113.655Z"/><path class="cls-60" d="M68.409,112.96c-.188.6-.989-.253-.587-.407S68.5,112.657,68.409,112.96Z"/><path class="cls-61" d="M68.309,111.658c-.3.252-1.2-.655-.7-1.026S68.782,111.257,68.309,111.658Z"/><path class="cls-62" d="M69.336,108.828c-.276-.021-.148,1.329.416,1.279S69.9,108.873,69.336,108.828Z"/><path class="cls-63" d="M61.7,106.763c.977.394,1.872-.842,1.456-1.035s-1.533-.3-1.767.341S61.309,106.607,61.7,106.763Z"/><path class="cls-64" d="M59.268,107.3c-.808.015-1.123,1.434-.3,1.494S59.748,107.288,59.268,107.3Z"/><path class="cls-65" d="M60.558,112.641c-.261.467-.339.866.23.846s.86-.343.658-.647S60.764,112.272,60.558,112.641Z"/><path class="cls-66" d="M53.557,106.167c-.065.172-.4-.3-.24-.366S53.633,105.967,53.557,106.167Z"/><path class="cls-67" d="M50.052,105.618c.33.2.537-.837.37-.8S49.745,105.432,50.052,105.618Z"/><path class="cls-68" d="M49.374,104.349c-.281.15-.167.529.121.469S49.526,104.268,49.374,104.349Z"/><path class="cls-69" d="M57.717,104.086c-.328-.011-.3.5.005.5S57.981,104.094,57.717,104.086Z"/><path class="cls-70" d="M60.213,102.579c-.7,0-.822,1.767.287,1.681S60.791,102.582,60.213,102.579Z"/><path class="cls-71" d="M61.7,103.482c-.657.411.058,1.219.452.991s.764-.88.64-.991A1.319,1.319,0,0,0,61.7,103.482Z"/><path class="cls-72" d="M61.05,99.636c-.239.175-.809-.537-.422-.716S61.69,99.165,61.05,99.636Z"/><path class="cls-73" d="M63.753,95.035c.113.417.9.559,1.031.238s-.2-.853-.635-.739S63.7,94.844,63.753,95.035Z"/><path class="cls-74" d="M55.935,94.77c.479.164.638-1.04.312-1.028S55.4,94.588,55.935,94.77Z"/><path class="cls-75" d="M41.632,101.586c-.123.356-.509.027-.355-.181A.2.2,0,0,1,41.632,101.586Z"/><path class="cls-76" d="M40.012,99.715c.3.112.8-.03.738-.217s-.4-.806-.738-.706A.474.474,0,0,0,40.012,99.715Z"/><path class="cls-77" d="M37.9,102.447c-.253.278-.244.691.091.64s1.072-.235,1.022-.509S38.079,102.249,37.9,102.447Z"/><path class="cls-78" d="M42.457,94.842c-.023.635-1.518.215-1.3-.266S42.475,94.338,42.457,94.842Z"/><path class="cls-79" d="M58.269,88.671c-.137.493-1.069-.2-.79-.482s.2-.47.559-.2S58.342,88.408,58.269,88.671Z"/><path class="cls-80" d="M66.919,87.983c.165.293.64.448.79.108a.471.471,0,0,0-.4-.672A.367.367,0,0,0,66.919,87.983Z"/><path class="cls-81" d="M70.513,93.455a.552.552,0,0,0,.985-.176c.136-.48-.119-.857-.594-.782A.628.628,0,0,0,70.513,93.455Z"/><circle class="cls-82" cx="39.641" cy="99.268" r="2.771"/><path class="cls-83" d="M73.46,93.09a2.772,2.772,0,1,1-2.771-2.772A2.771,2.771,0,0,1,73.46,93.09Z"/><path class="cls-84" d="M40.232,147.2a2.772,2.772,0,1,1-2.771-2.771A2.772,2.772,0,0,1,40.232,147.2Z"/><circle class="cls-85" cx="72.482" cy="119.993" r="2.771"/><path class="cls-86" d="M66.028,126.567a2.772,2.772,0,1,1-2.771-2.771A2.772,2.772,0,0,1,66.028,126.567Z"/><path class="cls-87" d="M77.247,63.485c-.086.577-3.531,1.476-6.586,1.828.711-.107,1.1-.232,1.1-.377.006-.673-8.448-1.443-18.363-1.527s-16.908.254-17.59.849c-.064.056.013.122.22.192a51.031,51.031,0,0,1-5.915-1.98c-1.963-.8,8.385-2.569,25.142-2.163C64.264,60.524,77.51,61.728,77.247,63.485Z"/><ellipse class="cls-88" cx="54.502" cy="63.105" rx="22.336" ry="17.621" transform="translate(-10.829 114.917) rotate(-87.601)"/><path class="cls-89" d="M32.492,54.466s4.977,3.909,8.366,6.042a17.943,17.943,0,0,1,.739,3.281,10.88,10.88,0,0,0-1.245-3.25A62.288,62.288,0,0,1,32.492,54.466Z"/><path class="cls-90" d="M11.609,57.532s11.9,2.233,20.5,3.916a26.217,26.217,0,0,1,4.318,2.565,53.53,53.53,0,0,0-4.756-2.5A181.912,181.912,0,0,1,11.609,57.532Z"/><path class="cls-91" d="M51.465,53.7a21.1,21.1,0,0,0,1.187,6.558,20.638,20.638,0,0,1-.1,3.143,6.39,6.39,0,0,0,.357-3.14A36.059,36.059,0,0,1,51.465,53.7Z"/><path class="cls-92" d="M64.647,63.823a7.269,7.269,0,0,1,.283-2.993,74.922,74.922,0,0,1,9.46-5.459,42.938,42.938,0,0,0-5.89,2.644,13.915,13.915,0,0,0-3.8,2.8A6.37,6.37,0,0,0,64.647,63.823Z"/><path class="cls-93" d="M70.627,64.489a8.051,8.051,0,0,1,4.191-2.306s14.968-2.471,25.154-2.731c0,0-16.678,2.264-24.651,2.863C75.321,62.315,73.551,62.4,70.627,64.489Z"/><path class="cls-94" d="M46.051,49.562s35.423-2.581,63.208,6.686C109.259,56.248,82.471,50.579,46.051,49.562Z"/><polygon class="cls-95" points="84.828 56.713 85.861 51.053 93.353 52.235 92.942 58.021 84.828 56.713"/><path class="cls-96" d="M30.371,61.327S22.114,60.063,14.515,58.3c0,0,3.17.886,8.214,1.986A36.4,36.4,0,0,0,30.371,61.327Z"/><path class="cls-97" d="M40.1,60.373s-4.868-3.557-6.66-5.063a29.56,29.56,0,0,0,3.521,3.2A17.343,17.343,0,0,0,40.1,60.373Z"/><path class="cls-98" d="M51.56,54.747a29.625,29.625,0,0,1,1.234,5.145A52.334,52.334,0,0,1,51.56,54.747Z"/><path class="cls-99" d="M65.424,60.5s4.468-2.919,7.6-4.465A54.273,54.273,0,0,1,65.424,60.5Z"/><path class="cls-100" d="M95.91,60.018s-4.482.548-18.259,2.1c0,0,5.814-.286,10.006-.743S95.91,60.018,95.91,60.018Z"/><ellipse class="cls-101" cx="64.834" cy="30.521" rx="8.681" ry="16.077" transform="translate(-1.254 58.222) rotate(-47.95)"/><circle class="cls-102" cx="67.874" cy="28.029" r="28.025" transform="translate(-3.588 44.932) rotate(-35.746)"/><path class="cls-103" d="M22.741,60.345c-.02.466-2.585.736-5.729.6s-5.678-.616-5.659-1.081,2.585-.737,5.729-.605S22.76,59.879,22.741,60.345Z"/><path class="cls-104" d="M12.875,59.361s-3.481,6.556-.941,8.545c2.229,1.744,7.152-3.5,10-8.014A31.511,31.511,0,0,0,12.875,59.361Z"/><path class="cls-105" d="M21.935,59.892c-.534.847-1.14,1.718-1.789,2.564-1.126-2.7-8.3-.039-9.14,3.013.034-2.654,1.868-6.109,1.868-6.109A31.529,31.529,0,0,1,21.935,59.892Z"/><path class="cls-103" d="M43.017,57.269c-.58,1.207,11.479,1.682,11.519.729C54.588,56.734,43.327,56.623,43.017,57.269Z"/><path class="cls-106" d="M46.6,66.288c1.906.5,5.558-3.81,7.033-8.851a34.733,34.733,0,0,0-8.912-.491S42.769,65.279,46.6,66.288Z"/><path class="cls-107" d="M53.636,57.437c-.1.339-.208.676-.327,1.007-1.383-.612-6.431-.379-9.081,3.078a21.5,21.5,0,0,1,.5-4.575A34.709,34.709,0,0,1,53.636,57.437Z"/><path class="cls-103" d="M77.8,59.476c-.753,1.066,10.6,2.122,11.363,1.116S78.481,58.514,77.8,59.476Z"/><path class="cls-108" d="M86.446,69.47c2.994-.155,1.846-9.487,1.846-9.487a35.22,35.22,0,0,0-8.888-.861S82.5,69.675,86.446,69.47Z"/><path class="cls-109" d="M88.292,59.983s.065.53.124,1.338c-4.578-.411-5.891,1.758-6.063,4.752A35.3,35.3,0,0,1,79.4,59.122,35.22,35.22,0,0,1,88.292,59.983Z"/></g></g></g></g></svg>