<svg xmlns="http://www.w3.org/2000/svg" xmlns:xlink="http://www.w3.org/1999/xlink" viewBox="0 0 198.764 255.549"><defs><style>.cls-1{fill:none;clip-rule:evenodd;}.cls-2{isolation:isolate;}.cls-123,.cls-134,.cls-141,.cls-142,.cls-143,.cls-144,.cls-148,.cls-149,.cls-150,.cls-3{opacity:0.3;}.cls-102,.cls-103,.cls-104,.cls-105,.cls-106,.cls-123,.cls-130,.cls-145,.cls-146,.cls-147,.cls-20,.cls-3,.cls-41,.cls-74,.cls-80,.cls-95,.cls-99{mix-blend-mode:screen;}.cls-3{fill:url(#radial-gradient);}.cls-10,.cls-102,.cls-103,.cls-104,.cls-105,.cls-107,.cls-108,.cls-109,.cls-11,.cls-110,.cls-111,.cls-112,.cls-113,.cls-114,.cls-115,.cls-116,.cls-117,.cls-118,.cls-119,.cls-12,.cls-120,.cls-121,.cls-122,.cls-123,.cls-124,.cls-125,.cls-126,.cls-127,.cls-128,.cls-129,.cls-13,.cls-130,.cls-131,.cls-132,.cls-133,.cls-134,.cls-135,.cls-136,.cls-137,.cls-138,.cls-139,.cls-14,.cls-140,.cls-141,.cls-142,.cls-143,.cls-144,.cls-145,.cls-146,.cls-147,.cls-148,.cls-15,.cls-151,.cls-152,.cls-153,.cls-154,.cls-155,.cls-156,.cls-157,.cls-16,.cls-17,.cls-18,.cls-19,.cls-20,.cls-21,.cls-22,.cls-23,.cls-24,.cls-25,.cls-26,.cls-27,.cls-28,.cls-29,.cls-30,.cls-31,.cls-32,.cls-33,.cls-34,.cls-35,.cls-36,.cls-37,.cls-39,.cls-4,.cls-41,.cls-42,.cls-43,.cls-44,.cls-45,.cls-46,.cls-47,.cls-48,.cls-49,.cls-5,.cls-50,.cls-51,.cls-52,.cls-53,.cls-54,.cls-55,.cls-56,.cls-57,.cls-58,.cls-59,.cls-6,.cls-60,.cls-61,.cls-62,.cls-63,.cls-64,.cls-65,.cls-66,.cls-67,.cls-68,.cls-69,.cls-7,.cls-70,.cls-71,.cls-72,.cls-73,.cls-74,.cls-75,.cls-76,.cls-77,.cls-78,.cls-79,.cls-8,.cls-80,.cls-81,.cls-82,.cls-83,.cls-84,.cls-85,.cls-86,.cls-87,.cls-88,.cls-89,.cls-9,.cls-90,.cls-91,.cls-92,.cls-93,.cls-94,.cls-95,.cls-96,.cls-97,.cls-98,.cls-99{fill-rule:evenodd;}.cls-4{fill:url(#_246);}.cls-5{fill:url(#_246-2);}.cls-6{fill:url(#_246-3);}.cls-10,.cls-108,.cls-109,.cls-110,.cls-111,.cls-113,.cls-115,.cls-117,.cls-120,.cls-124,.cls-13,.cls-132,.cls-135,.cls-139,.cls-16,.cls-18,.cls-22,.cls-44,.cls-45,.cls-46,.cls-47,.cls-48,.cls-49,.cls-50,.cls-51,.cls-52,.cls-53,.cls-59,.cls-7,.cls-70,.cls-73,.cls-74,.cls-75,.cls-79,.cls-8,.cls-80,.cls-81,.cls-82,.cls-83,.cls-84,.cls-85,.cls-86,.cls-88,.cls-89,.cls-9,.cls-95,.cls-96,.cls-98,.cls-99{opacity:0.5;}.cls-10,.cls-107,.cls-108,.cls-109,.cls-110,.cls-111,.cls-113,.cls-115,.cls-117,.cls-118,.cls-120,.cls-124,.cls-125,.cls-13,.cls-131,.cls-132,.cls-133,.cls-134,.cls-135,.cls-136,.cls-139,.cls-141,.cls-142,.cls-143,.cls-144,.cls-148,.cls-15,.cls-16,.cls-18,.cls-22,.cls-38,.cls-39,.cls-40,.cls-44,.cls-45,.cls-46,.cls-47,.cls-48,.cls-49,.cls-50,.cls-51,.cls-52,.cls-53,.cls-54,.cls-55,.cls-56,.cls-57,.cls-58,.cls-59,.cls-7,.cls-70,.cls-73,.cls-75,.cls-79,.cls-8,.cls-81,.cls-82,.cls-83,.cls-84,.cls-85,.cls-86,.cls-88,.cls-89,.cls-9,.cls-96,.cls-98{mix-blend-mode:multiply;}.cls-7{fill:url(#_170);}.cls-8{fill:url(#_320);}.cls-9{fill:url(#_320-2);}.cls-10{fill:url(#_320-3);}.cls-11{fill:url(#_246-4);}.cls-12{fill:url(#_246-5);}.cls-13{fill:url(#_231);}.cls-14{fill:url(#_246-6);}.cls-15{fill:#1616a6;opacity:0.33;}.cls-16{fill:url(#_231-2);}.cls-17{fill:url(#_246-7);}.cls-18{fill:url(#_231-3);}.cls-19{fill:#c3af00;}.cls-20,.cls-54{opacity:0.8;}.cls-20{fill:url(#_200);}.cls-21{fill:#fff;}.cls-22{fill:url(#_231-4);}.cls-23{fill:url(#_246-8);}.cls-24{fill:url(#_246-9);}.cls-25{fill:url(#_246-10);}.cls-26{fill:url(#_96);}.cls-27{fill:url(#_108);}.cls-28{fill:url(#_426);}.cls-29{fill:url(#_146);}.cls-30{fill:url(#_146-2);}.cls-31{fill:url(#_426-2);}.cls-32{fill:url(#_426-3);}.cls-33{fill:url(#_426-4);}.cls-34{fill:url(#_146-3);}.cls-35{fill:url(#_103);}.cls-36{fill:url(#_103-2);}.cls-37{fill:url(#_103-3);}.cls-133,.cls-38,.cls-39,.cls-40,.cls-55,.cls-56,.cls-57,.cls-58{opacity:0.7;}.cls-38{fill:url(#_138);}.cls-39{fill:url(#_45);}.cls-40{fill:url(#_45-2);}.cls-41{opacity:0.6;fill:url(#_44);}.cls-42{fill:url(#_173);}.cls-43{fill:url(#_451);}.cls-44{fill:url(#_170-2);}.cls-45{fill:url(#_14);}.cls-46{fill:url(#_14-2);}.cls-47{fill:url(#_14-3);}.cls-48{fill:url(#_14-4);}.cls-49{fill:url(#_14-5);}.cls-50{fill:url(#_14-6);}.cls-51{fill:url(#_14-7);}.cls-52{fill:url(#_14-8);}.cls-53{fill:url(#_14-9);}.cls-54{fill:url(#_9);}.cls-55{fill:url(#_138-2);}.cls-56{fill:url(#_138-3);}.cls-57{fill:url(#_138-4);}.cls-58{fill:url(#_138-5);}.cls-59{fill:url(#_170-3);}.cls-60{fill:url(#_223);}.cls-61{fill:url(#_246-11);}.cls-62{fill:url(#_173-2);}.cls-63{fill:url(#_246-12);}.cls-64{fill:url(#_246-13);}.cls-65{fill:url(#_246-14);}.cls-66{fill:url(#_246-15);}.cls-67{fill:url(#_246-16);}.cls-68{fill:url(#_246-17);}.cls-69{fill:url(#_246-18);}.cls-70{fill:url(#_231-5);}.cls-71{fill:url(#_246-19);}.cls-72{fill:url(#_246-20);}.cls-73{fill:url(#_231-6);}.cls-74{fill:url(#_200-2);}.cls-75{fill:url(#_231-7);}.cls-76{fill:url(#_246-21);}.cls-77{fill:#fdba45;}.cls-78{fill:url(#_163);}.cls-79{fill:url(#_231-8);}.cls-80{fill:url(#_189);}.cls-81{fill:url(#_170-4);}.cls-82{fill:url(#_231-9);}.cls-83{fill:url(#_320-4);}.cls-84{fill:url(#_231-10);}.cls-85{fill:url(#_231-11);}.cls-86{fill:url(#_231-12);}.cls-87{fill:url(#_231-13);}.cls-88{fill:url(#_231-14);}.cls-89{fill:url(#_210);}.cls-90{fill:url(#_246-22);}.cls-91{fill:url(#_246-23);}.cls-92{fill:url(#_246-24);}.cls-93{fill:url(#_246-25);}.cls-94{fill:#cc4c47;opacity:0.79;}.cls-121,.cls-94{mix-blend-mode:soft-light;}.cls-95{fill:url(#_189-2);}.cls-96{fill:url(#_210-2);}.cls-97{fill:url(#_461);}.cls-98{fill:url(#_320-5);}.cls-99{fill:url(#_189-3);}.cls-100{clip-path:url(#clip-path);}.cls-101{fill:#fd2323;}.cls-102{fill:url(#radial-gradient-2);}.cls-103{fill:url(#_501);}.cls-104{fill:url(#radial-gradient-3);}.cls-105{fill:url(#_501-2);}.cls-106,.cls-125,.cls-147{opacity:0.2;}.cls-106{fill:url(#_306);}.cls-107{opacity:0.76;fill:url(#_478);}.cls-108{fill:url(#_320-6);}.cls-109{fill:url(#_320-7);}.cls-110{fill:url(#_320-8);}.cls-111{fill:url(#_320-9);}.cls-112{fill:url(#_352);}.cls-113{fill:url(#_23);}.cls-114{fill:url(#_352-2);}.cls-115{fill:url(#_23-2);}.cls-116{fill:#9476c4;}.cls-117{fill:url(#_23-3);}.cls-118,.cls-123{fill:#c386d4;}.cls-118{opacity:0.19;}.cls-119{fill:url(#_352-3);}.cls-120{fill:url(#_23-4);}.cls-121,.cls-131{fill:#803d51;opacity:0.4;}.cls-122{fill:#7263a8;}.cls-124{fill:url(#_168);}.cls-125{fill:#9667a3;}.cls-126{fill:url(#_227);}.cls-127{fill:url(#_352-4);}.cls-128{fill:url(#_318);}.cls-129{fill:url(#_352-5);}.cls-130{opacity:0.42;fill:url(#_3691);}.cls-132{fill:url(#_23-5);}.cls-133{fill:url(#_138-6);}.cls-134{fill:url(#_198);}.cls-135{fill:url(#_231-15);}.cls-136{opacity:0.75;fill:url(#_338);}.cls-137{fill:#8876c9;}.cls-138{fill:url(#_318-2);}.cls-139{fill:#752771;}.cls-140{fill:#5e4c9e;}.cls-141{fill:url(#_198-2);}.cls-142{fill:url(#_198-3);}.cls-143{fill:url(#_198-4);}.cls-144{fill:url(#_198-5);}.cls-145{opacity:0.55;fill:url(#_215);}.cls-146{fill:url(#_215-2);}.cls-147{fill:url(#_215-3);}.cls-148{fill:url(#_198-6);}.cls-149,.cls-150{mix-blend-mode:color-dodge;}.cls-149{fill:url(#radial-gradient-4);}.cls-150{fill:url(#radial-gradient-5);}.cls-151{fill:url(#_493);}.cls-152{fill:url(#_173-3);}.cls-153{fill:url(#_173-4);}.cls-154{fill:url(#_246-26);}.cls-155{fill:url(#_493-2);}.cls-156{fill:url(#_173-5);}.cls-157{fill:url(#_173-6);}</style><radialGradient id="radial-gradient" cx="100.631" cy="157.416" r="98.133" gradientTransform="translate(140.784 -25.051) rotate(45)" gradientUnits="userSpaceOnUse"><stop offset="0" stop-color="#173cff"/><stop offset="0.249" stop-color="#122ec4" stop-opacity="0.767"/><stop offset="0.82" stop-color="#040b30" stop-opacity="0.188"/><stop offset="1" stop-opacity="0"/></radialGradient><linearGradient id="_246" x1="159.738" y1="124.602" x2="189.25" y2="115.653" gradientUnits="userSpaceOnUse"><stop offset="0" stop-color="#616b19"/><stop offset="0.239" stop-color="#656e1a"/><stop offset="0.459" stop-color="#70771c"/><stop offset="0.672" stop-color="#838620"/><stop offset="0.879" stop-color="#9d9b25"/><stop offset="0.909" stop-color="#a19f26"/></linearGradient><linearGradient id="_246-2" x1="157.529" y1="113.878" x2="173.216" y2="109.121" xlink:href="#_246"/><linearGradient id="_246-3" x1="155.221" y1="108.933" x2="171.358" y2="104.039" xlink:href="#_246"/><linearGradient id="_170" x1="170.589" y1="111.097" x2="177.818" y2="130.935" gradientUnits="userSpaceOnUse"><stop offset="0" stop-color="#bd4eaf"/><stop offset="1" stop-color="#6e2653"/></linearGradient><linearGradient id="_320" x1="165.245" y1="107.636" x2="152.323" y2="120.195" gradientUnits="userSpaceOnUse"><stop offset="0" stop-color="#fff"/><stop offset="1" stop-color="#6e2653"/></linearGradient><linearGradient id="_320-2" x1="169.146" y1="110.788" x2="155.71" y2="123.846" xlink:href="#_320"/><linearGradient id="_320-3" x1="176.43" y1="117.268" x2="162.606" y2="130.704" xlink:href="#_320"/><linearGradient id="_246-4" x1="1341.942" y1="-482.339" x2="1381.371" y2="-516.477" gradientTransform="translate(-1288.028 157.732) rotate(16.284)" xlink:href="#_246"/><linearGradient id="_246-5" x1="1347.919" y1="-474.228" x2="1392.871" y2="-513.147" gradientTransform="translate(-1288.028 157.732) rotate(16.284)" xlink:href="#_246"/><linearGradient id="_231" x1="1351.2" y1="-484.59" x2="1375.219" y2="-491.873" gradientTransform="translate(-1288.028 157.732) rotate(16.284)" gradientUnits="userSpaceOnUse"><stop offset="0" stop-color="#fff"/><stop offset="1" stop-color="#5c2295"/></linearGradient><linearGradient id="_246-6" x1="87.585" y1="62.289" x2="87.585" y2="-15.752" xlink:href="#_246"/><linearGradient id="_231-2" x1="85.183" y1="50.878" x2="85.183" y2="15.082" gradientTransform="matrix(1, 0, 0, 1, 0, 0)" xlink:href="#_231"/><linearGradient id="_246-7" x1="62.729" y1="34.757" x2="78.256" y2="34.757" xlink:href="#_246"/><linearGradient id="_231-3" x1="75.604" y1="51.839" x2="75.604" y2="21.437" gradientTransform="matrix(1, 0, 0, 1, 0, 0)" xlink:href="#_231"/><linearGradient id="_200" x1="78.815" y1="27.464" x2="82.932" y2="27.464" gradientUnits="userSpaceOnUse"><stop offset="0" stop-color="#efc44d"/><stop offset="1"/></linearGradient><linearGradient id="_231-4" x1="75.983" y1="32.891" x2="83.604" y2="32.891" gradientTransform="matrix(1, 0, 0, 1, 0, 0)" xlink:href="#_231"/><linearGradient id="_246-8" x1="37.14" y1="156.633" x2="36.028" y2="183.601" xlink:href="#_246"/><linearGradient id="_246-9" x1="140.341" y1="161.515" x2="138.668" y2="202.098" xlink:href="#_246"/><linearGradient id="_246-10" x1="158.248" y1="163.081" x2="156.624" y2="202.455" xlink:href="#_246"/><linearGradient id="_96" x1="98.544" y1="199.511" x2="98.544" y2="127.094" gradientUnits="userSpaceOnUse"><stop offset="0.004" stop-color="#4a1a1a"/><stop offset="1" stop-color="#570d0d"/></linearGradient><linearGradient id="_108" x1="151.245" y1="172.28" x2="46.591" y2="172.28" gradientUnits="userSpaceOnUse"><stop offset="0.004" stop-color="#4a1a1a"/><stop offset="1" stop-color="#731f1f"/></linearGradient><linearGradient id="_426" x1="41.914" y1="183.064" x2="41.914" y2="158.508" gradientUnits="userSpaceOnUse"><stop offset="0" stop-color="#8e2725"/><stop offset="0.978" stop-color="#c30"/></linearGradient><linearGradient id="_146" x1="64.382" y1="163.612" x2="69.422" y2="187.595" gradientUnits="userSpaceOnUse"><stop offset="0" stop-color="#8e2725"/><stop offset="1" stop-color="#a9401c"/></linearGradient><linearGradient id="_146-2" x1="65.902" y1="163.13" x2="71.04" y2="187.58" xlink:href="#_146"/><linearGradient id="_426-2" x1="95.674" y1="164.369" x2="88.646" y2="195.726" xlink:href="#_426"/><linearGradient id="_426-3" x1="93.555" y1="182.751" x2="93.555" y2="158.422" xlink:href="#_426"/><linearGradient id="_426-4" x1="120.647" y1="170.178" x2="113.829" y2="200.6" xlink:href="#_426"/><linearGradient id="_146-3" x1="106.53" y1="197.031" x2="106.53" y2="143.11" xlink:href="#_146"/><linearGradient id="_103" x1="141.589" y1="183.126" x2="141.589" y2="149.214" gradientUnits="userSpaceOnUse"><stop offset="0" stop-color="#8f332a"/><stop offset="1" stop-color="#3b1218"/></linearGradient><linearGradient id="_103-2" x1="141.884" y1="183.795" x2="141.884" y2="149.557" xlink:href="#_103"/><linearGradient id="_103-3" x1="158.338" y1="182.696" x2="158.338" y2="150.666" xlink:href="#_103"/><linearGradient id="_138" x1="99.419" y1="196.996" x2="97.576" y2="164.615" gradientUnits="userSpaceOnUse"><stop offset="0" stop-color="#963e8b"/><stop offset="1" stop-color="#6e2653"/></linearGradient><linearGradient id="_45" x1="64.386" y1="262.677" x2="64.386" y2="88.609" gradientUnits="userSpaceOnUse"><stop offset="0" stop-color="#c57cbb"/><stop offset="1" stop-color="#954577"/></linearGradient><linearGradient id="_45-2" x1="127.9" y1="173.763" x2="158.103" y2="177.327" xlink:href="#_45"/><linearGradient id="_44" x1="71.329" y1="207.835" x2="85.459" y2="177.454" gradientUnits="userSpaceOnUse"><stop offset="0" stop-color="#3d56fd"/><stop offset="1"/></linearGradient><radialGradient id="_173" cx="118.715" cy="453.885" r="79.12" gradientTransform="translate(0 -279.806) scale(1 0.927)" gradientUnits="userSpaceOnUse"><stop offset="0.091" stop-color="#c3af00"/><stop offset="0.111" stop-color="#beac01"/><stop offset="0.278" stop-color="#9d950a"/><stop offset="0.449" stop-color="#838210"/><stop offset="0.624" stop-color="#707515"/><stop offset="0.804" stop-color="#656e18"/><stop offset="1" stop-color="#616b19"/></radialGradient><linearGradient id="_451" x1="19.532" y1="89.279" x2="175.345" y2="89.279" gradientUnits="userSpaceOnUse"><stop offset="0" stop-color="#562030"/><stop offset="0.978" stop-color="#53275a"/></linearGradient><linearGradient id="_170-2" x1="94.633" y1="111.23" x2="94.633" y2="130.814" xlink:href="#_170"/><linearGradient id="_14" x1="54.246" y1="62.628" x2="128.398" y2="62.628" gradientUnits="userSpaceOnUse"><stop offset="0" stop-color="#653ab5"/><stop offset="1" stop-color="#5c2295"/></linearGradient><linearGradient id="_14-2" x1="65.412" y1="80.76" x2="81.627" y2="111.444" xlink:href="#_14"/><linearGradient id="_14-3" x1="45.536" y1="100.018" x2="54.188" y2="116.391" xlink:href="#_14"/><linearGradient id="_14-4" x1="43.964" y1="133.033" x2="49.513" y2="143.533" xlink:href="#_14"/><linearGradient id="_14-5" x1="144.055" y1="115.399" x2="150.179" y2="126.989" xlink:href="#_14"/><linearGradient id="_14-6" x1="159.538" y1="129.784" x2="164.747" y2="139.641" xlink:href="#_14"/><linearGradient id="_14-7" x1="136.697" y1="69.467" x2="148.122" y2="91.087" xlink:href="#_14"/><linearGradient id="_14-8" x1="117.321" y1="26.207" x2="132.339" y2="54.625" xlink:href="#_14"/><linearGradient id="_14-9" x1="85.791" y1="74.792" x2="91.2" y2="85.026" xlink:href="#_14"/><linearGradient id="_9" x1="92.872" y1="55.759" x2="110.404" y2="88.936" gradientUnits="userSpaceOnUse"><stop offset="0" stop-color="#9e1d27"/><stop offset="1" stop-color="#450067"/></linearGradient><linearGradient id="_138-2" x1="123.388" y1="31.34" x2="142.139" y2="66.822" xlink:href="#_138"/><linearGradient id="_138-3" x1="136.086" y1="81.421" x2="150.105" y2="107.948" xlink:href="#_138"/><linearGradient id="_138-4" x1="151.442" y1="119.82" x2="164.717" y2="144.94" xlink:href="#_138"/><linearGradient id="_138-5" x1="67.847" y1="99.923" x2="85.008" y2="132.398" xlink:href="#_138"/><linearGradient id="_170-3" x1="86.25" y1="132.108" x2="78.512" y2="99.371" xlink:href="#_170"/><linearGradient id="_223" x1="114.014" y1="85.433" x2="114.014" y2="129.481" gradientUnits="userSpaceOnUse"><stop offset="0.004" stop-color="#1a0f32"/><stop offset="1" stop-color="#200426"/></linearGradient><linearGradient id="_246-11" x1="120.793" y1="69.081" x2="120.793" y2="39.353" xlink:href="#_246"/><radialGradient id="_173-2" cx="76.379" cy="341.046" r="50.825" xlink:href="#_173"/><linearGradient id="_246-12" x1="128.886" y1="59.822" x2="118.704" y2="26.876" xlink:href="#_246"/><linearGradient id="_246-13" x1="74.513" y1="119.537" x2="71.644" y2="62.47" xlink:href="#_246"/><linearGradient id="_246-14" x1="90.846" y1="82.413" x2="97.677" y2="96.927" xlink:href="#_246"/><linearGradient id="_246-15" x1="141.01" y1="81.326" x2="136.334" y2="111.589" xlink:href="#_246"/><linearGradient id="_246-16" x1="146.777" y1="117.494" x2="143.188" y2="46.117" xlink:href="#_246"/><linearGradient id="_246-17" x1="159.765" y1="115.793" x2="155.848" y2="37.893" xlink:href="#_246"/><linearGradient id="_246-18" x1="50.236" y1="123.34" x2="47.036" y2="59.684" xlink:href="#_246"/><linearGradient id="_231-5" x1="52.298" y1="113.137" x2="49.177" y2="99.933" gradientTransform="matrix(1, 0, 0, 1, 0, 0)" xlink:href="#_231"/><linearGradient id="_246-19" x1="18.161" y1="135.919" x2="8.45" y2="160.335" xlink:href="#_246"/><linearGradient id="_246-20" x1="27.183" y1="154.704" x2="18.247" y2="126.22" xlink:href="#_246"/><linearGradient id="_231-6" x1="9.951" y1="161.834" x2="13.681" y2="155.119" gradientTransform="matrix(1, 0, 0, 1, 0, 0)" xlink:href="#_231"/><linearGradient id="_200-2" x1="18.378" y1="132.345" x2="28.23" y2="153.282" xlink:href="#_200"/><linearGradient id="_231-7" x1="22.716" y1="132.683" x2="25.592" y2="137.759" gradientTransform="matrix(1, 0, 0, 1, 0, 0)" xlink:href="#_231"/><linearGradient id="_246-21" x1="28.542" y1="142.195" x2="71.248" y2="129.245" xlink:href="#_246"/><linearGradient id="_163" x1="105.037" y1="78.091" x2="127.418" y2="78.091" gradientUnits="userSpaceOnUse"><stop offset="0.004" stop-color="#361222"/><stop offset="1" stop-color="#541419"/></linearGradient><linearGradient id="_231-8" x1="81.364" y1="33.408" x2="98.372" y2="80.087" gradientTransform="matrix(1, 0, 0, 1, 0, 0)" xlink:href="#_231"/><linearGradient id="_189" x1="75.386" y1="29.593" x2="82.717" y2="52.808" gradientUnits="userSpaceOnUse"><stop offset="0" stop-color="#f1a640"/><stop offset="1"/></linearGradient><linearGradient id="_170-4" x1="135.877" y1="88.877" x2="149.612" y2="114.867" xlink:href="#_170"/><linearGradient id="_231-9" x1="71.431" y1="78.831" x2="75.363" y2="108.87" gradientTransform="matrix(1, 0, 0, 1, 0, 0)" xlink:href="#_231"/><linearGradient id="_320-4" x1="139.31" y1="137.686" x2="118.366" y2="53.908" xlink:href="#_320"/><linearGradient id="_231-10" x1="122.398" y1="27.041" x2="122.765" y2="43.705" gradientTransform="matrix(1, 0, 0, 1, 0, 0)" xlink:href="#_231"/><linearGradient id="_231-11" x1="37.257" y1="120.128" x2="37.257" y2="158.768" gradientTransform="matrix(1, 0, 0, 1, 0, 0)" xlink:href="#_231"/><linearGradient id="_231-12" x1="103.335" y1="117.25" x2="103.335" y2="164.625" gradientTransform="matrix(1, 0, 0, 1, 0, 0)" xlink:href="#_231"/><linearGradient id="_231-13" x1="147.095" y1="156.57" x2="146.541" y2="154.226" gradientTransform="matrix(1, 0, 0, 1, 0, 0)" xlink:href="#_231"/><linearGradient id="_231-14" x1="164.612" y1="87.004" x2="164.612" y2="163.759" gradientTransform="matrix(1, 0, 0, 1, 0, 0)" xlink:href="#_231"/><linearGradient id="_210" x1="65.342" y1="109.575" x2="51.442" y2="130.277" gradientUnits="userSpaceOnUse"><stop offset="0" stop-color="#fff"/><stop offset="0.417" stop-color="#bba3d3"/><stop offset="1" stop-color="#5c2295"/></linearGradient><linearGradient id="_246-22" x1="132.867" y1="135.114" x2="131.066" y2="139.757" xlink:href="#_246"/><linearGradient id="_246-23" x1="118.178" y1="135.675" x2="113.309" y2="148.222" xlink:href="#_246"/><linearGradient id="_246-24" x1="113.212" y1="132.875" x2="89.557" y2="193.833" xlink:href="#_246"/><linearGradient id="_246-25" x1="136.315" y1="141.953" x2="127.87" y2="163.717" xlink:href="#_246"/><linearGradient id="_189-2" x1="113.038" y1="197.586" x2="113.038" y2="118.699" xlink:href="#_189"/><linearGradient id="_210-2" x1="114.832" y1="124.962" x2="114.104" y2="133.842" xlink:href="#_210"/><linearGradient id="_461" x1="139.825" y1="59.802" x2="136.186" y2="45.247" gradientUnits="userSpaceOnUse"><stop offset="0" stop-color="#732b40"/><stop offset="0.978" stop-color="#6a3273"/></linearGradient><linearGradient id="_320-5" x1="146.126" y1="84.371" x2="138.383" y2="53.397" xlink:href="#_320"/><linearGradient id="_189-3" x1="86.745" y1="38.749" x2="87.665" y2="61.437" xlink:href="#_189"/><clipPath id="clip-path"><path id="SVGID" class="cls-1" d="M106.26,130.368l28.562,2.695-2.753-14.475,4.064-4s-5.953-20.324-6.539-23.465l-2.176-8.168-5.993.266a103.689,103.689,0,0,0-16.388-8.427l-4.43,4.36-1.4,7.748-2.074,15.268.49,3.934-1.2.3L91.9,118.092l4.8,2.616,5.69,3.735Z"/></clipPath><radialGradient id="radial-gradient-2" cx="1944.171" cy="1239.795" r="9.907" gradientTransform="matrix(0.897, 0.416, -0.274, 0.513, -1303.699, -1329.322)" gradientUnits="userSpaceOnUse"><stop offset="0" stop-color="#fd3800"/><stop offset="0.117" stop-color="#d12e00" stop-opacity="0.824"/><stop offset="0.299" stop-color="#922000" stop-opacity="0.577"/><stop offset="0.473" stop-color="#5e1500" stop-opacity="0.371"/><stop offset="0.635" stop-color="#350c00" stop-opacity="0.21"/><stop offset="0.782" stop-color="#180500" stop-opacity="0.095"/><stop offset="0.908" stop-color="#060100" stop-opacity="0.025"/><stop offset="1" stop-opacity="0"/></radialGradient><radialGradient id="_501" cx="1944.021" cy="1239.621" r="5.054" gradientTransform="matrix(0.897, 0.416, -0.274, 0.513, -1303.699, -1329.322)" gradientUnits="userSpaceOnUse"><stop offset="0" stop-color="#e31c24"/><stop offset="1"/></radialGradient><radialGradient id="radial-gradient-3" cx="-1087.829" cy="3703.753" r="9.907" gradientTransform="matrix(-0.897, 0.416, 0.274, 0.513, -1864.732, -1329.322)" xlink:href="#radial-gradient-2"/><radialGradient id="_501-2" cx="-1087.979" cy="3703.579" r="5.054" gradientTransform="matrix(-0.897, 0.416, 0.274, 0.513, -1864.732, -1329.322)" xlink:href="#_501"/><radialGradient id="_306" cx="-380.972" cy="-990.617" r="15.292" gradientTransform="translate(678.862 1476.569) scale(1.482 1.366)" gradientUnits="userSpaceOnUse"><stop offset="0" stop-color="#ff249c"/><stop offset="0.096" stop-color="#f02293"/><stop offset="0.281" stop-color="#c71c7a"/><stop offset="0.538" stop-color="#851352"/><stop offset="0.852" stop-color="#2c061b"/><stop offset="1"/></radialGradient><linearGradient id="_478" x1="117.189" y1="106.14" x2="118.543" y2="90.743" gradientUnits="userSpaceOnUse"><stop offset="0.004" stop-color="#fff"/><stop offset="1" stop-color="#36193b"/></linearGradient><linearGradient id="_320-6" x1="129.658" y1="119.589" x2="163.931" y2="119.589" xlink:href="#_320"/><linearGradient id="_320-7" x1="144.47" y1="132.4" x2="175.346" y2="132.4" xlink:href="#_320"/><linearGradient id="_320-8" x1="169.685" y1="152.586" x2="179.611" y2="153.625" xlink:href="#_320"/><linearGradient id="_320-9" x1="170.262" y1="144.798" x2="179.606" y2="145.776" xlink:href="#_320"/><linearGradient id="_352" x1="124.542" y1="99.108" x2="141.825" y2="99.108" gradientUnits="userSpaceOnUse"><stop offset="0" stop-color="#9a91cf"/><stop offset="1" stop-color="#cda6e0"/></linearGradient><linearGradient id="_23" x1="124.542" y1="98.213" x2="141.824" y2="98.213" gradientUnits="userSpaceOnUse"><stop offset="0" stop-color="#493d6f"/><stop offset="1" stop-color="#3b2a50"/></linearGradient><linearGradient id="_352-2" x1="121.425" y1="82.306" x2="138.321" y2="82.306" xlink:href="#_352"/><linearGradient id="_23-2" x1="129.914" y1="82.446" x2="138.321" y2="82.446" xlink:href="#_23"/><linearGradient id="_23-3" x1="121.425" y1="81.89" x2="128.593" y2="81.89" xlink:href="#_23"/><linearGradient id="_352-3" x1="114.496" y1="85.772" x2="114.496" y2="89.887" xlink:href="#_352"/><linearGradient id="_23-4" x1="99.019" y1="90.201" x2="129.975" y2="90.201" xlink:href="#_23"/><linearGradient id="_168" x1="113.589" y1="87.968" x2="112.789" y2="80.016" gradientUnits="userSpaceOnUse"><stop offset="0" stop-color="#fff"/><stop offset="1" stop-color="#3b2a50"/></linearGradient><linearGradient id="_227" x1="414.536" y1="110.664" x2="401.467" y2="113.604" gradientTransform="matrix(1, 0, -0.085, 1, -361.966, 0)" gradientUnits="userSpaceOnUse"><stop offset="0" stop-color="#b9b0e8"/><stop offset="1" stop-color="#f2bde1"/></linearGradient><linearGradient id="_352-4" x1="946.034" y1="-216.605" x2="933.322" y2="-213.808" gradientTransform="matrix(0.975, 0.087, -0.208, 1.007, -929.919, 205.214)" xlink:href="#_352"/><radialGradient id="_318" cx="402.876" cy="77.744" r="5.793" gradientTransform="matrix(1, 0, -0.085, 1, -361.966, 0)" gradientUnits="userSpaceOnUse"><stop offset="0" stop-color="#493b7a"/><stop offset="1" stop-color="#451d4f"/></radialGradient><linearGradient id="_352-5" x1="2282.321" y1="-348.988" x2="2309.628" y2="-348.988" gradientTransform="matrix(0.948, 0.099, -0.513, 1.002, -2319.754, 209.411)" xlink:href="#_352"/><linearGradient id="_3691" x1="400.364" y1="111.886" x2="417.848" y2="111.886" gradientTransform="matrix(1, 0, -0.085, 1, -361.966, 0)" gradientUnits="userSpaceOnUse"><stop offset="0" stop-color="#f5ceb3"/><stop offset="1" stop-color="#f7b0b8"/></linearGradient><linearGradient id="_23-5" x1="933.575" y1="-199.112" x2="960.925" y2="-199.112" gradientTransform="matrix(0.975, 0.087, -0.208, 1.007, -929.919, 205.214)" xlink:href="#_23"/><linearGradient id="_138-6" x1="935.695" y1="-213.382" x2="947.744" y2="-213.382" gradientTransform="matrix(0.975, 0.087, -0.208, 1.007, -929.919, 205.214)" xlink:href="#_138"/><linearGradient id="_198" x1="411.326" y1="111.764" x2="423.169" y2="111.764" gradientTransform="matrix(1, 0, -0.085, 1, -361.966, 0)" gradientUnits="userSpaceOnUse"><stop offset="0.012" stop-color="#f069df"/><stop offset="1" stop-color="#8d3bab"/></linearGradient><linearGradient id="_231-15" x1="405.425" y1="135.582" x2="409.298" y2="135.582" gradientTransform="matrix(1, 0, -0.085, 1, -361.966, 0)" xlink:href="#_231"/><linearGradient id="_338" x1="73.387" y1="153.212" x2="73.387" y2="141.701" gradientUnits="userSpaceOnUse"><stop offset="0" stop-color="#bba3d3"/><stop offset="0.644" stop-color="#7c4daa"/><stop offset="1" stop-color="#5c2295"/></linearGradient><radialGradient id="_318-2" cx="72.429" cy="127.966" r="16.523" gradientTransform="matrix(1, 0, 0, 1, 0, 0)" xlink:href="#_318"/><linearGradient id="_198-2" x1="59.979" y1="137.332" x2="54.811" y2="137.688" gradientTransform="matrix(1, 0, 0, 1, 0, 0)" xlink:href="#_198"/><linearGradient id="_198-3" x1="89.876" y1="140.499" x2="62.01" y2="142.416" gradientTransform="matrix(1, 0, 0, 1, 0, 0)" xlink:href="#_198"/><linearGradient id="_198-4" x1="-1106.209" y1="472.225" x2="-1116.473" y2="472.931" gradientTransform="translate(1009.205 -629.696) rotate(-15.569)" xlink:href="#_198"/><linearGradient id="_198-5" x1="-1093.152" y1="480.611" x2="-1097.212" y2="480.89" gradientTransform="translate(1009.205 -629.696) rotate(-15.569)" xlink:href="#_198"/><linearGradient id="_215" x1="84.346" y1="138.147" x2="73.048" y2="135.701" gradientUnits="userSpaceOnUse"><stop offset="0.012"/><stop offset="1" stop-color="#8d3bab"/></linearGradient><linearGradient id="_215-2" x1="60.401" y1="129.727" x2="71.16" y2="129.727" xlink:href="#_215"/><linearGradient id="_215-3" x1="75.351" y1="122.508" x2="70.913" y2="139.139" xlink:href="#_215"/><linearGradient id="_198-6" x1="74.412" y1="139.776" x2="88.12" y2="139.776" gradientTransform="matrix(1, 0, 0, 1, 0, 0)" xlink:href="#_198"/><radialGradient id="radial-gradient-4" cx="-14.956" cy="-1581.452" r="48.841" gradientTransform="translate(67.775 2984.398) scale(1.031 1.806)" gradientUnits="userSpaceOnUse"><stop offset="0.004" stop-color="#afaf33"/><stop offset="0.115" stop-color="#a6a630" stop-opacity="0.949"/><stop offset="0.298" stop-color="#8e8e29" stop-opacity="0.809"/><stop offset="0.528" stop-color="#66661e" stop-opacity="0.581"/><stop offset="0.795" stop-color="#2f2f0e" stop-opacity="0.268"/><stop offset="1" stop-opacity="0"/></radialGradient><radialGradient id="radial-gradient-5" cx="79.11" cy="38.174" r="38.174" gradientTransform="translate(50.164 -44.758) rotate(45)" xlink:href="#radial-gradient-4"/><linearGradient id="_493" x1="69.301" y1="213.024" x2="12.146" y2="207.308" gradientUnits="userSpaceOnUse"><stop offset="0.038" stop-color="#300e38"/><stop offset="0.492" stop-color="#4a1a1a"/><stop offset="1" stop-color="#731f1f"/></linearGradient><radialGradient id="_173-3" cx="370.285" cy="1514.373" r="76.846" gradientTransform="translate(-292.304 -930.856) scale(0.868 0.748)" xlink:href="#_173"/><radialGradient id="_173-4" cx="370.285" cy="1514.225" r="76.831" gradientTransform="translate(-292.304 -930.856) scale(0.868 0.748)" xlink:href="#_173"/><linearGradient id="_246-26" x1="80.164" y1="220.93" x2="95.589" y2="232.202" xlink:href="#_246"/><linearGradient id="_493-2" x1="132.602" y1="178.186" x2="86.427" y2="179.234" xlink:href="#_493"/><radialGradient id="_173-5" cx="216.478" cy="129.688" r="17.553" gradientTransform="translate(-100.705 44.002) scale(0.929 1.01)" xlink:href="#_173"/><radialGradient id="_173-6" cx="216.478" cy="129.688" r="17.553" gradientTransform="translate(-100.705 44.002) scale(0.929 1.01)" xlink:href="#_173"/></defs><title>island-5</title><g class="cls-2"><g id="Layer_2" data-name="Layer 2"><g id="islands"><g id="island-5"><circle class="cls-3" cx="100.631" cy="157.416" r="98.133" transform="translate(-81.836 117.263) rotate(-45)"/><path class="cls-4" d="M179.014,122.659a20.089,20.089,0,0,1-7.951,5.595h0a25.112,25.112,0,0,1-4.629,1.349,20.583,20.583,0,0,1-3.706.409,25.514,25.514,0,0,1,3.228-8.331c6.132-9.948,17.427-11.149,17.427-11.149S185.079,115.517,179.014,122.659Z"/><path class="cls-5" d="M166.862,111.933c-1.188,2.6-2.219,4.642-3.073,6.222a33.714,33.714,0,0,1-2.841,4.636,35.552,35.552,0,0,1,.594-8.649c1.789-9.069,6.736-13.473,6.736-13.473S170.43,104.142,166.862,111.933Z"/><path class="cls-6" d="M165.3,91.827c-.035.065-1.2,2.246-2.917,11.321-.761,4.02-1.289,7.829-1.646,10.93-.518,4.462-.679,7.44-.679,7.44a38.987,38.987,0,0,1-2.6-8.454l0-.018c-.138-.73-.257-1.486-.349-2.261v0C156.322,104.27,157.4,96.391,165.3,91.827Z"/><path class="cls-7" d="M179.015,122.66a21.783,21.783,0,0,1-12.583,6.943l-2.56-1.27s6.713-8.492,19.508-17.8C183.38,110.532,185.079,115.517,179.015,122.66Z"/><path class="cls-8" d="M160.732,114.078c-.518,4.462-.679,7.44-.679,7.44a38.987,38.987,0,0,1-2.6-8.454c.062-.024.067-.032,0-.018-.138-.73-.257-1.486-.349-2.261v0a48.13,48.13,0,0,1,2.118-6.123s.444,7.714,1.281,9.173A.687.687,0,0,0,160.732,114.078Z"/><path class="cls-9" d="M163.789,118.155a33.714,33.714,0,0,1-2.841,4.636,35.552,35.552,0,0,1,.594-8.649c1.437-.326,3.655-2.28,3.731-2.347C165.205,111.888,162.645,115.389,163.789,118.155Z"/><path class="cls-10" d="M171.061,128.254a25.112,25.112,0,0,1-4.629,1.349,20.583,20.583,0,0,1-3.706.409,25.514,25.514,0,0,1,3.228-8.331c.764.747,1.737,1.023,3.443.677C169.4,122.358,166.019,126.855,171.061,128.254Z"/><path class="cls-11" d="M145.408,71.544c.536-13.148,14.922-16.82,14.922-16.82Z"/><path class="cls-12" d="M161.073,75.867c-6.261,1.483-15.126-1.553-15.126-1.553,4.514-8.465,17.587-8.186,20.6-8.037C166.552,66.277,166.955,74.473,161.073,75.867Z"/><path class="cls-13" d="M161.073,75.867c-6.261,1.483-15.126-1.553-15.126-1.553,10.64.2,20.6-8.037,20.6-8.037S166.955,74.473,161.073,75.867Z"/><path class="cls-14" d="M90.888,22.118a76.948,76.948,0,0,1-2.781,9.493h0a82.923,82.923,0,0,1-4.021,9.412l-.321.185A43.728,43.728,0,0,1,82.327,27.44c.745-13.179,9.23-22.2,10.046-22.108C93.07,5.406,93.524,10.112,90.888,22.118Z"/><path class="cls-15" d="M91.139,8.783C83.6,22.9,83.765,41.209,83.765,41.209l.321-.185A96.038,96.038,0,0,1,85.5,27.494,92.659,92.659,0,0,1,91.139,8.783Z"/><path class="cls-16" d="M88.107,31.611h0a82.923,82.923,0,0,1-4.021,9.412l-.321.185A43.728,43.728,0,0,1,82.327,27.44,5.172,5.172,0,0,1,83.392,25.9C87.192,22.355,88,27.815,88.107,31.611Z"/><path class="cls-17" d="M78.256,43.583l-1.669.044s-.981-.922-2.424-2.352c-4.17-4.133-11.49-14.157-11.434-15.021s7.5-.411,11.223,3.4h0a10.264,10.264,0,0,1,.776.889C78.024,34.8,78.256,43.583,78.256,43.583Z"/><path class="cls-15" d="M65.964,27.023c9.422,1.65,12.292,16.56,12.292,16.56l-.754.02a26.866,26.866,0,0,0-5.167-10.956C68.17,27.7,65.964,27.023,65.964,27.023Z"/><path class="cls-18" d="M78.256,43.583l-1.669.044s-.981-.922-2.424-2.352c-.951-4.139-2.064-10.481-.211-11.625h0a10.264,10.264,0,0,1,.776.889C78.024,34.8,78.256,43.583,78.256,43.583Z"/><path class="cls-19" d="M82.172,35.314c-1.6,7.363-3.11,8.248-3.11,8.248l-1.419.037a23.1,23.1,0,0,1-1.66-6c0-.027-.009-.055-.012-.082h0c-.69-4.864-.122-9.991,1.355-12.912,2.235-4.42,5.045-5.369,5.6-5.127.292.126.545,1.067.639,2.7A51.927,51.927,0,0,1,82.172,35.314Z"/><path class="cls-15" d="M80.194,22.282c-4.2,6.829-2.266,21.31-2.266,21.31l.493-.013A70.933,70.933,0,0,1,78.2,33.571,37.777,37.777,0,0,1,80.194,22.282Z"/><path class="cls-20" d="M82.15,20.567c-2.072,2.287-3.908,5.027-3.169,11.129.694,5.727,2.407,1.884,3.212-2.705C83.039,24.167,83.326,19.27,82.15,20.567Z"/><path class="cls-21" d="M80.126,24.548c1.412,1.8-.854,3.013-.854,3.013Z"/><path class="cls-22" d="M82.172,35.314c-1.6,7.363-3.11,8.248-3.11,8.248l-1.419.037a23.1,23.1,0,0,1-1.66-6c.187,1.174,1.271,1.441,1.609-4.769l.677-.48s-.947,9.337,1.488,6.434c2.515-3,3.807-16.6,3.807-16.6h0A51.927,51.927,0,0,1,82.172,35.314Z"/><path class="cls-23" d="M21.447,157.885a94.356,94.356,0,0,0,12.085,23.98c8.452,12.086,11.2,9.447,14.082,6.14s4.446-13.87,4.446-13.87l-1.42.022s-1.251,16.481-7.228,16.228c-6-.253-17.9-23.145-19.558-31.747-1.665-8.631-.348-.773-.348-.773Z"/><path class="cls-24" d="M122.163,184.555c1.926,14.03,7.454,26.418,14.454,27.8,6.96,1.377,14.094-10.641,16.529-20.164s3.809-15.771,3.809-15.771l-1.309.027s-2.54,27.889-15.771,33.053c-7.185,2.8-13.106-2.006-16.241-24.436Z"/><path class="cls-25" d="M168.032,157.576c-.915,17.96-5.386,37.589-9.7,39.463s-8.719-3.8-10.514-12.691l.821.658s2.236,8.94,6.655,10.7c3.535,1.408,6.928-4.7,9.3-14.86S166.3,157.6,166.3,157.6Z"/><path class="cls-26" d="M39.187,181.824c2.382,1.058,17.507,6.122,17.507,6.122l17.511.445L95.741,199.58s24.351-2.61,24.665-2.857,7.293-9.465,7.293-9.465,26.837-6.4,30.2-7.884l-57.159-5.685-40.713.732Z"/><path class="cls-27" d="M39.187,181.824s-14.009-18.138-17.645-28.368c0,0,73.547,2.183,94.078,2.5,20.208.31,56.369-3.12,56.369-3.12s-7.6,13-14.088,26.539c0,0-19.207,4.664-25.041,4.616l-3.8-3.163s-15.482,5.566-24.792,9.56c0,0-13.911,1.607-16.012,1.3,0,0-8.425-4.577-13.4-7.255l-.711-5.361-11.506-2.7.549,3.674S49.291,182.72,39.187,181.824Z"/><path class="cls-28" d="M39.187,181.824c1.8,2.1,22.5-2.664,22.6-3.4s-9.934-21.057-13.689-21.9-25.916-2.964-26.063-1.779S33.861,175.633,39.187,181.824Z"/><path class="cls-29" d="M53.509,159.4c.423.981,6.52,10.34,7.437,10.693s12.06-.682,12.426-2.274,1.11-7.277-.08-7.812S53.114,158.478,53.509,159.4Z"/><path class="cls-30" d="M62.514,174.621c.478,1.1,9.683,3.323,10.309,2.582s1.079-6.7.239-7.228-10.45.913-10.755,1.377A4.56,4.56,0,0,0,62.514,174.621Z"/><path class="cls-31" d="M75.576,173.569c-.273,1.234-.566,8.991.1,10.327s11.938,6.55,12.916,6.836,21.75-11.306,22.046-12.661.823-5.353-.7-6.137S75.8,172.575,75.576,173.569Z"/><path class="cls-32" d="M75.713,169.932c-.313-3.461.077-11.191.692-12.032s34.779-1.574,34.972.461.333,10.847-.821,11.748S75.858,171.536,75.713,169.932Z"/><path class="cls-33" d="M112.469,160.924c-.147,1.322-.407,16.639.321,17.164s10.239,4.094,10.9,3.96a26.22,26.22,0,0,0,5.14-3.087c.558-.606,4.242-21.172,3.334-21.34S112.735,158.521,112.469,160.924Z"/><path class="cls-34" d="M92.461,190.737c.479.387,12.384-1.668,18.893-3.934.637-.221,9.726-3.863,9.233-4.33s-7.309-3.256-8.581-3.17S92.021,190.382,92.461,190.737Z"/><path class="cls-35" d="M136.916,170.964c-.612,1.112-3.983,12.609-3.538,12.6s16.57-3.139,16.462-3.727-4.177-9.147-4.975-9.43S137.511,169.882,136.916,170.964Z"/><path class="cls-36" d="M136.843,169.328c.116.714,6.61-.5,7.384-1.1s3.335-10.133,2.561-10.777-7.938-.908-8.114.158S136.708,168.5,136.843,169.328Z"/><path class="cls-37" d="M146.592,169.546c.135,1.014,3.742,10.28,4.136,10.39a23.957,23.957,0,0,0,6.086-1.535c.884-.579,13.033-21.524,13.276-22.468s-19.958-.187-20.461.95S146.418,168.241,146.592,169.546Z"/><path class="cls-38" d="M27.047,163.947c36.756-.737,48.522-2.195,48.522-2.195L75,169.047s42.033-3.882,58.17-8.656l-3.738,21.187-25.165,8.809-16.012,1.3-13.4-7.255-.711-5.361-6.642.88-4.315.1-6.495,7.9,17.511.445L95.741,199.58l24.665-2.857,7.293-9.465,30.2-7.884,14.088-26.539L21.976,155.543Z"/><polygon class="cls-39" points="63.189 180.046 62.64 176.372 50.673 155.82 76.054 155.543 74.19 179.395 74.857 184.429 88.254 191.684 81.605 192.236 74.205 188.391 56.694 187.946 40.517 182.351 63.189 180.046"/><path class="cls-40" d="M134.024,155.549l-4.593,26.029-9.847,3.447c.321-.112.822,11.7.822,11.7l7.293-9.465,24.775-29.084,10.8-4.081Z"/><path class="cls-41" d="M157.9,179.374l.324-.61c.852-.9,6.421-11.691,9.605-18.094l4.159-7.834h0l-119.31,1.521c-17.326-.49-31.137-.9-31.137-.9.148.418.315.849.5,1.291h0a10.274,10.274,0,0,0,1.2,2.645A135.581,135.581,0,0,0,33.3,173.757a94.309,94.309,0,0,0,5.886,8.067,1.838,1.838,0,0,0,1.082.433c4.191,1.593,16.425,5.689,16.425,5.689l8.754.222,8.757.223L95.741,199.58h0s24.351-2.61,24.665-2.857h0c.313-.246,7.239-9.394,7.292-9.463v0h0c.011,0,26.838-6.4,30.2-7.884Z"/><path class="cls-42" d="M183.279,141.882c-1.684,4.3-11.034,7.4-11.034,7.4a17.066,17.066,0,0,1,7.54,7.859c-2.13.038-6.24-1.705-6.366-1.756,1.108,1.9,5.542,10.616,4.241,10.226-3.674-1.1-16.5-10.552-16.5-10.552-1.556.716-6.106.452-6.106.452-1.281,5.245-3.148,4.686-3.148,4.686a27.428,27.428,0,0,1-4.211-3.87c-.98-1.072-1.675-1.937-1.8-2.093l-.018-.02c.02.032.039.066.057.1l.017.032a1.832,1.832,0,0,1,.086.164c.015.032.032.064.049.1,1.265,2.7.815,8.589.392,8.77-1.3.561-4.114-6.583-4.114-6.583-13.619,1.136-37.015,2.922-37.015,2.922-6.978,6.979-15.5,9.636-17.947,7.9-1.129-.8-1.136-5.28-1.136-5.28v0c-.094.1-3.444,3.818-5.3,2.943-.69-.325,4.02-4.71,4.155-4.836l0,0c-9.508,1.057-24.055-2.579-25.358-2.288a.236.236,0,0,0-.057.019c-6.568,3.436-15.326,4.933-15.46,4l7.542-5.22,0,0s-8.085-1.711-14.635-1c-6.59.716-21.449,7.093-21.408,5.354A21.546,21.546,0,0,1,18.46,152.4c-2.009.586-6.62.016-6.62.016,2.669-2.931,8.206-5.974,11.242-7.513,1.284-.652,2.128-1.038,2.128-1.038a42.53,42.53,0,0,1,5.868-1.192c3.8-.552,8.112-5.719,8.112-5.719s34.716-6.016,41.143-6.4c6.4-.382,53.242-.571,53.242-.571s16.708,6.088,20.123,7.478c.195.079.409.179.638.291,3.822,1.905,12.283,8.464,12.283,8.464s1.417-2.814,7.176-4.2C179.505,140.645,183.724,140.747,183.279,141.882Z"/><path class="cls-43" d="M47.6,59.457l8.979,19.41L48.805,81.21a142.892,142.892,0,0,0,3.646,13.948s-21.906,5.786-23.722,8.8c-1.842,3.055-9.2,24.6-9.2,24.6l5.678,15.312,5.868-1.192.154,4.084s15.29,2.967,19.32,3.2l22.171-9.1-3.471-6.551s25.686-3.862,37.008-3.947l28.562,2.695,8.3,2.171-2.278,4.723,19.663,4.482,6.111,1.774,8.726-13.618-11.472-4.262.058-10.454-16.2-5.661,6.37-22.332s-4.787-13.231-10.288-20.734L149.7,46.213s-28.1-15.366-32.045-16.57c-3.925-1.2-19.376-1.039-19.376-1.039l3.41,13.682s-6.3-2.931-10.682-2.3C86.6,40.623,51.324,54.146,47.6,59.457Z"/><path class="cls-44" d="M102.386,124.443c-1.522,5.349-19.38.471-19.38.471l9.67,6.376,13.584-.922Z"/><path class="cls-45" d="M54.246,63.648c15.368,11.429,29.43,11.028,29.43,11.028s23.5-6.274,27.609-10.906c0,0,2.088,9.027,6.646,10.84C122.559,76.45,126.8,62.5,126.8,62.5s1.989-8.106,1.524-12.022l-1.192.581s-.722,19.968-7.576,20.352-6.816-8.689-6.816-8.689,9.248-4.617,11.06-7.448Z"/><path class="cls-46" d="M49.307,83.516c6.356,12.261,29.445,18.758,29.954,18.753s9.468,6.784,17.164,4.136c0,0-3.41-10.5-22.289-17.071C56.219,83.1,48.805,81.21,48.805,81.21Z"/><path class="cls-47" d="M27.58,107.044a13.732,13.732,0,0,0,2.769-.528s-2.3,6.808-.762,8.07,48.84-5.369,43.183-7.4c-1.036-.371-27.368-2.782-27.368-2.782l-11.784-2.535-6.434,4Z"/><path class="cls-48" d="M30.418,138.823c9.04,2.4,22.672,3.771,22.672,3.771l9.6-5.539-2.122-2.011-29.9,2.162Z"/><path class="cls-49" d="M132.069,118.588l2.753,14.475,3.265.853,1.035-9.835s1.936,1.4,14.227-.173c8.438-1.079,10.521-3.272,10.521-3.272l.061-2.757-27.794-.161Z"/><path class="cls-50" d="M147.237,133.609c1.987,2.946,15.04,4.556,18.722,3.981s7.119-1.458,7.119-1.458l2.267-3.537-18,.095Z"/><path class="cls-51" d="M129.523,67.391c1.928,4.779,3.446,8.427,3.446,8.427L151.6,88.1l2.5,1.784-5.268-10.853Z"/><path class="cls-52" d="M144.23,43.936l-20.1-7.215L98.551,28.414l.458,3.1A19.4,19.4,0,0,0,103,33.965s3.19,6.387,6.235,7.556c3.711,1.424,6.39-3.739,6.39-3.739L132.1,44.244l17.044,4.076L149.429,47Zm-34.867-2.9a9.735,9.735,0,0,1-5.29-6.77l10.448,3.309S112.265,42.557,109.363,41.039Z"/><path class="cls-53" d="M75.609,77.4c.481,2.814,10.363,6.861,10.363,6.861s5.368.747,8.86-.454c5.231-1.8,5.191-4.121,5.191-4.121Z"/><path class="cls-54" d="M129.964,49.229l1.222,16.854-2.921-.4-2.16,8.986,1.395,5.41-.082,2.875-5.993.266s-9.271-6.023-16.388-8.427l-4.43,4.36-25-1.756-1.555,6.237L57.46,65.47Z"/><polygon class="cls-55" points="149.42 47.316 143.816 69.152 134.681 66.222 137.207 51.401 131.327 46.152 132.521 55.193 130.882 48.428 105.661 31.078 149.42 47.316"/><polygon class="cls-56" points="154.104 89.885 154.022 90.168 153.681 91.367 147.94 111.496 139.093 113.48 136.692 80.397 136.433 76.844 136.238 74.141 141.722 77.424 150.774 82.846 151.192 83.73 154.104 89.885"/><polygon class="cls-57" points="148.611 134.504 145.491 141.016 166.619 146.213 175.345 132.595 164.113 130.162 163.931 117.879 144.587 116.626 143.123 135.234 145.837 131.868 152.533 130.743 148.611 134.504"/><polygon class="cls-58" points="50.552 149.962 72.723 140.866 69.252 134.315 92.676 131.29 75.838 120.367 91.895 118.092 96.425 106.405 97.623 106.101 97.133 102.167 100.607 79.151 95.776 82.435 87.095 82.034 84.214 87.491 64.175 93.051 66.926 107.146 42.421 110.532 45.149 134.315 53.912 140.209 50.552 149.962"/><polygon class="cls-59" points="73.529 107.473 69.252 134.315 73.982 133.605 75.838 120.367 91.895 118.092 96.425 106.405 97.623 106.101 78.128 97.444 69.562 106.041 73.529 107.473"/><path class="cls-60" d="M106.26,130.368l28.562,2.695-2.753-14.475,4.064-4s-5.953-20.324-6.539-23.465l-2.176-8.168-5.993.266a103.689,103.689,0,0,0-16.388-8.427l-4.43,4.36-1.4,7.748-2.074,15.268.49,3.934-1.2.3L91.9,118.092l4.8,2.616,5.69,3.735Z"/><path class="cls-61" d="M112.356,59.329c2.262,8.831,4.7,13.458,7.893,12.874,4.157-.762,9.277-15.025,8.966-21.715l-.888-.009s-.762,12.243-5.8,17.956c-4.792,5.435-8.315-3.758-9.079-8.761Z"/><path class="cls-62" d="M129.963,49.229s-2.894,5.435-7.351,8.4c-.989.657-1.64-1.273-1.64-1.273a152.1,152.1,0,0,1-22.1,9.8C87.806,69.8,81.069,71.74,81.069,71.74s2.555,2,1.514,2a67.184,67.184,0,0,1-21.768-6.39c-1.5-.745-2.8-1.4-3.935-1.964-6.481-3.255-7.558-3.9-7.558-3.9s.787,4.035-.556,3.147-2.389-5.185-2.389-5.185a102.516,102.516,0,0,1,26.214-14.4c15.521-5.91,20.764-7.208,20.764-7.208s5,1.4,11.438,3.282l.134.04C113.64,43.715,125.043,47.187,129.963,49.229Z"/><path class="cls-19" d="M101.755,29.033c2.012,7.652,4.544,11.1,7.363,11.947,2.579.773,4.825-3.159,5.461-6.157l-.887-.2s-1.6,5.745-4.561,5.582c-4.538-.251-6.432-10.883-6.432-10.883Z"/><path class="cls-63" d="M151.035,47.735c-3.255-.66-17.9-5.913-17.9-5.913s.444.77-.723.909c-5.212.621-32.17-12.682-32.17-12.682-2.089,2.829-5.931,1.857-5.931,1.857s.928-2.888,3.024-3.824c0,0,5.881-3.291,21.793,1.154a116.249,116.249,0,0,1,11.989,3.835l0,0A50.179,50.179,0,0,1,143.7,40.135C151.585,46.339,151.035,47.735,151.035,47.735Z"/><path class="cls-64" d="M98.621,105.988a24.323,24.323,0,0,1-9.341-.92C83.717,103.55,77.751,98.6,77.751,98.6s.3,1.784-.325,1.923c-.583.131-23.594-12.734-28.841-19.091a6.622,6.622,0,0,1-.839-1.242s5.387-1.73,8.828-1.318c3.23.385,23.214,4.842,30.951,10.086.082.057.165.114.245.171a12.572,12.572,0,0,1,1.133.891,24.754,24.754,0,0,1,2.583,2.708A44.987,44.987,0,0,1,98.621,105.988Z"/><path class="cls-65" d="M75.609,77.4c3.2,2.06,7.384,4.138,8.595,4.14,0,0-.42-1.257,1.512,0s10.06.9,10.06.9,6-3.116,5.745-4.969c0,0-5.784-2.707-8.449-2.717s-15.564,1.294-15.954,1.416S74.62,76.758,75.609,77.4Z"/><path class="cls-66" d="M154.514,90.775c-.159-.2-.324-.405-.492-.607-1.351-1.625-2.9-3.161-2.9-3.161a52.947,52.947,0,0,0-5.84-3.5c-1.686-.812-5.906-4.135-8.849-6.664a27.739,27.739,0,0,1-3.093-2.917c-.833-1.2,1.213-1.07,1.213-1.07-2.883-2.264-6.287-7.176-6.287-7.176a35.707,35.707,0,0,1,15.547,3.469l0,0c1.822.907,5.875,8.314,8.429,13.25h0c1.263,2.441,2.138,4.236,2.138,4.236C155.44,89.869,154.514,90.775,154.514,90.775Z"/><path class="cls-67" d="M163.931,117.879s-1.209,2.577-6,3.433c-4.821.862-14.756.127-14.756.127a13.615,13.615,0,0,1,4.44,2.586s-8.95-1.294-12.433-2.532c-5.788-2.058-5.522-3.725-5.522-3.725,6.012-3.692,15.461-6.458,18.279-6.272,1.529.1,6.1,1.968,9.965,3.657h0C161.169,116.579,163.931,117.879,163.931,117.879Z"/><path class="cls-68" d="M175.346,132.6s-5.453,3.863-8.3,3.9c0,0-.3-.312.264-1.11,0,0-16.726.046-18.7-.878a6.215,6.215,0,0,1-2.584-2.3,3.631,3.631,0,0,1-.19-.335q.5-.213,1.012-.406a41.534,41.534,0,0,1,5.728-1.691h0a63.45,63.45,0,0,1,11.293-1.438S168.34,127.711,175.346,132.6Z"/><path class="cls-69" d="M29.685,112.2c-.723,0,.249-2.506,1.248-4.716v0c.8-1.763,1.61-3.34,1.61-3.34l-1.5.964a24.94,24.94,0,0,1-5.543,2.822c-.851-1.561,1.847-4.932,1.847-4.932,7.283-4.213,25.106-7.834,25.106-7.834A31.111,31.111,0,0,1,58.148,97l.01,0h0c6.282,2.649,12.731,7.187,15.37,10.473C73.962,108.012,42.49,112.119,29.685,112.2Z"/><path class="cls-70" d="M29.685,112.2c-.723,0,.249-2.506,1.248-4.716-1.412,3.713.1,3.554,2.106,3.561s33.278-3.575,34.678-4.665C69.1,105.3,58.344,97.144,58.151,97h.009c6.282,2.649,12.731,7.187,15.37,10.473C73.962,108.012,42.49,112.119,29.685,112.2Z"/><path class="cls-71" d="M29.816,145.946c-4.366-1.238-13.48-1.81-20.483-2.284-5.145-.348-9.16-.646-9.311-1.118-.379-1.178,4.266-5.277,11.768-5.029a19.007,19.007,0,0,1,6.191,1.493h0a59.2,59.2,0,0,1,11.731,6.72.12.12,0,0,0,.013.133A1.191,1.191,0,0,1,29.816,145.946Z"/><path class="cls-72" d="M31.939,146.53l-.821-.133a9.139,9.139,0,0,0-.953-.349,1.584,1.584,0,0,0-.318-.387c-.033-.03-.071-.016-.1.014A170.622,170.622,0,0,1,14.67,129.826l-.008-.008c-6.271-7.593-8.928-12.659-8.365-13.333.88-1.058,12.874,2.707,18.349,9.206a31.746,31.746,0,0,1,4.339,6.706v.006A29.683,29.683,0,0,1,31.939,146.53Z"/><path class="cls-15" d="M9.846,118.456c8.591,2.179,18.582,19.6,22.093,28.075l-.821-.133A75.842,75.842,0,0,0,20.876,129.38C14.635,121.738,9.846,118.456,9.846,118.456Z"/><path class="cls-73" d="M29.816,145.946c-4.366-1.238-13.48-1.81-20.483-2.284l-.243-.146a20.369,20.369,0,0,1,8.891-4.508h0a59.2,59.2,0,0,1,11.731,6.72.12.12,0,0,0,.013.133A1.191,1.191,0,0,1,29.816,145.946Z"/><path class="cls-74" d="M8.73,118.519c-3.464-.881,7.171,13.9,10.328,15.058,3.183,1.169,5.444.516,1.818-4.2C17.358,124.807,10.957,119.085,8.73,118.519Z"/><path class="cls-21" d="M15.928,123.942c-2.052.888.513,3.659,2.682,2.753Z"/><path class="cls-75" d="M31.939,146.53l-.821-.133a9.139,9.139,0,0,0-.953-.349,1.584,1.584,0,0,0-.318-.387c-.033-.03-.071-.016-.1.014A170.622,170.622,0,0,1,14.67,129.826c10.093,11.033,12.458,9.213,10.877,4.462,0,0,4.795,2.648,3.438-1.885A29.683,29.683,0,0,1,31.939,146.53Z"/><path class="cls-76" d="M31.909,138.188c3.878-.376,20.257,2.373,22,2.021s12.383-6.7,12.383-6.7-16.6.065-23.287-.02c-6.7-.086-13.628,2.947-13.628,2.947s-.23,3.491,1.05,4.11Z"/><path class="cls-77" d="M98.77,148.1c31.114.669,45.641.443,45.338-1.078l-18.752-2.073s10.88-3.445,12.621-6.491c.4-.7-4.535-3.29-11.322-4.486l6.564-.894s-17.759-2.477-25.749-2.6c0,0,7.87,2.806,11.935,6.609,1.055.986-5.488,1.1-4.393,1.629s7.911,1.809-1.446,4.634C101.173,147.1,98.77,148.1,98.77,148.1Z"/><polygon class="cls-78" points="105.037 74.791 111.14 72.964 127.418 82.952 121.425 83.218 105.037 74.791"/><path class="cls-79" d="M104.927,41.162c7.472,2.279,18.483,9.4,18.483,9.4a8.117,8.117,0,0,1-1.209,1.04c-60.475.147-62.587-.634-62.587-.634l-2.133,1.174s2.206-.95,24.692.158c19.42.958,32.492,1.51,36.023,1.655a50.469,50.469,0,0,1-6.508,2.559c-9.308,3-28.324,6.073-28.324,6.073a52.164,52.164,0,0,0,10.1,2.693s-2.058.188-5.31.4l.542-.05C64.391,64,48.875,57.579,48.875,57.579l-1.217.883c3.327.075,26.23,6.217,31.572,7.661-7.305.243-15.979.225-22.35-.737,1.135.568,2.437,1.219,3.935,1.964a67.184,67.184,0,0,0,21.768,6.39c1.041,0-1.514-2-1.514-2s6.737-1.942,17.806-5.591a152.1,152.1,0,0,0,22.1-9.8s.651,1.93,1.64,1.273c4.457-2.962,7.351-8.4,7.351-8.4C125.043,47.187,113.64,43.715,104.927,41.162Z"/><path class="cls-80" d="M56.2,57.871c-13.172,1.245,10.411-11.233,27.172-16.3,5.383-1.627,20.784-1.808,28.641,3.5A217.811,217.811,0,0,1,56.2,57.871Z"/><path class="cls-81" d="M138.183,80.605l2.135,4.792,9.932,18-2.31,8.1a48.713,48.713,0,0,1,7.541,2.616c-5.971,3.505-13.657-1.3-13.657-1.3l-4.272-28.143.769-.133Z"/><path class="cls-82" d="M91.486,92.724a59.051,59.051,0,0,1,4,9.941c.308,1.108-28.983-21.626-28.983-21.626l-2.221-.559A210.265,210.265,0,0,1,81.93,94.033h0c5.317,4.006,5.8,6.683,5.8,6.683C72.643,87.653,64.3,85.03,50.891,79.367l-1.259.465c11.635,3.441,24.052,16.832,24.053,16.833-4.9-1.452-14.946-6.444-25.645-15.97l.545.733c5.247,6.357,28.258,19.222,28.841,19.091.624-.139.325-1.923.325-1.923s5.966,4.954,11.529,6.472a24.323,24.323,0,0,0,9.341.92A44.987,44.987,0,0,0,91.486,92.724Z"/><path class="cls-83" d="M154.514,90.775c-.159-.2-.324-.405-.492-.607l-.341,1.2c-6.253-3.28-15.5-10.762-15.5-10.762l-1.389-.2-.1,0-9.192-.32-.081,2.875-4.2.053L102.6,77.19l2.438-2.4s-12.99-5.072-10.667-7.171c7.153-6.467,35.593-18.39,35.593-18.39L134.9,60.744l9.385,6.424-.469,1.984,0,0c-.208-.067-10.324-3.334-8.467.454,1.081,2.2-1.028,4.024,1.752,6.67,5.73,5.454,15.116,9.616,15.116,9.616.71,0,.079-2.56.031-3.487,1.263,2.441,2.138,4.236,2.138,4.236C155.44,89.869,154.514,90.775,154.514,90.775Z"/><path class="cls-84" d="M151.035,47.735c-3.255-.66-17.9-5.913-17.9-5.913s.444.77-.723.909c-5.212.621-32.17-12.682-32.17-12.682-2.089,2.829-5.931,1.857-5.931,1.857,3.163-2.109,3.5-3.292,3.5-3.292s2.349,1.1,8.881,4.047c16.2,7.307,23.8,7.814,24.41,8.01a14.682,14.682,0,0,1-3.781-4.214s5.349,2.833,13.327,6.225c0,0-1.574-6.03-9.521-9.608A50.179,50.179,0,0,1,143.7,40.135C151.585,46.339,151.035,47.735,151.035,47.735Z"/><path class="cls-85" d="M62.673,154.456a33.611,33.611,0,0,0-10.886,2.5s-8.085-1.711-14.635-1c-6.59.716-21.449,7.093-21.408,5.354A21.546,21.546,0,0,1,18.46,152.4c-2.009.586-6.62.016-6.62.016,2.669-2.931,8.206-5.974,11.242-7.513,0,0-5.938,8.024,2.107,8.862C49.648,156.3,60.756,154.475,62.673,154.456Z"/><path class="cls-86" d="M146.474,163.376c-1.3.561-4.114-6.583-4.114-6.583-13.619,1.136-37.015,2.922-37.015,2.922-6.978,6.979-15.5,9.636-17.947,7.9-1.129-.8-1.136-5.28-1.136-5.28v0c-.094.1-3.444,3.818-5.3,2.943-.69-.325,4.02-4.71,4.155-4.836l0,0c-9.508,1.057-24.055-2.579-25.358-2.288l3.409-1.96a62.416,62.416,0,0,1,17.716,2.35c15.506,2.908,15.475,2.047,37.26-.653a131.887,131.887,0,0,0,25.887-5.8l1.84,2.111,0,0c.02.032.039.066.057.1l.017.032c.027.049.055.1.086.164.015.032.032.064.049.1C147.347,157.308,146.9,163.2,146.474,163.376Z"/><path class="cls-87" d="M145.891,154.236l1.8,2.093C146.711,155.257,146.016,154.392,145.891,154.236Z"/><path class="cls-88" d="M183.279,141.882c-1.684,4.3-11.034,7.4-11.034,7.4a17.066,17.066,0,0,1,7.54,7.859c-2.13.038-6.24-1.705-6.366-1.756,1.108,1.9,5.542,10.616,4.241,10.226-3.674-1.1-16.5-10.552-16.5-10.552-1.556.716-6.106.452-6.106.452-1.281,5.245-3.148,4.686-3.148,4.686s2.636-14.918-5.988-19.078c0,0,28.5-7.071,21.773,3.425l-1.068,1.667s1.417-2.814,7.176-4.2C179.505,140.645,183.724,140.747,183.279,141.882Z"/><polygon class="cls-89" points="43.054 111.409 68.668 133.568 68.326 136.493 65.937 134.332 61.594 136.593 44.244 136.593 43.054 111.409"/><path class="cls-90" d="M126.655,133.975a36.819,36.819,0,0,1,7,1.882c3.724,1.418,4.663,2.359,4.663,2.359l-.341.245a15.052,15.052,0,0,0-4.8-2.265c-3.493-1.141-6.476-1.889-6.476-1.889Z"/><path class="cls-91" d="M119.5,137.371l.042.392s-4.21.593-4.313,1.048c0,0-.523-.144-.328-.248S119.5,137.371,119.5,137.371Z"/><path class="cls-92" d="M118.434,140.639l.063.6s-.269,1.1-4.822,2.488c-4.585,1.4-14.548,4.382-14.548,4.382l-.357-.008s8.758-3.023,13.848-4.721C117.666,141.7,118.434,140.639,118.434,140.639Z"/><path class="cls-93" d="M125.356,144.952l.324.312s18.011,1.524,18.093,2.167c0,0,.217.254.335-.406a46.96,46.96,0,0,0-9.453-1.268A82.1,82.1,0,0,1,125.356,144.952Z"/><path class="cls-94" d="M131.2,136.551c-1.655.605-6.074,6.033-4.773,6.74s10.987-3.669,9.639-4.8S132.592,136.041,131.2,136.551Z"/><path class="cls-94" d="M118.214,134.027c-1.639.112,5.143,5.439,6.519,4.938s2.67-1.552,1.85-2.206S120.9,133.843,118.214,134.027Z"/><path class="cls-94" d="M121.218,139.456c-1.213.5,2.772,4.275,3.557.478C124.894,139.361,122.108,139.092,121.218,139.456Z"/><path class="cls-94" d="M110.083,147c2.306,1.064,8.443.5,8.532-.6s-.173-2.138-1.495-2.157S108.031,146.052,110.083,147Z"/><path class="cls-95" d="M103.637,139.539c-18.632,5.028-36.66,16.005-13.814,16.892,23.422.91,45.779-3.88,54.409-6.727C158.887,144.87,110.18,137.772,103.637,139.539Z"/><path class="cls-96" d="M90.3,131.574c11.475,10.241,47.785,2.342,47.785,2.342l-3.265-.853-20.45-2.169-8.366-.914.254.388A151.951,151.951,0,0,0,90.3,131.574Z"/><polygon class="cls-97" points="131.327 46.152 134.519 46.799 142.863 51.619 137.207 51.401 131.327 46.152"/><polygon class="cls-98" points="139.562 66.23 142.863 51.619 143.816 69.152 136.77 66.648 139.562 66.23"/><path class="cls-99" d="M74.892,58.893c13.648,2.807,39.5-3.4,36.023-4.755-3.439-1.339-45.212-1.47-47.145.806C61.8,57.261,74.892,58.893,74.892,58.893Z"/><g class="cls-100"><path class="cls-101" d="M105.842,118.694c-.582-.416-8.833-7.344-8.833-7.344s.478,4.9,1.5,5.422C100.643,117.866,105.842,118.694,105.842,118.694Z"/><path class="cls-102" d="M108.873,120.3c-1.017,3.268-5.726,3.758-10.385,1.076-4.544-2.616-7.167-7.185-5.986-10.194,1.15-2.934,5.544-3.383,9.93-1.018C106.925,112.589,109.864,117.118,108.873,120.3Z"/><path class="cls-103" d="M104.745,118.01c-.535,1.63-2.9,1.875-5.251.542-2.313-1.314-3.685-3.641-3.1-5.194.574-1.531,2.848-1.765,5.114-.526C103.806,114.088,105.272,116.4,104.745,118.01Z"/><path class="cls-101" d="M120.309,119.44c.582-.416,8.833-7.344,8.833-7.344s-.477,4.9-1.5,5.423C125.508,118.612,120.309,119.44,120.309,119.44Z"/><path class="cls-104" d="M117.278,121.048c1.017,3.269,5.726,3.758,10.385,1.076,4.544-2.615,7.167-7.184,5.987-10.193-1.151-2.935-5.544-3.384-9.931-1.019C119.226,113.335,116.287,117.864,117.278,121.048Z"/><path class="cls-105" d="M121.406,118.756c.536,1.63,2.9,1.875,5.251.542,2.313-1.313,3.685-3.64,3.1-5.194-.574-1.531-2.847-1.764-5.114-.526C122.346,114.834,120.879,117.15,121.406,118.756Z"/><ellipse class="cls-106" cx="114.185" cy="123.684" rx="22.665" ry="20.884"/><path class="cls-107" d="M90.7,96.121c-.11,3.67,23.485,6.679,23.485,6.679a110.028,110.028,0,0,1,25.427,6.075c18.773,7.1-24.485-33.477-24.485-33.477l-22.28,2.286Z"/></g><path class="cls-108" d="M163.931,117.879s-1.209,2.577-6,3.433c-4.821.862-14.756.127-14.756.127a13.615,13.615,0,0,1,4.44,2.586s-8.95-1.294-12.433-2.532c-5.788-2.058-5.522-3.725-5.522-3.725,7.01,3.459,17,2.839,17,2.839s-4.335-1.159-5.849-2.394c0,0,8.2,2.884,16.078,1.788s1.011-4.848,1.011-4.848h0C161.169,116.579,163.931,117.879,163.931,117.879Z"/><path class="cls-109" d="M175.346,132.6s-5.453,3.863-8.3,3.9c0,0-.3-.312.264-1.11,0,0-16.726.046-18.7-.878a6.215,6.215,0,0,1-2.584-2.3c.126-.178.082-.3-.19-.335-2.34-.323-1.467-.426,1.012-.406,6.438.05,23.716.926,23.716.926s-9.706-3.116-17.986-2.617a63.45,63.45,0,0,1,11.293-1.438S168.34,127.711,175.346,132.6Z"/><path class="cls-110" d="M179.785,157.143a64.313,64.313,0,0,0-12.9-8.349s3.57,5.507,6.539,6.593A49.3,49.3,0,0,0,179.785,157.143Z"/><path class="cls-111" d="M172.245,149.284c-4.687-.885-5.416-1.435-5.416-1.435s8.881-5.216,16.45-5.967a10.264,10.264,0,0,1-5.014,4.695C174.392,148.463,172.245,149.284,172.245,149.284Z"/><path class="cls-112" d="M141.825,112.81l-7.019,2.389-4.814-15.015a1.282,1.282,0,0,0,.311-.43,1.492,1.492,0,0,0,.124-.643,1.4,1.4,0,0,0-.806-1.262,1.059,1.059,0,0,0-.4-.078h0l-4.678-14.592,12.759-.162Z"/><polygon class="cls-113" points="141.824 112.811 137.302 83.017 127.418 82.952 127.47 83.142 124.542 83.179 125.312 85.582 130.289 85.741 139.875 113.474 141.824 112.811"/><polygon class="cls-114" points="121.425 83.218 121.6 84.502 138.321 84.535 138.183 80.605 130.777 80.117 127.5 80.077 127.418 82.952 121.425 83.218"/><polygon class="cls-115" points="138.183 80.605 130.056 80.357 129.914 84.519 138.321 84.535 138.183 80.605"/><polygon class="cls-116" points="132.118 91.033 133.267 96.849 135.304 100.249 136.939 98.229 132.118 91.033"/><polygon class="cls-117" points="121.491 83.703 128.256 83.618 128.593 80.197 127.5 80.077 127.418 82.952 121.425 83.218 121.491 83.703"/><path class="cls-118" d="M132.288,104.619a47.751,47.751,0,0,1-1.985-4.865,1.492,1.492,0,0,0,.124-.643,1.4,1.4,0,0,0-.806-1.262,41.3,41.3,0,0,1-1.667-5.762c-.543-3.319,2.671.013,4.033,2.912C133.377,97.956,132.742,105.277,132.288,104.619Z"/><polygon class="cls-119" points="129.338 87.271 129.974 89.655 127.131 90.221 99.019 88.282 99.59 84.778 129.338 87.271"/><path class="cls-120" d="M108.8,85.55,102.2,87.6s28,2.011,27.778,2.056c-.132.026-1.443,5.968-1.443,5.968l-1.731-5.4L99.019,88.282l.571-3.5Z"/><path class="cls-121" d="M111.26,85.756c-3.8,1.8,9.879,2.922,12.8,2.645s.517-1.529.517-1.529Z"/><polygon class="cls-122" points="127.18 87.106 99.59 84.778 100.607 79.151 105.037 74.791 106.943 74.22 123.215 83.006 123.353 84.48 125.58 84.535 127.18 87.106"/><path class="cls-123" d="M100.643,84.867c-.021-3.361,1.5-7.459,2.569-7.532s8.528,4.363,8.939,4.967a19.449,19.449,0,0,1,1.4,3.654Z"/><path class="cls-123" d="M115.417,86.114s-2.587-3.405-1.033-3.629a9.932,9.932,0,0,1,10.195,4.387Z"/><path class="cls-123" d="M108.7,75.283c-2.194,1.738,2.905,5.914,3.88,6.555s6.239-1.206,6.239-1.206Z"/><path class="cls-124" d="M127.18,87.107l-4.082-.345-.68-1.658-14.842-3.641s-1.633,3.66-1.7,3.846l-6.289-.531,1.016-5.627,4.43-4.361,1.906-.57,16.272,8.785.138,1.476,2.227.054Z"/><path class="cls-125" d="M134.922,104.172c-.384.4-2.018,2.439-1.973,3.653s4.162.582,4.1-.466S135.9,103.158,134.922,104.172Z"/><path class="cls-118" d="M135.275,115.2c-.9-3.685.854-7.28,1.984-6.729s2.353,5.1,2.353,5.1Z"/><path class="cls-125" d="M131.183,90.367c-.911-1.605-.631,1.7-.312,1.8S131.839,91.524,131.183,90.367Z"/><path class="cls-126" d="M49.938,136.087l-5.694.506-8.487-.735L35.7,135.3q-.27-2.761-.559-5.439C33.24,112.2,30.8,97.608,29.594,90.88c-.008-.053-.017-.1-.027-.155l-.12-.664c-.024-.142-.049-.279-.075-.412l-.126-.692c-.248-1.343-.39-2.063-.39-2.063L42.6,84.98q.242,1.453.49,3c.054.33.108.665.161,1l0,.031c1.409,8.83,2.926,19.432,4.156,28.332-.039.009-.078.022-.118.035a1.79,1.79,0,0,0-1.243,1.561,1.713,1.713,0,0,0,1.7,1.8h.024a.991.991,0,0,0,.109,0c.846,6.181,1.511,11.2,1.838,13.676.006.048.011.094.018.14C49.868,135.544,49.938,136.087,49.938,136.087Z"/><path class="cls-127" d="M25.111,70.6s7.321-6.018,14.509-2.151L39.24,71.6a29.833,29.833,0,0,1-6.291,1.8,34.346,34.346,0,0,1-6.138.422Z"/><path class="cls-128" d="M30.076,72.307s2.087,3.19,2.563,12.167l5.784-.444a23.153,23.153,0,0,1-2.371-12.956,7.837,7.837,0,0,0-2.821.159A13.5,13.5,0,0,0,30.076,72.307Z"/><path class="cls-129" d="M21.274,86.8s14.72-4.838,28.149-3.942l.215,1.782s-3.42,1.772-6.547,3.344l-.239-1.475-2.713-.38-9.252,2.033-1.641.8.35,1.922s-3.507-.929-7.987-2.09Z"/><path class="cls-130" d="M44.244,136.593l-8.487-.735-.057-.552-.959-9.4-.076-.731L33.62,114.932,30.887,88.16l4.462-.981S41.365,104.735,44.244,136.593Z"/><path class="cls-131" d="M35.7,135.306l-.959-9.4a4.2,4.2,0,0,1,.948-.427,1.277,1.277,0,0,1-.277-.692,1.105,1.105,0,0,1-.747.388L33.62,114.932a.835.835,0,0,1,.4-.067c3.1.183,5.161,1.056,4.9,2.74a9.379,9.379,0,0,1-.409,1.4,2.134,2.134,0,0,1,.542,1c.261.891-.607,3.348-1.716,4.351a1.629,1.629,0,0,1-.435.894,3.612,3.612,0,0,1,2.671.771C41.143,127.421,37.424,134.162,35.7,135.306Z"/><path class="cls-131" d="M39.373,123.893a.584.584,0,1,0,1.161.031C40.634,122.99,39.46,121.985,39.373,123.893Z"/><path class="cls-21" d="M38.308,97.828A282.6,282.6,0,0,0,43.876,132.9s-.355-5.479-1.987-18.2C40.312,102.408,38.308,97.828,38.308,97.828Z"/><path class="cls-132" d="M21.609,88.789s7.915-4.136,28.029-4.152l-6.547,3.344a110.081,110.081,0,0,0-13.674,1.911l.179.987Z"/><path class="cls-133" d="M39.313,71a12.741,12.741,0,0,0-7.75-.184c-3.943,1.319-4.752,3.009-4.752,3.009l3.937-.07-.467-.89s4.369-1,5.711,2.43l-.058-2.556A20.312,20.312,0,0,0,39.24,71.6Z"/><path class="cls-21" d="M24.011,85.992c-.086,1.516,6.7.962,6.111-1.464Z"/><path class="cls-21" d="M26.7,69.518a2.288,2.288,0,0,0,4.148.276c.428-1.123-.89-1.828-.89-1.828Z"/><path class="cls-134" d="M49.739,134.555h0c-.058-.048-1.9-1.638-3.88-6.419-1.994-4.813-7.375-39.794-2.606-39.153l0,.031,4.038,28.367a1.79,1.79,0,0,0-1.243,1.561,1.713,1.713,0,0,0,1.7,1.8h.024l1.947,13.675Z"/><polygon class="cls-135" points="35.757 135.858 31.901 135.654 35.7 135.306 35.757 135.858"/><path class="cls-136" d="M56.922,138.083a13.733,13.733,0,0,0,1.746,8.344,50.428,50.428,0,0,0,12.224,2.415c8.312.492,22.514-2.669,18.305-5.532C75.479,133.983,56.922,138.083,56.922,138.083Z"/><path class="cls-137" d="M88.909,142.883c-.515,0-9.126-.591-13.834-.915l-.038.192-.351,1.735-1.409,6.975-5.793-.63,1.717-8.951.049-.256c-2.05-.527-4.9-1.26-7.437-1.919-.011-.019-.023-.036-.034-.053a1.354,1.354,0,0,0-1.181-.673,1.185,1.185,0,0,0-.536.163,1.055,1.055,0,0,0-.119.078c-2.2-.572-3.865-1.01-4.074-1.081,0,0,.111-.255.33-.715.4-.846,1.177-2.389,2.3-4.31,3.075-5.268,8.585-13.087,16.382-17.491q1.021-.584,2.1-1.081c.039.035.081.076.119.117.318.3.621.6.92.916,6.359,6.677,9.022,16.318,10.152,22.469.009.065.02.126.032.192h0c.4,2.231.586,3.922.66,4.725C88.9,142.7,88.909,142.883,88.909,142.883Z"/><path class="cls-138" d="M90.069,143.281h0a101.049,101.049,0,0,1-15.031-1.121q-1.419-.18-2.966-.413-1.5-.224-2.87-.458c-.468-.082-.924-.163-1.366-.246l-.081-.015c-2.179-.409-4.068-.837-5.676-1.249-.011-.05-.025-.1-.04-.15a2.07,2.07,0,0,0-.225-.515c-.011-.019-.023-.036-.034-.053a1.354,1.354,0,0,0-1.181-.673,1.185,1.185,0,0,0-.536.163,1.055,1.055,0,0,0-.119.078,1.534,1.534,0,0,0-.31.3,1.217,1.217,0,0,0-.105.147,34.951,34.951,0,0,1-4.714-1.691l-.022-.009,0,0,.628-1.3,1.865-3.861c.412.107.815.21,1.215.31a77.052,77.052,0,0,0,11.237,1.97l5.145-19.461.631-2.391,2.676.42-.135,1.577-.03.346L76.253,135.54l11.92,1.913,1.2.193Z"/><path class="cls-139" d="M76.253,135.54l-.7-.139L77.1,114.068l.1-1.161.983.154-.135,1.578-.031.345c6.36,6.678,9.023,16.319,10.152,22.469Z"/><polygon class="cls-140" points="68.15 146.422 67.239 150.473 73.772 151.351 75.773 142.279 75.036 142.16 73.277 150.871 67.747 149.811 68.15 146.422"/><path class="cls-141" d="M56.2,136.833a15,15,0,0,0,3.863,1.718,1.055,1.055,0,0,0-.119.078,1.534,1.534,0,0,0-.31.3c-2.607-.784-4.579-1.461-4.819-1.544l-.022-.009h0v0l.628-1.3S55.521,136.364,56.2,136.833Z"/><path class="cls-142" d="M90.068,143.281c-4.689.255-14.294-1-14.294-1l-.28,1.428-.808.188-6.262,1.45.777-4.056c-.441-.071-.9-.153-1.366-.246l-.081-.015c-1.838-.365-3.845-.875-5.716-1.4a2.07,2.07,0,0,0-.225-.515c-.011-.019-.023-.036-.034-.053,1.535.42,3.44.855,5.8,1.285a139.17,139.17,0,0,0,21.283,2.025c.7.009,1.091.008,1.091.008Z"/><path class="cls-143" d="M61.471,127.883c6.813.12,8.465-4.464,7.79-8.821l-4.741,4.869Z"/><path class="cls-144" d="M82.368,120.844a33.926,33.926,0,0,1,2.84,5.951s1.552,4.294,2.327,7.607a11.022,11.022,0,0,1-5.386-4.444c-2.7-5.039-.663-10.538-.663-10.538Z"/><path class="cls-145" d="M61.467,133.2s2.563,2.773,12.418,3.786c3.329.342,12.445.171,12.445.171L75.555,135.4s-5.671-.9-5.821-.908A56.542,56.542,0,0,1,61.467,133.2Z"/><path class="cls-146" d="M60.645,130.826c-1.8,2.281,6.844,4.021,7.9,2.31,1.072-1.743,3.866-7.688,1.977-7.5S61.7,129.482,60.645,130.826Z"/><path class="cls-147" d="M70.426,133.6c-.068.744,3.71,1.278,4.078.55s1.343-11.587.64-11.735S70.983,127.462,70.426,133.6Z"/><path class="cls-21" d="M64.856,133.925c.627,1.726,3.612.437,3.612.437Z"/><path class="cls-148" d="M83.723,136.925c-4.883.684-10.988,3.306-8.884,4.019,2.089.707,12.53,2.777,13.186.989C88.693,140.111,85.689,136.649,83.723,136.925Z"/><ellipse class="cls-149" cx="52.359" cy="128.454" rx="50.341" ry="88.201"/><circle class="cls-150" cx="79.11" cy="38.174" r="38.174" transform="translate(-3.823 67.12) rotate(-45)"/><path class="cls-151" d="M22.386,210.717c4.449.069,20.012-4.3,20.012-4.3l9.835,1.462L35.275,215.2s7.078,7.313,14.9,11.115,51.578-16.673,51.578-16.673L74.96,205.086s11.929-2.176,16.988-3.638c0,0-35.01-1.755-41.771-1.755l7.432-3.267a278.55,278.55,0,0,0-30.135-1.772A94.21,94.21,0,0,0,0,199.108S14.3,210.592,22.386,210.717Z"/><path class="cls-152" d="M0,199.108c19.673,5.265,57.609-2.682,57.609-2.682s-12.2-4.223-32.027-2.565S0,199.108,0,199.108Z"/><path class="cls-153" d="M50.177,199.693c-17.928,1.946-24.06,3.51-24.06,3.51s18.965,3.29,37.54,1.883,28.291-3.638,28.291-3.638S58.247,198.817,50.177,199.693Z"/><path class="cls-154" d="M52.233,207.883c-7.8,2.048-16.958,7.313-16.958,7.313s3.971,3.06,32.472,0,34.008-5.558,34.008-5.558a105.094,105.094,0,0,0-25.177-4.2A103.277,103.277,0,0,0,52.233,207.883Z"/><path class="cls-155" d="M103.84,173.792c9.995-1.69,22.433,0,22.433,0l-5.108,3.622,10.217,1.69a63.6,63.6,0,0,1-26.609,5.218c-14.659-.483-19.59-5.218-19.59-5.218l17.991-2.173-1.555-2.415Z"/><path class="cls-156" d="M101.619,174.516c9.773,2.173,24.654-.724,24.654-.724a63.067,63.067,0,0,0-12.327-1.69A35.83,35.83,0,0,0,101.619,174.516Z"/><path class="cls-157" d="M85.183,179.1c18.213,2.9,46.2,0,46.2,0s-6.774-2.053-23.1-2.053S85.183,179.1,85.183,179.1Z"/></g></g></g></g></svg>