<svg xmlns="http://www.w3.org/2000/svg" xmlns:xlink="http://www.w3.org/1999/xlink" viewBox="0 0 197.643 250.307"><defs><style>.cls-1{isolation:isolate;}.cls-2{opacity:0.3;fill:url(#radial-gradient);}.cls-2,.cls-21,.cls-25,.cls-26,.cls-27,.cls-28,.cls-43,.cls-44,.cls-45,.cls-46,.cls-47,.cls-49,.cls-5,.cls-50,.cls-51,.cls-52,.cls-53,.cls-55,.cls-57,.cls-6{mix-blend-mode:screen;}.cls-3{opacity:0.76;mix-blend-mode:color-dodge;fill:url(#radial-gradient-2);}.cls-10,.cls-11,.cls-12,.cls-13,.cls-14,.cls-15,.cls-16,.cls-17,.cls-18,.cls-19,.cls-20,.cls-21,.cls-22,.cls-23,.cls-24,.cls-25,.cls-26,.cls-27,.cls-28,.cls-29,.cls-30,.cls-31,.cls-32,.cls-33,.cls-34,.cls-35,.cls-36,.cls-37,.cls-38,.cls-39,.cls-4,.cls-40,.cls-41,.cls-42,.cls-43,.cls-44,.cls-45,.cls-46,.cls-47,.cls-48,.cls-49,.cls-5,.cls-50,.cls-51,.cls-52,.cls-53,.cls-54,.cls-56,.cls-57,.cls-58,.cls-6,.cls-7,.cls-8,.cls-9{fill-rule:evenodd;}.cls-4{fill:url(#_1124);}.cls-25,.cls-26,.cls-27,.cls-28,.cls-43,.cls-44,.cls-45,.cls-46,.cls-47,.cls-5,.cls-6{opacity:0.13;}.cls-5{fill:url(#_82);}.cls-6{fill:url(#_82-2);}.cls-12,.cls-16,.cls-17,.cls-18,.cls-22,.cls-23,.cls-24,.cls-29,.cls-30,.cls-31,.cls-32,.cls-33,.cls-34,.cls-35,.cls-36,.cls-37,.cls-38,.cls-40,.cls-41,.cls-42,.cls-48,.cls-54,.cls-7,.cls-8,.cls-9{opacity:0.5;mix-blend-mode:multiply;}.cls-7{fill:url(#_14);}.cls-8{fill:url(#_14-2);}.cls-9{fill:url(#_14-3);}.cls-10{fill:url(#_675);}.cls-11{fill:url(#_82-3);}.cls-12{fill:url(#_14-4);}.cls-13{fill:url(#_82-4);}.cls-14{fill:url(#_82-5);}.cls-15{fill:url(#_16);}.cls-16{fill:url(#_14-5);}.cls-17{fill:url(#_14-6);}.cls-18{fill:url(#_14-7);}.cls-19{fill:url(#_82-6);}.cls-20{fill:url(#_82-7);}.cls-21,.cls-49,.cls-50,.cls-56{opacity:0.49;}.cls-21{fill:url(#_82-8);}.cls-22{fill:url(#_14-8);}.cls-23{fill:url(#_14-9);}.cls-24{fill:url(#_14-10);}.cls-25{fill:url(#_82-9);}.cls-26{fill:url(#_82-10);}.cls-27{fill:url(#_82-11);}.cls-28{fill:url(#_82-12);}.cls-29{fill:url(#_14-11);}.cls-30{fill:url(#_14-12);}.cls-31{fill:url(#_14-13);}.cls-32{fill:url(#_14-14);}.cls-33{fill:url(#_14-15);}.cls-34{fill:url(#_14-16);}.cls-35{fill:url(#_14-17);}.cls-36{fill:url(#_14-18);}.cls-37{fill:url(#_14-19);}.cls-38{fill:url(#_14-20);}.cls-39{fill:url(#_82-13);}.cls-40{fill:url(#_14-21);}.cls-41{fill:url(#_14-22);}.cls-42{fill:url(#_14-23);}.cls-43{fill:url(#_82-14);}.cls-44{fill:url(#_82-15);}.cls-45{fill:url(#_82-16);}.cls-46{fill:url(#_82-17);}.cls-47{fill:url(#_82-18);}.cls-48{fill:url(#_14-24);}.cls-49{fill:url(#_82-19);}.cls-50{fill:url(#_82-20);}.cls-51,.cls-52,.cls-53{opacity:0.03;}.cls-51{fill:url(#_82-21);}.cls-52{fill:url(#_82-22);}.cls-53{fill:url(#_82-23);}.cls-54{fill:url(#_14-25);}.cls-55,.cls-57{opacity:0.6;}.cls-55{fill:url(#radial-gradient-3);}.cls-56{mix-blend-mode:soft-light;fill:url(#_113);}.cls-57{fill:url(#_44);}.cls-58{fill:#8bd6fc;}</style><radialGradient id="radial-gradient" cx="99.231" cy="151.894" r="98.412" gradientUnits="userSpaceOnUse"><stop offset="0" stop-color="#173cff"/><stop offset="1" stop-opacity="0"/></radialGradient><radialGradient id="radial-gradient-2" cx="107.966" cy="111.37" r="87.453" gradientTransform="translate(110.373 -43.724) rotate(45)" gradientUnits="userSpaceOnUse"><stop offset="0" stop-color="#009d93"/><stop offset="0.14" stop-color="#007971" stop-opacity="0.771"/><stop offset="0.334" stop-color="#004e49" stop-opacity="0.497"/><stop offset="0.522" stop-color="#002c29" stop-opacity="0.28"/><stop offset="0.7" stop-color="#001412" stop-opacity="0.126"/><stop offset="0.864" stop-color="#000505" stop-opacity="0.032"/><stop offset="1" stop-opacity="0"/></radialGradient><linearGradient id="_1124" x1="112.879" y1="204.101" x2="76.134" y2="51.194" gradientUnits="userSpaceOnUse"><stop offset="0" stop-color="#243252"/><stop offset="0.49" stop-color="#533a63"/><stop offset="1" stop-color="#4a4275"/></linearGradient><linearGradient id="_82" x1="69.113" y1="127.449" x2="72.516" y2="162.115" gradientUnits="userSpaceOnUse"><stop offset="0" stop-color="#9df6f0"/><stop offset="0.149" stop-color="#98eeef"/><stop offset="0.376" stop-color="#88d9ed"/><stop offset="0.653" stop-color="#70b6ea"/><stop offset="0.967" stop-color="#4e87e6"/><stop offset="1" stop-color="#4a81e5"/></linearGradient><linearGradient id="_82-2" x1="84.227" y1="134.744" x2="86.458" y2="157.478" xlink:href="#_82"/><linearGradient id="_14" x1="61.988" y1="109.751" x2="77.321" y2="265.951" gradientUnits="userSpaceOnUse"><stop offset="0" stop-color="#653ab5"/><stop offset="1" stop-color="#5c2295"/></linearGradient><linearGradient id="_14-2" x1="98.696" y1="113.425" x2="109.39" y2="222.367" xlink:href="#_14"/><linearGradient id="_14-3" x1="82.292" y1="115.42" x2="176.922" y2="115.42" xlink:href="#_14"/><linearGradient id="_675" x1="102.073" y1="160.496" x2="61.239" y2="152.235" gradientUnits="userSpaceOnUse"><stop offset="0" stop-color="#324e66"/><stop offset="1" stop-color="#594275"/></linearGradient><linearGradient id="_82-3" x1="27.468" y1="158.641" x2="209.364" y2="148.683" xlink:href="#_82"/><linearGradient id="_14-4" x1="118.529" y1="69.945" x2="122.148" y2="106.809" xlink:href="#_14"/><linearGradient id="_82-4" x1="128.545" y1="27.579" x2="148.81" y2="234.024" xlink:href="#_82"/><linearGradient id="_82-5" x1="57.177" y1="40.746" x2="80.71" y2="280.488" xlink:href="#_82"/><linearGradient id="_16" x1="79.695" y1="152.407" x2="80.849" y2="158.946" gradientUnits="userSpaceOnUse"><stop offset="0" stop-color="#9df6f0"/><stop offset="1" stop-color="#4a81e5"/></linearGradient><linearGradient id="_14-5" x1="65.608" y1="64.383" x2="80.342" y2="214.483" xlink:href="#_14"/><linearGradient id="_14-6" x1="112.615" y1="88.467" x2="115.847" y2="121.392" xlink:href="#_14"/><linearGradient id="_14-7" x1="132.133" y1="73.682" x2="140.782" y2="161.8" xlink:href="#_14"/><linearGradient id="_82-6" x1="115.216" y1="28.387" x2="122.14" y2="98.92" xlink:href="#_82"/><linearGradient id="_82-7" x1="128.97" y1="17.061" x2="136.901" y2="97.857" xlink:href="#_82"/><linearGradient id="_82-8" x1="121.348" y1="114.962" x2="122.585" y2="127.561" xlink:href="#_82"/><linearGradient id="_14-8" x1="145.813" y1="105.746" x2="150.807" y2="156.618" xlink:href="#_14"/><linearGradient id="_14-9" x1="110.179" y1="151.131" x2="113.291" y2="182.833" xlink:href="#_14"/><linearGradient id="_14-10" x1="94.285" y1="145.384" x2="112.799" y2="334.003" xlink:href="#_14"/><linearGradient id="_82-9" x1="125.918" y1="206.874" x2="122.763" y2="193.746" xlink:href="#_82"/><linearGradient id="_82-10" x1="44.595" y1="189.3" x2="43.359" y2="184.157" xlink:href="#_82"/><linearGradient id="_82-11" x1="56.539" y1="195.748" x2="53.889" y2="184.721" xlink:href="#_82"/><linearGradient id="_82-12" x1="102.075" y1="209.865" x2="98.274" y2="194.045" xlink:href="#_82"/><linearGradient id="_14-11" x1="69.601" y1="169.585" x2="80.966" y2="285.363" xlink:href="#_14"/><linearGradient id="_14-12" x1="108.012" y1="174.202" x2="118.881" y2="284.925" xlink:href="#_14"/><linearGradient id="_14-13" x1="162.609" y1="116.775" x2="172.216" y2="214.644" xlink:href="#_14"/><linearGradient id="_14-14" x1="109.807" y1="67.627" x2="114.23" y2="112.688" xlink:href="#_14"/><linearGradient id="_14-15" x1="114.177" y1="147.497" x2="123.921" y2="246.764" xlink:href="#_14"/><linearGradient id="_14-16" x1="83.896" y1="115.477" x2="93.634" y2="214.681" xlink:href="#_14"/><linearGradient id="_14-17" x1="68.526" y1="116.516" x2="79.242" y2="225.682" xlink:href="#_14"/><linearGradient id="_14-18" x1="84.638" y1="128.092" x2="90.924" y2="192.136" xlink:href="#_14"/><linearGradient id="_14-19" x1="136.243" y1="96.939" x2="155.615" y2="96.939" xlink:href="#_14"/><linearGradient id="_14-20" x1="137.102" y1="155.604" x2="142.689" y2="212.517" xlink:href="#_14"/><linearGradient id="_82-13" x1="43.385" y1="146.456" x2="50.352" y2="124.948" xlink:href="#_82"/><linearGradient id="_14-21" x1="128.857" y1="86.292" x2="186.698" y2="86.292" xlink:href="#_14"/><linearGradient id="_14-22" x1="113.305" y1="41.561" x2="122.152" y2="41.561" xlink:href="#_14"/><linearGradient id="_14-23" x1="122.735" y1="56.584" x2="128.341" y2="113.689" xlink:href="#_14"/><linearGradient id="_82-14" x1="64.391" y1="181.928" x2="61.71" y2="170.772" xlink:href="#_82"/><linearGradient id="_82-15" x1="127.014" y1="190.583" x2="124.764" y2="181.219" xlink:href="#_82"/><linearGradient id="_82-16" x1="48.599" y1="182.509" x2="45.956" y2="171.511" xlink:href="#_82"/><linearGradient id="_82-17" x1="97.202" y1="194.217" x2="96.16" y2="189.881" xlink:href="#_82"/><linearGradient id="_82-18" x1="106.116" y1="187.809" x2="103.668" y2="177.625" xlink:href="#_82"/><linearGradient id="_14-24" x1="151.109" y1="159.736" x2="164.572" y2="296.891" xlink:href="#_14"/><linearGradient id="_82-19" x1="127.606" y1="136.108" x2="129.104" y2="151.369" xlink:href="#_82"/><linearGradient id="_82-20" x1="127.658" y1="144.306" x2="128.44" y2="152.271" xlink:href="#_82"/><linearGradient id="_82-21" x1="114.167" y1="124.101" x2="116.229" y2="145.098" xlink:href="#_82"/><linearGradient id="_82-22" x1="140.242" y1="113.539" x2="143.099" y2="142.65" xlink:href="#_82"/><linearGradient id="_82-23" x1="128.034" y1="118.867" x2="130.39" y2="142.871" xlink:href="#_82"/><linearGradient id="_14-25" x1="80.519" y1="76.29" x2="89.27" y2="165.434" xlink:href="#_14"/><radialGradient id="radial-gradient-3" cx="497.298" cy="3483.881" r="58.745" gradientTransform="translate(-595.182 -1706.27) scale(1.415 0.534)" gradientUnits="userSpaceOnUse"><stop offset="0" stop-color="#3d56fd"/><stop offset="1" stop-opacity="0"/></radialGradient><linearGradient id="_113" x1="-259.707" y1="23.404" x2="-229.951" y2="326.545" gradientTransform="matrix(0.753, 0.007, -0.009, 1, 283.68, -115.853)" gradientUnits="userSpaceOnUse"><stop offset="0.004" stop-color="#fff"/><stop offset="0.986" stop-color="#89fffc"/></linearGradient><linearGradient id="_44" x1="102.9" y1="217.424" x2="100.661" y2="188.563" gradientUnits="userSpaceOnUse"><stop offset="0" stop-color="#3d56fd"/><stop offset="1"/></linearGradient></defs><title>island-3</title><g class="cls-1"><g id="Layer_2" data-name="Layer 2"><g id="islands"><g id="island-3"><circle class="cls-2" cx="99.231" cy="151.894" r="98.412"/><circle class="cls-3" cx="107.966" cy="111.37" r="87.453" transform="translate(-47.128 108.963) rotate(-45)"/><polygon class="cls-4" points="21.372 179.781 103.93 211.05 122.414 206.095 149.061 213.051 153.046 210.975 164.936 185.777 171.19 185.504 180.177 173.415 174.836 172.242 185.269 157.819 186.698 155.843 182.47 154.744 172.285 153.726 174.236 120.251 162.103 122.004 174.733 101.815 176.922 95.972 160.067 94.112 158.138 59.49 144.905 54.462 143.287 24.923 138.852 15.882 138.702 1.563 131.705 0 129.352 8.465 126.559 6.626 120.875 19.504 119.356 18.664 114.354 26.029 113.291 64.953 103.757 75.487 101.505 112.554 99.624 126.085 86.956 123.793 91.634 119.398 89.972 114.373 80.829 109.144 91.634 79.404 85.298 69.532 83.005 65.38 85.028 45.737 83.598 46.124 72.729 63.919 54.932 110.474 49.428 119.525 35.834 135.682 36.228 136.897 32.912 141.987 39.401 146.669 45.436 147.607 43.444 159.123 24.331 160.74 12.803 162.281 18.285 166.849 21.372 179.781"/><polygon class="cls-5" points="65.999 123.809 68.142 122.966 72.612 132.547 70.16 141.607 67.751 144.114 71.809 132.774 65.999 123.809"/><path class="cls-6" d="M78.952,132.262c.117-.124,12.682,1.276,12.682,1.276l-2.418,10.576-2.26,1.2,1.523-10.493-11.787-.171Z"/><polygon class="cls-7" points="35.834 135.682 36.228 136.897 60.324 130.964 56.172 136.988 39.401 146.669 45.436 147.607 64.759 137.975 46.477 165.062 76.246 168.84 71.113 149.133 63.192 148.937 86.956 123.793 91.634 119.398 89.972 114.373 35.834 135.682"/><polygon class="cls-8" points="186.698 155.843 150.768 168.335 124.278 168.84 153.076 182.12 120.294 193.355 107.632 190.662 71.607 182.999 107.204 192.957 96.49 194.637 21.372 179.781 103.93 211.05 122.414 206.095 149.061 213.051 153.046 210.975 164.936 185.777 171.19 185.504 180.177 173.415 174.836 172.242 186.698 155.843"/><polygon class="cls-9" points="82.419 169.089 105.402 171.35 160.961 162.786 172.162 155.843 174.236 120.251 162.103 122.004 174.733 101.815 176.922 95.972 160.067 94.112 158.138 59.49 128.857 90.089 131.352 104.635 96.851 129.136 101.451 138.869 82.292 147.761 82.419 169.089"/><polygon class="cls-10" points="55.999 157.389 59.285 165.002 106.833 170.37 98.426 164.693 98.018 153.536 98.973 151.52 103.686 149.363 103.423 147.607 55.999 157.389"/><path class="cls-11" d="M144.127,146.615l22.53-11.727s-14.047-.306-13.616-.627,21.195-14.01,21.195-14.01L162.1,122,116.4,132.774l-15.217,5.036-18.889,9.951,28.429-3.39-4.659,3.236-7.089,3.913-.955,2.016,38.625-3.629L140.8,158,128.574,160.4l1.7,1.8,1.046,2.6s-30.269-2.2-31.2-2.218-56.67-3.461-56.67-3.461l-20.729,1.833L12.8,162.281l34.139,4.4,87.977,11.194,18.157,4.244s-29.644-13.386-28.8-13.28c20.594,2.577,55.9,4.575,55.9,4.575l-20.823-4.575,27.344-13v-1.749s-12.4-.159-23.826-1.321l-12.688-3.352Z"/><path class="cls-12" d="M130.913,63.86l.617,11.687S106.7,90.361,107.383,88.426s6.4-20.427,7.227-20.238S130.913,63.86,130.913,63.86Z"/><path class="cls-13" d="M101.47,93.824l.788-18.22,12.349-12.46,16.306.716-11.319,4.932-9.893,16.3s24.588-13.221,30.625-16.117l-.339-10.46-2.594-30.577-3.645-7.844L131.705,0l7,1.563.15,14.319,4.435,9.041.816,14.9.8,14.644,13.233,5.028,1.335,2.706L128.857,90.089,129.97,86.5,116.4,98.442l25.684,1.473-5.649-.324V94.518l23.058-10.191,17.431,11.645s-66.714,28.579-80.071,33.164a7.765,7.765,0,0,1,3.246-4.146l10.624-8.633V99.769l-8.956,8.5-.26,4.287s-2.08-2.307-1.82-3.729,12.5-17.424,12.5-17.424l-9.759,6.029Z"/><path class="cls-14" d="M35.834,135.682l54.138-21.309-9.143-5.229-26.235,9.8,27.7-33.862L70.9,88.419A115.908,115.908,0,0,1,91.634,79.4L85.3,69.532l-7.9-3.085,4.027-16.771L61.342,80.115l1.676,8.3L45.388,120.6l-7.832,10.9Z"/><path class="cls-15" d="M56,157.389a159.562,159.562,0,0,0,28.111-1.131s13.527-6.384,19.313-8.651c0,0-6.377,1.286-16.747,3.608C75.876,153.632,56,157.389,56,157.389Z"/><polygon class="cls-16" points="61.342 80.115 74.211 76.261 85.298 69.532 91.634 79.404 80.829 109.144 87.504 112.962 65.755 119.398 46.942 124.342 63.018 88.413 61.342 80.115"/><polygon class="cls-17" points="101.47 93.824 113.854 88.836 124.383 82.962 112.183 91.401 101.951 105.214 102.424 97.43 101.47 93.824"/><path class="cls-18" d="M99.685,108.825l7.973-6.357,3.063-2.7-3.83,1.438,14.236-10.892,18.652-13.453L129.97,86.5l-1.113,3.588s1.811-2.311,10.718-10.853c8.639-8.284,18.563-19.746,18.563-19.746l1.335,2.706-1.132,1.031,1.15,21.1L169.776,91.2l-16.735-4.02-9.535-6.145-14.649,9.056-9.263,8.537-6.667,2.857,16.82,5.042L118.5,112.6l-7.781,3.76-1.729-5.419-8.355,7.856.868-6.24s-1.576-1.661-1.7-2.694Z"/><polygon class="cls-19" points="114.354 26.029 119.356 18.664 119.211 38.66 113.441 62.196 114.354 26.029"/><polygon class="cls-20" points="136.243 48.238 132.859 47.439 134.231 13.199 130.448 40.092 130.186 47.92 129.352 8.465 126.559 6.626 126.434 48.678 136.269 54.873 136.243 48.238"/><path class="cls-21" d="M106.833,119.516c9.707,1.872,33.481-8.08,33.481-8.08l-17.477,7.358-20.032,4Z"/><path class="cls-22" d="M126.444,117.275c1.66-.593,17.174-9.464,31.5-15.243a61.169,61.169,0,0,1-7.847,2.287s15.544-6.917,26.825-8.347l-2.189,5.843L162.1,122l12.133-1.753-12.373,8.179L116.4,132.774Z"/><polygon class="cls-23" points="84.11 156.258 84.627 161.656 127.636 164.535 128.574 160.395 136.937 158.76 136.643 149.907 98.018 153.536 98.973 151.52 103.635 149.023 103.423 147.607 84.11 156.258"/><polygon class="cls-24" points="12.803 162.281 18.285 166.849 45.82 168.84 133.743 179.781 146.287 184.447 149.061 213.051 153.046 210.975 164.936 185.777 171.19 185.504 180.177 173.415 124.278 168.84 153.076 182.12 134.919 177.876 12.803 162.281"/><polygon class="cls-25" points="124.542 191.899 128.123 207.698 123.581 206.4 122.158 192.715 124.542 191.899"/><polygon class="cls-26" points="45.125 184.478 46.618 189.343 42.189 187.666 42.154 183.891 45.125 184.478"/><polygon class="cls-27" points="52.5 185.936 62.651 195.416 50.826 190.937 47.764 185.001 52.5 185.936"/><polygon class="cls-28" points="92.215 193.79 103.93 211.05 107.966 209.42 98.871 194.263 96.489 194.636 92.215 193.79"/><polygon class="cls-29" points="107.204 192.957 71.607 182.999 109.152 190.985 120.294 193.355 122.414 206.095 103.93 211.05 21.372 179.781 96.49 194.637 107.204 192.957"/><polygon class="cls-30" points="120.294 193.355 146.287 184.447 149.061 213.051 133.743 209.052 122.414 206.095 103.93 211.05 117.184 205.696 107.204 192.957 71.607 182.999 120.294 193.355"/><polygon class="cls-31" points="166.657 134.888 165.043 152.994 172.285 153.726 174.236 120.251 153.041 134.261 166.657 134.888"/><polygon class="cls-32" points="102.258 75.604 115.078 72.456 119.594 68.792 109.701 85.087 101.848 85.087 102.258 75.604"/><polygon class="cls-33" points="134.919 177.876 71.893 162.524 43.444 159.123 131.316 164.802 130.27 162.197 176.922 158.671 186.698 154.094 186.698 155.843 159.354 168.84 180.177 173.415 124.278 168.84 153.076 182.12 134.919 177.876"/><polygon class="cls-34" points="63.192 148.937 64.042 155.843 103.423 147.607 103.635 149.023 106.062 147.607 110.721 144.371 82.292 147.761 101.181 137.81 97.202 129.88 96.851 129.136 97.146 128.147 98.888 125.916 86.956 123.793 91.634 119.398 64.759 137.975 64.055 148.123 74.677 136.786 86.544 135.682 71.113 149.133 63.192 148.937"/><polygon class="cls-35" points="64.759 137.975 91.634 119.398 86.956 123.793 63.192 148.937 69.288 154.648 55.999 157.389 56.767 159.945 49.96 159.902 64.759 137.975"/><polygon class="cls-36" points="99.555 138.716 82.292 147.761 82.318 152.021 72.406 154.094 71.113 149.133 86.544 135.682 91.634 133.538 97.202 129.88 101.181 137.81 99.555 138.716"/><path class="cls-37" d="M136.433,94.518s-.428,5.049,0,5.073l5.649.324,13.533-5.953Z"/><polygon class="cls-38" points="131.316 164.802 96.432 162.281 180.177 173.415 142.218 166.502 163.067 162.281 133.541 163.243 131.316 164.802"/><polygon class="cls-39" points="32.912 141.987 53.812 133.497 60.324 130.964 36.228 136.897 32.912 141.987"/><polygon class="cls-40" points="143.287 24.923 138.852 15.882 138.702 1.563 133.237 0.342 133.639 16.448 138.518 26.453 143.273 54.873 151.456 62.724 140.326 68.97 149.596 68.97 148.193 72.621 135.87 84.398 128.857 90.089 130.428 99.247 142.082 99.915 146.66 97.901 161.46 99.915 163.454 101.483 153.041 124.14 166.227 125.545 153.041 134.261 166.657 134.888 144.127 146.615 150.184 149.421 162.624 156.071 141.545 161.344 143.556 162.917 151.933 164.535 159.354 168.84 174.836 172.242 186.698 155.843 186.698 154.094 172.285 153.726 174.236 120.251 162.103 122.004 174.733 101.815 176.922 95.972 168.762 90.702 159.491 84.327 158.341 63.227 159.473 62.196 158.138 59.49 144.905 54.462 143.287 24.923"/><polygon class="cls-41" points="120.875 19.504 121.377 47.574 122.152 63.475 114.607 63.144 113.305 64.458 113.441 62.196 117.065 41.561 119.356 18.664 120.875 19.504"/><path class="cls-42" d="M126.434,48.678l1.127,15.035,3.352.147-11.319,4.932s-10.785,16.774-9.893,16.3,21.723-11.555,21.723-11.555l8.428-4.371-3.05-2.273-.533-12.015-2.507-1.659Z"/><path class="cls-43" d="M79.711,173.415,52.5,185.936,47.764,185c3.331-4.65,6.88-9.585,10.515-14.611Z"/><path class="cls-44" d="M125.733,186.949l1.409-.373-2.6,5.323-2.384.816c2.284-4.535,4.583-9.085,6.836-13.525l.671.083Q127.779,182.927,125.733,186.949Z"/><polygon class="cls-45" points="52.286 169.646 45.125 184.478 42.154 183.891 49.972 169.357 52.286 169.646"/><path class="cls-46" d="M95.283,189.623l6.111,1.709-2.523,2.931h0l-2.38.373-4.274-.846Q93.783,191.671,95.283,189.623Z"/><path class="cls-47" d="M113.513,177.264l-10.664,12.379-6.559-1.4c3.236-4.429,6.191-8.526,8.707-12.044Z"/><polygon class="cls-48" points="164.936 185.777 171.19 185.504 180.177 173.415 124.278 168.84 153.076 182.12 149.061 213.051 153.046 210.975 164.936 185.777"/><path class="cls-49" d="M114.6,139.881c-3.064-.686,17.417-5.057,38.437-5.62l4.736-3.131c-11.1,2.734-53.651,8.28-53.741,8.292a35.264,35.264,0,0,1-4.481-.706l-6.3,3.271c12.735-2.292,62.363-1.351,62.363-1.351l7.008-3.648S134.405,139.959,114.6,139.881Z"/><path class="cls-50" d="M146.66,145.3c-16.657,2.31-36.854-.291-36.854-.291l-.921.64s20.585,1.083,35.545.812Z"/><path class="cls-51" d="M110.523,123.839,117.482,121l-2.411,12.211-3.469,1.148C111.9,134.262,110.523,123.839,110.523,123.839Z"/><path class="cls-52" d="M134.205,114.373l11.724-5.237s-4.979,9.543-6.748,18.389l-1.769.159S134.647,119.025,134.205,114.373Z"/><polygon class="cls-53" points="130.851 115.42 128.857 116.294 126.022 130.511 127.773 130.094 130.851 115.42"/><polygon class="cls-54" points="82.292 85.087 74.159 111.436 80.829 109.144 91.634 79.404 79.711 83.986 70.901 88.419 82.292 85.087"/><ellipse class="cls-55" cx="108.245" cy="153.774" rx="83.094" ry="31.365"/><path class="cls-56" d="M178.367,185.452s11.886-29.805-15.875-42.056c-36.217-15.983-78.734,10.4-85.078,11.386-6.662,1.033,21.923-26.649,19.741-38.008-2.136-11.12-23.712-26.6-74.121-15.758-8.981,1.932-27.349-35.334,24.73-48.064,36.293-8.871,68.572,18.711,68,23.882-.59,5.31-20.3,19.626-26.921,18.1-6.964-1.608-40.428-20.33-41.033-23.2S59.2,60.561,81.794,69.772c2.744,1.118-16.127,2.319-15.569,5.238S82.93,86.161,87.336,87.131c4.267.939,20.992-10.984,21.429-13.3.432-2.29-33.817-22.862-52.514-19.159C34.129,59.049,24.473,88.514,29.974,91.98c0,0,35.793-4.086,52.56,5.16,15.225,8.4,32.813,12.4,17.912,39.176-2.2,3.956,60.276-32.211,80.359-13.714,17.5,16.123,5.26,42.191,5.26,42.191Z"/><polygon class="cls-57" points="18.285 166.849 21.372 179.781 103.93 211.05 122.414 206.095 149.061 213.051 153.046 210.975 164.936 185.777 171.19 185.504 180.177 173.415 124.278 168.84 153.076 182.12 18.285 166.849"/><path class="cls-58" d="M49.9,77.505c-2.17-.441-3.748-1.676-3.694-2.013s.631-2.131,1.439-1.781,3.263,2.235,3.162,2.555S50.608,77.65,49.9,77.505Z"/><path class="cls-58" d="M26.261,34.688c-.605-.069-5.675-6.652-5.863-7.846-.192-1.225,1.856-.224,2.5-.169s5.111,2.59,5.252,3.789C28.291,31.631,26.87,34.758,26.261,34.688Z"/><path class="cls-58" d="M108.136,42.5a3.51,3.51,0,0,1-1.925-1.8c-.217-.675.306-.96,1.172-.628a3.475,3.475,0,0,1,1.94,1.827C109.522,42.562,108.989,42.828,108.136,42.5Z"/><path class="cls-58" d="M24.338,118.724a5.508,5.508,0,0,1-2.849-2.492c-.3-.86,1.686-1.651,3.027-1.1s1.438,2.214,1.7,3.064S25.628,119.264,24.338,118.724Z"/><path class="cls-58" d="M13.854,86.322a2.052,2.052,0,0,1-1.1-.97c-.094-.323.248-.411.767-.2a2.03,2.03,0,0,1,1.1.977C14.714,86.454,14.368,86.537,13.854,86.322Z"/><path class="cls-58" d="M1.219,75.2c.469.543.707,1.128.534,1.309S1.065,76.4.6,75.865s-.714-1.128-.544-1.314S.748,74.656,1.219,75.2Z"/><path class="cls-58" d="M10.151,68.916c.89,1.107,1.289,2.306.9,2.685s-2.914-.948-3.8-2.032.207-1.545.58-1.946S9.253,67.8,10.151,68.916Z"/><path class="cls-58" d="M71,141.189c.89,1.106,1.289,2.305.9,2.685s-2.914-.948-3.8-2.032.208-1.545.581-1.946S70.1,140.073,71,141.189Z"/><path class="cls-58" d="M74.6,117.56c.365.456.539.959.389,1.125s-.563-.066-.927-.518-.544-.959-.4-1.129S74.234,117.1,74.6,117.56Z"/><path class="cls-58" d="M66.654,136.591c.366.456.54.96.39,1.125s-.564-.066-.928-.518-.544-.959-.4-1.128S66.287,136.134,66.654,136.591Z"/><path class="cls-58" d="M3.553,76.722a2.2,2.2,0,0,1,2.3.505c.721.618.844,1.381.285,1.7a2.234,2.234,0,0,1-2.269-.511C3.164,77.816,3.016,77.057,3.553,76.722Z"/><path class="cls-58" d="M9.292,75.407c.676-1.124,2.58-.892,4.22.534,1.624,1.412,3.657,3.377,2.909,4.344-.727.94-3.9.824-5.454-.5S8.636,76.5,9.292,75.407Z"/><path class="cls-58" d="M23.936,110.846c.232-.4.924-.3,1.542.219s.914,1.258.672,1.646-.922.281-1.527-.227S23.707,111.242,23.936,110.846Z"/><path class="cls-58" d="M47.393,45.648c.232-.4.924-.3,1.542.219s.914,1.258.672,1.646-.921.281-1.526-.227S47.164,46.044,47.393,45.648Z"/></g></g></g></g></svg>