<svg xmlns="http://www.w3.org/2000/svg" xmlns:xlink="http://www.w3.org/1999/xlink" viewBox="0 0 220.324 235.878"><defs><style>.cls-1{isolation:isolate;}.cls-2,.cls-79{opacity:0.3;}.cls-100,.cls-101,.cls-13,.cls-2,.cls-39,.cls-79,.cls-84,.cls-97,.cls-98,.cls-99{mix-blend-mode:screen;}.cls-2{fill:url(#radial-gradient);}.cls-104,.cls-106,.cls-107,.cls-108,.cls-109,.cls-110,.cls-111,.cls-112,.cls-14,.cls-15,.cls-16,.cls-20,.cls-3,.cls-4,.cls-5,.cls-6,.cls-7,.cls-74,.cls-75,.cls-76,.cls-77,.cls-78,.cls-8,.cls-86,.cls-9{fill-rule:evenodd;}.cls-3{fill:url(#_37);}.cls-4,.cls-5{fill:#b83d64;}.cls-105,.cls-110,.cls-17,.cls-24,.cls-31,.cls-32,.cls-35,.cls-4,.cls-40,.cls-74,.cls-76,.cls-9,.cls-93{opacity:0.5;}.cls-102,.cls-11,.cls-114,.cls-17,.cls-22,.cls-23,.cls-25,.cls-26,.cls-27,.cls-28,.cls-30,.cls-31,.cls-32,.cls-33,.cls-34,.cls-35,.cls-36,.cls-37,.cls-38,.cls-4,.cls-40,.cls-5,.cls-7,.cls-72,.cls-74,.cls-76,.cls-78,.cls-8,.cls-81,.cls-82,.cls-83,.cls-86,.cls-9,.cls-92,.cls-93{mix-blend-mode:multiply;}.cls-102,.cls-5{opacity:0.8;}.cls-6{fill:url(#_37-2);}.cls-7,.cls-8,.cls-9{fill:#7d2154;}.cls-7{opacity:0.7;}.cls-8{opacity:0.46;}.cls-10{fill:url(#_995);}.cls-11,.cls-114,.cls-86{fill:#0e0eaa;}.cls-11,.cls-86{opacity:0.33;}.cls-100,.cls-101,.cls-115,.cls-12,.cls-16,.cls-94,.cls-97,.cls-98,.cls-99{opacity:0.4;}.cls-115,.cls-12,.cls-16,.cls-94{mix-blend-mode:overlay;}.cls-12{fill:url(#_272);}.cls-13{opacity:0.6;fill:url(#_44);}.cls-14{fill:url(#_37-3);}.cls-15{fill:url(#_995-2);}.cls-16{fill:url(#_272-2);}.cls-17{fill:url(#_3);}.cls-18{fill:#ffa4da;}.cls-19{fill:url(#_1024);}.cls-20{fill:url(#_1024-2);}.cls-21{fill:#4c0c0c;}.cls-22{opacity:0.42;fill:url(#_54);}.cls-23,.cls-33,.cls-38,.cls-72,.cls-81,.cls-82,.cls-83{opacity:0.59;}.cls-23{fill:url(#_54-2);}.cls-24{fill:#fdad45;}.cls-24,.cls-71,.cls-80,.cls-85,.cls-87,.cls-88,.cls-89,.cls-90{mix-blend-mode:soft-light;}.cls-25{opacity:0.58;fill:url(#_54-3);}.cls-26,.cls-27,.cls-28,.cls-30,.cls-34,.cls-37{opacity:0.24;}.cls-26{fill:url(#New_Gradient_Swatch_29);}.cls-27{fill:url(#New_Gradient_Swatch_29-2);}.cls-28{fill:url(#New_Gradient_Swatch_29-3);}.cls-29{fill:#3b1919;}.cls-30{fill:url(#New_Gradient_Swatch_29-4);}.cls-31{fill:url(#New_Gradient_Swatch_29-5);}.cls-32{fill:url(#New_Gradient_Swatch_29-6);}.cls-33{fill:url(#_54-4);}.cls-34{fill:url(#New_Gradient_Swatch_29-7);}.cls-35{fill:url(#_47);}.cls-36{opacity:0.34;fill:url(#_54-5);}.cls-37{fill:url(#New_Gradient_Swatch_29-8);}.cls-38{fill:url(#_54-6);}.cls-39{fill:url(#radial-gradient-2);}.cls-41{fill:url(#New_Gradient_Swatch_29-9);}.cls-42{fill:url(#New_Gradient_Swatch_29-10);}.cls-43{fill:url(#New_Gradient_Swatch_29-11);}.cls-44{fill:url(#New_Gradient_Swatch_29-12);}.cls-45{fill:url(#New_Gradient_Swatch_29-13);}.cls-46{fill:url(#New_Gradient_Swatch_29-14);}.cls-47{fill:url(#New_Gradient_Swatch_29-15);}.cls-48{fill:url(#New_Gradient_Swatch_29-16);}.cls-49{fill:url(#New_Gradient_Swatch_29-17);}.cls-50{fill:url(#New_Gradient_Swatch_29-18);}.cls-51{fill:url(#New_Gradient_Swatch_29-19);}.cls-52{fill:url(#New_Gradient_Swatch_29-20);}.cls-53{fill:url(#New_Gradient_Swatch_29-21);}.cls-54{fill:url(#New_Gradient_Swatch_29-22);}.cls-55{fill:url(#New_Gradient_Swatch_29-23);}.cls-56{fill:url(#New_Gradient_Swatch_29-24);}.cls-57{fill:url(#New_Gradient_Swatch_29-25);}.cls-58{fill:url(#New_Gradient_Swatch_29-26);}.cls-59{fill:url(#New_Gradient_Swatch_29-27);}.cls-60{fill:url(#New_Gradient_Swatch_29-28);}.cls-61{fill:url(#New_Gradient_Swatch_29-29);}.cls-62{fill:url(#New_Gradient_Swatch_29-30);}.cls-63{fill:url(#New_Gradient_Swatch_29-31);}.cls-64{fill:url(#New_Gradient_Swatch_29-32);}.cls-65{fill:url(#New_Gradient_Swatch_29-33);}.cls-66{fill:url(#New_Gradient_Swatch_29-34);}.cls-67{fill:url(#New_Gradient_Swatch_29-35);}.cls-68{fill:url(#New_Gradient_Swatch_29-36);}.cls-69{fill:url(#New_Gradient_Swatch_29-37);}.cls-70{fill:url(#New_Gradient_Swatch_29-38);}.cls-71{fill:#cf6;opacity:0.55;}.cls-72{fill:url(#_54-7);}.cls-73{fill:url(#_3690);}.cls-74{fill:url(#_3690-2);}.cls-75{fill:url(#_3691);}.cls-76{fill:url(#_3690-3);}.cls-77{fill:url(#_3690-4);}.cls-78{opacity:0.26;fill:url(#_1068);}.cls-79{fill:url(#_113);}.cls-80,.cls-85,.cls-87,.cls-88,.cls-89,.cls-90{opacity:0.74;}.cls-80{fill:url(#_113-2);}.cls-81{fill:url(#_54-8);}.cls-82{fill:url(#_54-9);}.cls-83{fill:url(#_54-10);}.cls-84{opacity:0.16;fill:url(#_233);}.cls-85{fill:url(#_113-3);}.cls-87{fill:url(#_113-4);}.cls-88{fill:url(#_113-5);}.cls-89{fill:url(#_113-6);}.cls-90{fill:url(#_113-7);}.cls-91{fill:url(#_41);}.cls-92{opacity:0.61;}.cls-93{fill:#606060;}.cls-94{fill:url(#_272-3);}.cls-95{fill:url(#_1063);}.cls-96{fill:url(#_1063-2);}.cls-97{fill:url(#_1056);}.cls-98{fill:url(#_1056-2);}.cls-99{fill:url(#_1056-3);}.cls-100{fill:url(#_1056-4);}.cls-101{fill:url(#_1056-5);}.cls-102{fill:url(#_141);}.cls-103{fill:#fff;}.cls-104{fill:url(#_3691-2);}.cls-105,.cls-110{fill:#e26680;}.cls-106{fill:url(#_3690-5);}.cls-107{fill:url(#_3691-3);}.cls-108{fill:url(#_3690-6);}.cls-109{fill:url(#_3691-4);}.cls-111{fill:url(#_3691-5);}.cls-112{fill:url(#_3690-7);}.cls-113{fill:url(#_41-2);}.cls-114{opacity:0.17;}.cls-115{fill:url(#_272-4);}</style><radialGradient id="radial-gradient" cx="110.162" cy="125.716" r="110.162" gradientUnits="userSpaceOnUse"><stop offset="0" stop-color="#8e37e2"/><stop offset="0.181" stop-color="#6f2bb0" stop-opacity="0.781"/><stop offset="0.476" stop-color="#401966" stop-opacity="0.449"/><stop offset="0.72" stop-color="#1d0b2f" stop-opacity="0.206"/><stop offset="0.902" stop-color="#08030d" stop-opacity="0.057"/><stop offset="1" stop-opacity="0"/></radialGradient><linearGradient id="_37" x1="125.711" y1="279.067" x2="87.432" y2="184.604" gradientTransform="translate(9.214 0.72) rotate(-0.126)" gradientUnits="userSpaceOnUse"><stop offset="0" stop-color="#25097f"/><stop offset="1" stop-color="#570096"/></linearGradient><linearGradient id="_37-2" x1="157.847" y1="184.159" x2="54.551" y2="172.298" gradientTransform="matrix(1, 0, 0, 1, 0, 0)" xlink:href="#_37"/><radialGradient id="_995" cx="116.705" cy="155.942" r="57.8" gradientUnits="userSpaceOnUse"><stop offset="0" stop-color="#f0c63d"/><stop offset="0.162" stop-color="#edb63a"/><stop offset="0.411" stop-color="#e8a336"/><stop offset="0.585" stop-color="#e79c35"/><stop offset="1" stop-color="#e1732b"/></radialGradient><linearGradient id="_272" x1="98.244" y1="195.351" x2="119.496" y2="147.905" gradientUnits="userSpaceOnUse"><stop offset="0.005" stop-color="#fcb33f"/><stop offset="0.124" stop-color="#f4a640"/><stop offset="0.346" stop-color="#e08343"/><stop offset="0.646" stop-color="#be4a48"/><stop offset="0.995" stop-color="#93004e"/></linearGradient><linearGradient id="_44" x1="81.215" y1="230.49" x2="103.8" y2="181.975" gradientUnits="userSpaceOnUse"><stop offset="0" stop-color="#3d56fd"/><stop offset="1"/></linearGradient><linearGradient id="_37-3" x1="178.373" y1="221.901" x2="161.251" y2="179.648" xlink:href="#_37"/><radialGradient id="_995-2" cx="172.806" cy="175.38" r="10.596" xlink:href="#_995"/><linearGradient id="_272-2" x1="164.803" y1="206.076" x2="173.45" y2="171.979" xlink:href="#_272"/><linearGradient id="_3" x1="114.043" y1="142.866" x2="115.482" y2="168.779" gradientUnits="userSpaceOnUse"><stop offset="0" stop-color="#3f3a50"/><stop offset="1" stop-color="#2a2332"/></linearGradient><linearGradient id="_1024" x1="65.277" y1="80.304" x2="145.578" y2="80.304" gradientUnits="userSpaceOnUse"><stop offset="0" stop-color="#d47540"/><stop offset="1" stop-color="#702a15"/></linearGradient><linearGradient id="_1024-2" x1="83.264" y1="145.784" x2="104.479" y2="145.784" xlink:href="#_1024"/><linearGradient id="_54" x1="47.918" y1="90.976" x2="186.272" y2="90.976" gradientUnits="userSpaceOnUse"><stop offset="0" stop-color="#38172e"/><stop offset="1" stop-color="#541b1f"/></linearGradient><linearGradient id="_54-2" x1="69.957" y1="38.471" x2="74.408" y2="38.471" xlink:href="#_54"/><linearGradient id="_54-3" x1="42.597" y1="65.513" x2="51.237" y2="65.513" xlink:href="#_54"/><linearGradient id="New_Gradient_Swatch_29" x1="87.888" y1="57.027" x2="117.812" y2="57.027" gradientUnits="userSpaceOnUse"><stop offset="0" stop-color="#81bf00"/><stop offset="1" stop-color="#599100"/></linearGradient><linearGradient id="New_Gradient_Swatch_29-2" x1="69.356" y1="61.616" x2="95.334" y2="61.616" xlink:href="#New_Gradient_Swatch_29"/><linearGradient id="New_Gradient_Swatch_29-3" x1="66.345" y1="95.027" x2="100.836" y2="95.027" xlink:href="#New_Gradient_Swatch_29"/><linearGradient id="New_Gradient_Swatch_29-4" x1="96.882" y1="122.757" x2="107.207" y2="122.757" xlink:href="#New_Gradient_Swatch_29"/><linearGradient id="New_Gradient_Swatch_29-5" x1="103.174" y1="106.203" x2="134.207" y2="106.203" xlink:href="#New_Gradient_Swatch_29"/><linearGradient id="New_Gradient_Swatch_29-6" x1="162.786" y1="138.557" x2="186.144" y2="138.557" xlink:href="#New_Gradient_Swatch_29"/><linearGradient id="_54-4" x1="66.34" y1="48.063" x2="105.698" y2="48.063" xlink:href="#_54"/><linearGradient id="New_Gradient_Swatch_29-7" x1="67.749" y1="80.936" x2="79.24" y2="80.936" xlink:href="#New_Gradient_Swatch_29"/><linearGradient id="_47" x1="130.537" y1="149.824" x2="119.207" y2="131.163" gradientUnits="userSpaceOnUse"><stop offset="0" stop-color="#3f3750"/><stop offset="1" stop-color="#281e2f"/></linearGradient><linearGradient id="_54-5" x1="139.148" y1="144.894" x2="124.32" y2="120.47" xlink:href="#_54"/><linearGradient id="New_Gradient_Swatch_29-8" x1="76.346" y1="87.099" x2="87.41" y2="87.099" xlink:href="#New_Gradient_Swatch_29"/><linearGradient id="_54-6" x1="53.396" y1="126.366" x2="108.482" y2="126.366" xlink:href="#_54"/><radialGradient id="radial-gradient-2" cx="113.989" cy="125.736" r="59.643" gradientUnits="userSpaceOnUse"><stop offset="0" stop-color="#ff249c"/><stop offset="0.122" stop-color="#d11d80" stop-opacity="0.818"/><stop offset="0.303" stop-color="#921559" stop-opacity="0.573"/><stop offset="0.476" stop-color="#5e0d39" stop-opacity="0.368"/><stop offset="0.637" stop-color="#350821" stop-opacity="0.209"/><stop offset="0.783" stop-color="#18030f" stop-opacity="0.094"/><stop offset="0.909" stop-color="#060104" stop-opacity="0.025"/><stop offset="1" stop-opacity="0"/></radialGradient><linearGradient id="New_Gradient_Swatch_29-9" x1="-4032.979" y1="-1643.002" x2="-4031.5" y2="-1643.002" gradientTransform="matrix(0.432, -0.902, 0.845, 0.404, 3215.603, -2826.955)" xlink:href="#New_Gradient_Swatch_29"/><linearGradient id="New_Gradient_Swatch_29-10" x1="-4029.851" y1="-1642.493" x2="-4027.324" y2="-1642.493" gradientTransform="matrix(0.432, -0.902, 0.845, 0.404, 3215.603, -2826.955)" xlink:href="#New_Gradient_Swatch_29"/><linearGradient id="New_Gradient_Swatch_29-11" x1="-4040.716" y1="-1640.297" x2="-4033.484" y2="-1640.297" gradientTransform="matrix(0.432, -0.902, 0.845, 0.404, 3215.603, -2826.955)" xlink:href="#New_Gradient_Swatch_29"/><linearGradient id="New_Gradient_Swatch_29-12" x1="-4030.771" y1="-1645.215" x2="-4027.056" y2="-1645.215" gradientTransform="matrix(0.432, -0.902, 0.845, 0.404, 3215.603, -2826.955)" xlink:href="#New_Gradient_Swatch_29"/><linearGradient id="New_Gradient_Swatch_29-13" x1="-4027.234" y1="-1640.264" x2="-4025.274" y2="-1640.264" gradientTransform="matrix(0.432, -0.902, 0.845, 0.404, 3215.603, -2826.955)" xlink:href="#New_Gradient_Swatch_29"/><linearGradient id="New_Gradient_Swatch_29-14" x1="-4039.904" y1="-1635.03" x2="-4036.275" y2="-1635.03" gradientTransform="matrix(0.432, -0.902, 0.845, 0.404, 3215.603, -2826.955)" xlink:href="#New_Gradient_Swatch_29"/><linearGradient id="New_Gradient_Swatch_29-15" x1="-4034.952" y1="-1638.652" x2="-4028.374" y2="-1638.652" gradientTransform="matrix(0.432, -0.902, 0.845, 0.404, 3215.603, -2826.955)" xlink:href="#New_Gradient_Swatch_29"/><linearGradient id="New_Gradient_Swatch_29-16" x1="-4028.448" y1="-1638.681" x2="-4026.842" y2="-1638.681" gradientTransform="matrix(0.432, -0.902, 0.845, 0.404, 3215.603, -2826.955)" xlink:href="#New_Gradient_Swatch_29"/><linearGradient id="New_Gradient_Swatch_29-17" x1="-4028.361" y1="-1643.297" x2="-4027.018" y2="-1643.297" gradientTransform="matrix(0.432, -0.902, 0.845, 0.404, 3215.603, -2826.955)" xlink:href="#New_Gradient_Swatch_29"/><linearGradient id="New_Gradient_Swatch_29-18" x1="-4038.73" y1="-1636.748" x2="-4035.438" y2="-1636.748" gradientTransform="matrix(0.432, -0.902, 0.845, 0.404, 3215.603, -2826.955)" xlink:href="#New_Gradient_Swatch_29"/><linearGradient id="New_Gradient_Swatch_29-19" x1="-570.162" y1="425.454" x2="-568.337" y2="425.454" gradientTransform="matrix(0.988, -0.158, 0.148, 0.925, 567.282, -353.101)" xlink:href="#New_Gradient_Swatch_29"/><linearGradient id="New_Gradient_Swatch_29-20" x1="-565.951" y1="425.743" x2="-561.057" y2="425.743" gradientTransform="matrix(0.988, -0.158, 0.148, 0.925, 567.282, -353.101)" xlink:href="#New_Gradient_Swatch_29"/><linearGradient id="New_Gradient_Swatch_29-21" x1="-577.228" y1="429.142" x2="-570.738" y2="429.142" gradientTransform="matrix(0.988, -0.158, 0.148, 0.925, 567.282, -353.101)" xlink:href="#New_Gradient_Swatch_29"/><linearGradient id="New_Gradient_Swatch_29-22" x1="-567.484" y1="421.684" x2="-561.243" y2="421.684" gradientTransform="matrix(0.988, -0.158, 0.148, 0.925, 567.282, -353.101)" xlink:href="#New_Gradient_Swatch_29"/><linearGradient id="New_Gradient_Swatch_29-23" x1="-560.084" y1="429.912" x2="-554.405" y2="429.912" gradientTransform="matrix(0.988, -0.158, 0.148, 0.925, 567.282, -353.101)" xlink:href="#New_Gradient_Swatch_29"/><linearGradient id="New_Gradient_Swatch_29-24" x1="-577.636" y1="436.393" x2="-574.203" y2="436.393" gradientTransform="matrix(0.988, -0.158, 0.148, 0.925, 567.282, -353.101)" xlink:href="#New_Gradient_Swatch_29"/><linearGradient id="New_Gradient_Swatch_29-25" x1="-572.525" y1="432.664" x2="-562.411" y2="432.664" gradientTransform="matrix(0.988, -0.158, 0.148, 0.925, 567.282, -353.101)" xlink:href="#New_Gradient_Swatch_29"/><linearGradient id="New_Gradient_Swatch_29-26" x1="-562.365" y1="433.352" x2="-558.2" y2="433.352" gradientTransform="matrix(0.988, -0.158, 0.148, 0.925, 567.282, -353.101)" xlink:href="#New_Gradient_Swatch_29"/><linearGradient id="New_Gradient_Swatch_29-27" x1="-563.515" y1="424.116" x2="-560.74" y2="424.116" gradientTransform="matrix(0.988, -0.158, 0.148, 0.925, 567.282, -353.101)" xlink:href="#New_Gradient_Swatch_29"/><linearGradient id="New_Gradient_Swatch_29-28" x1="-576.218" y1="434.286" x2="-573.266" y2="434.286" gradientTransform="matrix(0.988, -0.158, 0.148, 0.925, 567.282, -353.101)" xlink:href="#New_Gradient_Swatch_29"/><linearGradient id="New_Gradient_Swatch_29-29" x1="2482.074" y1="-501.042" x2="2483.071" y2="-501.042" gradientTransform="matrix(0.866, 0.499, -0.468, 0.811, -2208.173, -696.719)" xlink:href="#New_Gradient_Swatch_29"/><linearGradient id="New_Gradient_Swatch_29-30" x1="2483.683" y1="-499.467" x2="2484.73" y2="-499.467" gradientTransform="matrix(0.866, 0.499, -0.468, 0.811, -2208.173, -696.719)" xlink:href="#New_Gradient_Swatch_29"/><linearGradient id="New_Gradient_Swatch_29-31" x1="2462.614" y1="-502.337" x2="2480.962" y2="-502.337" gradientTransform="matrix(0.866, 0.499, -0.468, 0.811, -2208.173, -696.719)" xlink:href="#New_Gradient_Swatch_29"/><linearGradient id="New_Gradient_Swatch_29-32" x1="2484.585" y1="-501.143" x2="2485.797" y2="-501.143" gradientTransform="matrix(0.866, 0.499, -0.468, 0.811, -2208.173, -696.719)" xlink:href="#New_Gradient_Swatch_29"/><linearGradient id="New_Gradient_Swatch_29-33" x1="2483.965" y1="-497.641" x2="2484.795" y2="-497.641" gradientTransform="matrix(0.866, 0.499, -0.468, 0.811, -2208.173, -696.719)" xlink:href="#New_Gradient_Swatch_29"/><linearGradient id="New_Gradient_Swatch_29-34" x1="2457.72" y1="-496.123" x2="2471.857" y2="-496.123" gradientTransform="matrix(0.866, 0.499, -0.468, 0.811, -2208.173, -696.719)" xlink:href="#New_Gradient_Swatch_29"/><linearGradient id="New_Gradient_Swatch_29-35" x1="2476.212" y1="-497.806" x2="2483.152" y2="-497.806" gradientTransform="matrix(0.866, 0.499, -0.468, 0.811, -2208.173, -696.719)" xlink:href="#New_Gradient_Swatch_29"/><linearGradient id="New_Gradient_Swatch_29-36" x1="2482.743" y1="-496.976" x2="2483.538" y2="-496.976" gradientTransform="matrix(0.866, 0.499, -0.468, 0.811, -2208.173, -696.719)" xlink:href="#New_Gradient_Swatch_29"/><linearGradient id="New_Gradient_Swatch_29-37" x1="2484.696" y1="-499.584" x2="2485.15" y2="-499.584" gradientTransform="matrix(0.866, 0.499, -0.468, 0.811, -2208.173, -696.719)" xlink:href="#New_Gradient_Swatch_29"/><linearGradient id="New_Gradient_Swatch_29-38" x1="2468.104" y1="-498.062" x2="2474.842" y2="-498.062" gradientTransform="matrix(0.866, 0.499, -0.468, 0.811, -2208.173, -696.719)" xlink:href="#New_Gradient_Swatch_29"/><linearGradient id="_54-7" x1="73.464" y1="66.636" x2="106.189" y2="66.636" xlink:href="#_54"/><linearGradient id="_3690" x1="-208.96" y1="117.56" x2="-168.11" y2="117.56" gradientTransform="translate(335.46 18.189) rotate(-4.135)" gradientUnits="userSpaceOnUse"><stop offset="0" stop-color="#f16d73"/><stop offset="1" stop-color="#e3786e"/></linearGradient><linearGradient id="_3690-2" x1="-8042.597" y1="-3110.797" x2="-8036.387" y2="-3110.797" gradientTransform="matrix(-0.278, -0.961, -0.961, 0.278, -5046.21, -6711.734)" xlink:href="#_3690"/><linearGradient id="_3691" x1="600.152" y1="-8281.928" x2="591.386" y2="-8285.998" gradientTransform="translate(-772.76 -8109.987) rotate(169.514)" gradientUnits="userSpaceOnUse"><stop offset="0" stop-color="#f5ceb3"/><stop offset="1" stop-color="#f7b0b8"/></linearGradient><linearGradient id="_3690-3" x1="-396.897" y1="-1712.712" x2="-394.158" y2="-1712.712" gradientTransform="matrix(-0.527, 0.85, 0.85, 0.527, 1380.74, 1382.549)" xlink:href="#_3690"/><linearGradient id="_3690-4" x1="577.57" y1="-8276.797" x2="597.768" y2="-8298.985" gradientTransform="translate(-772.76 -8109.987) rotate(169.514)" xlink:href="#_3690"/><linearGradient id="_1068" x1="155.878" y1="152.707" x2="156.867" y2="140.106" gradientUnits="userSpaceOnUse"><stop offset="0.026" stop-color="#de5634"/><stop offset="0.196" stop-color="#cf513e"/><stop offset="0.521" stop-color="#a84459"/><stop offset="0.966" stop-color="#6a2e84"/><stop offset="0.995" stop-color="#662d87"/></linearGradient><linearGradient id="_113" x1="152.191" y1="109.434" x2="123.733" y2="128.07" gradientUnits="userSpaceOnUse"><stop offset="0.004" stop-color="#fff"/><stop offset="0.986" stop-color="#89fffc"/></linearGradient><linearGradient id="_113-2" x1="-657.795" y1="111.629" x2="-657.795" y2="139.276" gradientTransform="translate(690.255 -154.114) rotate(-8.906)" xlink:href="#_113"/><linearGradient id="_54-8" x1="88.258" y1="21.909" x2="100.282" y2="21.909" xlink:href="#_54"/><linearGradient id="_54-9" x1="59.52" y1="31.119" x2="67.392" y2="31.119" xlink:href="#_54"/><linearGradient id="_54-10" x1="103.997" y1="42.099" x2="109.626" y2="42.099" xlink:href="#_54"/><linearGradient id="_233" x1="120.616" y1="47.156" x2="120.616" y2="47.739" gradientTransform="translate(9.214 0.72) rotate(-0.126)" gradientUnits="userSpaceOnUse"><stop offset="0" stop-color="#ffc955"/><stop offset="0.986" stop-color="#89fffc"/></linearGradient><linearGradient id="_113-3" x1="50.13" y1="1013.645" x2="50.13" y2="1090.29" gradientTransform="matrix(1, -0.002, 0.002, 0.818, 7.596, -742.18)" xlink:href="#_113"/><linearGradient id="_113-4" x1="144.707" y1="36.56" x2="135.35" y2="128.556" xlink:href="#_113"/><linearGradient id="_113-5" x1="91.242" y1="19.81" x2="91.291" y2="41.603" xlink:href="#_113"/><linearGradient id="_113-6" x1="202.787" y1="25.747" x2="202.787" y2="47.814" gradientTransform="translate(-74.203 2.54) rotate(0.905)" xlink:href="#_113"/><linearGradient id="_113-7" x1="-1524.874" y1="72.68" x2="-1503.697" y2="72.68" gradientTransform="matrix(-1, 0, 0, 1, -1472.236, 0)" xlink:href="#_113"/><linearGradient id="_41" x1="120.523" y1="17.59" x2="65.092" y2="18.699" gradientUnits="userSpaceOnUse"><stop offset="0" stop-color="#5c6b00"/><stop offset="0.229" stop-color="#606e00"/><stop offset="0.44" stop-color="#6b7600"/><stop offset="0.644" stop-color="#7e8401"/><stop offset="0.843" stop-color="#989702"/><stop offset="0.909" stop-color="#a29f02"/></linearGradient><linearGradient id="_272-3" x1="68.693" y1="7.981" x2="72.02" y2="41.25" xlink:href="#_272"/><radialGradient id="_1063" cx="460.489" cy="2106.075" r="30.575" gradientTransform="matrix(0.871, 0.173, -0.042, 0.694, -166.402, -1386.899)" gradientUnits="userSpaceOnUse"><stop offset="0.024" stop-color="#351761"/><stop offset="1" stop-color="#000e1b"/></radialGradient><radialGradient id="_1063-2" cx="1623.052" cy="549.706" r="70.392" gradientTransform="matrix(0.88, 0.269, -0.282, 0.844, -1155.857, -798.498)" xlink:href="#_1063"/><radialGradient id="_1056" cx="33.63" cy="108.17" r="29.264" gradientTransform="translate(83.083 -4.324) rotate(-1.14)" gradientUnits="userSpaceOnUse"><stop offset="0.006" stop-color="#8e37e2"/><stop offset="0.037" stop-color="#8333d0"/><stop offset="0.131" stop-color="#6427a0"/><stop offset="0.231" stop-color="#491c75"/><stop offset="0.333" stop-color="#331451"/><stop offset="0.441" stop-color="#200c33"/><stop offset="0.554" stop-color="#12071d"/><stop offset="0.677" stop-color="#08030c"/><stop offset="0.815" stop-color="#020103"/><stop offset="1"/></radialGradient><radialGradient id="_1056-2" cx="42.316" cy="143.695" r="20.704" xlink:href="#_1056"/><radialGradient id="_1056-3" cx="126.09" cy="133.999" r="16.459" gradientTransform="matrix(1, 0, 0, 1, 0, 0)" xlink:href="#_1056"/><radialGradient id="_1056-4" cx="146.786" cy="129.596" r="18.493" gradientTransform="matrix(1, 0, 0, 1, 0, 0)" xlink:href="#_1056"/><radialGradient id="_1056-5" cx="151.068" cy="135.103" r="17.003" gradientTransform="matrix(1, 0, 0, 1, 0, 0)" xlink:href="#_1056"/><linearGradient id="_141" x1="110.693" y1="101.714" x2="109.814" y2="112.037" gradientUnits="userSpaceOnUse"><stop offset="0" stop-color="#27a0d7"/><stop offset="1" stop-color="#4f0069"/></linearGradient><linearGradient id="_3691-2" x1="71.931" y1="137.005" x2="70.758" y2="140.746" gradientTransform="matrix(1, 0, 0, 1, 0, 0)" xlink:href="#_3691"/><linearGradient id="_3690-5" x1="57.171" y1="142.773" x2="71.648" y2="142.773" gradientTransform="matrix(1, 0, 0, 1, 0, 0)" xlink:href="#_3690"/><linearGradient id="_3691-3" x1="64.519" y1="138.531" x2="63.395" y2="142.116" gradientTransform="matrix(1, 0, 0, 1, 0, 0)" xlink:href="#_3691"/><linearGradient id="_3690-6" x1="51.39" y1="143.602" x2="62.539" y2="143.602" gradientTransform="matrix(1, 0, 0, 1, 0, 0)" xlink:href="#_3690"/><linearGradient id="_3691-4" x1="58.263" y1="140.053" x2="57.174" y2="143.526" gradientTransform="matrix(1, 0, 0, 1, 0, 0)" xlink:href="#_3691"/><linearGradient id="_3691-5" x1="47.413" y1="151.778" x2="63.877" y2="151.778" gradientTransform="matrix(1, 0, 0, 1, 0, 0)" xlink:href="#_3691"/><linearGradient id="_3690-7" x1="47.413" y1="151.812" x2="63.232" y2="151.812" gradientTransform="matrix(1, 0, 0, 1, 0, 0)" xlink:href="#_3690"/><linearGradient id="_41-2" x1="163.721" y1="36.021" x2="141.175" y2="22.099" xlink:href="#_41"/><linearGradient id="_272-4" x1="131.111" y1="30.109" x2="160.559" y2="30.109" xlink:href="#_272"/></defs><title>island-2</title><g class="cls-1"><g id="Layer_2" data-name="Layer 2"><g id="islands"><g id="island-2"><circle class="cls-2" cx="110.162" cy="125.716" r="110.162"/><polygon class="cls-3" points="67.46 212.158 78.935 216.412 89.035 211.907 90.427 196.919 113.837 196.903 106.955 220.012 111.392 222.307 116.669 218.361 119.696 209.499 122.737 211.515 128.301 209.469 138.488 187.151 60.772 181.449 67.46 212.158"/><polygon class="cls-4" points="78.935 216.412 67.46 212.158 60.772 181.449 75.44 181.589 78.935 216.412"/><polygon class="cls-4" points="106.955 220.012 110.877 222.041 124.163 185.994 116.642 185.548 113.837 196.903 106.955 220.012"/><polygon class="cls-4" points="122.737 211.515 119.696 209.499 126.917 186.456 132.81 186.761 122.737 211.515"/><polygon class="cls-5" points="65.994 205.426 78.226 209.34 89.23 209.808 90.427 196.919 113.837 196.903 109.658 210.935 113.973 213.21 120.373 207.338 121.487 203.782 124.289 207.701 131.191 203.136 138.488 187.151 60.883 182.185 65.994 205.426"/><polygon class="cls-6" points="39.217 158.847 42.573 178.87 54.684 189.652 70.288 200.177 83.956 199.149 85.501 204.069 95.152 209.747 121.114 203.259 131.252 195.785 138.45 192.846 138.945 206.378 148.579 209.208 158.914 193.737 165.975 184.633 173.796 184.701 193.919 163.244 176.306 153.492 40.434 155.53 39.217 158.847"/><polygon class="cls-7" points="193.918 163.244 173.796 184.701 165.975 184.633 175.35 165.045 163.033 158.629 138.945 206.379 138.45 192.846 136.247 193.745 149.647 167.77 136.099 165.673 131.252 195.785 121.114 203.258 95.152 209.748 96.044 208.018 99.58 196.913 108.459 167.848 76.538 169.695 116.391 155.847 76.538 169.695 83.955 199.149 70.288 200.176 54.684 189.652 42.572 178.871 68.537 190.489 64.184 166.409 54.988 155.399 174.181 155.96 193.918 163.244"/><path class="cls-5" d="M70.288,200.176l-6.1-33.768s29.151-9.538,29.553-9.77,32.79-4.791,32.79-4.791l-.58,5.955L76.538,169.7l7.417,29.454Z"/><polygon class="cls-8" points="138.45 192.846 158.557 163.022 138.015 156.965 149.646 167.77 136.247 193.745 138.45 192.846"/><polygon class="cls-4" points="121.114 203.258 129.532 164.815 136.157 163.117 131.252 195.785 121.114 203.258"/><polygon class="cls-9" points="40.065 163.117 64.841 170.047 81.863 190.841 77.145 172.102 105.965 176.011 128.082 171.436 133.606 180.108 145.395 176.011 140.007 186.456 155.146 168.081 155.408 173.744 173.053 169.845 169.751 176.743 187.101 170.514 193.919 163.244 178.917 153.262 64.184 153.262 39.217 158.847 40.065 163.117"/><path class="cls-10" d="M76.538,169.7c27.7,3.044,59.561-4.022,59.561-4.022l13.547,2.1-.653-2.678-7.723-5.856s22.394,5.748,34.08,5.809l.749-7.164s9.5,2.619,18.3,5.869l2.745-9.143s-9.082-2.723-10.3-3.73c-2.749-2.278-30.909-6.554-30.909-6.554l-24.116-2.9S82.2,142.645,72.014,145c-10.324,2.391-32.9,4.793-35.752,5.651l1.627,8.193s21.952,6.144,26.295,7.561c0,0,33.113-9.765,49.993-10.362L77.609,166.632Z"/><polygon class="cls-11" points="197.147 154.607 175.64 153.502 176.308 159.876 194.402 163.75 197.147 154.607"/><path class="cls-11" d="M175.35,165.045l.427-4.087s-4.258-.02-12.991-.64a130.807,130.807,0,0,1-22.2-3.353l.68,2.271,16.914,4.339,2.393.257S170.135,165.379,175.35,165.045Z"/><path class="cls-11" d="M149.646,167.77l-.653-2.678-10.844-1.342-35.874,1.962-24.666.92L76.538,169.7s24.969,4.5,30.12,4.049c10.095-.891,21.988-4.882,21.988-4.882l6.893-.857Z"/><path class="cls-11" d="M36.262,150.654s17.134,8.252,28.443,10.192c0,0,14.131-1.308,27-3.109s23.592-2.73,23.592-2.73l-1.122,1.039a310.649,310.649,0,0,0-49.911,10.833l-26.377-8.032Z"/><path class="cls-12" d="M194.4,163.75l2.745-9.143s-9.082-2.723-10.3-3.73c-2.749-2.278-30.909-6.554-30.909-6.554l-24.116-2.9S82.2,142.645,72.014,145c-10.324,2.391-32.9,4.793-35.752,5.651l1.627,8.193,1.4.426,3.284,19.6,0,0h0L54.22,189.24l.464.412,9.207,6.21,2.1,9.564h0l1.466,6.732,11.475,4.254,10.1-4.5.2-2.1h0l.312-3.362,5.61,3.3h0l14.509-3.627,1.545-.386-4.251,14.277,4.437,2.295,5.277-3.946L119.7,209.5l3.041,2.016,5.564-2.046,7-15.338.945-.386h0l.29-.118,1.913-.781.5,13.532,9.634,2.83,10.335-15.471,7.061-9.1,7.821.068h0l8.841-9.427L193.6,163.579Z"/><path class="cls-13" d="M194.4,163.75l2.745-9.143s-9.082-2.723-10.3-3.73c-2.749-2.278-30.909-6.554-30.909-6.554l-24.116-2.9S82.2,142.645,72.014,145c-10.324,2.391-32.9,4.793-35.752,5.651l1.627,8.193,1.4.426,3.284,19.6,0,0h0L54.22,189.24l.464.412,9.207,6.21,2.1,9.564h0l1.466,6.732,11.475,4.254,10.1-4.5.2-2.1h0l.312-3.362,5.61,3.3h0l14.509-3.627,1.545-.386-4.251,14.277,4.437,2.295,5.277-3.946L119.7,209.5l3.041,2.016,5.564-2.046,7-15.338.945-.386h0l.29-.118,1.913-.781.5,13.532,9.634,2.83,10.335-15.471,7.061-9.1,7.821.068h0l8.841-9.427L193.6,163.579Z"/><polygon class="cls-14" points="159.004 176.583 156.315 184.966 159.104 196.87 164.179 201.982 176.347 193.767 187.101 174.157 167.102 173.744 159.004 176.583"/><polygon class="cls-7" points="173.129 176.793 170.829 183.266 156.315 184.966 159.104 196.87 164.179 201.982 176.347 193.767 187.101 174.157 173.129 176.793"/><polygon class="cls-15" points="172.806 178.657 158.184 176.571 158.557 174.704 178.482 172.102 187.428 172.672 187.101 174.157 172.806 178.657"/><polygon class="cls-7" points="172.806 178.657 170.829 183.266 164.179 201.982 176.347 193.767 187.101 174.157 172.806 178.657"/><polygon class="cls-16" points="187.428 172.672 178.482 172.102 158.557 174.704 158.184 176.571 159.004 176.583 159.004 176.583 156.315 184.966 159.104 196.87 164.179 201.982 176.347 193.767 181.724 183.962 187.101 174.157 187.101 174.157 187.101 174.157 187.428 172.672"/><path class="cls-17" d="M160.951,145.12,135.1,141.427,78.36,144.081l-26.162,4.2c-25.6,13.352,40.346,3.131,40.346,3.131l-4.689,7.211a81.75,81.75,0,0,1,25.237-7.972c5.029-.7,15.813-.575,27.452-.081-7.392,9.2-18.015,13.053-16.513,12.921,9.548-.839,20.831-10.652,23-12.613,7.187.376,14.357.859,20.4,1.348-7.291,6.061-13.723,6.3-10,6.537,5.021.316,13.282-5.035,15.04-6.1,2.253.206,4.241.409,5.876.6,1.065.124,4.4-3.334,4.4-3.334A155,155,0,0,1,160.951,145.12Z"/><path class="cls-18" d="M84.923,75.387c1.1-12.14,15.835-18.123,32.172-19.37,17.461-1.333,26.771-3.625,28.3-7.075a45.439,45.439,0,0,1,5.3-8.9s-10.074,10.3-14.255,10.472c-15.588.658-28.919,2.366-43.492,6.517S80.424,73.663,80.424,73.663Z"/><path class="cls-18" d="M164.179,145.657c5.678-3.563,7.255-1.54,4.195-6.04s-5.264-7.652-12.433-5.473-12.282,9.314-12.282,9.314l1.729.425s7.778-8.45,13.643-7.474C168.915,138.054,164.179,145.657,164.179,145.657Z"/><path class="cls-19" d="M186.144,150.54s-12.945-2.054-20.11-4.257c-.676-.209-1.3-.416-1.855-.626,0,0,7.337-5.1-4.563-10.321-2.964-1.3-15.233,8.014-17.8,9.2,0,0-12.831-1.4-18.992-1.216-14.414.43-14.2,4.278-14.2,4.278-8.235,1.262-19.3-.832-25.52-2.293-2.9-.682-4.749-1.227-4.749-1.227s2.618-2.583-4.191-3.522c-11.99-1.655-14.245,6.461-14.639,6.759a7.962,7.962,0,0,1-5.156,1.267,12.173,12.173,0,0,1-2.176-.3c10.146-18.153,14.43-19.926,30.065-31.534,9.524-7.011-1.34-17.5-8-23.118h0c-.481-.407-.941-.786-1.369-1.139a32.239,32.239,0,0,0-9.111-4.637c-.917-.4-6.508-1.924-10.07-.668-3.084,1.079-7.022-4.483-5.424-7.179,1.634-2.278,2.9-4.606,2.866-7.182a3.528,3.528,0,0,0-2.6-3.262,8.153,8.153,0,0,0-1.072-.333l0,0c-.3-.074-.618-.135-.931-.184-.46-.074-.924-.124-1.372-.156-5.089-.28-13.264-1.046-16.124-4.489-.241-.289,2.922-1.634,2.99-1.219.3,1.9-1.086,2.4,3.393,3.864,11.814,3.878,19.563-8.8,19.563-8.8l1.267.572c-9.791,8.067,2.451,7.569-3.123,18.517-1.184,2.326,2.823,4.324,6.8,5.018h0c3.125.545,6.233.284,6.795-1.256.484-1.329.331-9.638,3.887-14.236,1.508-2.008,3.073-3.95,4.754-5.818a61.842,61.842,0,0,1,5.394-5.322c5.021-4.286,1.968-9.887-2.7-12.31A37.693,37.693,0,0,0,66.34,39.966c-.084-2.847-1.59-4.983-3.473-6.887-1.844-1.869-3.386-2.775-4.976-4.657a.627.627,0,0,0,.644-.353c.363,1.435,2.37,1.837,4.039,2.3,6.016,1.513,9.62-5.678,13.467-8.791a21.768,21.768,0,0,0,2.308.6,95.938,95.938,0,0,0-10.658,8.095c-1.252,1.114-2.514,2.234-2.256,3.626a5.1,5.1,0,0,0,4.522,4.144,109.966,109.966,0,0,1,18.452,4.58c4.553,1.764,9.513-.033,11.206-4a7.861,7.861,0,0,0,.023-9.9,10.921,10.921,0,0,0-4.891-3.744A71.2,71.2,0,0,1,87.9,22.211c-6.259-2.968-11.08-6.749-12.707-11.885a19.4,19.4,0,0,1,2.173-.319,5.531,5.531,0,0,0,2.065,5.581,21.871,21.871,0,0,0,17.72,5.951c2.229-.318,1.478-2.433.267-3.342.651.026,1.542-.438,1.822,0h0v0a28.186,28.186,0,0,1,2.138,3.69q.427.875.805,1.772.364.858.691,1.735c.734,2.553,1.467,5.167,2.416,7.8.972,2.692.414,11.058,4.333,10.567,2.246-1.108,4.012-2.879,3.217-4.485,0,0,2.331-.755,2.064-.331-.755,1.2-2.469,3.54-3.81,5.24-.345.422-.684.822-1.023,1.2l0,0c-.125.142-.248.28-.372.415a32.4,32.4,0,0,1-3.265,3.132c1.25,3.3,23.156,3.645,29.445.221a9.254,9.254,0,0,0,3.857-4.384c.235-3,1.459-13.005,1.459-13.005l2.526-.274c-1.318,2.526-3.295,4.173-3.224,12.339.179,2.105,1.021,3.424,2.14,2.9,3.021-1.423,6.121-7.474,6.121-7.474,3.288-.925,3.446-.294,3.446-.294l-.044.026a4.027,4.027,0,0,0-.542.371l-.035.024c-1.076.847-3.474,3.194-6.564,9.041-2.045,3.866-19.771,7.533-33.533,7.267-9.73-.187-19.161,6.006-23.6,9.415a25.208,25.208,0,0,0-3.416,7.828c-.2.94-.486,1.942.451,2.447,4.945,2.2,10.325,3.484,15.834,4.809h.006a123.323,123.323,0,0,1,12.963,3.635,19.777,19.777,0,0,1,7.455,4.129c4.837,4.655,4.964,12.3,15.753,30.9,11.887-4.159,27.785.987,38.692,11.543,2.227,2.011,4.868,6.681,6.965,11.023v0C185.057,146.539,186.765,151.2,186.144,150.54Z"/><path class="cls-20" d="M102.275,147.883s-8.4-2.1-8.282,14.007L83.264,165a20.627,20.627,0,0,0,1.181-4.96,46.872,46.872,0,0,0,.425-6.543c0-5.108-1.743-4.654-.6-8.953,1.326-5.016,6.781-16.687,7.886-17.425C98.5,122.875,109.09,144.872,102.275,147.883Z"/><path class="cls-21" d="M141.818,144.539s-16.083-1.428-21.439-1.081c-11.472.742-11.749,4.143-11.749,4.143s3.505-16.72.949-24.916c-2.895-9.288-5.3-19.594-5.3-19.594l-1.108-5.663.637.562c4.551,7.739,26.752,20.462,31.735,29.537C136.615,129.474,141.818,144.539,141.818,144.539Z"/><path class="cls-22" d="M175.626,130.4c-14.994-6.436-26.632-6.53-26.632-6.53s16.745,4.2,22.016,10.794c0,0-19.6-4.91-24.38-6.816s-9.7-8.991-9.7-8.991C128.673,104.622,126.663,96.8,124,91.828a12.468,12.468,0,0,0-6.015-6.157c-4.263-1.84-17.232-5.475-17.232-5.475-5.509-1.325-10.889-2.6-15.834-4.809-.937-.5-.654-1.507-.451-2.447a25.208,25.208,0,0,1,3.416-7.828c4.436-3.409,13.867-9.6,23.6-9.415,13.762.266,31.488-3.4,33.533-7.267,3.09-5.847,5.488-8.194,6.564-9.041a31.25,31.25,0,0,0-7.368,8.224c-.878,1.349-32.095,10.463-23.281,4.2,0,0-58.232,13.3-14.5-2.871l3.177-3.1.088-.034c.124-.135.247-.273.372-.415l0,0c.339-.382.678-.782,1.023-1.2,1.341-1.7,3.055-4.039,3.81-5.24.267-.424-2.064.331-2.064.331.8,1.606-.971,3.377-3.217,4.485-3.919.491-3.361-7.875-4.333-10.567-.949-2.631-1.682-5.245-2.416-7.8q-.328-.878-.691-1.735a10.632,10.632,0,0,1-.805-1.772L99.243,18.2c.105.255,6.744,16.259,3.734,23.62-1.656,4.051-7.832,8.649-10.4,9.789,2-4.137-2.584-8.518-2.584-8.518a86.966,86.966,0,0,0-14.215-3.93L74.408,38.9c4.72,1.049,11.964,3.1,15.446,6.328,4.364,4.05-10.112,13.7-10.9,14.222a17.871,17.871,0,0,0-7.62,6.479S61.259,78.832,80.044,80.3c0,0,14.411-1.231,11.649.632l3.908-.319c13.088,1.251,25.3,10.275,10.17,11.578-9.328.8-39.431-11.053-25.727-3.04C74.618,86.734,69.957,84.6,66.737,81.1c-.562,1.54-3.67,1.8-6.795,1.256h0c-5.64,3.353-9.347,0-9.347,0a16.829,16.829,0,0,0,1.6-9.779c-.633-4.925-1.588-2.767-3.649-3.006a3.528,3.528,0,0,1,2.6,3.262c.038,2.576-1.232,4.9-2.866,7.182-1.6,2.7,2.34,8.258,5.424,7.179,3.562-1.256,9.153.268,10.07.668a32.224,32.224,0,0,1,4.027,1.6c.047.025,2.609.957,7.974,5.481A47.937,47.937,0,0,1,85.214,106.5l.263.706a20.4,20.4,0,0,1,5.772,10.836s-4.057,3.883-14.268,9.718c-14.079,8.046-15.744,9.41-15.744,9.41l4.223-1.3a46.1,46.1,0,0,0-11.7,12.67c4.008.172,5.771-1.22,5.771-1.22s2.06-7.111,11.581-6.981c10.575.145,7.249,3.744,7.249,3.744l5.66,1.438s2.863-9.769,7.229-16.923a5.239,5.239,0,0,1,2.622-2.022c-.832-6.918-4.566-23.527-4.566-23.527s8.566,4.448,10.381,10.872,6.888,23.886,6.888,23.886a21.356,21.356,0,0,0-6.888-7.151c-8.069,9.652-8.24,22.141-8.24,22.141-.823-4.118-2.306-5.194-2.306-5.194.329,5.678-1.573,16.149-1.573,16.149l6.425-1.86a32.354,32.354,0,0,1,1.037-8.388,8.047,8.047,0,0,1,3.873-5.141,3.946,3.946,0,0,1,1.22-.453,46.839,46.839,0,0,0,8.508-.307s5-12.1,1.077-24.4a246.729,246.729,0,0,1-6.533-25.771l.125.04a6.422,6.422,0,0,1,.512.522L130.158,143.8c7.435.4,11.661.742,11.661.742,2.564-1.189,14.833-10.5,17.8-9.2,11.9,5.218,4.563,10.321,4.563,10.321,6.467,2.424,21.965,4.883,21.965,4.883C187.294,151.756,180.472,134.785,175.626,130.4Z"/><path class="cls-23" d="M74.408,38.9c-2.612-.581-4.451-.856-4.451-.856Z"/><path class="cls-24" d="M75.588,86.109c8.179-4.574,18.5-5.88,25.215-4.61s4.679,1.837,4.679,1.837a37.64,37.64,0,0,1-17.944,2.527C77.5,84.78,75.588,86.109,75.588,86.109Z"/><path class="cls-24" d="M79.24,77.349C80.409,85.2,67.8,74.631,67.8,74.631a15.772,15.772,0,0,1,1.552-5.69s3.433-2.958,5.453-1.427C77.785,69.77,79.24,77.349,79.24,77.349Z"/><path class="cls-25" d="M42.6,67.513c7.42.035,9.22-1.365,8.491-2.683l-.73-1.318a16.755,16.755,0,0,1-5.2,3.212Z"/><path class="cls-26" d="M106.433,48.942c-9.551,4.412-18.545,16.17-18.545,16.17s8.592-7.544,17.3-8.718,12.62-.827,12.62-.827-8.271-.676-9.768-2.323,2.029-2.518,2.029-2.518-1.094-.4-2.42-.754S106.433,48.942,106.433,48.942Z"/><path class="cls-27" d="M95.125,54.342c-13.508,2.526-24.5,12.517-24.5,12.517l-1.268,2.082S72.612,66.655,85.132,60,95.125,54.342,95.125,54.342Z"/><path class="cls-28" d="M66.345,81.679c8.895,14.282,34.491,26.7,34.491,26.7S92.79,95.528,85.1,92.2,66.345,81.679,66.345,81.679Z"/><path class="cls-29" d="M141.818,144.539l1.841-1.081s-5.8-9.779-8.34-19.584c-.453-1.75-12.823-12.79-12.823-12.79l-11.726-7.718-6.959-5.376s.776,2.368,6.959,7.857,16.312,13.809,16.312,13.809Z"/><path class="cls-30" d="M96.882,107.709c9.065,7.4,9.692,30.1,9.692,30.1s1.959-17.118-1.016-22.623A17.293,17.293,0,0,0,96.882,107.709Z"/><path class="cls-24" d="M87.438,115.182c-6.832,2.793-19.8,11.724-22.4,16.034,0,0,13.146-4.989,21.414-11.56A3.765,3.765,0,0,0,87.438,115.182Z"/><path class="cls-24" d="M105.875,84.909c-4.74.765-19.38,2.635-21.736,2.768-.44.025,6.851,2.466,13,2.466,13.065,0,14.455-2.654,14.455-2.654S109.35,84.348,105.875,84.909Z"/><path class="cls-31" d="M103.174,95.027c17.539,2.694,19.817,3.243,31.033,22.351,0,0-4.379-5.93-13.6-12.189A147.936,147.936,0,0,0,103.174,95.027Z"/><path class="cls-32" d="M162.786,126.574c14.648,8.43,23.358,23.966,23.358,23.966l-9.222-1.664s-.676-8.637-4.116-13.213S162.786,126.574,162.786,126.574Z"/><path class="cls-33" d="M66.34,39.966c6.711-.779,3.016-2.049,3.016-2.049S81.424,39.942,90,43.093c0,0,10.73,2.793,15.287-8.957.161-.415,1.708,6.513-2.433,11.64-4.283,5.3-28.326,16.232-28.326,16.232S85.677,55.663,89.042,47.32c.79-1.958-.076-2.058-9.539-5.495A38.739,38.739,0,0,0,66.34,39.966Z"/><path class="cls-24" d="M99.213,112.662c2.862,7.661,3.961,20.091,3.961,20.091s-4.645-1.791-7.28-12.371a134.064,134.064,0,0,0-5-16.4S97.406,107.825,99.213,112.662Z"/><path class="cls-34" d="M67.8,78.585c1.071,5.6,4.66,6.616,5.731,6.616s9.017-3.839,4.129-4.583C69.766,79.416,67.337,73.77,67.8,78.585Z"/><path class="cls-24" d="M93.505,127.851c5.652,2.609-6.918,19.508-7.907,18.849S89.964,126.216,93.505,127.851Z"/><path class="cls-35" d="M134.931,123.2a82.741,82.741,0,0,0-11.768-8.662,31.7,31.7,0,0,1,3.919,5.119c1.627,2.746,13.289,22.6,13.289,22.6l1.448,2.287c-32.788-3.6-33.19,3.062-33.19,3.062s2.914-15.392.656-25.067c-2.281-9.778-4.222-15.185-5.22-20.54-.528-2.839-.766-4.526-.766-4.526s8.867,6.715,15.816,11.39C126.572,113.877,134.931,123.2,134.931,123.2Z"/><path class="cls-36" d="M158.393,135.257c-12.641-3.273-20.95-15.526-23.691-20.359S124,91.828,124,91.828c3.124,6.162-43.193-1.685-43.193-1.685S110.9,118.351,94.96,101.805C84.7,91.152,103.3,97.468,103.3,97.468c30.153,10.241,39.542,33.748,39.542,33.748s6.095,6.589.818,12.242a67.8,67.8,0,0,1,7.642-4.9C156.465,135.533,158.393,135.257,158.393,135.257Z"/><path class="cls-37" d="M87.41,86.584c-9.864-1.681-11.449-.649-11,0s2.693,2.461,4.868,1.8S87.41,86.584,87.41,86.584Z"/><path class="cls-38" d="M102.045,130.654c-4.681-4.111-5.129-8.644-8.058-17.343-2.2-6.524-4.593-9.9-4.463-9.111,1.757,10.6-.72,20.989-.913,21.12q-1.949,1.246-3.5,2.348c-5.171,3.417-12.178,7.829-16.38,9.569-7.575,3.137-10.546,6.921-14.969,11.3L53.4,148.5a8.94,8.94,0,0,0,6.134-1.179s.49-2.9,4.654-5.55c4.623-2.94,11.778-3.14,17.708-6.434a14.047,14.047,0,0,0,2.087-1.438,43.787,43.787,0,0,0,9.2-7.021c3.095-3.016,8.791,6.278,9.738,9.636,2.3,8.165-10.986,11.8,4.291,11.246C110.055,147.654,108.044,135.922,102.045,130.654Z"/><path class="cls-39" d="M103.3,97.468c12.26-18.371,57.507-31,73.3-20.8,12.284,7.938-48.748,38.071-34.78,67.867,0,0-29.733-4.049-33.144,2.985,0,0,1.91-13.468,1.387-19.276-.746-8.27-3.633-15.561-4.883-20.926C103.966,102.114,103.3,97.468,103.3,97.468Z"/><g class="cls-40"><path class="cls-41" d="M87.044,146.814c.315.491,1.259-1.126.784-1.221A.781.781,0,0,0,87.044,146.814Z"/><path class="cls-42" d="M88.414,144.006c1,.853,2.342-1.354,1.895-1.842S87.783,143.47,88.414,144.006Z"/><path class="cls-43" d="M88.449,148.56c-.125-1.411-1.737-.319-1.481.67a1.491,1.491,0,0,0,.352.7,1.956,1.956,0,0,0,.022,1.526c-.674.223-1.108,1.515-.951,2.75.369,2.9,2.65-.143,2.221-1.806.693-.771.9-3.725.237-3.611a2,2,0,0,0-.4.111A2.337,2.337,0,0,0,88.449,148.56Z"/><path class="cls-44" d="M86.725,143.292c.98-1.043,2.086-3.856.457-1.894S85.415,144.685,86.725,143.292Z"/><path class="cls-45" d="M92.053,142.683c.746-.518.737-2.589.185-1.362S91.622,142.983,92.053,142.683Z"/><path class="cls-46" d="M90.6,155.052a.839.839,0,0,0-.345.735c.048.583.554.1.695-.311l.219.134c-.225.789.118,1.488.763.4.465-.783.2-1.233-.159-1.164A7.743,7.743,0,0,1,92,153.669C92.569,151.625,90.491,154.044,90.6,155.052Z"/><path class="cls-47" d="M91.765,144.139c-1.169.415-3.162,4.119-1.664,4.246-.032,3.808,1.54,2.365,2.137.952a4.35,4.35,0,0,0,.39-1.68c.476-.472,1.035-2.021.7-1.9a2.569,2.569,0,0,0-.872,1.037,1.381,1.381,0,0,0-.363-.494C92.47,145.114,92.411,143.909,91.765,144.139Z"/><path class="cls-48" d="M92.725,144.431c.709-.414.742-1.889.384-1.243S92.281,144.691,92.725,144.431Z"/><path class="cls-49" d="M88.737,142.523c.272.364,1.168-1.229.751-1.067S88.383,142.05,88.737,142.523Z"/><path class="cls-50" d="M89.516,154.409c.891.362,2.657-2.679,1.881-2.73S89.185,154.275,89.516,154.409Z"/></g><g class="cls-40"><path class="cls-51" d="M67.089,130.193c-.242.732,2.051.386,1.763-.231A.93.93,0,0,0,67.089,130.193Z"/><path class="cls-52" d="M71.159,129.1c-.021,2.067,4.869,1.571,4.981.347C76.249,128.245,71.171,127.86,71.159,129.1Z"/><path class="cls-53" d="M66.4,133.141C67.655,131.87,65.647,131,64.98,132a2.21,2.21,0,0,0-.379.877,1.838,1.838,0,0,0-1.145,1.056c-.435-.564-1.451-.194-2.167.685-1.562,1.921.988,2.878,2.02,1.366.927.381,3.689-1.41,3.135-2.176a2.749,2.749,0,0,0-.352-.4A2.371,2.371,0,0,0,66.4,133.141Z"/><path class="cls-54" d="M70.381,126.638c2.212-.169,7.948-2.6,2.719-1.642C69.326,125.684,67.949,126.824,70.381,126.638Z"/><path class="cls-55" d="M78.208,132.838c2.626.8,7.732-2.112,3.223-1.391C77.781,132.03,76.873,132.432,78.208,132.838Z"/><path class="cls-56" d="M62.169,140.1a.433.433,0,0,0-.651-.1c-.382.357.123.832.476.83,0,.144-.009.274-.014.391-.647.055-1.015.887,0,1.377.813.392,1.056-.28.837-.825a3.931,3.931,0,0,1,1.1-.232C66.2,141.365,62.883,139.414,62.169,140.1Z"/><path class="cls-57" d="M75.118,133.951c-2.24-1.458-8.337-.858-7.389,1.2-3.566,2.587-1.3,4.054.716,4.127a4.637,4.637,0,0,0,2.518-.525c1.247.574,4.605.473,3.855-.16a6.151,6.151,0,0,0-2.842-.869,2.345,2.345,0,0,0,.264-1.1C74.574,136.228,76.56,134.889,75.118,133.951Z"/><path class="cls-58" d="M76.154,136.052c2.093,1.078,5.39-.509,3.141-.543C77.3,135.478,74.988,135.451,76.154,136.052Z"/><path class="cls-59" d="M73.429,127.879c-.169.724,3.526-.06,2.606-.379C75.176,127.2,73.648,126.946,73.429,127.879Z"/><path class="cls-60" d="M62.215,138.288c.086,1.4,3.6,2.436,3.151,1.111C64.95,138.177,62.185,137.789,62.215,138.288Z"/></g><g class="cls-40"><path class="cls-61" d="M176.838,135.878c-.554-.084-.015,1.255.32,1.042S177.66,136,176.838,135.878Z"/><path class="cls-62" d="M177.734,137.837c-1.023.191-.489,1.45-.038,1.381C178.13,139.151,178.337,137.725,177.734,137.837Z"/><path class="cls-63" d="M174.509,135.743c1.281.718,1.467-.952.394-1.5a2.472,2.472,0,0,0-1-.311,4.317,4.317,0,0,0-1.97-1.473c.243-.891-1.554-3.23-4.5-5.467-12.9-9.8-2.26,3.7,1.869,5.576.766,1.465,4.377,3.8,4.708,3.3a1.45,1.45,0,0,0,.159-.339A3.442,3.442,0,0,0,174.509,135.743Z"/><path class="cls-64" d="M178.978,137.292c-.053.794.5,1.959.543.826C179.579,136.707,179.06,136.054,178.978,137.292Z"/><path class="cls-65" d="M176.609,139.824c-.074.408.905.759.595.345C176.854,139.7,176.655,139.576,176.609,139.824Z"/><path class="cls-66" d="M160.614,130.963a6.737,6.737,0,0,0-2.624-1.986c-2.9-1.4-1.014.607.664,1.676l-.765.048c-3.586-2.11-8.216-3.478-2.528.313,2.973,1.982,4.847,2.3,4.916,1.77,1.013.481,2.152,1.055,3.372,1.74C167.62,136.757,163.921,132.432,160.614,130.963Z"/><path class="cls-67" d="M175.92,139.357c.348-.659-1.234-3.332-2.328-2.448-5.1-2.736-3.894-.3-2.408.892a5.717,5.717,0,0,0,1.566.926c.169.421,1.165,1.138,1.247.947.06-.14-.116-.467-.367-.745a2.207,2.207,0,0,0,.609-.031C174.921,139.429,175.738,139.7,175.92,139.357Z"/><path class="cls-68" d="M175.251,139.719c-.083.41.776.712.578.441C175.616,139.869,175.306,139.451,175.251,139.719Z"/><path class="cls-69" d="M178.293,138.454c-.305.014-.018.8.108.6S178.676,138.437,178.293,138.454Z"/><path class="cls-70" d="M163.753,130.7c-1.982.508,3.968,5.666,4.632,5.07S164.46,130.52,163.753,130.7Z"/></g><path class="cls-71" d="M102.275,147.883s-8.4-2.1-8.282,14.007L83.264,165a20.627,20.627,0,0,0,1.181-4.96c1.455-7.405,1.8-10.236,3.092-7.734a13.483,13.483,0,0,1,1.109,5.93s2.154-5.5,2.78-3.466a33.09,33.09,0,0,1,.956,4.512s.387-7.151,2.663-10.631,3.242-1.4,3.242-1.4,1.662-11.235,2.545-8.693S102.275,147.883,102.275,147.883Z"/><path class="cls-71" d="M83.633,141.427l-.524,3.881c-2.9-.682-4.749-1.227-4.749-1.227s2.618-2.583-4.191-3.522c-11.99-1.655-14.245,6.461-14.639,6.759a7.962,7.962,0,0,1-5.156,1.267c2.665-5.44,5.976-10.691,5.533-7.881-.583,3.69,5.128-2.522,5.128-2.522s2.773-2.222,3.692-2.782.026,3.052,0,3.154c.093-.044,3.356-1.66,3.509-1.318s3.158,1.32,3.158,1.32,1.908.6,2.254.255,3.749-5.289,4.243-3.477-1.848,6.093-1.848,6.093Z"/><path class="cls-71" d="M186.144,150.54s-12.945-2.054-20.11-4.257c1.716-4.479,1.532-8.554,2.34-6.666a12.048,12.048,0,0,0,2.718,3.841s-4-12.768-2.66-12.407,3.277,3.266,3.277,3.266,1.691-1.675,2.755.974c1.267,3.151,2.549,7.4,2.636,7.686,0-1.621.081-10.282,1.323-7.577a56.274,56.274,0,0,1,2.718,8.664l1.45-2.635C185.057,146.539,186.765,151.2,186.144,150.54Z"/><path class="cls-72" d="M85.112,77.079c3.845,2.527-10.274,3.73-11.552-2.859s10.4-13.85,19.385-17.193,13.244-2.822,13.244-2.822S91.914,59.041,86.852,65.513,82.377,75.282,85.112,77.079Z"/><path class="cls-73" d="M176.568,151.787l-1.586-7.3s-2.549,2.426-9.555,3.253c-6.363.751-23.624-1.1-23.624-1.1-3.206-.278-5.666-.422-5.666-.422a2.756,2.756,0,0,1-.205.92l-.618.531s5.873.684,7.837.849C151.515,149.223,170.9,150.187,176.568,151.787Z"/><path class="cls-74" d="M171.468,150.955a8.165,8.165,0,0,0,.961-4.961l2.325-1.088.06,6.446Z"/><path class="cls-75" d="M132.844,142.109a2.085,2.085,0,0,1,.453-1.622c1.584-2.106,4.173.561,17.956,3,10.392,1.836,17.4,1.672,20.937,1.325h0c.392-.038.74-.079,1.045-.118a14.735,14.735,0,0,0,1.656-.286s3.2-2.819,5.071-1.839c.873.456.559,1.763-.026,3.029h0a19.2,19.2,0,0,1-1.7,2.849,13.233,13.233,0,0,0,.112,2.8c.208,2.586-2.745,1.854-4.772-.492a4.963,4.963,0,0,1-1.1-1.564s-1.464-1.268-13.836-3.408a64.071,64.071,0,0,0-15.707-.986c-4.253.813-7.27,7.029-8.576,4.549-1.225-2.324.38-3.6.452-4.145C134.864,144.8,133.071,143.6,132.844,142.109Z"/><path class="cls-76" d="M134.811,145.2c.545-.669,1.626-2.215,1.626-2.215a4.757,4.757,0,0,1-3.593-.878C133.071,143.6,134.864,144.8,134.811,145.2Z"/><path class="cls-77" d="M142.935,144.8a64.07,64.07,0,0,1,15.707.986c12.372,2.14,13.836,3.408,13.836,3.408a2.068,2.068,0,0,1-.413-1.858,9.834,9.834,0,0,1,3.874-2.293c3.335-1.247,4.015-.527,4,.553.585-1.266.9-2.573.026-3.029-1.874-.98-5.071,1.839-5.071,1.839h0a19.268,19.268,0,0,1-2.7.4h0c.842,1.871-1.277,2.549-7.418,1.474-5.783-1.013-22.322-3.185-23.841-3.135-.277.009.107,1.285-1.855,3.488-1.319,1.48-4.1,3.467-4.718,2.711C135.664,151.827,138.682,145.612,142.935,144.8Z"/><path class="cls-78" d="M179.938,145.6h0c.585-1.266.9-2.573.026-3.029-1.874-.98-5.071,1.839-5.071,1.839h0a19.268,19.268,0,0,1-2.7.4h0c-3.539.347-10.545.511-20.937-1.325-13.783-2.436-16.372-5.1-17.956-3a2.085,2.085,0,0,0-.453,1.622v0h0a5.019,5.019,0,0,0,1.469,2.377c.3.326.517.572.5.716-.072.548-1.676,1.821-.453,4.144h0a1.734,1.734,0,0,0,.128.208c.72,1,1.883-.158,3.423-1.588,1.831.206,4.145.46,5.241.552,6.637.559,20.211,1.281,28.367,2.355-.017.027-.032.054-.049.081l2.589.307c1.982,1.932,4.488,2.376,4.3-.013a13.233,13.233,0,0,1-.112-2.8A19.2,19.2,0,0,0,179.938,145.6ZM141.8,146.641c-.774-.067-1.5-.126-2.166-.177.224-.175.454-.344.689-.5l.04-.026.134-.089.091-.058.085-.054a6.7,6.7,0,0,1,2.259-.934,53.942,53.942,0,0,1,8.806.107c2.033.165,4.354.438,6.9.879,3.555.615,6.208,1.158,8.185,1.619l.341.081c-.548.094-1.126.18-1.741.252C159.064,148.488,141.8,146.641,141.8,146.641Z"/><path class="cls-79" d="M144.451,142.948l0,0a.407.407,0,0,1-.041-.043c-.05-.048-.1-.1-.148-.148l-.02-.02c-.676-.687-1.478-1.524-2.333-2.469-.878-.972-1.808-2.056-2.718-3.209l0,0a35.8,35.8,0,0,1-3.668-5.545,18.8,18.8,0,0,1-.913-2.029,35.225,35.225,0,0,1-1.4-5.2c-.194-.954-.37-1.944-.533-2.946-.036-.217-.071-.435-.106-.652v0c-.006-.046-.013-.09-.021-.136v0c-.27-1.746-.5-3.5-.682-5.133q-.05-.427-.094-.84c-.058-.529-.11-1.041-.16-1.531h0c-.235-2.366-.37-4.212-.423-4.962h0c-.01-.154-.017-.262-.02-.318,0-.028,0-.043,0-.043l-.639-1.339c0,.014,0,.123,0,.3v0a18.685,18.685,0,0,1-.456,3.886,4.85,4.85,0,0,1-.685,1.629,1.7,1.7,0,0,1-.389.392,1.273,1.273,0,0,1-1.469-.061,4.509,4.509,0,0,1-1.568-2.585h0c-.1-.308-.188-.633-.269-.972v0a35.434,35.434,0,0,1-.773-5.449v0c-.245-3.235-.191-6.08-.191-6.08l-.494.562s.025,2.082-.064,4.711c-.051,1.526-.14,3.237-.293,4.833-.023.236-.048.47-.073.7a21.588,21.588,0,0,1-.616,3.466c-.018.058-.034.114-.051.17-.343,1.074-.791,1.659-1.374,1.39-2.663-1.222-2.642-4.4-2.642-4.4l-.008,0-.091-.061-.558-.379-.211-.145v0l0,.014c-.013.122-.1.9-.272,2.2h0c-.023.163-.046.333-.07.513-.04.28-.083.578-.129.9h0c-.293,2.015-.738,4.768-1.372,7.99,0,.015,0,.031-.008.047q-.208,1.058-.445,2.183c-.33,1.568-.7,3.224-1.117,4.939-.053.217-.105.435-.16.654q-.429,1.739-.922,3.541l0,0v.011c-.965,3.537-2.115,7.23-3.479,10.882-.056.152-.114.3-.171.455-.345.912-.7,1.823-1.078,2.726v0a.1.1,0,0,1-.008.018l0,0v0c-.028.072-.058.14-.087.211h0v0q-.423,1.024-.875,2.039l.588-.071h.01l.015,0h0l.016,0,3.316-7.431a3.652,3.652,0,0,1,1.1-1.537c.386-.17.536,1.314.555,3.453,0,.138,0,.278,0,.421,0,.611-.007,1.267-.022,1.949v.028c0,.01,0,.02,0,.031,0,.03,0,.061,0,.094-.046,2.012-.15,4.217-.255,6.084-.056,1.01-.113,1.919-.159,2.645-.011.17-.023.33-.033.478-.018.273-.034.509-.046.7-.026.362-.266,1.986-.266,1.986l.542-.171a23.616,23.616,0,0,1,.673-5.216,21.454,21.454,0,0,1,3.746-7.222c.038-.05.076-.1.115-.144h0l.025-.028a10.356,10.356,0,0,1,1.484-1.484c.162-.131.326-.256.5-.376a8.832,8.832,0,0,1,1-.61,8.992,8.992,0,0,1,2.239-.818,4.677,4.677,0,0,1,2.2.293c.692.2,1.537.5,2.617.883h.014l.566.2.491.175c1.484.528,3.326,1.184,5.631,1.96h0l.025.009.395.131h0l0,0,.264.089,0,0c1.675.558,3.58,1.174,5.754,1.846a16.411,16.411,0,0,1-2.786-1.657l-.059-.041,0,0c-.032-.021-.064-.046-.1-.069l-.008-.006,0,0a17.194,17.194,0,0,1-2.685-2.3c-.131-.146-.253-.293-.364-.436a4.231,4.231,0,0,1-.463-.73c-.481-1,4.514-.441,4.514-.441s-7.289-6.688-2.219-3.262c.171.115.339.231.507.347.042.028.08.056.119.083h0c.2.142.4.283.6.425.594.427,1.171.86,1.723,1.29h0c.881.684,1.7,1.361,2.434,1.99.673.575,1.272,1.112,1.786,1.583l.076.069.146.134a.079.079,0,0,0,.014.013.319.319,0,0,0,.033.031c.382.355.708.664.968.916C145.125,143.623,144.808,143.308,144.451,142.948Zm-10.693-12.785a3.72,3.72,0,0,1,.051.852h0a.391.391,0,0,1,0,.061c-.124,1.384-1.394,1.456-4.2.45-1.965-.7-1.2-3.634.118-5.2a3.475,3.475,0,0,1,.842-.75l.015-.01c.784-.466,1.6-.319,2.1,1.008A19.249,19.249,0,0,1,133.758,130.163Zm-2.008-5.513c-1.237.016-1.777-.85-1.428-2.384S132.987,124.633,131.75,124.65Zm-17.242,10.588c1.02.223.315,2.287-.824,1.488S113.49,135.014,114.508,135.238Zm5.276,1a2.89,2.89,0,0,1-4.4-1.588l0,0v0a5.733,5.733,0,0,1-.214-2.385v-.007a8.624,8.624,0,0,1,.13-.908c.4-2.08.8-4.029,1.227-5.712q.035-.132.066-.261v0a23.83,23.83,0,0,1,1.069-3.294c.761-1.768,1.647-2.644,2.772-2.14a2.75,2.75,0,0,1,.681.451c1.914,1.659,2.133,5.347,2.061,7.675h0c-.038,1.21-.157,2.053-.157,2.053-.028.366-.071.715-.128,1.049q-.042.263-.1.509A6.617,6.617,0,0,1,119.784,136.238Z"/><path class="cls-80" d="M45.7,67.454a.155.155,0,0,0,.026.026ZM57.7,81.7c3.921.877,5.462,2.948,5.595,3.138a2.742,2.742,0,0,1,1.022-4.014c3-1.814,9.536-.758,9.536-.758l.747-.314c-13.37-.864-16.142-5.648-19.018-21.085l-.357-.212c0,.061-.008.123-.013.183-.691,9.827-6.4,9.7-8.563,9.176a3.312,3.312,0,0,1-.922-.331,10.791,10.791,0,0,0,.93.811l.064.048q.061.049.123.093c2.161,1.594,3.947,1.662,6.849,7.537a34.74,34.74,0,0,1,2.71,10.5C56.384,85.887,56.321,81.39,57.7,81.7ZM54.147,65.636c.98-2.582,5.014,4.627,3.991,5.224C57.168,71.427,53.462,67.441,54.147,65.636Zm7.57,16.278c.748.726.358,1.04-.322.8S61.015,81.233,61.717,81.914ZM64.5,79.085c1.426,1.465-1.2,1.446-2.422,2.009-1.146.528-3.206-3.456-2.968-4.136C59.349,76.258,63.689,78.258,64.5,79.085ZM49.534,68.52c1.936.139,5.813,3.225,6.683,5.791.829,2.442.053,3.812-2.378.6C51.378,71.659,48.052,68.414,49.534,68.52ZM53.959,75.5c.068-.334,1.495,1.279,1.932,2.44.327.867-.437.937-.693.964S53.892,75.832,53.959,75.5Zm1.906,6.15c-.693-4.011.913-3.535.88-1.889-.032,1.553-.237,4.934-.507,4.188A12.092,12.092,0,0,1,55.865,81.653Z"/><path class="cls-81" d="M88.258,20.769c10.519,5.6,13.071,2.588,11.672.82l-1.4-1.768s1.007,1.484-2.436,1.837A20,20,0,0,1,88.258,20.769Z"/><path class="cls-82" d="M59.52,29.3c2.824,2.67,4.416,4.454,5.515,3.274s2.357-2.835,2.357-2.835a5.368,5.368,0,0,1-3.181.913A14.066,14.066,0,0,1,59.52,29.3Z"/><path class="cls-83" d="M109.626,43.764c-8.571,4.648-5.056-.184-4.123-1.942a5.634,5.634,0,0,0,.644-3.351s.361,3.762,1.506,4.518A4.154,4.154,0,0,0,109.626,43.764Z"/><path class="cls-84" d="M130,48.2c-.088-.387-.124-.588-.124-.588S129.929,47.826,130,48.2Z"/><path class="cls-85" d="M39.743,149.945c.081-.1.23-.309.443-.624C39.968,149.631,39.819,149.84,39.743,149.945Zm39.5-60.508s-1.053,1.474-2.656,3.375c-.431.511-.9,1.053-1.4,1.607a.083.083,0,0,0-.014.013c-2.593,2.856-5.986,5.991-8.829,6.584-5.4,1.13-7.922-14.257-7.922-14.257l-.346-.025c-5.093,41.115-15.18,58.517-17.769,62.416,1.777-2.552,4.357-6.221,14.569-16.4,3.974-3.959,4.251-.3,3.648,5.225h0c-.1.926-.173,1.493-.173,1.493l.552-.19c.606-1.457,1.183-2.841,1.733-4.162,4.719-11.325,7.5-18.005,10.5-26.53a139,139,0,0,1,5.344-13.033l0-.008c.348-.733.674-1.409.975-2.02,1.238-2.51,2.051-3.94,2.051-3.94ZM55.7,109.727c-.17-4.754,2.86-2.316,2.636-1.353C57.776,110.794,55.753,111.2,55.7,109.727Zm2.471,10.063c-.988,3.127-2.456.293-1.15-3.69C58.286,112.242,59.159,116.665,58.171,119.79Zm-.911-15.343c-.219-1.438-.486-5.24,1.1-11.19,1.066-3.991,2.285,4.16,2.868,9.681C61.844,108.748,57.484,105.9,57.26,104.447Zm4.089,24.408c-.172,2.031-1.519,3.6-1.445,1.157C60.042,125.35,61.52,126.822,61.349,128.855Zm.775-2.986c-1.811,1.13-2.416-10.138-2.581-12.609s5.454-7.586,9.334-12.244c2.2-2.636,3.515-3.24,4.546-1.9S63.936,124.737,62.124,125.869Z"/><path class="cls-86" d="M158.557,174.7l14.249,1.307s14.622-3.5,14.622-3.339-.327,1.485-.327,1.485l-14.295,5.818-14.622-3.4Z"/><path class="cls-87" d="M137.788,70.074c-9.419-.762-15.61-14.247-16.787-17.295-.109-.282-.593-.1-.521.19.657,2.74.617,8.237-3.385,7.66-3.149-.453-10.4-4.027-11.324-5.642,0,0,30.893,23.6,33.023,66.278l.587.644s-3-15.617.107-17.928c1.635-1.216,9.922,15.673,10.107,16.253-.055-.249,1.705-1.615,2.526-1.384a2.13,2.13,0,0,1,1.653,1.285,2.486,2.486,0,0,1-.234-.716c-.849-11.88,1.02-14.78,4.644-5.555.834,2.124,3.317,11.852,3.317,11.852a10.774,10.774,0,0,1,1.594,1.019s-.747-2.464-1.565-5.488c-1.377-5.09-.3-5.713,1.256-4.273,2.279,2.113,9,16.044,9.144,16.281l0,0,0-.009c-16.5-40.144-30.64-96.795-30.64-96.795S141.792,70.4,137.788,70.074Zm-.266,6.6c-6.477,4.361-21.619-17.883-12.33-12.612C132.493,68.2,140.59,74.605,137.522,76.672Zm15.169,27.309c1.157,3.833.768,14.621-2.06,13.961-2.413-.564-6.759-13.115-7.362-16.378C142.238,95.98,151.507,100.059,152.691,103.981Zm8.562,8.785c-6.985-10.592-22-31.152-22.412-35.911-.432-4.986,2.714-16.092,3.976-17.791C145.638,55.266,168.229,123.345,161.253,112.766ZM144.564,56.1c-1.535-5.444-.328-6.387,1.57.011C147.969,62.3,145.483,59.355,144.564,56.1Z"/><path class="cls-88" d="M98.9,27.819a21.964,21.964,0,0,1-3.148,6.164,6.444,6.444,0,0,1-2.331.946c-2.011.451-5.191-3.361-6.229-4.69a32.982,32.982,0,0,1-2.811-10.1l-.782-.251a64.65,64.65,0,0,0,3.251,9.906h0l1.08,3.553c.494,5.672.769,9.941.988,7.562.176-1.9.278-5.8.552-6.466.1.124.192.241.287.354.4,1.6.048,4.136.26,2.634a5.3,5.3,0,0,1,.476-1.849c1.911,1.791,3.631,1.5,4.857-.055.151.108.266.431.322,1.138.2,2.531,0,6.137.385,4.916.32-1.019.349-6.076.349-7.717A24.179,24.179,0,0,0,98.9,27.819Z"/><path class="cls-89" d="M142.318,31.77l-.843-.013s-5.3,11.115-16.914,12.346c-.594.063-1.151.106-1.678.132-3.52,1-5,.246-5.071.224-3.4-1.386-3.317-5.211-3.317-5.211l-.631.365c.344,2.727,3.722,5.163,3.722,5.163l.186.525c-.287,8.152-.221,8.951.464,5.637.491-2.374.838-4.948,1.127-5.7.1.015.2.029.307.041,0,.018.01.032.015.052.357,1.415.754,1.3,1,.469a1.616,1.616,0,0,1,.208-.454c.117,0,.235,0,.354,0a24.772,24.772,0,0,0,.1,2.726c.27,3.824.254-2.113.58-2.758l0,0q.511-.038,1.039-.113c.512.16,1.095.44,1.507.521.792.157,1.676,1.165,2.113.178a13.539,13.539,0,0,0,.559-1.76l.077-.026,0,.037c.313,6.623-.445,10.249-.138,9.541.359-.828.946-8.95.937-9.881C133.892,41.489,139.879,36.844,142.318,31.77Z"/><path class="cls-90" d="M52.5,73.513s-.076.165-.184.389c-.234.477-.626,1.228-.786,1.243-.237.022.589-1.7.589-1.7l-.139-.025a20.925,20.925,0,0,1-1.158,1.8l0,0v0c-1.728,2.388-3.583,3.711-5.008,3.6-1.931-.146-3.192-1.919-5.7-10.791l-.489.372h-.007l-.016,0v0c.053.137,2.883,7.405.85,7.095-1.826-.279-5.439-6.092-6.783-8.359-.329-.551-.522-.894-.522-.894l-1.689-.433s.124.216.349.594c1.325,2.21,6.183,9.957,10.565,12.3a6.051,6.051,0,0,0,7.33-.884c.27-.234.5-.458.677-.641a13.711,13.711,0,0,0,1.947-3c.193-.381.31-.633.31-.633ZM43,78.486c-1.222-.341-3.441-2.191-3.046-2.249s1.279-.672,1.83.01C42.813,77.524,44.139,78.807,43,78.486ZM51.3,75.742a3.216,3.216,0,0,1-1.239,1.4h0a1.226,1.226,0,0,1-.341.156c-.309.066-.344.046.084-.552a4.554,4.554,0,0,1,.77-.774C51.027,75.6,51.453,75.373,51.3,75.742Z"/><path class="cls-91" d="M106.236,19.957c-.276,2.021-3.464,4.363-3.464,4.363l1.3,5.342,0,.012s-.619,2.4-1.4,2.628c-3.306.964-9.353,2.69-13,2.226h0v0a2.6,2.6,0,0,1,0,.317c-.018.359-.114.9-.545,1.039a.461.461,0,0,1-.059.015c-3.2.707-14.343.723-16.384-.313a49.024,49.024,0,0,1-6.442-4.75s-1.68,2.063-2.5,2.25c-7.2,1.636-25.534-7.507-28.2-8.863a5.215,5.215,0,0,1-1.176-.811C30.3,19.641,44.717,11.566,48.005,11.384c3.576-.2,11,8.454,11.113,8.588-.982-2.287-1.539-5.542.661-5.838a48.926,48.926,0,0,1,8.152.742c.867.314,8.89,5.1,8.89,5.1l.943-1.138-5.492-6.2C71.489,8.318,92.574.056,97.7,0S106.543,17.7,106.236,19.957Z"/><g class="cls-92"><path class="cls-93" d="M89.14,35.887c.031-.035.041-.063.034-.083C89.073,35.95,89.028,36.012,89.14,35.887Z"/><path class="cls-93" d="M102.772,24.32l1.3,5.342c-.042-.148-4.234-5.045-6.214-5.14C76.346,23.491,72.183,29.3,72.183,29.3c.529,2.43,17.5,5.231,17.5,5.231h0v0a2.6,2.6,0,0,1,0,.317c-.018.359-.114.9-.545,1.039a.461.461,0,0,1-.059.015c-3.2.707-14.343.723-16.384-.313a49.024,49.024,0,0,1-6.442-4.75s-1.68,2.063-2.5,2.25c-7.2,1.636-25.534-7.507-28.2-8.863a5.215,5.215,0,0,1-1.176-.811c10.538,2.866,22.869,6.156,24.318,6.2,2.246.06,2.132-7.723,2.132-7.723A23.578,23.578,0,0,0,69.4,25.814c2.739.72-1.469-10.938-1.469-10.938,5.533,3.117,8.89,5.1,8.89,5.1l.943-1.138-5.492-6.2,9.8,8.931s12.7,1.266,24.162-1.615C105.96,21.978,102.772,24.32,102.772,24.32Z"/></g><path class="cls-94" d="M97.7,0C92.574.056,71.489,8.318,72.272,12.641l5.492,6.2-.943,1.138s-8.023-4.789-8.89-5.1a48.926,48.926,0,0,0-8.152-.742c-2.2.3-1.643,3.551-.661,5.838-.115-.134-7.537-8.785-11.113-8.588-3.288.182-17.7,8.257-13.623,12.031a5.215,5.215,0,0,0,1.176.811c2.662,1.356,20.991,10.5,28.2,8.863.821-.187,2.5-2.25,2.5-2.25a49.024,49.024,0,0,0,6.442,4.75c2.041,1.036,13.187,1.02,16.384.313l.03-.008c-.051.075-.056.088.029-.007h0c.431-.138.527-.68.545-1.039a2.6,2.6,0,0,0,0-.317v0h0c3.644.464,9.691-1.262,13-2.226.779-.225,1.4-2.628,1.4-2.628l0-.012-1.3-5.342s3.188-2.342,3.464-4.363C106.543,17.7,102.813-.056,97.7,0Z"/><path class="cls-95" d="M157.168,148.263c-2.412-7.658-5.745-14.987-7.15-16.539-1.393-1.537-5.231-1.517-14.547-9.594-6.406-6.842-11.419-14.43-12.611-14.7s-14.453,11.3-14.453,11.3l1.5,8.212c.558.028,8.805-7.757,12.132-8.332a41.617,41.617,0,0,0,3.905,4.5c5.379,5.636,9.18,9.1,12.2,9.1,1.837,0,7.024,2.883,7.024,2.883-.069,2.348,5.729,8.675,8.139,12.99,1.681,3.011,2.733,7.578,3.234,10.186a.432.432,0,0,0,.847.007A20.908,20.908,0,0,0,157.168,148.263Z"/><path class="cls-96" d="M129.611,149.066c-.1-5.726-.2-10.335-.812-12.759s-4.405-9.141-5.729-19.484c-.538-4.193-4.362-18.418-5.595-19.272S105.682,109.3,105.682,109.3l2.7,9.568c.325-.361,4.286-7.1,5.75-9.69,0,0,3.109,6.758,3.474,13.126.263,4.6,5.887,15.032,5.887,15.032-.113,1.865.038,8.222.461,9.271s1.857,9.2.776,14.592a13.06,13.06,0,0,1-.7,2.3c-.249.616,1.092.349,1.547-.136a20.81,20.81,0,0,0,3.126-6.369A25.981,25.981,0,0,0,129.611,149.066Z"/><path class="cls-97" d="M117.6,99.131c-4.444,2.731-3.034,3.488-1.309,10.223s5.725,22.76,7.487,25.108,1.807-4.873.523-8.257-2.074-9.7-3.758-16.936S118.886,98.341,117.6,99.131Z"/><path class="cls-98" d="M127.716,136.943c-4.53,3.995-2.768,8.22-2.524,10.943.6,6.718.655,10.176,1.537,10.4s2.871-5.31,2.874-9.683S129.1,135.724,127.716,136.943Z"/><path class="cls-99" d="M124.145,134.936c1.938,3.176,3.988.251,1.047-6.759s-2.4-14.654-4.525-11.2S120.686,129.266,124.145,134.936Z"/><path class="cls-100" d="M127.851,114.743c-1.331,6.654,13.437,16.22,15.338,16.577s6.538.117,5.056-.624-9.933-5.105-13.228-8.182S128.263,112.684,127.851,114.743Z"/><path class="cls-101" d="M149.567,131.331c-2.113,2.438,1.886,7.189,4.375,11.444a46.511,46.511,0,0,1,3.883,8.9,66.217,66.217,0,0,0-4.15-12.908C150.337,130.721,149.567,131.331,149.567,131.331Z"/><path class="cls-102" d="M114.133,109.173c-1.876-4.2,1.166-10.3,1.166-10.3-5.2,5.1-9.617,10.418-9.617,10.418l2.7,9.568Z"/><path class="cls-103" d="M117.6,99.131c-2.7,2.381,1.946,5.348,1.946,5.348s-.627-3.47-.856-4.263A1.818,1.818,0,0,0,117.6,99.131Z"/><path class="cls-104" d="M83.223,144.883c-.646,4.711-4.163,8.737-14.2,6.138-.053-.013-.106-.026-.16-.041q-.362-.1-.71-.2c-12.88-3.721-13.164-12.841-7.33-15.864,1.319-.683-.994.87-1.1,4.5-.165,5.683,2.1,7.23,10.593,8.989.122.023.244.05.368.074.332.068.654.122.965.165a10.294,10.294,0,0,0,3.184-.008c8.027-1.385,5.845-13.811,5.845-13.811a8.2,8.2,0,0,1,2.043,3.93,16.963,16.963,0,0,1,.424,1.962A14.469,14.469,0,0,1,83.223,144.883Z"/><path class="cls-105" d="M70.316,148.413l-1.294,2.608c10.038,2.6,13.555-1.427,14.2-6.138l-.175-2.128c-.038.359-.089.731-.155,1.113-.729,4.252-6.931,8.68-8.056,4.778l0,0Z"/><path class="cls-106" d="M71.648,148.652a8.657,8.657,0,0,1-3.5,2.132c-12.88-3.722-13.163-12.841-7.33-15.864,1.319-.683-.993.87-1.1,4.5-.166,5.764,2.163,7.273,10.961,9.063C71.016,148.555,71.337,148.609,71.648,148.652Z"/><path class="cls-107" d="M73.794,147.88l0,.006c-1.462,3.644-5.064,6.191-12.587,3.949q-.613-.183-1.185-.386c-.578-.2-1.125-.42-1.639-.649-8.984-4-8.411-11.623-3.322-14.29,1.237-.647-2.847,1.72-1.567,6.306.888,3.179,1.768,4.8,9.049,6.543l.463.109a10.977,10.977,0,0,0,1.867.275,7.366,7.366,0,0,0,2.2-.19c6.731-1.662,5.832-13.1,5.832-13.1C74.232,137.643,75.533,143.537,73.794,147.88Z"/><path class="cls-105" d="M73.791,147.886c-1.462,3.644-5.064,6.191-12.587,3.949q-.613-.183-1.185-.386l-.115-1.28,4.966-.426,2.2-.19C66.49,152.675,72.606,150.143,73.791,147.886Z"/><path class="cls-108" d="M62.539,149.359c-.02.841-2.875,1.013-4.159,1.441-8.985-4-8.412-11.623-3.323-14.29,1.237-.648-2.847,1.72-1.567,6.306C54.378,146,55.258,147.614,62.539,149.359Z"/><path class="cls-109" d="M54.884,152.89q-.6-.2-1.148-.433c-9.352-3.942-8.215-14.339-3.128-17.026a10.237,10.237,0,0,1,3.251-.764s-4.405,2.764-4.569,7.5c-.092,2.657.853,5.11,4.541,7.164a21.1,21.1,0,0,0,2.834,1.289c.173.065.344.123.51.176h0c9.025,2.823,9.31-12.724,9.31-12.724C68.538,140.241,69.369,157.75,54.884,152.89Z"/><path class="cls-110" d="M57.175,150.792a10.96,10.96,0,0,0-3.439,1.665c-9.352-3.942-8.215-14.339-3.128-17.026a10.237,10.237,0,0,1,3.251-.764s-4.405,2.764-4.569,7.5c-.092,2.657.853,5.11,4.541,7.164C55.391,150.1,57.114,150.79,57.175,150.792Z"/><path class="cls-111" d="M63.877,149.146l-2.676,1.86c-7.063,1.985-11.911,3.405-11.911,3.405-2.5-.656-1.794-1.682-1.76-1.731l0,0c7.818-3.087,10.936-3.209,13.855-3.347C62.2,149.291,63,149.252,63.877,149.146Z"/><path class="cls-112" d="M63.232,149.214,61.2,151.006c-7.063,1.985-11.911,3.405-11.911,3.405-2.5-.656-1.794-1.682-1.76-1.731l0,0c2.334.84,14.192-2.725,13.865-3.319a.137.137,0,0,1-.01-.028C62.2,149.291,62.354,149.319,63.232,149.214Z"/><path class="cls-110" d="M61.2,151.006c-2.247,1.043-.929,2.733-.929,2.733a12.833,12.833,0,0,1-5.388-.849Z"/><path class="cls-113" d="M159.03,43.984a1.963,1.963,0,0,1-.72.161c-2.931.223-11.322-2.349-12.922-4.107-1.737-1.907,2.707-5.791,2.853-5.919-.126.076-3.238,1.878-11.018,0a18.347,18.347,0,0,1-4.576-4h0a6.4,6.4,0,0,1-1.53-4.053c.181-4.338,23.665-11.274,25.668-9.795,1.332.981.9,7.1.451,11.094h0a.285.285,0,0,1,0,.042v0c-.2,1.746-.389,3.077-.436,3.384l-.009.066C161.958,34.522,160.878,43.06,159.03,43.984Z"/><path class="cls-114" d="M159.03,43.984l-.72.161c-2.931.223-11.322-2.349-12.922-4.107-1.737-1.907,2.707-5.791,2.853-5.919-.126.076-3.238,1.878-11.018,0,0,0,5.36.615,8.106-.544,8.178-3.45,12.108-13.222,12.343-13.292l-.438,7.076-.006.042v0l-.436,3.384-.009.066s-7.6,4.841-6.091,6.478S159.03,43.984,159.03,43.984Z"/><path class="cls-115" d="M156.783,30.853l.009-.066c.047-.307.241-1.638.436-3.384v0l.006-.042c.444-4,.881-10.113-.451-11.094-2-1.479-25.487,5.457-25.668,9.795a6.4,6.4,0,0,0,1.53,4.053h0a18.347,18.347,0,0,0,4.576,4c7.78,1.88,10.892.078,11.018,0-.146.128-4.59,4.012-2.853,5.919,1.6,1.758,9.991,4.33,12.922,4.107a1.963,1.963,0,0,0,.72-.161C160.878,43.06,161.958,34.522,156.783,30.853Z"/></g></g></g></g></svg>