<svg xmlns="http://www.w3.org/2000/svg" xmlns:xlink="http://www.w3.org/1999/xlink" viewBox="0 0 214.596 267.495"><defs><style>.cls-1{isolation:isolate;}.cls-2,.cls-3,.cls-75{opacity:0.3;}.cls-10,.cls-2,.cls-3,.cls-46,.cls-71,.cls-75{mix-blend-mode:screen;}.cls-2{fill:url(#radial-gradient);}.cls-3{fill:url(#radial-gradient-2);}.cls-4,.cls-47,.cls-48,.cls-49,.cls-5,.cls-50,.cls-53,.cls-54,.cls-55,.cls-56,.cls-57,.cls-58,.cls-59,.cls-6,.cls-60,.cls-61,.cls-62,.cls-63,.cls-64,.cls-65,.cls-66,.cls-67,.cls-68,.cls-69,.cls-7,.cls-70,.cls-71,.cls-75,.cls-8,.cls-9{fill-rule:evenodd;}.cls-4{fill:url(#_11);}.cls-13,.cls-21,.cls-22,.cls-24,.cls-25,.cls-26,.cls-27,.cls-28,.cls-29,.cls-30,.cls-32,.cls-33,.cls-36,.cls-40,.cls-43,.cls-48,.cls-49,.cls-5,.cls-50,.cls-54,.cls-55,.cls-56,.cls-57,.cls-58,.cls-6,.cls-63,.cls-64,.cls-65,.cls-66,.cls-67,.cls-68,.cls-7,.cls-74,.cls-8,.cls-9{opacity:0.5;}.cls-13,.cls-21,.cls-22,.cls-24,.cls-25,.cls-26,.cls-27,.cls-28,.cls-29,.cls-30,.cls-32,.cls-33,.cls-40,.cls-43,.cls-48,.cls-49,.cls-5,.cls-50,.cls-54,.cls-55,.cls-56,.cls-57,.cls-58,.cls-6,.cls-63,.cls-64,.cls-65,.cls-66,.cls-67,.cls-68,.cls-7,.cls-74,.cls-9{mix-blend-mode:multiply;}.cls-5{fill:url(#_13);}.cls-6{fill:url(#_13-2);}.cls-7{fill:url(#_13-3);}.cls-8{fill:#e05d6c;}.cls-23,.cls-41,.cls-8{mix-blend-mode:soft-light;}.cls-9{fill:url(#_517);}.cls-10{fill:url(#radial-gradient-3);}.cls-11{fill:url(#_500);}.cls-12{fill:url(#_500-2);}.cls-13{fill:url(#_329);}.cls-14{fill:#fdba45;}.cls-15{fill:url(#_64);}.cls-16{fill:url(#_64-2);}.cls-17{fill:url(#_64-3);}.cls-18{fill:url(#_64-4);}.cls-19{fill:url(#_64-5);}.cls-20{fill:url(#_64-6);}.cls-21{fill:url(#_329-2);}.cls-22{fill:url(#_551);}.cls-23,.cls-34{fill:#fcd719;}.cls-24{fill:url(#_329-3);}.cls-25{fill:url(#_329-4);}.cls-26{fill:url(#_329-5);}.cls-27{fill:url(#_329-6);}.cls-28{fill:url(#_329-7);}.cls-29{fill:url(#_329-8);}.cls-30{fill:url(#_329-9);}.cls-31,.cls-35{opacity:0.54;}.cls-31{fill:url(#_64-7);}.cls-32{fill:url(#_329-10);}.cls-33{fill:url(#_329-11);}.cls-35{fill:url(#_64-8);}.cls-36{mix-blend-mode:color-dodge;fill:url(#_333);}.cls-37{fill:url(#_11-2);}.cls-38{fill:url(#_60);}.cls-39{fill:url(#_61);}.cls-40{fill:url(#_355);}.cls-41{fill:#eba249;}.cls-41,.cls-71{opacity:0.6;}.cls-42{fill:url(#_60-2);}.cls-43{fill:url(#_355-2);}.cls-44{fill:url(#_61-2);}.cls-45{fill:#d65429;}.cls-46{fill:url(#linear-gradient);}.cls-47{fill:url(#_11-3);}.cls-48{fill:url(#_13-4);}.cls-49{fill:url(#_13-5);}.cls-50{fill:url(#_13-6);}.cls-51{fill:url(#_64-9);}.cls-52{fill:url(#_64-10);}.cls-53{fill:url(#_11-4);}.cls-54{fill:url(#_13-7);}.cls-55{fill:url(#_13-8);}.cls-56{fill:url(#_13-9);}.cls-57{fill:url(#_13-10);}.cls-58{fill:url(#_13-11);}.cls-59{fill:url(#_11-5);}.cls-60{fill:url(#_10);}.cls-61{fill:url(#_10-2);}.cls-62{fill:url(#_10-3);}.cls-63{fill:url(#_13-12);}.cls-64{fill:url(#_13-13);}.cls-65{fill:url(#_13-14);}.cls-66{fill:url(#_13-15);}.cls-67{fill:url(#_13-16);}.cls-68{fill:url(#_13-17);}.cls-69{fill:url(#_13-18);}.cls-70{fill:url(#_13-19);}.cls-71{fill:url(#_44);}.cls-72{fill:url(#_60-3);}.cls-73{fill:url(#_61-3);}.cls-74{fill:url(#_355-3);}.cls-75{fill:url(#radial-gradient-4);}</style><radialGradient id="radial-gradient" cx="106.741" cy="415.658" r="106.742" gradientTransform="translate(0 -210.867) scale(1 0.916)" gradientUnits="userSpaceOnUse"><stop offset="0" stop-color="#173cff"/><stop offset="0.249" stop-color="#122ec4" stop-opacity="0.767"/><stop offset="0.82" stop-color="#040b30" stop-opacity="0.188"/><stop offset="1" stop-opacity="0"/></radialGradient><radialGradient id="radial-gradient-2" cx="107.855" cy="106.741" r="106.741" gradientUnits="userSpaceOnUse"><stop offset="0" stop-color="#e54136"/><stop offset="0.276" stop-color="#aa3028" stop-opacity="0.741"/><stop offset="0.909" stop-color="#160605" stop-opacity="0.095"/><stop offset="1" stop-opacity="0"/></radialGradient><linearGradient id="_11" x1="127.416" y1="131.897" x2="190.189" y2="91.443" gradientUnits="userSpaceOnUse"><stop offset="0" stop-color="#9b1f27"/><stop offset="1" stop-color="#3d003e"/></linearGradient><linearGradient id="_13" x1="-533.212" y1="175.317" x2="-535.113" y2="245.343" gradientTransform="matrix(0.85, 0.005, 0.116, 0.986, 590.864, -59.493)" gradientUnits="userSpaceOnUse"><stop offset="0" stop-color="#3445a1"/><stop offset="1" stop-color="#191e84"/></linearGradient><linearGradient id="_13-2" x1="-546.509" y1="173.114" x2="-548.475" y2="245.536" xlink:href="#_13"/><linearGradient id="_13-3" x1="-556.305" y1="167.186" x2="-558.481" y2="247.334" xlink:href="#_13"/><linearGradient id="_517" x1="130.603" y1="159.964" x2="130.603" y2="87.385" gradientUnits="userSpaceOnUse"><stop offset="0" stop-color="#fff"/><stop offset="1" stop-color="#191e84"/></linearGradient><radialGradient id="radial-gradient-3" cx="135.337" cy="-103.679" r="53.398" gradientTransform="translate(-41.476 197.583) scale(1.087 1.044)" gradientUnits="userSpaceOnUse"><stop offset="0" stop-color="#fd3800"/><stop offset="0.117" stop-color="#d12e00" stop-opacity="0.824"/><stop offset="0.299" stop-color="#922000" stop-opacity="0.577"/><stop offset="0.473" stop-color="#5e1500" stop-opacity="0.371"/><stop offset="0.635" stop-color="#350c00" stop-opacity="0.21"/><stop offset="0.782" stop-color="#180500" stop-opacity="0.095"/><stop offset="0.908" stop-color="#060100" stop-opacity="0.025"/><stop offset="1" stop-opacity="0"/></radialGradient><linearGradient id="_500" x1="88.982" y1="52.572" x2="87.317" y2="70.508" gradientUnits="userSpaceOnUse"><stop offset="0" stop-color="#fda902"/><stop offset="0.132" stop-color="#fda402"/><stop offset="0.298" stop-color="#fd9402"/><stop offset="0.482" stop-color="#fd7a01"/><stop offset="0.679" stop-color="#fd5601"/><stop offset="0.885" stop-color="#fd2900"/><stop offset="1" stop-color="#fd0c00"/></linearGradient><linearGradient id="_500-2" x1="103.535" y1="62.664" x2="103.535" y2="109.786" xlink:href="#_500"/><linearGradient id="_329" x1="102.226" y1="100.543" x2="104.587" y2="61.926" gradientUnits="userSpaceOnUse"><stop offset="0" stop-color="#fff"/><stop offset="0.996" stop-color="#e75a29"/></linearGradient><linearGradient id="_64" x1="104.624" y1="136.166" x2="102.729" y2="126.828" gradientUnits="userSpaceOnUse"><stop offset="0" stop-color="#fda902"/><stop offset="0.994" stop-color="#fd0c00"/></linearGradient><linearGradient id="_64-2" x1="105.714" y1="134.362" x2="105.714" y2="119.13" xlink:href="#_64"/><linearGradient id="_64-3" x1="94.911" y1="44.621" x2="97.5" y2="62.742" xlink:href="#_64"/><linearGradient id="_64-4" x1="93.796" y1="44.186" x2="96.6" y2="63.811" xlink:href="#_64"/><linearGradient id="_64-5" x1="94.277" y1="44.711" x2="96.865" y2="62.832" xlink:href="#_64"/><linearGradient id="_64-6" x1="112.784" y1="110.042" x2="112.784" y2="107.728" xlink:href="#_64"/><linearGradient id="_329-2" x1="99.301" y1="107.538" x2="100.366" y2="90.128" xlink:href="#_329"/><linearGradient id="_551" x1="98.364" y1="95.426" x2="98.201" y2="104.299" gradientUnits="userSpaceOnUse"><stop offset="0" stop-color="#f70715"/><stop offset="1" stop-color="#d01c5c"/></linearGradient><linearGradient id="_329-3" x1="107.451" y1="55.648" x2="101.904" y2="65.571" xlink:href="#_329"/><linearGradient id="_329-4" x1="89.11" y1="71.956" x2="91.976" y2="61.14" xlink:href="#_329"/><linearGradient id="_329-5" x1="112.68" y1="59.292" x2="107.009" y2="69.437" xlink:href="#_329"/><linearGradient id="_329-6" x1="100.489" y1="82.507" x2="93.298" y2="95.37" xlink:href="#_329"/><linearGradient id="_329-7" x1="111.85" y1="87.406" x2="105.624" y2="98.545" xlink:href="#_329"/><linearGradient id="_329-8" x1="91.51" y1="84.413" x2="96.317" y2="104.568" xlink:href="#_329"/><linearGradient id="_329-9" x1="101.471" y1="74.866" x2="103.278" y2="82.441" xlink:href="#_329"/><linearGradient id="_64-7" x1="100.551" y1="118.76" x2="110.979" y2="118.76" xlink:href="#_64"/><linearGradient id="_329-10" x1="100.808" y1="117.997" x2="110.035" y2="117.997" xlink:href="#_329"/><linearGradient id="_329-11" x1="101.942" y1="129.401" x2="104.881" y2="129.401" xlink:href="#_329"/><linearGradient id="_64-8" x1="100.863" y1="115.17" x2="110.494" y2="115.17" xlink:href="#_64"/><radialGradient id="_333" cx="90.543" cy="-1095.92" r="20.764" gradientTransform="translate(18.369 1545.08) scale(0.953 1.335)" gradientUnits="userSpaceOnUse"><stop offset="0" stop-color="#efe332"/><stop offset="0.084" stop-color="#d1c62c"/><stop offset="0.273" stop-color="#928b1f"/><stop offset="0.454" stop-color="#5e5914"/><stop offset="0.621" stop-color="#35330b"/><stop offset="0.773" stop-color="#181705"/><stop offset="0.905" stop-color="#060601"/><stop offset="1"/></radialGradient><linearGradient id="_11-2" x1="85.616" y1="153.372" x2="87.624" y2="144.043" xlink:href="#_11"/><linearGradient id="_60" x1="96.545" y1="149.068" x2="96.322" y2="143.087" gradientUnits="userSpaceOnUse"><stop offset="0" stop-color="#b61922"/><stop offset="1" stop-color="#45003d"/></linearGradient><linearGradient id="_61" x1="91.189" y1="178.06" x2="91.189" y2="138.59" gradientUnits="userSpaceOnUse"><stop offset="0" stop-color="#8d092d"/><stop offset="1" stop-color="#fd5925"/></linearGradient><linearGradient id="_355" x1="101.941" y1="145.429" x2="87.39" y2="149.713" gradientUnits="userSpaceOnUse"><stop offset="0" stop-color="#f70715"/><stop offset="1" stop-color="#882785"/></linearGradient><linearGradient id="_60-2" x1="75.909" y1="155.584" x2="127.506" y2="155.584" xlink:href="#_60"/><linearGradient id="_355-2" x1="125.111" y1="154.121" x2="87.083" y2="158.897" xlink:href="#_355"/><linearGradient id="_61-2" x1="101.708" y1="178.06" x2="101.708" y2="138.59" xlink:href="#_61"/><linearGradient id="linear-gradient" x1="105.97" y1="209.693" x2="101.959" y2="65.277" gradientUnits="userSpaceOnUse"><stop offset="0" stop-color="#900"/><stop offset="0.076" stop-color="#8d0000" stop-opacity="0.919"/><stop offset="0.714" stop-color="#280000" stop-opacity="0.262"/><stop offset="1" stop-opacity="0"/></linearGradient><linearGradient id="_11-3" x1="60.124" y1="878.571" x2="15.768" y2="829.626" gradientTransform="matrix(0.817, 0.001, 0.001, 0.848, 22.424, -587.775)" xlink:href="#_11"/><linearGradient id="_13-4" x1="-81.313" y1="784.895" x2="-83.148" y2="852.502" gradientTransform="matrix(0.817, -0.022, 0.022, 0.847, 112.974, -544.753)" xlink:href="#_13"/><linearGradient id="_13-5" x1="-103.779" y1="784.282" x2="-105.615" y2="851.891" gradientTransform="matrix(0.817, -0.022, 0.022, 0.847, 112.974, -544.753)" xlink:href="#_13"/><linearGradient id="_13-6" x1="-92.875" y1="784.58" x2="-94.711" y2="852.187" gradientTransform="matrix(0.817, -0.022, 0.022, 0.847, 112.974, -544.753)" xlink:href="#_13"/><linearGradient id="_64-9" x1="139.697" y1="137.644" x2="153.053" y2="178.751" xlink:href="#_64"/><linearGradient id="_64-10" x1="89.256" y1="178.034" x2="70.847" y2="140.729" xlink:href="#_64"/><linearGradient id="_11-4" x1="46.275" y1="208.309" x2="188.224" y2="208.309" xlink:href="#_11"/><linearGradient id="_13-7" x1="110.502" y1="250.835" x2="115.781" y2="193.227" gradientTransform="matrix(1, 0, 0, 1, 0, 0)" xlink:href="#_13"/><linearGradient id="_13-8" x1="111.792" y1="236.761" x2="116.076" y2="190.006" gradientTransform="matrix(1, 0, 0, 1, 0, 0)" xlink:href="#_13"/><linearGradient id="_13-9" x1="67.771" y1="194.252" x2="88.108" y2="194.252" gradientTransform="matrix(1, 0, 0, 1, 0, 0)" xlink:href="#_13"/><linearGradient id="_13-10" x1="96.961" y1="202.358" x2="119.726" y2="202.358" gradientTransform="matrix(1, 0, 0, 1, 0, 0)" xlink:href="#_13"/><linearGradient id="_13-11" x1="126.451" y1="206.532" x2="178.263" y2="206.532" gradientTransform="matrix(1, 0, 0, 1, 0, 0)" xlink:href="#_13"/><linearGradient id="_11-5" x1="26.5" y1="174.123" x2="193.623" y2="174.123" xlink:href="#_11"/><linearGradient id="_10" x1="56.166" y1="214.683" x2="56.166" y2="121.984" gradientUnits="userSpaceOnUse"><stop offset="0" stop-color="#791130"/><stop offset="1" stop-color="#dd592d"/></linearGradient><linearGradient id="_10-2" x1="162.502" y1="214.683" x2="162.502" y2="121.985" xlink:href="#_10"/><linearGradient id="_10-3" x1="120.289" y1="236.366" x2="120.289" y2="97.84" xlink:href="#_10"/><linearGradient id="_13-12" x1="28.856" y1="174.123" x2="193.623" y2="174.123" gradientTransform="matrix(1, 0, 0, 1, 0, 0)" xlink:href="#_13"/><linearGradient id="_13-13" x1="34.439" y1="181.669" x2="88.858" y2="181.669" gradientTransform="matrix(1, 0, 0, 1, 0, 0)" xlink:href="#_13"/><linearGradient id="_13-14" x1="150.673" y1="181.179" x2="191.308" y2="181.179" gradientTransform="matrix(1, 0, 0, 1, 0, 0)" xlink:href="#_13"/><linearGradient id="_13-15" x1="112.454" y1="207.017" x2="114.692" y2="185.381" gradientTransform="matrix(1, 0, 0, 1, 0, 0)" xlink:href="#_13"/><linearGradient id="_13-16" x1="125.457" y1="171.067" x2="125.465" y2="170.989" gradientTransform="matrix(1, 0, 0, 1, 0, 0)" xlink:href="#_13"/><linearGradient id="_13-17" x1="129.047" y1="195.96" x2="130.96" y2="177.474" gradientTransform="matrix(1, 0, 0, 1, 0, 0)" xlink:href="#_13"/><linearGradient id="_13-18" x1="126.584" y1="170.958" x2="126.585" y2="170.949" gradientTransform="matrix(1, 0, 0, 1, 0, 0)" xlink:href="#_13"/><linearGradient id="_13-19" x1="126.018" y1="171.951" x2="126.082" y2="171.331" gradientTransform="matrix(1, 0, 0, 1, 0, 0)" xlink:href="#_13"/><linearGradient id="_44" x1="110.061" y1="243.631" x2="110.061" y2="194.816" gradientUnits="userSpaceOnUse"><stop offset="0" stop-color="#3d56fd"/><stop offset="1"/></linearGradient><linearGradient id="_60-3" x1="96.385" y1="161.962" x2="131.511" y2="161.962" xlink:href="#_60"/><linearGradient id="_61-3" x1="114.135" y1="178.06" x2="114.135" y2="138.59" xlink:href="#_61"/><linearGradient id="_355-3" x1="130.843" y1="162.139" x2="124.013" y2="162.496" xlink:href="#_355"/><radialGradient id="radial-gradient-4" cx="171.752" cy="58225.868" r="40.944" gradientTransform="translate(-303.997 -4413.01) scale(2.369 0.077)" gradientUnits="userSpaceOnUse"><stop offset="0" stop-color="#e54136"/><stop offset="0.154" stop-color="#bb352c" stop-opacity="0.814"/><stop offset="0.461" stop-color="#6b1e19" stop-opacity="0.469"/><stop offset="0.715" stop-color="#310e0c" stop-opacity="0.216"/><stop offset="0.901" stop-color="#0e0403" stop-opacity="0.059"/><stop offset="1" stop-opacity="0"/></radialGradient></defs><title>island-4</title><g class="cls-1"><g id="Layer_2" data-name="Layer 2"><g id="islands"><g id="island-4"><ellipse class="cls-2" cx="106.741" cy="169.752" rx="106.741" ry="97.744"/><circle class="cls-3" cx="107.855" cy="106.741" r="106.741"/><polygon class="cls-4" points="141.703 64.542 137.225 64.527 135.155 66.308 135.33 76.915 131.692 77.056 128.708 77.957 129.87 93.858 125.182 95.938 125.115 110.608 119.726 113.536 121.475 123.013 119.726 126.864 128.62 158.688 174.665 161.659 178.916 159.756 169.936 126.84 164.713 106.788 158.749 95.814 152.463 76.674 148.777 75.331 141.703 64.542"/><polygon class="cls-5" points="137.225 64.527 145.291 77.725 150.218 80.029 157.249 99.122 159.132 105.86 158.456 100.4 162.791 108.845 167.283 132.304 174.665 161.659 178.916 159.756 164.713 106.788 158.439 94.868 152.463 76.674 148.777 75.331 141.703 64.542 137.225 64.527"/><polygon class="cls-6" points="166.101 160.775 163.226 160.921 155.844 125.751 152.21 120.222 150.063 96.944 140.029 87.534 137.715 78.419 128.708 77.957 131.692 77.056 139.444 76.755 143.085 87.512 152.735 95.953 153.851 118.34 158.188 125.225 166.101 160.775"/><polygon class="cls-7" points="119.726 113.536 141.704 113.291 143.958 115.239 154.315 160.346 161.53 160.811 146.122 114.178 143.381 112.391 125.115 110.608 119.726 113.536"/><path class="cls-8" d="M130.6,96.639c.409,6.414.27,12.187,1.812,12.934s8.223,2.278,8.223-.81a92.436,92.436,0,0,0-4.858-27.779c-.554-1.041-5.842-1.337-6.023-.689C129.445,81.394,130.205,90.477,130.6,96.639Z"/><path class="cls-8" d="M121.063,116.272c.695,2.625.943,5.261,2.19,5.905s10.1,7.518,11.084,7.727,2.952-9.514,1.443-11.616-8-4.055-11.478-4.11S120.662,114.76,121.063,116.272Z"/><path class="cls-8" d="M122.006,125.537c.541,2.6,2.624,12.257,3.411,12.883s10.248,2.23,9.847.541-5.19-9.111-7.551-10.36S121.736,124.234,122.006,125.537Z"/><path class="cls-8" d="M143.454,111.533c2.048,1.6,5.872,3.987,6.609,2.645s.162-16.975-1.477-16.778-6.107.776-6.881,2.156S142.3,110.635,143.454,111.533Z"/><path class="cls-8" d="M140.073,92.036c.236,2.17.193,4.879,1.111,5.3s6.706-1.257,6.206-2.16S139.626,87.925,140.073,92.036Z"/><path class="cls-8" d="M139.444,116.812c-1.333,3.194-2.633,37.623-1.8,39.207s13.67,1.491,13.875,0S142.927,108.468,139.444,116.812Z"/><path class="cls-9" d="M129.1,83.4c11.915,5.657,12.374,28.836,12.374,28.836l-5.149-.531-6.593,1.721s4.407,17.418-7.629,21.483l-2.382-8.043,1.749-3.851-1.749-9.477,5.389-2.928.067-14.67,4.688-2.08Z"/><ellipse class="cls-10" cx="105.676" cy="89.384" rx="58.057" ry="55.728"/><path class="cls-11" d="M91.383,55.914c-.935-2.578-3.438-6.163-4.065-5.931-.909.338-3.057,10.033.452,10.4C89.2,60.534,91.992,57.593,91.383,55.914Z"/><path class="cls-12" d="M120.1,66.123c1.176,4.447.972,12.218-.37,24.161-.344,3.062-.42,7.792-4.909,10.354-15.959,9.109-11.382,13.537-17.189,10.788-7.81-3.7-10.383-11.736-10.779-17.934-.871-13.62-1.9-28.892,4.525-32.9C96.182,57.6,116.543,52.686,120.1,66.123Z"/><path class="cls-13" d="M118.705,82.6q-.8,3.645-1.628,7.086c-1.08,4.5-.442,6.758-5.941,9.994-3.893,2.291-15.65,8.987-17.6,8.044C87.975,105.045,86.81,92.359,86.8,91.8c-.535-19.46,9.407-29.99,9.407-29.99C92.644,77.833,127.362,43.073,118.705,82.6Z"/><path class="cls-14" d="M101.784,80.729s1.3.341,2.55,2.829c1.233,2.457.407,3.653-.694,4.417-1.731,1.2-8.232,1.41-8.923-.662-.7-2.095-1.452-18.336,1.164-19.251,2.632-.921,17.335-1.516,18.372,2.681,1.016,4.113-.21,21.1-2.319,21.9s-10.188-.043-15.24-1.956c0,0,4.907.686,7.636-.029,2.961-.776,3.869-4.329,3.869-8.726,0-8.154-5.914-9.432-8.32-9.581s-2.715,3.191-2.65,5.906c.064,2.676,2.259,5.794,3.743,5.621S101.784,80.729,101.784,80.729Z"/><path class="cls-15" d="M102.147,127.863c-1.09,2.943.791,7.183,1.674,7.189s1.689-5.379.933-6S103.157,125.135,102.147,127.863Z"/><path class="cls-16" d="M103.222,114.8c-1.173.826-5.094,4.355-1.344,8.117,2.219,2.226,3.819,5.626,5.55,6.074,3.963,1.029,3.361-7.888,3.668-10.08.318-2.267-1.318-12.247-3.44-9.155A19.514,19.514,0,0,1,103.222,114.8Z"/><path class="cls-17" d="M94.269,40.608c-2.416,2.765-3.4-6.412.424-6.966C95.8,33.482,95.952,38.681,94.269,40.608Z"/><path class="cls-18" d="M92.812,52.031c-3.619,1.39-4.264-8.888-1.461-8.343.876.17,2.606-1.754,4.179-1.14C98.989,43.9,101.682,48.626,92.812,52.031Z"/><path class="cls-19" d="M91.148,30.436c0,1.975,1.436,2.057,2.123.329C93.833,29.354,91.148,28.967,91.148,30.436Z"/><path class="cls-20" d="M111.314,108.114c.038.438,2.336,2.3,2.894,0S111.078,105.357,111.314,108.114Z"/><path class="cls-21" d="M101.494,110.232c-5.581,4.47-16.847-10.919-13.889-18.407s10.44,6.841,18.071,6.009,8.466,2.4,5.46,4.345S103.917,108.29,101.494,110.232Z"/><path class="cls-22" d="M105.676,101.541c-10.327,2.786-17.423-6.7-17.238-2.444s8.826,14.4,12.758,10.972S111.7,99.916,105.676,101.541Z"/><path class="cls-23" d="M95.7,68.665c-1.277,2.784-1.2,5.27-.647,5.779s5.547-4.808,4.576-5.917S96.053,67.884,95.7,68.665Z"/><path class="cls-23" d="M104.986,69.128c-.443,1.508,6.476,9.522,7.768,8.459s2.171-5.963.322-7.35S105.449,67.556,104.986,69.128Z"/><path class="cls-23" d="M106.312,91.27c-.588,2.025,6.1.231,6.471-1.387s-1.782-7.119-2.878-6.425S106.728,89.837,106.312,91.27Z"/><path class="cls-23" d="M95.279,87.2c1.9,3.11,7.627,1.017,7.674,0s-5.964-6.19-7.212-5.175S94.541,86,95.279,87.2Z"/><path class="cls-24" d="M98.361,58.973c-2.121,3.534-2.494,7.628.494,7.119S115.233,59.9,112.229,58.6,99.609,56.893,98.361,58.973Z"/><path class="cls-25" d="M94.757,60.853c-.221-1.507-4.209-.471-5.656,2.107-1.745,3.107-2.5,8.653-1.9,8.987S95.1,63.19,94.757,60.853Z"/><path class="cls-26" d="M119.726,66.863c-2.564-7.3-11.732-9.7-17.729-8.494-7.161,1.435-12.388,11.247,2.969,7.766,9.283-2.1,10.357,3.579,10.9,9.48S121.782,72.718,119.726,66.863Z"/><path class="cls-27" d="M86.775,82.027c-1.361,6.229.344,19.534,17.133,19.514,2.228,0-3.2-1.2-5.053-2.875-3.916-3.55-6.1-11.245-6.35-17.134S88.083,76.041,86.775,82.027Z"/><path class="cls-28" d="M98.546,92.934c-4.459,1.449,4.889,12.019,15.285,6.718,6.289-3.206,5.424-9.638,2.959-8.64s-1.726,4.511-7.89,3.4S101.011,92.133,98.546,92.934Z"/><path class="cls-29" d="M87.76,83.073c-.4,5.444-2.158,23.668,11.989,27.921,1.788.537,6.526-3.576.187-9.726-3.33-3.231-5.884-2.787-8.232-12.429C89.734,80.745,88.075,78.755,87.76,83.073Z"/><path class="cls-30" d="M107.436,83.4c.646-4.824-4.483-12.791-8.875-8.92-1.7,1.5-1.156,5.688,2.08,5.235C105.849,78.985,106.96,86.957,107.436,83.4Z"/><path class="cls-23" d="M103.134,70.7c.444,1.911,4.672,2.27,6.152,8.185s2.595,9.562,3.744,7.255,2.139-11.278-.2-14.183S102.509,68.009,103.134,70.7Z"/><path class="cls-31" d="M102.521,115.8c-3.294,2.487-1.972,4.869.432,7.057s4.851-1.467,5.947-2.577,3.329-2.631,1.171-4.789S105.541,113.52,102.521,115.8Z"/><path class="cls-32" d="M102.521,117.033c-2.923,3.435-1.692,2.607.613,6.706s9.279-1.7,6.072-10.959C107.9,109.008,107.452,111.239,102.521,117.033Z"/><path class="cls-33" d="M102.768,127.265a4.494,4.494,0,0,0-.524,4.213c.462,1.026,3.02-1.389,2.588-1.861S103.5,126.316,102.768,127.265Z"/><path class="cls-23" d="M90.348,45.075c-.95,2.075-.554,6.382,1.788,6.567s6.841-6.66,4.252-7.492S90.8,44.083,90.348,45.075Z"/><path class="cls-23" d="M86.527,58.265c.969,1.291,4.832.739,4.358-1.572S89.3,51.608,88.1,52.44,85.7,57.155,86.527,58.265Z"/><path class="cls-34" d="M94.345,33.72c-2.833,1.106-1.588,4.621-.512,4.344S95.554,33.247,94.345,33.72Z"/><path class="cls-35" d="M107.475,110.764c-2.165,3.411-7.318,5.884-6.532,7.687s11.347,4.438,9.284-4.276C109.207,109.866,108.376,109.345,107.475,110.764Z"/><ellipse class="cls-36" cx="104.611" cy="82.027" rx="19.778" ry="27.721"/><path class="cls-37" d="M87.455,152.809,73.6,141.3l11.842-.678c2.378,3.239,16.614,4.28,16.614,4.28A86.411,86.411,0,0,0,87.455,152.809Z"/><polygon class="cls-38" points="108.719 143.334 108.659 147.929 87.455 152.809 84.052 146.257 108.719 143.334"/><polygon class="cls-39" points="89.654 146.191 89.654 146.191 99.971 145.289 108.779 143.64 106.05 142.837 86.926 139.819 73.6 141.298 84.052 146.257 84.052 146.257 89.654 146.191"/><path class="cls-40" d="M84.052,146.257l3.4,6.552,20.584-4.737s-7.873-2.8-8.068-2.783-9.92.97-9.92.97Z"/><path class="cls-41" d="M75.909,141.566c2.284,1.506,7.182,4,8.521,4.045s15.542-.441,15.225-1.2-10.45-4.242-12.815-4.153S74.92,140.913,75.909,141.566Z"/><path class="cls-41" d="M96.76,141.967c-.674-.005,3.6,2.483,4.184,2.483s4.811-.624,4.526-.937S98.735,141.984,96.76,141.967Z"/><path class="cls-42" d="M90.051,161.3,75.909,150.386,92.9,149.87l34.61,2.951C112.865,161.188,90.051,161.3,90.051,161.3Z"/><path class="cls-43" d="M90.716,155.158l-.665,6.14s11.826-.683,17.682-1.829c12.315-2.41,19.773-6.648,19.773-6.648Z"/><polygon class="cls-44" points="98.771 155.155 98.771 155.155 113.643 154.415 127.506 152.821 122.451 152.167 95.048 149.135 75.909 150.386 90.716 155.158 90.716 155.158 98.771 155.155"/><path class="cls-41" d="M88.4,152.821c-1.5.349,1.492,1.806,2.71,1.806s13.939.4,13.448-.714S92.33,151.907,88.4,152.821Z"/><path class="cls-41" d="M100.676,150.3c-1.071.029,4.776,2.929,5.714,3.272s14.314-.014,13.071-.55S105.586,150.164,100.676,150.3Z"/><path class="cls-41" d="M98.8,150.967c-2.314.608.944,1.567,1.744,1.476S102.373,150.03,98.8,150.967Z"/><polygon class="cls-45" points="80.204 151.77 86.393 155.158 90.051 154.944 84.563 152.821 80.204 151.77"/><path class="cls-46" d="M29.744,150.281C38.044,97.4,57.956,2.451,109.206,2.451c53.3,0,69.71,148.574,69.71,148.574s-32.552,28.366-80.644,20.957S29.744,150.281,29.744,150.281Z"/><polygon class="cls-47" points="36.244 160.161 39.299 142.906 41.554 142.582 45.088 131.205 46.908 130.924 51.036 132.219 58.928 106.895 60.625 106.212 67.621 107.042 67.09 126.993 69.918 131.063 68.296 170.312 36.244 160.161"/><polygon class="cls-48" points="60.625 106.212 58.928 106.895 63.506 108.238 63.532 128.981 58.015 127.497 59.409 128.606 67.039 131.15 62.776 166.842 68.367 168.596 69.918 131.063 67.09 126.993 67.621 107.042 60.625 106.212"/><path class="cls-49" d="M41.554,142.582c.406.272,10.343,4.513,10.343,4.513l-.343,14.4L48.659,160l.7-11.9-5.171-2.658L39.3,142.906Z"/><polygon class="cls-50" points="45.088 131.205 56.864 135.751 53.621 161.784 55.214 162.356 59.676 148.713 63.938 142.063 60.24 145.552 62.631 133.581 59.942 134.411 51.036 132.219 46.908 130.924 45.088 131.205"/><path class="cls-51" d="M180.078,151.381c.953-2.623-1.5-14.623-6.091-14.623-4.194,0-8.383,6.9-8.383,6.9s-2.747-4.327-9.5-4.409c-6.729-.082-12.608,10.782-12.608,10.782S132.62,145.015,131.511,156c0,0-6.3-3.037-11.222,1.5-6.166,5.688-5.673,18.822-5.673,18.822H122.1l5.4-.422,22.942.361Z"/><path class="cls-52" d="M33.012,156.917c-7.466-4.424-1.155-14.3,4.733-10.467,0,0,2.7-5.621,9.287-3.257,6.555,2.354,4.667,12.589,4.667,12.589s2.175.914,6.029,2.379l9.723.587a7.657,7.657,0,0,1,6.194-4.878c4.919-.76,7.889,4.3,8.259,9.02,0,0,5.547-3.184,12.606,1.6,0,0,3.812-6.023,7.487-6.32,8.631-.7,9.985,6.2,9.985,6.2s4.153-6.248,10.118-5.131c8.518,1.595,10.961,13.363,10.961,13.363L90.479,176.67Z"/><path class="cls-23" d="M43.531,142.925c-6.358,1.042-7.944,7.7-3.494,8.976s8.676,2.287,9.66-.308C51.779,146.1,46.2,142.488,43.531,142.925Z"/><path class="cls-23" d="M49.588,152.319c-3.15,5.282-5.314.335-4.5,2.79s5.352,2.766,6.35-2.436C51.9,150.281,51.108,149.769,49.588,152.319Z"/><path class="cls-23" d="M72.978,154.734c-2,.656-3.06,2.138,4.589,4.083,3.505.891,3.869,5.794,3.953,4.383C81.683,160.487,78.948,152.78,72.978,154.734Z"/><path class="cls-23" d="M79.024,156.541c-1.173-2.984-6.317-3.706-10.225.744s1.17-1.328,5.427.889C79.653,161,80.092,159.259,79.024,156.541Z"/><path class="cls-23" d="M34.439,146.45c-5.894,1.376-4.985,6.385-2.38,7.307S38.773,145.438,34.439,146.45Z"/><path class="cls-23" d="M47.984,144.152c-7.278-2.841-10.575,1.4-6.971,4.905,3.415,3.32,3.413,10.391,7.4,7.632S52.048,145.737,47.984,144.152Z"/><path class="cls-23" d="M101.828,158.817c-6.856,1.565-9.6,9.159-8.858,10.624s4.863-4.124,8.988-4.124,9.823,2.95,8.683-1.645C110.237,162.044,106.766,157.689,101.828,158.817Z"/><path class="cls-23" d="M108.524,164.159c-2.42-3.142-8.08-4.952-10.9-2.669s-5.656,7.354-2.888,6.811,3.69-3.039,8.466-1.845S110.174,166.3,108.524,164.159Z"/><path class="cls-23" d="M123.447,160.576c-10.446-1.21-14.164,7.44-11.8,10.044S129.982,161.332,123.447,160.576Z"/><path class="cls-23" d="M156.715,140.4c-11.2.21-14.934,15.51-10.786,16.981,1.032.366,5.827-6.517,11.112-6.36C176.252,151.593,163.945,140.268,156.715,140.4Z"/><path class="cls-23" d="M173.05,137.422c-6.986,2.849-4.075,9.959-2.059,10.854s7.365,2.283,8.192,0C180.052,145.876,177.377,135.658,173.05,137.422Z"/><path class="cls-23" d="M134.958,150.281c-5.417,2.28-3.478,14.159.864,14.122,1.308-.011,3.582-5.257,7.109-7.862S139.508,148.367,134.958,150.281Z"/><path class="cls-23" d="M150.573,141.825c-4.235,3.115-.849,3.752,3.776,2.922,4.232-.76,8.153,2.307,8.663.415S159.024,135.609,150.573,141.825Z"/><path class="cls-23" d="M163.8,142.722c4.332,2.559,5.219,10.524,1.756,11.43s-7.947-6.536-11.31-7.5c-4.115-1.175-5.549,0-6.219-.805C146.342,143.835,156.679,138.514,163.8,142.722Z"/><path class="cls-23" d="M140.628,151.315c-4.541-2.5-8.171,5.5-6.109,7.879s3.256-3.809,4.5-4.731S142.382,152.28,140.628,151.315Z"/><path class="cls-23" d="M172.725,138.345c3.106-1.34,5.771,4.183,6.262,7.311s-4.762,6.245-8-.326C169.834,142.98,170.46,139.322,172.725,138.345Z"/><path class="cls-23" d="M160.948,147.687c-11.285-5.333-15.728,4.222-13.544,6.183,2.976,2.671,1.818-4.164,8.441,1.416S166.592,150.354,160.948,147.687Z"/><polygon class="cls-53" points="46.275 183.02 188.224 182.625 158.873 210.732 142.566 214.807 139.589 222.102 126.651 226.526 118.832 221.822 115.247 214.538 105.398 214.546 101.91 224.71 82.647 233.993 73.453 231.408 63.838 216.606 49.073 210.928 46.275 183.02"/><polygon class="cls-54" points="48.461 204.825 59.426 206.799 63.838 216.606 68.247 206.507 81.208 206.888 82.647 233.993 101.91 224.71 105.398 214.546 115.247 214.538 118.832 221.822 126.651 226.526 139.589 222.102 142.566 214.807 158.873 210.732 188.224 182.625 45.578 179.394 48.461 204.825"/><path class="cls-55" d="M48.208,202.3l15.826.45.947,11.24,3.266-7.481,12.961.381,8.685-3.117,7.068-4.216,8.437,14.991,9.849-.008-1.9-10.1,13.1,5.328.2,16.758,12.938-4.424,2.977-7.3L146,200.682s14.277-.484,14.2.388-1.327,9.662-1.327,9.662l29.351-28.107L45.578,179.394Z"/><polygon class="cls-56" points="68.247 206.507 75.527 193.598 86.22 187.893 88.108 181.997 67.771 182.337 68.247 206.507"/><polygon class="cls-57" points="115.247 214.538 113.347 204.44 119.726 193.956 98.688 190.171 96.961 199.555 105.398 214.546 115.247 214.538"/><polygon class="cls-58" points="178.263 192.164 146.943 186.538 146.265 196.753 126.451 209.768 126.651 226.526 139.589 222.102 142.566 214.807 158.873 210.732 178.263 192.164"/><polygon class="cls-59" points="193.623 195.642 175.788 201.898 150.673 191.173 150.258 196.809 126.451 194.714 125.135 194.597 84.366 191.008 85.718 186.279 76.351 187.317 65.28 196.298 46.102 202.237 34.153 194.412 28.856 168.591 33.126 166.74 26.5 151.788 38.235 149.89 85.832 162.242 91.333 171.261 125.396 170.957 125.397 170.957 125.529 171.071 126.594 171.981 126.594 170.958 126.574 170.947 126.594 170.947 140.457 170.823 141.618 159.262 183.386 150.704 181.791 146.01 191.308 160.461 183.899 177.65 192.031 179.841 193.623 195.642"/><polygon class="cls-60" points="38.234 149.89 85.832 162.241 83.783 165.773 70.41 167.744 26.5 151.787 38.234 149.89"/><polygon class="cls-61" points="141.617 159.262 154.631 161.751 183.386 150.703 181.791 146.009 180.284 145.989 178.626 149.586 141.617 159.262"/><polygon class="cls-62" points="151.72 176.96 136.087 176.624 134.292 179.993 131.919 176.535 88.858 175.61 91.333 171.261 125.396 170.957 125.397 170.957 125.529 171.071 126.594 171.981 126.594 170.958 126.574 170.947 126.594 170.947 140.457 170.823 151.72 176.96"/><polygon class="cls-63" points="34.154 194.412 61.679 190.124 61.655 176.981 28.856 168.592 33.126 166.74 70.17 175.21 70.41 167.744 83.783 165.773 88.858 175.61 131.919 176.535 134.292 179.993 136.087 176.624 145.558 176.827 151.72 176.959 151.816 187.874 155.261 168.265 154.631 161.751 183.386 150.703 181.791 146.009 191.308 160.46 183.899 177.649 158.78 186.68 173.641 188.122 192.031 179.842 193.623 195.641 175.787 201.898 150.673 191.172 150.258 196.809 84.367 191.008 85.718 186.278 76.351 187.317 65.28 196.299 46.101 202.238 34.154 194.412"/><polygon class="cls-64" points="65.28 196.299 61.679 190.124 61.655 176.981 34.439 167.04 70.17 175.21 85.718 186.278 88.858 175.61 85.718 186.278 76.351 187.317 65.28 196.299"/><polygon class="cls-65" points="155.261 168.265 191.308 160.46 183.899 177.649 189.809 179.243 165.429 187.286 173.641 188.122 175.787 201.898 150.673 191.172 151.816 187.874 155.261 168.265"/><polygon class="cls-66" points="76.351 187.317 67.093 176.822 58.763 172.601 70.17 175.21 82.837 184.227 88.858 175.61 84.367 191.008 109.206 193.195 150.258 196.809 150.673 191.172 170.47 199.627 166.672 203.263 155.877 196.224 146.004 200.682 144.169 206.617 139.361 200.898 117.45 197.697 114.246 202.961 97.712 195.473 70.934 201.743 68.062 197.142 68.002 194.09 76.351 187.317"/><polygon class="cls-67" points="125.529 171.071 125.396 170.957 125.397 170.957 125.529 171.071"/><polygon class="cls-68" points="136.087 176.624 126.451 194.714 125.09 194.714 125.135 194.597 132.077 176.67 131.919 176.535 126.594 171.982 126.594 170.958 136.087 176.624"/><polygon class="cls-69" points="126.594 170.947 126.594 170.958 126.574 170.947 126.594 170.947"/><polygon class="cls-70" points="125.529 171.071 126.594 171.981 126.594 171.982 125.529 171.071"/><polygon class="cls-71" points="175.787 201.898 193.623 195.641 192.031 179.842 189.809 179.243 189.809 179.243 183.899 177.649 191.308 160.46 181.791 146.009 180.284 145.989 178.626 149.586 141.617 159.262 140.457 170.823 91.333 171.26 85.832 162.241 38.234 149.89 26.5 151.787 33.126 166.74 28.856 168.592 34.154 194.412 46.101 202.238 48.098 201.619 48.461 204.825 48.461 204.825 49.073 210.928 63.838 216.606 73.453 231.408 82.647 233.993 101.91 224.71 105.398 214.546 115.247 214.538 118.832 221.822 126.651 226.526 139.589 222.102 142.566 214.807 158.873 210.732 166.672 203.263 166.672 203.263 170.47 199.627 170.47 199.627 170.47 199.627 175.787 201.898"/><path class="cls-72" d="M109.752,167.018l-13.367-5.253.374-3.882,12.128-.976,22.624,1.421-2.5,5.2C119.09,165.473,109.752,167.018,109.752,167.018Z"/><polygon class="cls-73" points="123.171 160.696 131.511 158.328 110.075 156.122 96.76 157.884 110.082 162.038 110.082 162.038 123.171 160.696"/><path class="cls-74" d="M110.082,162.038l-.33,4.98,15.789-2.821,3.467-.669,2.5-5.2s-8.028,2.366-8.34,2.368S110.082,162.038,110.082,162.038Z"/><polygon class="cls-45" points="97.985 158.266 112.821 161.752 109.937 164.228 97.985 158.266"/><path class="cls-41" d="M103.176,158.328c8.341,2.51,7.725,2.9,10.959,2.97s13.813-2.118,12.429-2.609-13.256-2.321-16.157-2.143S99.159,157.12,103.176,158.328Z"/><path class="cls-75" d="M199.973,82.027c0,1.745-43.438,3.16-97.02,3.16s-97.02-1.415-97.02-3.16,43.437-3.161,97.02-3.161S199.973,80.281,199.973,82.027Z"/></g></g></g></g></svg>