<svg xmlns="http://www.w3.org/2000/svg" xmlns:xlink="http://www.w3.org/1999/xlink" viewBox="0 0 202.611 265.931"><defs><style>.cls-1,.cls-2{fill:none;}.cls-1{clip-rule:evenodd;}.cls-3{isolation:isolate;}.cls-29,.cls-31,.cls-4{opacity:0.3;}.cls-10,.cls-14,.cls-15,.cls-23,.cls-24,.cls-25,.cls-26,.cls-34,.cls-36,.cls-4,.cls-43,.cls-44,.cls-5,.cls-74,.cls-89,.cls-92{mix-blend-mode:screen;}.cls-4{fill:url(#radial-gradient);}.cls-10,.cls-11,.cls-12,.cls-13,.cls-15,.cls-16,.cls-17,.cls-19,.cls-22,.cls-29,.cls-30,.cls-31,.cls-34,.cls-36,.cls-47,.cls-48,.cls-49,.cls-5,.cls-50,.cls-51,.cls-52,.cls-58,.cls-6,.cls-62,.cls-68,.cls-7,.cls-74,.cls-77,.cls-8,.cls-9,.cls-92{fill-rule:evenodd;}.cls-5,.cls-90{opacity:0.2;}.cls-5{fill:url(#radial-gradient-2);}.cls-6{fill:url(#_68);}.cls-7{fill:url(#_3701);}.cls-8{fill:url(#_3701-2);}.cls-9{fill:url(#_3701-3);}.cls-10,.cls-14,.cls-15,.cls-23,.cls-24,.cls-25,.cls-26,.cls-34,.cls-36{opacity:0.6;}.cls-10{fill:url(#_3702);}.cls-11,.cls-91{fill:#311565;}.cls-11,.cls-16,.cls-30,.cls-40,.cls-83,.cls-85,.cls-91{opacity:0.5;}.cls-11,.cls-16,.cls-35,.cls-40,.cls-52,.cls-56,.cls-58,.cls-59,.cls-60,.cls-61,.cls-62,.cls-63,.cls-65,.cls-66,.cls-90,.cls-91{mix-blend-mode:multiply;}.cls-12{fill:url(#_3701-4);}.cls-13{fill:url(#_68-2);}.cls-15{fill:url(#_4);}.cls-16{fill:url(#_4-2);}.cls-17{fill:#19264d;}.cls-18{fill:#1bace0;}.cls-19{fill:url(#_123);}.cls-20{fill:url(#_157);}.cls-21{fill:url(#_4307);}.cls-22{fill:url(#_150);}.cls-23{fill:url(#_325);}.cls-24{fill:url(#_325-2);}.cls-25{fill:url(#_325-3);}.cls-26{fill:url(#_325-4);}.cls-27{fill:url(#_4307-2);}.cls-28{fill:url(#_4307-3);}.cls-29,.cls-30,.cls-31,.cls-68,.cls-85{mix-blend-mode:soft-light;}.cls-29{fill:url(#_4-3);}.cls-30{fill:#7a369e;}.cls-31{fill:url(#_325-5);}.cls-32{fill:#09ac61;}.cls-33{fill:#15524f;}.cls-34{fill:url(#_325-6);}.cls-35,.cls-52,.cls-56,.cls-58,.cls-59,.cls-60,.cls-61,.cls-62,.cls-63{opacity:0.7;}.cls-35{fill:url(#_69);}.cls-36{fill:url(#_325-7);}.cls-37{fill:url(#_3693);}.cls-38{fill:#f6d8b6;}.cls-39{fill:url(#_3694);}.cls-40{fill:#e5a3e5;}.cls-41{fill:#fff;}.cls-42{fill:url(#_63);}.cls-43{fill:url(#radial-gradient-3);}.cls-44{fill:url(#radial-gradient-4);}.cls-45{fill:url(#_3692);}.cls-46{fill:url(#_3693-2);}.cls-47{fill:url(#_123-2);}.cls-48{fill:url(#_123-3);}.cls-49{fill:url(#_123-4);}.cls-50{fill:url(#_4016);}.cls-51{fill:url(#_4016-2);}.cls-52{fill:url(#_69-2);}.cls-53{fill:url(#_4016-3);}.cls-54{fill:#076249;}.cls-55{fill:url(#_4016-4);}.cls-56{fill:url(#_69-3);}.cls-57{fill:url(#_123-5);}.cls-58{fill:url(#_69-4);}.cls-59{fill:url(#_69-5);}.cls-60{fill:url(#_69-6);}.cls-61{fill:url(#_69-7);}.cls-62{fill:url(#_69-8);}.cls-63{fill:url(#_45);}.cls-64{fill:url(#New_Gradient_Swatch_156);}.cls-65,.cls-66{opacity:0.15;}.cls-65{fill:url(#_45-2);}.cls-66{fill:url(#_45-3);}.cls-67{fill:#83ffea;}.cls-68{fill:#0e3e47;opacity:0.52;}.cls-69{fill:url(#_3694-2);}.cls-70{fill:url(#_3693-3);}.cls-71{fill:url(#_3693-4);}.cls-72{fill:url(#_3692-2);}.cls-73{clip-path:url(#clip-path);}.cls-74{opacity:0.8;fill:url(#radial-gradient-5);}.cls-75{clip-path:url(#clip-path-2);}.cls-76{fill:#680000;}.cls-77{fill:url(#_3691);}.cls-78{fill:url(#_3690);}.cls-79{fill:url(#_3690-2);}.cls-80{fill:url(#_3690-3);}.cls-81{fill:url(#New_Gradient_Swatch_2);}.cls-82{fill:url(#New_Gradient_Swatch_2-2);}.cls-83{fill:#e26680;}.cls-84{fill:#f7dad2;}.cls-85{fill:#722e8c;}.cls-86,.cls-87{mix-blend-mode:color-dodge;}.cls-86{fill:url(#radial-gradient-6);}.cls-87{fill:url(#radial-gradient-7);}.cls-88{fill:#98ffee;}.cls-89{fill:url(#radial-gradient-8);}.cls-90{fill:#594275;}.cls-92{opacity:0.86;fill:url(#linear-gradient);}</style><radialGradient id="radial-gradient" cx="100.164" cy="171.066" r="97.55" gradientUnits="userSpaceOnUse"><stop offset="0" stop-color="#173cff"/><stop offset="1" stop-opacity="0"/></radialGradient><radialGradient id="radial-gradient-2" cx="13.35" cy="72.426" r="106.995" gradientTransform="translate(81.439) scale(1.035 1)" gradientUnits="userSpaceOnUse"><stop offset="0.006" stop-color="aqua"/><stop offset="0.184" stop-color="#00c3c3" stop-opacity="0.763"/><stop offset="0.406" stop-color="#007e7e" stop-opacity="0.495"/><stop offset="0.607" stop-color="#004848" stop-opacity="0.282"/><stop offset="0.779" stop-color="#002121" stop-opacity="0.129"/><stop offset="0.916" stop-color="#000909" stop-opacity="0.035"/><stop offset="1" stop-opacity="0"/></radialGradient><linearGradient id="_68" x1="101.98" y1="220.451" x2="105.723" y2="184.369" gradientUnits="userSpaceOnUse"><stop offset="0" stop-color="#74095c"/><stop offset="1" stop-color="#8b0012"/></linearGradient><linearGradient id="_3701" x1="35.829" y1="202.139" x2="71.037" y2="202.139" gradientUnits="userSpaceOnUse"><stop offset="0" stop-color="#ae282f"/><stop offset="1" stop-color="#961037"/></linearGradient><linearGradient id="_3701-2" x1="28.91" y1="193.827" x2="55.33" y2="193.827" xlink:href="#_3701"/><linearGradient id="_3701-3" x1="106.848" y1="191.047" x2="106.848" y2="217.915" xlink:href="#_3701"/><linearGradient id="_3702" x1="143.641" y1="208.766" x2="139.932" y2="195.821" gradientUnits="userSpaceOnUse"><stop offset="0" stop-color="#354eeb"/><stop offset="0.033" stop-color="#334be3"/><stop offset="0.708" stop-color="#0f1641"/><stop offset="1"/></linearGradient><linearGradient id="_3701-4" x1="152.367" y1="186.639" x2="176.942" y2="186.639" xlink:href="#_3701"/><linearGradient id="_68-2" x1="130.565" y1="220.781" x2="133.98" y2="187.857" xlink:href="#_68"/><linearGradient id="_4" x1="63.042" y1="232.382" x2="92.92" y2="195.482" gradientUnits="userSpaceOnUse"><stop offset="0" stop-color="#4757f7"/><stop offset="1"/></linearGradient><linearGradient id="_4-2" x1="129.397" y1="222.49" x2="139.405" y2="186.213" xlink:href="#_4"/><linearGradient id="_123" x1="149.063" y1="113.78" x2="170.481" y2="113.78" gradientUnits="userSpaceOnUse"><stop offset="0.01" stop-color="#002e45"/><stop offset="0.329" stop-color="#054641"/><stop offset="0.534" stop-color="#074f3f"/><stop offset="1" stop-color="#0b8141"/></linearGradient><linearGradient id="_157" x1="112.456" y1="48.985" x2="99.597" y2="137.308" gradientUnits="userSpaceOnUse"><stop offset="0" stop-color="#002134"/><stop offset="1" stop-color="#04382d"/></linearGradient><linearGradient id="_4307" x1="160.211" y1="84.439" x2="151.951" y2="98.984" gradientUnits="userSpaceOnUse"><stop offset="0" stop-color="#002134"/><stop offset="1" stop-color="#004f59"/></linearGradient><radialGradient id="_150" cx="120.663" cy="130.251" r="76.853" gradientUnits="userSpaceOnUse"><stop offset="0" stop-color="#55c9bf"/><stop offset="0.349" stop-color="#0b8141"/><stop offset="0.976" stop-color="#074f3f"/></radialGradient><linearGradient id="_325" x1="162.581" y1="72.275" x2="111.57" y2="31.162" gradientUnits="userSpaceOnUse"><stop offset="0" stop-color="#3d56fd"/><stop offset="0.099" stop-color="#374de3"/><stop offset="0.728" stop-color="#101641"/><stop offset="1"/></linearGradient><linearGradient id="_325-2" x1="124.143" y1="119.967" x2="73.132" y2="78.854" xlink:href="#_325"/><linearGradient id="_325-3" x1="160.538" y1="74.811" x2="109.526" y2="33.697" xlink:href="#_325"/><linearGradient id="_325-4" x1="120.77" y1="124.152" x2="69.759" y2="83.039" xlink:href="#_325"/><linearGradient id="_4307-2" x1="143.281" y1="79.328" x2="140.624" y2="84.007" xlink:href="#_4307"/><linearGradient id="_4307-3" x1="153.291" y1="98.144" x2="136.36" y2="127.957" xlink:href="#_4307"/><linearGradient id="_4-3" x1="139.052" y1="140.82" x2="78.14" y2="47.421" xlink:href="#_4"/><linearGradient id="_325-5" x1="180.837" y1="113.568" x2="119.925" y2="20.17" xlink:href="#_325"/><linearGradient id="_325-6" x1="141.059" y1="139.51" x2="80.147" y2="46.112" xlink:href="#_325"/><linearGradient id="_69" x1="129.329" y1="134.281" x2="126.813" y2="151.787" gradientUnits="userSpaceOnUse"><stop offset="0" stop-color="#c079b1"/><stop offset="1" stop-color="#90426d"/></linearGradient><linearGradient id="_325-7" x1="129.373" y1="162.351" x2="129.373" y2="48.72" xlink:href="#_325"/><radialGradient id="_3693" cx="69.685" cy="134.032" r="13.817" gradientUnits="userSpaceOnUse"><stop offset="0" stop-color="#f7e789"/><stop offset="1" stop-color="#f79a6f"/></radialGradient><linearGradient id="_3694" x1="64.948" y1="121.655" x2="68.771" y2="121.655" gradientUnits="userSpaceOnUse"><stop offset="0" stop-color="#8e6160"/><stop offset="1" stop-color="#1f0a0f"/></linearGradient><linearGradient id="_63" x1="69.821" y1="121.25" x2="66.95" y2="118.017" gradientUnits="userSpaceOnUse"><stop offset="0" stop-color="#fdbb01"/><stop offset="0.229" stop-color="#fdc001"/><stop offset="0.484" stop-color="#fecd01"/><stop offset="0.751" stop-color="#fee301"/><stop offset="1" stop-color="#ffff01"/></linearGradient><radialGradient id="radial-gradient-3" cx="65.473" cy="119.746" r="21.663" gradientUnits="userSpaceOnUse"><stop offset="0" stop-color="#fd3800"/><stop offset="0.117" stop-color="#d12e00" stop-opacity="0.824"/><stop offset="0.299" stop-color="#922000" stop-opacity="0.577"/><stop offset="0.473" stop-color="#5e1500" stop-opacity="0.371"/><stop offset="0.635" stop-color="#350c00" stop-opacity="0.21"/><stop offset="0.782" stop-color="#180500" stop-opacity="0.095"/><stop offset="0.908" stop-color="#060100" stop-opacity="0.025"/><stop offset="1" stop-opacity="0"/></radialGradient><radialGradient id="radial-gradient-4" cx="66.682" cy="117.361" r="16.273" gradientUnits="userSpaceOnUse"><stop offset="0" stop-color="#ff249c"/><stop offset="0.122" stop-color="#d11d80" stop-opacity="0.818"/><stop offset="0.303" stop-color="#921559" stop-opacity="0.573"/><stop offset="0.476" stop-color="#5e0d39" stop-opacity="0.368"/><stop offset="0.637" stop-color="#350821" stop-opacity="0.209"/><stop offset="0.783" stop-color="#18030f" stop-opacity="0.094"/><stop offset="0.909" stop-color="#060104" stop-opacity="0.025"/><stop offset="1" stop-opacity="0"/></radialGradient><linearGradient id="_3692" x1="182.534" y1="153.878" x2="182.003" y2="147.821" gradientUnits="userSpaceOnUse"><stop offset="0" stop-color="#1f0a0f"/><stop offset="1" stop-color="#8e6160"/></linearGradient><radialGradient id="_3693-2" cx="182.359" cy="156.834" r="7.92" xlink:href="#_3693"/><linearGradient id="_123-2" x1="171.784" y1="160.311" x2="37.113" y2="160.311" xlink:href="#_123"/><linearGradient id="_123-3" x1="188.737" y1="179.004" x2="17.525" y2="179.004" xlink:href="#_123"/><linearGradient id="_123-4" x1="184.191" y1="178.101" x2="138.391" y2="178.101" xlink:href="#_123"/><linearGradient id="_4016" x1="17.525" y1="175.569" x2="92.067" y2="175.569" gradientUnits="userSpaceOnUse"><stop offset="0" stop-color="#0bbdae"/><stop offset="1" stop-color="#00b48f"/></linearGradient><linearGradient id="_4016-2" x1="66.097" y1="178.779" x2="151.01" y2="178.779" xlink:href="#_4016"/><linearGradient id="_69-2" x1="122.036" y1="180.842" x2="124.785" y2="196.421" xlink:href="#_69"/><linearGradient id="_4016-3" x1="70.89" y1="168.111" x2="142.31" y2="168.111" xlink:href="#_4016"/><linearGradient id="_4016-4" x1="125.657" y1="169.233" x2="188.737" y2="169.233" xlink:href="#_4016"/><linearGradient id="_69-3" x1="146.073" y1="163.054" x2="146.073" y2="176.379" xlink:href="#_69"/><linearGradient id="_123-5" x1="177.056" y1="163.643" x2="153.982" y2="163.643" xlink:href="#_123"/><linearGradient id="_69-4" x1="155.754" y1="150.877" x2="155.754" y2="167.849" xlink:href="#_69"/><linearGradient id="_69-5" x1="58.902" y1="177.459" x2="142.31" y2="177.459" xlink:href="#_69"/><linearGradient id="_69-6" x1="139.807" y1="168.438" x2="139.807" y2="189.797" xlink:href="#_69"/><linearGradient id="_69-7" x1="167.884" y1="168.316" x2="167.884" y2="184.054" xlink:href="#_69"/><linearGradient id="_69-8" x1="52.114" y1="160.598" x2="113.214" y2="160.598" xlink:href="#_69"/><linearGradient id="_45" x1="114.577" y1="200.969" x2="127.354" y2="174.423" gradientUnits="userSpaceOnUse"><stop offset="0" stop-color="#c57cbb"/><stop offset="1" stop-color="#954577"/></linearGradient><linearGradient id="New_Gradient_Swatch_156" x1="102.188" y1="189.349" x2="105.695" y2="182.064" gradientUnits="userSpaceOnUse"><stop offset="0" stop-color="#0a3d48"/><stop offset="1" stop-color="#006b6d"/></linearGradient><linearGradient id="_45-2" x1="45.321" y1="189.91" x2="52.078" y2="175.872" xlink:href="#_45"/><linearGradient id="_45-3" x1="76.498" y1="196.265" x2="86.953" y2="174.544" xlink:href="#_45"/><linearGradient id="_3694-2" x1="46.818" y1="156.014" x2="48.584" y2="156.014" xlink:href="#_3694"/><radialGradient id="_3693-3" cx="49.436" cy="163.253" r="8.623" xlink:href="#_3693"/><radialGradient id="_3693-4" cx="31.992" cy="158.694" r="17.34" xlink:href="#_3693"/><linearGradient id="_3692-2" x1="31.287" y1="147.895" x2="30.239" y2="139.068" xlink:href="#_3692"/><clipPath id="clip-path"><path id="SVGID" class="cls-1" d="M97.263,174.3l34.752,2.8,21.638-2.589s30.538-27,36.862-56.066c6.986-32.109-24.734-95.046-93.339-56.217C18.7,106.653,97.263,174.3,97.263,174.3Z"/></clipPath><radialGradient id="radial-gradient-5" cx="-464.641" cy="-1998.461" r="40.432" gradientTransform="translate(807.575 4160.587) scale(1.476 1.999)" gradientUnits="userSpaceOnUse"><stop offset="0" stop-color="aqua"/><stop offset="0.122" stop-color="#00d1d1" stop-opacity="0.818"/><stop offset="0.303" stop-color="#009292" stop-opacity="0.573"/><stop offset="0.476" stop-color="#005e5e" stop-opacity="0.368"/><stop offset="0.637" stop-color="#003535" stop-opacity="0.209"/><stop offset="0.783" stop-color="#001818" stop-opacity="0.094"/><stop offset="0.909" stop-color="#000606" stop-opacity="0.025"/><stop offset="1" stop-opacity="0"/></radialGradient><clipPath id="clip-path-2"><polygon id="SVGID-2" data-name="SVGID" class="cls-2" points="110.028 175.332 97.263 174.304 92.067 175.161 92.067 174.187 81.988 173.339 62.472 171.698 29.684 175.299 34.253 128.898 108.88 133.404 119.344 155.099 110.028 175.332"/></clipPath><linearGradient id="_3691" x1="-694.924" y1="426.006" x2="-694.924" y2="464.695" gradientTransform="translate(690.35 -395.809) rotate(-9.869)" gradientUnits="userSpaceOnUse"><stop offset="0" stop-color="#f5ceb3"/><stop offset="1" stop-color="#f7b0b8"/></linearGradient><linearGradient id="_3690" x1="-704.171" y1="445.167" x2="-684.377" y2="445.167" gradientTransform="translate(690.35 -395.809) rotate(-9.869)" gradientUnits="userSpaceOnUse"><stop offset="0" stop-color="#f16d73"/><stop offset="1" stop-color="#e3786e"/></linearGradient><linearGradient id="_3690-2" x1="-681.314" y1="439.573" x2="-675.165" y2="439.573" xlink:href="#_3690"/><linearGradient id="_3690-3" x1="-682.539" y1="452.1" x2="-674.316" y2="452.1" xlink:href="#_3690"/><linearGradient id="New_Gradient_Swatch_2" x1="72.986" y1="163.176" x2="89.413" y2="163.176" gradientUnits="userSpaceOnUse"><stop offset="0" stop-color="#023536"/><stop offset="1" stop-color="#00635b"/></linearGradient><linearGradient id="New_Gradient_Swatch_2-2" x1="94.291" y1="154.658" x2="101.248" y2="154.658" xlink:href="#New_Gradient_Swatch_2"/><radialGradient id="radial-gradient-6" cx="-698.878" cy="446.27" r="9.295" gradientTransform="translate(690.35 -395.809) rotate(-9.869)" xlink:href="#radial-gradient-5"/><radialGradient id="radial-gradient-7" cx="-678.797" cy="441.447" r="7.525" gradientTransform="translate(690.35 -395.809) rotate(-9.869)" xlink:href="#radial-gradient-5"/><radialGradient id="radial-gradient-8" cx="98.945" cy="22.033" r="22.852" gradientTransform="matrix(1, 0, 0, 1, 0, 0)" xlink:href="#radial-gradient-5"/><linearGradient id="linear-gradient" x1="151.654" y1="179.208" x2="160.173" y2="131.576" gradientUnits="userSpaceOnUse"><stop offset="0.006" stop-color="#063"/><stop offset="0.234" stop-color="#004724" stop-opacity="0.7"/><stop offset="0.568" stop-color="#002110" stop-opacity="0.32"/><stop offset="0.835" stop-color="#000904" stop-opacity="0.086"/><stop offset="1" stop-opacity="0"/></linearGradient></defs><title>island-1</title><g class="cls-3"><g id="Layer_2" data-name="Layer 2"><g id="islands"><g id="island-1"><path class="cls-4" d="M198.9,185.3c-7.856,43.6-47.631,77.044-92.89,80.357C56.96,269.248,8.748,237.122,1.071,186.284-8.184,125.007,43.727,70.658,111.422,76.656,172.073,82.031,208.1,134.252,198.9,185.3Z"/><path class="cls-5" d="M11.866,116.763c9.515,13.8,27.655,15.74,36.423,5.412,8.4-9.9,5.564-36.312,5.564-36.312S30.707,108.2,21.692,94.412C13.132,81.32,45.34,70.43,61.2,73.286c16.476,2.966-8.605,46.943,20.958,56.1,34.267,10.619,136.73-40.983,118.235-71.6-7.471-12.371-50.266,15.513-48.944-19.2.486-12.777,17.131-4.09,19.271-.436.792,1.351.563-11.529-5.34-11.816-16.376-.8-31.58,32.406-17.957,39.33,11.046,5.614,48.274-17.861,46.2,1.133-.992,9.065-63.609,63.69-90.679,52.764C86.686,113,76.184,79.806,68.711,69.9c-6.85-9.084-17.717-18.55-27.781-10.471C29.091,68.928,3.325,104.382,11.866,116.763Zm12.312-18.3c8.024,8.262,25.56-7.161,24.965-5.564-10.961,29.415-27.551,28.085-30.7,11.553C17.058,97.16,18.47,92.589,24.178,98.467Z"/><polygon class="cls-6" points="162.369 187.154 165.411 181.82 34.816 180.596 38.035 190.03 52.931 214.563 71.037 220.713 84.287 215.955 94.414 216.293 95.788 220.573 111.819 222.965 121.807 216.135 124.424 209.88 130.975 211.299 146.031 203.888 151.127 208.341 168.209 199.362 176.942 185.13 162.369 187.154"/><polygon class="cls-7" points="71.037 220.713 67.485 185.165 35.829 183.565 38.035 190.03 52.932 214.563 71.037 220.713"/><polygon class="cls-8" points="28.91 185.357 34.802 202.296 42.765 202.134 49.886 200.929 55.33 187.075 28.91 185.357"/><polygon class="cls-9" points="93.277 211.778 94.547 189.052 120.419 188.824 116.749 208.048 113.442 215.369 93.277 211.778"/><polygon class="cls-10" points="126.312 197.372 145.686 192.03 153.413 193.785 138.241 201.781 126.312 197.372"/><polygon class="cls-11" points="52.932 214.563 70.167 212.012 67.485 185.165 72.389 185.424 74.356 199.364 81.225 202.526 93.508 207.648 93.277 211.778 109.049 214.586 116.749 208.048 120.419 188.824 150.664 181.682 165.411 181.82 163.864 184.532 152.367 188.543 149.429 192.88 153.413 193.785 151.127 208.341 146.031 203.888 130.975 211.299 138.241 201.781 126.312 197.372 124.424 209.88 121.807 216.135 111.819 222.965 95.788 220.573 94.414 216.293 84.287 215.955 71.037 220.713 52.932 214.563"/><polygon class="cls-11" points="84.287 215.955 81.225 202.526 93.508 207.648 93.277 211.778 94.414 216.293 84.287 215.955"/><path class="cls-12" d="M152.367,188.543c.306-.1,6.672.795,6.672.795l17.9-4.208-11.378-1.191Z"/><polygon class="cls-11" points="34.802 202.296 43.197 198.91 44.016 186.339 55.33 187.075 49.886 200.929 42.765 202.134 34.802 202.296"/><polygon class="cls-11" points="49.886 200.929 43.197 198.91 34.802 202.296 42.765 202.134 49.886 200.929"/><path class="cls-13" d="M122.606,218.742c.372-.079,7.065-2.821,7.065-2.821l9.692-1.194-4.467,8.415-7.383,4.685-3.73.176Z"/><polygon class="cls-11" points="122.606 218.742 130.024 219.368 139.363 214.727 134.896 223.142 127.513 227.827 123.783 228.003 122.606 218.742"/><polygon class="cls-11" points="130.024 219.368 127.513 227.827 134.896 223.142 139.363 214.727 130.024 219.368"/><polygon class="cls-11" points="132.894 215.524 126.934 219.107 122.606 218.742 129.671 215.921 132.894 215.524"/><polygon class="cls-11" points="146.031 203.888 153.413 193.785 138.241 201.781 130.975 211.299 146.031 203.888"/><path class="cls-11" d="M31.69,193.352l11.923-.832,8.23,2.7,16.486-1.607,5.848,4.481,19.656,3.731.456-8.152,25.512-.338,5.76,9.01s4.616-3.546,4.829-3.467,17.374-6.377,17.374-6.377l1.665.378,2.938-4.337,11.5-4.011,3.453-5.934-139.83.832Z"/><polygon class="cls-11" points="159.039 189.338 151.127 208.341 168.209 199.362 176.942 185.13 159.039 189.338"/><g class="cls-14"><polygon class="cls-15" points="165.564 183.939 163.864 184.532 163.864 184.532 167.317 178.598 27.487 179.43 29.284 185.381 28.91 185.357 34.802 202.296 42.765 202.134 45.14 201.732 52.931 214.563 71.037 220.713 84.287 215.955 94.414 216.293 95.788 220.573 111.819 222.965 121.807 216.135 124.424 209.88 130.975 211.299 146.031 203.888 151.127 208.341 168.209 199.362 176.942 185.13 165.564 183.939"/><polygon class="cls-16" points="132.894 215.524 129.671 215.921 122.606 218.742 123.783 228.003 127.513 227.827 134.896 223.142 139.363 214.727 132.894 215.524 132.894 215.524"/></g><path class="cls-17" d="M40.062,122.576s5.7,21.6,13.563,48.038l2.808-1.429s-11.631-32.93-13.92-46.942c0,0,4.978.074,4.707-.553-.345-.8-6.247-6.952-7.637-7.585s-4.789,7.719-4.051,8.191C36.58,122.968,40.062,122.576,40.062,122.576Z"/><path class="cls-17" d="M92.318,121.629S91.7,142.6,91.66,169.905l2.8-.609s-1.593-34.327-.05-47.726c0,0,3.384.845,3.306.211-.1-.807-3.42-6.505-4.394-7.158s-4.509,5.838-4.062,6.325C89.894,121.643,92.318,121.629,92.318,121.629Z"/><path class="cls-17" d="M32.942,141.754l52.034-3.731,25.353,2,.1-1.06-25.037-2.174s-26.4,2.064-54.708,3.488Z"/><path class="cls-18" d="M157.872,41.463s-14.351-11.2-23.922-11.534-14.874,4.624-14.874,4.624L117.5,64.216a50.021,50.021,0,0,0-15.228,7.474s-7.366-3.3-8.2-3.184-9.677,6.909-9.934,8.7-1.558,23.089,0,25.2,5.834,1.519,12.376,2.646,7.22,1.265,7.22,1.265a34.564,34.564,0,0,0,2.481,7.462,37.607,37.607,0,0,0,4.214,5.712,142.5,142.5,0,0,0-2.668,15.073c-.756,7.036-1.163,10.42-1.163,10.42l-9.832,1.177,12.011,5.612,22.254,2.282,3.384-35.486s-19.289-.918-20.3-15.565-.777-24.242,10.835-29.709,26.164-18.271,26.164-18.271Z"/><polygon class="cls-19" points="170.481 115.041 163.635 116.02 149.063 115.673 157.042 111.54 170.481 115.041"/><path class="cls-20" d="M107.621,150.235l3.853-31.726a21.282,21.282,0,0,1-7.307-11.561L85.025,103.6A87.718,87.718,0,0,1,85.287,77l9.471-7.849,8.14,3.722s4.338-4.648,15.239-8.036l2.124-29.908s7.307-5.059,13.157-4.193l-4,34.423L110.985,88.317l11.843,28.233-2.223,35.224Z"/><polygon class="cls-21" points="162.347 80.626 156.506 83.762 155.593 87.196 154.032 89.776 160.913 90.404 162.347 80.626"/><path class="cls-22" d="M174.465,92.511l-8.686-3.022s-2.184-6.957-3.432-8.863l-2.284,7.094-6.1.5v0l-.377.612C156,93.677,156.78,99,154.97,102.986a14.4,14.4,0,0,1-9.264,7.794,20.457,20.457,0,0,1-7.179.785c-.5-.031-1.014-.081-1.523-.149a22.885,22.885,0,0,1-2.269-.409,20.5,20.5,0,0,1-2.494-.748,19.517,19.517,0,0,1-2.027-.874c-6.5-3.256-10.5-9.857-8.459-17.537a30.081,30.081,0,0,1,1.9-5.21s-.015-5.035,1.846-6.155,2.615-.228,2.615-.228a14.09,14.09,0,0,1,4.646-3.049,11.826,11.826,0,0,1,2.121-.6,11.691,11.691,0,0,1,1.282-.163,11.914,11.914,0,0,1,2.414.074,13.451,13.451,0,0,1,1.91.392,15.9,15.9,0,0,1,2.155.782,20.851,20.851,0,0,1,6.905,5.2l.565-.078c3.046-5.983,6.206-11.675,6.206-11.675l.271.1c-.891-1-1.715-1.833-2.426-2.6l5.022-26.133a58.711,58.711,0,0,0-16.664-9.358l-.006,0,0,0c-1.518-.556-3.117-1.065-4.783-1.5l-.022-.006c-.782-.2-1.581-.39-2.392-.557-.625-.131-1.26-.252-1.9-.357l-5.391,32.853s-14.058,3.564-20.265,11.509l-13-5.947s-1.908,17.1-1.37,31.094l17.156,2.336s3.517,8.611,8.7,14.165l-5.213,33.436,24.776.847,6.668-28.49s8.172-3,12.914-9.35l12.089,1.857S175.5,103.308,174.465,92.511Z"/><path class="cls-23" d="M140.49,76.906a13.451,13.451,0,0,0-1.91-.392c.924-15.512,2.2-31.053,3.936-43.367v0l.008,0,2.927,1.738S142.661,49.967,140.49,76.906Z"/><path class="cls-24" d="M138.811,151.024l-2.6-1.335s.077-16.4.793-38.273c.509.068,1.018.118,1.523.149C137.426,142.534,138.811,151.024,138.811,151.024Z"/><path class="cls-25" d="M132.573,61.039s.818-19.266,2.746-29.951l2.392.557.022.006a123.582,123.582,0,0,0-3.784,31.408,117.118,117.118,0,0,0,.935,13.544,11.826,11.826,0,0,0-2.121.6C133.147,64.942,132.573,61.039,132.573,61.039Z"/><path class="cls-26" d="M131.836,150.153l-9.01-1.2a311.852,311.852,0,0,0,7.388-39.563,19.517,19.517,0,0,0,2.027.874C130.917,124.754,130.065,141.568,131.836,150.153Z"/><path class="cls-27" d="M149.55,82.884l-4.036.557c-3.771-4.383-8.366-6.99-9.407-6.992.019,0,.038-.007.059-.009,2.282-.374,4.972.455,7.507,1.582a19.991,19.991,0,0,1,6.442,4.784Z"/><path class="cls-28" d="M155.748,102.885a14.2,14.2,0,0,1-10.042,7.895c-.513.123-1.037.222-1.566.3,0,0,7.925-4.968,6.486-16.9-.016-.14-.035-.278-.058-.417v0l3.019-4.921.377-.612C156.635,93.193,157.607,98.788,155.748,102.885Z"/><path class="cls-29" d="M95.824,72.1c-1.962,5.066-2.536,25.093-.352,26.416,3.572,2.166,22.252-3.034,24.409-9.462C122.077,82.513,96.955,69.182,95.824,72.1Zm1.868,5.767c.386-3.609,3.224-3.609,5.817,2.027S97.117,83.241,97.692,77.869Zm6.833.676c-.339-2.03,2.257-1.353,3.238,0S104.88,80.671,104.525,78.545Z"/><path class="cls-30" d="M91.844,100.724c-4.81,1.613-8.041,1.607-5.488,2.624,2.533,1.009,12.128,2.309,16.193,2.9,4.03.588,8.261-2.854,7.214-3.34C107.217,101.731,91.844,100.724,91.844,100.724Z"/><path class="cls-31" d="M155.647,42.323c-2.609-2.057-15.538-10.213-19.255-8.007-3.616,2.148-7.866,31.147-6.572,33.783,1.281,2.609,18.981,2.54,22.27-4C155.432,57.456,158.227,44.36,155.647,42.323Zm-6.454,6.9c.114.9-2.03,2.514-2.03.751C147.163,48.917,149.082,48.314,149.193,49.218ZM146.713,62.3c-1.805-1.24-2.482-1.467-2.574-4.512s5.506-3.271,6.285.676S148.375,63.446,146.713,62.3Zm3.4-14.889c-.32-3.159,4.042-2.594,4.492.9S150.764,53.813,150.116,47.413Z"/><path class="cls-32" d="M107.763,75.093c4.562-2.346,18.126-10.877,18.126-10.877s-10.359,3.6-13.922,6.849C108.42,74.3,107.763,75.093,107.763,75.093Z"/><path class="cls-32" d="M132.241,110.259s2.139,2.814,8.658,2.533c6.45-.279,11.366-5.252,11.366-5.252S144.145,113.909,132.241,110.259Z"/><path class="cls-33" d="M94.354,73.3s-2.474,9.3-2.572,13.262a32.061,32.061,0,0,0,1.51,8.844,47.515,47.515,0,0,0,1.365-9.98C94.678,80.585,94.354,73.3,94.354,73.3Z"/><path class="cls-33" d="M118.963,118.57s-3.442,8.441-3.609,10.39.811,7.552.811,7.552,2.76-6.358,3.214-10.423A23.132,23.132,0,0,0,118.963,118.57Z"/><path class="cls-34" d="M111.678,100.1c.615,5,9.426,16.487,11.424,17.477s6.551-4.51,2.767-9.277C122,103.42,111.255,96.667,111.678,100.1Z"/><path class="cls-35" d="M141.8,138.26c1.067-1.473-12.3-5.673-14.048-5.07-4.331,1.5-12.415,7.464-12.415,7.464l-1.3,9.523,24.776.847Z"/><path class="cls-36" d="M174.465,92.511l-8.686-3.022s-2.184-6.957-3.432-8.863h0l-5.841,3.136-.913,3.434-.567.937-1.062.088v0l-.377.612-3.019,4.921v0c.023.139.042.277.058.417,1.284,10.65-4.86,15.734-6.222,16.723a24.009,24.009,0,0,1-12.163-.639,19.517,19.517,0,0,1-2.027-.874c-6.5-3.256-10.5-9.857-8.459-17.537a30.081,30.081,0,0,1,1.9-5.21s-.015-5.035,1.846-6.155,2.615-.228,2.615-.228a14.09,14.09,0,0,1,4.646-3.049,11.826,11.826,0,0,1,2.121-.6,11.691,11.691,0,0,1,1.282-.163c-.021,0-.04.006-.059.009,1.041,0,5.636,2.609,9.407,6.992l4.036-.557.565-.078c3.046-5.983,6.206-11.675,6.206-11.675l.271.1c-.891-1-1.715-1.833-2.426-2.6l5.022-26.133a49.635,49.635,0,0,0-6.253-4.362c-4.7-2.914-11.493-6.38-18.134-7.16-.457-.09-.918-.177-1.382-.253v0c-5.849-.866-13.157,4.193-13.157,4.193l-2.124,29.908c-10.9,3.388-15.239,8.036-15.239,8.036l-4.443-2.032-3.7-1.69h0L85.287,77a87.718,87.718,0,0,0-.262,26.607l19.142,3.346a21.282,21.282,0,0,0,7.307,11.561l-3.853,31.726,12.984,1.539.087-1.369,18.119.619,6.668-28.49a33.825,33.825,0,0,0,10.567-6.7l7.589.181,6.846-.979h0S175.5,103.308,174.465,92.511Z"/><path class="cls-37" d="M57.661,123.888a68.906,68.906,0,0,0,15.765,6.03l2.888,16.421-19.88.623A67.763,67.763,0,0,0,57.661,123.888Z"/><path class="cls-38" d="M57.661,123.888c-1.642.185,11.442,7.231,15.765,6.03C73.426,129.918,62.893,123.3,57.661,123.888Z"/><path class="cls-39" d="M65.233,127.23l.547.309a22.521,22.521,0,0,1-.247-5.524c.267-2.833,3.238-4.346,3.238-4.346a1.891,1.891,0,0,0-1.518-1.9,15.1,15.1,0,0,0-2.275,6.8A15.266,15.266,0,0,0,65.233,127.23Z"/><path class="cls-40" d="M57.97,136.617c-.7,6.072,9.982,9.4,14.319,7.349,1.153-.545,1.916-9.621,1.916-9.621l2.109,11.994-19.88.623a25.214,25.214,0,0,0,.911-4.735C57.856,138.481,57.97,136.617,57.97,136.617Z"/><path class="cls-41" d="M64.948,128.13s-.42,4.052,1.911,4.644,3.762-2.538,3.7-2.718S67.363,129.2,64.948,128.13Z"/><path class="cls-42" d="M65.473,122.958c-5.882-4.475,2.645-6.85,1.511-11.765,0,0,2.855,8.073,1.787,8.637C65.074,121.783,65.473,122.958,65.473,122.958Z"/><path class="cls-43" d="M86.971,122.057c.031,11.351-8.719,19.854-19.821,19.506C55.728,141.2,45.3,131.627,44.09,119.6c-1.275-12.725,8.2-22.686,20.868-21.6C77.233,99.057,86.937,110.085,86.971,122.057Z"/><path class="cls-44" d="M82.707,119.005c.093,8.715-6.528,15.233-14.944,14.858-8.6-.384-16.3-7.816-17.047-16.924-.783-9.5,6.246-16.835,15.533-16.036C75.323,101.684,82.61,109.934,82.707,119.005Z"/><path class="cls-45" d="M181.875,154.056a10.212,10.212,0,0,0,1.3-4.463,4.627,4.627,0,0,0-.74-2.645,2.243,2.243,0,0,0-1.02,1.329s1.157.266,1.161,2.261a6.812,6.812,0,0,1-1.045,3.509Z"/><path class="cls-46" d="M183.684,167.073a17.977,17.977,0,0,1-6.956-.093,34.251,34.251,0,0,0,.922-9.479c-.048-1.268-.145-2.04-.145-2.04,3.233-2.719,8.308-2.7,8.308-2.7.007.559-.01,1.151-.046,1.765v.031A83.1,83.1,0,0,1,183.684,167.073Z"/><path class="cls-40" d="M183.684,167.073a17.977,17.977,0,0,1-6.956-.093,34.251,34.251,0,0,0,.922-9.479s.37,4.347.43,7.894c.01.667,4.2.848,4.954-.229s2.4-5.4,2.732-10.607A83.1,83.1,0,0,1,183.684,167.073Z"/><polygon class="cls-47" points="124.968 145.678 37.113 147.185 41.237 174.943 121.243 172.141 170.034 166.391 171.784 154.121 124.968 145.678"/><path class="cls-48" d="M17.525,176.705,27.7,190.287l31.207-.293,7.729-2.051.231,3.684,60.324-.663,22.885-6.611,4.686.561,21.09-3.279,5.163-5.793-10.7-.523,13.061-1.665,5.363-6.223-3.426-.954-89.965-.1-27.119,1-.318,5.017-5.437-.7S18.669,176.538,17.525,176.705Z"/><polygon class="cls-49" points="155.736 181.672 181.01 175.842 153.98 174.52 132.015 177.107 150.999 178.653 150.664 181.682 155.736 181.672"/><path class="cls-50" d="M17.525,176.705s29.065,2.732,41.968,2.736l32.574-5.254L62.472,171.7Z"/><path class="cls-51" d="M66.1,179.444s61.412,3.811,61.9,3.809,23.595-4.525,23-4.6S97.263,174.3,97.263,174.3Z"/><polygon class="cls-52" points="150.071 184.353 150.999 178.653 127.998 183.253 107.254 181.991 94.536 191.323 127.186 190.964 150.071 184.353"/><polygon class="cls-53" points="70.89 170.891 113.962 163.078 142.31 164.923 104.484 173.145 70.89 170.891"/><polygon class="cls-54" points="142.31 164.923 104.484 173.145 70.89 170.891 71.165 172.429 92.067 174.187 92.067 175.161 97.263 174.304 124.349 176.486 125.657 169.427 142.172 166.431 142.31 164.923"/><polygon class="cls-55" points="125.657 169.427 155.482 171.149 167.355 172.036 188.737 167.431 185.311 166.477 142.172 166.431 125.657 169.427"/><polygon class="cls-56" points="125.657 169.427 167.355 172.036 167.796 175.196 153.653 174.518 132.015 177.107 124.349 176.486 125.657 169.427"/><path class="cls-57" d="M179.154,161.916l-6.574-2.476-15.185-.882-3.605,8.73s16.591,1.435,16.93,1.439L178.909,167Z"/><path class="cls-58" d="M124.968,145.678l-2.2,17.973,19.54,1.272-.138,1.508,7.161,1.218,22.522,3.418,16.882-3.636-3.426-.954-6.318-.006.161-4.555-6.574-2.476-1.86,9.287L158.571,167.7s.954-9.019,1.107-9.01l11.36.66.746-5.23Z"/><path class="cls-59" d="M58.9,189.994l.591-10.553c.7-.325,32.574-5.254,32.574-5.254l-20.9-1.758-.275-1.538,33.594,2.254,37.826-8.222-.138,1.508-16.515,3,6.358,7.68-7.666-.621L97.263,174.3,66.1,179.444l.534,8.5Z"/><polygon class="cls-60" points="152.427 184.635 150.071 184.353 127.186 190.964 127.998 183.253 150.999 178.653 150.664 181.682 152.427 184.635"/><polygon class="cls-61" points="155.736 181.672 154.757 184.914 175.847 181.635 181.01 175.842 155.736 181.672"/><polygon class="cls-62" points="103.167 146.035 111.764 163.476 103.518 164.972 113.214 171.248 104.484 173.145 104.261 174.867 97.263 174.304 92.067 175.161 92.067 174.187 61.953 171.66 52.114 172.852 60.62 146.782 103.167 146.035"/><polygon class="cls-63" points="144.895 185.837 139.272 181.05 109.046 182.101 96.014 191.307 94.536 191.323 107.254 181.991 140.158 180.586 146.805 185.296 144.895 185.837"/><path class="cls-64" d="M100.164,188.375s5.578-2.751,5.692-2.955,1.863-2.382,1.863-2.382l-4.478,2.676Z"/><path class="cls-65" d="M59.493,179.441,58.9,189.994l-13.149.124s-8.96-11.81-8.474-11.775S59.493,179.441,59.493,179.441Z"/><polygon class="cls-66" points="66.097 179.444 66.862 191.627 76.745 191.518 101.972 181.773 66.097 179.444"/><path class="cls-67" d="M97.263,174.3,66.1,179.444,85.2,180.628s-14.8-1.183-13.411-1.5S97.263,174.3,97.263,174.3Z"/><path class="cls-68" d="M51.171,151.522c0,4.916,4.426,3.581,4.159,1.49S51.171,149.331,51.171,151.522Z"/><path class="cls-68" d="M54.787,148.456c-.436.694.226,2.01.959,1.469S55.69,147.02,54.787,148.456Z"/><path class="cls-69" d="M47.491,158.5c-.509-1.66-.99-4.145-.405-5.3,0,0,1.025-.326,1.5.969a2.151,2.151,0,0,0-1.249,2.137,4.3,4.3,0,0,0,.7,2.547Z"/><path class="cls-70" d="M53.964,174.7l-10.389-.342s.28-5.373.268-10.659c0-1.737-.039-3.465-.125-4.985,0,0,2.694-1.79,8.2,1.127,0,0,0,1.932.2,4.555A40.8,40.8,0,0,0,53.964,174.7Z"/><path class="cls-40" d="M53.964,174.7l-10.389-.342s.28-5.373.268-10.659c.737,4.92,1.554,7.824,2.095,8.034s5.8.539,5.991-.151.181-7.186.181-7.186A40.8,40.8,0,0,0,53.964,174.7Z"/><path class="cls-71" d="M46.321,176.386c-7.221.75-18.646-.058-18.646-.058a80.993,80.993,0,0,0-.544-16.688v-.007c-1.009-6.933-2.684-10.265-2.684-10.265a53.379,53.379,0,0,0,16.494-4.341c.18,2,.52,4.532.944,7.292C43.5,162.84,46.321,176.386,46.321,176.386Z"/><path class="cls-38" d="M24.446,149.368s2.326-4.889,16.494-4.342c0,0-2.563,2.913-8.721,3.914C26.017,149.947,24.446,149.368,24.446,149.368Z"/><path class="cls-72" d="M32.728,147.25a26.728,26.728,0,0,1-2.213-6.006,9.6,9.6,0,0,1,.466-5.467s-.654-1.746-2.742-.782a54.436,54.436,0,0,0,2.131,8.126c1.429,4.019,1.95,4.607,1.95,4.607Z"/><path class="cls-40" d="M46.321,176.386c-7.221.75-18.646-.058-18.646-.058a80.993,80.993,0,0,0-.544-16.688c1.851,7.038,2.107,13.094,2.583,14.017s9.19.765,11.278-1.567c2.064-2.305.93-19.221.892-19.771C43.5,162.84,46.321,176.386,46.321,176.386Z"/><g class="cls-73"><path class="cls-74" d="M180.744,177.451c-6.262,37.807-32.3,66.139-60.268,67.936-29.592,1.9-56.552-26.076-58.947-68.231-2.842-50.02,28.964-94.776,68.646-91.095C166.968,89.474,188.034,133.433,180.744,177.451Z"/></g><g class="cls-75"><path class="cls-76" d="M111.557,171.531c-.236.876-2.65,3.346-4.214,4.078,0,0-5.332,2.829-15.1,4.311Z"/><path class="cls-77" d="M106.008,165.675a10.012,10.012,0,0,1,1.512,2.077l.19.354a11.989,11.989,0,0,1,3.889,3.519,4.449,4.449,0,0,1-3.38,1.264c-1.894,2.453-11.039,5.973-14.593,6.751-.86.189-1.379.28-1.379.28a5.269,5.269,0,0,1-1.625-4.091v-.007a3.748,3.748,0,0,0-3.925-1.6s-8.4,4.553-10.276,5.671-7.379.366-10.756-.249c-3.405-.62-10.463-11.123-10.627-12.5s5.93-16.656,20.081-22.567c17.873-7.466,23.159,3.662,23.159,3.662a49.278,49.278,0,0,0,2.97,10.745,6.458,6.458,0,0,1,2.787-1.1c1.7-.253,3.779,3.256,3.573,4.206C107.451,162.818,104.888,164.516,106.008,165.675Z"/><path class="cls-78" d="M78.171,171.508c3.533,1.2,7.229-.617,9.95-1.55s4.444-6.393,4.533-7.867-1.481-8-4.725-9.674c-3.283-1.691-10.619-.526-13.823,4.849-3.162,5.3.411,11.414,1.288,12.555A6.285,6.285,0,0,0,78.171,171.508Z"/><path class="cls-79" d="M101.248,158.987l-1.15.979s-4.566-2.622-5.758-6.99c-1.214-4.447.621-5.609,1.163-5.93C98.348,145.363,101.452,154.221,101.248,158.987Z"/><path class="cls-80" d="M95.991,169.628c-.583.111,2.494-6.229,4.617-7.059s3.1,3.794,3.1,3.794S98.582,169.131,95.991,169.628Z"/><path class="cls-81" d="M72.986,162.931c1.248-11.212,14.943-10.514,16.278-2.438.72,4.354-.979,11.759-9.324,11.38C73.114,171.563,72.986,162.931,72.986,162.931Z"/><path class="cls-82" d="M98.734,150.857c-2.046-2.852-5.659-1.577-4.035,3.162,1,2.925,5.4,5.947,5.4,5.947l1.15-.979S100.219,152.928,98.734,150.857Z"/><path class="cls-76" d="M95.991,169.628c-.475.083,1.034-4.048,3.1-5.8,0,0,2.368-.514,3.64,3.05C102.731,166.873,97.919,169.289,95.991,169.628Z"/><path class="cls-83" d="M56.573,167.3c2.013,5.681,9.252,13.18,12.752,11.1s6.459-7.044,2.506-12.075C67.776,161.162,54.532,161.538,56.573,167.3Z"/><path class="cls-83" d="M86.7,174.223c-4.193.894,5.173-7.373,5.435-1.947.081,1.665-1.509,3.546-1.509,3.546A3.563,3.563,0,0,0,86.7,174.223Z"/><path class="cls-83" d="M107.712,168.1l0,0c-.945.64-.9,2.266-.9,2.266s-.7-.488-2.768.025-2.424,1.529-2.424,1.529a3.6,3.6,0,0,0-3.321.091c-2.018.919-2.022,1.713-2.022,1.713s-3.1-.013-4.025,1.56c-.681,1.166,1.225,4.148,1.225,4.148l.15.2c-.86.189-1.379.28-1.379.28a5.269,5.269,0,0,1-1.625-4.091v-.007c5.247-5.069,16.138-6.476,16.9-8.07l.1.175Z"/><path class="cls-83" d="M107.608,162.091c-2.719.2-4.01-1.056-4.6-.194s2.836,3.555,2.836,3.555-.556-.58.229-1.326A11.026,11.026,0,0,0,107.608,162.091Z"/><path class="cls-84" d="M92.734,175.051c-.778.521,1.759,3.728,2.909,3.48s2.553,0,2.293-1.5S97.089,172.131,92.734,175.051Z"/><path class="cls-84" d="M98.338,172.419c-1.151.724.651,4.492,2.136,4.566s2.392-.882,2.228-1.544S102.623,169.724,98.338,172.419Z"/><path class="cls-84" d="M107.709,172.015a2.807,2.807,0,0,0-4.334-1.415c-1.214.753.443,4.09,1.592,4.035S108.24,173.528,107.709,172.015Z"/><path class="cls-84" d="M62.76,154.691c-1.97,2.654,27.188-7.918,29.5-10.117C94.947,142.023,74.462,138.934,62.76,154.691Z"/><path class="cls-84" d="M93.523,161.944c-1.771,4.281-3.081,7.909-1.985,8.029s7.987-7.286,7.744-7.733C98.173,160.2,93.768,161.353,93.523,161.944Z"/><path class="cls-83" d="M63.258,175.177c-.412,2.044,3.649,3.3,5.239,3.008s6.907-5.6,4.248-9.757c-.685-1.071-2.066,2.772-5.143,3.588S63.572,173.623,63.258,175.177Z"/><path class="cls-85" d="M79.466,154.151c4,.385,5.459.587,8.708,2.648,3.207,2.034,3.251.237,2.024-2.147-1.267-2.461-4.562-3.815-8.886-2.543S78.029,154.012,79.466,154.151Z"/><path class="cls-84" d="M107.277,168.553c-.675,1.189,1.635,3.955,2.276,3.989s2.07-.746,2-1.011-2.916-3.14-3.809-3.185C107.45,168.331,107.419,168.3,107.277,168.553Z"/><path class="cls-41" d="M79.766,144.3c-2.9,2.617,7.783,2.96,6.852-1.266C86.618,143.033,82.3,142.015,79.766,144.3Z"/><path class="cls-86" d="M87.68,162.363a8.7,8.7,0,0,1-7.464,10.215,9.963,9.963,0,0,1-11.23-7.4,8.682,8.682,0,0,1,7.5-10.487A9.934,9.934,0,0,1,87.68,162.363Z"/><path class="cls-87" d="M104.775,154.453a7.319,7.319,0,0,1-6.211,8.358,7.751,7.751,0,0,1-8.775-6.152,7.3,7.3,0,0,1,6.247-8.581A7.738,7.738,0,0,1,104.775,154.453Z"/></g><path class="cls-88" d="M110.768,23.394a11.451,11.451,0,0,1-12.01,9.922C92.566,32.8,86.677,27,87.335,21.166c.66-5.856,6.449-10.891,12.683-10.133C106.124,11.776,111.442,17.767,110.768,23.394Z"/><path class="cls-89" d="M122.434,24.593c-1.428,11.578-12.453,20.253-25.111,19.417-13.218-.873-23.266-11.708-21.9-24.25C76.807,7.125,89.142-1.613,102.422.251,115.132,2.035,123.871,12.935,122.434,24.593Z"/><path class="cls-90" d="M103.388,28.757a3.713,3.713,0,0,1-4.09,3.107,3.505,3.505,0,0,1-3.331-3.793A3.713,3.713,0,0,1,100.1,24.96,3.5,3.5,0,0,1,103.388,28.757Z"/><path class="cls-90" d="M92.343,24.854a1.906,1.906,0,0,1-1.96,1.783,1.829,1.829,0,0,1-1.524-2.122,1.9,1.9,0,0,1,1.969-1.785A1.833,1.833,0,0,1,92.343,24.854Z"/><path class="cls-91" d="M27.837,172.651l-.1,2.916-10.215,1.138,19.754,1.638s7.694-1.026,9.042-1.957c0,0-10.168.259-15.34-.869A3.961,3.961,0,0,1,27.837,172.651Z"/><path class="cls-91" d="M53.964,174.7l-7.819.829-.558-2.763a9.452,9.452,0,0,0,3.17,1.278A48.11,48.11,0,0,0,53.964,174.7Z"/><polygon class="cls-92" points="144.225 178.184 174.606 136.015 150.099 128.13 136.743 177.446 144.225 178.184"/></g></g></g></g></svg>