<svg xmlns="http://www.w3.org/2000/svg" xmlns:xlink="http://www.w3.org/1999/xlink" viewBox="0 0 158.522 158.522"><defs><style>.cls-1{isolation:isolate;}.cls-2,.cls-3,.cls-4{mix-blend-mode:screen;}.cls-2{fill:url(#radial-gradient);}.cls-3{fill:url(#radial-gradient-2);}.cls-4{fill:url(#radial-gradient-3);}.cls-10,.cls-11,.cls-12,.cls-13,.cls-14,.cls-15,.cls-16,.cls-17,.cls-18,.cls-19,.cls-20,.cls-21,.cls-22,.cls-23,.cls-24,.cls-25,.cls-26,.cls-27,.cls-28,.cls-29,.cls-30,.cls-31,.cls-32,.cls-33,.cls-34,.cls-35,.cls-36,.cls-38,.cls-39,.cls-40,.cls-41,.cls-42,.cls-43,.cls-44,.cls-45,.cls-46,.cls-47,.cls-48,.cls-49,.cls-5,.cls-50,.cls-51,.cls-52,.cls-53,.cls-54,.cls-55,.cls-56,.cls-57,.cls-58,.cls-59,.cls-6,.cls-60,.cls-61,.cls-62,.cls-63,.cls-7,.cls-8{fill-rule:evenodd;}.cls-5{fill:url(#Áåçûìÿííûé_ãðàäèåíò_85);}.cls-6{fill:url(#Áåçûìÿííûé_ãðàäèåíò_32);}.cls-11,.cls-12,.cls-15,.cls-28,.cls-30,.cls-41,.cls-42,.cls-52,.cls-7,.cls-8{opacity:0.71;}.cls-11,.cls-12,.cls-15,.cls-26,.cls-27,.cls-28,.cls-29,.cls-30,.cls-33,.cls-34,.cls-35,.cls-36,.cls-41,.cls-42,.cls-47,.cls-50,.cls-52,.cls-54,.cls-7,.cls-8,.cls-9{mix-blend-mode:multiply;}.cls-7{fill:url(#Áåçûìÿííûé_ãðàäèåíò_141);}.cls-8{fill:url(#Áåçûìÿííûé_ãðàäèåíò_141-2);}.cls-9{opacity:0.3;}.cls-10{fill:#7d72b3;}.cls-11{fill:url(#Áåçûìÿííûé_ãðàäèåíò_141-3);}.cls-12{fill:url(#Áåçûìÿííûé_ãðàäèåíò_141-4);}.cls-13{fill:url(#Áåçûìÿííûé_ãðàäèåíò_46);}.cls-14{fill:url(#Áåçûìÿííûé_ãðàäèåíò_52);}.cls-15{fill:url(#Áåçûìÿííûé_ãðàäèåíò_141-5);}.cls-16{fill:url(#Áåçûìÿííûé_ãðàäèåíò_60);}.cls-17{fill:url(#Áåçûìÿííûé_ãðàäèåíò_60-2);}.cls-18{fill:url(#Áåçûìÿííûé_ãðàäèåíò_100);}.cls-19{fill:url(#Áåçûìÿííûé_ãðàäèåíò_103);}.cls-20{fill:url(#Áåçûìÿííûé_ãðàäèåíò_100-2);}.cls-21{fill:url(#Áåçûìÿííûé_ãðàäèåíò_118);}.cls-22{fill:url(#Áåçûìÿííûé_ãðàäèåíò_100-3);}.cls-23{fill:url(#Áåçûìÿííûé_ãðàäèåíò_100-4);}.cls-24{fill:url(#Áåçûìÿííûé_ãðàäèåíò_60-3);}.cls-25{fill:url(#Áåçûìÿííûé_ãðàäèåíò_122);}.cls-26,.cls-27,.cls-29,.cls-33,.cls-34,.cls-35,.cls-47,.cls-50,.cls-54{opacity:0.5;}.cls-26{fill:url(#Áåçûìÿííûé_ãðàäèåíò_141-6);}.cls-27{fill:url(#Áåçûìÿííûé_ãðàäèåíò_141-7);}.cls-28{fill:url(#Áåçûìÿííûé_ãðàäèåíò_141-8);}.cls-29{fill:url(#Áåçûìÿííûé_ãðàäèåíò_141-9);}.cls-30{fill:url(#Áåçûìÿííûé_ãðàäèåíò_141-10);}.cls-31{fill:url(#Áåçûìÿííûé_ãðàäèåíò_103-2);}.cls-32{fill:url(#Áåçûìÿííûé_ãðàäèåíò_103-3);}.cls-33{fill:url(#Áåçûìÿííûé_ãðàäèåíò_141-11);}.cls-34{fill:url(#Áåçûìÿííûé_ãðàäèåíò_141-12);}.cls-35{fill:url(#Áåçûìÿííûé_ãðàäèåíò_141-13);}.cls-36{opacity:0.2;fill:url(#Áåçûìÿííûé_ãðàäèåíò_141-14);}.cls-37{mix-blend-mode:soft-light;}.cls-38{fill:#ffa989;}.cls-39{fill:#ffbd4a;}.cls-40{fill:#ffab4a;}.cls-41{fill:url(#Áåçûìÿííûé_ãðàäèåíò_141-15);}.cls-42{fill:url(#Áåçûìÿííûé_ãðàäèåíò_141-16);}.cls-43{fill:#ff864a;}.cls-44{fill:#ffb14a;}.cls-45{fill:url(#Áåçûìÿííûé_ãðàäèåíò_148);}.cls-46{fill:url(#Áåçûìÿííûé_ãðàäèåíò_148-2);}.cls-47{fill:url(#Áåçûìÿííûé_ãðàäèåíò_141-17);}.cls-48{fill:url(#Áåçûìÿííûé_ãðàäèåíò_148-3);}.cls-49{fill:url(#Áåçûìÿííûé_ãðàäèåíò_100-5);}.cls-50{fill:url(#Áåçûìÿííûé_ãðàäèåíò_141-18);}.cls-51{fill:url(#Áåçûìÿííûé_ãðàäèåíò_103-4);}.cls-52{fill:url(#Áåçûìÿííûé_ãðàäèåíò_141-19);}.cls-53{fill:url(#Áåçûìÿííûé_ãðàäèåíò_148-4);}.cls-54{fill:url(#Áåçûìÿííûé_ãðàäèåíò_141-20);}.cls-55{fill:url(#Áåçûìÿííûé_ãðàäèåíò_103-5);}.cls-56{fill:url(#Áåçûìÿííûé_ãðàäèåíò_153);}.cls-57{fill:url(#Áåçûìÿííûé_ãðàäèåíò_100-6);}.cls-58{fill:url(#Áåçûìÿííûé_ãðàäèåíò_60-4);}.cls-59{fill:url(#Áåçûìÿííûé_ãðàäèåíò_100-7);}.cls-60{fill:url(#Áåçûìÿííûé_ãðàäèåíò_60-5);}.cls-61{fill:url(#Áåçûìÿííûé_ãðàäèåíò_100-8);}.cls-62{fill:url(#Áåçûìÿííûé_ãðàäèåíò_153-2);}.cls-63{fill:url(#Áåçûìÿííûé_ãðàäèåíò_118-2);}</style><radialGradient id="radial-gradient" cx="79.261" cy="79.261" r="79.261" gradientUnits="userSpaceOnUse"><stop offset="0" stop-color="#ff4000"/><stop offset="1" stop-opacity="0"/></radialGradient><radialGradient id="radial-gradient-2" cx="79.261" cy="79.261" r="62.251" gradientTransform="translate(79.261 -32.831) rotate(45)" gradientUnits="userSpaceOnUse"><stop offset="0" stop-color="#ff7300"/><stop offset="1" stop-opacity="0"/></radialGradient><radialGradient id="radial-gradient-3" cx="79.261" cy="79.261" r="59.405" gradientUnits="userSpaceOnUse"><stop offset="0" stop-color="#ff7900"/><stop offset="0.183" stop-color="#fc7800" stop-opacity="0.989"/><stop offset="0.315" stop-color="#f37300" stop-opacity="0.952"/><stop offset="0.432" stop-color="#e36c00" stop-opacity="0.89"/><stop offset="0.54" stop-color="#cc6100" stop-opacity="0.802"/><stop offset="0.642" stop-color="#af5300" stop-opacity="0.688"/><stop offset="0.739" stop-color="#8c4200" stop-opacity="0.548"/><stop offset="0.832" stop-color="#622e00" stop-opacity="0.383"/><stop offset="0.92" stop-color="#321800" stop-opacity="0.196"/><stop offset="1" stop-opacity="0"/></radialGradient><linearGradient id="Áåçûìÿííûé_ãðàäèåíò_85" x1="170.553" y1="99.868" x2="170.553" y2="60.128" gradientTransform="matrix(0.952, -0.305, 0.305, 0.952, -74.961, 69.302)" gradientUnits="userSpaceOnUse"><stop offset="0" stop-color="#5b006f"/><stop offset="0.017" stop-color="#5c0270"/><stop offset="0.23" stop-color="#6a1a7c"/><stop offset="0.455" stop-color="#732c84"/><stop offset="0.699" stop-color="#793689"/><stop offset="0.994" stop-color="#7b398b"/></linearGradient><radialGradient id="Áåçûìÿííûé_ãðàäèåíò_32" cx="48.341" cy="57.755" r="86.488" gradientUnits="userSpaceOnUse"><stop offset="0.006" stop-color="#9d4863"/><stop offset="0.238" stop-color="#9a4563"/><stop offset="0.418" stop-color="#903d61"/><stop offset="0.581" stop-color="#802e5f"/><stop offset="0.733" stop-color="#68195b"/><stop offset="0.872" stop-color="#4c0057"/><stop offset="0.98" stop-color="#4c0086"/></radialGradient><linearGradient id="Áåçûìÿííûé_ãðàäèåíò_141" x1="44.77" y1="103.503" x2="67.219" y2="103.503" gradientUnits="userSpaceOnUse"><stop offset="0" stop-color="#ca528d"/><stop offset="1" stop-color="#8e7090"/></linearGradient><linearGradient id="Áåçûìÿííûé_ãðàäèåíò_141-2" x1="100.982" y1="92.832" x2="122.365" y2="92.832" xlink:href="#Áåçûìÿííûé_ãðàäèåíò_141"/><linearGradient id="Áåçûìÿííûé_ãðàäèåíò_141-3" x1="121.926" y1="73.341" x2="129.808" y2="73.341" xlink:href="#Áåçûìÿííûé_ãðàäèåíò_141"/><linearGradient id="Áåçûìÿííûé_ãðàäèåíò_141-4" x1="28.237" y1="55.543" x2="122.343" y2="55.543" xlink:href="#Áåçûìÿííûé_ãðàäèåíò_141"/><linearGradient id="Áåçûìÿííûé_ãðàäèåíò_46" x1="28.237" y1="41.252" x2="116.478" y2="41.252" gradientUnits="userSpaceOnUse"><stop offset="0.006" stop-color="#de6863"/><stop offset="0.247" stop-color="#db6563"/><stop offset="0.434" stop-color="#d35b62"/><stop offset="0.603" stop-color="#c54b60"/><stop offset="0.761" stop-color="#b1335d"/><stop offset="0.911" stop-color="#981659"/><stop offset="1" stop-color="#860057"/></linearGradient><linearGradient id="Áåçûìÿííûé_ãðàäèåíò_52" x1="38.109" y1="127.545" x2="38.109" y2="73.448" gradientUnits="userSpaceOnUse"><stop offset="0" stop-color="#860057"/><stop offset="0.03" stop-color="#8c0757"/><stop offset="0.19" stop-color="#aa2456"/><stop offset="0.358" stop-color="#c13c55"/><stop offset="0.538" stop-color="#d14c54"/><stop offset="0.738" stop-color="#db5654"/><stop offset="0.994" stop-color="#de5954"/></linearGradient><linearGradient id="Áåçûìÿííûé_ãðàäèåíò_141-5" x1="75.29" y1="121.937" x2="90.937" y2="121.937" xlink:href="#Áåçûìÿííûé_ãðàäèåíò_141"/><linearGradient id="Áåçûìÿííûé_ãðàäèåíò_60" x1="127.279" y1="70.178" x2="127.279" y2="49.492" gradientUnits="userSpaceOnUse"><stop offset="0" stop-color="#860057"/><stop offset="0.032" stop-color="#880557"/><stop offset="0.233" stop-color="#951c56"/><stop offset="0.449" stop-color="#9e2c55"/><stop offset="0.687" stop-color="#a33654"/><stop offset="0.994" stop-color="#a53954"/></linearGradient><linearGradient id="Áåçûìÿííûé_ãðàäèåíò_60-2" x1="112.565" y1="93.448" x2="112.565" y2="68.762" xlink:href="#Áåçûìÿííûé_ãðàäèåíò_60"/><linearGradient id="Áåçûìÿííûé_ãðàäèåíò_100" x1="65.115" y1="44.391" x2="65.115" y2="19.307" gradientUnits="userSpaceOnUse"><stop offset="0" stop-color="#f49f57"/><stop offset="0.099" stop-color="#f79656"/><stop offset="0.352" stop-color="#fb8655"/><stop offset="0.633" stop-color="#fe7c54"/><stop offset="0.994" stop-color="#ff7954"/></linearGradient><linearGradient id="Áåçûìÿííûé_ãðàäèåíò_103" x1="89.068" y1="55.215" x2="89.068" y2="30.668" gradientUnits="userSpaceOnUse"><stop offset="0" stop-color="#f47d57"/><stop offset="0.398" stop-color="#fc7a55"/><stop offset="0.994" stop-color="#ff7954"/></linearGradient><linearGradient id="Áåçûìÿííûé_ãðàäèåíò_100-2" x1="28.237" y1="49.63" x2="51.206" y2="49.63" xlink:href="#Áåçûìÿííûé_ãðàäèåíò_100"/><linearGradient id="Áåçûìÿííûé_ãðàäèåíò_118" x1="104.459" y1="72.507" x2="123.18" y2="72.507" gradientUnits="userSpaceOnUse"><stop offset="0.006" stop-color="#c75357"/><stop offset="0.131" stop-color="#d35856"/><stop offset="0.375" stop-color="#e35f55"/><stop offset="0.645" stop-color="#ed6454"/><stop offset="0.994" stop-color="#f06554"/></linearGradient><linearGradient id="Áåçûìÿííûé_ãðàäèåíò_100-3" x1="15.123" y1="83.362" x2="44.766" y2="83.362" xlink:href="#Áåçûìÿííûé_ãðàäèåíò_100"/><linearGradient id="Áåçûìÿííûé_ãðàäèåíò_100-4" x1="18.182" y1="99.108" x2="42.817" y2="99.108" xlink:href="#Áåçûìÿííûé_ãðàäèåíò_100"/><linearGradient id="Áåçûìÿííûé_ãðàäèåíò_60-3" x1="81.909" y1="125.272" x2="81.909" y2="113.275" xlink:href="#Áåçûìÿííûé_ãðàäèåíò_60"/><linearGradient id="Áåçûìÿííûé_ãðàäèåíò_122" x1="74.749" y1="116.589" x2="86.377" y2="116.589" gradientUnits="userSpaceOnUse"><stop offset="0.006" stop-color="#c75357"/><stop offset="0.261" stop-color="#d15149"/><stop offset="0.581" stop-color="#d94f3f"/><stop offset="0.994" stop-color="#db4f3c"/></linearGradient><linearGradient id="Áåçûìÿííûé_ãðàäèåíò_141-6" x1="35.042" y1="101.435" x2="60.965" y2="101.435" xlink:href="#Áåçûìÿííûé_ãðàäèåíò_141"/><linearGradient id="Áåçûìÿííûé_ãðàäèåíò_141-7" x1="82.265" y1="119.832" x2="89.068" y2="119.832" xlink:href="#Áåçûìÿííûé_ãðàäèåíò_141"/><linearGradient id="Áåçûìÿííûé_ãðàäèåíò_141-8" x1="112.565" y1="82.845" x2="124.203" y2="82.845" xlink:href="#Áåçûìÿííûé_ãðàäèåíò_141"/><linearGradient id="Áåçûìÿííûé_ãðàäèåíò_141-9" x1="122.838" y1="53.18" x2="127.298" y2="53.18" xlink:href="#Áåçûìÿííûé_ãðàäèåíò_141"/><linearGradient id="Áåçûìÿííûé_ãðàäèåíò_141-10" x1="121.926" y1="60.875" x2="135.995" y2="60.875" xlink:href="#Áåçûìÿííûé_ãðàäèåíò_141"/><linearGradient id="Áåçûìÿííûé_ãðàäèåíò_103-2" x1="152.926" y1="42.408" x2="161.153" y2="42.408" gradientTransform="translate(-39.593 39.382) rotate(-10.3)" xlink:href="#Áåçûìÿííûé_ãðàäèåíò_103"/><linearGradient id="Áåçûìÿííûé_ãðàäèåíò_103-3" x1="157.039" y1="43.474" x2="170.17" y2="43.474" gradientTransform="translate(-39.593 39.382) rotate(-10.3)" xlink:href="#Áåçûìÿííûé_ãðàäèåíò_103"/><linearGradient id="Áåçûìÿííûé_ãðàäèåíò_141-11" x1="65.115" y1="36.238" x2="103.819" y2="36.238" xlink:href="#Áåçûìÿííûé_ãðàäèåíò_141"/><linearGradient id="Áåçûìÿííûé_ãðàäèåíò_141-12" x1="77.046" y1="56.331" x2="86.831" y2="56.331" xlink:href="#Áåçûìÿííûé_ãðàäèåíò_141"/><linearGradient id="Áåçûìÿííûé_ãðàäèåíò_141-13" x1="94.129" y1="48.144" x2="116.478" y2="48.144" xlink:href="#Áåçûìÿííûé_ãðàäèåíò_141"/><linearGradient id="Áåçûìÿííûé_ãðàäèåíò_141-14" x1="32.382" y1="56.548" x2="48.947" y2="56.548" xlink:href="#Áåçûìÿííûé_ãðàäèåíò_141"/><linearGradient id="Áåçûìÿííûé_ãðàäèåíò_141-15" x1="51.995" y1="76.075" x2="64.592" y2="76.075" xlink:href="#Áåçûìÿííûé_ãðàäèåíò_141"/><linearGradient id="Áåçûìÿííûé_ãðàäèåíò_141-16" x1="57.133" y1="85.529" x2="64.038" y2="85.529" xlink:href="#Áåçûìÿííûé_ãðàäèåíò_141"/><linearGradient id="Áåçûìÿííûé_ãðàäèåíò_148" x1="57.37" y1="78.239" x2="57.37" y2="67.126" gradientUnits="userSpaceOnUse"><stop offset="0" stop-color="#a20057"/><stop offset="0.283" stop-color="#ba2456"/><stop offset="0.568" stop-color="#ce4155"/><stop offset="0.815" stop-color="#da5354"/><stop offset="0.994" stop-color="#de5954"/></linearGradient><linearGradient id="Áåçûìÿííûé_ãðàäèåíò_148-2" x1="59.85" y1="87.246" x2="59.85" y2="81.82" xlink:href="#Áåçûìÿííûé_ãðàäèåíò_148"/><linearGradient id="Áåçûìÿííûé_ãðàäèåíò_141-17" x1="58.629" y1="74.394" x2="64.536" y2="74.394" xlink:href="#Áåçûìÿííûé_ãðàäèåíò_141"/><linearGradient id="Áåçûìÿííûé_ãðàäèåíò_148-3" x1="22.785" y1="69.178" x2="22.785" y2="58.752" xlink:href="#Áåçûìÿííûé_ãðàäèåíò_148"/><linearGradient id="Áåçûìÿííûé_ãðàäèåíò_100-5" x1="57.368" y1="73.52" x2="57.368" y2="66.517" xlink:href="#Áåçûìÿííûé_ãðàäèåíò_100"/><linearGradient id="Áåçûìÿííûé_ãðàäèåíò_141-18" x1="57.794" y1="85.888" x2="62.623" y2="85.888" xlink:href="#Áåçûìÿííûé_ãðàäèåíò_141"/><linearGradient id="Áåçûìÿííûé_ãðàäèåíò_103-4" x1="59.708" y1="85.386" x2="59.708" y2="81.761" xlink:href="#Áåçûìÿííûé_ãðàäèåíò_103"/><linearGradient id="Áåçûìÿííûé_ãðàäèåíò_141-19" x1="27.178" y1="406.171" x2="35.121" y2="406.171" gradientTransform="translate(508.075 196.75) rotate(105.504)" xlink:href="#Áåçûìÿííûé_ãðàäèåíò_141"/><linearGradient id="Áåçûìÿííûé_ãðàäèåíò_148-4" x1="29.895" y1="408.39" x2="29.895" y2="402.965" gradientTransform="translate(508.075 196.75) rotate(105.504)" xlink:href="#Áåçûìÿííûé_ãðàäèåíò_148"/><linearGradient id="Áåçûìÿííûé_ãðàäèåíò_141-20" x1="27.839" y1="407.032" x2="32.668" y2="407.032" gradientTransform="translate(508.075 196.75) rotate(105.504)" xlink:href="#Áåçûìÿííûé_ãðàäèåíò_141"/><linearGradient id="Áåçûìÿííûé_ãðàäèåíò_103-5" x1="29.752" y1="406.531" x2="29.752" y2="402.905" gradientTransform="translate(508.075 196.75) rotate(105.504)" xlink:href="#Áåçûìÿííûé_ãðàäèåíò_103"/><linearGradient id="Áåçûìÿííûé_ãðàäèåíò_153" x1="38.109" y1="112.358" x2="55.243" y2="112.358" gradientUnits="userSpaceOnUse"><stop offset="0" stop-color="#860057"/><stop offset="0.208" stop-color="#8a0a4d"/><stop offset="0.551" stop-color="#8e1343"/><stop offset="0.994" stop-color="#8f1640"/></linearGradient><linearGradient id="Áåçûìÿííûé_ãðàäèåíò_100-6" x1="38.109" y1="112.358" x2="52.229" y2="112.358" xlink:href="#Áåçûìÿííûé_ãðàäèåíò_100"/><linearGradient id="Áåçûìÿííûé_ãðàäèåíò_60-4" x1="56.859" y1="45.949" x2="56.859" y2="40" xlink:href="#Áåçûìÿííûé_ãðàäèåíò_60"/><linearGradient id="Áåçûìÿííûé_ãðàäèåíò_100-7" x1="48.947" y1="43.257" x2="64.772" y2="43.257" xlink:href="#Áåçûìÿííûé_ãðàäèåíò_100"/><linearGradient id="Áåçûìÿííûé_ãðàäèåíò_60-5" x1="22.951" y1="109.179" x2="22.951" y2="105.478" xlink:href="#Áåçûìÿííûé_ãðàäèåíò_60"/><linearGradient id="Áåçûìÿííûé_ãðàäèåíò_100-8" x1="20.62" y1="107.568" x2="25.281" y2="107.568" xlink:href="#Áåçûìÿííûé_ãðàäèåíò_100"/><linearGradient id="Áåçûìÿííûé_ãðàäèåíò_153-2" x1="116.23" y1="74.5" x2="120.784" y2="74.5" xlink:href="#Áåçûìÿííûé_ãðàäèåíò_153"/><linearGradient id="Áåçûìÿííûé_ãðàäèåíò_118-2" x1="116.23" y1="74.501" x2="120.784" y2="74.501" xlink:href="#Áåçûìÿííûé_ãðàäèåíò_118"/></defs><title>planet-10</title><g class="cls-1"><g id="Layer_2" data-name="Layer 2"><g id="planets"><g id="planet-10"><circle class="cls-2" cx="79.261" cy="79.261" r="79.261"/><circle class="cls-3" cx="79.261" cy="79.261" r="62.251" transform="translate(-32.831 79.261) rotate(-45)"/><circle class="cls-4" cx="79.261" cy="79.261" r="59.405"/><path class="cls-5" d="M93.412,113.957l16.594.949s13.739-4.14,20.591-12.864l3.223-18.168L128.5,67.255l-28.934,18.5S93,107.956,93.412,113.957Z"/><path class="cls-6" d="M129.786,79.5A53.788,53.788,0,0,1,75.94,133.33c-.955,0-1.921-.023-2.864-.079h-.012c-1.409-.069-2.807-.205-4.182-.375a53.5,53.5,0,0,1-27.5-12.115,54.855,54.855,0,0,1-12.512-15.116c-.33-.59-.648-1.193-.966-1.8,0-.023-.012-.034-.023-.057-.33-.648-.636-1.3-.932-1.955h-.011a51.744,51.744,0,0,1-2.41-6.364,48.318,48.318,0,0,1-1.261-4.819.069.069,0,0,1-.011-.045c-.239-1.148-.444-2.307-.6-3.478a52.942,52.942,0,0,1-.545-7.637c0-1.489.056-2.978.193-4.432.068-.932.17-1.852.3-2.773A52.8,52.8,0,0,1,26.9,57.254a53.889,53.889,0,0,1,49.039-31.6c.568,0,1.136.011,1.693.023.6.022,1.2.045,1.807.091a53.637,53.637,0,0,1,9.035,1.363c1.705.409,3.375.887,5.012,1.455,1.113.375,2.2.8,3.284,1.25.807.341,1.591.693,2.375,1.068.137.068.273.126.41.194a53.965,53.965,0,0,1,14.08,9.955c.591.568,1.16,1.159,1.728,1.762.375.409.75.829,1.114,1.25.625.7,1.227,1.443,1.818,2.182a53.7,53.7,0,0,1,9.91,20.275A53.692,53.692,0,0,1,129.786,79.5Z"/><path class="cls-7" d="M44.77,75.324s9.522,8.512,11.891,12.019S67,114.791,67.212,119.832s-4.556,11.849-4.556,11.849-8.082-2.276-12.6-4.973L52.785,107.9Z"/><path class="cls-8" d="M100.982,91.153l14.895,7.383s2.955,1.989,6.466-1.736a24.709,24.709,0,0,0-1.8-10.2Z"/><g class="cls-9"><path class="cls-10" d="M46.325,78.145A26.813,26.813,0,0,0,47.753,93.69a16.567,16.567,0,0,0,1.5,3.394,8.831,8.831,0,0,0,2.12,1.754c.948.722,1.809,1.543,2.741,2.282a11.233,11.233,0,0,0,3.4,1.8c2.423.862,4.855,1.507,7.411.749a11.114,11.114,0,0,0,5.794-4.262c.612-.908,1.32-1.713,1.967-2.591a13.183,13.183,0,0,0,1.433-2.951,15.837,15.837,0,0,0,.894-6.561,16.824,16.824,0,0,0-.433-3c-.257-1.021-.724-1.967-.92-3.008A23.263,23.263,0,0,0,71.9,76.487c-1.693-3.956-6.093-6.322-10.15-6.911a19.077,19.077,0,0,0-5.662.453,17.436,17.436,0,0,0-5.175,2.086,7.987,7.987,0,0,0-2.793,1.978A8.23,8.23,0,0,0,46.325,78.145Z"/><path class="cls-10" d="M62.57,106.8a10.948,10.948,0,0,1,3.334-2.173,2.384,2.384,0,0,1,2.217.5c1.327.948,1.073,3.157.023,4.277-1.916,2.044-5.519.411-5.509-2.2Z"/><path class="cls-10" d="M81.145,89.624c-.529-.715-.9-.954-.868-1.667a6.924,6.924,0,0,1,.907-2.075A6.625,6.625,0,0,1,85.051,82.7a11.462,11.462,0,0,1,3.5-.553,9.389,9.389,0,0,1,3.055.651,12.927,12.927,0,0,1,5.347,3.083,4.284,4.284,0,0,1-.027,5.3,12.945,12.945,0,0,1-3.3,2.473A16.215,16.215,0,0,1,89.523,95.9a4.193,4.193,0,0,1-2.557.121,13.435,13.435,0,0,1-2.453-.946,6.563,6.563,0,0,1-1.939-1.143A7.714,7.714,0,0,1,81.2,92.192,2.819,2.819,0,0,1,81.145,89.624Z"/><path class="cls-10" d="M77.046,79.868c-.218.7-.7,2.109.567,2.031a3.177,3.177,0,0,0,1.736-.876c1.261-1.469-1.75-2.459-2.016-1.155Z"/><path class="cls-10" d="M95.828,115.069a3.375,3.375,0,0,1-.328-3.1,29.773,29.773,0,0,1,2.688-6.051c.676-1.158,1.51-2.734,2.786-3.288a10.218,10.218,0,0,1,3.331-.784c2.425-.149,4.3,1,6.024,2.595A9.71,9.71,0,0,1,112.9,107.6a8.324,8.324,0,0,1,.729,3.995c-.356,3.649-3.534,6.233-5.885,8.726-1.856,1.966-4.954,4.435-7.846,3.385-2-.727-3.192-2.848-4.011-4.69A6.411,6.411,0,0,1,95.828,115.069Z"/><path class="cls-10" d="M92.672,105.515a3.328,3.328,0,0,0-1.115,2.189c-.126.659-.4,2.122.248,2.656.566.47,1.608-.323,2.061-.615a4.117,4.117,0,0,0,.973-.876,2.383,2.383,0,0,0,.456-.578,3.319,3.319,0,0,0,.076-1.266,1.79,1.79,0,0,0-.63-1.2,1.589,1.589,0,0,0-.909-.422C93.415,105.32,92.9,105.145,92.672,105.515Z"/><path class="cls-10" d="M72.165,129.179c-.078.212-.153.344-.043.547a3.568,3.568,0,0,0,.623.639,3.522,3.522,0,0,0,1.851.811,5.322,5.322,0,0,0,2.146.1,2.179,2.179,0,0,0,1.332-.58c.555-.718.095-1.8-.273-2.485-.282-.525-.68-1-1-1.5a6.549,6.549,0,0,0-1.336-1.4c-.608-.508-1.549-1.2-2.332-.638a3.959,3.959,0,0,0-1.346,2.348,2.819,2.819,0,0,0,.083,1.515C71.986,128.87,72.226,129.1,72.165,129.179Z"/><path class="cls-10" d="M115.845,108.292c-.427-.358-.587-.377-.541-.864a5.3,5.3,0,0,1,.284-1.506,7.524,7.524,0,0,1,2.133-2.674,4.751,4.751,0,0,1,1.665-.888,1.88,1.88,0,0,1,.9-.186,1.3,1.3,0,0,1,1.1.948,2.965,2.965,0,0,1-.585,2.426,7.2,7.2,0,0,1-1.936,2.416c-.422.264-.863.522-1.309.744a1.6,1.6,0,0,1-.88.237C116.458,108.918,115.783,108.744,115.845,108.292Z"/><path class="cls-10" d="M27.95,70.967c.113.476.135.971.288,1.436a6.422,6.422,0,0,0,1.706,2.457,9.853,9.853,0,0,0,5.044,2.215,15.82,15.82,0,0,0,2.881.36c.774.009,1.595.174,2.362.114a8.322,8.322,0,0,0,3.627-1.124c1.642-.972,2.986-2.484,2.445-4.482a6.448,6.448,0,0,0-1.81-2.807A9.7,9.7,0,0,0,41.8,66.887c-.494-.227-1-.456-1.505-.657a9.457,9.457,0,0,0-1.833-.689,13.95,13.95,0,0,0-1.64-.327,13.022,13.022,0,0,0-1.641.017A8.853,8.853,0,0,0,29.9,67.9c-.533.547-.987,1.16-1.518,1.7A1.736,1.736,0,0,0,27.95,70.967Z"/><path class="cls-10" d="M67.836,57.428a3.375,3.375,0,0,0-.814,2.012,10.966,10.966,0,0,0,.3,3.647c.706,2.784,2.888,5.028,4.75,7.126a33.933,33.933,0,0,0,10.7,8.549c1.654.777,3.406,1.66,5.3,1.411a30.494,30.494,0,0,0,5.246-1.484,29.1,29.1,0,0,1,4.779-1.161c.747-.1,1.495-.2,2.245-.285a17.433,17.433,0,0,0,3.053-.863c1.506-.442,3.074-.71,4.565-1.189a12.706,12.706,0,0,0,1.978-.83c1.043-.541,2.161-.861,3.2-1.433a13.234,13.234,0,0,0,6.662-10.764,12.168,12.168,0,0,0-1.847-6.512c-.641-1.084-1.452-2.059-2.161-3.1a23.268,23.268,0,0,0-3.18-3.681,18.3,18.3,0,0,0-7.512-4.323,15.186,15.186,0,0,0-4.706-.692,39.462,39.462,0,0,0-7.617.859c-2.492.5-5.016,1.036-7.464,1.726a51.291,51.291,0,0,0-7.6,2.962,15.357,15.357,0,0,0-6.283,4.989c-.36.51-.776,1-1.119,1.515a3.369,3.369,0,0,1-.812,1.016C68.772,57.458,68.1,57.577,67.836,57.428Z"/></g><path class="cls-11" d="M121.926,67.187l7.86,12.308s.249-8.229-.908-9.886S121.926,67.187,121.926,67.187Z"/><path class="cls-12" d="M28.237,57.9s15.376,9.925,57.43,8.051l16.931,1.3s16.09-5.474,19.745-15.093c0,0-4.752-6.852-5.865-8.1s-20.914,3.024-20.914,3.024Z"/><path class="cls-13" d="M30.5,47.5V44.372A178.2,178.2,0,0,1,53,21.311s36.391-3.217,46.727,0l4.092,9.357,12.058,4.575.6,8.817s-7.922,12.589-22.349,16.985l-7.3-1.731s-7.991,3.309-29.094,3.309c-21.561,0-29.5-4.723-29.5-4.723V50.665Z"/><path class="cls-14" d="M60.965,115.726l-3.534,9.228-10.9,2.591-11.024-.5s-11.694-7.421-17.3-19.15l1.216-10.671L15.29,93.405s-1-9.966,7.3-19.07c0,0,9.149-2.545,22.184.989l8.035,8.91S59.385,96.781,60.965,115.726Z"/><path class="cls-15" d="M75.29,122.033s2.473,3.27,3.981,3.916,9.905,2.584,10.874,2.476.969-8.974.431-10.409a9.806,9.806,0,0,0-1.508-2.572Z"/><path class="cls-16" d="M136,55.254l-.42,3.512-6.126,11.41c-3.432.091-7.091-2.648-7.523-2.989-.012-.011-.034-.023-.046-.034-2.455-4-3.318-12.8-3.318-12.8l2.864-3.534,4.693-.853,1.182.694,4.16-1.171,3.262,2.08.965.625Z"/><path class="cls-17" d="M123.18,72.383S116.337,68.639,113,68.765l-8.539,5.848s-3.47,9.413-3.477,16.54c0,0,8.231,2.969,14.02,2.154,0,0,6.612-2.942,8.9-7.775C123.9,85.532,124.8,77.24,123.18,72.383Z"/><path class="cls-18" d="M30.5,44.372a132.443,132.443,0,0,0,33.264-3.957s17.657-6.195,21.1-8.565S99.727,21.311,99.727,21.311,81.639,16.8,53,21.311C53,21.311,37.938,32.563,30.5,44.372Z"/><path class="cls-19" d="M103.819,30.668S92.837,43.33,91.545,44.372s-19.188,8.251-19.188,8.251l-10.1,2.592s12.632-.1,14.786,0L81.065,51.3l13.925.574s12.776-7.709,20.887-16.631Z"/><path class="cls-20" d="M28.237,50.665l11.2,1.066s7.465.323,11.772-1.131c0,0-14.991-.732-20.7-3.1Z"/><path class="cls-21" d="M104.459,74.613s4.89,1.834,8.106,1.618,10.615-3.848,10.615-3.848S119.788,69.418,113,68.765Z"/><path class="cls-22" d="M15.288,93.41s14.783-3.231,18.842-4.863S44.766,75.328,44.766,75.328s-8.121-3.768-22.18-.994C22.586,74.334,13.826,82.485,15.288,93.41Z"/><path class="cls-23" d="M19.429,97.227s10.354-1.361,14.009-2.365,9.379-4.544,9.379-4.544-4.385,9.984-5.968,12.244c0,0-12.3,4.635-18.638,5.335A35.025,35.025,0,0,1,19.429,97.227Z"/><path class="cls-24" d="M74.749,119.57s2.368-5.187,5.168-6.295c0,0,6.675.062,9.151,2.169l-1.615,9.828-9.259-.632S74.749,122.882,74.749,119.57Z"/><path class="cls-25" d="M74.749,119.57a11.074,11.074,0,0,0,5.6,0c2.692-.835,6.03-5.179,6.03-5.179s-2.154-1.407-6.46-1.116C79.917,113.275,75.5,115.13,74.749,119.57Z"/><path class="cls-26" d="M60.965,115.726l-3.534,9.228-10.9,2.591-11.024-.5s10.922-.67,11.251-2.284,1.068-6.24,1.068-6.24c-2.682-8.068-10.978-15.956-10.978-15.956,3.466-4.887,5.967-12.251,5.967-12.251l-4.705,2.625-3.069-4.9c5.091-4.534,9.728-12.717,9.728-12.717l8.035,8.91S59.385,96.781,60.965,115.726Z"/><polygon class="cls-27" points="82.265 118.524 87.453 125.272 89.068 115.444 86.377 114.391 82.265 118.524"/><path class="cls-28" d="M112.565,76.231a70.667,70.667,0,0,1,2.02,8.806c.216,2.583.417,8.27.417,8.27s4.968-1.679,8.9-7.775c0,0,1.037-7.1-.719-13.149C123.18,72.383,116.682,75.718,112.565,76.231Z"/><path class="cls-29" d="M122.838,55.365l1.31,1.027s2.861-1.163,2.954-2.638.2-3.091.2-3.091l-1.173-.695Z"/><path class="cls-30" d="M136,55.254l-.42,3.512-6.126,11.41c-3.432.091-7.091-2.648-7.523-2.989a11.7,11.7,0,0,0,6.33,1.852,48.672,48.672,0,0,0,0-5.864,40.578,40.578,0,0,0-1.841-6.785l8.308-4.818.965.625Z"/><path class="cls-31" d="M126.125,49.968l-3.287,5.4a5.67,5.67,0,0,1-4.276-1.005l2.863-3.537Z"/><path class="cls-32" d="M127.3,50.663l-.2,3.091a11.4,11.4,0,0,1-3.9,3.131,29.393,29.393,0,0,0,6.234-1.327s5.123-2.045,6.259-3.365l-4.23-2.7Z"/><path class="cls-33" d="M65.115,39.773l10.83,11.392,15.6-6.793s11.412-12.515,12.274-13.7l-4.092-9.357S88.53,29.052,84.869,31.85,65.115,39.773,65.115,39.773Z"/><path class="cls-34" d="M81.065,51.3l5.766,8.014a52.253,52.253,0,0,1-9.066,2.047l-.719-6.146Z"/><path class="cls-35" d="M94.99,51.874l-.861,9.171s15.125-5.42,22.349-16.985l-.6-8.817S104.345,46.1,94.99,51.874Z"/><path class="cls-36" d="M32.382,51.06,42.817,62.036H48l.943-10.871S37.245,52.254,32.382,51.06Z"/><g class="cls-37"><path class="cls-38" d="M34.7,40.821c-.218-.6-.072-.818.257-1.372a22.589,22.589,0,0,1,1.858-2.393,18.858,18.858,0,0,1,4.166-4.07c1.7-1.142,3.363-2.379,5.158-3.366a27.592,27.592,0,0,1,3.782-1.845c.927-.337,1.889-.6,2.834-.892,1.85-.561,4.371-.808,6.157.14A4.521,4.521,0,0,1,60.83,29.77a2.886,2.886,0,0,1,.269,1.6,6.043,6.043,0,0,1-.582,1.515,13,13,0,0,1-3.434,3.989,28.16,28.16,0,0,1-8.9,4.846c-.866.294-1.735.621-2.626.833-.578.137-1.171.2-1.747.344a30.981,30.981,0,0,1-4.076.781,11.377,11.377,0,0,1-1.172.171,6.458,6.458,0,0,1-1-.27,6.356,6.356,0,0,1-1.84-.348C34.405,42.5,34.248,41.067,34.7,40.821Z"/><path class="cls-38" d="M56.8,39.242c.12-.559.088-.583.44-.9a4.88,4.88,0,0,1,.682-.789,5.8,5.8,0,0,1,1.053-.722c1.088-.6,2.415-1.279,3.688-.905.857.252,1.341.667,1.142,1.6a2.7,2.7,0,0,1-.965,1.388,10.116,10.116,0,0,1-2.454,1.3,4.278,4.278,0,0,1-2.333.284C57.406,40.361,56.714,39.653,56.8,39.242Z"/><path class="cls-38" d="M75.61,23.738A7.432,7.432,0,0,0,73.269,24.8a39.13,39.13,0,0,0-3.662,2.644,9.3,9.3,0,0,0-1.884,2.171,4.9,4.9,0,0,0-.56,2.136c-.058.756.181,2.109,1,2.447a3.751,3.751,0,0,0,1.2.017,7.707,7.707,0,0,0,2.051-.294c.694-.172,1.394-.218,2.085-.422s1.4-.4,2.11-.578A22.94,22.94,0,0,0,80.049,31.5c1.352-.644,2.755-1.178,4.081-1.877.957-.5,1.891-1.019,2.879-1.465,1.363-.616,2.728-1.22,4.039-1.939A5.662,5.662,0,0,0,92.423,25.1a7.813,7.813,0,0,0,1.264-1.345,2.465,2.465,0,0,0,.469-.987c-.013-.379-.558-.846-.841-1.023a4.6,4.6,0,0,0-1.758-.57,14.551,14.551,0,0,0-2.618-.151,26.489,26.489,0,0,0-3.146.408,11.034,11.034,0,0,1-1.953.3,24.809,24.809,0,0,0-3.636.3,18.342,18.342,0,0,0-2.045.546,11.9,11.9,0,0,0-1.852.578C76.018,23.3,74.958,23.539,75.61,23.738Z"/><path class="cls-38" d="M72.739,21.728A4.4,4.4,0,0,0,70.7,23.066c-.262.45.1.539.5.542a8.252,8.252,0,0,0,2.1-.516,4.825,4.825,0,0,0,1.509-.724c.207-.15.621-.3.482-.612-.082-.183-.51-.376-.688-.43a2.211,2.211,0,0,0-2.014.4Z"/><path class="cls-38" d="M96.282,42.543c-.6.2-1.192.3-1.778.48a6.031,6.031,0,0,0-1.643.915,7.787,7.787,0,0,0-2.337,2.348c-.44.788-.916,2.221.009,2.867,1.273.889,3.258-.014,4.529-.436a20.043,20.043,0,0,0,5.876-2.723A26.8,26.8,0,0,0,103,44.158a15.585,15.585,0,0,0,1.578-1.75,2.217,2.217,0,0,0,.327-1.587,1.569,1.569,0,0,0-1.037-1.119c-.942-.372-1.745.072-2.67.223a9.245,9.245,0,0,0-2.955.927C96.932,41.6,95.543,42.235,96.282,42.543Z"/><path class="cls-38" d="M99.584,37.232a1.5,1.5,0,0,1-.294-.708c.291-.076.456-.411.653-.6a2.385,2.385,0,0,1,.59-.371c.344-.169.966-.462,1.354-.313a1.115,1.115,0,0,1,.539,1.7,2.519,2.519,0,0,1-1.877,1.258c-.57.074-1.805-.735-1.109-1.406Z"/><path class="cls-38" d="M108.054,35.222a6.483,6.483,0,0,0-1.627.327c-.1.049-.225.2-.326.272a15.026,15.026,0,0,0-1.5.992c-.489.426-1.031,1.2-.775,1.87.885,2.326,4.124,1.029,5.6.206a12.9,12.9,0,0,0,1.276-1.005,3.238,3.238,0,0,0,.867-.784,1.27,1.27,0,0,0,.184-1.454,1.548,1.548,0,0,0-1.109-.822,4.8,4.8,0,0,0-1.227-.184,6.173,6.173,0,0,0-2.651,1.156Z"/><path class="cls-38" d="M23.356,77a12.494,12.494,0,0,0-5.462,4.882,18,18,0,0,0-1.4,2.977c-.2.542-.279,1.114-.49,1.651a7.224,7.224,0,0,0-.466,1.406c-.2,1.14-.738,3.456,1.094,3.606a9.661,9.661,0,0,0,2.58-.3,21.758,21.758,0,0,0,4.678-1.65,23.016,23.016,0,0,0,4.653-2.737,43.956,43.956,0,0,0,3.982-3.127c1.425-1.443,3.483-3.809,1.876-5.863-1.519-1.941-4.8-1.5-6.92-1.243a18.48,18.48,0,0,0-3.1.426,3.92,3.92,0,0,0-.707.291C23.522,77.4,23.393,77.57,23.356,77Z"/><path class="cls-38" d="M31.252,86.615a1.891,1.891,0,0,1,.549-1.054c.37-.356.7-.743,1.059-1.11a4.759,4.759,0,0,1,2.561-1.291,1.454,1.454,0,0,1,1.152.29c.286.314.15.937,0,1.288a2.2,2.2,0,0,1-.609.871,6.849,6.849,0,0,1-1.116.916,9.371,9.371,0,0,1-1.7.631c-.454.134-1.156.367-1.586,0C31.311,86.945,31.069,86.439,31.252,86.615Z"/><path class="cls-38" d="M25.079,98.386a4.746,4.746,0,0,0-1.6.47,4.631,4.631,0,0,0-.955,1.016c-.564.742-1.05,1.541-1.612,2.286a20.347,20.347,0,0,0-1.28,1.947,1.3,1.3,0,0,0-.157,1.358c.633,1.214,2.6.92,3.653.667a19.575,19.575,0,0,0,3.222-1.291c.958-.421,1.957-.782,2.878-1.28,1.587-.857,3.519-1.729,4.377-3.418a2.034,2.034,0,0,0,.173-1.886,2.966,2.966,0,0,0-1.368-1.461,4.09,4.09,0,0,0-2.04-.276,10.565,10.565,0,0,0-3.009.425c-.6.181-1.23.476-1.812.716C24.646,98.028,24.186,98.761,25.079,98.386Z"/><path class="cls-38" d="M19.48,99.391a2.06,2.06,0,0,1,.022-.718c.422-.129.605-.6,1.133-.437a.663.663,0,0,1,.353.868c-.192.609-1.68,1.872-1.652.574Z"/><path class="cls-38" d="M113.509,70.68q-1.075.045-2.144.166a3.152,3.152,0,0,1-.618.392,10,10,0,0,0-2.05,1.223c-.517.446-1.738,1.233-1.665,2.063.067.761,1.172.908,1.759.912s1.206-.131,1.808-.163c.834-.043,1.656-.147,2.485-.247a8.325,8.325,0,0,0,3.124-.859,4.33,4.33,0,0,0,1.336-1.162c.184-.232.464-.465.406-.788a2.384,2.384,0,0,0-.587-.787,3.08,3.08,0,0,0-.834-.469C115.161,70.35,113.6,70.83,113.509,70.68Z"/><path class="cls-38" d="M78.338,116.618c-.579.255-.939.314-1.2.852-.095.2-.405.623-.4.886.011.359.374.342.678.26a4.578,4.578,0,0,0,1.115-.675,2.786,2.786,0,0,0,.673-.609.885.885,0,0,0,.271-.428c.037-.185-.06-.35.126-.468-.12-.832-1.69.312-1.985.325Z"/><path class="cls-38" d="M82.357,115.039a3.349,3.349,0,0,0-1.952,1.589.921.921,0,0,0-.136.852c.466.905,1.462.1,1.976-.288a7.162,7.162,0,0,0,1.047-.784c.138-.15.231-.321.357-.476.114-.14.336-.292.409-.462.144-.337-.088-.591-.4-.689-.589-.185-1.036.2-1.588.258Z"/><path class="cls-38" d="M35.415,95.372c-.265.571-1.222,2.723.047,2.711,1.108-.011,2.916-1.206,2.975-2.424.04-.814-.613-1.21-1.371-1.3-.965-.111-1.526.656-1.938,1.441Z"/><path class="cls-38" d="M38.716,76.853c-.247.34-.6.628-.248.975a1.009,1.009,0,0,0,.6.313c.485.067,1.2-.369,1.229-.857a.991.991,0,0,0-.434-.865c-.392-.286-.663-.105-1,.147Z"/></g><path class="cls-39" d="M52,42.942s6.414-1.974,7.829-2.532,8.569-1.719,8.569-1.719,6.14-2.637,7.863-3.448,6.1-2.964,6.1-2.964l5.1-2.337s-3.448,3.539-6.463,4.7S70.3,38.883,70.3,38.883s-2.3.64-5.527,1.683S52,42.942,52,42.942Z"/><path class="cls-40" d="M91.922,51.761l2.945,1.419s3.046-1.812,3.522-3.55C98.389,49.63,92.621,51.218,91.922,51.761Z"/><polygon class="cls-40" points="75.664 55.215 77.146 56.07 78.215 54.076 75.664 55.215"/><path class="cls-41" d="M52,74.394s3.481,3.479,11.126,5.822c0,0,.538-.559,1.184-3.846s0-4.435,0-4.435S54.92,73.12,52,74.394Z"/><path class="cls-42" d="M57.133,84.789a6.006,6.006,0,0,0,.533,1.96c.43.8,5.257,2,5.9,1.735,1.184-.5-.154-3.377-.656-4.238a10.7,10.7,0,0,0-1.324-1.711Z"/><path class="cls-40" d="M27.162,105.82a79.127,79.127,0,0,0,8.576-4.385c2.045-1.47,5.118-6.768,5.118-6.768l-3.288,8.169-2.189.826-2.333.5Z"/><path class="cls-40" d="M31.188,89.513l5.553-3.129s-.523,1.783-1.32,2.263A19.625,19.625,0,0,1,31.188,89.513Z"/><path class="cls-43" d="M110.635,76.163l2.462,1.985s.6-1.624.723-2.141S110.635,76.163,110.635,76.163Z"/><path class="cls-40" d="M124.727,56.681l3.532-1.138,3.1-.81s-3.457,1.828-4.056,2.152S124.727,56.681,124.727,56.681Z"/><polygon class="cls-40" points="121.926 55.45 123.201 54.458 123.201 55.65 121.926 55.45"/><polygon class="cls-43" points="79.395 119.797 83.617 117.399 83.114 119.627 79.395 119.797"/><path class="cls-44" d="M32.077,51.06s3.22-.262,5.109-.262,5.622.367,5.622.367l3.617.356s-2.074.169-6.452.24A38.009,38.009,0,0,1,32.077,51.06Z"/><path class="cls-45" d="M50.2,71.384s3.3-3.671,4.737-4.2,8.171,2.55,9.357,2.986-2.282,7.259-3.164,7.975S50.344,75.246,50.2,71.384Z"/><path class="cls-46" d="M62.567,86.746c-.306.875-3.318.42-4.4,0L58.09,86.7l-.228-.159a.134.134,0,0,1-.056-.057,4.545,4.545,0,0,1-.432-4.114S60,81.563,60.965,81.9c.625.216,1.25,1.83,1.523,3.171v.011A4.093,4.093,0,0,1,62.567,86.746Z"/><path class="cls-47" d="M58.629,73.448l2.5,4.7s3.2-3.49,3.405-7.507Z"/><path class="cls-48" d="M26.248,58.752l-6.066,1.471a21,21,0,0,0-.846,4.973l3.76,3.982S24.26,62.041,26.248,58.752Z"/><path class="cls-49" d="M50.2,71.384A26.568,26.568,0,0,0,56.8,73.448c3.633.605,7.74-2.807,7.74-2.807a18.869,18.869,0,0,0-9.49-4.124S51.385,68.606,50.2,71.384Z"/><path class="cls-50" d="M62.567,86.746c-.306.875-3.318.42-4.4,0L58.09,86.7l-.228-.159-.068-.045.012-.012.818-1.136,3.364-.818.5.545v.011A4.093,4.093,0,0,1,62.567,86.746Z"/><path class="cls-51" d="M57.37,82.365s-.063,2.406.96,2.888,3.353-.487,3.66-.719S61.278,82.1,60.4,81.82,57.37,82.365,57.37,82.365Z"/><path class="cls-52" d="M109.653,114.433a5.991,5.991,0,0,0-2.031-.011c-.885.2-2.319,4.826-2.319,5.519,0,2.73,3.172,1.955,4.136,1.7s1.2-2.32,1.2-2.32Z"/><path class="cls-53" d="M106.315,119.146c-.761-.529.481-3.31,1.175-4.238l.065-.065.214-.176a.129.129,0,0,1,.07-.039,4.543,4.543,0,0,1,4.08.683s.076,2.745-.511,3.585c-.375.545-2.1.716-3.462.62l-.011,0A4.09,4.09,0,0,1,106.315,119.146Z"/><path class="cls-54" d="M106.315,119.146c-.761-.529.481-3.31,1.175-4.238l.065-.065.214-.176.062-.053.008.014.877,1.092-.111,3.46-.659.336-.011,0A4.09,4.09,0,0,1,106.315,119.146Z"/><path class="cls-55" d="M111.925,115.309s-2.3-.7-3.04.152-.426,3.362-.284,3.72,2.532-.037,3.041-.811S111.925,115.309,111.925,115.309Z"/><polygon class="cls-56" points="38.109 110.324 43.734 110.719 52.433 110.324 55.243 111.308 52.229 110.875 46.425 113.603 46.002 114.391 42.817 113.531 38.109 110.324"/><polygon class="cls-57" points="38.109 110.324 42.817 113.235 44.495 112.975 47.025 112.76 52.229 110.875 46.425 113.603 46.002 114.391 42.395 113.729 38.109 110.324"/><polygon class="cls-58" points="48.947 43.235 53.521 45.949 58.629 45.548 64.772 40.566 56.859 40 51.995 41.252 48.947 43.235"/><path class="cls-59" d="M48.947,43.235H50.47l2.8.62h3.014l3.284-1.294,3.6-1.995h1.6a35.017,35.017,0,0,1-6.143,4.982l-5.108.4Z"/><path class="cls-60" d="M20.62,107.509l2.165-2.031,2.362.342a7.168,7.168,0,0,1,0,2.687c-.3,1.184-2.362.444-2.362.444Z"/><path class="cls-61" d="M20.62,107.509a23.725,23.725,0,0,0,2.539.711,3.119,3.119,0,0,0,1.579-.323c.359-.287.409-2.077.409-2.077a7.408,7.408,0,0,1,0,2.687s-.05.861-1.575.807l-1-.3Z"/><path class="cls-62" d="M116.23,75.324a5.332,5.332,0,0,1,1.316-1.8c.754-.543,2.961-.482,2.961-.482l.277.482s-.761,1.949-1.354,2.291a3.144,3.144,0,0,1-1.83,0Z"/><path class="cls-63" d="M120.507,73.038a7.036,7.036,0,0,1-1.319,1.662,7.867,7.867,0,0,1-1.23.619,6.039,6.039,0,0,1-1.728,0,6.949,6.949,0,0,0,2.277.639s1.131.018,1.3-.152a23.963,23.963,0,0,0,.981-2.291Z"/></g></g></g></g></svg>