<svg xmlns="http://www.w3.org/2000/svg" xmlns:xlink="http://www.w3.org/1999/xlink" viewBox="0 0 158.522 158.522"><defs><style>.cls-1{isolation:isolate;}.cls-10,.cls-2,.cls-3,.cls-31,.cls-4{mix-blend-mode:screen;}.cls-2{fill:url(#radial-gradient);}.cls-3{fill:url(#radial-gradient-2);}.cls-4{fill:url(#radial-gradient-3);}.cls-10,.cls-11,.cls-12,.cls-13,.cls-14,.cls-15,.cls-16,.cls-17,.cls-18,.cls-19,.cls-20,.cls-21,.cls-22,.cls-23,.cls-24,.cls-25,.cls-26,.cls-27,.cls-28,.cls-29,.cls-30,.cls-31,.cls-32,.cls-33,.cls-34,.cls-35,.cls-36,.cls-37,.cls-38,.cls-39,.cls-40,.cls-41,.cls-42,.cls-43,.cls-44,.cls-45,.cls-46,.cls-5,.cls-6,.cls-7,.cls-8,.cls-9{fill-rule:evenodd;}.cls-5{fill:url(#Áåçûìÿííûé_ãðàäèåíò_64);}.cls-6{fill:url(#Áåçûìÿííûé_ãðàäèåíò_59);}.cls-7{fill:url(#Áåçûìÿííûé_ãðàäèåíò_50);}.cls-14,.cls-31,.cls-8{opacity:0.5;}.cls-14,.cls-27,.cls-29,.cls-32,.cls-34,.cls-36,.cls-39,.cls-45,.cls-46,.cls-8,.cls-9{mix-blend-mode:multiply;}.cls-8{fill:url(#Áåçûìÿííûé_ãðàäèåíò_21);}.cls-9{opacity:0.89;fill:url(#Áåçûìÿííûé_ãðàäèåíò_19);}.cls-10{fill:url(#Áåçûìÿííûé_ãðàäèåíò_600);}.cls-11{fill:url(#Áåçûìÿííûé_ãðàäèåíò_10);}.cls-12{fill:url(#Áåçûìÿííûé_ãðàäèåíò_31);}.cls-13{fill:url(#Áåçûìÿííûé_ãðàäèåíò_35);}.cls-14{fill:url(#Áåçûìÿííûé_ãðàäèåíò_21-2);}.cls-15{fill:url(#Áåçûìÿííûé_ãðàäèåíò_107);}.cls-16{fill:url(#Áåçûìÿííûé_ãðàäèåíò_69);}.cls-17{fill:url(#Áåçûìÿííûé_ãðàäèåíò_39);}.cls-18{fill:url(#Áåçûìÿííûé_ãðàäèåíò_182);}.cls-19{fill:url(#Áåçûìÿííûé_ãðàäèåíò_73);}.cls-20{fill:url(#Áåçûìÿííûé_ãðàäèåíò_58);}.cls-21{fill:url(#Áåçûìÿííûé_ãðàäèåíò_144);}.cls-22{fill:url(#Áåçûìÿííûé_ãðàäèåíò_200);}.cls-23{fill:url(#Áåçûìÿííûé_ãðàäèåíò_107-2);}.cls-24{fill:url(#Áåçûìÿííûé_ãðàäèåíò_166);}.cls-25{fill:url(#Áåçûìÿííûé_ãðàäèåíò_188);}.cls-26{fill:url(#Áåçûìÿííûé_ãðàäèåíò_212);}.cls-27,.cls-29,.cls-32,.cls-34,.cls-36{opacity:0.4;}.cls-27{fill:url(#Áåçûìÿííûé_ãðàäèåíò_271);}.cls-28{fill:url(#Áåçûìÿííûé_ãðàäèåíò_212-2);}.cls-29{fill:url(#Áåçûìÿííûé_ãðàäèåíò_271-2);}.cls-30{fill:url(#Áåçûìÿííûé_ãðàäèåíò_224);}.cls-31{fill:url(#Áåçûìÿííûé_ãðàäèåíò_234);}.cls-32{fill:url(#Áåçûìÿííûé_ãðàäèåíò_271-3);}.cls-33{fill:url(#Áåçûìÿííûé_ãðàäèåíò_253);}.cls-34{fill:url(#Áåçûìÿííûé_ãðàäèåíò_226);}.cls-35{fill:url(#Áåçûìÿííûé_ãðàäèåíò_250);}.cls-36{fill:url(#Áåçûìÿííûé_ãðàäèåíò_226-2);}.cls-37{fill:#e5bdfa;}.cls-38{fill:#ffa5f7;}.cls-39,.cls-45,.cls-46{opacity:0.71;}.cls-39{fill:url(#Áåçûìÿííûé_ãðàäèåíò_16);}.cls-40{fill:url(#Áåçûìÿííûé_ãðàäèåíò_50-2);}.cls-41{fill:url(#Áåçûìÿííûé_ãðàäèåíò_35-2);}.cls-42{fill:url(#Áåçûìÿííûé_ãðàäèåíò_107-3);}.cls-43{fill:url(#Áåçûìÿííûé_ãðàäèåíò_159);}.cls-44{fill:url(#Áåçûìÿííûé_ãðàäèåíò_165);}.cls-45{fill:url(#Áåçûìÿííûé_ãðàäèåíò_16-2);}.cls-46{fill:url(#Áåçûìÿííûé_ãðàäèåíò_16-3);}</style><radialGradient id="radial-gradient" cx="79.261" cy="79.261" r="79.261" gradientUnits="userSpaceOnUse"><stop offset="0" stop-color="#9813ff"/><stop offset="1" stop-opacity="0"/></radialGradient><radialGradient id="radial-gradient-2" cx="84.511" cy="83.775" r="66.801" gradientTransform="translate(83.991 -35.221) rotate(45)" xlink:href="#radial-gradient"/><radialGradient id="radial-gradient-3" cx="78.553" cy="78.105" r="63.747" gradientTransform="translate(78.236 -32.669) rotate(45)" xlink:href="#radial-gradient"/><linearGradient id="Áåçûìÿííûé_ãðàäèåíò_64" x1="119.891" y1="58.86" x2="125.006" y2="26.567" gradientUnits="userSpaceOnUse"><stop offset="0" stop-color="#8931b3"/><stop offset="1" stop-color="#8e8cff"/></linearGradient><linearGradient id="Áåçûìÿííûé_ãðàäèåíò_59" x1="398.931" y1="491.08" x2="400.704" y2="479.883" gradientTransform="matrix(-0.985, -0.172, 0.172, -0.985, 424.635, 691.678)" gradientUnits="userSpaceOnUse"><stop offset="0" stop-color="#8e8cff"/><stop offset="1" stop-color="#8931b3"/></linearGradient><radialGradient id="Áåçûìÿííûé_ãðàäèåíò_50" cx="54.811" cy="52.507" r="90.243" gradientUnits="userSpaceOnUse"><stop offset="0.006" stop-color="#ffb8e2"/><stop offset="0.223" stop-color="#fdb7e3"/><stop offset="0.332" stop-color="#f5b5e5"/><stop offset="0.417" stop-color="#e8b0e9"/><stop offset="0.489" stop-color="#d5aaef"/><stop offset="0.552" stop-color="#bda2f7"/><stop offset="0.584" stop-color="#ae9dfc"/><stop offset="0.638" stop-color="#a996fc"/><stop offset="0.717" stop-color="#9a83fd"/><stop offset="0.81" stop-color="#8163fe"/><stop offset="0.914" stop-color="#5f38ff"/><stop offset="0.916" stop-color="#5e37ff"/><stop offset="0.986" stop-color="#5e9aff"/></radialGradient><linearGradient id="Áåçûìÿííûé_ãðàäèåíò_21" x1="17.559" y1="46.561" x2="42.604" y2="46.561" gradientUnits="userSpaceOnUse"><stop offset="0" stop-color="#fff"/><stop offset="0.173" stop-color="#dbd0ea"/><stop offset="0.363" stop-color="#b9a3d7"/><stop offset="0.547" stop-color="#9f80c7"/><stop offset="0.718" stop-color="#8c67bc"/><stop offset="0.874" stop-color="#8057b5"/><stop offset="1" stop-color="#7c52b3"/></linearGradient><linearGradient id="Áåçûìÿííûé_ãðàäèåíò_19" x1="86.944" y1="88.007" x2="130.431" y2="88.007" gradientUnits="userSpaceOnUse"><stop offset="0" stop-color="#7c52b3"/><stop offset="0.126" stop-color="#8057b5"/><stop offset="0.282" stop-color="#8c67bc"/><stop offset="0.453" stop-color="#9f80c7"/><stop offset="0.637" stop-color="#b9a3d7"/><stop offset="0.827" stop-color="#dbd0ea"/><stop offset="1" stop-color="#fff"/></linearGradient><radialGradient id="Áåçûìÿííûé_ãðàäèåíò_600" cx="31.386" cy="32.584" r="78.77" gradientUnits="userSpaceOnUse"><stop offset="0" stop-color="#ffffd9"/><stop offset="1"/></radialGradient><linearGradient id="Áåçûìÿííûé_ãðàäèåíò_10" x1="52.153" y1="138.74" x2="56.609" y2="110.601" gradientUnits="userSpaceOnUse"><stop offset="0" stop-color="#6d109d"/><stop offset="1" stop-color="#8e8cff"/></linearGradient><linearGradient id="Áåçûìÿííûé_ãðàäèåíò_31" x1="34.39" y1="50.579" x2="14.648" y2="33.417" gradientUnits="userSpaceOnUse"><stop offset="0" stop-color="#c98eff"/><stop offset="1" stop-color="#8931b3"/></linearGradient><linearGradient id="Áåçûìÿííûé_ãðàäèåíò_35" x1="100.187" y1="113.231" x2="63.356" y2="91.967" gradientTransform="translate(35.849 -26.571) rotate(7.412)" gradientUnits="userSpaceOnUse"><stop offset="0" stop-color="#5400b3"/><stop offset="1" stop-color="#f2c0ff"/></linearGradient><linearGradient id="Áåçûìÿííûé_ãðàäèåíò_21-2" x1="61.179" y1="30.158" x2="89.461" y2="30.158" xlink:href="#Áåçûìÿííûé_ãðàäèåíò_21"/><linearGradient id="Áåçûìÿííûé_ãðàäèåíò_107" x1="85.13" y1="128.582" x2="85.13" y2="78.676" gradientTransform="translate(35.849 -26.571) rotate(7.412)" gradientUnits="userSpaceOnUse"><stop offset="0" stop-color="#644ff7"/><stop offset="1" stop-color="#9f6dff"/></linearGradient><linearGradient id="Áåçûìÿííûé_ãðàäèåíò_69" x1="92.172" y1="105.15" x2="118.513" y2="72.858" gradientUnits="userSpaceOnUse"><stop offset="0" stop-color="#935ce1"/><stop offset="0.221" stop-color="#8f5ae0"/><stop offset="0.427" stop-color="#8454dc"/><stop offset="0.627" stop-color="#714ad5"/><stop offset="0.823" stop-color="#573ccc"/><stop offset="0.994" stop-color="#392cc2"/></linearGradient><radialGradient id="Áåçûìÿííûé_ãðàäèåíò_39" cx="434.204" cy="150.275" r="22.442" gradientTransform="translate(64.09 484.877) rotate(-109.287)" gradientUnits="userSpaceOnUse"><stop offset="0" stop-color="#dea5ff"/><stop offset="1" stop-color="#8931b3"/></radialGradient><linearGradient id="Áåçûìÿííûé_ãðàäèåíò_182" x1="436.207" y1="176.837" x2="436.207" y2="150.505" gradientTransform="translate(64.09 484.877) rotate(-109.287)" gradientUnits="userSpaceOnUse"><stop offset="0" stop-color="#c287f8"/><stop offset="1" stop-color="#ccb3ff"/></linearGradient><linearGradient id="Áåçûìÿííûé_ãðàäèåíò_73" x1="74.569" y1="26.774" x2="74.569" y2="11.594" gradientUnits="userSpaceOnUse"><stop offset="0" stop-color="#9f6dff"/><stop offset="0.269" stop-color="#9b69ff"/><stop offset="0.52" stop-color="#905efd"/><stop offset="0.762" stop-color="#7e4bfb"/><stop offset="0.999" stop-color="#6431f7"/><stop offset="1" stop-color="#6431f7"/></linearGradient><linearGradient id="Áåçûìÿííûé_ãðàäèåíò_58" x1="17.89" y1="50.338" x2="17.89" y2="26.666" gradientUnits="userSpaceOnUse"><stop offset="0" stop-color="#fc9ff7"/><stop offset="1" stop-color="#f66dff"/></linearGradient><linearGradient id="Áåçûìÿííûé_ãðàäèåíò_144" x1="45.006" y1="140.797" x2="45.006" y2="121.003" gradientUnits="userSpaceOnUse"><stop offset="0" stop-color="#c282f7"/><stop offset="1" stop-color="#dc6dff"/></linearGradient><linearGradient id="Áåçûìÿííûé_ãðàäèåíò_200" x1="44.384" y1="139.33" x2="44.384" y2="124.189" gradientUnits="userSpaceOnUse"><stop offset="0" stop-color="#4848f7"/><stop offset="1" stop-color="#6d20ff"/></linearGradient><linearGradient id="Áåçûìÿííûé_ãðàäèåíò_107-2" x1="47.931" y1="134.392" x2="47.931" y2="125.082" gradientTransform="matrix(1, 0, 0, 1, 0, 0)" xlink:href="#Áåçûìÿííûé_ãðàäèåíò_107"/><linearGradient id="Áåçûìÿííûé_ãðàäèåíò_166" x1="17.473" y1="45.891" x2="17.473" y2="28.939" gradientUnits="userSpaceOnUse"><stop offset="0" stop-color="#9f6dff"/><stop offset="1" stop-color="#644ff7"/></linearGradient><linearGradient id="Áåçûìÿííûé_ãðàäèåíò_188" x1="17.949" y1="37.991" x2="19.605" y2="39.038" gradientUnits="userSpaceOnUse"><stop offset="0" stop-color="#9084ff"/><stop offset="1" stop-color="#c287f8"/></linearGradient><linearGradient id="Áåçûìÿííûé_ãðàäèåíò_212" x1="24.512" y1="89.911" x2="34.829" y2="96.433" gradientUnits="userSpaceOnUse"><stop offset="0" stop-color="#9084ff"/><stop offset="0.489" stop-color="#d08bfc"/><stop offset="1" stop-color="#ffc9f8"/></linearGradient><radialGradient id="Áåçûìÿííûé_ãðàäèåíò_271" cx="29.757" cy="92.186" r="4.961" gradientUnits="userSpaceOnUse"><stop offset="0" stop-color="#1372b3"/><stop offset="1" stop-color="#fff"/></radialGradient><linearGradient id="Áåçûìÿííûé_ãðàäèåíò_212-2" x1="29.348" y1="48.48" x2="34.104" y2="51.487" gradientTransform="translate(20.308 -14.141) rotate(4.824)" xlink:href="#Áåçûìÿííûé_ãðàäèåíò_212"/><radialGradient id="Áåçûìÿííûé_ãðàäèåíò_271-2" cx="31.766" cy="49.529" r="2.287" gradientTransform="translate(20.308 -14.141) rotate(4.824)" xlink:href="#Áåçûìÿííûé_ãðàäèåíò_271"/><linearGradient id="Áåçûìÿííûé_ãðàäèåíò_224" x1="95.654" y1="121.275" x2="85.085" y2="121.054" gradientUnits="userSpaceOnUse"><stop offset="0" stop-color="#9566fc"/><stop offset="1" stop-color="#5445b1"/></linearGradient><radialGradient id="Áåçûìÿííûé_ãðàäèåíò_234" cx="59.207" cy="94.818" r="11.174" gradientUnits="userSpaceOnUse"><stop offset="0" stop-color="#ffffe8"/><stop offset="0.201" stop-color="#bba"/><stop offset="0.415" stop-color="#79796e"/><stop offset="0.611" stop-color="#45453f"/><stop offset="0.779" stop-color="#1f1f1d"/><stop offset="0.915" stop-color="#080808"/><stop offset="1"/></radialGradient><radialGradient id="Áåçûìÿííûé_ãðàäèåíò_271-3" cx="90.35" cy="120.4" r="4.408" xlink:href="#Áåçûìÿííûé_ãðàäèåíò_271"/><linearGradient id="Áåçûìÿííûé_ãðàäèåíò_253" x1="38.819" y1="70.489" x2="67.527" y2="88.638" gradientUnits="userSpaceOnUse"><stop offset="0" stop-color="#9084ff"/><stop offset="0.118" stop-color="#9785ff"/><stop offset="0.289" stop-color="#aa87fe"/><stop offset="0.492" stop-color="#ca8afc"/><stop offset="0.528" stop-color="#d08bfc"/><stop offset="1" stop-color="#ffc9f8"/></linearGradient><linearGradient id="Áåçûìÿííûé_ãðàäèåíò_226" x1="39.189" y1="74.316" x2="67.865" y2="74.316" xlink:href="#Áåçûìÿííûé_ãðàäèåíò_271"/><linearGradient id="Áåçûìÿííûé_ãðàäèåíò_250" x1="98.341" y1="25.314" x2="112.439" y2="34.226" gradientUnits="userSpaceOnUse"><stop offset="0" stop-color="#845fff"/><stop offset="0.489" stop-color="#a972fc"/><stop offset="1" stop-color="#d4b0f8"/></linearGradient><linearGradient id="Áåçûìÿííûé_ãðàäèåíò_226-2" x1="98.074" y1="28.885" x2="111.495" y2="28.885" xlink:href="#Áåçûìÿííûé_ãðàäèåíò_271"/><linearGradient id="Áåçûìÿííûé_ãðàäèåíò_16" x1="89.209" y1="81.091" x2="124.178" y2="81.091" gradientUnits="userSpaceOnUse"><stop offset="0" stop-color="#7c52b3"/><stop offset="1" stop-color="#fff"/></linearGradient><radialGradient id="Áåçûìÿííûé_ãðàäèåíò_50-2" cx="92.376" cy="158.265" r="21.517" gradientTransform="translate(59.038 -37.597) rotate(10.236)" xlink:href="#Áåçûìÿííûé_ãðàäèåíò_50"/><linearGradient id="Áåçûìÿííûé_ãðàäèåíò_35-2" x1="366.045" y1="114.974" x2="351.701" y2="106.692" gradientTransform="translate(-125.316 409.415) rotate(-64.055)" xlink:href="#Áåçûìÿííûé_ãðàäèåíò_35"/><linearGradient id="Áåçûìÿííûé_ãðàäèåíò_107-3" x1="360.237" y1="120.489" x2="360.237" y2="101.764" gradientTransform="translate(-125.316 409.415) rotate(-64.055)" xlink:href="#Áåçûìÿííûé_ãðàäèåíò_107"/><linearGradient id="Áåçûìÿííûé_ãðàäèåíò_159" x1="379.628" y1="137.963" x2="379.628" y2="122.457" gradientTransform="translate(-111.812 452.724) rotate(-71.464)" gradientUnits="userSpaceOnUse"><stop offset="0.006" stop-color="#392cc2"/><stop offset="1" stop-color="#5f33c5"/></linearGradient><linearGradient id="Áåçûìÿííûé_ãðàäèåíò_165" x1="378.715" y1="137.888" x2="378.715" y2="122.55" gradientTransform="translate(-111.812 452.724) rotate(-71.464)" gradientUnits="userSpaceOnUse"><stop offset="0" stop-color="#5e48f7"/><stop offset="1" stop-color="#8c50ff"/></linearGradient><linearGradient id="Áåçûìÿííûé_ãðàäèåíò_16-2" x1="372.142" y1="127.87" x2="387.092" y2="127.87" gradientTransform="translate(-111.812 452.724) rotate(-71.464)" xlink:href="#Áåçûìÿííûé_ãðàäèåíò_16"/><linearGradient id="Áåçûìÿííûé_ãðàäèåíò_16-3" x1="64.248" y1="16.705" x2="84.891" y2="16.705" xlink:href="#Áåçûìÿííûé_ãðàäèåíò_16"/></defs><title>planet-13</title><g class="cls-1"><g id="Layer_2" data-name="Layer 2"><g id="planets"><g id="planet-13"><circle class="cls-2" cx="79.261" cy="79.261" r="79.261"/><circle class="cls-3" cx="84.511" cy="83.775" r="66.801" transform="translate(-34.485 84.295) rotate(-45)"/><circle class="cls-4" cx="78.553" cy="78.105" r="63.747" transform="translate(-32.221 78.422) rotate(-45)"/><path class="cls-5" d="M109.486,24.324s7.88,2.183,13.124,1.863c0,0,9.394,6.383,14.64,23.3,0,0-4.512,5.348-3.552,11.563C133.7,61.047,125.663,39.215,109.486,24.324Z"/><path class="cls-6" d="M118.128,150.542a16.78,16.78,0,0,0-5.6-.68,8.919,8.919,0,0,1-3.257-6.572,25.572,25.572,0,0,0,3.353-5.379A30.441,30.441,0,0,0,118.128,150.542Z"/><path class="cls-7" d="M134.965,73.321a59.784,59.784,0,0,1-59.85,59.838c-1.061,0-2.135-.026-3.184-.089h-.012c-1.567-.076-3.12-.227-4.649-.417A59.465,59.465,0,0,1,36.7,119.188a60.992,60.992,0,0,1-13.908-16.8c-.367-.657-.72-1.326-1.074-2,0-.025-.013-.038-.025-.063-.367-.72-.708-1.44-1.036-2.173h-.013a57.343,57.343,0,0,1-2.678-7.074,53.676,53.676,0,0,1-1.4-5.356.073.073,0,0,1-.013-.05c-.265-1.276-.492-2.565-.669-3.866a58.923,58.923,0,0,1-.606-8.488c0-1.655.063-3.31.214-4.927.076-1.036.19-2.059.329-3.082A58.666,58.666,0,0,1,20.607,48.6,59.9,59.9,0,0,1,75.115,13.47c.631,0,1.263.013,1.882.025.669.026,1.339.051,2.008.1a59.7,59.7,0,0,1,10.043,1.516c1.895.455,3.752.985,5.571,1.617,1.237.417,2.45.884,3.65,1.39.9.379,1.769.77,2.64,1.187.152.076.3.139.455.215a59.965,59.965,0,0,1,15.651,11.065c.657.632,1.289,1.289,1.92,1.958.417.455.834.923,1.238,1.39.695.783,1.364,1.6,2.021,2.425A59.635,59.635,0,0,1,133.209,58.9,59.655,59.655,0,0,1,134.965,73.321Z"/><path class="cls-8" d="M17.559,64.483s10.674,5.568,20.236-2,1.912-35.814,1.912-35.814Z"/><path class="cls-9" d="M86.944,107.5s4.829,5.806,16.647,6.444,23.626-12.924,26.338-25.211S123.866,64.03,115.25,62.1,86.944,107.5,86.944,107.5Z"/><path class="cls-10" d="M39.63,120.058a60.055,60.055,0,0,1-15-18.862A59.251,59.251,0,0,1,19.491,86.59a.08.08,0,0,1-.01-.052A60.542,60.542,0,0,1,18.2,74.185,59.847,59.847,0,0,1,78.049,14.341c1.308,0,2.595.041,3.882.124a59.574,59.574,0,0,1,11.8,1.961A59.445,59.445,0,0,0,79,13.6c-1.287-.083-2.574-.125-3.882-.125A59.823,59.823,0,0,0,15.274,73.317,60.472,60.472,0,0,0,16.551,85.67a.08.08,0,0,0,.01.052A59.251,59.251,0,0,0,21.7,100.328a60.063,60.063,0,0,0,37.788,30.763A59.717,59.717,0,0,1,39.63,120.058Z"/><path class="cls-11" d="M26.238,107.843s3.791,6.178,2.834,16.231c0,0,8.311,14.525,31.767,15.722,0,0,11.807-8.7,23.108-7.286C83.947,132.51,64.434,104.692,26.238,107.843Z"/><path class="cls-12" d="M17.559,64.483S13.627,53.632,10.1,49.8c0,0-2.713-17.233,14.839-23.137,0,0,9.452,1.8,14.77,0,0,0,2.025,11.648-5.994,24.094C26.876,61.372,17.559,64.483,17.559,64.483Z"/><path class="cls-13" d="M125.084,72.93S120.9,58.22,106.7,57.338C91.63,56.4,78.289,86.467,82.937,100.829s21.417,12.294,29.1,7.075C121.359,101.564,125.937,87.553,125.084,72.93Z"/><path class="cls-14" d="M61.179,29.732s5.1,8.628,14.978,7.683c10.787-1.03,13.67-10.163,13.268-13.78S61.179,29.732,61.179,29.732Z"/><path class="cls-15" d="M109.018,62.48C95.992,62.409,76.7,97.068,93.5,108.72c15.96,11.07,30.71-12.959,32.441-21.167S126.557,62.576,109.018,62.48Z"/><path class="cls-16" d="M102.956,108.37c-.619-.051-1.225-.139-1.794-.228-8.084-1.389-11.116-7.011-11.8-12.682a25.159,25.159,0,0,1,.859-9.79c1.529-5.1,9.727-17.066,19.112-18.746a12.119,12.119,0,0,1,10.22,2.893,12.8,12.8,0,0,1,4.623,8.956C125.441,91.683,111.761,109.153,102.956,108.37Z"/><path class="cls-17" d="M63.475,13.882s-5.982,7.681-3.03,14.588c3.13,7.324,20.675,7.014,26.344,1.418s1.145-16.272-3.732-18.144C77.5,9.611,70.167,10.014,63.475,13.882Z"/><path class="cls-18" d="M62.358,23.934c3.054,6.158,23.968,7.037,25.478-3.645,1.436-10.148-13.389-11.4-17.669-10.275S58.245,15.643,62.358,23.934Z"/><path class="cls-19" d="M84.862,17.659a4.268,4.268,0,0,1,0,.985,5.076,5.076,0,0,1-.139,1c-1.7,6.859-15.487,9.095-18.632,5.28a8.049,8.049,0,0,1-1.655-3.107c-1.074-4.207,2.678-7.579,5.167-8.881C72.672,11.318,84.18,9.663,84.862,17.659Z"/><path class="cls-20" d="M10.1,49.8c.289,3.914,19.971-14.64,14.839-23.137C24.937,26.666,8.5,28.182,10.1,49.8Z"/><path class="cls-21" d="M29.072,124.074c-1.223-6.992,34.322-2.161,31.767,15.722C60.28,143.705,31.1,135.685,29.072,124.074Z"/><path class="cls-22" d="M57.645,139.28c-.594.48-20.1-2.4-26.805-14.249-.442-.8,1.642-1.048,4.838-.669a35.59,35.59,0,0,1,4.029.72c4.624,1.073,10.068,3.171,13.757,6.5a23.144,23.144,0,0,1,2.69,2.805,9.4,9.4,0,0,1,1.68,2.955C58.15,138.421,57.923,139.066,57.645,139.28Z"/><path class="cls-23" d="M56.154,134.392a30.125,30.125,0,0,1-16.447-9.31c4.624,1.073,10.068,3.171,13.757,6.5A23.144,23.144,0,0,1,56.154,134.392Z"/><path class="cls-24" d="M22.8,32.041a41.135,41.135,0,0,1-1.718,4.317,25.359,25.359,0,0,1-6.59,8.466c-1.1.87-1.989,1.277-2.351.961-.746-.645-.621-5.414,1.662-9.845s8.466-7.595,9.1-6.906C23.3,29.464,23.366,30.255,22.8,32.041Z"/><path class="cls-25" d="M22.8,32.041a41.135,41.135,0,0,1-1.718,4.317,25.359,25.359,0,0,1-6.59,8.466A35.893,35.893,0,0,1,22.8,32.041Z"/><path class="cls-26" d="M29.071,99.426A5.91,5.91,0,0,1,27.3,97.493s0-.012-.026-.037c-1.983-3.2-3.132-8.754-1.035-9.891,2.589-1.415,6.417-.682,8.147,3.915a.04.04,0,0,0,.013.026,3.084,3.084,0,0,1,.164.48.173.173,0,0,1,.026.075,1.34,1.34,0,0,0,.1.316c.051.165.1.329.14.506C35.905,97.266,31.964,101.182,29.071,99.426Z"/><path class="cls-27" d="M34.389,91.48c-.972-1.957-4.762-4.231-7.086-2.109-2.438,2.223-.228,7.579-.026,8.085-1.983-3.2-3.132-8.754-1.035-9.891C28.831,86.15,32.659,86.883,34.389,91.48Z"/><path class="cls-28" d="M47.2,41.185a2.728,2.728,0,0,1-.738-.956s0-.006-.01-.019c-.787-1.545-1.1-4.142-.092-4.583,1.244-.55,2.974-.065,3.591,2.114a.015.015,0,0,0,.005.012,1.421,1.421,0,0,1,.056.227.08.08,0,0,1,.009.036.647.647,0,0,0,.034.149c.017.077.034.155.045.238C50.424,40.458,48.462,42.1,47.2,41.185Z"/><path class="cls-29" d="M49.952,37.741c-.371-.937-2.024-2.128-3.174-1.243-1.206.926-.4,3.472-.325,3.712-.787-1.545-1.1-4.142-.092-4.583C47.605,35.077,49.335,35.562,49.952,37.741Z"/><path class="cls-30" d="M92.019,124.729H92a1.341,1.341,0,0,1-.4.139c-.02.02-.04.04-.06.04a.78.78,0,0,0-.257.079c-.119.04-.258.079-.417.119a4.909,4.909,0,0,1-4.935-1.388,2.711,2.711,0,0,1-.536-3.231A4.754,4.754,0,0,1,86.964,119l.02-.02c2.6-1.685,7.156-2.735,8.127-1.031a3.692,3.692,0,0,1,.516,1.507C95.924,121.36,94.953,123.56,92.019,124.729Z"/><path class="cls-31" d="M42.685,91.771s3.6,5.741,13.469,5.143,11.666-5.427,12.264-9.355S67.369,78.8,67.369,78.8,45.553,82.919,42.685,91.771Z"/><path class="cls-32" d="M95.627,119.457c-.813-.694-2.5-1.546-5.253-.674a5.914,5.914,0,0,0-4.44,4.935,2.711,2.711,0,0,1-.536-3.231A4.754,4.754,0,0,1,86.964,119l.02-.02c2.6-1.685,7.156-2.735,8.127-1.031A3.692,3.692,0,0,1,95.627,119.457Z"/><path class="cls-33" d="M67.852,84.356l-.013.215c.026,15.285-22.877,13.415-26.464,5.28a22.153,22.153,0,0,1-1.226-3.688V86.15c-2.021-8.186-.757-19.15,2.893-21.664,3.84-2.64,11.217-2.7,16.586,0C65.679,67.53,68.066,76.638,67.852,84.356Z"/><path class="cls-34" d="M67.852,84.356l-.013.215s.341-9.563-4.282-14.666-13.883-6.543-19.176-.8C39.227,74.718,40.1,85.632,40.149,86.15c-2.021-8.186-.757-19.15,2.893-21.664,3.84-2.64,11.217-2.7,16.586,0C65.679,67.53,68.066,76.638,67.852,84.356Z"/><path class="cls-35" d="M110.788,36.24c-1.3.7-4.383-1.225-7.2-3.625-3.424-2.943-6.43-6.619-5.255-7.149,1.6-.721,7.5-.24,10.219,1.995A11.332,11.332,0,0,1,111.5,31.4C112.342,33.36,112.418,35.356,110.788,36.24Z"/><path class="cls-36" d="M111.5,31.4c-.012-.012-.025-.037-.037-.05-4.266-6.441-10.847-6.162-11.327-4.407s3.457,5.67,3.457,5.67c-3.424-2.943-6.43-6.619-5.255-7.149,1.6-.721,7.5-.24,10.219,1.995A11.332,11.332,0,0,1,111.5,31.4Z"/><path class="cls-37" d="M14.34,48.188S24.08,43.3,25.1,33.649C25.1,33.649,20.19,43.582,14.34,48.188Z"/><path class="cls-37" d="M86.944,96.04S87.9,76.689,101.9,65.283C101.9,65.283,85.111,73.314,86.944,96.04Z"/><path class="cls-38" d="M62.93,24.787s2.625,3.984,11.6,3.68,11.916-4.4,12.418-5.5c0,0-2.227,6.869-12.369,6.63C63.873,29.346,62.93,24.787,62.93,24.787Z"/><path class="cls-38" d="M44.384,122.3s13.6,5.49,16.359,13.392C60.743,135.691,60.44,126.622,44.384,122.3Z"/><path class="cls-39" d="M124.178,78.773V78.8s-4.622-7.981-17.443-4.482C95.24,77.449,90.273,92.239,89.364,95.46a25.159,25.159,0,0,1,.859-9.79c1.529-5.1,9.727-17.066,19.112-18.746a12.119,12.119,0,0,1,10.22,2.893A12.8,12.8,0,0,1,124.178,78.773Z"/><path class="cls-40" d="M139.747,142.847a14.253,14.253,0,0,1-16.579,11.5c-.249-.044-.5-.1-.743-.155h0c-.364-.084-.722-.185-1.073-.294a14.178,14.178,0,0,1-6.6-4.456,13.943,13.943,0,0,1-1.654-2.468,14.172,14.172,0,0,1-.9-2.063c-.058-.17-.113-.342-.167-.514,0-.006,0-.009,0-.016-.055-.184-.1-.367-.151-.553h0a13.507,13.507,0,0,1-.329-1.773,12.734,12.734,0,0,1-.1-1.316v-.013c-.008-.31-.007-.622.007-.935a14.075,14.075,0,0,1,.217-2.018c.07-.388.155-.774.259-1.147.062-.239.132-.475.208-.709a13.971,13.971,0,0,1,1.831-3.718,14.287,14.287,0,0,1,14.279-5.934c.148.027.3.057.44.086s.312.069.467.109a14.259,14.259,0,0,1,2.293.781c.425.187.838.39,1.238.615.273.151.538.312.8.481.194.127.382.256.569.391.032.024.065.045.1.069a14.3,14.3,0,0,1,3.2,3.26c.128.176.248.357.368.541.078.124.156.251.231.378.13.213.253.434.372.655a14.239,14.239,0,0,1,1.63,5.754A14.271,14.271,0,0,1,139.747,142.847Z"/><path class="cls-41" d="M129.562,124.939a8.388,8.388,0,0,0-7.779,5.488c-2.244,5.982,6.543,15.152,12.144,15.071s7.013-7.129,6.17-10.891C139.073,130.037,134.77,126.427,129.562,124.939Z"/><path class="cls-42" d="M123.872,130.132c-1.683,5.264,7.949,17.42,14.151,12.081,5.892-5.073-.611-14.056-3.253-15.786S126.138,123.044,123.872,130.132Z"/><path class="cls-43" d="M139.1,138.34c-.1.244-.2.478-.308.7-1.514,3.1-3.86,3.621-5.925,3.186a8.325,8.325,0,0,1-3.305-1.575c-1.585-1.259-4.713-6.077-4.105-10.087a5.539,5.539,0,0,1,2.31-3.774,4.357,4.357,0,0,1,3.712-.749C136.147,127.145,140.5,134.874,139.1,138.34Z"/><path class="cls-44" d="M138.8,139.037c-2.479,5.062-7.174,3.244-9.23,1.611-1.585-1.259-4.713-6.077-4.105-10.087a5.692,5.692,0,0,1,1.76-2.026C132.445,124.727,139.26,134.15,138.8,139.037Z"/><path class="cls-45" d="M131.484,126.038l.009,0s-3.372.87-3.784,6.5c-.37,5.046,4.156,8.911,5.163,9.683a8.325,8.325,0,0,1-3.305-1.575c-1.585-1.259-4.713-6.077-4.105-10.087a5.539,5.539,0,0,1,2.31-3.774A4.357,4.357,0,0,1,131.484,126.038Z"/><path class="cls-46" d="M84.862,17.659a4.268,4.268,0,0,1,0,.985c-2.4-3.524-6.821-4.307-12.392-3.107a12.535,12.535,0,0,0-8.034,6.278c-1.074-4.207,2.678-7.579,5.167-8.881C72.672,11.318,84.18,9.663,84.862,17.659Z"/></g></g></g></g></svg>