<svg xmlns="http://www.w3.org/2000/svg" xmlns:xlink="http://www.w3.org/1999/xlink" viewBox="0 0 158.522 158.522"><defs><style>.cls-1{isolation:isolate;}.cls-2,.cls-23,.cls-27,.cls-3,.cls-4{mix-blend-mode:screen;}.cls-2{fill:url(#radial-gradient);}.cls-3{fill:url(#radial-gradient-2);}.cls-4{fill:url(#radial-gradient-3);}.cls-10,.cls-11,.cls-12,.cls-13,.cls-14,.cls-15,.cls-16,.cls-17,.cls-18,.cls-19,.cls-20,.cls-21,.cls-22,.cls-23,.cls-24,.cls-25,.cls-26,.cls-28,.cls-5,.cls-6,.cls-7,.cls-8,.cls-9{fill-rule:evenodd;}.cls-5{fill:url(#Áåçûìÿííûé_ãðàäèåíò_675);}.cls-6{fill:url(#Áåçûìÿííûé_ãðàäèåíò_584);}.cls-7{fill:url(#Áåçûìÿííûé_ãðàäèåíò_569);}.cls-8{fill:url(#Áåçûìÿííûé_ãðàäèåíò_584-2);}.cls-9{fill:url(#Áåçûìÿííûé_ãðàäèåíò_569-2);}.cls-10{fill:url(#Áåçûìÿííûé_ãðàäèåíò_591);}.cls-11{fill:url(#Áåçûìÿííûé_ãðàäèåíò_569-3);}.cls-12{fill:url(#Áåçûìÿííûé_ãðàäèåíò_584-3);}.cls-13{fill:url(#Áåçûìÿííûé_ãðàäèåíò_569-4);}.cls-14{fill:url(#Áåçûìÿííûé_ãðàäèåíò_584-4);}.cls-15{fill:url(#Áåçûìÿííûé_ãðàäèåíò_569-5);}.cls-16{fill:url(#Áåçûìÿííûé_ãðàäèåíò_584-5);}.cls-17{fill:url(#Áåçûìÿííûé_ãðàäèåíò_569-6);}.cls-18{fill:#ffff45;}.cls-19,.cls-21,.cls-22{opacity:0.3;mix-blend-mode:soft-light;}.cls-19{fill:url(#Áåçûìÿííûé_ãðàäèåíò_569-7);}.cls-20{fill:url(#Áåçûìÿííûé_ãðàäèåíò_569-8);}.cls-21{fill:url(#Áåçûìÿííûé_ãðàäèåíò_569-9);}.cls-22{fill:url(#Áåçûìÿííûé_ãðàäèåíò_569-10);}.cls-23{fill:url(#Áåçûìÿííûé_ãðàäèåíò_600);}.cls-24{fill:#ffc445;}.cls-25{fill:#ffd32f;}.cls-26{fill:#ffba00;}.cls-27{fill:url(#radial-gradient-4);}.cls-28{fill:#ffff59;}</style><radialGradient id="radial-gradient" cx="79.261" cy="79.261" r="79.261" gradientTransform="translate(79.261 -32.831) rotate(45)" gradientUnits="userSpaceOnUse"><stop offset="0" stop-color="#ff9f00"/><stop offset="1" stop-opacity="0"/></radialGradient><radialGradient id="radial-gradient-2" cx="79.261" cy="79.261" r="63.109" gradientTransform="translate(138.192 -16.09) rotate(76.717)" gradientUnits="userSpaceOnUse"><stop offset="0" stop-color="#ff7300"/><stop offset="1" stop-opacity="0"/></radialGradient><radialGradient id="radial-gradient-3" cx="79.261" cy="79.261" r="60.223" gradientTransform="translate(79.261 -32.831) rotate(45)" gradientUnits="userSpaceOnUse"><stop offset="0" stop-color="#ff7900"/><stop offset="0.183" stop-color="#fc7800" stop-opacity="0.989"/><stop offset="0.315" stop-color="#f37300" stop-opacity="0.952"/><stop offset="0.432" stop-color="#e36c00" stop-opacity="0.89"/><stop offset="0.54" stop-color="#cc6100" stop-opacity="0.802"/><stop offset="0.642" stop-color="#af5300" stop-opacity="0.688"/><stop offset="0.739" stop-color="#8c4200" stop-opacity="0.548"/><stop offset="0.832" stop-color="#622e00" stop-opacity="0.383"/><stop offset="0.92" stop-color="#321800" stop-opacity="0.196"/><stop offset="1" stop-opacity="0"/></radialGradient><radialGradient id="Áåçûìÿííûé_ãðàäèåíò_675" cx="43.798" cy="54.285" r="91.979" gradientUnits="userSpaceOnUse"><stop offset="0.006" stop-color="#ffb80b"/><stop offset="0.258" stop-color="#ffb60c"/><stop offset="0.384" stop-color="#feae10"/><stop offset="0.482" stop-color="#fca117"/><stop offset="0.566" stop-color="#fa8e21"/><stop offset="0.639" stop-color="#f7762e"/><stop offset="0.662" stop-color="#f66d33"/><stop offset="0.721" stop-color="#ef6836"/><stop offset="0.806" stop-color="#dc593d"/><stop offset="0.907" stop-color="#bd4049"/><stop offset="0.983" stop-color="#a02a54"/></radialGradient><linearGradient id="Áåçûìÿííûé_ãðàäèåíò_584" x1="26.796" y1="97.911" x2="54.521" y2="97.911" gradientUnits="userSpaceOnUse"><stop offset="0.011" stop-color="#ffa90b"/><stop offset="0.371" stop-color="#ffa60e"/><stop offset="0.635" stop-color="#ff9d16"/><stop offset="0.868" stop-color="#ff8d25"/><stop offset="1" stop-color="#ff8031"/></linearGradient><linearGradient id="Áåçûìÿííûé_ãðàäèåíò_569" x1="27.774" y1="97.911" x2="53.056" y2="97.911" gradientUnits="userSpaceOnUse"><stop offset="0.011" stop-color="#ffe00b"/><stop offset="0.306" stop-color="#ffdd0d"/><stop offset="0.522" stop-color="#ffd412"/><stop offset="0.714" stop-color="#ffc41b"/><stop offset="0.889" stop-color="#ffad27"/><stop offset="1" stop-color="#ff9b31"/></linearGradient><linearGradient id="Áåçûìÿííûé_ãðàäèåíò_584-2" x1="29.251" y1="91.238" x2="40.295" y2="91.238" gradientTransform="matrix(1, -0.032, 0.032, 1, -1.576, -25.44)" xlink:href="#Áåçûìÿííûé_ãðàäèåíò_584"/><linearGradient id="Áåçûìÿííûé_ãðàäèåíò_569-2" x1="29.931" y1="91.238" x2="39.591" y2="91.238" gradientTransform="matrix(1, -0.032, 0.032, 1, -1.576, -25.44)" xlink:href="#Áåçûìÿííûé_ãðàäèåíò_569"/><linearGradient id="Áåçûìÿííûé_ãðàäèåíò_591" x1="121.773" y1="117.548" x2="121.773" y2="78.268" gradientUnits="userSpaceOnUse"><stop offset="0.011" stop-color="#ff8e0b"/><stop offset="0.348" stop-color="#fd8b0d"/><stop offset="0.594" stop-color="#f98215"/><stop offset="0.811" stop-color="#f17221"/><stop offset="1" stop-color="#e65d31"/></linearGradient><linearGradient id="Áåçûìÿííûé_ãðàäèåíò_569-3" x1="110.202" y1="97.908" x2="133.321" y2="97.908" xlink:href="#Áåçûìÿííûé_ãðàäèåíò_569"/><linearGradient id="Áåçûìÿííûé_ãðàäèåíò_584-3" x1="129.166" y1="77.353" x2="129.166" y2="62.193" xlink:href="#Áåçûìÿííûé_ãðàäèåíò_584"/><linearGradient id="Áåçûìÿííûé_ãðàäèåíò_569-4" x1="129.158" y1="76.36" x2="129.158" y2="63.187" xlink:href="#Áåçûìÿííûé_ãðàäèåíò_569"/><linearGradient id="Áåçûìÿííûé_ãðàäèåíò_584-4" x1="82.066" y1="137.594" x2="82.066" y2="128.763" xlink:href="#Áåçûìÿííûé_ãðàäèåíò_584"/><linearGradient id="Áåçûìÿííûé_ãðàäèåíò_569-5" x1="82.065" y1="136.601" x2="82.065" y2="129.756" xlink:href="#Áåçûìÿííûé_ãðàäèåíò_569"/><linearGradient id="Áåçûìÿííûé_ãðàäèåíò_584-5" x1="109.752" y1="81.884" x2="114.706" y2="44.57" xlink:href="#Áåçûìÿííûé_ãðàäèåíò_584"/><linearGradient id="Áåçûìÿííûé_ãðàäèåíò_569-6" x1="109.88" y1="80.9" x2="114.573" y2="45.554" xlink:href="#Áåçûìÿííûé_ãðàäèåíò_569"/><linearGradient id="Áåçûìÿííûé_ãðàäèåíò_569-7" x1="22.002" y1="77.08" x2="110.068" y2="77.08" xlink:href="#Áåçûìÿííûé_ãðàäèåíò_569"/><linearGradient id="Áåçûìÿííûé_ãðàäèåíò_569-8" x1="22.002" y1="65.356" x2="104.37" y2="65.356" xlink:href="#Áåçûìÿííûé_ãðàäèåíò_569"/><linearGradient id="Áåçûìÿííûé_ãðàäèåíò_569-9" x1="98.333" y1="126.042" x2="113.437" y2="126.042" xlink:href="#Áåçûìÿííûé_ãðàäèåíò_569"/><linearGradient id="Áåçûìÿííûé_ãðàäèåíò_569-10" x1="116.266" y1="46.099" x2="123.7" y2="46.099" xlink:href="#Áåçûìÿííûé_ãðàäèåíò_569"/><radialGradient id="Áåçûìÿííûé_ãðàäèåíò_600" cx="37.418" cy="42.09" r="75.367" gradientUnits="userSpaceOnUse"><stop offset="0" stop-color="#ffffd9"/><stop offset="1"/></radialGradient><radialGradient id="radial-gradient-4" cx="-313.713" cy="343.634" r="19.681" gradientTransform="matrix(1.667, 0, 0, 1.069, 583.172, -321.265)" gradientUnits="userSpaceOnUse"><stop offset="0" stop-color="#fb0"/><stop offset="0.173" stop-color="#c59000" stop-opacity="0.772"/><stop offset="0.399" stop-color="#805e00" stop-opacity="0.501"/><stop offset="0.602" stop-color="#493500" stop-opacity="0.285"/><stop offset="0.777" stop-color="#211800" stop-opacity="0.13"/><stop offset="0.915" stop-color="#090700" stop-opacity="0.035"/><stop offset="1" stop-opacity="0"/></radialGradient></defs><title>planet-19</title><g class="cls-1"><g id="Layer_2" data-name="Layer 2"><g id="planets"><g id="planet-19"><circle class="cls-2" cx="79.261" cy="79.261" r="79.261" transform="translate(-32.831 79.261) rotate(-45)"/><circle class="cls-3" cx="79.261" cy="79.261" r="63.109" transform="translate(-16.09 138.192) rotate(-76.717)"/><circle class="cls-4" cx="79.261" cy="79.261" r="60.223" transform="translate(-32.831 79.261) rotate(-45)"/><path class="cls-5" d="M136.521,81.063a57.22,57.22,0,0,1-57.26,57.26,58.486,58.486,0,0,1-7.509-.487,57.25,57.25,0,0,1-48.519-44.9.078.078,0,0,1-.009-.049A57.874,57.874,0,0,1,22,81.063,57.262,57.262,0,0,1,79.261,23.8c1.252,0,2.483.04,3.715.119a56.679,56.679,0,0,1,18.434,4.331c1,.417,1.987.864,2.96,1.341a57.323,57.323,0,0,1,32.151,51.468Z"/><path class="cls-6" d="M49.027,119.024c-4.8,0-13.635-6.992-17.834-16.008-5.255-11.251-5.3-23.08-2.756-25.259a4.3,4.3,0,0,1,2.914-.96,9.479,9.479,0,0,1,2.6.412c6.086,1.76,14.478,10.159,18.11,18.565a28.007,28.007,0,0,1,1.5,18.774c-.906,3.683-2.96,4.468-4.524,4.476h-.006Z"/><path class="cls-7" d="M52.593,114.307c-.566,2.3-1.7,3.714-3.566,3.724-4.141,0-12.8-6.565-16.934-15.434C26.819,91.3,27.117,80.2,29.084,78.511c.993-.864,2.632-.914,4.588-.348,6.148,1.778,15.415,9.7,17.421,17.848C52.8,102.944,53.646,110.105,52.593,114.307Z"/><path class="cls-8" d="M32.842,73.034a1.942,1.942,0,0,1-1.579-.667c-1.562-1.845.72-8.172,1.73-10.456,1.62-3.66,3.22-5.543,4.755-5.6a2.456,2.456,0,0,1,1.623.58H39.4l.3.287c1.751,1.748,2.562,5.719.978,8.845-1.149,2.263-4.744,6.246-7.168,6.9A2.79,2.79,0,0,1,32.842,73.034Z"/><path class="cls-9" d="M40.029,65.651c-1.123,2.212-4.714,6.161-6.921,6.758a1.23,1.23,0,0,1-1.351-.285c-1.631-1.926,3.078-15.153,6.115-15.259a1.745,1.745,0,0,1,1.3.625h.01C40.641,58.944,41.544,62.661,40.029,65.651Z"/><path class="cls-10" d="M113.809,117.548a4.117,4.117,0,0,1-4.008-2.127c-1.268-2.666-.618-12.4,3.248-21,5.734-12.777,13.6-16.154,16.966-16.154a4.708,4.708,0,0,1,.657.044,2.23,2.23,0,0,1,.353.081,3.5,3.5,0,0,1,2.189,2.077c2.265,4.7.962,16.32-2.734,24.368C127.033,112.329,118.928,117.548,113.809,117.548Z"/><path class="cls-11" d="M129.578,104.424c-4.539,9.863-16.805,14.9-18.881,10.568-1.053-2.215-.626-11.521,3.257-20.163C119.785,81.838,127.76,78.9,130.531,79.3a1.151,1.151,0,0,1,.179.04C134.633,80.309,134.037,94.71,129.578,104.424Z"/><path class="cls-12" d="M128.761,77.353a2.255,2.255,0,0,1-1.184-.315c-2.365-1.423-3.942-10.731-2.312-13.642a2.106,2.106,0,0,1,1.473-1.148,2.982,2.982,0,0,1,.574-.055c2.667,0,5.357,3.143,6.256,7.309a6.924,6.924,0,0,1-2.016,6.561A4.294,4.294,0,0,1,128.761,77.353Z"/><path class="cls-13" d="M130.879,75.333c-.973.913-2.1,1.271-2.791.854-1.9-1.143-3.357-9.8-1.957-12.306a1.174,1.174,0,0,1,.785-.656c1.947-.387,4.758,2.205,5.681,6.486A5.92,5.92,0,0,1,130.879,75.333Z"/><path class="cls-14" d="M82.854,137.594c-.349,0-.711,0-1.09-.016C75.9,137.4,71.4,134.9,70.6,132.687a1.963,1.963,0,0,1,.535-2.211c1.85-1.631,9.478-1.713,10.989-1.713,4.942,0,10.947.484,11.482,2.79a2.674,2.674,0,0,1-.814,2.488C91.433,135.537,89.563,137.594,82.854,137.594Z"/><path class="cls-15" d="M92.064,133.367c-1.391,1.529-3.14,3.429-10.27,3.218-6.929-.206-11.671-3.894-10-5.364,2.255-1.986,20.232-2.095,20.848.556A1.76,1.76,0,0,1,92.064,133.367Z"/><path class="cls-16" d="M110.586,81.894a8.623,8.623,0,0,1-8.291-5.123c-3.633-7.92-3.634-23.426-.985-29.667a4.991,4.991,0,0,1,2.428-2.926,7.766,7.766,0,0,1,2.978-.6c3.383,0,6.892,2.264,10.145,6.547,5.33,7.016,9.046,18.407,7.645,23.439a9.8,9.8,0,0,1-3.953,4.86A17.8,17.8,0,0,1,110.586,81.894Z"/><path class="cls-17" d="M123.549,73.3a8.961,8.961,0,0,1-3.576,4.321c-5,3.625-13.646,5.542-16.775-1.261-3.536-7.708-3.516-22.875-.973-28.864a4.192,4.192,0,0,1,1.887-2.393C114.908,40.629,125.645,65.768,123.549,73.3Z"/><path class="cls-18" d="M52.593,114.307c-5.592,2-14.233-5-18.742-16.4a26.073,26.073,0,0,1-.179-19.745c6.148,1.778,15.415,9.7,17.421,17.848C52.8,102.944,53.646,110.105,52.593,114.307Z"/><path class="cls-18" d="M92.064,133.367c-11.859,3.665-20.272-2.146-20.272-2.146,2.255-1.986,20.232-2.095,20.848.556A1.76,1.76,0,0,1,92.064,133.367Z"/><path class="cls-18" d="M127.691,103.54c-8.085,13.2-16.994,11.452-16.994,11.452-1.053-2.215-.626-11.521,3.257-20.163C119.785,81.838,127.76,78.9,130.531,79.3a1.151,1.151,0,0,1,.179.04A29.851,29.851,0,0,1,127.691,103.54Z"/><path class="cls-18" d="M119.973,77.617c-5,3.625-13.646,5.542-16.775-1.261-3.536-7.708-3.516-22.875-.973-28.864,2.234-.3,6.356.447,11.163,7.489C119.993,64.655,122.208,72.085,119.973,77.617Z"/><path class="cls-18" d="M130.879,75.333c-.973.913-2.1,1.271-2.791.854-1.9-1.143-3.357-9.8-1.957-12.306a8.611,8.611,0,0,1,4.321,5.889A27.055,27.055,0,0,1,130.879,75.333Z"/><path class="cls-18" d="M40.029,65.651c-1.123,2.212-4.714,6.161-6.921,6.758.141-.879,1.823-11.148,6.066-14.919h.01C40.641,58.944,41.544,62.661,40.029,65.651Z"/><path class="cls-19" d="M108.879,94.591a16.876,16.876,0,0,1-2.076,3.7,20.643,20.643,0,0,0-2.075,2.572c-1.8,3.4-1.421,7.211-2.474,10.777-.566,1.947-2.046,3.5-2.622,5.462a10.075,10.075,0,0,0-.149,2.623,4.488,4.488,0,0,1-1.231,2.642,6.49,6.49,0,0,1-2.752,2.046,7.146,7.146,0,0,1-2.721.208,21.419,21.419,0,0,1-6.029-.854c-1.817-.526-3.506-1.371-5.343-1.887a6.424,6.424,0,0,0-3.387.02,16,16,0,0,1-3.377.079c-1.927-.039-3.745,1.053-5.453,1.9a4.535,4.535,0,0,0-2.573,2.712c-.566,1.559-.546,3.009-2.423,3.625a7.213,7.213,0,0,1-3.5-.238,14.172,14.172,0,0,0-3.049-.08,11.6,11.6,0,0,1-5.513-1.49,25.512,25.512,0,0,1-5.443-4.27c-.884-.845-2.016-1.321-2.93-2.146-1.261-1.112-2.5-2.115-3.685-3.317a65.274,65.274,0,0,0-5.74-5.264,34.112,34.112,0,0,1-3.844-3.824,22.945,22.945,0,0,1-2.344-3.953,33.283,33.283,0,0,1-3.367-8.294c-.834-3.247-1.778-6.783-1.738-10.16.039-2.851-.368-5.612-.368-8.472a82.711,82.711,0,0,0,.547,14.183A57.874,57.874,0,0,1,22,81.063,57.262,57.262,0,0,1,79.261,23.8c1.252,0,2.483.04,3.715.119a56.679,56.679,0,0,1,18.434,4.331,31.838,31.838,0,0,1,4,5.174c.437.755.784,1.58,1.221,2.334.388.666.8,1.023.686,1.848a7.137,7.137,0,0,1-.606,1.559c-.636,1.53-2.414,2.652-3.774,3.5-1.9,1.192-4.112,1.679-6.129,2.722a7.069,7.069,0,0,0-2.622,2.364,21.36,21.36,0,0,0-1.43,1.589,11.106,11.106,0,0,0-1.609,6.1c.139,3.844,3.119,6.635,3.814,10.28.616,3.149.169,6.486,1.172,9.585,1.112,3.456,4.152,6.3,7,8.3a27.319,27.319,0,0,1,3.387,2.533c.973.933,2.344,1.47,3.039,2.632C110.716,90.7,109.634,92.764,108.879,94.591Z"/><path class="cls-20" d="M104.37,29.6a5.2,5.2,0,0,0-.566.079,3.647,3.647,0,0,1-1.788-.119,10.494,10.494,0,0,0-1.271-.4c-.7-.11-1.341-.408-2.036-.5a10.1,10.1,0,0,1-2.067-.636,1.947,1.947,0,0,0-1.36,0,1.939,1.939,0,0,1-1.361-.278,7.442,7.442,0,0,0-1.609-.377c-1.45-.3-2.89-.765-4.33-1.133A10.68,10.68,0,0,0,85.35,26c-.715-.01-1.361.2-2.076.2a9.122,9.122,0,0,1-1.361-.149c-.487-.09-.983.01-1.47-.06A3.438,3.438,0,0,0,78.6,26a5.321,5.321,0,0,1-1.52.189,11.228,11.228,0,0,0-1.887.328,14.131,14.131,0,0,1-3.347.427,7.856,7.856,0,0,0-2.314.039c-.418.149-.626.6-.914.894a17.729,17.729,0,0,0-1.709,1.738,3.507,3.507,0,0,0-.953,2.126,6.366,6.366,0,0,0,.675,2.175c.318.685.427,1.311-.278,1.768a10.863,10.863,0,0,1-2.92,1.41,1.786,1.786,0,0,1-1.847-.168c-.209-.179-.338-.527-.6-.666s-.546,0-.835.089a18.378,18.378,0,0,1-2.135.567c-.447.069-.834.307-1.271.387-.527.1-.9-.288-1.45-.159a13.292,13.292,0,0,1-2.324.536,3.441,3.441,0,0,1-1.759-.506c-.278-.159-.347-.318-.665-.229a1.768,1.768,0,0,0-.785.577c-.188.268-.258.615-.447.893-.2.308-.387.606-.566.934a13.284,13.284,0,0,1-1.132,1.8c-.3.4-.506.933-.834,1.3a3.984,3.984,0,0,1-.755.487c-.6.417-1.222.794-1.8,1.241-1.112.874-2.165,1.837-3.3,2.682a14.324,14.324,0,0,1-3.06,1.43c-.615.248-1.251.427-1.867.685a2.87,2.87,0,0,0-.735.318,5.643,5.643,0,0,0-.536.8,13.409,13.409,0,0,0-1.51,2.066,7.426,7.426,0,0,0-.556,1.36c-.218.646-.566,1.242-.785,1.887-.447,1.351-.536,2.762-1.033,4.1a21.849,21.849,0,0,1-1.062,2.214,12.35,12.35,0,0,0-.884,3.993,8.434,8.434,0,0,0,.079,2.454,13.413,13.413,0,0,1,.1,2.522,4.183,4.183,0,0,1-1.143,2.444c-.516.625-1.3.864-1.877,1.42a4.474,4.474,0,0,0-1.281,1.7,7.4,7.4,0,0,0-.06.954c-.129.7-.308,1.37-.407,2.086a20.857,20.857,0,0,0-.129,2.612c0,.447-.03.9-.01,1.35.02.428.179.825.209,1.252.019.3-.04.6,0,.894.059.338.188.685.268,1.013.2.8.347,1.569.5,2.364a18.728,18.728,0,0,0,.656,2.175,23.362,23.362,0,0,1,.715,2.99c.149.754.139,1.539.248,2.3.09.616.229,1.241.259,1.857.029.934-.2,1.867-.209,2.811a20.323,20.323,0,0,0,.993,4.708c.109.427.219.864.338,1.291A57.274,57.274,0,0,1,79.261,23.8c1.252,0,2.483.04,3.715.119A56.719,56.719,0,0,1,104.37,29.6Z"/><path class="cls-21" d="M99.337,124.614c1.125-.672,2.217-1.388,3.362-2.015a30.857,30.857,0,0,1,3.751-1.649c.962-.374,1.062-.4,1.84.215a3.852,3.852,0,0,0,2.47.695c1.225.01,2.558.105,2.671,1.663.156,2.136-3.072,4-4.6,4.86-1.232.7-2.571,1.167-3.855,1.756a13.194,13.194,0,0,1-3.509,1.239,2.55,2.55,0,0,1-2.389-1.112,3.87,3.87,0,0,1-.747-2.955C98.333,125.977,98.268,125.069,99.337,124.614Z"/><path class="cls-22" d="M116.4,44.57c.86,1.7,1.471,3.991,2.769,5.406a2.426,2.426,0,0,0,2.18.866,6.955,6.955,0,0,0,1.781.019c.619-.223.583-.911.56-1.516-.083-2.258-1.616-4.353-3.032-5.978-.92-1.057-2.457-2.342-3.963-2.055a5.265,5.265,0,0,0-.295,3.258Z"/><path class="cls-23" d="M45.306,125.784a57.454,57.454,0,0,1-14.352-18.046,56.7,56.7,0,0,1-4.917-13.975.075.075,0,0,1-.01-.05,57.942,57.942,0,0,1-1.221-11.819A57.26,57.26,0,0,1,82.065,24.635c1.251,0,2.483.039,3.715.119A57,57,0,0,1,97.066,26.63a56.886,56.886,0,0,0-14.09-2.707c-1.232-.079-2.463-.119-3.715-.119A57.238,57.238,0,0,0,22,81.063a57.874,57.874,0,0,0,1.222,11.82.078.078,0,0,0,.009.049,56.667,56.667,0,0,0,4.917,13.975,57.474,57.474,0,0,0,36.156,29.435A57.123,57.123,0,0,1,45.306,125.784Z"/><path class="cls-18" d="M84.878,134.684c-.162.226-.422.42-.2.66a1.151,1.151,0,0,0,.5.261,1.319,1.319,0,0,0,.953-.14.406.406,0,0,0,.047-.593.735.735,0,0,0-1.016-.282Z"/><path class="cls-18" d="M47.439,38.587A3.349,3.349,0,0,0,46,39.344c-.481.4-1,.765-1.467,1.2a3.644,3.644,0,0,0-.992,1.839c-.183.619-.355,1.316-.1,1.657.132.18.529.171.834.086a5.912,5.912,0,0,0,1.411-.739,5.7,5.7,0,0,0,1.591-1.616,9.752,9.752,0,0,0,.707-1.423,6.6,6.6,0,0,0,.307-.9.993.993,0,0,0,.038-.614C48.249,38.579,48.093,38.556,47.439,38.587Z"/><path class="cls-18" d="M54.218,37.545c-.245.2-.779.585-.356.88.115.08.214.038.336.073.095.027.118.1.227.059.345-.131.207-1.107-.181-.911Z"/><path class="cls-18" d="M55.994,41.094a1.042,1.042,0,0,1,.482-.136c.038.212.232.626-.07.791-.254.138-.177-.315-.3-.42Z"/><path class="cls-18" d="M59.458,41.194q.486.19.962.4c.1-.091.259-.074.38-.155a1.055,1.055,0,0,0,.356-.5.828.828,0,0,0-.175-.708,1.524,1.524,0,0,0-.293-.44.673.673,0,0,0-.6.007,1.377,1.377,0,0,0-.462.467,1.362,1.362,0,0,0-.268.65.773.773,0,0,0,.337.576Z"/><path class="cls-18" d="M62.372,107.429q.484.19.962.4c.1-.091.258-.074.379-.154a1.039,1.039,0,0,0,.356-.5.827.827,0,0,0-.175-.708,1.515,1.515,0,0,0-.292-.44.679.679,0,0,0-.6.007,1.379,1.379,0,0,0-.463.467,1.36,1.36,0,0,0-.267.65.769.769,0,0,0,.336.576Z"/><path class="cls-18" d="M50.215,44.3a1.176,1.176,0,0,0-.338.364c.132.166.2.323.424.388a.252.252,0,0,0,.26-.043c.094-.092.043-.194.068-.284.062-.22.123-.278,0-.479-.075-.121-.126-.17-.258-.169-.093,0-.293.025-.339.128Z"/><path class="cls-18" d="M50.95,49.429c-.024.057-.273.69.05.507A.259.259,0,0,0,51,49.523l.017-.062Z"/><path class="cls-18" d="M46.17,58.164a1.8,1.8,0,0,0-.342.691.615.615,0,0,0,.393.129c.189-.008.2-.069.2-.25a1.418,1.418,0,0,0,.03-.4c-.037-.145-.181-.292-.347-.2Z"/><path class="cls-18" d="M53.491,44.919a.743.743,0,0,1,.233.423c-.172.043-.192-.126-.218-.261-.04-.214.059-.148.159-.319l.057.012Z"/><path class="cls-18" d="M51.8,38.155a1.169,1.169,0,0,0-.338.362c.082.1.043.284.233.27.134-.009.244-.153.308-.264a.743.743,0,0,0,.091-.372c0-.07,0-.373-.125-.174Z"/><path class="cls-18" d="M73.723,34.647a2.273,2.273,0,0,1,.147-.513c.023-.04.082-.076.111-.118.095-.137.066-.16.222-.165a.578.578,0,0,1,.436.126c.482.384-.741.681-.788.309Z"/><path class="cls-18" d="M77.83,36.166c-.061.279-.24.656.017.84.222.159.687-.091.863-.251.313-.285.693-.825.394-1.223a1.3,1.3,0,0,0-.953-.385c-.584.055-.754.752-.834,1.309Z"/><path class="cls-18" d="M79.627,30.525c-.062-.478-.149-.95.276-1.2a.91.91,0,0,1,.873-.023,1.782,1.782,0,0,1,.394.5c.146.242.108.242.032.463-.175.507-.294.841-.8.842-.666,0-.768-.517-.777-1.16Z"/><path class="cls-18" d="M85.788,38.915a1.968,1.968,0,0,0,.94-.571c-.262-.163-.836-.5-.94-.008Z"/><path class="cls-24" d="M64.611,115.064a1.976,1.976,0,0,0,.94-.571c-.262-.163-.836-.5-.94-.008Z"/><path class="cls-24" d="M103.9,123.305a1.976,1.976,0,0,0,.94-.571c-.262-.163-.836-.5-.94-.008Z"/><path class="cls-18" d="M90.538,46.293c.363-.446.887-1.26,1.545-.814a.81.81,0,0,1,.126,1.219,2.749,2.749,0,0,1-1.032.43.488.488,0,0,1-.639-.546Z"/><path class="cls-24" d="M65.093,56.91c.363-.447.887-1.261,1.545-.814a.81.81,0,0,1,.126,1.219,2.749,2.749,0,0,1-1.032.43.489.489,0,0,1-.639-.546Z"/><path class="cls-24" d="M107.317,38.1c.363-.446.887-1.26,1.546-.814a.812.812,0,0,1,.125,1.22,2.765,2.765,0,0,1-1.032.43.489.489,0,0,1-.639-.546Z"/><path class="cls-24" d="M83.65,77.125c.363-.446.888-1.26,1.546-.814a.811.811,0,0,1,.126,1.219,2.746,2.746,0,0,1-1.033.43.489.489,0,0,1-.639-.546Z"/><path class="cls-18" d="M62.954,40.965c-.465.295-1.247.661-1.326,1.3a.7.7,0,0,0,.477.778,1.282,1.282,0,0,0,1.037,0,2.339,2.339,0,0,0,1.11-1.023.931.931,0,0,0-.039-.875.882.882,0,0,0-.433-.447c-.594-.207-.951.376-1.391.64Z"/><path class="cls-18" d="M64.46,39.271a1.545,1.545,0,0,1,.641.424c-.252.086-.523.286-.782.193A.581.581,0,0,1,64,39.13c.042-.176.357-.483.536-.406.091.039.109.163.139.242.062.166.066.131-.023.3Z"/><path class="cls-18" d="M38.96,49.9a4.545,4.545,0,0,0-1.234,1.587c-.135.319.105.335.4.278.561-.109,1.125-.264,1.679-.406a2.084,2.084,0,0,0,1.027-.537,1.2,1.2,0,0,0,.209-.851c-.054-.376-.321-.522-.662-.617A1.881,1.881,0,0,0,38.3,50.375Z"/><path class="cls-18" d="M39.336,52.539a2.488,2.488,0,0,1,1.113.289c-.1.118-.067.278-.12.416a1.187,1.187,0,0,1-.455.527,1.449,1.449,0,0,1-1.153.137c-1.03-.391.55-1.613.9-1.181Z"/><path class="cls-18" d="M72.081,29.486A4.413,4.413,0,0,1,73.227,29a8.064,8.064,0,0,1,1.407-.173c.245,0,.792-.02.634.379-.173.432-1.1.843-1.475,1.018a5.933,5.933,0,0,1-1.942.672c-.36.037-.961.064-1.164-.3a.747.747,0,0,1,.077-.83,1.178,1.178,0,0,1,.679-.541c.148-.059.972-.279,1.015-.022Z"/><path class="cls-18" d="M65.683,29.674c-.17.123-1.47.844-.851,1.157a1.936,1.936,0,0,0,1.325-.025c.3-.127.605-.325.416-.671-.382-.7-1.338-.3-1.831.009Z"/><path class="cls-25" d="M47.711,77.1a2.2,2.2,0,0,0,.671,1.474,1.287,1.287,0,0,0,1.5-.061c.351-.207.682-.428,1.025-.64.2-.123.376-.154.385-.44a1.9,1.9,0,0,0-.45-.952,2.555,2.555,0,0,0-.966-.734c-.719-.268-2.09,0-2.073.976Z"/><path class="cls-26" d="M88.734,77.669a2.2,2.2,0,0,0,.672,1.475,1.289,1.289,0,0,0,1.5-.061c.35-.207.682-.428,1.025-.64.2-.123.376-.154.384-.44a1.886,1.886,0,0,0-.449-.952,2.555,2.555,0,0,0-.966-.734c-.719-.268-2.09,0-2.073.976Z"/><ellipse class="cls-27" cx="60.272" cy="45.97" rx="32.805" ry="21.033" transform="translate(-13.076 26.838) rotate(-22.714)"/><path class="cls-28" d="M30.218,98.357a7.094,7.094,0,0,0,.975,4.659c1.444,2.6,2.491,2.469,2.491,2.469S32.441,100.646,30.218,98.357Z"/><path class="cls-28" d="M123.7,70.12s-1.681,4.847-1.927,5.527C121.773,75.647,124.42,74.9,123.7,70.12Z"/><path class="cls-28" d="M132.707,71.633a6.243,6.243,0,0,0-1.82,3.118S132.318,75.423,132.707,71.633Z"/><path class="cls-28" d="M114.25,116.535s5.424-3.518,8.549-3.769C122.8,112.766,119.253,117.123,114.25,116.535Z"/></g></g></g></g></svg>