<svg xmlns="http://www.w3.org/2000/svg" xmlns:xlink="http://www.w3.org/1999/xlink" viewBox="0 0 158.522 158.522"><defs><style>.cls-1{isolation:isolate;}.cls-2{mix-blend-mode:screen;fill:url(#radial-gradient);}.cls-3{fill:url(#linear-gradient);}.cls-14,.cls-15,.cls-18,.cls-19,.cls-22,.cls-23,.cls-25,.cls-26,.cls-28,.cls-29,.cls-4,.cls-5,.cls-7{mix-blend-mode:multiply;}.cls-4{fill:url(#linear-gradient-2);}.cls-5{fill:url(#linear-gradient-3);}.cls-6{fill:url(#linear-gradient-4);}.cls-7{fill:url(#linear-gradient-5);}.cls-8{fill:url(#linear-gradient-6);}.cls-16,.cls-20,.cls-9{fill:#fff;}.cls-9{opacity:0.85;}.cls-16,.cls-9{mix-blend-mode:overlay;}.cls-10,.cls-11{opacity:0.5;mix-blend-mode:color-dodge;}.cls-10{fill:url(#radial-gradient-2);}.cls-11{fill:url(#radial-gradient-3);}.cls-12{opacity:0.15;mix-blend-mode:color-burn;fill:url(#linear-gradient-7);}.cls-13{fill:url(#linear-gradient-8);}.cls-14{fill:url(#linear-gradient-9);}.cls-15{fill:url(#linear-gradient-10);}.cls-16{opacity:0.25;}.cls-17{fill:url(#linear-gradient-11);}.cls-18{fill:url(#linear-gradient-12);}.cls-19{fill:url(#linear-gradient-13);}.cls-21{fill:url(#linear-gradient-14);}.cls-22{fill:url(#linear-gradient-15);}.cls-23{fill:url(#linear-gradient-16);}.cls-24{fill:url(#linear-gradient-17);}.cls-25{fill:url(#linear-gradient-18);}.cls-26{fill:url(#linear-gradient-19);}.cls-27{fill:url(#linear-gradient-20);}.cls-28{fill:url(#linear-gradient-21);}.cls-29{fill:url(#linear-gradient-22);}</style><radialGradient id="radial-gradient" cx="77.658" cy="79.252" r="84.536" gradientTransform="matrix(0.663, 0.663, -0.663, 0.663, 80.318, -24.767)" gradientUnits="userSpaceOnUse"><stop offset="0" stop-color="#2f7c7b"/><stop offset="0.423" stop-color="#1b4746" stop-opacity="0.569"/><stop offset="0.941" stop-opacity="0"/></radialGradient><linearGradient id="linear-gradient" x1="22.942" y1="92.658" x2="22.942" y2="44.119" gradientUnits="userSpaceOnUse"><stop offset="0.005" stop-color="#ff871a"/><stop offset="0.175" stop-color="#ff911c"/><stop offset="0.469" stop-color="#ffad22"/><stop offset="0.848" stop-color="#ffdb2b"/><stop offset="0.995" stop-color="#ffee2f"/></linearGradient><linearGradient id="linear-gradient-2" x1="13.604" y1="68.389" x2="32.288" y2="68.389" xlink:href="#linear-gradient"/><linearGradient id="linear-gradient-3" x1="22.942" y1="92.658" x2="22.942" y2="49.682" gradientUnits="userSpaceOnUse"><stop offset="0" stop-color="#fff"/><stop offset="0.145" stop-color="#ffefde"/><stop offset="0.441" stop-color="#ffd19f"/><stop offset="0.691" stop-color="#ffbb72"/><stop offset="0.883" stop-color="#ffad55"/><stop offset="0.995" stop-color="#ffa84b"/></linearGradient><linearGradient id="linear-gradient-4" x1="30.276" y1="124.233" x2="77.607" y2="124.233" xlink:href="#linear-gradient"/><linearGradient id="linear-gradient-5" x1="33.899" y1="124.233" x2="73.983" y2="124.233" xlink:href="#linear-gradient"/><linearGradient id="linear-gradient-6" x1="10.677" y1="46.351" x2="115.073" y2="96.315" gradientUnits="userSpaceOnUse"><stop offset="0" stop-color="#f50c76"/><stop offset="0.142" stop-color="#e90c70"/><stop offset="0.397" stop-color="#ca0b62"/><stop offset="0.733" stop-color="#980a4a"/><stop offset="1" stop-color="#6b0935"/></linearGradient><radialGradient id="radial-gradient-2" cx="65.952" cy="67.142" r="45.182" gradientTransform="translate(100.291 -14.328) rotate(65.753) scale(0.938)" gradientUnits="userSpaceOnUse"><stop offset="0" stop-color="#cd0b63"/><stop offset="0.144" stop-color="#b60a58"/><stop offset="0.446" stop-color="#7a073b"/><stop offset="0.878" stop-color="#1c010d"/><stop offset="1"/></radialGradient><radialGradient id="radial-gradient-3" cx="57.725" cy="57.543" r="29.023" gradientTransform="translate(87.538 -12.598) rotate(65.752) scale(0.938)" xlink:href="#radial-gradient-2"/><linearGradient id="linear-gradient-7" x1="124.007" y1="68.428" x2="41.339" y2="125.222" gradientUnits="userSpaceOnUse"><stop offset="0" stop-color="#b8105c"/><stop offset="0.017" stop-color="#b41060"/><stop offset="0.264" stop-color="#7e0a90"/><stop offset="0.494" stop-color="#5406b6"/><stop offset="0.701" stop-color="#3503d1"/><stop offset="0.876" stop-color="#2301e2"/><stop offset="1" stop-color="#1c00e8"/></linearGradient><linearGradient id="linear-gradient-8" x1="93.44" y1="123.242" x2="128.7" y2="123.242" xlink:href="#linear-gradient"/><linearGradient id="linear-gradient-9" x1="98.79" y1="124.454" x2="127.341" y2="124.454" xlink:href="#linear-gradient"/><linearGradient id="linear-gradient-10" x1="110.615" y1="138.205" x2="110.615" y2="108.28" xlink:href="#linear-gradient-3"/><linearGradient id="linear-gradient-11" x1="40.183" y1="98.405" x2="82.278" y2="98.405" gradientTransform="translate(-0.165 -4.885) rotate(-0.728)" gradientUnits="userSpaceOnUse"><stop offset="0.005" stop-color="#ffee2f"/><stop offset="0.152" stop-color="#ffdb2b"/><stop offset="0.531" stop-color="#ffad22"/><stop offset="0.825" stop-color="#ff911c"/><stop offset="0.995" stop-color="#ff871a"/></linearGradient><linearGradient id="linear-gradient-12" x1="43.362" y1="100.332" x2="76.528" y2="100.332" gradientTransform="translate(-0.165 -4.885) rotate(-0.728)" xlink:href="#linear-gradient"/><linearGradient id="linear-gradient-13" x1="47.105" y1="98.448" x2="82.278" y2="98.448" gradientTransform="translate(-0.165 -4.885) rotate(-0.728)" xlink:href="#linear-gradient-3"/><linearGradient id="linear-gradient-14" x1="131.153" y1="96.36" x2="131.153" y2="47.658" gradientUnits="userSpaceOnUse"><stop offset="0.005" stop-color="#ff871a"/><stop offset="0.906" stop-color="#ffe52d"/><stop offset="0.995" stop-color="#ffee2f"/></linearGradient><linearGradient id="linear-gradient-15" x1="121.384" y1="70.723" x2="146.068" y2="70.723" xlink:href="#linear-gradient"/><linearGradient id="linear-gradient-16" x1="131.115" y1="96.36" x2="131.115" y2="61.562" xlink:href="#linear-gradient-3"/><linearGradient id="linear-gradient-17" x1="-339.017" y1="545.441" x2="-339.017" y2="520.172" gradientTransform="matrix(0.111, -0.994, 0.994, 0.111, -434.355, -339.699)" xlink:href="#linear-gradient-14"/><linearGradient id="linear-gradient-18" x1="-344.086" y1="532.139" x2="-331.279" y2="532.139" gradientTransform="matrix(0.111, -0.994, 0.994, 0.111, -434.355, -339.699)" xlink:href="#linear-gradient"/><linearGradient id="linear-gradient-19" x1="-339.037" y1="545.441" x2="-339.037" y2="527.385" gradientTransform="matrix(0.111, -0.994, 0.994, 0.111, -434.355, -339.699)" xlink:href="#linear-gradient-3"/><linearGradient id="linear-gradient-20" x1="76.439" y1="7.895" x2="76.439" y2="-25.58" gradientTransform="matrix(0.998, 0.063, -0.063, 0.998, 2.033, 30.767)" gradientUnits="userSpaceOnUse"><stop offset="0.005" stop-color="#ff871a"/><stop offset="0.198" stop-color="#ffa11f"/><stop offset="0.551" stop-color="#ffcb28"/><stop offset="0.829" stop-color="#ffe42d"/><stop offset="0.995" stop-color="#ffee2f"/></linearGradient><linearGradient id="linear-gradient-21" x1="76.433" y1="5.471" x2="76.433" y2="-23.152" gradientTransform="matrix(0.998, 0.063, -0.063, 0.998, 2.033, 30.767)" xlink:href="#linear-gradient"/><linearGradient id="linear-gradient-22" x1="78.552" y1="7.895" x2="78.552" y2="-20.977" gradientTransform="matrix(0.998, 0.063, -0.063, 0.998, 2.033, 30.767)" xlink:href="#linear-gradient-3"/></defs><title>planet-5</title><g class="cls-1"><g id="Layer_2" data-name="Layer 2"><g id="planets"><g id="planet-5"><circle class="cls-2" cx="79.261" cy="79.261" r="79.261" transform="translate(-32.831 79.261) rotate(-45)"/><path class="cls-3" d="M23.931,92.658S9.15,88.474,11.4,68.552a31.216,31.216,0,0,1,.955-4.956c4.532-16.4,20.577-19.477,20.577-19.477a20.2,20.2,0,0,1,1.514,5.563C36.756,66.5,23.931,92.658,23.931,92.658Z"/><path class="cls-4" d="M30.863,49.148S15.647,52.056,13.789,68.516c-1.784,15.8,9.938,19.113,9.938,19.113S36.469,61.635,30.863,49.148Z"/><path class="cls-5" d="M23.931,92.658S9.15,88.474,11.4,68.552a31.216,31.216,0,0,1,.955-4.956c6.393.55,14.82-1.764,22.091-13.914C36.756,66.5,23.931,92.658,23.931,92.658Z"/><path class="cls-6" d="M30.36,107.44s-2.341,25.713,17.677,31.82c18.963,5.785,29.57-4.5,29.57-4.5Z"/><path class="cls-7" d="M33.97,110.011s-1.981,21.776,14.971,26.948c16.06,4.9,25.042-3.811,25.042-3.811Z"/><path class="cls-8" d="M136.747,79a57.854,57.854,0,1,1-28.233-49.7A57.851,57.851,0,0,1,136.747,79Z"/><path class="cls-9" d="M34.628,112.954a61.117,61.117,0,0,1,4.447-75.91,57.825,57.825,0,0,0,20.136,96.347A61.328,61.328,0,0,1,34.628,112.954Z"/><ellipse class="cls-10" cx="68.286" cy="67.907" rx="43.072" ry="41.62" transform="translate(-21.673 102.282) rotate(-65.753)"/><ellipse class="cls-11" cx="60.572" cy="58.907" rx="27.667" ry="26.735" transform="translate(-18.014 89.943) rotate(-65.752)"/><path class="cls-12" d="M136.747,79A57.858,57.858,0,0,1,31.568,112.281c91.2,13.48,77.843-54.142,76.946-82.982A57.785,57.785,0,0,1,136.747,79Z"/><path class="cls-9" d="M115.433,34.152a57.849,57.849,0,0,1-75.279,87.807,57.848,57.848,0,1,0,75.279-87.807Z"/><path class="cls-13" d="M128.551,122.386c-.743,7.232-9.469,14.039-19.295,15.524a24.751,24.751,0,0,1-8.948-.241c-12.805-2.806-4.464-15.746-.79-18.61,19.41-15.09,26.13-11.677,28.271-5.737A22.116,22.116,0,0,1,128.551,122.386Z"/><path class="cls-14" d="M103.712,121.071c-2.975,2.314-9.731,12.794.642,15.064s22.083-4.762,22.863-12.373C127.751,118.555,127.608,102.489,103.712,121.071Z"/><path class="cls-15" d="M109.256,137.91a24.751,24.751,0,0,1-8.948-.241c-12.805-2.806-4.464-15.746-.79-18.61,19.41-15.09,26.13-11.677,28.271-5.737C108.929,112.772,108.668,130.967,109.256,137.91Z"/><path class="cls-16" d="M123.971,116.359c2.555,1.3,2.911,5.728.8,9.9s-5.9,6.5-8.459,5.2-2.911-5.728-.8-9.9S121.415,115.062,123.971,116.359Z"/><path class="cls-17" d="M82.676,99.506c-2.7,4.4-21.784,14.5-34.361,3.637a23.072,23.072,0,0,1-1.777-1.732c-6.757-7.359-5.917-13.4-3.74-17.388a12.093,12.093,0,0,1,8.8-6.051A29.063,29.063,0,0,1,58.3,77.6c3.6.244,7,1.358,12.089,3.5C79.841,85.077,85.51,94.89,82.676,99.506Z"/><path class="cls-18" d="M52.6,83.049a9.516,9.516,0,0,0-6.925,4.764c-1.719,3.144-2.376,7.9,2.945,13.7,9.823,10.7,26.239,2.137,28.472-1.5s-2.233-11.368-9.681-14.5C61.107,82.857,58.094,82.2,52.6,83.049Z"/><path class="cls-19" d="M82.676,99.506c-2.7,4.4-21.784,14.5-34.361,3.637C76.842,99.532,62.741,81.794,58.3,77.6c3.6.244,7,1.358,12.089,3.5C79.841,85.077,85.51,94.89,82.676,99.506Z"/><path class="cls-16" d="M60.779,87.03c.882,4.285-2.468,8.6-7.484,9.629s-9.8-1.6-10.678-5.889,2.468-8.6,7.483-9.629S59.9,82.745,60.779,87.03Z"/><path class="cls-20" d="M51.67,82.52c.653,1.1-.133,2.772-1.755,3.737s-3.468.855-4.121-.244.132-2.773,1.755-3.737S51.016,81.421,51.67,82.52Z"/><path class="cls-20" d="M126.258,115.871c1.277-.051,2.374,1.436,2.449,3.323s-.9,3.456-2.177,3.507-4.052-1.093-4.128-2.979S124.98,115.922,126.258,115.871Z"/><path class="cls-21" d="M146.813,75.061c-.79,10.954-7.839,21.069-12.477,21.291-5.062.24-17.6-4.34-18.8-23.142a42.6,42.6,0,0,1,.665-11.648c2.6-12.352,10.905-13.9,10.905-13.9,9.884,0,19.285,12.294,19.767,24.347A26.6,26.6,0,0,1,146.813,75.061Z"/><path class="cls-22" d="M130.55,51.626s-10.236,1.919-9.075,20.039C122.421,86.41,132.251,90,136.221,89.813s10.208-9.641,9.83-19.093S138.3,51.626,130.55,51.626Z"/><path class="cls-23" d="M146.813,75.061c-.79,10.954-7.839,21.069-12.477,21.291-5.062.24-17.6-4.34-18.8-23.142a42.6,42.6,0,0,1,.665-11.648C121.5,73.152,133.411,91.839,146.813,75.061Z"/><path class="cls-16" d="M134.345,53.918c4.285-.883,8.961,4.241,10.444,11.443S144,79.118,139.716,80s-8.961-4.241-10.445-11.443S130.059,54.8,134.345,53.918Z"/><path class="cls-20" d="M133.72,57.2c1.731-.708,6.033-.221,7.078,2.334s-1.562,6.212-3.293,6.92-3.982-.79-5.027-3.345S131.989,57.906,133.72,57.2Z"/><path class="cls-24" d="M60.059,48.352c5.6,1.037,10.413,5.253,10.26,7.658-.166,2.624-3.249,8.824-13.013,8.364a22.12,22.12,0,0,1-5.968-1.013c-6.219-2.053-6.542-6.423-6.542-6.423.568-5.1,7.448-9.236,13.691-8.792A13.962,13.962,0,0,1,60.059,48.352Z"/><path class="cls-25" d="M47.04,55.39s.4,5.388,9.811,5.831c7.657.361,10.075-4.5,10.206-6.559s-4.384-5.818-9.28-6.167S47.486,51.394,47.04,55.39Z"/><path class="cls-26" d="M60.059,48.352c5.6,1.037,10.413,5.253,10.26,7.658-.166,2.624-3.249,8.824-13.013,8.364a22.12,22.12,0,0,1-5.968-1.013C57.619,61.293,67.939,56.227,60.059,48.352Z"/><path class="cls-16" d="M48.44,53.565c-.208-2.26,2.7-4.377,6.5-4.727s7.048,1.2,7.257,3.457-2.7,4.377-6.5,4.728S48.649,55.825,48.44,53.565Z"/><path class="cls-20" d="M50.1,54.076c-.266-.933.233-3.124,1.61-3.516s3.113,1.163,3.379,2.1-.636,2.008-2.014,2.4S50.361,55.009,50.1,54.076Z"/><path class="cls-27" d="M105.475,34.828c-2.543,5.755-19.533,11.313-35.946,7.4a82.913,82.913,0,0,1-9.683-2.83,13.37,13.37,0,0,1-4.739-2.977A11.536,11.536,0,0,1,55.3,19.365a34.776,34.776,0,0,1,25.015-9.286c7.224.238,12.661,2.522,16.623,5.642C104.888,21.98,106.9,31.6,105.475,34.828Z"/><path class="cls-28" d="M62.6,37.567c-7.558-2.813-9.665-11.9-3.892-17.136A29.762,29.762,0,0,1,80.1,12.5c18.574.619,23.337,17.031,21.514,21.161-2.173,4.922-16.7,9.673-30.737,6.331A71.7,71.7,0,0,1,62.6,37.567Z"/><path class="cls-29" d="M105.475,34.828c-2.543,5.755-19.533,11.313-35.946,7.4a82.913,82.913,0,0,1-9.683-2.83,13.37,13.37,0,0,1-4.739-2.977c35.585,2.679,41.217-12.874,41.831-20.7C104.888,21.98,106.9,31.6,105.475,34.828Z"/><path class="cls-16" d="M87.028,16.506c1.5,4.447-3.8,9.891-11.84,12.159s-15.778.5-17.28-3.945,3.8-9.891,11.84-12.159S85.526,12.059,87.028,16.506Z"/><path class="cls-20" d="M73.241,18.71c.423,2-1.809,4.064-4.985,4.614s-8.147-.375-8.571-2.373,3.829-6.6,7-7.149S72.817,16.712,73.241,18.71Z"/><path class="cls-20" d="M81.992,21.6c.234,1.106-1,2.251-2.761,2.556s-3.375-.345-3.609-1.452,1-2.25,2.76-2.555S81.758,20.494,81.992,21.6Z"/></g></g></g></g></svg>