<svg xmlns="http://www.w3.org/2000/svg" xmlns:xlink="http://www.w3.org/1999/xlink" viewBox="0 0 152.804 154.178"><defs><style>.cls-1{isolation:isolate;}.cls-10,.cls-11,.cls-14,.cls-15,.cls-16,.cls-17,.cls-18,.cls-19,.cls-2,.cls-20,.cls-21,.cls-22,.cls-25,.cls-26,.cls-27,.cls-28,.cls-29,.cls-30,.cls-31,.cls-5,.cls-6,.cls-8,.cls-9{fill-rule:evenodd;}.cls-2,.cls-5,.cls-6{opacity:0.3;}.cls-10,.cls-11,.cls-2,.cls-21,.cls-22,.cls-23,.cls-25,.cls-28,.cls-29,.cls-3,.cls-30,.cls-31,.cls-4,.cls-5,.cls-6,.cls-7{mix-blend-mode:screen;}.cls-2{fill:url(#radial-gradient);}.cls-3{fill:url(#radial-gradient-2);}.cls-4{fill:url(#radial-gradient-3);}.cls-5{fill:url(#radial-gradient-4);}.cls-6{fill:url(#radial-gradient-5);}.cls-7{fill:url(#radial-gradient-6);}.cls-8{fill:url(#Áåçûìÿííûé_ãðàäèåíò_173);}.cls-9{fill:url(#Áåçûìÿííûé_ãðàäèåíò_756);}.cls-10{fill:url(#radial-gradient-7);}.cls-11{fill:url(#radial-gradient-8);}.cls-12,.cls-21,.cls-22,.cls-23,.cls-25,.cls-30,.cls-31{opacity:0.5;}.cls-13,.cls-20{opacity:0.4;mix-blend-mode:multiply;}.cls-14{fill:url(#Áåçûìÿííûé_ãðàäèåíò_559);}.cls-15{fill:url(#Áåçûìÿííûé_ãðàäèåíò_559-2);}.cls-16{fill:url(#Áåçûìÿííûé_ãðàäèåíò_559-3);}.cls-17{fill:url(#Áåçûìÿííûé_ãðàäèåíò_559-4);}.cls-18{fill:url(#Áåçûìÿííûé_ãðàäèåíò_559-5);}.cls-19{fill:url(#Áåçûìÿííûé_ãðàäèåíò_559-6);}.cls-20{fill:url(#Áåçûìÿííûé_ãðàäèåíò_559-7);}.cls-21{fill:url(#linear-gradient);}.cls-22{fill:url(#radial-gradient-9);}.cls-24{fill:url(#radial-gradient-10);}.cls-25{fill:url(#linear-gradient-2);}.cls-26{fill:#fff;}.cls-27{fill:#bfffff;}.cls-28{fill:url(#radial-gradient-11);}.cls-29{fill:url(#radial-gradient-12);}.cls-30{fill:url(#linear-gradient-3);}.cls-31{fill:url(#linear-gradient-4);}</style><radialGradient id="radial-gradient" cx="79.164" cy="89.883" r="95.19" gradientUnits="userSpaceOnUse"><stop offset="0" stop-color="#31d1f9"/><stop offset="1" stop-opacity="0"/></radialGradient><radialGradient id="radial-gradient-2" cx="76.402" cy="75.824" r="75.824" gradientTransform="translate(75.993 -31.816) rotate(45)" xlink:href="#radial-gradient"/><radialGradient id="radial-gradient-3" cx="76.402" cy="75.824" r="64.473" gradientTransform="translate(144.328 -7.677) rotate(84.345)" xlink:href="#radial-gradient"/><radialGradient id="radial-gradient-4" cx="81.551" cy="93.629" r="80.365" xlink:href="#radial-gradient"/><radialGradient id="radial-gradient-5" cx="-99.331" cy="-290.441" r="80.364" gradientTransform="translate(-98.17 374.481) rotate(49.79)" xlink:href="#radial-gradient"/><radialGradient id="radial-gradient-6" cx="76.402" cy="77.393" r="60.372" gradientUnits="userSpaceOnUse"><stop offset="0" stop-color="#fffff9"/><stop offset="0.093" stop-color="#f9f9f3" stop-opacity="0.976"/><stop offset="0.218" stop-color="#e8e8e3" stop-opacity="0.91"/><stop offset="0.361" stop-color="#ccccc7" stop-opacity="0.8"/><stop offset="0.518" stop-color="#a5a5a1" stop-opacity="0.647"/><stop offset="0.685" stop-color="#737370" stop-opacity="0.451"/><stop offset="0.858" stop-color="#373736" stop-opacity="0.215"/><stop offset="1" stop-opacity="0"/></radialGradient><radialGradient id="Áåçûìÿííûé_ãðàäèåíò_173" cx="49.719" cy="43.93" r="91.827" gradientUnits="userSpaceOnUse"><stop offset="0.006" stop-color="#b1ffff"/><stop offset="0.293" stop-color="#b1fdff"/><stop offset="0.436" stop-color="#aff5ff"/><stop offset="0.547" stop-color="#ace8ff"/><stop offset="0.617" stop-color="#a9dbff"/><stop offset="0.651" stop-color="#a2d7fe"/><stop offset="0.699" stop-color="#8fcafc"/><stop offset="0.757" stop-color="#6fb5f9"/><stop offset="0.822" stop-color="#4399f4"/><stop offset="0.891" stop-color="#0c75ee"/><stop offset="0.905" stop-color="#006ded"/></radialGradient><linearGradient id="Áåçûìÿííûé_ãðàäèåíò_756" x1="21.625" y1="62.521" x2="100.422" y2="62.521" gradientUnits="userSpaceOnUse"><stop offset="0.011" stop-color="#b0e1ff"/><stop offset="0.293" stop-color="#addeff"/><stop offset="0.499" stop-color="#a5d5ff"/><stop offset="0.681" stop-color="#98c5ff"/><stop offset="0.849" stop-color="#85aeff"/><stop offset="1" stop-color="#6d93ff"/></linearGradient><radialGradient id="radial-gradient-7" cx="36.373" cy="40.265" r="72.099" gradientUnits="userSpaceOnUse"><stop offset="0" stop-color="#ffffd9"/><stop offset="1" stop-opacity="0"/></radialGradient><radialGradient id="radial-gradient-8" cx="-277.42" cy="353.994" r="18.784" gradientTransform="matrix(1.432, -0.853, 0.547, 0.918, 261.952, -510.683)" gradientUnits="userSpaceOnUse"><stop offset="0" stop-color="#fff"/><stop offset="0.173" stop-color="#c5c5c5" stop-opacity="0.772"/><stop offset="0.399" stop-color="gray" stop-opacity="0.501"/><stop offset="0.602" stop-color="#494949" stop-opacity="0.285"/><stop offset="0.777" stop-color="#212121" stop-opacity="0.13"/><stop offset="0.915" stop-color="#090909" stop-opacity="0.035"/><stop offset="1" stop-opacity="0"/></radialGradient><linearGradient id="Áåçûìÿííûé_ãðàäèåíò_559" x1="70.06" y1="93.215" x2="70.788" y2="93.215" gradientUnits="userSpaceOnUse"><stop offset="0" stop-color="#e8ddff"/><stop offset="1" stop-color="#aa8ad8"/></linearGradient><linearGradient id="Áåçûìÿííûé_ãðàäèåíò_559-2" x1="52.121" y1="91.723" x2="131.178" y2="91.723" xlink:href="#Áåçûìÿííûé_ãðàäèåíò_559"/><linearGradient id="Áåçûìÿííûé_ãðàäèåíò_559-3" x1="85.694" y1="40.844" x2="120.494" y2="40.844" xlink:href="#Áåçûìÿííûé_ãðàäèåíò_559"/><linearGradient id="Áåçûìÿííûé_ãðàäèåíò_559-4" x1="103.816" y1="58.051" x2="108.174" y2="58.051" xlink:href="#Áåçûìÿííûé_ãðàäèåíò_559"/><linearGradient id="Áåçûìÿííûé_ãðàäèåíò_559-5" x1="38.403" y1="121.282" x2="43.617" y2="121.282" xlink:href="#Áåçûìÿííûé_ãðàäèåíò_559"/><linearGradient id="Áåçûìÿííûé_ãðàäèåíò_559-6" x1="46.438" y1="114.772" x2="92.786" y2="114.772" xlink:href="#Áåçûìÿííûé_ãðàäèåíò_559"/><linearGradient id="Áåçûìÿííûé_ãðàäèåíò_559-7" x1="21.776" y1="101.522" x2="49.663" y2="101.522" xlink:href="#Áåçûìÿííûé_ãðàäèåíò_559"/><linearGradient id="linear-gradient" x1="2.945" y1="48.616" x2="147.285" y2="48.616" gradientUnits="userSpaceOnUse"><stop offset="0" stop-color="#a4ffe8"/><stop offset="0.201" stop-color="#78bbaa" stop-opacity="0.734"/><stop offset="0.415" stop-color="#4e796e" stop-opacity="0.475"/><stop offset="0.611" stop-color="#2c453f" stop-opacity="0.271"/><stop offset="0.779" stop-color="#141f1d" stop-opacity="0.123"/><stop offset="0.915" stop-color="#050808" stop-opacity="0.033"/><stop offset="1" stop-opacity="0"/></linearGradient><radialGradient id="radial-gradient-9" cx="76.402" cy="80.959" r="74.251" gradientUnits="userSpaceOnUse"><stop offset="0.885" stop-opacity="0"/><stop offset="0.899" stop-color="#000506" stop-opacity="0.034"/><stop offset="0.918" stop-color="#001217" stop-opacity="0.132"/><stop offset="0.938" stop-color="#002932" stop-opacity="0.292"/><stop offset="0.961" stop-color="#004858" stop-opacity="0.516"/><stop offset="0.985" stop-color="#006f89" stop-opacity="0.799"/><stop offset="1" stop-color="#008bab"/></radialGradient><radialGradient id="radial-gradient-10" cx="76.402" cy="80.957" r="74.829" xlink:href="#radial-gradient-9"/><linearGradient id="linear-gradient-2" x1="16.036" y1="30.462" x2="76.705" y2="72.943" gradientUnits="userSpaceOnUse"><stop offset="0" stop-color="#bdffe8"/><stop offset="0.201" stop-color="#8bbbaa" stop-opacity="0.734"/><stop offset="0.415" stop-color="#5a796e" stop-opacity="0.475"/><stop offset="0.611" stop-color="#33453f" stop-opacity="0.271"/><stop offset="0.779" stop-color="#171f1d" stop-opacity="0.123"/><stop offset="0.915" stop-color="#060808" stop-opacity="0.033"/><stop offset="1" stop-opacity="0"/></linearGradient><radialGradient id="radial-gradient-11" cx="63.733" cy="259.665" r="22.914" gradientTransform="matrix(0.977, -0.215, 0.215, 0.977, -39.439, -97.425)" gradientUnits="userSpaceOnUse"><stop offset="0" stop-color="#2c63d9"/><stop offset="1" stop-opacity="0"/></radialGradient><radialGradient id="radial-gradient-12" cx="74.797" cy="22.366" r="43.8" gradientTransform="matrix(1, 0, 0, 1, 0, 0)" xlink:href="#radial-gradient-11"/><linearGradient id="linear-gradient-3" x1="77.564" y1="128.624" x2="77.564" y2="43.116" xlink:href="#linear-gradient-2"/><linearGradient id="linear-gradient-4" x1="24.084" y1="135.383" x2="136.774" y2="135.383" xlink:href="#linear-gradient-2"/></defs><title>planet-18</title><g class="cls-1"><g id="Layer_2" data-name="Layer 2"><g id="planets"><g id="planet-18"><path class="cls-2" d="M54.671,120.712c-15.6-13.158-15.155-10.767-22.608-23.226s-18-15.76-18-29.664c0-16.2,28.981-26.99,36.516-34.454S78.43,6.751,95.34,10.326s22.153,28.512,28.147,36.864,14.739,7.982,19.117,20.546S128.579,91.8,122.2,103.336,78.475,140.795,54.671,120.712Z"/><circle class="cls-3" cx="76.402" cy="75.824" r="75.824" transform="translate(-31.238 76.233) rotate(-45)"/><circle class="cls-4" cx="76.402" cy="75.824" r="64.473" transform="translate(-6.582 144.382) rotate(-84.345)"/><path class="cls-5" d="M37.781,111.72c-19.442-14.667-.313-27.37-7.883-52.6C16.842,15.6,53.564,24.731,74.6,25.384s46.126.852,54.724,18.329,8.05,50.643-4.609,64.4S75.828,140.422,37.781,111.72Z"/><path class="cls-6" d="M22.153,71.97C20.8,47.654,42.852,54.06,57.232,31.99c24.8-38.067,41.539-4.129,54.623,12.356s29.129,35.774,21.334,53.625-33.476,38.843-52.155,38.058S24.8,119.556,22.153,71.97Z"/><circle class="cls-7" cx="76.402" cy="77.393" r="60.372"/><path class="cls-8" d="M131.178,77.548a54.736,54.736,0,0,1-48.966,54.469l-.012.012c-1.2.127-2.405.208-3.63.254-.717.035-1.445.047-2.174.047a54.645,54.645,0,0,1-29.958-8.95c-.647-.4-1.271-.832-1.9-1.294-1.133-.8-2.243-1.654-3.307-2.556a54.684,54.684,0,0,1-13.724-17.262A53.534,53.534,0,0,1,22.805,88.9c-.011-.012-.011-.023-.011-.046a54.353,54.353,0,0,1-1.018-7.308c-.1-1.318-.15-2.659-.15-4A54.8,54.8,0,0,1,76.4,22.766c1.2,0,2.382.046,3.561.116a54.45,54.45,0,0,1,13.655,2.659c.023,0,.035,0,.047.012,1.341.427,2.636.924,3.931,1.48.959.393,1.9.821,2.832,1.283a54.436,54.436,0,0,1,14.326,10.128,54.834,54.834,0,0,1,16.014,32.294v.011A55.007,55.007,0,0,1,131.178,77.548Z"/><path class="cls-9" d="M100.422,28.311a5.31,5.31,0,0,0-.542.076,3.488,3.488,0,0,1-1.71-.114,10.177,10.177,0,0,0-1.216-.38c-.666-.1-1.283-.389-1.948-.475a9.735,9.735,0,0,1-1.977-.608,1.855,1.855,0,0,0-1.3,0,1.857,1.857,0,0,1-1.3-.266,7.06,7.06,0,0,0-1.539-.361c-1.388-.285-2.765-.732-4.143-1.083a10.145,10.145,0,0,0-2.518-.228c-.684-.01-1.3.19-1.986.19a8.586,8.586,0,0,1-1.3-.143c-.466-.085-.941.01-1.407-.057a3.274,3.274,0,0,0-1.767.01,5.068,5.068,0,0,1-1.454.18,10.777,10.777,0,0,0-1.805.314,13.53,13.53,0,0,1-3.2.408,7.522,7.522,0,0,0-2.214.038c-.4.143-.6.57-.874.855a16.75,16.75,0,0,0-1.634,1.663,3.35,3.35,0,0,0-.912,2.034,6.076,6.076,0,0,0,.646,2.08c.3.656.408,1.255-.266,1.692a10.434,10.434,0,0,1-2.794,1.349,1.707,1.707,0,0,1-1.767-.162c-.2-.171-.323-.5-.57-.636s-.523,0-.8.085a17.4,17.4,0,0,1-2.043.542c-.428.066-.8.294-1.216.37-.5.1-.865-.275-1.388-.152a12.772,12.772,0,0,1-2.223.513,3.294,3.294,0,0,1-1.682-.484c-.266-.152-.332-.3-.636-.219a1.688,1.688,0,0,0-.751.551c-.18.257-.247.589-.427.855-.19.3-.371.58-.542.894a12.8,12.8,0,0,1-1.083,1.719c-.285.381-.485.894-.8,1.245a3.8,3.8,0,0,1-.722.466c-.571.4-1.169.76-1.72,1.187-1.064.837-2.072,1.758-3.155,2.566a13.7,13.7,0,0,1-2.926,1.368c-.589.238-1.2.409-1.786.656a2.7,2.7,0,0,0-.7.3,5.268,5.268,0,0,0-.513.76,12.88,12.88,0,0,0-1.444,1.976,7.1,7.1,0,0,0-.532,1.3c-.209.617-.542,1.187-.751,1.8-.427,1.292-.513,2.642-.988,3.924a20.61,20.61,0,0,1-1.016,2.119,11.787,11.787,0,0,0-.846,3.82,8.088,8.088,0,0,0,.076,2.347,12.845,12.845,0,0,1,.095,2.413,4,4,0,0,1-1.093,2.337c-.494.6-1.244.827-1.8,1.359a4.286,4.286,0,0,0-1.225,1.625,6.946,6.946,0,0,0-.057.912c-.124.675-.295,1.311-.39,1.995a20.023,20.023,0,0,0-.123,2.5c0,.428-.029.865-.01,1.292.019.409.171.789.2,1.2.019.285-.038.57,0,.855.057.323.18.655.256.969.19.76.333,1.5.475,2.261A18.142,18.142,0,0,0,25.264,87a22.465,22.465,0,0,1,.685,2.86c.142.722.133,1.473.237,2.2.086.59.219,1.188.247,1.777.029.893-.19,1.787-.2,2.689a19.367,19.367,0,0,0,.95,4.5c.1.408.209.827.323,1.235a54.789,54.789,0,0,1,48.9-79.5c1.2,0,2.375.038,3.553.114A54.268,54.268,0,0,1,100.422,28.311Z"/><path class="cls-10" d="M43.919,120.33a54.962,54.962,0,0,1-13.73-17.264,54.216,54.216,0,0,1-4.7-13.369.069.069,0,0,1-.01-.047,55.409,55.409,0,0,1-1.168-11.307A54.778,54.778,0,0,1,79.084,23.566c1.2,0,2.375.038,3.553.114a54.514,54.514,0,0,1,10.8,1.8,54.409,54.409,0,0,0-13.479-2.589c-1.178-.076-2.356-.114-3.553-.114A54.756,54.756,0,0,0,21.625,77.548a55.4,55.4,0,0,0,1.169,11.307.07.07,0,0,0,.01.048,54.209,54.209,0,0,0,4.7,13.368A54.984,54.984,0,0,0,62.1,130.429,54.645,54.645,0,0,1,43.919,120.33Z"/><path class="cls-11" d="M85.036,34.929C90.708,44.456,83.26,59.35,68.4,68.2S36.9,76.49,31.227,66.964,33,42.543,47.862,33.7,79.364,25.4,85.036,34.929Z"/><g class="cls-12"><g class="cls-13"><path class="cls-14" d="M70.083,92.787a.515.515,0,0,1-.023-.127,2.561,2.561,0,0,1,.728,1.11C70.488,93.77,70.153,93.087,70.083,92.787Z"/><path class="cls-15" d="M130.762,70.749v-.011a7.651,7.651,0,0,0-.775-1.2,4.548,4.548,0,0,0-2.266-1.434c-.659-.219-1.422-.531-1.989-.011a8.5,8.5,0,0,0-1.387,2c-.243.451-.613,1.376-1.214,1.48s-1.318-.74-1.7-1.11c-.578-.578-.867-1.549-1.526-2.012a9.11,9.11,0,0,0-1.665-.855,10.556,10.556,0,0,0-3.319-.648,5.4,5.4,0,0,1-2.092-.821,10.327,10.327,0,0,0-2.359-.566c-.694-.15-1.353-.289-2.035-.44a3.127,3.127,0,0,1-1.815-.821c-.636-.693-1.087-1.572-1.769-2.208-1.249-1.145-2.706-.4-4.244-.4-1.271,0-2.289-.8-3.595-1.1-1.5-.335-2.775-.555-3.735-1.873-.844-1.168-.6-2.555-1.087-3.839-.948-2.52-4.394-3.3-6.775-3.434-1.908-.1-3.654.567-5.527.613-1.642.035-3.041-.381-4.093,1.075-1.11,1.538-2.266,3.157-3.226,4.764a20.6,20.6,0,0,0-2.266,4c-.243.763-.2,1.63-.405,2.4a9.785,9.785,0,0,1-1.457,2.96,8.009,8.009,0,0,1-2.647,1.793,8.749,8.749,0,0,0-2.035,1.734,18.831,18.831,0,0,0-2.22,2.59,5.247,5.247,0,0,1-.9,1.226c-.382.312-.844.485-1.214.809-.3.266-.532.624-.844.89a3.8,3.8,0,0,1-2,.89c-1.18.047-2.278-.878-3.273.3a4.364,4.364,0,0,0-1.167,2.9,5.047,5.047,0,0,0,1.329,2.162c.844,1.076,2.532,2.833,2.151,4.394-.15.613-.648.948-.509,1.607a7.912,7.912,0,0,1,.243,1.838c-.012.417-.185,1.3.035,1.677.3.509,1.41.879,1.931,1.1,1.19.5,2.162,1.226,3.306,1.816a13.427,13.427,0,0,0,2.093,1.248,16.478,16.478,0,0,0,2.266.278c.486.092,1.052.15,1.538.277.358.1.682.394,1.041.486a20.423,20.423,0,0,0,4.451.046,4.931,4.931,0,0,0,2.613-.289A2.352,2.352,0,0,0,75.8,94.7a8.983,8.983,0,0,0-.8-2.637,6.087,6.087,0,0,0-.578-1.537c-.254-.347-.578-.347-.89-.567-.451-.312-.567-.717-1.237-.832a1.894,1.894,0,0,0-1.4.381c-.59.428-1.654,1.422-1.469,2.2a2.543,2.543,0,0,0,.636.96c-.046-.405.173-.717.231-1.157,1.145.278,2.856.59,3.712,1.5a2.182,2.182,0,0,1-1.989,1.387c-1.411.058-2.717.208-3.827-.8-.9-.821-.983-1.942-1.515-2.994a5.954,5.954,0,0,0-.925-1.469,7.164,7.164,0,0,1-.832-1.1c-.439-.682-.914-1.792-.266-2.463a13.151,13.151,0,0,1,2.81-1.653c1.306-.752,2.67-1.411,3.977-2.162,1.838-1.041,3.318-2.406,5.527-2.567A8.132,8.132,0,0,1,82.2,80.542c.948.752,1.145,1.735,1.619,2.775a6.265,6.265,0,0,0,1.873,2.243c.983.729,2.024,1.423,3.029,2.139,1.33.949,2.324,1.226,3.226,2.671,1.422,2.3,2.024,4.914,2.833,7.458a37.416,37.416,0,0,1,.948,3.9,19.9,19.9,0,0,0,1.11,2.845,12.566,12.566,0,0,0,1.156,2.381,3.464,3.464,0,0,1,.6,1.18c.335,1.642-1.261,2.821-2.082,4.024a15.769,15.769,0,0,0-2.405,4.162c-.381,1.237.081,1.861.313,2.983.4,1.966-.5,3.168-1.758,4.521a6.856,6.856,0,0,1-2.266,1.7,22.014,22.014,0,0,0-6.429,4.81,6.068,6.068,0,0,1-1.757,1.688,54.077,54.077,0,0,0,13.632-3.249,54.871,54.871,0,0,0,34.918-58.019Zm-61.107.694c-.277.7-1.977,1.087-2.624,1.283-.243.07-.613.185-.833.012-.6-.486,1.434-2.023,1.422-2l-.589-.289c.52,0,.67-.636,1.179-.625a2.721,2.721,0,0,1,.682.359C69.285,70.449,69.875,70.865,69.655,71.443Zm18.4-12.718c-.451,2.485-3.191,4.243-5.4,5.029a9.118,9.118,0,0,1-3.376.555,14.82,14.82,0,0,1-3.2-.046c-1.826-.451-2.335-1.734-1.734-2.578-.347-.891-.844-1.7-.428-2.613a15.052,15.052,0,0,1,1.157-1.943c.763-1.156,1.965-1.179,3.191-1.573,2.6-.844,5.284-1.745,7.839-.312A3.453,3.453,0,0,1,88.051,58.725Zm24.581,51.382c-1.017,3.133-3.746,4.567-6.579,5.631-1.526.578-2.913,1.364-4.393,2.012a3.092,3.092,0,0,1-2.683.323,1.966,1.966,0,0,1-1.006-2.994c.763-1.388,2.336-2.555,2.012-4.313a10.5,10.5,0,0,1-.173-3.249,46.708,46.708,0,0,0,.231-5.238c-1.122,2.22-1.249.359-1.191-.878a2.413,2.413,0,0,1,1.226-2.128c2.844-1.954,6.763-.058,9.342,1.526a8.951,8.951,0,0,1,3.445,4.475A7.167,7.167,0,0,1,112.632,110.107Zm-.9-32.617c-.844.058-2.069-1.006-2.636-1.48a17.87,17.87,0,0,1-1.538-1.7,10.839,10.839,0,0,1-1.4-1.595,14.24,14.24,0,0,1-.867-2.278,18.9,18.9,0,0,0-1.457-3.2c-.231.717-.289.012.278-.254a3.106,3.106,0,0,1,1.561.023A4.678,4.678,0,0,1,108.5,68.68c.891.982,1.931,1.861,2.8,2.855.706.821,2.174,2.382,2.209,3.515C113.534,75.86,112.621,77.421,111.73,77.49Z"/><path class="cls-16" d="M120.494,45.058a12.125,12.125,0,0,1-1.757,1.145,13.574,13.574,0,0,1-1.445,1.121,3.2,3.2,0,0,1-2.2-.231c-1.5-.613-2.451-1.179-4.035-.6a9.914,9.914,0,0,1-1.4.277c-.405.093-.509.312-1.006.312-.937,0-1.8-.89-2.405-1.549a2.172,2.172,0,0,0-2.116-.786c-.994-.012-2.151.277-2.37,1.457-.266,1.422,1.468,2.509,2.381,3.225,1.33,1.053-.15,1.33-.693,2.313-.521.971.508,1.5-.266,2.347-1.5,1.63-5.041,2.833-7.03,1.688-1.387-.809-2.047-2.312-3.133-3.445-.613-.648-1.365-1.157-1.978-1.8a11.768,11.768,0,0,1-2.1-3.446c.474,1.284-.335-.531-.6-2.046a4.3,4.3,0,0,1,.324-1.758c.127-.659-.243-.925-.532-1.445-.532-1.006-1.4-1.838-.59-2.914a14.137,14.137,0,0,1,1.677-1.838,8.891,8.891,0,0,1,2.035-1.757c.1-.474-1.388-1.908-1.712-2.324a19.9,19.9,0,0,0-2.428-2.879c-.37-.324-1.087-.659-1.318-1.087-.508-.971,1.006-2.186,1.665-2.648a5.546,5.546,0,0,1,3.527-.925c.844.012,1.734.023,2.624.081.023,0,.035,0,.047.012,1.341.427,2.636.924,3.931,1.48.959.393,1.9.821,2.832,1.283a54.436,54.436,0,0,1,14.326,10.128A53.885,53.885,0,0,1,120.494,45.058Z"/><path class="cls-17" d="M104.713,56.716q1.7.417,3.358.993a.559.559,0,0,0,.1.687,3.485,3.485,0,0,1-1.563.927,1.8,1.8,0,0,1-1.591-.343c-.549-.317-1.227-.34-1.2-1.087.024-.807.812-1.078,1.48-1.177Z"/><path class="cls-18" d="M42.45,121.762c.381.219.774.428,1.167.636a11.172,11.172,0,0,1-2.312.358c-.174-.74-.544-1.549-2.9-2.948A36.278,36.278,0,0,1,42.45,121.762Z"/><path class="cls-19" d="M91.855,113.552a4.689,4.689,0,0,0-.578,2.463c0,.821.023,1.654,0,2.475-.023,1.133-.787,1.873-1.457,2.717a20.35,20.35,0,0,1-2.752,2.532c-.486.428-.751,1.017-1.191,1.48-.416.451-.971.832-1.329,1.306a4.935,4.935,0,0,1-1.145,1.307,18.17,18.17,0,0,0-1.769,1.63c-.983.925-1.977,1.931-3.064,2.821-.717.035-1.445.047-2.174.047a54.645,54.645,0,0,1-29.958-8.95c.636.162,1.272.336,1.908.451.74.139,1.353.405,2.047.59a15.993,15.993,0,0,0,4.139.058,42.242,42.242,0,0,1,5.793.613,7.9,7.9,0,0,0,3.815-.023,15.111,15.111,0,0,0,3.261-1.388c2.15-1.26,4.706-1.214,6.949-2.405.959-.509,1.722-1.329,2.659-1.908a10.985,10.985,0,0,1,1.711-.971c.451-.15.856-.162,1.318-.335,1.122-.428,2.3-.659,3.411-1.1a9.887,9.887,0,0,0,6.07-5.469,7.6,7.6,0,0,0,.3-2.613c0-.393-.012-.8,0-1.191a3.027,3.027,0,0,0-.231-1.086c-.278-.983.242-1.353.485-2.163.231-.739.5-1.387.682-2.162a4.02,4.02,0,0,0-.138-2.624c-.116-.393-.37-.89-.44-1.237a6.9,6.9,0,0,1-.081-1.2,8.986,8.986,0,0,0,.729,2,7.9,7.9,0,0,1,1.04,2.486,8.6,8.6,0,0,1-.439,2.486c-.231.937.162,1.538.139,2.475a3.91,3.91,0,0,0,.069,1.167c.116.463.15.867.243,1.318.173.752.694,1.469.867,2.174C92.965,112.2,92.236,112.882,91.855,113.552Z"/></g><path class="cls-20" d="M49.653,114.431c.162,2.821-1.55,5.215-3.712,6.868a5.571,5.571,0,0,1-1.4.787c-1.133-.8-2.243-1.654-3.307-2.556a54.684,54.684,0,0,1-13.724-17.262A53.534,53.534,0,0,1,22.805,88.9c-.011-.012-.011-.023-.011-.046a54.353,54.353,0,0,1-1.018-7.308c.185-.185.37-.37.567-.589A16.814,16.814,0,0,0,23.5,85.977c.382,1.3.833,2.555,1.156,3.861a7.278,7.278,0,0,0,1.18,2.891,3.218,3.218,0,0,0,1.48,1.087c.5.219.878.636,1.375.821a10.359,10.359,0,0,0,3.6.636,2.4,2.4,0,0,1,1.457.289c.359.208.671.5,1.018.728a12.594,12.594,0,0,1,2.185,1.885c.994,1.121.96,2.682,1.757,3.919a3.055,3.055,0,0,0,2.856,1.365c2.405.011,4.509,2.833,5.758,4.671A13.947,13.947,0,0,1,49.653,114.431Z"/></g><path class="cls-21" d="M5.871,51.429S-.466,77.781,5.512,84.466C14.12,94.092,49.575,62.828,88.1,49.549S143.744,56.288,146.89,55,134.911,15.075,82.333,11.351,14.163,30.983,5.871,51.429Z"/><path class="cls-22" d="M152.226,71.689c0,45.287-42.37,85.671-85.249,81.636-45.088-4.243-66.4-35.517-66.4-80.8S25.607,8.314,70.894,8.314,152.226,26.4,152.226,71.689Z"/><g class="cls-23"><path class="cls-24" d="M72.869,154.178q-2.985,0-5.947-.277C23.767,149.839,0,120.938,0,72.521,0,28.927,23.19,7.735,70.894,7.735c52.055,0,81.91,23.31,81.91,63.954,0,22.524-10.327,44.843-28.334,61.235C109.429,146.616,90.918,154.178,72.869,154.178ZM70.894,8.891c-46.926,0-69.738,20.814-69.738,63.63,0,47.738,23.4,76.23,65.875,80.229,19.551,1.837,40.2-5.7,56.66-20.681,17.767-16.173,27.957-38.181,27.957-60.38C151.648,31.781,122.214,8.891,70.894,8.891Z"/></g><path class="cls-25" d="M4.873,59.114S19.239,82.07,47.634,96.137L73.262,77.859s-17.184-42.545-19.22-65.84C54.042,12.019,7.3,17.02,4.873,59.114Z"/><path class="cls-26" d="M5.869,62.539c2.812,4.006,11.481-5.658,18.763-15.774s11.316-16.027,10.295-21.8S17.639,29.6,11.826,37.554,3.241,58.8,5.869,62.539Z"/><path class="cls-26" d="M6.275,64.123s-3.788,4.006-1.627,7.2S9.62,72.342,9.192,70.05,7.935,64.522,6.275,64.123Z"/><path class="cls-27" d="M112.782,134.761a13.949,13.949,0,0,0-7.971,4.509c-3.4,3.919,1.579,3.279,4.375.959S112.8,135.861,112.782,134.761Z"/><path class="cls-28" d="M110,139.778s-33.373,14.686-63.754.989C46.244,140.767,67.928,164.513,110,139.778Z"/><path class="cls-29" d="M14.062,34.535s9.114-17.36,46.962-23.184,64.74,11.848,74.508,21.031c0,0-25.661-20.587-67.637-16.93S14.062,34.535,14.062,34.535Z"/><path class="cls-30" d="M135.537,63.465c1.168-8,14.152-11.053,14.152-11.053a64.433,64.433,0,0,0-3.6-9.3s-4.717.751-20.453,10.429S68.992,99.686,37.092,103.154,2.941,97.5,2.941,97.5l1.041,3.839s35.085,10.191,30.109,17.614c-6.027,8.991-23.842-1-23.842-1l.994,1.85s25.634,11.469,66.321,8.244S143.1,107.876,143.1,107.876c7.191-11.516,9.087-34.41,9.087-34.41S134.358,71.466,135.537,63.465ZM61.024,114.772c-12.433,3.308-26.2-2.526-26.776-5.5-.763-3.989,33.985-14.464,37.766-14.163S78.666,110.079,61.024,114.772Zm70.2-47.2c4.163.289,9.851,7.389,7.955,10.025s-8.914,6.324-11.458,3.665S126.612,67.26,131.225,67.572Zm4.307,42.507c-7.447,6.717-33.213,12.5-37.9,9.729-5.839-3.457,36.881-41.422,45.634-40.323S142.989,103.373,135.532,110.079Z"/><path class="cls-31" d="M24.084,136.051s12.218,8.463,54.037,4.224,58.653-22.1,58.653-22.1l-4.627,5.95a122.641,122.641,0,0,1-23.973,12.351c-13.9,5.31-41.4,4.994-47.15,16.106C61.024,152.586,38.241,149.152,24.084,136.051Z"/></g></g></g></g></svg>