<svg xmlns="http://www.w3.org/2000/svg" xmlns:xlink="http://www.w3.org/1999/xlink" viewBox="0 0 158.522 158.522"><defs><style>.cls-1{isolation:isolate;}.cls-12,.cls-14,.cls-15,.cls-2,.cls-9{mix-blend-mode:color-dodge;}.cls-2{fill:url(#radial-gradient);}.cls-3{fill:url(#linear-gradient);}.cls-4{fill:url(#linear-gradient-2);}.cls-5{fill:url(#linear-gradient-3);}.cls-6{fill:url(#linear-gradient-4);}.cls-7{fill:url(#linear-gradient-5);}.cls-8{fill:url(#linear-gradient-6);}.cls-13,.cls-14,.cls-9{fill:#fff;}.cls-9{opacity:0.65;}.cls-10{mix-blend-mode:color-burn;fill:url(#linear-gradient-7);}.cls-11{fill:#fff7f5;mix-blend-mode:overlay;}.cls-11,.cls-12,.cls-14{opacity:0.5;}.cls-12{fill:url(#radial-gradient-2);}.cls-15{opacity:0.35;fill:url(#radial-gradient-3);}</style><radialGradient id="radial-gradient" cx="79.261" cy="79.261" r="79.261" gradientTransform="translate(150.403 -7.361) rotate(84.396)" gradientUnits="userSpaceOnUse"><stop offset="0" stop-color="#717a78"/><stop offset="0.162" stop-color="#6d7573" stop-opacity="0.961"/><stop offset="0.349" stop-color="#606765" stop-opacity="0.846"/><stop offset="0.549" stop-color="#4a504f" stop-opacity="0.655"/><stop offset="0.758" stop-color="#2c2f2f" stop-opacity="0.389"/><stop offset="0.972" stop-color="#060606" stop-opacity="0.05"/><stop offset="1" stop-opacity="0"/></radialGradient><linearGradient id="linear-gradient" x1="19.783" y1="32.224" x2="116.953" y2="109.061" gradientUnits="userSpaceOnUse"><stop offset="0" stop-color="#ff91a7"/><stop offset="0.097" stop-color="#fc8aa9"/><stop offset="0.243" stop-color="#f275ae"/><stop offset="0.42" stop-color="#e353b7"/><stop offset="0.62" stop-color="#ce25c3"/><stop offset="0.759" stop-color="#bd00cc"/><stop offset="1" stop-color="#8b00cc"/></linearGradient><linearGradient id="linear-gradient-2" x1="101.32" y1="139.9" x2="101.32" y2="17.547" gradientUnits="userSpaceOnUse"><stop offset="0" stop-color="#e56ccb"/><stop offset="0.57" stop-color="#f592dd"/><stop offset="1" stop-color="#ffabe9"/></linearGradient><linearGradient id="linear-gradient-3" x1="115.018" y1="48.489" x2="125.803" y2="48.489" gradientUnits="userSpaceOnUse"><stop offset="0" stop-color="#e56ccb"/><stop offset="0.342" stop-color="#e369c9"/><stop offset="0.643" stop-color="#dc5ec2"/><stop offset="0.928" stop-color="#d04cb6"/><stop offset="1" stop-color="#cc46b2"/></linearGradient><linearGradient id="linear-gradient-4" x1="99.866" y1="112.957" x2="140.555" y2="112.957" xlink:href="#linear-gradient-3"/><linearGradient id="linear-gradient-5" x1="44.957" y1="131.619" x2="44.957" y2="52.243" gradientUnits="userSpaceOnUse"><stop offset="0" stop-color="#cc4db0"/><stop offset="0.26" stop-color="#db70c0"/><stop offset="0.762" stop-color="#f5aede"/><stop offset="1" stop-color="#ffc7e9"/></linearGradient><linearGradient id="linear-gradient-6" x1="63.978" y1="139.231" x2="63.978" y2="18.437" xlink:href="#linear-gradient-5"/><linearGradient id="linear-gradient-7" x1="34.311" y1="80.753" x2="141.2" y2="80.753" gradientUnits="userSpaceOnUse"><stop offset="0" stop-color="#fff7f5"/><stop offset="0.161" stop-color="#f9eff3"/><stop offset="0.415" stop-color="#e7d8ed"/><stop offset="0.727" stop-color="#cbb4e4"/><stop offset="1" stop-color="#ae8edb"/></linearGradient><radialGradient id="radial-gradient-2" cx="65.518" cy="67.71" r="39.434" gradientTransform="translate(67.068 -26.496) rotate(45)" gradientUnits="userSpaceOnUse"><stop offset="0" stop-color="#fff"/><stop offset="0.119" stop-color="#e8e8e8" stop-opacity="0.909"/><stop offset="0.368" stop-color="#acacac" stop-opacity="0.676"/><stop offset="0.724" stop-color="#4e4e4e" stop-opacity="0.305"/><stop offset="1" stop-opacity="0"/></radialGradient><radialGradient id="radial-gradient-3" cx="116.959" cy="108.142" r="18.688" gradientTransform="translate(0 0.771) scale(1 1.06)" gradientUnits="userSpaceOnUse"><stop offset="0" stop-color="#1c00e8"/><stop offset="0.095" stop-color="#1b00e1" stop-opacity="0.971"/><stop offset="0.23" stop-color="#1900cf" stop-opacity="0.891"/><stop offset="0.389" stop-color="#1500b0" stop-opacity="0.76"/><stop offset="0.566" stop-color="#100086" stop-opacity="0.576"/><stop offset="0.759" stop-color="#0a004f" stop-opacity="0.341"/><stop offset="0.961" stop-color="#02000e" stop-opacity="0.059"/><stop offset="1" stop-opacity="0"/></radialGradient></defs><title>planet-7</title><g class="cls-1"><g id="Layer_2" data-name="Layer 2"><g id="planets"><g id="planet-7"><circle class="cls-2" cx="79.261" cy="79.261" r="79.261" transform="translate(-7.361 150.403) rotate(-84.396)"/><path class="cls-3" d="M141.2,79.261c0,1.186-.039,2.372-.1,3.544q-.154,2.746-.541,5.413c-.026.22-.052.413-.091.619a61.345,61.345,0,0,1-5.3,17.115A62.024,62.024,0,0,1,66.576,139.9c-.529-.1-1.07-.232-1.6-.361q-.637-.135-1.276-.309-2.687-.7-5.3-1.624a61.2,61.2,0,0,1-12.244-5.98c-.09-.064-.193-.129-.3-.193-.9-.58-1.8-1.2-2.694-1.83a62.688,62.688,0,0,1-8.364-7.2c-.722-.747-1.431-1.52-2.1-2.294A61.438,61.438,0,0,1,22.37,103.787c-.632-1.456-1.2-2.938-1.727-4.459-.619-1.805-1.16-3.66-1.611-5.542a62.16,62.16,0,0,1,.051-29.2A59.437,59.437,0,0,1,20.9,58.5,61.67,61.67,0,0,1,33.84,37.156a57.259,57.259,0,0,1,5.426-5.181A62.044,62.044,0,0,1,63.341,19.4c1.366-.373,2.758-.7,4.162-.953a61.893,61.893,0,0,1,11.754-1.121c1.779,0,3.544.077,5.272.219a59.118,59.118,0,0,1,7.616,1.134,61.283,61.283,0,0,1,22.877,10,62.851,62.851,0,0,1,10.787,9.717,61.7,61.7,0,0,1,11.663,19.68c.065.181.142.348.194.516A61.74,61.74,0,0,1,141.2,79.261Z"/><path class="cls-4" d="M137.663,58.594C126.1,64.186,127.9,67.15,113.715,99.576c-11.3,25.835-36.321,36.71-47.136,40.324-.537-.107-1.069-.227-1.6-.358,49.293-26.774,48.355-63.913,44.854-91.35-2.2-17.22-15.4-26.242-25.292-30.645a60.069,60.069,0,0,1,7.606,1.123c31.709,16.759,21.115,71,18.283,80.01-3.286,10.456,4.183-4.183,10.158-23,4.773-15.045,13.557-17.3,16.891-17.6C137.543,58.247,137.609,58.421,137.663,58.594Z"/><path class="cls-5" d="M125.8,38.4c-2.629,6.381-3.962,18.169-4.918,26.522-1.2,10.457-.6-5.377-.6-20.015,0-5.862-2.4-11.538-5.27-16.228A62,62,0,0,1,125.8,38.4Z"/><path class="cls-6" d="M122.08,105.85c-1.643,8.484.729,8.442,13.085.1a62.109,62.109,0,0,1-35.3,31.739,29.584,29.584,0,0,0,6.679-8.837c8.945-17.889,15.8-32.9,34.01-40.629-.03.209-.06.412-.09.615C134.371,92.233,123.371,99.193,122.08,105.85Z"/><path class="cls-7" d="M72.19,97.186c-.693,8.3-3.92,24.067-26.027,34.433-.095-.054-.2-.119-.293-.185a37.176,37.176,0,0,0,16.659-20.506C69.9,89.018,66.914,67.509,49.187,70.3c0,0-6.376,1.392-7.571,14.34C40.529,96.4,44.867,113.73,32.7,120.1a61.644,61.644,0,0,1-10.331-16.312c2.133.155,5.115-.418,8.1-3.615,5.575-5.974,7.17-10.557,8.162-16.927A61.1,61.1,0,0,1,41.616,70.7c1.2-3.388-4.182-8.568-11.352-.8-5.849,6.34-10.241,13.068-11.227,23.876A62.193,62.193,0,0,1,20.9,58.493c7.308-5.42,17.4-9.047,29.486-3.43C74.6,66.326,73.086,86.431,72.19,97.186Z"/><path class="cls-8" d="M86.828,114.513c-4.5,11.006-13.288,18.97-23.123,24.718q-2.7-.7-5.3-1.631c13.246-9.96,24.7-26.015,25.035-51.766.627-48.188-34.063-50.273-49.6-48.672a58.657,58.657,0,0,1,5.431-5.192c32.91-2.629,46.168,25.979,46.168,25.979-2.557-27.186-14.573-35.814-22.1-38.556,1.374-.371,2.754-.687,4.165-.956C95.988,34.718,100.194,81.848,86.828,114.513Z"/><path class="cls-9" d="M140.083,67.566a64,64,0,0,1,.05,18.755c-.03.216-.061.425-.092.635a63.315,63.315,0,0,1-5.47,17.662A63.859,63.859,0,0,1,76.868,141c-1.369,0-2.727-.049-4.075-.134a62.486,62.486,0,0,0,6.465.335,61.941,61.941,0,0,0,61.207-52.364c.03-.2.06-.406.09-.615a62.133,62.133,0,0,0-.472-20.658Z"/><path class="cls-10" d="M137.663,58.594c-.054-.173-.12-.347-.185-.52A62.039,62.039,0,0,0,98.3,20.3c.548.579,1.09,1.165,1.616,1.764a61.73,61.73,0,0,1,11.675,19.676c.066.173.132.346.186.52a61.671,61.671,0,0,1,3.537,20.667,62.37,62.37,0,0,1-.646,8.962c-.029.209-.059.412-.089.615a61.355,61.355,0,0,1-5.3,17.113,62.019,62.019,0,0,1-68.586,33.949c-.537-.108-1.069-.227-1.6-.358-.43-.1-.849-.2-1.273-.311-1.183-.307-2.347-.66-3.5-1.033.167.175.33.353.5.527a61.639,61.639,0,0,0,8.365,7.212c.878.633,1.78,1.242,2.694,1.828.1.066.2.131.293.185A60.973,60.973,0,0,0,58.406,137.6q2.6.931,5.3,1.631c.425.114.843.215,1.273.311.532.131,1.064.251,1.6.358a61.928,61.928,0,0,0,68.586-33.949,61.315,61.315,0,0,0,5.3-17.112c.03-.2.06-.406.09-.615a62.528,62.528,0,0,0,.645-8.963A61.675,61.675,0,0,0,137.663,58.594Z"/><path class="cls-11" d="M141.2,79.261q0,1.784-.1,3.549c-14.322,16.82-61.111,2.767-89.521-14.9-12.3-7.654-23.422-7.05-32.5-3.328A61.614,61.614,0,0,1,33.837,37.162a58.657,58.657,0,0,1,5.431-5.192A61.509,61.509,0,0,1,63.335,19.393c1.374-.371,2.76-.687,4.171-.956a61.9,61.9,0,0,1,11.752-1.118c1.775,0,3.537.078,5.276.228a60.163,60.163,0,0,1,7.612,1.123,62.068,62.068,0,0,1,45.332,39.4c.065.173.131.347.185.52A61.675,61.675,0,0,1,141.2,79.261Z"/><circle class="cls-12" cx="65.518" cy="67.71" r="39.434" transform="translate(-28.688 66.16) rotate(-45)"/><path class="cls-13" d="M54.649,59.367c-3.8,7.46-10.4,11.714-14.742,9.5s-4.768-10.053-.963-17.512,10.406-11.713,14.743-9.5S58.454,51.908,54.649,59.367Z"/><path class="cls-13" d="M54.26,81.389c-1.41,2.062-3.524,3.069-4.723,2.249s-1.027-3.155.382-5.216,3.524-3.068,4.723-2.249S55.669,79.328,54.26,81.389Z"/><path class="cls-14" d="M20.643,99.328c-.619-1.805-1.16-3.66-1.611-5.542a62.16,62.16,0,0,1,.051-29.2A59.437,59.437,0,0,1,20.9,58.5,61.67,61.67,0,0,1,33.84,37.156a57.259,57.259,0,0,1,5.426-5.181,60.416,60.416,0,0,1,7.6-5.5C31.7,39.218,14.714,62.249,20.643,99.328Z"/><ellipse class="cls-15" cx="116.959" cy="115.348" rx="18.688" ry="19.8"/></g></g></g></g></svg>