<svg xmlns="http://www.w3.org/2000/svg" xmlns:xlink="http://www.w3.org/1999/xlink" viewBox="0 0 159.043 159.043"><defs><style>.cls-1{isolation:isolate;}.cls-10,.cls-11,.cls-12,.cls-13,.cls-14,.cls-17,.cls-18,.cls-19,.cls-2,.cls-20,.cls-21,.cls-22,.cls-23,.cls-24,.cls-25,.cls-26,.cls-27,.cls-28,.cls-3,.cls-4{mix-blend-mode:screen;}.cls-2{fill:url(#radial-gradient);}.cls-3{fill:url(#radial-gradient-2);}.cls-10,.cls-11,.cls-12,.cls-13,.cls-14,.cls-15,.cls-16,.cls-17,.cls-18,.cls-19,.cls-20,.cls-21,.cls-22,.cls-23,.cls-24,.cls-25,.cls-26,.cls-27,.cls-28,.cls-4,.cls-5,.cls-6,.cls-7,.cls-8,.cls-9{fill-rule:evenodd;}.cls-17,.cls-18,.cls-21,.cls-23,.cls-25,.cls-27,.cls-4{opacity:0.92;}.cls-4{fill:url(#radial-gradient-3);}.cls-5{fill:url(#Áåçûìÿííûé_ãðàäèåíò_310);}.cls-6{opacity:0.4;fill:url(#Áåçûìÿííûé_ãðàäèåíò_271);}.cls-6,.cls-7,.cls-8,.cls-9{mix-blend-mode:multiply;}.cls-7,.cls-8,.cls-9{opacity:0.3;}.cls-7{fill:url(#Áåçûìÿííûé_ãðàäèåíò_9);}.cls-8{fill:url(#Áåçûìÿííûé_ãðàäèåíò_9-2);}.cls-9{fill:url(#Áåçûìÿííûé_ãðàäèåíò_9-3);}.cls-10{fill:url(#linear-gradient);}.cls-11{fill:url(#radial-gradient-4);}.cls-12,.cls-13,.cls-14{opacity:0.5;}.cls-12{fill:url(#linear-gradient-2);}.cls-13{fill:url(#linear-gradient-3);}.cls-14{fill:url(#linear-gradient-4);}.cls-15{fill:#fff;}.cls-16{fill:#ff9aff;}.cls-17{fill:url(#radial-gradient-5);}.cls-18{fill:url(#radial-gradient-6);}.cls-19{fill:url(#linear-gradient-5);}.cls-20{fill:url(#linear-gradient-6);}.cls-21{fill:url(#radial-gradient-7);}.cls-22{fill:url(#linear-gradient-7);}.cls-23{fill:url(#radial-gradient-8);}.cls-24{fill:url(#linear-gradient-8);}.cls-25{fill:url(#radial-gradient-9);}.cls-26{fill:url(#linear-gradient-9);}.cls-27{fill:url(#radial-gradient-10);}.cls-28{fill:url(#linear-gradient-10);}</style><radialGradient id="radial-gradient" cx="79.522" cy="79.522" r="79.522" gradientTransform="translate(79.522 -32.939) rotate(45)" gradientUnits="userSpaceOnUse"><stop offset="0.006" stop-color="#009bff"/><stop offset="1" stop-opacity="0"/></radialGradient><radialGradient id="radial-gradient-2" cx="79.522" cy="79.522" r="67.742" gradientTransform="translate(137.689 -16.728) rotate(76.146)" gradientUnits="userSpaceOnUse"><stop offset="0.006" stop-color="#0092ff"/><stop offset="0.131" stop-color="#0090fb" stop-opacity="0.984"/><stop offset="0.256" stop-color="#0089ef" stop-opacity="0.937"/><stop offset="0.38" stop-color="#007ddb" stop-opacity="0.859"/><stop offset="0.505" stop-color="#006dbf" stop-opacity="0.748"/><stop offset="0.63" stop-color="#00599b" stop-opacity="0.606"/><stop offset="0.756" stop-color="#003f6e" stop-opacity="0.432"/><stop offset="0.878" stop-color="#00223b" stop-opacity="0.23"/><stop offset="1" stop-opacity="0"/></radialGradient><radialGradient id="radial-gradient-3" cx="79.522" cy="79.521" r="58.782" gradientUnits="userSpaceOnUse"><stop offset="0.885" stop-opacity="0"/><stop offset="0.899" stop-color="#000506" stop-opacity="0.034"/><stop offset="0.918" stop-color="#001217" stop-opacity="0.132"/><stop offset="0.938" stop-color="#002932" stop-opacity="0.292"/><stop offset="0.961" stop-color="#004858" stop-opacity="0.516"/><stop offset="0.985" stop-color="#006f89" stop-opacity="0.799"/><stop offset="1" stop-color="#008bab"/></radialGradient><radialGradient id="Áåçûìÿííûé_ãðàäèåíò_310" cx="63.999" cy="63.982" r="80.349" gradientUnits="userSpaceOnUse"><stop offset="0.006" stop-color="#00cec0"/><stop offset="0.258" stop-color="#00ccc0"/><stop offset="0.383" stop-color="#00c4c1"/><stop offset="0.481" stop-color="#00b7c2"/><stop offset="0.565" stop-color="#00a4c4"/><stop offset="0.639" stop-color="#008cc6"/><stop offset="0.705" stop-color="#006ec8"/><stop offset="0.718" stop-color="#0068c9"/><stop offset="0.744" stop-color="#0767cb"/><stop offset="0.781" stop-color="#1a66cf"/><stop offset="0.826" stop-color="#3a63d6"/><stop offset="0.876" stop-color="#6660e0"/><stop offset="0.93" stop-color="#9e5bec"/><stop offset="0.988" stop-color="#e255fc"/><stop offset="1" stop-color="#f154ff"/></radialGradient><radialGradient id="Áåçûìÿííûé_ãðàäèåíò_271" cx="85.618" cy="84.419" r="49.283" gradientUnits="userSpaceOnUse"><stop offset="0" stop-color="#1372b3"/><stop offset="1" stop-color="#fff"/></radialGradient><linearGradient id="Áåçûìÿííûé_ãðàäèåíò_9" x1="42.145" y1="97.715" x2="57.046" y2="97.715" gradientUnits="userSpaceOnUse"><stop offset="0" stop-color="#b8c2ff"/><stop offset="1" stop-color="#7d72b3"/></linearGradient><linearGradient id="Áåçûìÿííûé_ãðàäèåíò_9-2" x1="56.061" y1="105.444" x2="59.131" y2="105.444" xlink:href="#Áåçûìÿííûé_ãðàäèåíò_9"/><linearGradient id="Áåçûìÿííûé_ãðàäèåíò_9-3" x1="68.967" y1="32.838" x2="84.398" y2="32.838" xlink:href="#Áåçûìÿííûé_ãðàäèåíò_9"/><linearGradient id="linear-gradient" x1="51.316" y1="121.744" x2="121.284" y2="170.736" gradientTransform="matrix(0.989, 0.147, -0.147, 0.989, 12.966, -97.913)" gradientUnits="userSpaceOnUse"><stop offset="0.017" stop-color="#b3ffe8"/><stop offset="0.214" stop-color="#83bbaa" stop-opacity="0.734"/><stop offset="0.425" stop-color="#55796e" stop-opacity="0.475"/><stop offset="0.617" stop-color="#30453f" stop-opacity="0.271"/><stop offset="0.783" stop-color="#161f1d" stop-opacity="0.123"/><stop offset="0.916" stop-color="#060808" stop-opacity="0.033"/><stop offset="1" stop-opacity="0"/></linearGradient><radialGradient id="radial-gradient-4" cx="103.945" cy="125.689" r="34.551" gradientUnits="userSpaceOnUse"><stop offset="0" stop-color="#97e5d9"/><stop offset="0.357" stop-color="#61938c"/><stop offset="1" stop-opacity="0"/></radialGradient><linearGradient id="linear-gradient-2" x1="75.507" y1="100.529" x2="75.507" y2="43.983" gradientUnits="userSpaceOnUse"><stop offset="0" stop-color="#bdffe8"/><stop offset="0.201" stop-color="#8bbbaa" stop-opacity="0.734"/><stop offset="0.415" stop-color="#5a796e" stop-opacity="0.475"/><stop offset="0.611" stop-color="#33453f" stop-opacity="0.271"/><stop offset="0.779" stop-color="#171f1d" stop-opacity="0.123"/><stop offset="0.915" stop-color="#060808" stop-opacity="0.033"/><stop offset="1" stop-opacity="0"/></linearGradient><linearGradient id="linear-gradient-3" x1="83.2" y1="117.576" x2="83.2" y2="64.58" xlink:href="#linear-gradient-2"/><linearGradient id="linear-gradient-4" x1="70.947" y1="65.845" x2="70.947" y2="30.81" xlink:href="#linear-gradient-2"/><radialGradient id="radial-gradient-5" cx="114.615" cy="34.105" r="18.064" gradientUnits="userSpaceOnUse"><stop offset="0.774" stop-opacity="0"/><stop offset="0.787" stop-color="#060106" stop-opacity="0.023"/><stop offset="0.803" stop-color="#170416" stop-opacity="0.088"/><stop offset="0.822" stop-color="#320a31" stop-opacity="0.196"/><stop offset="0.843" stop-color="#581157" stop-opacity="0.347"/><stop offset="0.865" stop-color="#8a1b88" stop-opacity="0.54"/><stop offset="0.888" stop-color="#c527c2" stop-opacity="0.771"/><stop offset="0.908" stop-color="#ff32fc"/><stop offset="0.919" stop-color="#fb33fb"/><stop offset="0.93" stop-color="#ee38f7"/><stop offset="0.942" stop-color="#d93ff0"/><stop offset="0.954" stop-color="#bc49e7"/><stop offset="0.966" stop-color="#9657db"/><stop offset="0.978" stop-color="#6867cc"/><stop offset="0.99" stop-color="#327abb"/><stop offset="1" stop-color="#008bab"/></radialGradient><radialGradient id="radial-gradient-6" cx="60.077" cy="130.471" r="17.176" xlink:href="#radial-gradient-5"/><linearGradient id="linear-gradient-5" x1="105.362" y1="16.018" x2="126.228" y2="35.788" gradientUnits="userSpaceOnUse"><stop offset="0.017" stop-color="#54ffe8"/><stop offset="0.214" stop-color="#3ebbaa" stop-opacity="0.734"/><stop offset="0.425" stop-color="#28796e" stop-opacity="0.475"/><stop offset="0.617" stop-color="#17453f" stop-opacity="0.271"/><stop offset="0.783" stop-color="#0a1f1d" stop-opacity="0.123"/><stop offset="0.916" stop-color="#030808" stop-opacity="0.033"/><stop offset="1" stop-opacity="0"/></linearGradient><linearGradient id="linear-gradient-6" x1="45.634" y1="119.861" x2="69.775" y2="142.734" xlink:href="#linear-gradient-5"/><radialGradient id="radial-gradient-7" cx="35.993" cy="-63.13" r="8.145" gradientTransform="matrix(0.816, -0.175, 0.209, 0.978, 121.296, 127.373)" xlink:href="#radial-gradient-5"/><linearGradient id="linear-gradient-7" x1="132.675" y1="50.632" x2="142.32" y2="59.77" xlink:href="#linear-gradient-5"/><radialGradient id="radial-gradient-8" cx="372.938" cy="-523.91" r="4.246" gradientTransform="matrix(0.339, -0.763, 0.914, 0.406, 443.884, 518.513)" gradientUnits="userSpaceOnUse"><stop offset="0.425" stop-opacity="0"/><stop offset="0.494" stop-color="#000506" stop-opacity="0.034"/><stop offset="0.586" stop-color="#001217" stop-opacity="0.132"/><stop offset="0.691" stop-color="#002932" stop-opacity="0.292"/><stop offset="0.805" stop-color="#004858" stop-opacity="0.516"/><stop offset="0.925" stop-color="#006f89" stop-opacity="0.799"/><stop offset="1" stop-color="#008bab"/></radialGradient><linearGradient id="linear-gradient-8" x1="195.04" y1="-334.245" x2="199.576" y2="-329.947" gradientTransform="matrix(0.794, -0.608, 0.608, 0.794, 136.067, 403.103)" xlink:href="#linear-gradient-5"/><radialGradient id="radial-gradient-9" cx="27.082" cy="21.624" r="14.873" gradientUnits="userSpaceOnUse"><stop offset="0.774" stop-opacity="0"/><stop offset="0.786" stop-color="#000506" stop-opacity="0.034"/><stop offset="0.802" stop-color="#001217" stop-opacity="0.132"/><stop offset="0.821" stop-color="#002932" stop-opacity="0.292"/><stop offset="0.841" stop-color="#004858" stop-opacity="0.516"/><stop offset="0.862" stop-color="#006f89" stop-opacity="0.799"/><stop offset="0.875" stop-color="#008bab"/><stop offset="0.983" stop-color="#ff32fc"/></radialGradient><linearGradient id="linear-gradient-9" x1="15.277" y1="16.893" x2="39.07" y2="16.893" xlink:href="#linear-gradient-5"/><radialGradient id="radial-gradient-10" cx="107.599" cy="143.468" r="6.926" xlink:href="#radial-gradient-9"/><linearGradient id="linear-gradient-10" x1="102.102" y1="141.265" x2="113.182" y2="141.265" xlink:href="#linear-gradient-5"/></defs><title>planet-20</title><g class="cls-1"><g id="Layer_2" data-name="Layer 2"><g id="planets"><g id="planet-20"><circle class="cls-2" cx="79.522" cy="79.522" r="79.522" transform="translate(-32.939 79.522) rotate(-45)"/><circle class="cls-3" cx="79.522" cy="79.522" r="67.742" transform="translate(-16.728 137.689) rotate(-76.146)"/><path class="cls-4" d="M138.3,79.528A58.723,58.723,0,0,1,79.515,138.3a60.853,60.853,0,0,1-7.7-.5,57.023,57.023,0,0,1-6.836-1.315,58.712,58.712,0,0,1-42.968-44.78.072.072,0,0,1-.013-.05A59.278,59.278,0,0,1,20.74,79.528,58.786,58.786,0,0,1,79.515,20.74c1.291,0,2.556.037,3.822.124a58.632,58.632,0,0,1,18.922,4.442c1.029.434,2.034.893,3.039,1.377a58.152,58.152,0,0,1,11.85,7.693c1.216,1.005,2.4,2.072,3.524,3.176.409.4.806.807,1.2,1.216A58.547,58.547,0,0,1,138.3,79.528Z"/><path class="cls-5" d="M134.3,79.527A54.721,54.721,0,0,1,79.516,134.3a56.522,56.522,0,0,1-7.18-.462,52.817,52.817,0,0,1-6.371-1.226,54.711,54.711,0,0,1-40.04-41.728.066.066,0,0,1-.012-.046,55.26,55.26,0,0,1-1.167-11.308,54.777,54.777,0,0,1,54.77-54.781c1.2,0,2.381.034,3.561.115A54.636,54.636,0,0,1,100.709,29c.96.4,1.9.832,2.833,1.283a54.164,54.164,0,0,1,11.042,7.168c1.133.937,2.231,1.931,3.283,2.96.382.37.752.752,1.122,1.133A54.562,54.562,0,0,1,134.3,79.527Z"/><path class="cls-6" d="M134.3,79.527A54.721,54.721,0,0,1,79.516,134.3a56.522,56.522,0,0,1-7.18-.462,54.314,54.314,0,0,1-20.269-6.914c1.815-.463,3.6-1.087,5.423-1.55a93.265,93.265,0,0,1,13-2.89c1.792-.208,4.578-.914,4.659-3.076.023-.613-.1-.774.278-1.11.416-.37.913-.2,1.433-.312,1.272-.277,2.29-1.595,3.1-2.52a45.35,45.35,0,0,1,4.267-4.313c2.936-2.578,6.821-3.769,8.706-7.469a13.357,13.357,0,0,0,.809-3.145A4.329,4.329,0,0,1,96,97.865c1.318-.752,2.741-1.018,3.932-2.047a8.192,8.192,0,0,0,2.092-3.792c.717-2.243.6-4.509.914-6.8a34.521,34.521,0,0,0,.543-3.457,7.717,7.717,0,0,0-.775-3.052c-.624-1.781-1.456-3.619-2.219-5.342a5.058,5.058,0,0,0-1.249-1.665c-.763-.7-1.434-1.5-2.209-2.2-.543-.485-1.225-.8-1.757-1.3-.416-.393-.763-.925-1.145-1.341a10.258,10.258,0,0,0-2.324-2.035c-2.173-1.2-3.457-3.387-6-3.827-3.1-.532-5.619-3.838-8.914-2.671-2.116.752-4.2,1.561-6.417,2.128-1.422.358-3.041.324-4.382.855a6.919,6.919,0,0,0-2.347,1.723c-.925,1.018-1.284,2.393-2.058,3.5a28.731,28.731,0,0,0-1.457,2.533c-.971,1.78-.867,3.422-.867,5.411a30.188,30.188,0,0,0,.011,3.226A6.031,6.031,0,0,0,60.9,80.915c.463.589.787,1.607,1.365,2.081.3.243.578.173.9.312a5.181,5.181,0,0,1,1.225.821,12.294,12.294,0,0,0,4.637,2.486,12.075,12.075,0,0,1,2.6.728,7.471,7.471,0,0,0,2.324.59,6.45,6.45,0,0,0,4.833-1.584,10.737,10.737,0,0,0,2.22-2.185,3.418,3.418,0,0,1,1.133-1.133,2.012,2.012,0,0,1,1.18-.394c.358.047.728.509,1.11.278.323-.2.52-1.226.636-1.538.219-.555.37-1.237.624-1.769.439-.936,1.179-.717,2.07-.74a2.168,2.168,0,0,0,1.8-.6,2.577,2.577,0,0,0,0-2.185,13.1,13.1,0,0,0-2.1-2.128,10.123,10.123,0,0,1-1.226-1.584c-.7-1.1-1.006-3.075-2.509-3.411a9.8,9.8,0,0,0-2.012-.023,7.394,7.394,0,0,1-1.884-.323,14.208,14.208,0,0,0-3.11-.579,9.117,9.117,0,0,0-3.769.914c-.532.22-.972.115-1.457.277a3.614,3.614,0,0,0-1.608,2.024,2.572,2.572,0,0,0,1.457,2.96c.393.162,1.307.231,1.6.555.382.427.058.982-.139,1.468-.486,1.237-.231,2.717,1.307,2.948,1.04.151,2.058-.52,2.925-.925.74-.37,1.931-.462,1.931-1.422-.058.451-.821.278-1.191.278a2.436,2.436,0,0,1-1.827-.5,2.679,2.679,0,0,1-.867-1.55,4.626,4.626,0,0,0-.451-.89c-.127-.185-.532-.439-.6-.636-.416-1.1,2.948-1.619,3.595-1.688,1.411-.162,2.382.844,3.192,1.908.358.485,1.063,1.156,1.029,1.746a8.1,8.1,0,0,1-.706,2.046c-.231.555-.4,1.087-.589,1.607-.232.671-.578.8-1.168,1.157a11.431,11.431,0,0,0-1.5,1.3,3.981,3.981,0,0,1-1.92.693c-1.04.255-1.965-.3-3.017-.231-.867.046-1.619.543-2.474.6-1.8.116-3.411-.1-4.036-2.058a1.455,1.455,0,0,1,.463-1.746c.543-.566.358-1.075.081-1.746a11.346,11.346,0,0,1-.833-2.347,8.856,8.856,0,0,1,.5-2.624c.128-.706-.219-1.688.012-2.359.208-.59,1.422-1.191,1.919-1.6a12.871,12.871,0,0,1,2.3-1.121,6.867,6.867,0,0,1,2.521-.5c.774-.139,1.191-.74,1.885-1.018a7.462,7.462,0,0,1,2.636-.139,4.636,4.636,0,0,1,2.2.706A7.229,7.229,0,0,0,82.429,67.2c1.029.115,2.093-.081,3.111-.035s1.375.59,2.15,1.122A6.849,6.849,0,0,1,89.748,70.1c.3.416.451.925.752,1.318a4.6,4.6,0,0,1,.786,1.237,19.258,19.258,0,0,1,.867,2.174,4.02,4.02,0,0,1,.243,1.33c-.058.612-.312,1.133-.324,1.769a8.259,8.259,0,0,1-1.156,3.711c-.624,1.237-1.145,2.544-1.723,3.8-.393.856-.474,2.555-1.63,2.775a5.5,5.5,0,0,0-1.769.312c-.6.312-.682,1.006-1.156,1.446-.451.416-1.018.277-1.619.277a6.174,6.174,0,0,0-2.567.509c-1.006.427-1.688,1.445-2.694,1.954a12.973,12.973,0,0,1-2.636.982c-.636.162-1.26,0-1.908.2-1.48.439-2.717,1.411-4.15,1.943a9.259,9.259,0,0,1-3.724.566,6.338,6.338,0,0,1-1.364-.393c-.74-.22-1.515-.22-2.278-.416-.6-.151-1.179-.37-1.757-.578s-.971-.659-1.526-.914c-1.284-.613-2.521-.543-3.7-1.491a49.266,49.266,0,0,0-4.348-3.585,5.537,5.537,0,0,1-1.526-1.63,13.129,13.129,0,0,0-1.26-1.387,8.6,8.6,0,0,1-1.422-2.463c-.6-1.445-1.318-2.74-1.827-4.232a44.257,44.257,0,0,1-2.047-6.278c-.323-1.838.081-3.457.151-5.249a6.42,6.42,0,0,0-.012-1.33c-.127-.682-.717-1.133-1.156-1.63A17.577,17.577,0,0,1,37.8,59.525a10.79,10.79,0,0,1-.52-6.787,8.189,8.189,0,0,1,3.446-4.244,34.422,34.422,0,0,1,5.064-2.925A21.126,21.126,0,0,1,48.147,44.3c.856-.312,1.862-.462,2.752-.7a5.752,5.752,0,0,0,2.116-.775,26.7,26.7,0,0,0,2.139-1.642,6.154,6.154,0,0,1,2.486-1.734c1.445-.381,2.96-.821,4.428-1.121,1.816-.382,4.047.115,5.851.312a49.717,49.717,0,0,0,5.411.219c1.526,0,2.971-.242,4.486-.3.555-.023,1.133.058,1.688.023a14.155,14.155,0,0,0,2.659-.671c1.688-.439,3.273-1.26,4.926-1.8a23.759,23.759,0,0,1,3.827-.6,37.708,37.708,0,0,1,4.22-.751c1.237-.046,2.544-.521,3.654.15,2.058,1.272,3.376,3.446,5.423,4.683a46.6,46.6,0,0,0,6.914,3.156c.8.312,1.7-.058,2.428.22.37.139.751.717,1.017,1.029.382-.266.266-.648.278-1.052.034-.578.3-1.018.312-1.619a12.416,12.416,0,0,0-.035-2.174,11.949,11.949,0,0,1-.543-1.688c1.133.937,2.231,1.931,3.283,2.96A54.572,54.572,0,0,1,134.3,79.527Z"/><path class="cls-7" d="M43.007,96.1a17.365,17.365,0,0,0-.569,3.659c.314-.078.79.656,1.14.809.647.285,1.28.2,1.878.63a8.073,8.073,0,0,0,1.789,1.317,5.109,5.109,0,0,0,1.371.011,12.328,12.328,0,0,1,2.571.221,11.169,11.169,0,0,0,3.006.392,4.69,4.69,0,0,0,2.092-.8,3.878,3.878,0,0,0,.756-2.3c.108-2-1.366-3.882-2.864-5.066-.778-.616-1.666-.615-2.53-1.06a14.82,14.82,0,0,0-3.077-1.152,9.011,9.011,0,0,0-2.285-.492,10.675,10.675,0,0,0-2.109.613,2.873,2.873,0,0,0-1.773.864C41.909,94.388,42.132,95.326,43.007,96.1Z"/><path class="cls-8" d="M58.488,103.111c-.347.41-3.584,3.225-1.987,4.338a6.05,6.05,0,0,0,.882.269c.493.124.579.05.986-.213a1.881,1.881,0,0,0,.678-2.179,7.029,7.029,0,0,0-.292-.876c-.145-.3-.484-.395-.559-.755Z"/><path class="cls-9" d="M77.182,32.131a13.783,13.783,0,0,1,3.5-1.53c.336-.033.814.074,1.178.07.79-.007,1.477-.144,2.058.5a1.215,1.215,0,0,1,.329,1.53,6.7,6.7,0,0,1-2.388,1.767A11.12,11.12,0,0,1,75.7,36.241c-1.66-.157-3.167-1.4-4.587-2.147-1.07-.561-3.014-1.624-1.715-2.911A6.38,6.38,0,0,1,73.534,29.5c.661-.025,2.266-.257,2.785.136.578.438-.054,2.3,1.155,2.2Z"/><path class="cls-10" d="M23.913,68.362c.833,11.165,26.98-6.915,52.274-14.948,29.7-9.431,52.208,11.166,55.5,10.044,5.15-1.757-15.994-42.622-49.841-42.1C43.709,21.952,22.568,50.339,23.913,68.362Z"/><path class="cls-11" d="M53.851,129.854s26,9.055,50.825-4.673,28.917-44.7,28.917-44.7-3.046,36.42-27.019,48.041S64.658,136.573,53.851,129.854Z"/><path class="cls-12" d="M21.316,87.747l1.839,8.517s10.21,5.978,33.886,3.78,29.3-13.776,38.543-20.522,27.165-12.047,31.839-17.305.7-15.746.7-15.746l-1.8-2.488s3.318,8.961-.656,15.605-21.615,9.7-31.254,18.11S65.234,92.646,48.57,92.766,21.316,87.747,21.316,87.747Z"/><path class="cls-13" d="M29.175,109.889l3.753,5.471s17.019,4.986,42.579,0,44.829-19.395,53.812-27.613,7.862-19.71,7.862-19.71l-.8-3.457a48.139,48.139,0,0,1-11.586,23.167c-9.982,11.212-26.6,21.384-50.533,25.587S29.175,109.889,29.175,109.889Z"/><path class="cls-14" d="M24.746,58.182s33.39,11.39,59.2,6.4,32.714-21.679,33.2-30.2l-4.733-3.566A34.472,34.472,0,0,1,96.176,58.274c-16.348,10.339-58.189,4.2-69.408-4.693Z"/><path class="cls-15" d="M28.411,78.352c.373,2.057,5.024-.82,8.5-7.793s4.15-21.345,2.336-22.6S25.822,64.106,28.411,78.352Z"/><path class="cls-15" d="M92.133,132.369c-.727.816,1.956,1.8,5.948.99s10.126-5.168,10.057-6.318S97.165,126.713,92.133,132.369Z"/><path class="cls-15" d="M28.721,81.35c-2.415.451-2.353,5.155-.812,7.173s3.5,1.059,3.619-3.065C31.6,82.917,30.716,80.977,28.721,81.35Z"/><path class="cls-16" d="M124.1,115.561s10.078-13.035,12.268-29.355C136.368,86.206,137.515,101.754,124.1,115.561Z"/><path class="cls-17" d="M96.176,23.15S111.437,10.8,124.1,19.571c14.2,9.837,7.256,32.216,7.256,32.216S102.025,36.368,96.176,23.15Z"/><path class="cls-18" d="M40.226,123.228s1.919,17.271,14.9,23.551c12.113,5.859,22.984-8.493,22.984-8.493S75.507,115.36,40.226,123.228Z"/><path class="cls-19" d="M99.089,22.638c2.441,3.129,10.37,3.943,20.155,4.965s11.142,3.8,11.142,3.8-3.109-11.538-12.6-13.437S99.089,22.638,99.089,22.638Z"/><path class="cls-20" d="M41.305,124.43s1.555,10.519,5.791,12.418,6.755-7.814,17.234-8.033c5.848-.122,12.268,6.718,12.268,6.718S70.314,116.836,41.305,124.43Z"/><path class="cls-16" d="M57.6,146.2a21.589,21.589,0,0,0,13.351-3.067S66.652,150.53,57.6,146.2Z"/><path class="cls-16" d="M129.7,47.9a30.8,30.8,0,0,0,1.521-13.356S135.3,42.779,129.7,47.9Z"/><path class="cls-15" d="M99.581,22.308c-1.07.945,7.03.76,9.586-.952s3.585-2.693,2.921-3.736S103.432,18.912,99.581,22.308Z"/><path class="cls-15" d="M113.03,17.718c-.1-.634,2.362-.462,2.316.149S113.218,18.905,113.03,17.718Z"/><path class="cls-15" d="M42.3,126.614c-1.6-.472.747,7.162,4.163,9.724C46.459,136.338,46.957,127.99,42.3,126.614Z"/><path class="cls-21" d="M130.453,52.53s7.436-4.368,11.272.784c5.449,7.321-4.171,14.982-4.171,14.982A17.2,17.2,0,0,1,130.453,52.53Z"/><path class="cls-22" d="M131.115,52.578c-2.942.88,5.55,2.629,8.471,4.09s2.629,3.213,2.629,3.213S143.822,48.781,131.115,52.578Z"/><path class="cls-16" d="M136.891,66.665s2.615-1.221,4.516-5.434C141.407,61.231,142.123,65.746,136.891,66.665Z"/><path class="cls-15" d="M132.288,52.735c-.784,1.008,3.685.852,4.08-.2S133.231,51.522,132.288,52.735Z"/><path class="cls-15" d="M130.386,55.083s.073,6.885,4.235,10.762C134.621,65.845,131.024,59.253,130.386,55.083Z"/><path class="cls-15" d="M135.41,66.665s.973,1.474,1.771,1.372C137.181,68.037,136.177,66.43,135.41,66.665Z"/><path class="cls-23" d="M86.4,21.356s2.058-3.691,5.079-3.725c4.292-.049,4.546,5.73,4.546,5.73S91.458,25.121,86.4,21.356Z"/><path class="cls-24" d="M87.768,20.306c-.848,1.17,2.824-.605,4.333-.894s1.9.448,1.9.448S91.428,15.255,87.768,20.306Z"/><path class="cls-16" d="M95.216,23.162a5.1,5.1,0,0,0-.818-3.221A2.274,2.274,0,0,1,95.216,23.162Z"/><path class="cls-15" d="M88.25,20.029c0,.6,1.621-.735,1.468-1.239S88.256,19.307,88.25,20.029Z"/><path class="cls-15" d="M88.209,22.5s3.442,1.815,6.068,1.3C94.277,23.8,89.972,23.405,88.209,22.5Z"/><path class="cls-15" d="M94.807,23.725s.83.038,1.011-.294C95.818,23.431,94.93,23.369,94.807,23.725Z"/><path class="cls-15" d="M98.1,26.491s2.314.528,3,3.741A4.75,4.75,0,0,1,98.1,26.491Z"/><path class="cls-15" d="M40.226,123.228a47.242,47.242,0,0,1,7.989-1.644,24.288,24.288,0,0,1,7.846,0S45.041,122.46,40.226,123.228Z"/><path class="cls-15" d="M67.743,124.548s6.274,4.884,8.444,8.2C76.187,132.751,75.537,128.46,67.743,124.548Z"/><path class="cls-15" d="M55.465,27.475a10.476,10.476,0,0,1,5.187-3.036,20.158,20.158,0,0,1,4.948-.693S59.649,27.872,55.465,27.475Z"/><path class="cls-15" d="M57.6,121.762s1.977-.87,2.682.359C60.278,122.121,58.128,122.814,57.6,121.762Z"/><path class="cls-16" d="M71.965,142.617s.018-1.586,2.625-2.41C74.59,140.207,74.817,142.288,71.965,142.617Z"/><path class="cls-25" d="M42.145,22.659a13.9,13.9,0,1,1-13.9-13.9A13.9,13.9,0,0,1,42.145,22.659Z"/><path class="cls-26" d="M15.373,22.874s2.344,3.981,9.716-1.323S35.857,13.4,39.07,14.787c0,0-7.083-8.252-16.248-4.182C13.863,14.584,15.373,22.874,15.373,22.874Z"/><path class="cls-16" d="M33.118,34.541s6.354-3.05,7.668-9.795C40.786,24.746,42.1,32.461,33.118,34.541Z"/><path class="cls-15" d="M15.352,19.941a11.21,11.21,0,0,1,7.214-8.659S19.822,20.019,15.352,19.941Z"/><path class="cls-15" d="M22.831,10.974c-.671-.343,2.133-1.331,3.7-1.254C26.529,9.72,23.763,11.45,22.831,10.974Z"/><path class="cls-15" d="M26.546,35.635s3.286-2.629,6.572-1.094C33.118,34.541,31.037,36.562,26.546,35.635Z"/><path class="cls-27" d="M114.614,143.95a6.475,6.475,0,1,1-6.475-6.474A6.475,6.475,0,0,1,114.614,143.95Z"/><path class="cls-28" d="M102.147,144.051s1.091,1.853,4.524-.617,5.015-3.8,6.511-3.15c0,0-3.3-3.842-7.567-1.947A5.381,5.381,0,0,0,102.147,144.051Z"/><path class="cls-16" d="M110.41,149.484a7,7,0,0,0,3.571-4.562S114.593,148.515,110.41,149.484Z"/><path class="cls-15" d="M102.137,142.684a5.22,5.22,0,0,1,3.359-4.032S104.218,142.721,102.137,142.684Z"/><path class="cls-15" d="M105.619,138.509c-.312-.16.994-.62,1.723-.584C107.342,137.925,106.054,138.73,105.619,138.509Z"/><path class="cls-15" d="M107.35,149.993a3.2,3.2,0,0,1,3.06-.509A3.429,3.429,0,0,1,107.35,149.993Z"/></g></g></g></g></svg>