<svg xmlns="http://www.w3.org/2000/svg" xmlns:xlink="http://www.w3.org/1999/xlink" viewBox="0 0 158.522 158.522"><defs><style>.cls-1{isolation:isolate;}.cls-10,.cls-11,.cls-12,.cls-13,.cls-16,.cls-18,.cls-2,.cls-29,.cls-3,.cls-30,.cls-4,.cls-8,.cls-9{mix-blend-mode:screen;}.cls-2{fill:url(#radial-gradient);}.cls-3{fill:url(#radial-gradient-2);}.cls-4{fill:url(#radial-gradient-3);}.cls-10,.cls-11,.cls-12,.cls-13,.cls-14,.cls-15,.cls-16,.cls-17,.cls-18,.cls-19,.cls-20,.cls-21,.cls-22,.cls-23,.cls-24,.cls-25,.cls-26,.cls-27,.cls-28,.cls-29,.cls-30,.cls-31,.cls-32,.cls-5,.cls-6,.cls-7,.cls-8,.cls-9{fill-rule:evenodd;}.cls-5{fill:url(#Áåçûìÿííûé_ãðàäèåíò_460);}.cls-6{fill:url(#radial-gradient-4);}.cls-7{fill:url(#radial-gradient-5);}.cls-8{fill:url(#Áåçûìÿííûé_ãðàäèåíò_494);}.cls-9{fill:url(#Áåçûìÿííûé_ãðàäèåíò_494-2);}.cls-10{fill:url(#Áåçûìÿííûé_ãðàäèåíò_494-3);}.cls-11{fill:url(#Áåçûìÿííûé_ãðàäèåíò_494-4);}.cls-12{fill:url(#Áåçûìÿííûé_ãðàäèåíò_494-5);}.cls-13{fill:url(#Áåçûìÿííûé_ãðàäèåíò_494-6);}.cls-14,.cls-15{fill:#7d72b3;}.cls-14,.cls-22,.cls-29,.cls-30{opacity:0.5;}.cls-14,.cls-15,.cls-22{mix-blend-mode:multiply;}.cls-15{opacity:0.4;}.cls-16{fill:url(#Áåçûìÿííûé_ãðàäèåíò_494-7);}.cls-17{fill:#ffea00;}.cls-18{fill:url(#Áåçûìÿííûé_ãðàäèåíò_486);}.cls-19{fill:url(#radial-gradient-6);}.cls-20{fill:url(#radial-gradient-7);}.cls-21{fill:#ff61c7;}.cls-22{fill:#54469b;}.cls-23{fill:#e24f94;}.cls-24{fill:#e0407d;}.cls-25{fill:#ff77f4;}.cls-26{fill:#ea9cf4;}.cls-27{fill:#f474bd;}.cls-28{fill:#f2c4f8;}.cls-29{fill:url(#linear-gradient);}.cls-30{fill:url(#linear-gradient-2);}.cls-31{fill:#fffff8;}.cls-32{fill:#f5cefa;}</style><radialGradient id="radial-gradient" cx="-195.084" cy="-58.406" r="135.466" gradientTransform="translate(135.809 184.137) rotate(45) scale(0.585)" gradientUnits="userSpaceOnUse"><stop offset="0" stop-color="#ff1313"/><stop offset="1" stop-opacity="0"/></radialGradient><radialGradient id="radial-gradient-2" cx="-186.112" cy="-50.691" r="114.17" gradientTransform="matrix(0.074, 0.58, -0.58, 0.074, 68.791, 195.536)" xlink:href="#radial-gradient"/><radialGradient id="radial-gradient-3" cx="-196.294" cy="-60.382" r="108.95" gradientTransform="translate(193.405 113.435) scale(0.585)" gradientUnits="userSpaceOnUse"><stop offset="0" stop-color="#e213ff"/><stop offset="1" stop-opacity="0"/></radialGradient><radialGradient id="Áåçûìÿííûé_ãðàäèåíò_460" cx="-264.99" cy="-100.873" r="167.143" gradientTransform="translate(193.405 113.435) scale(0.585)" gradientUnits="userSpaceOnUse"><stop offset="0.006" stop-color="#ff9aff"/><stop offset="0.093" stop-color="#fb94ff"/><stop offset="0.209" stop-color="#f183ff"/><stop offset="0.342" stop-color="#e068ff"/><stop offset="0.486" stop-color="#c841ff"/><stop offset="0.639" stop-color="#a910ff"/><stop offset="0.684" stop-color="#9f00ff"/><stop offset="0.743" stop-color="#9900f8"/><stop offset="0.828" stop-color="#8700e5"/><stop offset="0.929" stop-color="#6a00c6"/><stop offset="1" stop-color="#5200ab"/></radialGradient><radialGradient id="radial-gradient-4" cx="-264.99" cy="-100.873" r="167.143" gradientTransform="translate(193.405 113.435) scale(0.585)" gradientUnits="userSpaceOnUse"><stop offset="0.006" stop-color="#d45f5f"/><stop offset="0.124" stop-color="#d15959"/><stop offset="0.282" stop-color="#c74848"/><stop offset="0.461" stop-color="#b62d2d"/><stop offset="0.655" stop-color="#a00606"/><stop offset="0.684" stop-color="#9c0000"/><stop offset="0.743" stop-color="#950000"/><stop offset="0.827" stop-color="#820000"/><stop offset="0.927" stop-color="#630000"/><stop offset="1" stop-color="#470000"/></radialGradient><radialGradient id="radial-gradient-5" cx="-260.251" cy="-110.545" r="164.3" gradientTransform="translate(193.405 113.435) scale(0.585)" gradientUnits="userSpaceOnUse"><stop offset="0.006" stop-color="#ff9a9a"/><stop offset="0.093" stop-color="#ff9495"/><stop offset="0.209" stop-color="#ff8386"/><stop offset="0.342" stop-color="#ff686e"/><stop offset="0.486" stop-color="#ff414d"/><stop offset="0.639" stop-color="#ff1023"/><stop offset="0.684" stop-color="#ff0015"/><stop offset="0.723" stop-color="#f80014"/><stop offset="0.779" stop-color="#e50011"/><stop offset="0.846" stop-color="#c5000d"/><stop offset="0.921" stop-color="#990007"/><stop offset="1" stop-color="#630000"/></radialGradient><radialGradient id="Áåçûìÿííûé_ãðàäèåíò_494" cx="-238.645" cy="-127.921" r="36.738" gradientTransform="translate(193.405 113.435) scale(0.585)" gradientUnits="userSpaceOnUse"><stop offset="0" stop-color="#fff"/><stop offset="1" stop-color="#623964"/></radialGradient><radialGradient id="Áåçûìÿííûé_ãðàäèåíò_494-2" cx="-232.8" cy="-114.641" r="12.781" xlink:href="#Áåçûìÿííûé_ãðàäèåíò_494"/><radialGradient id="Áåçûìÿííûé_ãðàäèåíò_494-3" cx="-240.66" cy="-115.824" r="13.467" xlink:href="#Áåçûìÿííûé_ãðàäèåíò_494"/><radialGradient id="Áåçûìÿííûé_ãðàäèåíò_494-4" cx="-250.185" cy="-128.794" r="31.109" xlink:href="#Áåçûìÿííûé_ãðàäèåíò_494"/><radialGradient id="Áåçûìÿííûé_ãðàäèåíò_494-5" cx="-263.483" cy="-140.886" r="52.745" xlink:href="#Áåçûìÿííûé_ãðàäèåíò_494"/><radialGradient id="Áåçûìÿííûé_ãðàäèåíò_494-6" cx="-243.933" cy="-132.532" r="73.493" xlink:href="#Áåçûìÿííûé_ãðàäèåíò_494"/><radialGradient id="Áåçûìÿííûé_ãðàäèåíò_494-7" cx="-266.85" cy="-131.991" r="124.163" xlink:href="#Áåçûìÿííûé_ãðàäèåíò_494"/><radialGradient id="Áåçûìÿííûé_ãðàäèåíò_486" cx="-229.632" cy="-23.855" r="97.859" gradientTransform="translate(193.405 113.435) scale(0.585)" gradientUnits="userSpaceOnUse"><stop offset="0" stop-color="#ffff4a"/><stop offset="1" stop-color="#360038"/></radialGradient><radialGradient id="radial-gradient-6" cx="-268.167" cy="13.901" r="10.562" gradientTransform="translate(193.405 113.435) scale(0.585)" gradientUnits="userSpaceOnUse"><stop offset="0" stop-color="#c20000"/><stop offset="0.445" stop-color="#b00"/><stop offset="1" stop-color="#ab0000"/></radialGradient><radialGradient id="radial-gradient-7" cx="-97.353" cy="-47.509" r="11.032" gradientTransform="translate(193.405 113.435) scale(0.585)" gradientUnits="userSpaceOnUse"><stop offset="0" stop-color="#4f0000"/><stop offset="0.39" stop-color="#480000"/><stop offset="0.952" stop-color="#350000"/><stop offset="1" stop-color="#300"/></radialGradient><linearGradient id="linear-gradient" x1="41.239" y1="58.409" x2="49.599" y2="58.409" gradientUnits="userSpaceOnUse"><stop offset="0" stop-color="#bdffe8"/><stop offset="0.201" stop-color="#8bbbaa" stop-opacity="0.734"/><stop offset="0.415" stop-color="#5a796e" stop-opacity="0.475"/><stop offset="0.611" stop-color="#33453f" stop-opacity="0.271"/><stop offset="0.779" stop-color="#171f1d" stop-opacity="0.123"/><stop offset="0.915" stop-color="#060808" stop-opacity="0.033"/><stop offset="1" stop-opacity="0"/></linearGradient><linearGradient id="linear-gradient-2" x1="21.316" y1="66.459" x2="58.301" y2="66.459" xlink:href="#linear-gradient"/></defs><title>planet-1</title><g class="cls-1"><g id="Layer_2" data-name="Layer 2"><g id="planets"><g id="planet-1"><circle class="cls-2" cx="79.261" cy="79.261" r="79.261" transform="translate(-32.831 79.261) rotate(-45)"/><circle class="cls-3" cx="84.511" cy="83.775" r="66.801" transform="translate(-9.234 157.071) rotate(-82.77)"/><circle class="cls-4" cx="78.553" cy="78.105" r="63.746"/><path class="cls-5" d="M139.86,92.766l-.455,1.629a2.3,2.3,0,0,1-.063.228A63.583,63.583,0,0,1,78.19,140.439c-1.124,0-2.274-.025-3.385-.088h-.013c-1.667-.089-3.322-.24-4.952-.442A63.184,63.184,0,0,1,40.926,128.4c-.784-.569-1.554-1.15-2.3-1.743,1.465-1.263,4.56-1.39,4.56-1.39l-4.308-3.423-10.8-5.811a62.343,62.343,0,0,1-5.583-8.35q-.588-1.041-1.138-2.122c0-.025-.025-.038-.037-.063q-.569-1.155-1.1-2.312h-.013a62.739,62.739,0,0,1-2.855-7.528c-.581-1.857-1.086-3.765-1.49-5.71a.076.076,0,0,1-.013-.051c-.278-1.351-.518-2.728-.707-4.118a62.617,62.617,0,0,1-.645-9.032c0-.707.013-1.427.038-2.122.025-1.048.089-2.1.19-3.12.075-1.023.189-2.046.315-3.057a1.506,1.506,0,0,1,.026-.227c.189-1.415.417-2.792.707-4.169A56.672,56.672,0,0,1,17.253,58.2a58.573,58.573,0,0,1,2.918-7.768A61.581,61.581,0,0,1,23.923,43.4c4.345-2.3,7.124-3.5,7.124-3.5s74.15-14.716,75.3-15.98,6.758-.467,6.758-.467a64.691,64.691,0,0,1,9.689,7.807c.7.669,1.364,1.376,2.046,2.084.442.48.884.985,1.314,1.478.733.833,1.453,1.7,2.147,2.577a63.222,63.222,0,0,1,6.645,10.383c.732,1.415,1.4,2.867,2.021,4.346,0,.012.013.025.013.038a75.975,75.975,0,0,1-1.339,41.37A14.467,14.467,0,0,1,139.86,92.766Z"/><path class="cls-6" d="M139.86,92.766l-.455,1.629a2.3,2.3,0,0,1-.063.228A63.583,63.583,0,0,1,78.19,140.439c-1.124,0-2.274-.025-3.385-.088h-.013c-1.667-.089-3.322-.24-4.952-.442A63.184,63.184,0,0,1,40.926,128.4c-.784-.569-1.554-1.15-2.3-1.743,1.465-1.263,4.56-1.39,4.56-1.39l-4.308-3.423-10.8-5.811a62.343,62.343,0,0,1-5.583-8.35q-.588-1.041-1.138-2.122c0-.025-.025-.038-.037-.063q-.569-1.155-1.1-2.312h-.013a62.739,62.739,0,0,1-2.855-7.528c-.581-1.857-1.086-3.765-1.49-5.71a.076.076,0,0,1-.013-.051c-.278-1.351-.518-2.728-.707-4.118a62.617,62.617,0,0,1-.645-9.032c0-.707.013-1.427.038-2.122.025-1.048.089-2.1.19-3.12.075-1.023.189-2.046.315-3.057a1.506,1.506,0,0,1,.026-.227c.189-1.415.417-2.792.707-4.169A56.672,56.672,0,0,1,17.253,58.2a58.573,58.573,0,0,1,2.918-7.768A61.581,61.581,0,0,1,23.923,43.4c4.345-2.3,7.124-3.5,7.124-3.5s74.15-14.716,75.3-15.98,6.758-.467,6.758-.467a64.691,64.691,0,0,1,9.689,7.807c.7.669,1.364,1.376,2.046,2.084.442.48.884.985,1.314,1.478.733.833,1.453,1.7,2.147,2.577a63.222,63.222,0,0,1,6.645,10.383c.732,1.415,1.4,2.867,2.021,4.346,0,.012.013.025.013.038a75.975,75.975,0,0,1-1.339,41.37A14.467,14.467,0,0,1,139.86,92.766Z"/><path class="cls-7" d="M138.041,76.748a58.169,58.169,0,0,1-.379,6.67,57.17,57.17,0,0,1-1.958,9.9,1.455,1.455,0,0,1-.063.215,59.773,59.773,0,0,1-57.451,43.05c-1.061,0-2.135-.026-3.183-.089h-.013c-1.566-.076-3.12-.227-4.648-.417a59.287,59.287,0,0,1-27.159-10.813c-1.175-.834-2.312-1.73-3.411-2.653-.3-.252-.606-.5-.9-.77a60.964,60.964,0,0,1-13.011-16.03c-.366-.657-.72-1.327-1.073-2,0-.025-.013-.038-.026-.063-.366-.72-.707-1.44-1.036-2.173h-.012a57.343,57.343,0,0,1-2.678-7.074,53.406,53.406,0,0,1-1.4-5.356.074.074,0,0,1-.013-.051c-.265-1.275-.493-2.564-.67-3.865a58.927,58.927,0,0,1-.606-8.489c0-.669.013-1.339.038-2,.025-.986.088-1.971.177-2.931s.177-1.92.3-2.868a1.3,1.3,0,0,1,.025-.214c.177-1.327.392-2.628.657-3.916a53.087,53.087,0,0,1,1.39-5.495,55.457,55.457,0,0,1,2.741-7.3,59.46,59.46,0,0,1,4-7.39,54.441,54.441,0,0,1,3.36-4.737,58.964,58.964,0,0,1,5.432-6.064A59.625,59.625,0,0,1,78.19,16.9c.632,0,1.263.012,1.882.025.67.026,1.339.051,2.009.1,1.857.126,3.7.329,5.507.619.026,0,.038.013.064.013,1.515.227,3.006.53,4.471.884,1.895.455,3.752.985,5.571,1.617,1.238.417,2.45.884,3.651,1.39.9.379,1.768.77,2.64,1.187.151.076.3.139.454.215a59.97,59.97,0,0,1,15.652,11.065c.656.632,1.288,1.289,1.92,1.958.417.455.833.922,1.238,1.39.694.783,1.364,1.6,2.021,2.425a59.547,59.547,0,0,1,12.493,31.239A57.248,57.248,0,0,1,138.041,76.748Z"/><path class="cls-8" d="M48.972,52.9a10.359,10.359,0,0,0-.265,7.112c1.322,3.582,5.032,1.2,9.46,0s8.975-5.86,11.848-8.738,5.624-6.827,5.385-10.657-4.282-6.344-4.282-6.344,1.47-1.875.235,5.629-2.915,10.181-4.52,11.372-6.492,4.039-9.157,5.631-5.642,3.246-7.407,2.86S47.573,55.413,48.972,52.9Z"/><path class="cls-9" d="M57.083,50.315s-2.267,2.013-1.668,3.637,4.906.583,7.658-2.906.578-6.306.578-6.306-1.011,5.822-3.689,6.845-3.55.594-3.55.594S56,51.71,57.083,50.315Z"/><path class="cls-10" d="M50.216,52.829s2.207-2.5,4.72-4.844S61.8,44.74,61.8,44.74a6.192,6.192,0,0,0-5.791.547C52.756,47.179,50.216,52.829,50.216,52.829Z"/><path class="cls-11" d="M41.2,52.874s5.116-5.686,11.339-8.134,8.376-3.166,11.129-5.44a50.967,50.967,0,0,1,5.86-4.094s-6.057.309-15.314,6.173S41.178,50.966,41.2,52.874Z"/><path class="cls-12" d="M28.724,51.743s8.86-8.853,15.8-12.324,11.609-5.744,17.831-7.3S78.2,27.85,78.2,27.85l1.737-.872s-19.787.4-32.776,8.228S28.724,51.743,28.724,51.743Z"/><path class="cls-13" d="M39.344,61.951s1.476,12.226,3.6,12.776,9.752.493,21.084-5.3,13.634-4.456,19.985-10.912S92.94,44.728,94.906,39.9s2.541-10.337,1.929-12.051c0,0,2.14,1.278,2.14,6.065A52.783,52.783,0,0,1,95.505,51.4c-2.035,4.655-7.3,11.955-13.643,15.545S62.834,77.429,50.388,77.332s-10.479-1-11.761-3.478S39.344,61.951,39.344,61.951Z"/><path class="cls-14" d="M19.944,72.39a76.8,76.8,0,0,1,3.469,9.435c1.246,4.506,1.006,12.165,6.152,13.362S41.892,99.734,44.644,98.9s12.916-2.66,18.549-1.555,15.917.478,19.507-1.317,11.319-6.4,14.994-7.809,8.75-5.406,13.123-9.851,4.314-9.505,5.391-12.018,3.231-12.566,2.992-17.113-2.992-13.045-2.992-13.045l-2.56-2.7s3.158,11.68,1.722,19.937-.12,11.608-5.864,19.507A47.138,47.138,0,0,1,86.769,90.041c-8.976,2.992-14.729,2.632-24.055,3.5-8.7.806-19.527.19-23.835-.932a21.75,21.75,0,0,1-13.023-9.9C21.906,76.4,19.944,72.39,19.944,72.39Z"/><path class="cls-15" d="M39.737,59.465s.824,13.277,2.514,14.42,5.265,1.616,8.616.479,14.839-4.907,16.814-6.1,14.072-7.241,16.455-9.036,5.565-8.18,6.642-9.505,4.009-9.223,4.846-12.215,1.436-6.582,1.436-6.582a2.081,2.081,0,0,0-1.2-2.214c-1.436-.539-1.674,0-1.674,0s-.3,1.974-1.557,7.659S74.442,61.559,65.886,66.645,49.192,71.91,46.26,71.551,39.678,61.738,39.737,59.465Z"/><path class="cls-15" d="M39.344,61.951s.353-8.269,2.488-11.043,9.3-8.5,13.536-10.651,10.4-5.208,12.552-5.662a8.055,8.055,0,0,1,3.66,0s-2.583-1.4-8.507.1-12.625,7-15.856,8.707-8.257,5.833-9.454,7.927S39.344,61.951,39.344,61.951Z"/><path class="cls-15" d="M24.786,53.234,43.148,37.146,54.522,32s11.244-3.82,16.39-5.022,16.694-1.56,16.694-1.56l6.054.658s-10.534-5.744-26.1-1.556S41.652,33.939,37.1,38.235,25.692,51.133,24.786,53.234Z"/><path class="cls-16" d="M24.272,53.952s-9.865,11.906-5.078,19.233,6.9,17.894,8.291,20.352,17.271,6.15,20.569,5.387,11.21-2.838,16.386-.835c0,0,9.165-.788,11.8-.788s7.419-2.234,8.536-2.793,7.34-2.552,10.531-3.829,8.3-5.266,10.372-6.861a55.482,55.482,0,0,0,8.536-10.052c1.037-2,4.143-13.644,4.947-19.148S117.6,38.5,115.809,34.832s-7.42-7.1-7.42-7.1l.328-1.66,4.388-2.618s7.65,10.03,8.368,18.692c.421,5.079,1.6,15.913.26,20.562-1.072,3.733-4.727,14.706-7.919,18.626S101.049,95.258,95.943,97.2s-20.167,4.55-29.04,4.731c-6.54.134-20.944-1.036-28.024-1.276s-12.142-4.676-14.956-6.925-1.857-8.374-4.729-13.21-4.455-11.27-3.743-14.771S24.272,53.952,24.272,53.952Z"/><path class="cls-17" d="M41.6,99.284c-1.516-.354-2.88-1.187-4.383-1.566-.847-.2-1.68-.329-2.514-.569a11.783,11.783,0,0,0-2.64-.442A5.779,5.779,0,0,1,27.4,94.762,12.775,12.775,0,0,1,25.35,90.48c-.594-2.123-1.162-4.245-1.819-6.367a22.845,22.845,0,0,0-2.526-5.432c-.43-.695-.8-1.389-1.263-2.059a13.969,13.969,0,0,1-1.352-1.869l-.013-.013A12.451,12.451,0,0,1,17.3,69.093a15.409,15.409,0,0,1,.543-3.019,12.716,12.716,0,0,1,1.288-3.549c.607-1.049,1.2-2.122,1.807-3.2a55.146,55.146,0,0,1,4.446-6.885A97.344,97.344,0,0,1,32.4,44.676a39.092,39.092,0,0,1,4.636-3.9c1.364-1.01,2.627-2.122,3.979-3.145a43.431,43.431,0,0,1,7.579-4.181c3.146-1.516,6.291-2.981,9.563-4.181A82.946,82.946,0,0,1,70.068,25.9a70.056,70.056,0,0,1,14.173-1.1c2.577.012,5.331-.316,7.794.644a21.267,21.267,0,0,1,4.219,1.92,1.685,1.685,0,0,1,.581.48,2.013,2.013,0,0,1,.24.53,5.068,5.068,0,0,1,.417,1.643c0,.518-.227.972-.227,1.515.012.771-.19,1.466-.215,2.224a21.721,21.721,0,0,1-.379,2.4,20.042,20.042,0,0,1-1.087,4.547c-.884,2.135-1.465,4.383-2.437,6.493-.291.644-.809,1.137-1.1,1.781-.277.581-.53,1.061-.858,1.617-.619,1.036-1.125,2.11-1.832,3.095a30.635,30.635,0,0,1-4.889,5.785A43.874,43.874,0,0,1,76.9,64.407c-1.743.922-3.563,1.667-5.331,2.552-1.579.783-3.158,1.591-4.75,2.337a101.776,101.776,0,0,1-12.733,4.661,22.335,22.335,0,0,1-3.676.985,24.518,24.518,0,0,1-3.688.518,13.23,13.23,0,0,1-3.777-.733c-2.047-.682-2.249-2.905-2.4-4.749a37.383,37.383,0,0,0-.531-4.106c-.2-1.1-.29-2.185-.543-3.3a16.482,16.482,0,0,1-.43-3.423,17.987,17.987,0,0,1,.872-4.27,16,16,0,0,1,.7-2.753,9.951,9.951,0,0,1,2.6-3.323c1.048-.934,2.084-1.857,3.12-2.8.619-.581,1.352-1.01,2.009-1.541a21.45,21.45,0,0,1,3.739-2.312,33.474,33.474,0,0,0,2.753-2.034,34.63,34.63,0,0,1,3.159-1.857c.922-.454,1.92-.77,2.88-1.149.783-.3,1.5-.758,2.3-1.023.732-.253,1.49-.328,2.21-.632a16.284,16.284,0,0,1,2.11-.745,13.247,13.247,0,0,1,2.577-.568c1.642-.026,2.45.8,2.867,2.387.581,2.173-.088,4-.871,6.013-.632,1.617-1.327,3.221-1.946,4.863-.821,2.186-2.766,3.335-4.408,4.826a23.443,23.443,0,0,1-5.988,3.915c-.669.3-1.389.481-2.046.759-.569.252-1.125.568-1.693.871-.366.2-.631.493-.973.72-.3.2-.657.316-.972.518a15.859,15.859,0,0,1-2.388,1.364c-.808.367-2.413.581-2.943-.366a6.207,6.207,0,0,1-.366-1.693,7.882,7.882,0,0,1-.177-1.895,10.707,10.707,0,0,1,.227-1.806,11.034,11.034,0,0,1,.581-1.718,17.25,17.25,0,0,1,2.842-4.409,28.183,28.183,0,0,1,2-2.614,8.685,8.685,0,0,1,4.346-2.223c1.44-.354,3.587-.784,4.914.05,1.124.7.341,2.223-.026,3.158-.2.518-.417,1.048-.593,1.579a5.474,5.474,0,0,1-.405,1.213,9.5,9.5,0,0,1-2.084,1.932,4.494,4.494,0,0,1-1.2.771c-.48.152-1,.139-1.478.253-.24.05-.366.353-.657.24-.265-.089-.265-.392-.215-.67.051-.252.165-.505.215-.745.013-.051-.05-.139-.038-.2a10.459,10.459,0,0,1,1.579-2.312c.682.278.215.682.089.985a7.142,7.142,0,0,0-.139.758c-.051.215-.379.607-.139.834.164.164.72-.126.9-.189a5.357,5.357,0,0,0,2.867-3.575c.291-.948.24-2.59-.808-3.007a7.5,7.5,0,0,0-2.552-.151c-2.968-.051-4.724,3.12-6.3,5.166a17.356,17.356,0,0,0-2.5,4.611,33.936,33.936,0,0,0-.91,3.461c-.227.846-.5,2.147.8,1.971a14.872,14.872,0,0,0,2.3-.758,11.646,11.646,0,0,0,1.781-.758c.935-.506,1.983-.644,2.956-1.074.758-.341,1.529-.758,2.286-1.124a17.336,17.336,0,0,0,5.23-4.548,40.9,40.9,0,0,1,3.246-2.993A15.817,15.817,0,0,0,69.676,44.8a14.476,14.476,0,0,0,1.453-4.1c.3-1.314,1.086-2.8.682-4.169-.43-1.415-2.249-1.44-3.423-1.238a14.849,14.849,0,0,0-2.969.7c-1.718.682-3.411,1.415-5.116,2.109-2.69,1.112-4.926,2.944-7.39,4.447a36.7,36.7,0,0,0-3.764,2.248c-.859.67-1.68,1.453-2.5,2.186a18.293,18.293,0,0,1-1.718,1.554A10.37,10.37,0,0,0,42.606,50.6a8.959,8.959,0,0,0-1.4,2.274,4.848,4.848,0,0,0,.025,1.908,25.9,25.9,0,0,1-.24,2.614c-.038.935,0,1.895.012,2.83,0,1.831-.278,3.613-.239,5.469a20.176,20.176,0,0,0,.505,3.462,20.347,20.347,0,0,1,.606,2.589,2.29,2.29,0,0,0,.644,1.756,3.539,3.539,0,0,0,.872.354c.265.1.5.189.758.265.139.051.29.076.442.126.114.063.2.228.316.278a2.068,2.068,0,0,0,1.073-.012c.733-.139,1.453-.316,2.186-.443,1.831-.315,3.688-.278,5.432-.934,2.008-.758,3.878-1.844,5.861-2.653,2.968-1.213,6.152-2.1,8.994-3.625,1.276-.7,2.6-1.339,3.916-1.933,3.12-1.4,6.392-2.539,9.133-4.649A23.839,23.839,0,0,0,84.241,57.6c.5-.543,1.048-1.023,1.5-1.617A39.623,39.623,0,0,0,89.4,50.4c.442-.821.707-1.718,1.162-2.539.707-1.276,1.566-2.4,2.223-3.714A25.941,25.941,0,0,0,94.233,40.2a6.766,6.766,0,0,0,.429-2.4,11.236,11.236,0,0,1,.872-4.914,5.265,5.265,0,0,0,.657-3.2c-.152-.492-.859-.619-1.289-.758-1.01-.341-2.059-.593-3.031-1.023a10.241,10.241,0,0,0-2.527-1.048,4.613,4.613,0,0,0-1.1-.114c-.947.05-1.768.707-2.716.669a5.442,5.442,0,0,1-.859-.176,9.841,9.841,0,0,0-1.5-.038c-1.086-.038-2.135-.24-3.234-.228-1.288.013-2.551.126-3.84.2-1.2.064-2.413-.038-3.612,0a4.856,4.856,0,0,0-1.933.683c-.619.277-1.314.391-1.958.631a5.108,5.108,0,0,1-1.706.455,12.829,12.829,0,0,0-2.513.063,18.8,18.8,0,0,0-2.981,1.036c-2.691,1.149-5.306,2.589-8.1,3.473-1.351.418-2.741.607-4.055,1.138a8.37,8.37,0,0,0-1.364.846c-.884.594-1.806,1.137-2.716,1.7-2.033,1.289-3.966,2.7-5.9,4.144a39.324,39.324,0,0,0-6.328,5.532,134.506,134.506,0,0,0-9.55,11.723,39.261,39.261,0,0,0-3.828,6.215c-.025.05-.038.088-.063.139a7.467,7.467,0,0,0-.632,3.916.153.153,0,0,0,.013.075,14.118,14.118,0,0,0,1.074,3.436,27.252,27.252,0,0,0,1.377,3.045,23.343,23.343,0,0,1,1.932,3.057c.544,1.4,1.036,2.905,1.453,4.358a53.557,53.557,0,0,1,1.3,5.6,12.633,12.633,0,0,0,.96,3.4c.771,1.49,2.413,2.046,3.752,2.918a3.508,3.508,0,0,0,2.059.657,14.954,14.954,0,0,1,3.486.694,23.962,23.962,0,0,0,7.479,1.276,38.031,38.031,0,0,0,4.484-.619c1.4-.177,2.8-.316,4.194-.543a24.062,24.062,0,0,1,3.789-.556,14.7,14.7,0,0,1,3.777.531,20.612,20.612,0,0,0,6.367.96c1.339-.038,2.653-.341,3.979-.43a27.511,27.511,0,0,1,3.676.2,17.017,17.017,0,0,0,6.354-1.074,18.42,18.42,0,0,0,3.815-1.87,11.259,11.259,0,0,1,3.094-1.061,27.06,27.06,0,0,0,6.3-2.489c2.577-1.465,4.7-3.625,7.2-5.191,1.415-.884,3.006-1.465,4.383-2.413a21.187,21.187,0,0,0,3.171-2.64c1.125-1.137,2.185-2.324,3.31-3.461a9.885,9.885,0,0,0,1.7-3.045,17.919,17.919,0,0,0,1.3-5,18.889,18.889,0,0,1,1.794-4.825,18.23,18.23,0,0,0,1.958-6.215c.164-1.7.391-3.423.391-5.141a25.659,25.659,0,0,0-.328-3.26c-.139-1.01-.341-1.983-.556-2.981-.278-1.225-.24-2.488-.467-3.726-.2-1.061-.531-2.186-.821-3.234a17.183,17.183,0,0,0-.783-2.223,14.974,14.974,0,0,0-2.186-3.6,6.246,6.246,0,0,0-1.288-.9c-.329-.253-.4-.468-.783-.657-.531-.265-1.062-.53-1.579-.821-.834-.48-1.782-.619-2.615-1.074-.8-.429-1.516-1-2.274-1.478a14.578,14.578,0,0,1-2.476-1.617c-.733-.707-1.213-1.6-1.92-2.311a23.786,23.786,0,0,0-2.577-1.845c-1.427-1.111-3.107-1.2-4.712-1.882a11.828,11.828,0,0,0-2.463-.581c-.973-.2-1.63-.8-2.665-.909a16.443,16.443,0,0,1-2.729-.367,10.177,10.177,0,0,0-1.591-.316,15.717,15.717,0,0,0-3.171.165,26.221,26.221,0,0,1-2.817.05,15.122,15.122,0,0,1-2.388-.05,32.42,32.42,0,0,0-6.909-.152,23.875,23.875,0,0,0-6.278,1.011c-1.731.593-3.436,1.1-5.129,1.794a28.584,28.584,0,0,0-3.259,1.717c-2.615,1.466-5.015,3.26-7.5,4.927-2.779,1.844-5.394,3.891-8.072,5.9-1.743,1.314-3.512,2.615-5.23,3.967-.745.593-1.465,1.212-2.173,1.844a58.964,58.964,0,0,1,5.432-6.064A59.625,59.625,0,0,1,78.19,16.9c.632,0,1.263.012,1.882.025.67.026,1.339.051,2.009.1,1.857.126,3.7.329,5.507.619.026,0,.038.013.064.013q3.088.834,6.151,1.768c1.706.518,3.424.985,5.1,1.567,1.111.379,2.2.871,3.271,1.313a29.358,29.358,0,0,1,2.956,1.289,41.925,41.925,0,0,1,4.219,2.956,27.16,27.16,0,0,1,2.577,2.261,22.023,22.023,0,0,1,3.057,3.714,31.458,31.458,0,0,1,4.447,10.447,39.769,39.769,0,0,1,.442,9.65,33.172,33.172,0,0,1-.708,5.217,51.881,51.881,0,0,0-1.212,5.432c-.089.922.063,1.87-.089,2.779-.126.746-.4,1.465-.555,2.211a17.8,17.8,0,0,1-1.516,4.56,27.336,27.336,0,0,1-3.752,5.331c-1.6,1.907-3.322,3.739-4.99,5.608a24.75,24.75,0,0,1-5.861,4.687,35.439,35.439,0,0,1-5.23,2.93,22.682,22.682,0,0,1-5.52,1.857,7.071,7.071,0,0,0-3.688,1.529c-.695.5-1.213,1.187-1.857,1.73a5.616,5.616,0,0,1-1.958.885,15.124,15.124,0,0,1-5,.429,71.265,71.265,0,0,0-7.34.493,22.7,22.7,0,0,1-3.7.151c-1.111-.063-2.211-.353-3.31-.492-1.225-.152-2.45-.177-3.663-.367a8.375,8.375,0,0,0-2.691-.05c-.783.088-1.566,0-2.349.063-.808.076-1.6.252-2.413.367C48.8,98.475,45.347,100.168,41.6,99.284Z"/><path class="cls-18" d="M38.627,126.658s14.01,2.461,20.378,2.276c9.626-.279,20.722.918,29.338,1.157s23.676-6.825,26.429-8.12a51.728,51.728,0,0,0,15.2-11.52c5.8-6.432,8.09-16.914,8.09-16.914h-2.419a29.126,29.126,0,0,1-4.415,9.63c-2.1,3.057-5.182,5.732-9.394,9.372a54.431,54.431,0,0,1-21.9,11.249c-10.587,2.639-20,1.909-26.488,2.877-9.4,1.4-30.258-1.92-30.258-1.92Z"/><path class="cls-19" d="M34.929,119.719s2.234,5.811,3.7,6.939c0,0,3.076.188,4.56-1.39l-4.308-3.423Z"/><path class="cls-20" d="M138.239,82.7a74.526,74.526,0,0,1,1.621,10.063s-2.339,1.474-4.219.771C135.641,93.537,137.847,85.506,138.239,82.7Z"/><path class="cls-21" d="M97.694,20.157s12.488,1.252,15.411,3.3c0,0-2.066,2.314-4.388,2.618C108.717,26.072,98.59,20.455,97.694,20.157Z"/><path class="cls-21" d="M23.923,43.4l5.119-.807,2-2.692S27.375,41.516,23.923,43.4Z"/><path class="cls-22" d="M28.079,116.034s24.224,7.033,43.132,7.393,26.013-3.851,34.189-7.01,21.6-10.412,25.647-15.765S138.239,82.7,138.239,82.7s-3.887,18.893-7.247,22.24-18.374,13.46-21.007,14.776-9.786,6.748-22.725,5.237c0,0-8.7,1.226-11.846.986s-8.032,2.935-17.008.031c0,0-12.488-.629-15.219-1.228S28.079,116.034,28.079,116.034Z"/><path class="cls-23" d="M33.962,90.611s20.079,3.479,34.624,1.994S91,87.488,95.146,84.775s12.277-11.4,15.318-15.351,4.574-13.834,4.574-13.834.549,9.653-1.933,13.834-11.016,12.133-14.5,14.444-13.462,7.79-18.674,8.737S66.12,96.187,59.89,95.044,38.554,94.1,33.962,90.611Z"/><path class="cls-24" d="M61.8,122.753s20.9-1.438,28.082-3.034,16.622-5.479,23.225-7.9,11.591-7.216,15.23-9.878,8.3-13.724,8.3-13.724-2.977,10.967-7.548,14.546-16.272,10.136-29.49,16C84.91,125.281,73.485,123.427,61.8,122.753Z"/><path class="cls-17" d="M134.63,96.505c.328-1,.682-1.983,1.011-2.968a59.751,59.751,0,0,1-4.649,11.406l-.038.038c-.556.543-1.238.973-1.756,1.566s-1,1.188-1.566,1.744a56.956,56.956,0,0,1-9.07,7.124,69.8,69.8,0,0,1-10.244,5.785,55.538,55.538,0,0,1-8.565,2.995,36.7,36.7,0,0,1-7.327.985c-1.237.063-2.45.265-3.676.379-1.528.164-3.094.139-4.6.4a61.939,61.939,0,0,1-7.921.96c-2.261.126-4.509.442-6.771.442-2.905-.013-5.785-.467-8.69-.455-2.817.026-5.66-.1-8.464-.353-1.68-.165-3.322-.48-4.977-.67-1.4-.164-2.754-.467-4.143-.619-1.175-.834-2.312-1.73-3.411-2.653-.3-.252-.606-.5-.9-.77,1.592.5,3.171,1.048,4.775,1.554a41.2,41.2,0,0,0,7.125,1.415,17.529,17.529,0,0,0,6.126-.064c1.971-.492,3.436.139,5.23.872a24.821,24.821,0,0,0,2.551.758,7.461,7.461,0,0,0,3.386.113c1.1-.139,2.248-.328,3.347-.568.935-.2,1.832-.581,2.779-.707a17.175,17.175,0,0,1,5.028-.152,17.183,17.183,0,0,0,5.684.215,36.184,36.184,0,0,1,5.836-.531,10.536,10.536,0,0,1,1.9.177,7.582,7.582,0,0,0,2.135-.152,19.025,19.025,0,0,0,3.739-.719c1.162-.367,2.274-.885,3.411-1.314a28.12,28.12,0,0,0,6.2-2.994c1.655-1.112,3.487-1.9,5.167-2.969,1.6-1.035,3.031-2.336,4.673-3.322,1.731-1.048,3.31-2.337,4.965-3.512,1.048-.745,1.983-1.629,3.031-2.387.91-.657,1.908-1.175,2.754-1.92a16.1,16.1,0,0,0,3.752-4.257A25.825,25.825,0,0,0,134.63,96.505Z"/><path class="cls-25" d="M70.5,63.242S84.941,51.421,91.008,39.9C91.008,39.9,74.179,57.189,70.5,63.242Z"/><path class="cls-26" d="M55.314,77.333a54.527,54.527,0,0,0,19.212-4.148A34.315,34.315,0,0,0,89.675,60.3,67.011,67.011,0,0,1,75.414,70.474C67.98,74.124,62.355,75.016,55.314,77.333Z"/><path class="cls-26" d="M91.371,58.217s1.022-2.6,2.937-7.171a55.85,55.85,0,0,1,3.423-7.013A29.284,29.284,0,0,1,91.371,58.217Z"/><path class="cls-27" d="M52.192,101.378a76.447,76.447,0,0,0,29.191,0c16.515-3.08,17.233-4.085,21.781-7.651s7.778-8.134,9.573-9.859,4.055-7.716,4.055-7.716-4.67,8.394-11.363,14.014-12.2,8.371-23.447,10.047A162.791,162.791,0,0,1,52.192,101.378Z"/><path class="cls-27" d="M63.314,128.9s11.487.992,16.155,1.949,13.642.923,18.788-.975,15.34-7.355,15.34-7.355a60.925,60.925,0,0,1-20.845,6.535C81.42,130.25,74.526,128.336,63.314,128.9Z"/><path class="cls-27" d="M116.935,120.845a125.778,125.778,0,0,0,10.871-8.146A27.607,27.607,0,0,1,116.935,120.845Z"/><path class="cls-28" d="M61.53,58.512s8.323-6.263,10.964-10.79S75.4,40.616,75.4,40.616s1.176,4.4-3.82,10A34,34,0,0,1,61.53,58.512Z"/><path class="cls-29" d="M42.091,54.139c-.674,3.055-1.356,6.159-.319,9.1s2.633,4.859,4.149,5.019,3.749-3.431,3.67-4.468-2.474-3.75-2.633-6.463,2.8-6.7,2.635-8.217S43.2,49.114,42.091,54.139Z"/><path class="cls-30" d="M43.447,41.65c-1-1.074-7.726,5.223-12.4,10.093s-9.3,11.252-9.7,15.321S24.3,77.279,30.363,82.7s21.849,10.369,25.644,8.136,2.4-9.175-.693-10.851-13.143,1.7-17.85-3.246-2.581-11.593-1.995-17.178c.718-6.837,2.872-12.6,4.867-14.36A17.937,17.937,0,0,0,43.447,41.65Z"/><path class="cls-31" d="M22.824,62.708c-1.3,4.411-1.453,9.128,1.261,12.75s4.762.912,5.72-7.929a83.189,83.189,0,0,0,.409-14.892S24.459,57.155,22.824,62.708Z"/><path class="cls-32" d="M27.259,78.04c-1.834,1.7,2.546,5.078,3.26,3.452S28.451,76.933,27.259,78.04Z"/><path class="cls-32" d="M22.4,91.388c-.174,2.8,1.425,5.987,6.325,7.821a20,20,0,0,0,8.74,1.335s-5.735-1.137-8.891-3.347A38.511,38.511,0,0,1,22.4,91.388Z"/><path class="cls-31" d="M42.5,54.575c-1.617-2.142.487-5.071,3.454-6.874s3.322-1.257,2.688.318-1.606,4.9-2.994,6.556S43.453,55.842,42.5,54.575Z"/><path class="cls-31" d="M53.159,50.847c-.615-1.05.625-4.114,2.319-3.833s1.28.956.487,2.075C55.372,49.925,53.74,51.838,53.159,50.847Z"/><path class="cls-31" d="M65.414,56.1c-.577-1.19,4.146-4.829,4.784-4.449s.226,2.307-.876,3.03S65.616,56.512,65.414,56.1Z"/></g></g></g></g></svg>