<svg xmlns="http://www.w3.org/2000/svg" xmlns:xlink="http://www.w3.org/1999/xlink" viewBox="0 0 158.522 158.522"><defs><style>.cls-1{isolation:isolate;}.cls-10,.cls-11,.cls-12,.cls-13,.cls-14,.cls-15,.cls-16,.cls-17,.cls-18,.cls-19,.cls-2,.cls-20,.cls-3,.cls-31,.cls-35,.cls-36,.cls-38,.cls-39,.cls-4,.cls-40,.cls-41,.cls-42,.cls-47,.cls-48,.cls-49,.cls-50,.cls-51,.cls-52,.cls-53,.cls-6,.cls-8,.cls-9{mix-blend-mode:screen;}.cls-2{fill:url(#radial-gradient);}.cls-3{fill:url(#radial-gradient-2);}.cls-4{fill:url(#radial-gradient-3);}.cls-10,.cls-11,.cls-12,.cls-13,.cls-15,.cls-16,.cls-17,.cls-18,.cls-19,.cls-20,.cls-21,.cls-22,.cls-23,.cls-24,.cls-25,.cls-26,.cls-27,.cls-28,.cls-29,.cls-30,.cls-31,.cls-32,.cls-33,.cls-34,.cls-35,.cls-36,.cls-37,.cls-38,.cls-39,.cls-40,.cls-41,.cls-42,.cls-43,.cls-44,.cls-45,.cls-46,.cls-47,.cls-48,.cls-49,.cls-5,.cls-50,.cls-51,.cls-52,.cls-53,.cls-6,.cls-7,.cls-8,.cls-9{fill-rule:evenodd;}.cls-5{fill:url(#Áåçûìÿííûé_ãðàäèåíò_183);}.cls-6{fill:url(#Áåçûìÿííûé_ãðàäèåíò_600);}.cls-7{fill:url(#Áåçûìÿííûé_ãðàäèåíò_183-2);}.cls-8{fill:url(#Áåçûìÿííûé_ãðàäèåíò_235);}.cls-9{fill:url(#Áåçûìÿííûé_ãðàäèåíò_235-2);}.cls-10{fill:url(#Áåçûìÿííûé_ãðàäèåíò_235-3);}.cls-11{fill:url(#Áåçûìÿííûé_ãðàäèåíò_241);}.cls-12{fill:url(#Áåçûìÿííûé_ãðàäèåíò_235-4);}.cls-13{fill:url(#Áåçûìÿííûé_ãðàäèåíò_235-5);}.cls-14{fill:url(#radial-gradient-4);}.cls-15{fill:url(#radial-gradient-5);}.cls-16{fill:url(#radial-gradient-6);}.cls-17{fill:url(#radial-gradient-7);}.cls-18{fill:url(#radial-gradient-8);}.cls-19{fill:url(#radial-gradient-9);}.cls-20{fill:url(#radial-gradient-10);}.cls-21,.cls-22,.cls-23,.cls-24,.cls-25,.cls-26,.cls-27,.cls-28,.cls-29,.cls-30,.cls-32,.cls-33,.cls-34{opacity:0.5;mix-blend-mode:multiply;}.cls-21{fill:url(#Áåçûìÿííûé_ãðàäèåíò_141);}.cls-22{fill:url(#Áåçûìÿííûé_ãðàäèåíò_247);}.cls-23{fill:url(#Áåçûìÿííûé_ãðàäèåíò_141-2);}.cls-24{fill:url(#Áåçûìÿííûé_ãðàäèåíò_141-3);}.cls-25{fill:url(#Áåçûìÿííûé_ãðàäèåíò_202);}.cls-26{fill:url(#Áåçûìÿííûé_ãðàäèåíò_202-2);}.cls-27{fill:url(#Áåçûìÿííûé_ãðàäèåíò_202-3);}.cls-28{fill:url(#Áåçûìÿííûé_ãðàäèåíò_202-4);}.cls-29{fill:url(#Áåçûìÿííûé_ãðàäèåíò_202-5);}.cls-30{fill:url(#Áåçûìÿííûé_ãðàäèåíò_202-6);}.cls-31{fill:url(#Áåçûìÿííûé_ãðàäèåíò_206);}.cls-32{fill:url(#Áåçûìÿííûé_ãðàäèåíò_202-7);}.cls-33{fill:url(#Áåçûìÿííûé_ãðàäèåíò_202-8);}.cls-34{fill:url(#Áåçûìÿííûé_ãðàäèåíò_202-9);}.cls-35{fill:url(#Áåçûìÿííûé_ãðàäèåíò_233);}.cls-36{fill:url(#Áåçûìÿííûé_ãðàäèåíò_233-2);}.cls-37{fill:#ffffbf;}.cls-38{fill:url(#Áåçûìÿííûé_ãðàäèåíò_260);}.cls-39{fill:url(#Áåçûìÿííûé_ãðàäèåíò_260-2);}.cls-40{fill:url(#Áåçûìÿííûé_ãðàäèåíò_260-3);}.cls-41{fill:url(#Áåçûìÿííûé_ãðàäèåíò_260-4);}.cls-42{fill:url(#Áåçûìÿííûé_ãðàäèåíò_260-5);}.cls-43{fill:#ffc975;}.cls-44{fill:#ffa475;}.cls-45{fill:#ff93a4;}.cls-46{fill:#ffbbb8;}.cls-47{fill:url(#Áåçûìÿííûé_ãðàäèåíò_260-6);}.cls-48{fill:url(#Áåçûìÿííûé_ãðàäèåíò_260-7);}.cls-49{fill:url(#Áåçûìÿííûé_ãðàäèåíò_260-8);}.cls-50{fill:url(#Áåçûìÿííûé_ãðàäèåíò_260-9);}.cls-51{fill:url(#Áåçûìÿííûé_ãðàäèåíò_262);}.cls-52{fill:url(#Áåçûìÿííûé_ãðàäèåíò_260-10);}.cls-53{fill:url(#Áåçûìÿííûé_ãðàäèåíò_260-11);}</style><radialGradient id="radial-gradient" cx="79.261" cy="79.261" r="79.261" gradientUnits="userSpaceOnUse"><stop offset="0" stop-color="#ff4000"/><stop offset="1" stop-opacity="0"/></radialGradient><radialGradient id="radial-gradient-2" cx="79.261" cy="79.261" r="62.251" gradientTransform="translate(150.326 -7.424) rotate(84.345)" gradientUnits="userSpaceOnUse"><stop offset="0" stop-color="#ff7300"/><stop offset="1" stop-opacity="0"/></radialGradient><radialGradient id="radial-gradient-3" cx="79.261" cy="79.261" r="59.405" gradientUnits="userSpaceOnUse"><stop offset="0" stop-color="#ff7900"/><stop offset="0.183" stop-color="#fc7800" stop-opacity="0.989"/><stop offset="0.315" stop-color="#f37300" stop-opacity="0.952"/><stop offset="0.432" stop-color="#e36c00" stop-opacity="0.89"/><stop offset="0.54" stop-color="#cc6100" stop-opacity="0.802"/><stop offset="0.642" stop-color="#af5300" stop-opacity="0.688"/><stop offset="0.739" stop-color="#8c4200" stop-opacity="0.548"/><stop offset="0.832" stop-color="#622e00" stop-opacity="0.383"/><stop offset="0.92" stop-color="#321800" stop-opacity="0.196"/><stop offset="1" stop-opacity="0"/></radialGradient><radialGradient id="Áåçûìÿííûé_ãðàäèåíò_183" cx="58.991" cy="55.25" r="76.401" gradientUnits="userSpaceOnUse"><stop offset="0.006" stop-color="#fc0"/><stop offset="0.183" stop-color="#fec902"/><stop offset="0.334" stop-color="#fcbe08"/><stop offset="0.476" stop-color="#f8ad13"/><stop offset="0.612" stop-color="#f29422"/><stop offset="0.743" stop-color="#ea7435"/><stop offset="0.818" stop-color="#e55e42"/><stop offset="0.845" stop-color="#e35d49"/><stop offset="0.883" stop-color="#df5a5c"/><stop offset="0.928" stop-color="#d7567c"/><stop offset="0.978" stop-color="#cc4fa7"/><stop offset="1" stop-color="#c74cbd"/></radialGradient><radialGradient id="Áåçûìÿííûé_ãðàäèåíò_600" cx="39.21" cy="37.323" r="70.868" gradientUnits="userSpaceOnUse"><stop offset="0" stop-color="#ffffd9"/><stop offset="1"/></radialGradient><radialGradient id="Áåçûìÿííûé_ãðàäèåíò_183-2" cx="56.668" cy="53.378" r="82.04" xlink:href="#Áåçûìÿííûé_ãðàäèåíò_183"/><radialGradient id="Áåçûìÿííûé_ãðàäèåíò_235" cx="-155.515" cy="310.594" r="8.939" gradientTransform="matrix(1.369, -0.951, 0.761, 1.095, 57.085, -416.597)" gradientUnits="userSpaceOnUse"><stop offset="0" stop-color="#ffd400"/><stop offset="0.658" stop-color="#584900"/><stop offset="1"/></radialGradient><radialGradient id="Áåçûìÿííûé_ãðàäèåíò_235-2" cx="-135.137" cy="313.025" r="5.792" xlink:href="#Áåçûìÿííûé_ãðàäèåíò_235"/><radialGradient id="Áåçûìÿííûé_ãðàäèåíò_235-3" cx="-224.588" cy="207.063" r="3.825" gradientTransform="matrix(1.55, 0.614, -0.491, 1.24, 564.545, -85.06)" xlink:href="#Áåçûìÿííûé_ãðàäèåíò_235"/><radialGradient id="Áåçûìÿííûé_ãðàäèåíò_241" cx="-125.094" cy="428.178" r="4.582" gradientTransform="matrix(0.614, -1.55, 1.24, 0.491, -326.139, -326.119)" gradientUnits="userSpaceOnUse"><stop offset="0" stop-color="#ff8600"/><stop offset="0.658" stop-color="#582e00"/><stop offset="1"/></radialGradient><radialGradient id="Áåçûìÿííûé_ãðàäèåíò_235-4" cx="-150.583" cy="278.794" r="6.683" xlink:href="#Áåçûìÿííûé_ãðàäèåíò_235"/><radialGradient id="Áåçûìÿííûé_ãðàäèåíò_235-5" cx="-166.495" cy="296.079" r="6.683" xlink:href="#Áåçûìÿííûé_ãðàäèåíò_235"/><radialGradient id="radial-gradient-4" cx="-162.795" cy="334.901" r="6.683" gradientTransform="matrix(1.667, 0, 0, 1.333, 360.424, -341.593)" gradientUnits="userSpaceOnUse"><stop offset="0.006" stop-color="#ff8300"/><stop offset="0.66" stop-color="#582d00" stop-opacity="0.347"/><stop offset="1" stop-opacity="0"/></radialGradient><radialGradient id="radial-gradient-5" cx="-336.708" cy="227.549" r="6.683" gradientTransform="matrix(1.098, 1.254, -1.003, 0.878, 643.321, 314.461)" xlink:href="#radial-gradient-4"/><radialGradient id="radial-gradient-6" cx="-411.832" cy="382.207" r="5.702" gradientTransform="matrix(-0.933, 1.381, -1.105, -0.746, 103.456, 957.857)" xlink:href="#radial-gradient-4"/><radialGradient id="radial-gradient-7" cx="-425.472" cy="405.618" r="5.702" gradientTransform="matrix(-0.933, 1.381, -1.105, -0.746, 103.456, 957.857)" xlink:href="#radial-gradient-4"/><radialGradient id="radial-gradient-8" cx="-429.861" cy="388.751" r="5.702" gradientTransform="matrix(-0.614, 1.55, -1.24, -0.491, 255.338, 903.323)" xlink:href="#radial-gradient-4"/><radialGradient id="radial-gradient-9" cx="-379.599" cy="271.59" r="5.702" gradientTransform="matrix(0.367, 1.626, -0.997, 0.225, 434.534, 633.906)" xlink:href="#radial-gradient-4"/><radialGradient id="radial-gradient-10" cx="-136.785" cy="375.995" r="6.683" gradientTransform="matrix(1.047, -1.297, 1.037, 0.838, -138.135, -405.239)" xlink:href="#radial-gradient-4"/><linearGradient id="Áåçûìÿííûé_ãðàäèåíò_141" x1="69.066" y1="92.585" x2="70.339" y2="92.585" gradientUnits="userSpaceOnUse"><stop offset="0" stop-color="#ca528d"/><stop offset="1" stop-color="#8e7090"/></linearGradient><linearGradient id="Áåçûìÿííûé_ãðàäèåíò_247" x1="28.289" y1="77.975" x2="132.254" y2="77.975" gradientUnits="userSpaceOnUse"><stop offset="0" stop-color="#f4788d"/><stop offset="1" stop-color="#8e7090"/></linearGradient><linearGradient id="Áåçûìÿííûé_ãðàäèåíò_141-2" x1="50.253" y1="88.628" x2="67.193" y2="88.628" xlink:href="#Áåçûìÿííûé_ãðàäèåíò_141"/><linearGradient id="Áåçûìÿííûé_ãðàäèåíò_141-3" x1="51.474" y1="30.078" x2="55.565" y2="30.078" xlink:href="#Áåçûìÿííûé_ãðàäèåíò_141"/><linearGradient id="Áåçûìÿííûé_ãðàäèåíò_202" x1="46.14" y1="47.678" x2="52.068" y2="47.678" gradientUnits="userSpaceOnUse"><stop offset="0" stop-color="#ca528d"/><stop offset="1" stop-color="#b3757c"/></linearGradient><linearGradient id="Áåçûìÿííûé_ãðàäèåíò_202-2" x1="106.861" y1="67.439" x2="127.598" y2="67.439" xlink:href="#Áåçûìÿííûé_ãðàäèåíò_202"/><linearGradient id="Áåçûìÿííûé_ãðàäèåíò_202-3" x1="78.772" y1="109.706" x2="78.806" y2="109.706" xlink:href="#Áåçûìÿííûé_ãðàäèåíò_202"/><linearGradient id="Áåçûìÿííûé_ãðàäèåíò_202-4" x1="105.308" y1="101.928" x2="122.196" y2="101.928" xlink:href="#Áåçûìÿííûé_ãðàäèåíò_202"/><linearGradient id="Áåçûìÿííûé_ãðàäèåíò_202-5" x1="35.65" y1="65.118" x2="45.895" y2="65.118" xlink:href="#Áåçûìÿííûé_ãðàäèåíò_202"/><linearGradient id="Áåçûìÿííûé_ãðàäèåíò_202-6" x1="31.621" y1="84.637" x2="36.958" y2="84.637" xlink:href="#Áåçûìÿííûé_ãðàäèåíò_202"/><linearGradient id="Áåçûìÿííûé_ãðàäèåíò_206" x1="25.685" y1="84.004" x2="25.685" y2="57.803" gradientUnits="userSpaceOnUse"><stop offset="0"/><stop offset="0.084" stop-color="#080502"/><stop offset="0.217" stop-color="#1f1209"/><stop offset="0.383" stop-color="#452813"/><stop offset="0.575" stop-color="#794621"/><stop offset="0.786" stop-color="#bb6c33"/><stop offset="0.983" stop-color="#ff9346"/></linearGradient><linearGradient id="Áåçûìÿííûé_ãðàäèåíò_202-7" x1="57.072" y1="61.553" x2="101.323" y2="61.553" xlink:href="#Áåçûìÿííûé_ãðàäèåíò_202"/><linearGradient id="Áåçûìÿííûé_ãðàäèåíò_202-8" x1="53.705" y1="110.479" x2="106.861" y2="110.479" xlink:href="#Áåçûìÿííûé_ãðàäèåíò_202"/><linearGradient id="Áåçûìÿííûé_ãðàäèåíò_202-9" x1="107.675" y1="41.064" x2="121.989" y2="41.064" xlink:href="#Áåçûìÿííûé_ãðàäèåíò_202"/><linearGradient id="Áåçûìÿííûé_ãðàäèåíò_233" x1="19.972" y1="65.094" x2="52.337" y2="65.094" gradientUnits="userSpaceOnUse"><stop offset="0" stop-color="#514579"/><stop offset="0.105" stop-color="#594d7f"/><stop offset="0.272" stop-color="#6e6490"/><stop offset="0.48" stop-color="#918aab"/><stop offset="0.721" stop-color="#c2bed0"/><stop offset="0.983" stop-color="#fff"/></linearGradient><linearGradient id="Áåçûìÿííûé_ãðàäèåíò_233-2" x1="52.974" y1="23.473" x2="93.205" y2="23.473" xlink:href="#Áåçûìÿííûé_ãðàäèåíò_233"/><linearGradient id="Áåçûìÿííûé_ãðàäèåíò_260" x1="87.29" y1="39.411" x2="105.713" y2="39.411" gradientUnits="userSpaceOnUse"><stop offset="0" stop-color="#ff8b4a"/><stop offset="1"/></linearGradient><linearGradient id="Áåçûìÿííûé_ãðàäèåíò_260-2" x1="68.593" y1="83.506" x2="102.658" y2="83.506" xlink:href="#Áåçûìÿííûé_ãðàäèåíò_260"/><linearGradient id="Áåçûìÿííûé_ãðàäèåíò_260-3" x1="40.773" y1="114.973" x2="70.632" y2="114.973" xlink:href="#Áåçûìÿííûé_ãðàäèåíò_260"/><linearGradient id="Áåçûìÿííûé_ãðàäèåíò_260-4" x1="84.419" y1="109.452" x2="105.235" y2="109.452" xlink:href="#Áåçûìÿííûé_ãðàäèåíò_260"/><linearGradient id="Áåçûìÿííûé_ãðàäèåíò_260-5" x1="108.644" y1="95.825" x2="121.164" y2="95.825" xlink:href="#Áåçûìÿííûé_ãðàäèåíò_260"/><linearGradient id="Áåçûìÿííûé_ãðàäèåíò_260-6" x1="103.838" y1="65.977" x2="126.84" y2="65.977" xlink:href="#Áåçûìÿííûé_ãðàäèåíò_260"/><linearGradient id="Áåçûìÿííûé_ãðàäèåíò_260-7" x1="57.072" y1="88.607" x2="57.072" y2="72.146" xlink:href="#Áåçûìÿííûé_ãðàäèåíò_260"/><linearGradient id="Áåçûìÿííûé_ãðàäèåíò_260-8" x1="67.602" y1="51.039" x2="67.602" y2="40.59" xlink:href="#Áåçûìÿííûé_ãðàäèåíò_260"/><linearGradient id="Áåçûìÿííûé_ãðàäèåíò_260-9" x1="111.604" y1="41.61" x2="124.678" y2="41.61" xlink:href="#Áåçûìÿííûé_ãðàäèåíò_260"/><linearGradient id="Áåçûìÿííûé_ãðàäèåíò_262" x1="123.386" y1="90.479" x2="133.623" y2="90.479" gradientUnits="userSpaceOnUse"><stop offset="0"/><stop offset="1" stop-color="#ff8b4a"/></linearGradient><linearGradient id="Áåçûìÿííûé_ãðàäèåíò_260-10" x1="65.04" y1="126.563" x2="88.78" y2="126.563" xlink:href="#Áåçûìÿííûé_ãðàäèåíò_260"/><linearGradient id="Áåçûìÿííûé_ãðàäèåíò_260-11" x1="98.56" y1="118.006" x2="116.181" y2="118.006" xlink:href="#Áåçûìÿííûé_ãðàäèåíò_260"/></defs><title>planet-9</title><g class="cls-1"><g id="Layer_2" data-name="Layer 2"><g id="planets"><g id="planet-9"><circle class="cls-2" cx="79.261" cy="79.261" r="79.261"/><circle class="cls-3" cx="79.261" cy="79.261" r="62.251" transform="translate(-7.425 150.326) rotate(-84.345)"/><circle class="cls-4" cx="79.261" cy="79.261" r="59.405"/><path class="cls-5" d="M132.4,73.969A53.8,53.8,0,0,1,78.556,127.81a55.169,55.169,0,0,1-7.061-.457A53.831,53.831,0,0,1,25.873,85.13a.068.068,0,0,1-.01-.047,54.452,54.452,0,0,1-1.148-11.114A53.843,53.843,0,0,1,78.556,20.128c1.177,0,2.335.038,3.493.112a53.333,53.333,0,0,1,17.333,4.072c.944.393,1.868.813,2.784,1.261a53.908,53.908,0,0,1,30.231,48.4Z"/><path class="cls-6" d="M46.628,116.021a54.031,54.031,0,0,1-13.5-16.97,53.342,53.342,0,0,1-4.623-13.14.074.074,0,0,1-.009-.047A54.452,54.452,0,0,1,27.351,74.75,53.843,53.843,0,0,1,81.192,20.909c1.177,0,2.335.038,3.493.112A53.754,53.754,0,0,1,95.3,22.785,53.545,53.545,0,0,0,82.049,20.24c-1.158-.074-2.316-.112-3.493-.112A53.822,53.822,0,0,0,24.715,73.969a54.452,54.452,0,0,0,1.148,11.114.068.068,0,0,0,.01.047A53.26,53.26,0,0,0,30.5,98.27a54.035,54.035,0,0,0,34,27.677A53.7,53.7,0,0,1,46.628,116.021Z"/><path class="cls-7" d="M125.822,99.756l-8.83,11.91c-7.592,16.15-24.81,14.4-24.81,14.4l-2.25.534c-18.184,12.66-33.787-3.035-33.787-3.035l-4-2.682c-9.4.762-11.842-9.035-11.842-9.035l-5.989-7.194-.114-.113c-28.094-25.707-5.91-49.88-5.91-49.88l1.83-4.228C31.653,37.648,43.632,33,43.632,33a13.855,13.855,0,0,1,8.705-7.353,10.277,10.277,0,0,1,3.228-.4c13.672-12.877,27.764-10.695,37.64-6.183.011,0,.023,0,.023.012A50.282,50.282,0,0,1,106.4,27.885C127.629,26.09,125,46.728,125,46.728c6.25,9.865,7.25,23.377,7.25,23.377C141.7,87.073,125.822,99.756,125.822,99.756Z"/><path class="cls-8" d="M92.782,62.88c3.756,5.4,1.323,13.593-5.434,18.289s-15.28,4.122-19.036-1.283S66.989,66.293,73.746,61.6,89.026,57.475,92.782,62.88Z"/><path class="cls-9" d="M118.219,49.148c2.434,3.5.857,8.809-3.522,11.852s-9.9,2.671-12.336-.832-.857-8.808,3.522-11.851S115.785,45.646,118.219,49.148Z"/><path class="cls-10" d="M120.76,36.111c-1.037,2.619-4.532,3.69-7.806,2.394s-5.086-4.471-4.049-7.089,4.531-3.69,7.8-2.394S121.8,33.493,120.76,36.111Z"/><path class="cls-11" d="M130.661,70.874c3.137,1.242,4.42,5.429,2.867,9.351s-5.356,6.094-8.493,4.852-4.421-5.429-2.867-9.352S127.524,69.631,130.661,70.874Z"/><path class="cls-12" d="M72.249,25.52c2.808,4.041.989,10.162-4.063,13.673s-11.423,3.081-14.232-.959-.989-10.163,4.063-13.674S69.441,21.479,72.249,25.52Z"/><path class="cls-13" d="M63.62,59.58c2.808,4.04.989,10.162-4.063,13.673s-11.424,3.081-14.232-.959-.989-10.163,4.063-13.674S60.811,55.539,63.62,59.58Z"/><ellipse class="cls-14" cx="89.077" cy="104.92" rx="11.139" ry="8.91" transform="translate(-43.946 69.596) rotate(-34.797)"/><path class="cls-15" d="M52.657,100.521c-3.7,3.242-9.989,2.119-14.042-2.509S34.276,87,37.978,83.762s9.988-2.118,14.042,2.509S56.358,97.279,52.657,100.521Z"/><path class="cls-16" d="M60.153,111.628c-3.479-2.35-3.917-7.781-.979-12.131s8.141-5.971,11.62-3.62,3.917,7.781.979,12.131S63.632,113.979,60.153,111.628Z"/><path class="cls-17" d="M47.017,75.316c-3.479-2.351-3.918-7.782-.979-12.132s8.14-5.971,11.62-3.62,3.917,7.781.979,12.131S50.5,77.666,47.017,75.316Z"/><path class="cls-18" d="M33.79,55.127c-3.9-1.546-5.5-6.756-3.567-11.637s6.664-7.583,10.567-6.037,5.5,6.756,3.569,11.636S37.694,56.673,33.79,55.127Z"/><path class="cls-19" d="M26.732,87c-3.139.708-6.619-2.87-7.774-7.99s.453-9.846,3.592-10.554,6.619,2.87,7.774,7.991S29.871,86.3,26.732,87Z"/><path class="cls-20" d="M115.642,78.41c3.828,3.092,3.8,9.478-.067,14.265s-10.1,6.16-13.93,3.068-3.8-9.478.067-14.264S111.814,75.319,115.642,78.41Z"/><path class="cls-21" d="M69.066,92.142a5.14,5.14,0,0,1,1.273.886A13.9,13.9,0,0,1,69.066,92.142Z"/><path class="cls-22" d="M125.822,99.756a32.806,32.806,0,0,1-8.83,11.91s-6.16-3.17-11.331.125-13.479,14.275-13.479,14.275l-2.25.534a18.242,18.242,0,0,0-6.4-6.387h-.012a10.488,10.488,0,0,0-1.614-.773,11.912,11.912,0,0,0-5.955-.739c-9.046,1.137-19.808,4.864-19.808,4.864l-4-2.682s7.444,2.25,16.343-4.58c8.2-6.3,6.648-19.081,1.852-23.275a17.433,17.433,0,0,0,9.933,2.8c6.023-.386,16.695-7.069,19.854-11.694-.727,1.261-6.875,11.433-14.842,16.126a16.781,16.781,0,0,0-6.478,9.4.34.34,0,0,0-.034.1c0,.023-.012.046-.012.08a.792.792,0,0,0-.034.216,8.1,8.1,0,0,0-.17,1.045,5.593,5.593,0,0,0,.034,1.523c.864,5.467,10.194,5.978,16.706,3.682,5.739-2.023,8.99-8.035,10.012-10.228.239-.511.353-.818.353-.818a23.459,23.459,0,0,0,12.637-1.08c2.364-.932,3.569-4.273,3.853-8.353.523-7.035-1.7-16.263-5.432-18.854-4.8-3.33-12.751,3.443-15.525,6.057,1.864-1.966,5.751-6.4,6.194-9.989C107.968,68.3,92.564,52.6,77.613,58c-15.529,5.6-11.138,26.246-9.49,31.054-1.227-3.41-4.882-14.016-4.668-19.785a42.426,42.426,0,0,1,2.23-12.672s-13.564-3.513-20.314,5.965S48.1,83.505,48.1,83.505s-6.75-5.831-8.751-8.513c0,0-7.125,19.525.955,36.856l-5.989-7.194s.579-5.773.863-17.695-6.887-32.3-6.887-32.3l1.83-4.228s2.478,17.377,5.2,19.843,11.126-9.74,12.9-16.638C51.212,41.955,43.632,33,43.632,33s7.842,5.012,9.887,17.832a115.1,115.1,0,0,0,25.037,2,61.326,61.326,0,0,0,25.673-6.1s-3.153,5.663-6.119,8.405c0,0,5.687,14.256,14.449,17.586s16.218-10.467,14.922-16.126-8.467-15.888-22.525-10.354c.182-.318,3.614-6.171,2.58-12.16-1.068-6.16-.432-4.535-.432-4.535a25.112,25.112,0,0,0,5.16,10.161C116.287,44.33,125,46.728,125,46.728s6.716,11.535,7.25,23.377c0,0-9.08.2-10.364,4.8S125.822,99.756,125.822,99.756Z"/><path class="cls-23" d="M50.253,85.281s5.886,9.56,16.94,5.829A47.412,47.412,0,0,1,50.253,85.281Z"/><path class="cls-24" d="M55.565,25.249a25.458,25.458,0,0,0-3.23,9.71s-1.938-5.388,0-9.315A7.244,7.244,0,0,1,55.565,25.249Z"/><path class="cls-25" d="M46.46,59.956A24.243,24.243,0,0,0,46.14,35.4s5.8,9.451,5.926,14.545C52.187,54.916,46.46,59.956,46.46,59.956Z"/><path class="cls-26" d="M106.861,69.354s5.982,7.89,11.581,6.666,8.773-11.444,9.156-17.29c0,0-3.735,14.382-10.639,15.239C110.66,74.751,106.861,69.354,106.861,69.354Z"/><path class="cls-27" d="M78.806,109.655a.34.34,0,0,0-.034.1.766.766,0,0,1,.022-.1Z"/><path class="cls-28" d="M117.23,107.268c-5.694,2.25-11.922-1.193-11.922-1.193.239-.511.353-.818.353-.818a23.459,23.459,0,0,0,12.637-1.08c2.364-.932,3.569-4.273,3.853-8.353h.011S122.924,105.007,117.23,107.268Z"/><path class="cls-29" d="M35.65,70.485a4.426,4.426,0,0,0,5.272-1.343c2.575-2.778,4.973-9.76,4.973-9.76S41.425,69.305,35.65,70.485Z"/><path class="cls-30" d="M31.621,65.521s4.1,9.383,5.14,14.981-2.369,23.25-2.369,23.25,1.2-13.635.5-22.711A58.039,58.039,0,0,0,31.621,65.521Z"/><path class="cls-31" d="M20.884,84s4.433-8.875,10.19-13.725c0,0,.476-8.258-3.882-12.476C27.192,57.8,17.858,65.758,20.884,84Z"/><path class="cls-32" d="M57.072,52.94s8.88,2.1,11.314,4.694c0,0-3.864,4.688-2.916,15.528,0,0,1.077-11.356,8.829-15.359s22.394.227,27.024,5.15c0,0-6.532-7.364-6.424-8.578s5.8-4.43,5.8-4.43a70.554,70.554,0,0,1-20.428,4.61C70.339,55.165,57.072,52.94,57.072,52.94Z"/><path class="cls-33" d="M73.653,95.825s3.737,5.974,3.034,9.885c-1.186,6.594-6.264,10.9-10.212,12.763s-12.77,3.462-12.77,3.462L55.062,123s10.911-3.733,16.581-4.881,17.083,1.938,18.949,8.4l1.59-.446a40.489,40.489,0,0,1,5.875-8.957,53.3,53.3,0,0,1,8.8-7.967,45.547,45.547,0,0,0-8.517,6.316c-5.024,4.522-4.543,6.391-11.125,4.881s-11.341-5.024-11.556-6.891,2.512-9.165,5.6-12.227a84.716,84.716,0,0,1,8.255-6.775s-5.886,4.862-9.906,4.719A7.611,7.611,0,0,1,73.653,95.825Z"/><path class="cls-34" d="M107.675,43.752s8.243-1.371,14.314,2.975c0,0-11.443-4.462-13.739-11.327C108.25,35.4,109.963,40.307,107.675,43.752Z"/><path class="cls-35" d="M52.337,25.646c-2.909,1.444-7.353,9.263-7.353,9.263a23.523,23.523,0,0,0-8.694,6.83C32.847,46.376,31.085,55,31.085,55l-1.75,2.807S19.823,69.2,22.05,81.868c2.091,11.876,11.035,21.514,12.149,22.673-28.094-25.707-5.91-49.88-5.91-49.88l1.83-4.228C31.653,37.648,43.632,33,43.632,33A13.855,13.855,0,0,1,52.337,25.646Z"/><path class="cls-36" d="M93.205,19.066C72.032,9.838,52.974,31.4,52.974,31.4a36.679,36.679,0,0,1,2.591-6.148C69.237,12.372,83.329,14.554,93.205,19.066Z"/><path class="cls-37" d="M60.9,27.346c1.792,1.384,8.642-1.625,10.433-4.746s.56-3.922.56-3.922a20.077,20.077,0,0,0-7.621,2.676C61.132,23.483,60.111,26.74,60.9,27.346Z"/><path class="cls-38" d="M87.29,49.468s5.658-.21,11.772-6.409c5.154-5.226,5.455-13.708,5.455-13.708s3.1,6.979-.679,13.708S87.29,49.468,87.29,49.468Z"/><path class="cls-39" d="M68.593,90.065s7.429,3.974,18.195-1.739,14.832-12.448,15.87-16.4a22.833,22.833,0,0,1-5.319,13.36c-5.3,6.295-12.92,10.543-18.651,9.7C73.42,94.213,68.593,90.065,68.593,90.065Z"/><path class="cls-40" d="M40.773,110.527s1.764,7.463,12.746,7.479,17.113-8.351,17.113-8.351-4.3,10.289-15.145,10.623S41.921,114.844,40.773,110.527Z"/><path class="cls-41" d="M84.419,114.9s8.219,2.628,14.105-3.231,6.711-9.348,6.711-9.348-2.885,10.455-9.937,13.372A12.616,12.616,0,0,1,84.419,114.9Z"/><path class="cls-42" d="M108.644,104.26s3.625.263,7.932-5.909,3.732-11.383,3.732-11.383S122.92,97.4,119.016,101.8,108.644,104.26,108.644,104.26Z"/><path class="cls-37" d="M59.657,28.359c-1.455-1.834-3.819,1.726-2.522,3.121S60.372,29.261,59.657,28.359Z"/><path class="cls-37" d="M78.556,61.553c-1.767-2.527-8.478,4-9.49,8.242S75.975,72.5,77.613,70.9,79.856,63.414,78.556,61.553Z"/><path class="cls-43" d="M109.909,80.725c-.9-1.285-4.871,1.183-4.826,4.191.034,2.22,3.513,1.377,4.347.564S110.57,81.671,109.909,80.725Z"/><path class="cls-37" d="M107.317,49.669c-.9-1.285-4.871,1.184-4.826,4.191.033,2.221,3.513,1.378,4.346.564S107.978,50.615,107.317,49.669Z"/><path class="cls-37" d="M110.156,29.673c-.609.016-.66,1.832.324,2.461.727.465,1.2-.843,1.114-1.287A2.08,2.08,0,0,0,110.156,29.673Z"/><path class="cls-37" d="M37.2,41.546c-.55-.637-2.535.9-2.346,2.5.139,1.183,1.95.542,2.351.063A2.873,2.873,0,0,0,37.2,41.546Z"/><path class="cls-37" d="M48.349,62.737c-.435-.623-2.362.574-2.34,2.033.016,1.077,1.7.668,2.108.273A2.6,2.6,0,0,0,48.349,62.737Z"/><path class="cls-37" d="M40.858,87.539c-.824-.536-2.552,1.832-1.819,3.569.541,1.283,2.371-.022,2.658-.693A2.253,2.253,0,0,0,40.858,87.539Z"/><path class="cls-37" d="M24.4,71.266c-1.1-.706-3.378,2.449-2.394,4.751.726,1.7,3.14-.049,3.525-.938A4.458,4.458,0,0,0,24.4,71.266Z"/><path class="cls-43" d="M84.242,104.41c-.443-.634-2.405.584-2.382,2.07.016,1.1,1.734.679,2.146.278A2.645,2.645,0,0,0,84.242,104.41Z"/><path class="cls-37" d="M68.6,76.266c-.807.64-.59,2.3-.168,2.865s1.6-.846,1.644-1.433S69.05,75.909,68.6,76.266Z"/><path class="cls-44" d="M65.179,122.107c-.919-.465-2.337.427-2.672,1.047s.893,1.249,1.988.893S65.691,122.366,65.179,122.107Z"/><path class="cls-45" d="M103.219,114.973c-1.448.022-3.264,2.117-3.586,3.136s1.617,1,3.106-.191C104.213,116.739,104.026,114.961,103.219,114.973Z"/><path class="cls-46" d="M126.813,74.289c-1.007-.152-2.031,1.122-2.138,1.806s1.241.895,2.142.222S127.373,74.373,126.813,74.289Z"/><path class="cls-37" d="M64.485,94.743c-1.834-.276-3.7,2.045-3.895,3.292s2.262,1.631,3.9.405C66.116,97.228,65.507,94.9,64.485,94.743Z"/><path class="cls-47" d="M103.838,62.568s4.724,7.552,13.391,5.876,9.611-9.062,9.611-9.062-2.78,13.9-11.5,13.163S103.838,62.568,103.838,62.568Z"/><path class="cls-48" d="M50.73,83.081s5.917,3.251,8.993.58,1.63-11.515,1.63-11.515,3.567,14.141,1.316,16.136C60.513,90.192,50.73,83.081,50.73,83.081Z"/><path class="cls-49" d="M52.068,40.59s1.825,4.266,11.346,7.088a66.451,66.451,0,0,0,19.725,2.261s-17.4,2.444-24.416.045A9.7,9.7,0,0,1,52.068,40.59Z"/><path class="cls-50" d="M111.6,37.808s4.685,3.69,8.345,4.634,4.72-1.044,4.72-1.044.2,3.812-1.382,4S115.479,42.487,111.6,37.808Z"/><path class="cls-51" d="M123.386,84s2.132,7.744,4.462,8.581,5.775-5.617,5.775-5.617-1.934,7.167-6.783,9.986C126.84,96.954,124.505,94,123.386,84Z"/><path class="cls-52" d="M65.04,128.306a29.4,29.4,0,0,0,12.22,2.423,20.9,20.9,0,0,0,11.52-4.217,8.587,8.587,0,0,0-3.155-4.127,7.033,7.033,0,0,1-3.766,5.706C78.248,130.146,69.757,129.791,65.04,128.306Z"/><path class="cls-53" d="M113.2,110.864s-1.064,5.671-4.988,9.206a27,27,0,0,1-9.654,5.078,23.963,23.963,0,0,0,10.73-4.486c5.814-4.091,6.891-8.829,6.891-8.829Z"/></g></g></g></g></svg>