<svg xmlns="http://www.w3.org/2000/svg" xmlns:xlink="http://www.w3.org/1999/xlink" viewBox="0 0 158.522 158.522"><defs><style>.cls-1{isolation:isolate;}.cls-2{mix-blend-mode:screen;fill:url(#radial-gradient);}.cls-3{fill:url(#linear-gradient);}.cls-4{fill:#fff;opacity:0.65;}.cls-13,.cls-14,.cls-15,.cls-16,.cls-17,.cls-4{mix-blend-mode:color-dodge;}.cls-5{fill:#87000d;}.cls-6{fill:url(#linear-gradient-2);}.cls-7{fill:#fcfe02;}.cls-8{fill:url(#linear-gradient-3);}.cls-9{fill:url(#linear-gradient-4);}.cls-10{fill:url(#linear-gradient-5);}.cls-11{opacity:0.35;mix-blend-mode:color-burn;fill:url(#linear-gradient-6);}.cls-12{fill:#fff7f5;mix-blend-mode:overlay;}.cls-12,.cls-13,.cls-15,.cls-16,.cls-17{opacity:0.5;}.cls-13{fill:url(#radial-gradient-2);}.cls-14{opacity:0.25;fill:url(#radial-gradient-3);}.cls-15{fill:url(#radial-gradient-4);}.cls-16{fill:url(#radial-gradient-5);}.cls-17{fill:url(#radial-gradient-6);}</style><radialGradient id="radial-gradient" cx="65.969" cy="34.042" r="80.129" gradientTransform="translate(47.946 12.852) rotate(37.459) scale(0.989)" gradientUnits="userSpaceOnUse"><stop offset="0" stop-color="#ff0003"/><stop offset="0.085" stop-color="#f90003" stop-opacity="0.975"/><stop offset="0.204" stop-color="#e60003" stop-opacity="0.903"/><stop offset="0.343" stop-color="#c80002" stop-opacity="0.786"/><stop offset="0.497" stop-color="#9f0002" stop-opacity="0.622"/><stop offset="0.664" stop-color="#690001" stop-opacity="0.413"/><stop offset="0.838" stop-color="#290000" stop-opacity="0.161"/><stop offset="0.941" stop-opacity="0"/></radialGradient><linearGradient id="linear-gradient" x1="5.422" y1="15.175" x2="120.246" y2="51.219" gradientTransform="translate(8.604 54.261) rotate(-7.539)" gradientUnits="userSpaceOnUse"><stop offset="0" stop-color="#ff5f06"/><stop offset="0.022" stop-color="#fd5c0a"/><stop offset="0.343" stop-color="#de353c"/><stop offset="0.624" stop-color="#c81861"/><stop offset="0.851" stop-color="#bb0678"/><stop offset="0.995" stop-color="#b60080"/></linearGradient><linearGradient id="linear-gradient-2" x1="20.262" y1="60.784" x2="127.726" y2="60.784" gradientTransform="translate(8.604 54.261) rotate(-7.539)" gradientUnits="userSpaceOnUse"><stop offset="0.005" stop-color="#ffbb2f"/><stop offset="0.101" stop-color="#ffc626"/><stop offset="0.333" stop-color="#ffdd13"/><stop offset="0.481" stop-color="#ffe50c"/><stop offset="0.555" stop-color="#ffc00c"/><stop offset="0.64" stop-color="#ff9c0c"/><stop offset="0.726" stop-color="#ff800c"/><stop offset="0.811" stop-color="#ff6c0c"/><stop offset="0.897" stop-color="#ff600c"/><stop offset="0.984" stop-color="#ff5c0c"/></linearGradient><linearGradient id="linear-gradient-3" x1="9.41" y1="27.666" x2="121.89" y2="27.666" xlink:href="#linear-gradient-2"/><linearGradient id="linear-gradient-4" x1="24.841" y1="-13.937" x2="83.311" y2="-13.937" gradientTransform="translate(8.604 54.261) rotate(-7.539)" gradientUnits="userSpaceOnUse"><stop offset="0.005" stop-color="#ffbb2f"/><stop offset="0.101" stop-color="#ffc626"/><stop offset="0.333" stop-color="#ffdd13"/><stop offset="0.481" stop-color="#ffe50c"/><stop offset="0.521" stop-color="#ffdf11"/><stop offset="0.68" stop-color="#ffcb22"/><stop offset="0.839" stop-color="#ffbf2c"/><stop offset="1" stop-color="#ffbb2f"/></linearGradient><linearGradient id="linear-gradient-5" x1="4.688" y1="10.065" x2="99.017" y2="10.065" xlink:href="#linear-gradient-2"/><linearGradient id="linear-gradient-6" x1="66.293" y1="94.96" x2="81.498" y2="-19.899" gradientTransform="translate(8.604 54.261) rotate(-7.539)" gradientUnits="userSpaceOnUse"><stop offset="0" stop-color="#1c0067"/><stop offset="0.102" stop-color="#1c007f"/><stop offset="0.287" stop-color="#1c00a5"/><stop offset="0.472" stop-color="#1c00c2"/><stop offset="0.653" stop-color="#1c00d7"/><stop offset="0.831" stop-color="#1c00e4"/><stop offset="1" stop-color="#1c00e8"/></linearGradient><radialGradient id="radial-gradient-2" cx="17.488" cy="19.492" r="18.125" gradientTransform="translate(46.597 51.542) rotate(82.224) scale(0.989)" gradientUnits="userSpaceOnUse"><stop offset="0" stop-color="#fff"/><stop offset="0.119" stop-color="#e8e8e8" stop-opacity="0.909"/><stop offset="0.368" stop-color="#acacac" stop-opacity="0.676"/><stop offset="0.724" stop-color="#4e4e4e" stop-opacity="0.305"/><stop offset="1" stop-opacity="0"/></radialGradient><radialGradient id="radial-gradient-3" cx="37.654" cy="19.063" r="37.004" gradientTransform="matrix(0.177, 0.973, -0.973, 0.177, 61.443, 28.236)" gradientUnits="userSpaceOnUse"><stop offset="0" stop-color="#fff"/><stop offset="0.235" stop-color="#fdfdfd" stop-opacity="0.99"/><stop offset="0.371" stop-color="#f4f4f4" stop-opacity="0.958"/><stop offset="0.483" stop-color="#e6e6e6" stop-opacity="0.903"/><stop offset="0.581" stop-color="#d2d2d2" stop-opacity="0.824"/><stop offset="0.67" stop-color="#b8b8b8" stop-opacity="0.723"/><stop offset="0.752" stop-color="#989898" stop-opacity="0.597"/><stop offset="0.83" stop-color="#727272" stop-opacity="0.449"/><stop offset="0.904" stop-color="#464646" stop-opacity="0.276"/><stop offset="0.972" stop-color="#161616" stop-opacity="0.086"/><stop offset="1" stop-opacity="0"/></radialGradient><radialGradient id="radial-gradient-4" cx="83.136" cy="33.222" r="18.125" gradientTransform="translate(10.159 54.446) rotate(-7.541) scale(0.989)" xlink:href="#radial-gradient-2"/><radialGradient id="radial-gradient-5" cx="31.647" cy="77.631" r="9.263" gradientTransform="translate(10.159 54.446) rotate(-7.541) scale(0.989)" xlink:href="#radial-gradient-2"/><radialGradient id="radial-gradient-6" cx="74.125" cy="-22.128" r="13.405" gradientTransform="translate(7.024 0.036) rotate(34.188) scale(0.989)" xlink:href="#radial-gradient-2"/></defs><title>planet-6</title><g class="cls-1"><g id="Layer_2" data-name="Layer 2"><g id="planets"><g id="planet-6"><circle class="cls-2" cx="79.261" cy="79.261" r="79.252" transform="translate(-32.831 79.261) rotate(-45)"/><path class="cls-3" d="M138.421,71.651c.064.48.117.953.171,1.425.141,1.269.238,2.535.289,3.79.016.193.025.4.033.59a60.179,60.179,0,0,1-1.223,14.371c-.173.84-.365,1.674-.576,2.492a60.179,60.179,0,0,1-50.436,44.865q-.786.1-1.574.181c-.29.03-.579.059-.869.08a.186.186,0,0,1-.1.013,59.55,59.55,0,0,1-27.591-4.012c-.571-.217-1.133-.445-1.69-.691a60.026,60.026,0,0,1-14.443-8.878c-.13-.107-.26-.214-.39-.33-.539-.444-1.052-.9-1.565-1.356-.333-.3-.668-.613-.993-.925-.552-.524-1.089-1.063-1.618-1.608a59.584,59.584,0,0,1-6.933-8.441c-.319-.464-.62-.931-.923-1.406-.045-.074-.089-.139-.135-.213-.427-.68-.846-1.362-1.25-2.063-.286-.486-.556-.983-.827-1.489-.141-.257-.274-.523-.406-.781-.118-.224-.235-.44-.345-.665a58.463,58.463,0,0,1-3.764-9.377c-.256-.863-.5-1.727-.727-2.613-.271-1.038-.517-2.089-.729-3.153-.273-1.323-.494-2.661-.673-4.014a59.965,59.965,0,0,1,4.211-31.312c.637-1.5,1.323-2.955,2.075-4.387.043-.076.076-.161.119-.237a59.912,59.912,0,0,1,4.928-7.793c.39-.54.8-1.074,1.218-1.6.137-.169.266-.337.405-.5a57.455,57.455,0,0,1,3.977-4.434A59.883,59.883,0,0,1,70.889,19.909q2.421-.321,4.817-.442c.176-.006.343-.019.521-.016a58.779,58.779,0,0,1,11.417.575c.679.1,1.352.212,2.017.337a59,59,0,0,1,10.889,3.1c.177.065.346.132.516.207.143.055.282.121.426.178.589.247,1.179.48,1.765.74q.693.307,1.39.641c.768.369,1.529.748,2.284,1.154a60.2,60.2,0,0,1,11.712,8.1c.453.4.907.813,1.345,1.235a60.526,60.526,0,0,1,6.433,7.07c.011.016.032.04.043.056,1.079,1.407,2.081,2.871,3.033,4.373-.027-.046-.053-.1-.087-.163.267.409.537.835.788,1.255.268.417.52.845.764,1.275.266.471.532.933.782,1.415a60.458,60.458,0,0,1,6.677,20.652Z"/><path class="cls-4" d="M138.421,71.651c.064.48.117.953.171,1.425.141,1.269.238,2.535.289,3.79.016.193.025.4.033.59a60.179,60.179,0,0,1-1.223,14.371c-.173.84-.365,1.674-.576,2.492a60.179,60.179,0,0,1-50.436,44.865q-.786.1-1.574.181c-.29.03-.579.059-.869.08a.186.186,0,0,1-.1.013,63.7,63.7,0,0,0,49.275-42.3c.347-1.005.657-2.014.948-3.038.163-.581.325-1.162.471-1.741q.334-1.3.61-2.638a63.787,63.787,0,0,0,1.065-7.184c.021-.171.035-.333.048-.5.076-.969.134-1.944.165-2.916.064-1.528.057-3.054,0-4.592s-.162-3.1-.331-4.646c-.058-.507-.116-1.006-.183-1.512q-.237-1.794-.576-3.547a62.315,62.315,0,0,0-4.244-13.683q-.327-.756-.68-1.509c-.384-.819-.792-1.626-1.209-2.424-.034-.057-.06-.116-.094-.174.267.409.537.835.788,1.255.268.417.52.845.764,1.275.266.471.532.933.782,1.415a60.458,60.458,0,0,1,6.677,20.652Z"/><path class="cls-5" d="M89.661,20.363c.474,6.536-.179,16.294-8.641,20.531-12.251,6.142-38.383,16.431-50.549,2.82.39-.54.8-1.074,1.218-1.6.137-.169.266-.337.405-.5a4.047,4.047,0,0,0,2.339,1.1c8.183,1.234,31.6,2.193,37.926-4.728s10.677-9.237,5.565-14.644a6.362,6.362,0,0,1-1.7-3.9,58.779,58.779,0,0,1,11.417.575C88.323,20.123,89,20.238,89.661,20.363Z"/><path class="cls-5" d="M106.931,26.38c.137,1.172.3,2.82.351,4.794.264,10.116-2.392,28.691-25.834,33.881-25.961,5.755-26.492,6.172-30.13,8.874s-13.047.395-17.863,2.587C30.1,78.043,23.178,84.892,20.54,94.61c-.271-1.038-.517-2.089-.729-3.153-.273-1.323-.494-2.661-.673-4.014a59.965,59.965,0,0,1,4.211-31.312c.288-.58.576-1.151.875-1.714-1.062,6.739-.952,15.489,6.326,16.933a56.341,56.341,0,0,0,9.763,1.229A24.334,24.334,0,0,0,43,72.517a11.314,11.314,0,0,0,7.5-3.142c3.144-3.08,15.158-2.894,23.087-5.054S98.6,53.761,100.556,48.4c1.533-4.19,4.43-13.161,2.993-22.207-.079-.531-.177-1.069-.292-1.6q.693.307,1.39.641C105.415,25.6,106.176,25.974,106.931,26.38Z"/><path class="cls-5" d="M131.75,51.043c-2.977.856-7.016,4.294-11.543,14.37-9.493,21.069-4.046,18.341-12.946,25.31S83.388,107.684,73.43,108.336c-8.408.554-33.83.181-44.513,4.881-.319-.464-.62-.931-.923-1.406-.784-1.228-1.527-2.479-2.212-3.765,2.327-1.205,5.674-2.084,10.49-2.135,14.493-.134,30.7.839,39.4-2.543s31.819-14.23,34.861-23.319c3-8.966,12.547-21.207,9.119-44.217a62.767,62.767,0,0,1,6.741,6.976c.011.017.032.041.043.057a60.965,60.965,0,0,1,4.527,6.763C131.234,50.1,131.5,50.561,131.75,51.043Z"/><path class="cls-5" d="M138.907,77.466a59.781,59.781,0,0,1-1.216,14.361c-.173.84-.365,1.674-.576,2.492-3.431,2.328-6.631,5.185-8.054,8.393-3.76,8.491-12.761,21-32.064,24.449-17.126,3.057-31.025-1.3-40.448,8.285-.571-.217-1.133-.445-1.69-.691a60.026,60.026,0,0,1-14.443-8.878,87.543,87.543,0,0,0,19.1,1.584c13.672-.7,24.932-2.857,34.128-7.183s15.874-5.876,17.7-13.888,6.777-14.218,16.336-17.482C134.025,86.744,137.453,82.516,138.907,77.466Z"/><path class="cls-6" d="M138.592,73.076c2.565,4.985,4.144,11.88-.9,18.751-3.978,2.49-7.938,5.714-9.566,9.384-3.76,8.49-12.76,21-32.064,24.449-17.586,3.136-31.775-1.54-41.2,9.095-9.328.813-17.291-7.346-16.4-10.564a90.036,90.036,0,0,0,20.118,1.768c13.672-.7,24.932-2.856,34.128-7.182s15.874-5.876,17.7-13.888,6.777-14.219,16.336-17.482C134.27,84.838,137.693,79.367,138.592,73.076Z"/><path class="cls-7" d="M39.289,125.414a90.154,90.154,0,0,0,20.118,1.768c13.672-.7,24.932-2.857,34.128-7.183s15.874-5.876,17.7-13.888,6.777-14.218,16.336-17.482A16.716,16.716,0,0,0,139.352,74.7c-.24-.559-.492-1.1-.76-1.624-.9,6.291-4.322,11.762-11.85,14.331-9.559,3.263-14.51,9.469-16.336,17.482s-8.5,9.562-17.7,13.888-20.456,6.482-34.128,7.182a90.036,90.036,0,0,1-20.118-1.768c-.276.993.294,2.455,1.483,3.98A3.851,3.851,0,0,1,39.289,125.414Z"/><path class="cls-8" d="M96.7,90.15a10.985,10.985,0,0,1-1,1.1A9.979,9.979,0,0,0,96.7,90.15Zm26.437-53.073a27.177,27.177,0,0,0-3.52-2.1c-.314-.163-.638-.325-.971-.494a57.768,57.768,0,0,1-1.429,25.029,77.693,77.693,0,0,1-4,10.574c-.09.2-.18.388-.288.58a9.845,9.845,0,0,1-10.463,5.088c-4.075-.73-8.919-1.563-12.941-2.159a68.664,68.664,0,0,0-6.9-.774c-2.539-.064-5.043,1.485-7.514,3.215-3.023,2.123-6,4.524-8.922,4.582-5.313.118-10.324,11.438-12.077,16.111-1.069,2.859-4.526,5.252-7.045,6.687a7.236,7.236,0,0,1-3.625.924c-2.586-.013-5.173-.026-7.709,0a25.533,25.533,0,0,0-8.954,1.461,2.437,2.437,0,0,0-1.491,2.755,3.874,3.874,0,0,0,1.743,2.771,1.626,1.626,0,0,0,.295.141,1.648,1.648,0,0,0,.531.131,2.041,2.041,0,0,0,.941-.142c10.832-4.516,35.623-4.139,43.89-4.683,9.906-.645,24.794-10.609,33.644-17.553,7.868-6.175,4.465-4.712,10.236-19.081.233-.582.49-1.193.759-1.841.546-1.316,1.164-2.747,1.871-4.315,4.518-10.083,8.551-13.494,11.513-14.331.076-.027.154-.046.231-.066C128.4,42.348,126.052,39.2,123.134,37.077ZM56.76,94.309a3.627,3.627,0,0,1,.049-.371A8.738,8.738,0,0,1,58.164,90.7c.126-.194.251-.388.385-.584.157-.225.314-.441.481-.658.112-.157.226-.306.348-.455l.152-.2a46.384,46.384,0,0,0,3.594-4.516c1.188-2.227,5.159-1.278,8.458-3.189a101.11,101.11,0,0,0,9.9-6.266c.355-.269.691-.545,1.012-.809a1.415,1.415,0,0,1,.61-.285,12.873,12.873,0,0,1,4.554.116c.988.154,2.072.357,3.2.6a1.723,1.723,0,0,0,.192.046,9.625,9.625,0,0,1,3.924,1.869,3.284,3.284,0,0,1,.339.275c.282.256.557.521.817.807a2.121,2.121,0,0,1,.231.271c.105.119.2.249.3.369a3.3,3.3,0,0,1,.274.39,2.461,2.461,0,0,1,.257.4c.088.131.169.271.24.4a2.323,2.323,0,0,1,.216.424,6.437,6.437,0,0,1,.339.754c.044.128.1.254.138.373a2.187,2.187,0,0,1,.108.341,5.694,5.694,0,0,1,.2.746,2.917,2.917,0,0,1,.1.467,9.814,9.814,0,0,1-.025,3.707,7.934,7.934,0,0,1-.209.9,9.6,9.6,0,0,1-1.6,3.16,10.985,10.985,0,0,1-1,1.1,10.22,10.22,0,0,1-1.9,1.415,147.489,147.489,0,0,1-18.877,9.151,38.684,38.684,0,0,1-10.126,2.06,5.2,5.2,0,0,1-.53.025,4.068,4.068,0,0,1-.569,0c-.179-.012-.358-.024-.538-.044a6.383,6.383,0,0,1-1.523-.367,5.56,5.56,0,0,1-.913-.385,7.825,7.825,0,0,1-4.031-8.312,2.845,2.845,0,0,0,.062-.47A.009.009,0,0,0,56.76,94.309Z"/><path class="cls-7" d="M66.091,104.74a38.806,38.806,0,0,0,10.128-2.06A146.5,146.5,0,0,0,95.1,93.526a9.917,9.917,0,0,0-.119-17.164,9.926,9.926,0,0,1-1.179,16.3,146.6,146.6,0,0,1-18.881,9.155,38.806,38.806,0,0,1-10.128,2.06,7.328,7.328,0,0,1-4.1-.8A7.31,7.31,0,0,0,66.091,104.74Z"/><path class="cls-7" d="M119.988,35.718c.03.164.051.321.072.478a57.084,57.084,0,0,1-2.641,27.614c-.838,2.393-1.764,4.585-2.66,6.6-.083.18-.157.359-.24.538a8.72,8.72,0,0,1-.524,1,9.9,9.9,0,0,1-10.235,4.668c-3.993-.715-8.737-1.535-12.706-2.128a1.723,1.723,0,0,1-.192-.046c-1.133-.24-2.217-.443-3.2-.6a12.936,12.936,0,0,0-4.562-.115,10.721,10.721,0,0,0-4.173,1.547c-3.894,2.247-7.707,6.118-11.435,6.2-2.9.065-5.721,3.475-7.965,7.315l-.152.2c-.122.149-.236.3-.348.455-.167.217-.324.433-.481.658-.134.2-.259.39-.385.584a8.738,8.738,0,0,0-1.355,3.243c-.02.119-.039.245-.05.362-.551,1.272-1.006,2.4-1.341,3.286-1.077,2.869-4.534,5.263-7.054,6.689a7.218,7.218,0,0,1-3.624.932c-2.587-.012-5.173-.025-7.709,0a25.542,25.542,0,0,0-8.955,1.452,2.38,2.38,0,0,0-1.063.824,2.412,2.412,0,0,0-.429,1.931c.006.043.021.086.025.121a4.3,4.3,0,0,0,.95,2.006,1.863,1.863,0,0,1-.526-.215,3.874,3.874,0,0,1-1.743-2.771,2.437,2.437,0,0,1,1.491-2.755,25.533,25.533,0,0,1,8.954-1.461c2.536-.025,5.123-.012,7.709,0a7.236,7.236,0,0,0,3.625-.924c2.519-1.435,5.976-3.828,7.045-6.687,1.753-4.673,6.764-15.993,12.077-16.111,2.923-.058,5.9-2.459,8.922-4.582,2.471-1.73,4.975-3.279,7.514-3.215a68.664,68.664,0,0,1,6.9.774c4.022.6,8.866,1.429,12.941,2.159a9.845,9.845,0,0,0,10.463-5.088c.108-.192.2-.382.288-.58a77.693,77.693,0,0,0,4-10.574,57.768,57.768,0,0,0,1.429-25.029c.333.169.657.331.971.494a27.227,27.227,0,0,1,3.48,2.07c-.975-.59-2.023-1.127-3.155-1.7C119.955,35.473,119.98,35.594,119.988,35.718Z"/><path class="cls-9" d="M83.576,17.8c-1.585-.234-2.362-.372-4.383-.548-1.449-.127-2.045.767-2.83,1.59a3.88,3.88,0,0,0-.958,1.675c-.554,2.1-.487,4.251,1.116,5.765,4.316,4.092.562,5.921-4.941,11.312S46.035,42.531,39.04,41.68c-2.231-.27-2.986-1.711-2.986-3.551a2.207,2.207,0,0,0,.065-1.008c-.329-.907-3.683,1.215-4.08,2.822a3.964,3.964,0,0,0,1.011,3.7c10.29,10.666,35.237,1,45.917-3.916,9.451-4.348,9.194-15.35,8.8-19.146a1.109,1.109,0,0,0,.305-.709C88.121,17.754,85.161,18.035,83.576,17.8Z"/><path class="cls-7" d="M32.362,39.256a3.365,3.365,0,0,0,3.228,2.7c7.9.96,30.524,1.474,36.737-4.613s10.451-8.151,5.578-12.77c-1.651-1.56-1.851-3.716-1.4-5.886-.047.051-.093.1-.142.153a3.88,3.88,0,0,0-.958,1.675c-.554,2.1-.487,4.251,1.116,5.765,4.316,4.092.562,5.921-4.941,11.312S46.035,42.531,39.04,41.68c-2.231-.27-2.986-1.711-2.986-3.551a2.207,2.207,0,0,0,.065-1.008C35.835,36.339,33.311,37.807,32.362,39.256Z"/><path class="cls-10" d="M104.6,27.48a7.8,7.8,0,0,1,.048-2.254,4.078,4.078,0,0,0-3.407-1.582.3.3,0,0,0-.174.023.392.392,0,0,0-.262.5c3.434,10.176.522,17.355-1.252,22.208a6.833,6.833,0,0,1-1.18,1.95,4.46,4.46,0,0,1-3.719,1.629,115.509,115.509,0,0,1-12.993-1.21C78,47.9,66.345,48.778,64.477,54.8s-13.531,5.122-17.59,6.325a1.706,1.706,0,0,0-1.41,1.892,5.893,5.893,0,0,1-6.232,6.526,66.633,66.633,0,0,1-7.375-1.1c-6.675-1.318-7.317-8.782-6.561-15.214a6.014,6.014,0,0,0,.142-1.076c.033-.217.058-.434.092-.642-.043.076-.076.161-.119.237-.045-.207-.151-.335-.347-.273-.754.206-4.918,6.459-6.125,9.949s-4.4,22.634.859,30.037c2.021-11.032,11.337-16.2,14.963-17.851a15.5,15.5,0,0,1,5.539-1.027c.882-.046,1.778-.058,2.683-.062,3.8-.042,7.62,0,9.642-1.5,3.638-2.7,4.351-2.353,30.13-8.874s23.064-27.031,22.065-32.894C104.717,28.574,104.64,27.989,104.6,27.48ZM48.625,63.451c.189-.851,1.565-1.193,2.247-1.408,2.784-.839,5.752-.957,8.6-1.476,4.335-.8,9.456-2.362,10.608-5.4s6.927-4.692,9.575-4.82a.162.162,0,0,1,.062,0,4.51,4.51,0,0,1,1.908,8.646A52.761,52.761,0,0,1,74.9,61.411c-4.046,1.1-8.259,1.342-12.4,1.9a43.558,43.558,0,0,0-8.907,2.219c-1.228.447-2.326,1.276-3.58.527A2.644,2.644,0,0,1,48.625,63.451Z"/><path class="cls-7" d="M50.312,67.527c1.282.772,2.4-.079,3.662-.538a43.8,43.8,0,0,1,9.1-2.279c4.233-.573,8.539-.811,12.676-1.945a54.207,54.207,0,0,0,6.865-2.488,4.706,4.706,0,0,0,.876-8.077,4.5,4.5,0,0,1-1.87,6.792A53.678,53.678,0,0,1,74.9,61.411c-4.049,1.1-8.262,1.339-12.4,1.9a43.353,43.353,0,0,0-8.9,2.219c-1.234.447-2.331,1.272-3.583.526a3.182,3.182,0,0,1-1.124-1.161A2.775,2.775,0,0,0,50.312,67.527Z"/><path class="cls-7" d="M24.8,52.422c.205-.057.311.073.358.291.043-.082.081-.167.124-.249-.033.217-.062.442-.093.663a6.811,6.811,0,0,1-.142,1.113c-.764,6.637-.1,14.347,6.727,15.724a69.069,69.069,0,0,0,7.541,1.148c3.766.331,6.618-2.918,6.358-6.728a1.763,1.763,0,0,1,1.441-1.956,35.007,35.007,0,0,1,5.3-.772c1.91-.413,3.879-.6,5.813-.885,3.22-.757,6.019-2.1,6.859-4.851,1.9-6.215,13.809-7.1,17.556-6.224,2.507.589,9.157,1.04,13.284,1.273a4.544,4.544,0,0,0,3.8-1.677,7.225,7.225,0,0,0,1.2-2.016c1.8-5.009,4.769-12.423,1.252-22.934a.412.412,0,0,1,.309-.538c-.421-.089-.82-.095-1.245-.164a.4.4,0,0,0-.434.536c3.426,10.171.514,17.353-1.257,22.2a7.005,7.005,0,0,1-1.177,1.954,4.48,4.48,0,0,1-3.721,1.629c-4.037-.221-10.542-.648-12.994-1.214C78,47.9,66.345,48.778,64.477,54.8s-13.531,5.122-17.59,6.325a1.716,1.716,0,0,0-1.413,1.9,5.885,5.885,0,0,1-6.228,6.523,68.24,68.24,0,0,1-7.376-1.1c-6.673-1.323-7.316-8.786-6.559-15.213a6.6,6.6,0,0,0,.141-1.078c.03-.214.058-.431.091-.641-.042.079-.079.161-.121.241-.046-.211-.149-.337-.35-.281-.749.21-4.917,6.46-6.121,9.95-.085.247-.18.58-.282.974C20.014,58.743,24.054,52.633,24.8,52.422Z"/><path class="cls-11" d="M138.421,71.651c.064.48.117.953.171,1.425.141,1.269.238,2.535.289,3.79.016.193.025.4.033.59a60.179,60.179,0,0,1-1.223,14.371c-.173.84-.365,1.674-.576,2.492a60.179,60.179,0,0,1-50.436,44.865q-.786.1-1.574.181c-.29.03-.579.059-.869.08a.186.186,0,0,1-.1.013,59.55,59.55,0,0,1-27.591-4.012c-.571-.217-1.133-.445-1.69-.691a60.026,60.026,0,0,1-14.443-8.878c-.13-.107-.26-.214-.39-.33-.539-.444-1.052-.9-1.565-1.356-.333-.3-.668-.613-.993-.925-.985-.936-1.932-1.912-2.844-2.9.14.053.273.115.413.168A60.18,60.18,0,0,0,115.6,79.405c.211-.818.4-1.651.576-2.491.228-1.1.428-2.2.583-3.31.19-1.18.326-2.37.434-3.566.057-.575.095-1.158.133-1.74.088-1.486.121-2.982.09-4.488a2,2,0,0,0-.009-.336c0-.3,0-.613-.015-.922-.037-1.016-.1-2.029-.181-3.04-.041-.447-.084-.9-.134-1.35-.054-.472-.107-.945-.171-1.425a59.654,59.654,0,0,0-6.677-20.652c-.25-.481-.516-.944-.783-1.415q-1.021-1.782-2.167-3.5c-.742-1.109-1.524-2.187-2.33-3.244-.011-.016-.032-.04-.043-.056-.106-.128-.2-.266-.31-.394-.342-.435-.692-.868-1.05-1.291-.666-.8-1.355-1.579-2.06-2.347.592.25,1.182.483,1.768.743q.693.307,1.39.641c.768.369,1.529.748,2.284,1.154a60.2,60.2,0,0,1,11.712,8.1c.453.4.907.813,1.345,1.235a60.526,60.526,0,0,1,6.433,7.07c.011.016.032.04.043.056,1.079,1.407,2.081,2.871,3.033,4.373-.027-.046-.053-.1-.087-.163.267.409.537.835.788,1.255.268.417.52.845.764,1.275.266.471.532.933.782,1.415a60.458,60.458,0,0,1,6.677,20.652Z"/><path class="cls-12" d="M136.926,64.114c-.41.258-.848.5-1.289.73-4.549,2.4-10.524,3.889-17.372,5.017-.347.064-.7.12-1.069.177-.209.037-.417.073-.626.1-.592.1-1.2.186-1.811.275l-.079.011c-.575.085-1.159.162-1.753.241-7.247,1-15.233,1.794-23.4,2.929-.619.082-1.238.173-1.858.255-2.065.3-4.117.625-6.184.979-.851.148-1.7.3-2.551.453-1.274.24-2.547.488-3.817.754a120.542,120.542,0,0,0-13.349,3.543c-25.02,8.3-24.059,22.137-40.5,17.644-.256-.863-.5-1.727-.727-2.613-.271-1.038-.517-2.089-.729-3.153-5.26-7.4-2.058-26.548-.859-30.037s5.371-9.743,6.125-9.949c.2-.062.3.066.347.273.043-.076.076-.161.119-.237a59.912,59.912,0,0,1,4.928-7.793c.39-.54.8-1.074,1.218-1.6.137-.169.266-.337.405-.5a57.455,57.455,0,0,1,3.977-4.434A59.883,59.883,0,0,1,70.889,19.909q2.421-.321,4.817-.442c.176-.006.343-.019.521-.016a58.779,58.779,0,0,1,11.417.575c.679.1,1.352.212,2.017.337a59,59,0,0,1,10.889,3.1c.177.065.346.132.516.207a.3.3,0,0,1,.174-.023,4.078,4.078,0,0,1,3.407,1.582c.768.369,1.529.748,2.284,1.154a60.2,60.2,0,0,1,11.712,8.1c.333.169.657.331.971.494a27.227,27.227,0,0,1,3.48,2.07c2.958,2.148,5.3,5.3,7.868,12.537.266.471.532.933.782,1.415A59.057,59.057,0,0,1,136.926,64.114Z"/><circle class="cls-13" cx="29.836" cy="71.287" r="17.926" transform="translate(-41.573 100.83) rotate(-89.765)"/><circle class="cls-14" cx="49.554" cy="68.249" r="36.599" transform="translate(-21.003 114.457) rotate(-87.239)"/><path class="cls-15" d="M113.758,73.876A17.927,17.927,0,1,1,93.633,58.457,17.928,17.928,0,0,1,113.758,73.876Z"/><path class="cls-16" d="M60.348,125.252a9.161,9.161,0,1,1-10.284-7.879A9.161,9.161,0,0,1,60.348,125.252Z"/><circle class="cls-17" cx="79.967" cy="23.127" r="13.258" transform="translate(4.894 59.093) rotate(-41.729)"/></g></g></g></g></svg>