<svg xmlns="http://www.w3.org/2000/svg" xmlns:xlink="http://www.w3.org/1999/xlink" viewBox="0 0 184.493 184.495"><defs><style>.cls-1{isolation:isolate;}.cls-11,.cls-2{mix-blend-mode:color-dodge;}.cls-2{fill:url(#radial-gradient);}.cls-3{fill:url(#linear-gradient);}.cls-4,.cls-6,.cls-9{opacity:0.5;}.cls-4,.cls-5,.cls-6,.cls-7,.cls-8{mix-blend-mode:color-burn;}.cls-4{fill:url(#linear-gradient-2);}.cls-11,.cls-5,.cls-7{opacity:0.65;}.cls-5{fill:url(#linear-gradient-3);}.cls-6{fill:url(#linear-gradient-4);}.cls-7{fill:url(#linear-gradient-5);}.cls-8{fill:url(#linear-gradient-6);}.cls-9{fill:#fff7f5;mix-blend-mode:overlay;}.cls-10,.cls-11{fill:#fff;}</style><radialGradient id="radial-gradient" cx="89.486" cy="87.714" r="92.223" gradientUnits="userSpaceOnUse"><stop offset="0" stop-color="#dcdcdc"/><stop offset="0.104" stop-color="#d6d6d6" stop-opacity="0.974"/><stop offset="0.241" stop-color="#c6c6c6" stop-opacity="0.899"/><stop offset="0.395" stop-color="#ababab" stop-opacity="0.776"/><stop offset="0.562" stop-color="#858585" stop-opacity="0.605"/><stop offset="0.74" stop-color="#555" stop-opacity="0.384"/><stop offset="0.924" stop-color="#1a1a1a" stop-opacity="0.12"/><stop offset="1" stop-opacity="0"/></radialGradient><linearGradient id="linear-gradient" x1="37.942" y1="78.489" x2="157.4" y2="106.919" gradientUnits="userSpaceOnUse"><stop offset="0" stop-color="#78f7f4"/><stop offset="0.117" stop-color="#80bff1"/><stop offset="0.236" stop-color="#878dee"/><stop offset="0.359" stop-color="#8d61eb"/><stop offset="0.482" stop-color="#923ee9"/><stop offset="0.606" stop-color="#9623e7"/><stop offset="0.731" stop-color="#990fe6"/><stop offset="0.858" stop-color="#9a04e5"/><stop offset="0.989" stop-color="#9b00e5"/></linearGradient><linearGradient id="linear-gradient-2" x1="29.861" y1="74.112" x2="134.557" y2="74.112" gradientUnits="userSpaceOnUse"><stop offset="0" stop-color="#b046e7"/><stop offset="0.043" stop-color="#ad4aea"/><stop offset="0.185" stop-color="#a853f0"/><stop offset="0.427" stop-color="#a755f2"/><stop offset="0.656" stop-color="#a141eb"/><stop offset="0.973" stop-color="#9820e0"/></linearGradient><linearGradient id="linear-gradient-3" x1="60.075" y1="118.901" x2="151.702" y2="118.901" xlink:href="#linear-gradient-2"/><linearGradient id="linear-gradient-4" x1="33.195" y1="56.624" x2="114.958" y2="56.624" xlink:href="#linear-gradient-2"/><linearGradient id="linear-gradient-5" x1="29.082" y1="97.638" x2="148.633" y2="97.638" xlink:href="#linear-gradient-2"/><linearGradient id="linear-gradient-6" x1="44.588" y1="92.563" x2="151.702" y2="92.563" gradientUnits="userSpaceOnUse"><stop offset="0" stop-color="#fff7f5"/><stop offset="0.161" stop-color="#f9eff3"/><stop offset="0.415" stop-color="#e7d8ed"/><stop offset="0.727" stop-color="#cbb4e4"/><stop offset="1" stop-color="#ae8edb"/></linearGradient></defs><title>planet-8</title><g class="cls-1"><g id="Layer_2" data-name="Layer 2"><g id="planets"><g id="planet-8"><path class="cls-2" d="M92.241,184.5c-.539,0-1.076,0-1.617-.014a92.772,92.772,0,0,1-82.618-54.7,90.941,90.941,0,0,1-7.774-31C.145,97.652.083,96.436.04,95.064A93.1,93.1,0,0,1,1.4,76.188a91.506,91.506,0,0,1,3.27-12.947c.332-1.022.712-2.1,1.16-3.3A92.352,92.352,0,0,1,119.8,4.187c.618.191,1.279.413,1.941.637a92.2,92.2,0,0,1,62.383,79.161c.244,2.7.368,5.483.368,8.264A92.353,92.353,0,0,1,92.241,184.5Z"/><path class="cls-3" d="M151.7,90.964A61.388,61.388,0,0,1,89.23,152.34a60.753,60.753,0,0,1-29.157-8.014A62.118,62.118,0,0,1,34.246,115.91,60.52,60.52,0,0,1,29.08,95.288c-.063-.8-.1-1.621-.126-2.439a61.926,61.926,0,0,1,.905-12.576,60.726,60.726,0,0,1,2.181-8.63c.239-.735.5-1.458.767-2.181a61.465,61.465,0,0,1,75.845-37.1c.427.132.854.276,1.282.421a61.458,61.458,0,0,1,37.982,36.932c.628,1.71,1.188,3.451,1.665,5.223a61.127,61.127,0,0,1,1.874,10.522C151.618,87.268,151.7,89.11,151.7,90.964Z"/><path class="cls-4" d="M133.782,47.618a60.967,60.967,0,0,0-7.969-6.744c8.881,12.238-.673,28.68-8.888,32.489-8.592,3.978-13.406,6.072-16.97,11.942s-12.15,8.586-15.921,9.007-7.127-1.886-12.155.836a27.633,27.633,0,0,1-9.636,3.142c-23.381,0-28.906-18.378-30.2-26.649a60.678,60.678,0,0,0-2.181,8.629c2.276,19.837,10.761,25.8,14.155,25.984,3.771.207,12.149-4.193,20.741-1.257s19.906,4.192,23.884-2.722,14.878-9.849,22-8.8,13.828-1.257,14.456-7.335-.207-3.979,6.078-18.649C135.668,57.009,134.7,50.484,133.782,47.618Zm-85.5,54.655c-1.128,1.954-4.236,2.272-6.942.71s-3.984-4.413-2.856-6.367,4.236-2.271,6.942-.709S49.414,100.319,48.286,102.273Zm26.863-2.04c-1.244.417-2.5.027-2.8-.872s.463-1.964,1.707-2.381,2.5-.026,2.8.872S76.393,99.817,75.149,100.233Zm42.206-13.952c-3.085,2.046-6.624,2.142-7.9.213s.186-5.151,3.272-7.2,6.624-2.142,7.9-.214S120.441,84.234,117.355,86.281Z"/><path class="cls-5" d="M151.457,85.456a67.144,67.144,0,0,0-1.22,10.113c-1.885,32.369-26.712,40.226-35.2,39.283s-14.457,8.485-27.341,12.885c-6.971,2.382-18.454-.3-27.624-3.413a60.764,60.764,0,0,0,29.157,8.014A61.388,61.388,0,0,0,151.7,90.962C151.7,89.108,151.62,87.266,151.457,85.456Zm-50.323,63.388c-1.206.7-2.524.672-2.944-.056s.217-1.881,1.424-2.578,2.524-.671,2.944.056S102.341,148.148,101.134,148.844ZM111.754,144c-2.433,1.405-5.091,1.355-5.938-.112s.439-3.794,2.872-5.2,5.091-1.354,5.938.113S114.187,142.6,111.754,144Z"/><path class="cls-6" d="M114.191,40.466a14.962,14.962,0,0,0-11.056-9.554,61.486,61.486,0,0,0-69.8,37.2,1.885,1.885,0,0,0,1.232,2.521c6.518,1.684,8.2-3.344,11.967,3.362s6.706,14.035,21.37,6.493c0,0,2.91-2.577,6.285-2.514,11.106.207,5.657-7.542,10.057-12.992s12.363-5.235,20.534-7.328C110.627,56.148,117.233,49.165,114.191,40.466ZM42.663,67.005c-.837.592-2.223.072-3.1-1.162s-.9-2.713-.065-3.306,2.223-.072,3.1,1.161S43.5,66.412,42.663,67.005Zm18.955,9.821c-1.8.345-3.444-.365-3.677-1.585s1.034-2.488,2.832-2.832,3.444.366,3.677,1.586S63.416,76.482,61.618,76.826Zm14.834-4.383c-2.663,1.845-5.837,1.876-7.089.068s-.108-4.767,2.555-6.612,5.837-1.876,7.089-.069S79.115,70.6,76.452,72.443ZM89.27,56.286c-9.114,3.142-12.256,2.514-18.227,2.828S59.415,76.713,47.787,65.4s17.6-25.349,17.6-25.349,18.856-9.221,33-6.392S98.384,53.143,89.27,56.286Zm21.9-12.809c-.236,2.29-1.441,4.042-2.69,3.913s-2.07-2.09-1.833-4.38,1.441-4.042,2.69-3.913S111.41,41.187,111.173,43.477Z"/><path class="cls-7" d="M147.723,77.763c-1.112-4.96-.616-7.128.195-8.052A61.2,61.2,0,0,0,140.8,56.022l-.195.157c9.843,24.513-.214,35.411-6.5,37.712s-11.521,5.028-13.614,12.363-5.028,5.864-17.184-.836-14.035,7.75-15.713,16.342S75.65,128.045,67.9,123.432s-14.249-1.886-21.578,0c-5.719,1.47-13.978-18.825-17.24-28.146a60.526,60.526,0,0,0,5.166,20.622A112.8,112.8,0,0,1,45.273,128.46c12.57,16.342,36.033,10.9,39.6,4.613s6.914-5.657,14.664-1.471,11.313-.628,6.285-7.957-1.672-7.756,7.335-4.821,17.178,0,17.391-10.263,4.815-13.413,11.1-14.878S150.03,88.026,147.723,77.763ZM62.175,129.1c-.455,1.914-3.607,2.8-7.041,1.988s-5.848-3.029-5.393-4.943,3.607-2.8,7.04-1.987S62.63,127.187,62.175,129.1Zm7.439,6c-1.8-.171-3.19-1.124-3.1-2.129s1.635-1.683,3.439-1.513,3.19,1.123,3.1,2.129S71.418,135.272,69.614,135.1Zm23.985-17c-1.908-.959-2.11-4.413-.451-7.715s4.55-5.2,6.458-4.244,2.11,4.412.452,7.715S95.507,119.058,93.6,118.1Zm8.477,9.173c-.967,1.226-2.325,1.768-3.033,1.209s-.5-2,.467-3.231,2.325-1.767,3.033-1.209S103.042,126.047,102.076,127.273Zm25.036-23.255c-.967,1.226-2.325,1.767-3.033,1.208s-.5-2,.468-3.231,2.324-1.767,3.033-1.208S128.079,102.792,127.112,104.018Z"/><path class="cls-8" d="M151.7,90.962a61.388,61.388,0,0,1-62.47,61.376,60.764,60.764,0,0,1-29.157-8.014A61.78,61.78,0,0,1,44.588,131.8c84.889-3.344,72.268-74.487,65.348-99.025a61.353,61.353,0,0,1,41.521,52.677C151.62,87.266,151.7,89.108,151.7,90.962Z"/><path class="cls-9" d="M149.581,74.936c-8.925,14.3-34.238,31.527-70.787,20.842-23.117-6.756-41.116-12.4-49.84-2.929a61.926,61.926,0,0,1,.905-12.576,60.726,60.726,0,0,1,2.181-8.63c.239-.735.5-1.458.767-2.181a61.465,61.465,0,0,1,75.845-37.1c.427.132.854.276,1.282.421a61.458,61.458,0,0,1,37.982,36.932C148.544,71.423,149.1,73.164,149.581,74.936Z"/><path class="cls-10" d="M58.519,73.945c-2.808,6.476-8.448,10.268-12.6,8.468s-5.237-8.507-2.429-14.984,8.448-10.268,12.6-8.469S61.327,67.468,58.519,73.945Z"/><path class="cls-10" d="M62.919,92.357c-1.313,2.756-3.479,4.466-4.837,3.819s-1.4-3.407-.081-6.163,3.479-4.466,4.837-3.819S64.232,89.6,62.919,92.357Z"/><path class="cls-11" d="M151.455,85.458a61.127,61.127,0,0,0-1.874-10.522c-.477-1.772-1.037-3.513-1.665-5.223a61.505,61.505,0,0,0-37.982-36.932c-.428-.145-.855-.289-1.282-.421q-2.211-.691-4.491-1.216c.932.243,1.86.5,2.774.787.428.132.855.276,1.283.421A61.467,61.467,0,0,1,146.2,69.284c.628,1.71,1.188,3.451,1.665,5.223a61.03,61.03,0,0,1,1.873,10.522c.164,1.81.245,3.652.245,5.506a61.388,61.388,0,0,1-62.469,61.376,60.754,60.754,0,0,1-13.7-1.832A60.749,60.749,0,0,0,89.23,152.34,61.388,61.388,0,0,0,151.7,90.964C151.7,89.11,151.618,87.268,151.455,85.458Z"/></g></g></g></g></svg>