<svg xmlns="http://www.w3.org/2000/svg" xmlns:xlink="http://www.w3.org/1999/xlink" viewBox="0 0 158.522 158.522"><defs><style>.cls-1{isolation:isolate;}.cls-10,.cls-12,.cls-13,.cls-2,.cls-29,.cls-3,.cls-30,.cls-31,.cls-32,.cls-33,.cls-34,.cls-35,.cls-36,.cls-40,.cls-41,.cls-42,.cls-43,.cls-44,.cls-45,.cls-8{mix-blend-mode:screen;}.cls-2{fill:url(#radial-gradient);}.cls-3{fill:url(#radial-gradient-2);}.cls-10,.cls-11,.cls-12,.cls-13,.cls-14,.cls-15,.cls-16,.cls-17,.cls-18,.cls-19,.cls-20,.cls-21,.cls-22,.cls-23,.cls-24,.cls-25,.cls-26,.cls-27,.cls-28,.cls-29,.cls-30,.cls-31,.cls-32,.cls-33,.cls-34,.cls-35,.cls-36,.cls-37,.cls-38,.cls-39,.cls-4,.cls-40,.cls-41,.cls-42,.cls-43,.cls-44,.cls-6,.cls-7,.cls-8,.cls-9{fill-rule:evenodd;}.cls-4{fill:url(#radial-gradient-3);}.cls-5{opacity:0.4;mix-blend-mode:multiply;}.cls-6{fill:#b9bfe2;}.cls-7{fill:url(#linear-gradient);}.cls-8{fill:url(#radial-gradient-4);}.cls-9{fill:url(#linear-gradient-2);}.cls-10{fill:url(#radial-gradient-5);}.cls-11{fill:url(#radial-gradient-6);}.cls-12{fill:url(#radial-gradient-7);}.cls-13{fill:url(#radial-gradient-8);}.cls-14{fill:#090059;}.cls-15{fill:url(#radial-gradient-9);}.cls-16{fill:url(#radial-gradient-10);}.cls-17{fill:#45007a;}.cls-18{fill:url(#radial-gradient-11);}.cls-19{fill:#37007a;}.cls-20{fill:url(#radial-gradient-12);}.cls-21{fill:url(#radial-gradient-13);}.cls-22{fill:url(#radial-gradient-14);}.cls-23{fill:url(#radial-gradient-15);}.cls-24{fill:url(#radial-gradient-16);}.cls-25{fill:url(#radial-gradient-17);}.cls-26{fill:url(#radial-gradient-18);}.cls-27{fill:url(#radial-gradient-19);}.cls-28{fill:url(#radial-gradient-20);}.cls-29{fill:url(#radial-gradient-21);}.cls-30{fill:url(#Áåçûìÿííûé_ãðàäèåíò_419);}.cls-31{fill:url(#Áåçûìÿííûé_ãðàäèåíò_419-2);}.cls-32{fill:url(#Áåçûìÿííûé_ãðàäèåíò_419-3);}.cls-33{fill:url(#Áåçûìÿííûé_ãðàäèåíò_419-4);}.cls-34{fill:url(#Áåçûìÿííûé_ãðàäèåíò_419-5);}.cls-35{fill:url(#Áåçûìÿííûé_ãðàäèåíò_419-6);}.cls-36{fill:url(#Áåçûìÿííûé_ãðàäèåíò_419-7);}.cls-37{fill:#ffff8d;}.cls-38{fill:url(#radial-gradient-22);}.cls-39{fill:url(#radial-gradient-23);}.cls-40{fill:url(#Áåçûìÿííûé_ãðàäèåíò_419-8);}.cls-41{fill:url(#radial-gradient-24);}.cls-42{fill:url(#radial-gradient-25);}.cls-43{fill:url(#radial-gradient-26);}.cls-44{fill:url(#radial-gradient-27);}.cls-45{fill:url(#radial-gradient-28);}</style><radialGradient id="radial-gradient" cx="79.261" cy="79.261" r="79.261" gradientTransform="translate(79.261 -32.831) rotate(45)" gradientUnits="userSpaceOnUse"><stop offset="0.006" stop-color="#6f00ff"/><stop offset="1" stop-opacity="0"/></radialGradient><radialGradient id="radial-gradient-2" cx="83.105" cy="80.777" r="61.497" gradientTransform="translate(142.628 -18.664) rotate(76.717)" gradientUnits="userSpaceOnUse"><stop offset="0.028" stop-color="#00ffa9"/><stop offset="0.15" stop-color="#00fba6" stop-opacity="0.984"/><stop offset="0.272" stop-color="#00ef9e" stop-opacity="0.937"/><stop offset="0.394" stop-color="#00db91" stop-opacity="0.859"/><stop offset="0.516" stop-color="#00bf7e" stop-opacity="0.748"/><stop offset="0.639" stop-color="#009b66" stop-opacity="0.606"/><stop offset="0.761" stop-color="#006e49" stop-opacity="0.432"/><stop offset="0.881" stop-color="#003b27" stop-opacity="0.23"/><stop offset="1" stop-opacity="0"/></radialGradient><radialGradient id="radial-gradient-3" cx="46.793" cy="53.19" r="87.99" gradientUnits="userSpaceOnUse"><stop offset="0.006" stop-color="#0c87c4"/><stop offset="0.195" stop-color="#0d84c2"/><stop offset="0.341" stop-color="#127abc"/><stop offset="0.474" stop-color="#196ab3"/><stop offset="0.598" stop-color="#2352a5"/><stop offset="0.717" stop-color="#313493"/><stop offset="0.829" stop-color="#41107d"/><stop offset="0.872" stop-color="#480074"/></radialGradient><linearGradient id="linear-gradient" x1="118.174" y1="90.016" x2="118.174" y2="59.34" gradientUnits="userSpaceOnUse"><stop offset="0" stop-color="#8c006e"/><stop offset="0.63" stop-color="#d72fb5"/><stop offset="1" stop-color="#ff47da"/></linearGradient><radialGradient id="radial-gradient-4" cx="-321.531" cy="68.395" r="11.824" gradientTransform="matrix(1.655, 0.203, -0.153, 1.245, 620.215, 91.025)" gradientUnits="userSpaceOnUse"><stop offset="0" stop-color="#00aeff"/><stop offset="1" stop-opacity="0"/></radialGradient><linearGradient id="linear-gradient-2" x1="25.94" y1="63.783" x2="104.736" y2="63.783" gradientUnits="userSpaceOnUse"><stop offset="0.011" stop-color="#2caeff"/><stop offset="0.218" stop-color="#2cabfd"/><stop offset="0.37" stop-color="#2da2f5"/><stop offset="0.504" stop-color="#2f92e8"/><stop offset="0.628" stop-color="#327bd6"/><stop offset="0.745" stop-color="#365ebe"/><stop offset="0.857" stop-color="#3a3aa1"/><stop offset="0.962" stop-color="#3f1180"/><stop offset="1" stop-color="#410072"/></linearGradient><radialGradient id="radial-gradient-5" cx="-579.331" cy="-189.755" r="4.53" gradientTransform="matrix(2.394, 1.382, -0.711, 1.232, 1351.011, 1087.663)" xlink:href="#radial-gradient-4"/><radialGradient id="radial-gradient-6" cx="118.191" cy="106.491" r="7.865" gradientUnits="userSpaceOnUse"><stop offset="0" stop-color="#ff24c8"/><stop offset="0.353" stop-color="#d71ec0"/><stop offset="1" stop-color="#8611b1"/></radialGradient><radialGradient id="radial-gradient-7" cx="-716.611" cy="-452.762" r="8.1" gradientTransform="matrix(0.223, 1.652, -1.41, 0.19, -363.804, 1342.994)" xlink:href="#radial-gradient-4"/><radialGradient id="radial-gradient-8" cx="40.687" cy="41.527" r="72.099" gradientUnits="userSpaceOnUse"><stop offset="0" stop-color="#4ae4ff"/><stop offset="1"/></radialGradient><radialGradient id="radial-gradient-9" cx="102.751" cy="44.811" r="11.542" gradientUnits="userSpaceOnUse"><stop offset="0" stop-color="#ff24de"/><stop offset="1" stop-color="#dd11e0"/></radialGradient><radialGradient id="radial-gradient-10" cx="81.7" cy="53.005" r="4.696" xlink:href="#radial-gradient-9"/><radialGradient id="radial-gradient-11" cx="63.82" cy="35.443" r="7.066" xlink:href="#radial-gradient-9"/><radialGradient id="radial-gradient-12" cx="98.39" cy="46.202" r="16.562" gradientUnits="userSpaceOnUse"><stop offset="0" stop-color="#f700ff"/><stop offset="0.328" stop-color="#e100d7"/><stop offset="1" stop-color="#ad007c"/></radialGradient><radialGradient id="radial-gradient-13" cx="115.037" cy="74.991" r="11.245" xlink:href="#radial-gradient-12"/><radialGradient id="radial-gradient-14" cx="124.618" cy="56.212" r="6.767" xlink:href="#radial-gradient-12"/><radialGradient id="radial-gradient-15" cx="74.321" cy="128.999" r="25.14" xlink:href="#radial-gradient-12"/><radialGradient id="radial-gradient-16" cx="119.403" cy="113.712" r="9.641" xlink:href="#radial-gradient-12"/><radialGradient id="radial-gradient-17" cx="57.036" cy="35.985" r="10.205" xlink:href="#radial-gradient-12"/><radialGradient id="radial-gradient-18" cx="76.156" cy="49.762" r="9.336" xlink:href="#radial-gradient-12"/><radialGradient id="radial-gradient-19" cx="74.683" cy="111.356" r="18.203" xlink:href="#radial-gradient-6"/><radialGradient id="radial-gradient-20" cx="123.606" cy="55.21" r="4.509" xlink:href="#radial-gradient-6"/><radialGradient id="radial-gradient-21" cx="41.99" cy="47.387" r="57.139" gradientUnits="userSpaceOnUse"><stop offset="0" stop-color="#11f7ff"/><stop offset="1"/></radialGradient><linearGradient id="Áåçûìÿííûé_ãðàäèåíò_419" x1="89.265" y1="25.228" x2="105.512" y2="40.623" gradientUnits="userSpaceOnUse"><stop offset="0" stop-color="#ffffe8"/><stop offset="0.201" stop-color="#bba"/><stop offset="0.415" stop-color="#79796e"/><stop offset="0.611" stop-color="#45453f"/><stop offset="0.779" stop-color="#1f1f1d"/><stop offset="0.915" stop-color="#080808"/><stop offset="1"/></linearGradient><linearGradient id="Áåçûìÿííûé_ãðàäèåíò_419-2" x1="49.992" y1="26.328" x2="54.934" y2="31.012" xlink:href="#Áåçûìÿííûé_ãðàäèåíò_419"/><linearGradient id="Áåçûìÿííûé_ãðàäèåíò_419-3" x1="71.543" y1="38.922" x2="80.794" y2="47.688" xlink:href="#Áåçûìÿííûé_ãðàäèåíò_419"/><linearGradient id="Áåçûìÿííûé_ãðàäèåíò_419-4" x1="114.587" y1="60.382" x2="127.942" y2="73.035" xlink:href="#Áåçûìÿííûé_ãðàäèåíò_419"/><linearGradient id="Áåçûìÿííûé_ãðàäèåíò_419-5" x1="123.077" y1="46.497" x2="132.284" y2="55.221" xlink:href="#Áåçûìÿííûé_ãðàäèåíò_419"/><linearGradient id="Áåçûìÿííûé_ãðàäèåíò_419-6" x1="116.893" y1="104.122" x2="125.615" y2="112.387" xlink:href="#Áåçûìÿííûé_ãðàäèåíò_419"/><linearGradient id="Áåçûìÿííûé_ãðàäèåíò_419-7" x1="57.732" y1="103.684" x2="89.042" y2="133.35" xlink:href="#Áåçûìÿííûé_ãðàäèåíò_419"/><radialGradient id="radial-gradient-22" cx="29.141" cy="-85.85" r="8.525" gradientTransform="translate(-5.588 159.52) rotate(14.164)" xlink:href="#radial-gradient-9"/><radialGradient id="radial-gradient-23" cx="20.776" cy="-72.02" r="13.389" gradientTransform="translate(-5.588 159.52) rotate(14.164)" xlink:href="#radial-gradient-12"/><linearGradient id="Áåçûìÿííûé_ãðàäèåíò_419-8" x1="8.345" y1="-88.537" x2="18.963" y2="-78.476" gradientTransform="translate(-5.588 159.52) rotate(14.164)" xlink:href="#Áåçûìÿííûé_ãðàäèåíò_419"/><radialGradient id="radial-gradient-24" cx="-312.206" cy="277.484" r="5.149" gradientTransform="matrix(1.619, -0.398, 0.299, 1.218, 546.01, -346.157)" xlink:href="#radial-gradient-4"/><radialGradient id="radial-gradient-25" cx="-706.936" cy="-458.659" r="7.145" gradientTransform="matrix(0.136, 1.661, -1.25, 0.102, -450.99, 1313.004)" xlink:href="#radial-gradient-4"/><radialGradient id="radial-gradient-26" cx="-1038.704" cy="-325.439" r="4.928" gradientTransform="matrix(-1.049, 1.296, -1.106, -0.895, -1398.016, 1082.599)" xlink:href="#radial-gradient-4"/><radialGradient id="radial-gradient-27" cx="-727.496" cy="-463.599" r="8.1" gradientTransform="matrix(0.223, 1.652, -1.41, 0.19, -363.804, 1342.994)" xlink:href="#radial-gradient-4"/><radialGradient id="radial-gradient-28" cx="-133.844" cy="45.353" r="35.652" gradientTransform="translate(242.83 -8.736) scale(1.384 1.319)" gradientUnits="userSpaceOnUse"><stop offset="0.006" stop-color="#0092ff"/><stop offset="0.081" stop-color="#0077d0" stop-opacity="0.815"/><stop offset="0.171" stop-color="#005ba0" stop-opacity="0.626"/><stop offset="0.266" stop-color="#004375" stop-opacity="0.458"/><stop offset="0.364" stop-color="#002e51" stop-opacity="0.316"/><stop offset="0.466" stop-color="#001d33" stop-opacity="0.201"/><stop offset="0.575" stop-color="#00101d" stop-opacity="0.112"/><stop offset="0.692" stop-color="#00070c" stop-opacity="0.049"/><stop offset="0.823" stop-color="#000203" stop-opacity="0.012"/><stop offset="1" stop-opacity="0"/></radialGradient></defs><title>planet-2</title><g class="cls-1"><g id="Layer_2" data-name="Layer 2"><g id="planets"><g id="planet-2"><circle class="cls-2" cx="79.261" cy="79.261" r="79.261" transform="translate(-32.831 79.261) rotate(-45)"/><circle class="cls-3" cx="83.105" cy="80.777" r="61.497" transform="translate(-14.604 143.1) rotate(-76.717)"/><path class="cls-4" d="M135.494,78.813a54.723,54.723,0,0,1-54.782,54.77c-.971,0-1.954-.023-2.914-.081h-.011c-1.434-.069-2.856-.208-4.255-.381A54.429,54.429,0,0,1,45.551,120.8a55.839,55.839,0,0,1-12.73-15.377c-.335-.6-.658-1.214-.982-1.827,0-.023-.012-.035-.023-.058-.336-.659-.648-1.318-.948-1.989h-.012a52.329,52.329,0,0,1-2.451-6.475,49.1,49.1,0,0,1-1.284-4.9.072.072,0,0,1-.011-.046c-.243-1.168-.451-2.347-.613-3.538a53.919,53.919,0,0,1-.555-7.77c0-1.515.058-3.029.2-4.509.069-.949.173-1.885.3-2.822a53.7,53.7,0,0,1,4.382-15.3A54.828,54.828,0,0,1,80.712,24.031c.578,0,1.156.012,1.723.023.613.023,1.225.047,1.838.093a54.623,54.623,0,0,1,9.192,1.387c1.735.417,3.434.9,5.1,1.48,1.133.382,2.243.81,3.342,1.272.821.347,1.618.7,2.416,1.087.139.069.278.127.416.2A54.867,54.867,0,0,1,119.064,39.7c.6.578,1.179,1.179,1.757,1.792.382.416.764.844,1.134,1.272.636.717,1.248,1.468,1.849,2.22a54.619,54.619,0,0,1,10.083,20.627A54.637,54.637,0,0,1,135.494,78.813Z"/><g class="cls-5"><path class="cls-6" d="M39.715,54.3a16.779,16.779,0,0,0-2.044,6.192,27.034,27.034,0,0,0-.27,5.086,24.332,24.332,0,0,0,1.431,5.071,13.288,13.288,0,0,0,3.222,5.44c2.621,2.595,6.325,2.645,9.432.935,1.588-.874,2.908-2.047,4.587-2.8,2.309-1.029,4.486-2,6.088-4.056a14.432,14.432,0,0,0,2.69-7.68,14.909,14.909,0,0,0,.033-4.911,14.033,14.033,0,0,0-1.5-3.834,21.666,21.666,0,0,0-1.738-2.606A7.409,7.409,0,0,0,58.4,48.956a5.993,5.993,0,0,0-2.373-.82,21.425,21.425,0,0,0-3.176.071,17.04,17.04,0,0,0-3.414.978c-1.082.365-2.21.587-3.266,1.029A27.506,27.506,0,0,1,42.993,51.3a7.566,7.566,0,0,0-3.6,1.84,9.034,9.034,0,0,0-.868.847C38.128,54.537,38.255,55.119,39.715,54.3Z"/><path class="cls-6" d="M59.578,77.664c.3-1.01.5-2.936,1.479-3.674a4.123,4.123,0,0,1,1.441-.646,2.659,2.659,0,0,1,2.044.444c1.737.943,1.413,3.624.45,5.047-.83,1.225-2.916,2.313-4.249,1.315a3.287,3.287,0,0,1-1.115-3.312l.242-.05Z"/><path class="cls-6" d="M92.585,94.314a18.608,18.608,0,0,0-.239,3.929,32.356,32.356,0,0,0,.664,3.378c.5,1.969,1.23,4.259,3.361,5.009,1.893.666,4.157.023,5.94-.7a31.492,31.492,0,0,0,5.762-2.533,20.971,20.971,0,0,0,4.678-4.192,8.476,8.476,0,0,0,2.049-5.63c.074-3.252-1.265-6.113-2.931-8.836a6.835,6.835,0,0,0-8.5-2.714c-2.726.982-4.13,3.918-6.121,5.869a22.706,22.706,0,0,1-1.746,1.817A6.229,6.229,0,0,0,93.981,91.7,11.988,11.988,0,0,0,92.8,93.424C92.429,94.325,92.585,95.4,92.585,94.314Z"/><path class="cls-6" d="M117.705,92.561c.184-.261,1.463-3.074,2.623-2.948.557.061.994.678,1.261,1.13.432.729.775,1.406.209,2.235-.725,1.06-3.674,1.844-3.857-.068l-.236-.056Z"/><path class="cls-6" d="M73.147,34.114c.184-.261,1.463-3.075,2.622-2.948.557.06.995.678,1.262,1.13.431.728.774,1.406.208,2.234-.725,1.061-3.674,1.844-3.857-.067l-.235-.057Z"/><path class="cls-6" d="M103.549,75.4c.184-.261,1.463-3.075,2.622-2.948.557.061.995.678,1.262,1.13.431.729.774,1.407.208,2.234-.725,1.061-3.674,1.845-3.857-.067l-.235-.056Z"/><path class="cls-6" d="M96.09,61.891c-.656,1.761-1.456,2.845-.919,4.512.26.809.377,1.656.607,2.472.449,1.591,1.692,2.56,2.8,3.69,1.473,1.494,2.784,1.956,4.76,1.009a11.411,11.411,0,0,0,1.8-1.169,5.129,5.129,0,0,0,1.758-2.052,20.688,20.688,0,0,0,.936-2.555,8.022,8.022,0,0,0,.822-2.8,10.8,10.8,0,0,0-.169-3.139,13.7,13.7,0,0,0-1.713-3.493,10.267,10.267,0,0,0-2.219-2.635,5.763,5.763,0,0,0-2.635-.79c-1.594-.337-3.9.954-4.752,2.263C95.981,59.041,95.337,61.184,96.09,61.891Z"/><path class="cls-6" d="M92.293,72.407A8.385,8.385,0,0,0,93.5,75.859a1.568,1.568,0,0,1,.782-.29c.012-.367.289-.5.359-.81a6.51,6.51,0,0,0-.017-1.183,4.728,4.728,0,0,0-.433-1.757c-.178-.481-.424-1.3-1.035-1.185-1.156.211-1.045,1.162-.867,1.773Z"/><path class="cls-6" d="M37.524,107.459a5.17,5.17,0,0,0,.585,2.672,16.649,16.649,0,0,0,1.912,2.313c.464.484,1.32,1.511,2.109,1.07.647-.361.864-1.657.8-2.312a12.8,12.8,0,0,0-.376-1.63,5.1,5.1,0,0,0-.755-1.69c-.605-.869-2.022-2.485-3.248-1.7a2.194,2.194,0,0,0-.894.753A.891.891,0,0,0,37.524,107.459Z"/><path class="cls-6" d="M65.022,103.077a7.471,7.471,0,0,1-.413-1.583.327.327,0,0,1,.088-.432,9.868,9.868,0,0,1,.676-1.682,6.694,6.694,0,0,1,2.124-2.6,3.709,3.709,0,0,1,1.117-.365c.4-.1.8-.252,1.206-.323a5.238,5.238,0,0,1,2.156.208,10.628,10.628,0,0,1,2.366.815,4.559,4.559,0,0,1,1.453,1.62c.821,1.252,1.167,3.028.022,4.242a6.506,6.506,0,0,1-1.1.852,13.7,13.7,0,0,1-1.214.85,6.681,6.681,0,0,1-1.765.447,7,7,0,0,1-3.332-.107A17.908,17.908,0,0,1,65.022,103.077Z"/></g><path class="cls-7" d="M112.557,59.34s-2.947,5.334-1.377,14.876c3.493,21.235,15.169,17.992,14.414,8.134Z"/><path class="cls-8" d="M97.366,113.341c-1,8.128-10.562,13.642-21.366,12.318s-18.755-8.987-17.758-17.114S68.8,94.9,79.608,96.227,98.362,105.214,97.366,113.341Z"/><path class="cls-9" d="M104.736,29.573a5.31,5.31,0,0,0-.542.076,3.489,3.489,0,0,1-1.71-.114,10,10,0,0,0-1.216-.38c-.665-.105-1.283-.39-1.948-.475a9.707,9.707,0,0,1-1.976-.608,1.858,1.858,0,0,0-1.3,0,1.857,1.857,0,0,1-1.3-.266,7.106,7.106,0,0,0-1.539-.362c-1.387-.284-2.765-.731-4.143-1.083a10.241,10.241,0,0,0-2.518-.228c-.684-.009-1.3.19-1.985.19a8.713,8.713,0,0,1-1.3-.142c-.466-.086-.941.009-1.406-.057a3.287,3.287,0,0,0-1.768.009,5.1,5.1,0,0,1-1.454.181,10.578,10.578,0,0,0-1.805.314,13.53,13.53,0,0,1-3.2.408,7.522,7.522,0,0,0-2.214.038c-.4.143-.6.57-.874.855A16.75,16.75,0,0,0,68.9,29.592a3.35,3.35,0,0,0-.912,2.033,6.081,6.081,0,0,0,.646,2.081c.3.656.408,1.254-.266,1.692a10.42,10.42,0,0,1-2.794,1.349,1.707,1.707,0,0,1-1.767-.162c-.2-.171-.323-.5-.57-.636s-.523,0-.8.085a17.39,17.39,0,0,1-2.043.541c-.427.067-.8.295-1.216.371-.5.095-.865-.275-1.387-.152a12.8,12.8,0,0,1-2.224.513,3.294,3.294,0,0,1-1.682-.484c-.266-.152-.332-.3-.636-.219a1.688,1.688,0,0,0-.751.551c-.18.257-.247.589-.427.855-.19.3-.371.58-.542.894a12.7,12.7,0,0,1-1.083,1.719c-.285.38-.485.893-.8,1.245a3.748,3.748,0,0,1-.722.465c-.57.4-1.169.761-1.72,1.188-1.064.836-2.071,1.758-3.154,2.565a13.706,13.706,0,0,1-2.927,1.369c-.589.237-1.2.408-1.786.655a2.75,2.75,0,0,0-.7.3,5.213,5.213,0,0,0-.513.76,12.88,12.88,0,0,0-1.444,1.976,7.075,7.075,0,0,0-.532,1.3c-.209.617-.541,1.187-.751,1.8-.427,1.292-.513,2.641-.988,3.924A20.819,20.819,0,0,1,33.389,60.3a11.814,11.814,0,0,0-.846,3.82,8.08,8.08,0,0,0,.076,2.346,12.692,12.692,0,0,1,.095,2.414,3.99,3.99,0,0,1-1.093,2.337c-.494.6-1.244.827-1.795,1.359A4.278,4.278,0,0,0,28.6,74.2a7.122,7.122,0,0,0-.057.912c-.124.675-.295,1.311-.39,1.995a20.023,20.023,0,0,0-.123,2.5c0,.428-.029.865-.01,1.292.019.409.171.789.2,1.2.019.285-.038.571,0,.856.057.323.18.655.257.969.19.76.332,1.5.475,2.261a17.939,17.939,0,0,0,.626,2.081,22.3,22.3,0,0,1,.685,2.86c.142.722.133,1.473.237,2.2.086.589.219,1.188.247,1.777.029.893-.19,1.786-.2,2.689a19.378,19.378,0,0,0,.95,4.5c.1.408.209.826.323,1.235a54.789,54.789,0,0,1,48.9-79.5c1.2,0,2.375.038,3.554.114A54.268,54.268,0,0,1,104.736,29.573Z"/><path class="cls-10" d="M109.91,59.394c-1.78,3.083-8.077,2.778-14.067-.68s-9.4-8.76-7.622-11.842,8.077-2.778,14.067.68S111.689,56.312,109.91,59.394Z"/><path class="cls-11" d="M122.094,97.886s-5.468.078-9.912,5.647-4.406,10.5-3.767,12.151S122.094,97.886,122.094,97.886Z"/><path class="cls-12" d="M116.9,86.554c-6.307.85-12.227-4.452-13.223-11.842s3.311-14.071,9.618-14.92,12.228,4.452,13.223,11.843S123.209,85.705,116.9,86.554Z"/><path class="cls-13" d="M48.233,121.592A54.962,54.962,0,0,1,34.5,104.328a54.216,54.216,0,0,1-4.7-13.369.07.07,0,0,1-.01-.048A55.4,55.4,0,0,1,28.622,79.6,54.778,54.778,0,0,1,83.4,24.828c1.2,0,2.375.038,3.554.114a54.538,54.538,0,0,1,10.8,1.795A54.427,54.427,0,0,0,84.27,24.148c-1.179-.076-2.357-.114-3.554-.114A54.754,54.754,0,0,0,25.94,78.81a55.4,55.4,0,0,0,1.168,11.307c0,.019,0,.038.01.047a54.2,54.2,0,0,0,4.7,13.369,54.984,54.984,0,0,0,34.588,28.158A54.645,54.645,0,0,1,48.233,121.592Z"/><path class="cls-14" d="M117.017,119.82s-6.235,1.513-8.323-3.16,5.865-16.942,12.258-18.549,7.631,5.907,7.631,5.907Z"/><path class="cls-15" d="M79.261,34.005A31.653,31.653,0,0,0,90.978,49.122c14.765,10.469,20.862,6.7,20.862,6.7Z"/><path class="cls-14" d="M99.339,129.539s6.35-3.333,6.482-7.861-9.585-10.714-28.535-13.442c-17.356-2.5-30.629,1.32-31.505,4.679s3.651,11.538,12.852,15.627S94.623,131.849,99.339,129.539Z"/><path class="cls-16" d="M68.991,49.793s3.863,6.109,9.858,6.639,7.768-4.17,7.768-4.17S72.963,52.154,68.991,49.793Z"/><path class="cls-17" d="M66.449,44.954s2.088,7.856,10.217,9.932c8.945,2.284,11.567-3.57,10.272-6.775S75.073,39.993,66.449,44.954Z"/><path class="cls-18" d="M48.924,42.333S54.56,43.38,62.856,38.45s6.581-9.473,6.581-9.473Z"/><path class="cls-17" d="M46.955,38.714s-2.113,2.9,1.969,3.619S66.8,36.281,69.349,31.161,58.516,23.169,46.955,38.714Z"/><path class="cls-19" d="M83.53,28.075s-5.427.934-5.719,3.753S86.4,45.915,96.067,51.882s19.133,3.953,20.593,2.487S104.028,29.541,83.53,28.075Z"/><path class="cls-14" d="M121.451,60.3s-5.17-5.416-9.269-3.384c-3.371,1.671-1.925,18.225,1.58,24.538s8.033,5.743,9.785,4.349S125.69,65.906,121.451,60.3Z"/><path class="cls-14" d="M121.1,48.111a2.394,2.394,0,0,0-2.631,1.015c-1.056,1.519,6.247,11.92,9.314,13.146s3.681-3.175,3.681-3.175Z"/><path class="cls-20" d="M81.923,31.659c-2.439,4.139,19.565,27.654,32.861,23.222,2.629-.876,4.052-18.139-4.819-26.325C102.589,21.751,86.743,23.48,81.923,31.659Z"/><path class="cls-21" d="M114.784,59.555c-3.978,1.665-3.359,19.278,1.607,24.39s12.56-2.337,13.29-10.078S121.064,56.927,114.784,59.555Z"/><path class="cls-22" d="M119.9,50.111c-.238,3.572,7.455,11.277,9.826,10.466s4.633-6.473,3.026-10.466S120.188,45.729,119.9,50.111Z"/><path class="cls-23" d="M50.15,111.1c-10.283,2.649,6.8,22.866,21.4,25.523,17.087,3.109,32.634-8.425,32.926-14.783S69.428,106.139,50.15,111.1Z"/><path class="cls-24" d="M110.3,116.391c-1.889-4.519,8.982-18.724,14.02-17.047s8.325,13.425,1.534,18.245C121.811,120.457,112.271,121.108,110.3,116.391Z"/><path class="cls-25" d="M49.135,41.21c5.039,1.1,16.958-7.192,19.134-11.145s-8.962-9.191-16.462-5.335C46.5,27.459,44.668,40.237,49.135,41.21Z"/><path class="cls-26" d="M68.546,41.309c-5.616,2.6.735,9.967,7.2,12.1s12.163-1.742,11.068-6.049S78.491,36.7,68.546,41.309Z"/><path class="cls-27" d="M54.307,107.843s21.671-3.113,42.882,5.793C97.189,113.636,77.216,101.366,54.307,107.843Z"/><path class="cls-28" d="M118.469,50.186s1.431,6.9,7.125,10.45C125.594,60.636,120.206,55.234,118.469,50.186Z"/><path class="cls-29" d="M25.94,78.81c.251,2.78,1.629-12.275,6.6-14.689s20.106,8.414,27.085,12.717c16.12,9.941,34.222-1.345,38.7-7.416S96.1,53.853,92.3,51.738s-5.712,7.229-13.446,6.135S65.168,47.892,64.564,44.96s6.7-7.167,9.765-7.605,6.446-9.032,4.3-11.041-5.684,7.545-14.061,13.229c-6.009,4.077-15.356,7.7-20.321.346C44.243,39.889,23.848,55.711,25.94,78.81Z"/><path class="cls-30" d="M83.676,32.429c-.238,3.746,8,2.023,15.389,1.576s13.117-.421,13.117-.421a24.6,24.6,0,0,0-14.9-7.543C87.952,25.018,83.822,30.133,83.676,32.429Z"/><path class="cls-31" d="M48.315,36.982c2.244,1.029,2.792-5.773,5.859-8.907a13.424,13.424,0,0,1,6.718-3.732s-6.28-.123-10.223,1.7S46.408,36.108,48.315,36.982Z"/><path class="cls-32" d="M67.829,42.842A14.04,14.04,0,0,1,76.3,40.2a14.539,14.539,0,0,1,8.323,3.444s-3.649-1.107-6.2-.3S71.919,48.4,67.829,42.842Z"/><path class="cls-33" d="M114.346,60.636A9.908,9.908,0,0,1,124.2,63.15c4.747,4.437,5.112,8.435,5.112,8.435s-3.067-4.662-6.134-5.1-6.827,1.829-8.379.442S113.007,62.01,114.346,60.636Z"/><path class="cls-34" d="M120.952,48.747s1.079-1.445,4.642-1.36a8.808,8.808,0,0,1,6.643,2.8c.856,1.075.365,4.7.365,4.7s-.292-2.926-1.752-4.314S120.912,52.544,120.952,48.747Z"/><path class="cls-35" d="M112.182,110.234s6.355-10.29,10.927-9.575,6.207,7.822,6.207,7.822a9.232,9.232,0,0,0-8.365-3.207A13.44,13.44,0,0,0,112.182,110.234Z"/><path class="cls-36" d="M48.315,113.622s8.72-4.393,26.16-1.928,27.369,8.144,27.369,8.144-18.049-3.909-28.7-2.156a18.159,18.159,0,0,0-13.893,11.093S46.108,123.144,48.315,113.622Z"/><path class="cls-37" d="M76.55,135.938s12.035-1.692,18.124-4.5C94.674,131.441,81.984,138.567,76.55,135.938Z"/><path class="cls-37" d="M111.84,116.66a30.538,30.538,0,0,0,11.269,1.022S115.536,120.6,111.84,116.66Z"/><path class="cls-37" d="M113.474,74.678s3.956,7.239,7.921,9.072C121.4,83.75,116.674,85.423,113.474,74.678Z"/><path class="cls-37" d="M93.428,44.954a31.025,31.025,0,0,0,18.754,9.056Z"/><path class="cls-37" d="M69.663,48.111a14.933,14.933,0,0,0,11.055,5.3Z"/><path class="cls-37" d="M48.924,40.191a40.076,40.076,0,0,0,15.64-6.8Z"/><path class="cls-38" d="M33.9,71.566s8.446,6.593,12.012,22.539C45.914,94.105,47.958,78.449,33.9,71.566Z"/><path class="cls-17" d="M34.122,105.159S41,108.49,44.619,105s1.4-15.307-3.573-24.258S29.98,67.832,27.432,69.129C25.674,70.024,16.382,92.292,34.122,105.159Z"/><path class="cls-39" d="M28.654,71.35c-4.546-1.148-8.148,14.57-5.829,23.1,3.015,11.082,17.854,12.722,20.986,9.363S44.822,75.43,28.654,71.35Z"/><path class="cls-40" d="M23.816,93.261S22.565,77.1,26.6,74.184s10.127,3.239,10.127,3.239a33.219,33.219,0,0,0-6.745,2.907C26.163,82.451,23.816,93.261,23.816,93.261Z"/><path class="cls-37" d="M29.191,101.124s5.36,2.91,9.337,3.23C38.528,104.354,33.324,106.37,29.191,101.124Z"/><path class="cls-41" d="M132,113.852c.851,3.463-2.191,7.187-6.794,8.318s-9.025-.759-9.875-4.222,2.19-7.187,6.794-8.318S131.149,110.389,132,113.852Z"/><path class="cls-42" d="M27.28,103.613c-4.931.4-9.363-4.586-9.9-11.142s3.029-12.2,7.961-12.6,9.364,4.586,9.9,11.142S32.212,103.21,27.28,103.613Z"/><path class="cls-43" d="M46.047,34.539c-3.009-2.436-3.135-7.27-.281-10.8s7.609-4.41,10.619-1.974,3.135,7.27.28,10.8S49.057,36.975,46.047,34.539Z"/><path class="cls-44" d="M129.758,66.515c-6.307.849-12.227-4.453-13.223-11.843s3.311-14.07,9.618-14.92,12.228,4.453,13.223,11.843S136.066,65.665,129.758,66.515Z"/><ellipse class="cls-45" cx="57.644" cy="51.093" rx="49.327" ry="47.033"/></g></g></g></g></svg>