<svg xmlns="http://www.w3.org/2000/svg" xmlns:xlink="http://www.w3.org/1999/xlink" viewBox="0 0 161.276 161.276"><defs><style>.cls-1{isolation:isolate;}.cls-17,.cls-18,.cls-19,.cls-2,.cls-20,.cls-3,.cls-4,.cls-9{mix-blend-mode:screen;}.cls-2{fill:url(#radial-gradient);}.cls-3{fill:url(#radial-gradient-2);}.cls-4{fill:url(#radial-gradient-3);}.cls-11,.cls-12,.cls-13,.cls-14,.cls-16,.cls-17,.cls-18,.cls-19,.cls-20,.cls-5,.cls-6,.cls-7,.cls-9{fill-rule:evenodd;}.cls-5{fill:url(#radial-gradient-4);}.cls-6{fill:#7d72b3;opacity:0.4;mix-blend-mode:multiply;}.cls-7{fill:url(#linear-gradient);}.cls-8{opacity:0.7;}.cls-9{fill:url(#radial-gradient-5);}.cls-10{mix-blend-mode:soft-light;}.cls-11{fill:#84deff;}.cls-12{fill:#ffef84;}.cls-13{fill:url(#linear-gradient-2);}.cls-14{fill:url(#radial-gradient-6);}.cls-15{fill:url(#linear-gradient-3);}.cls-16{fill:#ffab0e;}.cls-17{fill:url(#radial-gradient-7);}.cls-18{fill:url(#radial-gradient-8);}.cls-19{fill:url(#radial-gradient-9);}.cls-20{fill:url(#radial-gradient-10);}</style><radialGradient id="radial-gradient" cx="80.638" cy="80.638" r="80.638" gradientTransform="translate(80.638 -33.401) rotate(45)" gradientUnits="userSpaceOnUse"><stop offset="0" stop-color="#0026ff"/><stop offset="1" stop-opacity="0"/></radialGradient><radialGradient id="radial-gradient-2" cx="80.638" cy="80.638" r="63.333" gradientUnits="userSpaceOnUse"><stop offset="0" stop-color="#ff7300"/><stop offset="1" stop-opacity="0"/></radialGradient><radialGradient id="radial-gradient-3" cx="80.638" cy="80.638" r="60.437" gradientUnits="userSpaceOnUse"><stop offset="0" stop-color="#ff7900"/><stop offset="0.183" stop-color="#fc7800" stop-opacity="0.989"/><stop offset="0.315" stop-color="#f37300" stop-opacity="0.952"/><stop offset="0.432" stop-color="#e36c00" stop-opacity="0.89"/><stop offset="0.54" stop-color="#cc6100" stop-opacity="0.802"/><stop offset="0.642" stop-color="#af5300" stop-opacity="0.688"/><stop offset="0.739" stop-color="#8c4200" stop-opacity="0.548"/><stop offset="0.832" stop-color="#622e00" stop-opacity="0.383"/><stop offset="0.92" stop-color="#321800" stop-opacity="0.196"/><stop offset="1" stop-opacity="0"/></radialGradient><radialGradient id="radial-gradient-4" cx="46.753" cy="54.057" r="87.99" gradientUnits="userSpaceOnUse"><stop offset="0" stop-color="#6365de"/><stop offset="0.198" stop-color="#6262db"/><stop offset="0.351" stop-color="#605ad1"/><stop offset="0.489" stop-color="#5d4dc1"/><stop offset="0.619" stop-color="#583aa9"/><stop offset="0.743" stop-color="#52218b"/><stop offset="0.861" stop-color="#4a0367"/><stop offset="0.872" stop-color="#490063"/></radialGradient><linearGradient id="linear-gradient" x1="25.899" y1="64.65" x2="104.696" y2="64.65" gradientUnits="userSpaceOnUse"><stop offset="0" stop-color="#7dbeff"/><stop offset="0.247" stop-color="#7cbbfd"/><stop offset="0.428" stop-color="#78b2f7"/><stop offset="0.588" stop-color="#72a2ec"/><stop offset="0.736" stop-color="#698bde"/><stop offset="0.874" stop-color="#5d6ecb"/><stop offset="1" stop-color="#504db5"/></linearGradient><radialGradient id="radial-gradient-5" cx="40.647" cy="42.393" r="72.099" gradientUnits="userSpaceOnUse"><stop offset="0" stop-color="#a3f1ff"/><stop offset="1"/></radialGradient><linearGradient id="linear-gradient-2" x1="25.649" y1="56.094" x2="122.423" y2="56.094" gradientUnits="userSpaceOnUse"><stop offset="0" stop-color="#ff380b"/><stop offset="0.456" stop-color="#fe380d"/><stop offset="0.684" stop-color="#fd3715"/><stop offset="0.861" stop-color="#fa3522"/><stop offset="1" stop-color="#f63333"/></linearGradient><radialGradient id="radial-gradient-6" cx="34.145" cy="105.308" r="27.822" gradientUnits="userSpaceOnUse"><stop offset="0.006" stop-color="#ff340b"/><stop offset="0.459" stop-color="#fe340d"/><stop offset="0.686" stop-color="#fd3415"/><stop offset="0.861" stop-color="#fa3322"/><stop offset="1" stop-color="#f63333"/></radialGradient><linearGradient id="linear-gradient-3" x1="23.784" y1="96.029" x2="137.251" y2="96.029" xlink:href="#linear-gradient-2"/><radialGradient id="radial-gradient-7" cx="76.63" cy="6.92" r="11.671" gradientTransform="matrix(1.538, -0.644, 0.413, 0.986, -41.112, 118.644)" gradientUnits="userSpaceOnUse"><stop offset="0" stop-color="#ff5b00"/><stop offset="0.173" stop-color="#c54600" stop-opacity="0.772"/><stop offset="0.399" stop-color="#802e00" stop-opacity="0.501"/><stop offset="0.602" stop-color="#491a00" stop-opacity="0.285"/><stop offset="0.777" stop-color="#210c00" stop-opacity="0.13"/><stop offset="0.915" stop-color="#090300" stop-opacity="0.035"/><stop offset="1" stop-opacity="0"/></radialGradient><radialGradient id="radial-gradient-8" cx="124.598" cy="417.753" r="11.671" gradientTransform="matrix(1.054, 0.705, -0.594, 0.888, 156.512, -414.782)" xlink:href="#radial-gradient-7"/><radialGradient id="radial-gradient-9" cx="203.244" cy="399.501" r="10.528" gradientTransform="matrix(1.054, 0.705, -0.594, 0.888, 156.512, -414.782)" xlink:href="#radial-gradient-7"/><radialGradient id="radial-gradient-10" cx="172.74" cy="474.905" r="10.528" gradientTransform="matrix(1.054, 0.705, -0.594, 0.888, 156.512, -414.782)" xlink:href="#radial-gradient-7"/></defs><title>planet-3</title><g class="cls-1"><g id="Layer_2" data-name="Layer 2"><g id="planets"><g id="planet-3"><circle class="cls-2" cx="80.638" cy="80.638" r="80.638" transform="translate(-33.401 80.638) rotate(-45)"/><circle class="cls-3" cx="80.638" cy="80.638" r="63.333"/><circle class="cls-4" cx="80.638" cy="80.638" r="60.437"/><path class="cls-5" d="M135.454,79.68a54.723,54.723,0,0,1-54.782,54.77c-.971,0-1.954-.023-2.913-.081h-.012c-1.434-.069-2.856-.208-4.255-.382a54.418,54.418,0,0,1-27.98-12.325,55.843,55.843,0,0,1-12.731-15.378c-.335-.6-.659-1.214-.982-1.827,0-.023-.012-.034-.024-.057-.335-.66-.647-1.318-.948-1.989h-.011a52.45,52.45,0,0,1-2.451-6.475,49.168,49.168,0,0,1-1.284-4.9.074.074,0,0,1-.011-.047c-.243-1.167-.451-2.347-.613-3.538A53.9,53.9,0,0,1,25.9,79.68c0-1.515.058-3.03.2-4.509.07-.949.174-1.885.3-2.822a53.708,53.708,0,0,1,4.382-15.3A54.83,54.83,0,0,1,80.672,24.9c.578,0,1.156.011,1.723.023.613.023,1.225.046,1.838.092A54.522,54.522,0,0,1,93.425,26.4c1.735.416,3.434.9,5.1,1.48,1.133.381,2.243.809,3.342,1.272.82.347,1.618.705,2.416,1.086.139.07.278.128.416.2a54.894,54.894,0,0,1,14.326,10.129c.6.578,1.179,1.179,1.757,1.792.382.416.764.844,1.134,1.272.636.716,1.248,1.468,1.849,2.22a54.619,54.619,0,0,1,10.083,20.627A54.625,54.625,0,0,1,135.454,79.68Z"/><path class="cls-6" d="M25.9,79.676s12.917,22.92,25.4,26.475,26.748,1.3,31.622,3.111,7.526,9.263,7.526,9.263l1.815,1.04s4.167-6.468,6.717-2.647a21.563,21.563,0,0,1,2.05-12.01c3.066-6.593,5.114-13.677,8.91-15.941a20.2,20.2,0,0,1,16.251-1.131c5.508,2.184,8.36,1.765,8.36,1.765l.411-2.595.412-2.288s-5.271.838-9.511-1.874c0,0,.582,1.014,3.867-5.121a23.725,23.725,0,0,0,2.905-11.669l-.471-5.1s-1.764,17.678-9.22,22.807c0,0-16.623-3.441-23.652,16.18,0,0-1.2,13.122-8.167,12.757s-4.556-8.946-14.633-9.034-16.192,4.056-26.169-1.634S25.9,79.676,25.9,79.676Z"/><path class="cls-6" d="M77.759,134.369s6.909-10.318,14.507-10.261,11.1,2.815,17.091-.682a130.669,130.669,0,0,0,11.238-7.549,18.314,18.314,0,0,0,3.227-2.459l1.246-1.645a7.766,7.766,0,0,0-7.9.954c-3.7,2.992-10.393,9.77-15.7,9.737s-5.05-3.09-11.016-.694-18.528,10.864-18.528,10.864A11,11,0,0,0,77.759,134.369Z"/><path class="cls-6" d="M28.909,97.619l.658,1.808s10.68,5.9,17.425,14.1S54.937,127.3,54.937,127.3s1.2-4.891-4.613-14.088S32,98.968,28.909,97.619Z"/><path class="cls-7" d="M104.7,30.44a5.045,5.045,0,0,0-.542.076,3.489,3.489,0,0,1-1.71-.114,10,10,0,0,0-1.216-.381c-.666-.1-1.283-.389-1.948-.475a9.692,9.692,0,0,1-1.977-.608,1.861,1.861,0,0,0-1.3,0,1.857,1.857,0,0,1-1.3-.266,7.177,7.177,0,0,0-1.539-.361c-1.387-.285-2.765-.731-4.143-1.083A10.241,10.241,0,0,0,86.5,27c-.684-.01-1.3.19-1.986.19a8.586,8.586,0,0,1-1.3-.143c-.466-.085-.941.01-1.407-.057a3.293,3.293,0,0,0-1.767.01,5.1,5.1,0,0,1-1.454.181,10.674,10.674,0,0,0-1.8.313,13.48,13.48,0,0,1-3.2.409,7.488,7.488,0,0,0-2.214.038c-.4.142-.6.57-.874.855a16.75,16.75,0,0,0-1.634,1.663,3.347,3.347,0,0,0-.912,2.033,6.081,6.081,0,0,0,.646,2.081c.3.655.408,1.254-.266,1.691a10.375,10.375,0,0,1-2.794,1.349,1.709,1.709,0,0,1-1.767-.161c-.2-.171-.323-.5-.57-.637s-.523,0-.8.085a17.4,17.4,0,0,1-2.043.542c-.428.067-.8.3-1.216.371-.5.095-.865-.276-1.388-.152a12.772,12.772,0,0,1-2.223.513,3.3,3.3,0,0,1-1.682-.485c-.265-.152-.332-.3-.636-.218a1.688,1.688,0,0,0-.751.551c-.18.256-.247.589-.427.855-.19.294-.371.58-.542.893A12.778,12.778,0,0,1,50.4,41.49c-.285.38-.485.893-.8,1.245a3.748,3.748,0,0,1-.722.465c-.57.4-1.169.76-1.72,1.188-1.064.836-2.071,1.758-3.155,2.565a13.676,13.676,0,0,1-2.926,1.369c-.589.237-1.2.408-1.786.655a2.747,2.747,0,0,0-.7.3,5.324,5.324,0,0,0-.513.76,12.88,12.88,0,0,0-1.444,1.976,7.132,7.132,0,0,0-.532,1.3c-.209.618-.541,1.188-.751,1.806-.427,1.292-.513,2.641-.988,3.924a20.811,20.811,0,0,1-1.016,2.119,11.782,11.782,0,0,0-.846,3.819,8.087,8.087,0,0,0,.076,2.347,12.768,12.768,0,0,1,.095,2.413,3.99,3.99,0,0,1-1.093,2.338c-.494.6-1.245.826-1.795,1.358a4.278,4.278,0,0,0-1.226,1.625,6.946,6.946,0,0,0-.057.912c-.124.675-.3,1.312-.39,2a20.014,20.014,0,0,0-.123,2.5c0,.427-.029.864-.01,1.292.019.408.171.789.2,1.2.019.285-.038.57,0,.855.057.323.18.656.256.969.19.76.333,1.5.475,2.262a17.935,17.935,0,0,0,.628,2.08,22.33,22.33,0,0,1,.683,2.86c.143.723.134,1.473.238,2.2.086.589.219,1.187.247,1.776.029.894-.19,1.787-.2,2.689a19.357,19.357,0,0,0,.95,4.5c.1.409.209.827.323,1.236a54.79,54.79,0,0,1,48.9-79.5c1.2,0,2.375.038,3.553.114A54.269,54.269,0,0,1,104.7,30.44Z"/><path class="cls-6" d="M39.3,48.977S51.627,60,67.9,60.318s22.313-.778,27.725-6.8,11.241-16.231,11.241-16.231a35.513,35.513,0,0,0-11.756,9.891C90.3,53.719,67.591,64.867,39.3,48.977Z"/><g class="cls-8"><path class="cls-6" d="M40.276,49.292a28.6,28.6,0,0,0-4.1,6.12,23.181,23.181,0,0,0-1.666,6.426c-.206,1.292-.388,2.589-.583,3.882a11.315,11.315,0,0,0-.306,3.519,15.831,15.831,0,0,0,1.1,4.745,26.61,26.61,0,0,0,2.716,4.24,5.189,5.189,0,0,0,4.01,2.044c.918.065,1.831-.077,2.752.044,1.276.168,2.554.4,3.825.606,2.561.411,5.438.43,7.279-1.67,1.493-1.7,2.2-3.828,3.149-5.856a14.136,14.136,0,0,1,4.182-5.42c1.393-1.078,2.615-2.292,3.954-3.432a10.671,10.671,0,0,1,1.666-1.462,8.32,8.32,0,0,0,1.633-1.346,17.13,17.13,0,0,0,1.653-1.379A11.04,11.04,0,0,0,73.3,57.185a16.557,16.557,0,0,0,.8-3.535,7.778,7.778,0,0,0-.552-3.457c-.693-2.12-2.5-3.452-4.206-4.768a16.594,16.594,0,0,0-7.189-2.861,21.779,21.779,0,0,0-7.574-.139,29.57,29.57,0,0,0-7.425,1.891,17.752,17.752,0,0,0-4.12,3.066,24.931,24.931,0,0,0-2.188,1.677C39.974,49.989,39.152,51,40.276,49.292Z"/><path class="cls-6" d="M65.1,39.068a14.2,14.2,0,0,1,1.2-2.006,6.86,6.86,0,0,1,.886-.789,8.483,8.483,0,0,1,3.08-1.752,3.848,3.848,0,0,1,1.984-.036,6.466,6.466,0,0,1,2.335,1.089c.932.888.317,2.4.037,3.436a4.387,4.387,0,0,1-1.54,2.69,5.945,5.945,0,0,1-2.061.941,11.585,11.585,0,0,1-1.222.114,8.082,8.082,0,0,1-.982.123A2.711,2.711,0,0,1,66.6,41.6c-.166-.388-.261-.79-.436-1.179-.132-.295-.237-.607-.36-.9C65.566,38.95,65.363,38.406,65.1,39.068Z"/><path class="cls-6" d="M74.159,44.91a5.837,5.837,0,0,0-.368,1.863c.281.165.379.512.656.675a1.682,1.682,0,0,0,.886.091c.548,0,1.079.006,1.171-.669.081-.591-.442-1.021-.884-1.342-.32-.232-.952-.771-1.315-.325Z"/><path class="cls-6" d="M81.754,53.82c-.711.506-1.477.962-2.158,1.5a13.543,13.543,0,0,0-2.207,2.422c-.832,1.077-1.81,2.2-1.6,3.654a5.479,5.479,0,0,0,1.786,3.578c1.269,1.11,3.229,1.1,4.706,1.823a6.666,6.666,0,0,1,2.7,3.095c.961,1.835,2.975,2.162,4.815,2.508,1.195.225,2.38.4,3.588.545,1.622.2,3.228.508,4.856.665,2.981.287,5.987.974,8.992.733a17.489,17.489,0,0,0,8.693-3.216A12.308,12.308,0,0,0,120.74,64.2c.62-2.811-.3-5.938-1.664-8.393a65.557,65.557,0,0,0-6.123-9.027c-1.256-1.578-2.713-2.985-4-4.545a29.479,29.479,0,0,0-3.6-3.7c-2.975-2.557-6.666-4.669-10.664-4.88a10.88,10.88,0,0,0-4.49.7,8.4,8.4,0,0,0-3.093,2.164c-2.364,2.433-3.6,5.532-4.624,8.713a11.578,11.578,0,0,0-.737,4.656,11.38,11.38,0,0,1,.3,1.3c-.006.42,0,.84,0,1.26a1.512,1.512,0,0,1-.065.644C81.837,53.425,81.5,53.78,81.754,53.82Z"/><path class="cls-6" d="M69.194,64.627c-1.544.9-3.129,1.6-4.262,3.048-.2.257-.5.544-.395.891.116.382.547.6.88.737a6.767,6.767,0,0,0,3.776.485,5.124,5.124,0,0,0,3.156-1.966c.755-1.267-.1-3.3-1.7-3.2-.241.016-.423.13-.656.159-.189.022-.394-.016-.586-.007a.98.98,0,0,0-.449.128C68.77,64.98,68.518,65.2,69.194,64.627Z"/><path class="cls-6" d="M37.5,85.8a5.993,5.993,0,0,0-1.614,1.76,9.4,9.4,0,0,0-.739,2.151,4.575,4.575,0,0,0-.157,2.047c.151.607.436,1.212.644,1.806a17.864,17.864,0,0,1,.688,2.3,11.577,11.577,0,0,0,1.019,2.755,26.064,26.064,0,0,0,1.46,2.6,14.534,14.534,0,0,0,1.906,2.3c2.5,2.6,5.549,5.357,9.273,5.825a6.269,6.269,0,0,0,5.216-1.6,10.274,10.274,0,0,0,2.781-5.666,7.436,7.436,0,0,0-.861-5.119,23.5,23.5,0,0,0-2.572-3.593c-.663-.714-1.427-1.327-2.148-1.979a27.878,27.878,0,0,0-2.189-1.905c-1.375-1.006-2.7-2.064-4.086-3.061a12.38,12.38,0,0,0-4.133-2.248,5.476,5.476,0,0,0-3.254-.057,1.717,1.717,0,0,0-1.016.733,2.529,2.529,0,0,0-.392.777C37.288,85.639,37.248,85.649,37.5,85.8Z"/><path class="cls-6" d="M47.286,83.321q.077.662.152,1.321l.094.431a1.242,1.242,0,0,0,.533.144,1.89,1.89,0,0,0,1.28-.461,1.362,1.362,0,0,0,.281-1.88,1.555,1.555,0,0,0-1.463-.424c-.287.059-1.5.7-1.023,1.161Z"/><path class="cls-6" d="M120.6,71.345A4.436,4.436,0,0,1,121.418,69c.523-.635,1.1-1.231,1.6-1.884a10.587,10.587,0,0,0,1.84-4.078c.3-1.3-.013-2.555.567-3.807.137-.3.3-.861.613-1a1.556,1.556,0,0,1,1.133.135,6.207,6.207,0,0,1,.759.7,15.523,15.523,0,0,1,1.109,1.142,11.6,11.6,0,0,1,2.82,7.629,13.366,13.366,0,0,1-.7,4.5,9.267,9.267,0,0,1-.755,1.686,4.334,4.334,0,0,1-1.539,1.49,5.315,5.315,0,0,1-6.219-.736,8.11,8.11,0,0,1-1.238-1.967,4.6,4.6,0,0,1-.689-1.583C120.682,71.216,120.642,71.208,120.6,71.345Z"/><path class="cls-6" d="M120.6,50.752c.312,1.069.471,2.234,1.566,2.786a2.729,2.729,0,0,0,.807.259,1.079,1.079,0,0,0,.693-.3c1.15-.844.488-2.781-.288-3.657a3.079,3.079,0,0,0-1.616-.872c-.289-.086-.218-.11-.464,0a.818.818,0,0,0-.409.324,1.325,1.325,0,0,0-.147.591,2.152,2.152,0,0,1-.11.471,1.429,1.429,0,0,0,.114.99Z"/><path class="cls-6" d="M111.986,95.3c-.282.728-.5,1.487-.825,2.2-.341.754-.682,1.518-1,2.282a45.044,45.044,0,0,0-1.861,6.216,44.674,44.674,0,0,0-1.168,6.755,27.1,27.1,0,0,0-.266,3.485,8.69,8.69,0,0,0,.317,2.669,2.827,2.827,0,0,0,1.172,1.482c.679.292,1.539-.275,2.11-.558a23.93,23.93,0,0,0,5.906-4.518,43.143,43.143,0,0,0,4.969-5.3,29.333,29.333,0,0,0,1.943-2.763c.461-.814.777-1.7,1.2-2.533.393-.78.679-1.606,1.049-2.4a23.079,23.079,0,0,0,1.18-2.965c.6-1.943,1.13-3.927.447-5.933a5.146,5.146,0,0,0-3.759-3.391,10.924,10.924,0,0,0-3.011-.412,9.86,9.86,0,0,0-2.9.707,15.311,15.311,0,0,0-2.282,1.146,5.078,5.078,0,0,0-.99.942,11.951,11.951,0,0,0-1.469,1.865,5.259,5.259,0,0,1-.657.837C111.736,95.513,111.58,96.12,111.986,95.3Z"/><path class="cls-6" d="M103.369,120.564a11.982,11.982,0,0,0-3.112,1.593,13.328,13.328,0,0,0-3.136,3c-.31.444-.928,1.207-.464,1.732a1.959,1.959,0,0,0,1.6.405,6.407,6.407,0,0,0,2.337-.471c.69-.289,1.312-.668,2.023-.913a4.812,4.812,0,0,0,2.071-1.274c.262-.335.414-.8.657-1.152a1.13,1.13,0,0,0,.215-.879,2.367,2.367,0,0,0-.62-1.278,1.8,1.8,0,0,0-1.209-.472,2.605,2.605,0,0,0-.643.174C102.628,121.224,102.253,121.8,103.369,120.564Z"/><path class="cls-6" d="M101.909,113.846a6.651,6.651,0,0,1-.429-2.434,4.712,4.712,0,0,1,.474-2.177c.175-.3.682-1.255,1.023-1.377a2.012,2.012,0,0,1,.579-.01c.59.077.945.8,1.067,1.336a12.722,12.722,0,0,1,.064,2.62,4.726,4.726,0,0,1-.332,1.869c-.2.5-.594.488-1.095.468a1.536,1.536,0,0,1-1.059-.445c-.133-.105-.329-.144-.449-.248C101.589,113.305,101.651,113.11,101.909,113.846Z"/><path class="cls-6" d="M100.886,79.232a9.512,9.512,0,0,0-.127,1.829c.222,0,.453.409.741.481a1.4,1.4,0,0,0,1.138-.4,2.564,2.564,0,0,0,.725-2.421c-.151-.808-1.082-.89-1.75-.806a1.551,1.551,0,0,0-.735.289,1.515,1.515,0,0,0-.43,1.321Z"/><path class="cls-6" d="M48.6,116.913A12.911,12.911,0,0,1,49.775,115a19.731,19.731,0,0,1,1.759-1.883c.768-.7,1.658-1.345,2.479-1.981.763-.591,1.544-1.166,2.362-1.678a21.255,21.255,0,0,1,4.481-2.031,7.552,7.552,0,0,1,3.995-.317,7.959,7.959,0,0,1,3.733,2.019,12.266,12.266,0,0,1,2.595,3.252c1.225,2.477.751,5.161-.087,7.676a7.189,7.189,0,0,1-2.1,3.195,4.652,4.652,0,0,1-1.83.83c-.744.167-1.587.421-2.34.516a20.828,20.828,0,0,1-9.819-.975c-1.242-.457-2.46-1.018-3.649-1.6A6.2,6.2,0,0,1,49,120.136a3.581,3.581,0,0,1-.841-2.171,9.965,9.965,0,0,1,.178-1.027C48.489,116.931,48.619,116.834,48.6,116.913Z"/><path class="cls-6" d="M73.429,118.373a7.071,7.071,0,0,0-.438,1.862c.224.128.211.5.378.7a.877.877,0,0,0,.674.363,4.836,4.836,0,0,0,.932-.014c.453-.07.551-.237.786-.571a1.266,1.266,0,0,0,.3-1.032,1.855,1.855,0,0,0-.327-.982,3.247,3.247,0,0,0-.549-.587c-.432-.312-.756-.135-1.172.116Z"/><path class="cls-6" d="M127.467,89.893a5.153,5.153,0,0,1-1.248-1.4,1.347,1.347,0,0,0-.025-.658,4.3,4.3,0,0,1-.071-1.59,3.187,3.187,0,0,1,2.776-2.474,3.349,3.349,0,0,1,2.643,1.335,5.55,5.55,0,0,1,.739,2.68,3.675,3.675,0,0,1-.579,2.233c-.31.427-.936.445-1.428.461a4.8,4.8,0,0,1-1.674-.255C128.193,90.089,127.74,89.792,127.467,89.893Z"/></g><path class="cls-9" d="M48.193,122.458a54.962,54.962,0,0,1-13.73-17.264,54.209,54.209,0,0,1-4.7-13.368.07.07,0,0,1-.01-.048,55.4,55.4,0,0,1-1.168-11.307A54.777,54.777,0,0,1,83.358,25.7c1.2,0,2.375.038,3.553.114a54.608,54.608,0,0,1,10.8,1.794,54.471,54.471,0,0,0-13.48-2.589c-1.178-.076-2.356-.114-3.553-.114A54.756,54.756,0,0,0,25.9,79.677a55.392,55.392,0,0,0,1.169,11.306.07.07,0,0,0,.01.048,54.216,54.216,0,0,0,4.7,13.369,54.984,54.984,0,0,0,34.588,28.158A54.665,54.665,0,0,1,48.193,122.458Z"/><path class="cls-6" d="M32.255,73.784S62.927,86.3,79.57,85.3,103.3,74.76,109.943,66.054a57.775,57.775,0,0,0,9.138-19.186S106.473,71.193,90.828,77.634l-9,1.82A68.179,68.179,0,0,0,89.793,72.4c3.274-3.554,15.886-8.724,17.068-12.875s1.038-10.976,3.082-15.341,4.079-7.969,4.079-7.969l-5.413-.935L106.07,41.26s-.713,9.926-2.656,15.307S82.483,76.68,78.21,79.146,36.113,76.4,32.255,73.784Z"/><g class="cls-10"><path class="cls-6" d="M86.972,126.241a11.6,11.6,0,0,1,2.666-.9,1.86,1.86,0,0,1,.674.315,1.361,1.361,0,0,1,.81,1.351,3.415,3.415,0,0,1-2.1,2.412,2.642,2.642,0,0,1-3.148-.988c-.47-.875.724-2.48,2.036-2.509Z"/><path class="cls-11" d="M61.307,71.734c-.722,1.234-2.535,3.5-1.986,5.264a18.967,18.967,0,0,0,1.111,2.258c.926,1.96,2.793,3.929,5.113,2.51,2.6-1.59,1.471-4.491.371-6.606a5.223,5.223,0,0,0-1.827-2.2,6.912,6.912,0,0,0-1.665-.591c-.868-.171-.252-.729-1.117-.635Z"/><path class="cls-12" d="M78.833,31.424a7.217,7.217,0,0,0-.054,1.913c.2-.041.354.146.566.142a1.7,1.7,0,0,0,.773-.3,1.647,1.647,0,0,0,.613-1.322,1.173,1.173,0,0,0-.509-1.175.957.957,0,0,0-1.389.445Z"/><path class="cls-11" d="M67.3,91.012a7.428,7.428,0,0,1,.595-1.989,2.332,2.332,0,0,1,1.218-.77,2.645,2.645,0,0,1,2.715.413,2.8,2.8,0,0,1,.013,4.259,3.671,3.671,0,0,1-2.216,1.166,2.544,2.544,0,0,1-1.306-.144,2.146,2.146,0,0,1-.916-1.175,2.27,2.27,0,0,1,.335-2.052Z"/><path class="cls-11" d="M57.218,90.428c0,.61-.355,2.043.524,2.327.423.136.873-.428.941-.788a2.481,2.481,0,0,0-.111-1.246c-.215-.493-.648-.836-1.062-.293Z"/><path class="cls-11" d="M33.85,79.766a7.228,7.228,0,0,0,.656,3.264c.244.37.486.75.95.832.41.073.645-.173.876-.474a2.042,2.042,0,0,0,.444-1.576,4.584,4.584,0,0,0-.476-1.8,3.935,3.935,0,0,0-.844-.983.91.91,0,0,0-.879-.292c-.531.056-.495.692-.581,1.172Z"/><path class="cls-11" d="M115.053,75.239a6.613,6.613,0,0,1,.423-2.076,1.909,1.909,0,0,1,.593-.341,1.771,1.771,0,0,1,1.583-.076,2.284,2.284,0,0,1,1.194,2.219,2.432,2.432,0,0,1-2.336,1.752,1.552,1.552,0,0,1-1.311-2.209Z"/><path class="cls-11" d="M58.735,88.247a3.3,3.3,0,0,1,.212-1.038.945.945,0,0,1,.3-.17A.885.885,0,0,1,60.035,87a1.143,1.143,0,0,1,.6,1.109,1.216,1.216,0,0,1-1.168.876.776.776,0,0,1-.656-1.1Z"/><path class="cls-11" d="M83.686,98.252a3.326,3.326,0,0,1,.211-1.038.961.961,0,0,1,.3-.17.885.885,0,0,1,.792-.038,1.141,1.141,0,0,1,.6,1.109,1.214,1.214,0,0,1-1.168.876.776.776,0,0,1-.655-1.1Z"/><path class="cls-11" d="M100.523,54.09a3.292,3.292,0,0,1,.211-1.038.95.95,0,0,1,.3-.17.883.883,0,0,1,.791-.038,1.143,1.143,0,0,1,.6,1.109,1.216,1.216,0,0,1-1.168.876.776.776,0,0,1-.656-1.1Z"/><path class="cls-11" d="M66.189,118.183a3.292,3.292,0,0,1,.211-1.038.961.961,0,0,1,.3-.17.883.883,0,0,1,.791-.038,1.139,1.139,0,0,1,.6,1.109,1.215,1.215,0,0,1-1.168.876.776.776,0,0,1-.655-1.1Z"/><path class="cls-11" d="M111.4,88.967a4.8,4.8,0,0,0-1.841,1.516A14.32,14.32,0,0,0,108.5,92.2a4.1,4.1,0,0,0-.468,1.777c.113,1.439,1.9.174,2.415-.263a3.513,3.513,0,0,0,1.4-2.319,2.588,2.588,0,0,0-.112-1.116c-.063-.149-.139-.323-.215-.466C111.351,89.49,111.2,89.483,111.4,88.967Z"/><path class="cls-11" d="M128.928,95.248A7.819,7.819,0,0,0,128.8,97a4,4,0,0,0,.638,0c.284-.043.361-.186.584-.358.455-.351.787-.557.805-1.182.014-.517-.079-.83-.586-.985-.223-.068-.329-.158-.573-.088a1.712,1.712,0,0,0-1.033,1Z"/><path class="cls-12" d="M82.379,31.724a5.353,5.353,0,0,0-.085,1.19,2.834,2.834,0,0,0,.432,0c.192-.029.244-.126.395-.243.309-.238.534-.377.546-.8.009-.35-.054-.562-.4-.667-.15-.046-.222-.107-.387-.059a1.155,1.155,0,0,0-.7.677Z"/><path class="cls-12" d="M112.055,76.414a5.334,5.334,0,0,0-.086,1.19,2.834,2.834,0,0,0,.432,0c.193-.029.245-.126.4-.243.309-.237.533-.377.545-.8.01-.35-.053-.562-.4-.666-.151-.047-.224-.107-.389-.06a1.163,1.163,0,0,0-.7.677Z"/><path class="cls-12" d="M80.762,119.055a5.353,5.353,0,0,0-1.192.038,2.785,2.785,0,0,0,.043.43c.048.189.15.23.282.368.268.283.43.492.853.46.349-.027.553-.111.622-.464.03-.155.083-.233.019-.392a1.16,1.16,0,0,0-.746-.626Z"/><path class="cls-12" d="M55.858,72.063a5.353,5.353,0,0,0-.085,1.19,2.833,2.833,0,0,0,.432,0c.192-.029.244-.126.4-.243.308-.238.532-.377.545-.8.009-.35-.054-.562-.4-.667-.151-.046-.223-.107-.389-.059a1.156,1.156,0,0,0-.7.677Z"/><path class="cls-11" d="M79.927,114.408a7.826,7.826,0,0,0-.127,1.756,4,4,0,0,0,.638,0c.284-.042.361-.186.584-.358.455-.351.787-.556.8-1.182.015-.517-.078-.83-.585-.985-.223-.067-.33-.157-.573-.087a1.71,1.71,0,0,0-1.033,1Z"/></g><path class="cls-13" d="M49.331,78.337c17.745,2.807,16.65,7.49,37.243,1.88s35.341-36.588,35.341-36.588,1.028-2.293.158-3.643c-.347-.537-3.049.579-3.049.579.465,9.943-13.447,30.475-29.164,36.388a35.6,35.6,0,0,1-4.948,1.206c-.741-.372-2.561-2.05,6.043-7.883,10.123-6.863,14.678-9.423,13.741-16.557s8.067-18.436,8.067-18.436h0s.652-3.008-1.051-4.881c-2.191-2.41-7.016.037-7.016.037s-1.254,13.986-19,21.543-27.6,3.805-34.394,1.737-8.814-13.312-8.814-13.312-5.75-1.194-7.836,2.471c-1.533,2.7.691,6.043.691,6.043s10.7,3.878,20.34,7.576,28.042.385,34.614-2.778,6.572-8.213,11.83-12.807a26.7,26.7,0,0,1,6.188-4.045s-5.75,8.87-5.093,15.115S99.937,58.005,90.3,68.959C83.533,76.646,77.63,79.081,74.7,79.853c-7.424.673-14.165-.161-23.4-2.666C36.406,73.147,27.46,66.67,27.46,66.67a1.256,1.256,0,0,0-1.789.81c-.209.6,1.121,2.3,1.121,2.3S31.586,75.531,49.331,78.337Z"/><path class="cls-14" d="M61.8,130.836s-4.367-2.722-7.653-11.159-2.848-7.885-8.982-13.2-16.8-10.541-16.8-10.541-.722.248-.722.462c0,1.095,1.266,1.221,1.266,1.221s9.957,4.269,16.175,11.136,12.938,19.052,8.155,18.327c0,0,1.076,3.053,3.6,3.754A10.188,10.188,0,0,0,61.8,130.836Z"/><path class="cls-15" d="M105.412,90.024c2.035-2.174,4.5-5.1,14.465-5.157s15.088,2.139,15.088,2.139a3.49,3.49,0,0,0,2.269-3.243,4.5,4.5,0,0,0-1.8-3.983c-.1.832-1.11,6.313-9.573,3.064a14.5,14.5,0,0,0,3.642-8.325,133.626,133.626,0,0,1,2.659-13.562s1.179-1.966.412-3.554c-.252-.523-2.193-.759-2.193-.759,1.677,11.18-2.555,24.65-7.157,26.2-5.584.069-12.394,1.04-15.481,3.075-3.793,2.509-7.6,13.852-10.036,21.83a22.108,22.108,0,0,1-3.457,6.278c-6.1,1.468-4.174-5.851-6.81-8.105s-7.666-1.041-10.95-2.255-4.162-3.815-7.666-4.232S59.8,105.54,53.5,102.846s-27.4-27.68-27.4-27.68-1.9-.456-2.286.858c-.3,1.01,2.09,3.652,2.09,3.652s14.672,22.141,28.686,25.02,26.731.185,31.114,3.989c4.358,3.793,4.694,9.851,4.694,9.9-4.556,4.834-9.909,9-12.441,10.268-4.382,2.208-11.585,3.711-11.585,3.711a10.725,10.725,0,0,0,5.09,2.613,5.955,5.955,0,0,0,5.038-.728s-1.781-1.55.544-3.492c5.919-4.925,10.116-7.076,16.256-8.533,3.723-.879,4.833.809,5.365.266v.012c5.723,1.815,10.255-2.474,15.181-6.417a23.564,23.564,0,0,1,11.227-4.509s3.268-.551,4.115-1.994c.772-1.314-1.051-2.747-1.051-2.747s-2.787,1.144-8.036,3.8-10.891,10.394-17.308,10.151c-3.539-.127-2.8-3.711-3.134-4.22,0-.254.012-.509,0-.763v-.011c-.1-2.6-.647-4.96-.647-6.845a6.221,6.221,0,0,1,.127-1.353C99.723,105.008,103.377,92.2,105.412,90.024ZM94.243,114.05a49.618,49.618,0,0,1-3.792,4.475Zm4.914,3.874a6.213,6.213,0,0,1,.1,1.792c-.035.312-.092.566-.393.67-.174.058-.37.081-.543.128a7.276,7.276,0,0,1-.822.208,10.339,10.339,0,0,1-1.329.011,11.835,11.835,0,0,1-1.422-.011c-.22-.035-.44-.081-.659-.116a2.152,2.152,0,0,1-.717-.162c-.474-.266-.752-.763-1.11-.879a3.166,3.166,0,0,1,.185-1.156c.046-.139.092-.277.127-.416a6.972,6.972,0,0,1,.278-.694,8.849,8.849,0,0,1,.878-1.676c.174-.266.347-.532.509-.81a5.222,5.222,0,0,1,.717-.786,5.3,5.3,0,0,1,1.191-.96,1.885,1.885,0,0,1,1.341-.323c.416.138.59.682.751,1.052a6.416,6.416,0,0,1,.232.844c.092.358.254.682.335,1.052.093.405.093.821.173,1.226C99.053,117.253,99.1,117.588,99.157,117.924Z"/><path class="cls-16" d="M36.781,41.684a29.206,29.206,0,0,0,8.826,9.661,89.6,89.6,0,0,0-3.628-10.433S39.894,38.946,36.781,41.684Z"/><path class="cls-16" d="M70.1,57.184s4.322-1.741,5.663-1.09A31.376,31.376,0,0,1,70.1,57.184Z"/><path class="cls-16" d="M84.547,53.185c.777-.25,1.569-.479,2.329-.777a15.961,15.961,0,0,0,1.946-.923,18.117,18.117,0,0,0,2.3-1.5c.186-.145.4-.238.595-.371.226-.154.447-.335.666-.5.194-.147.35-.349.536-.508s.376-.315.57-.465a12.652,12.652,0,0,0,.972-.82c.146-.138.285-.285.439-.415a1.1,1.1,0,0,1,.316-.167c.047.1-.073.336-.113.432a4.755,4.755,0,0,1-.344.561,10.258,10.258,0,0,1-1,1.12,3.4,3.4,0,0,1-.777.66,12.63,12.63,0,0,1-1.263.713c-.429.223-.885.357-1.3.6-.4.231-.794.41-1.208.6a8.711,8.711,0,0,0-.783.469c-.219.132-.439.261-.659.393-.327.2-.644.386-.983.566-.179.1-.362.173-.539.27a2.815,2.815,0,0,1-1.334.385,1.12,1.12,0,0,1-.479-.055c-.067-.03-.2-.07-.209-.152C84.338,53.3,84.435,53.154,84.547,53.185Z"/><path class="cls-16" d="M96.213,45.682a1.714,1.714,0,0,0-.527.407c0,.121-.067.258.144.253a.741.741,0,0,0,.522-.3c.072-.08.22-.32.133-.436-.109-.143-.4.055-.491.135Z"/><path class="cls-16" d="M105.469,30.785a3.405,3.405,0,0,0-.492.718c-.078.2-.147.4-.222.595-.147.389-.231.79-.354,1.185-.224.718-.4,1.446-.685,2.148-.129.318-.286.62-.438.927-.082.164-.2.313-.277.48-.065.149-.15.273-.218.419a2.16,2.16,0,0,1-.174.4,4.081,4.081,0,0,0-.262.452c-.071.129-.352.445-.267.611.085.014.169-.118.219-.17.157-.161.338-.288.5-.442.305-.288.574-.615.864-.917.126-.132.211-.288.323-.428.161-.2.354-.364.509-.572.253-.338.53-.661.811-.975.141-.158.239-.344.377-.5s.27-.28.4-.423c.413-.455.85-.89,1.249-1.357a12.758,12.758,0,0,0,.889-1.182c.216-.323.409-.649.605-.987.079-.135.255-.461.194-.627a.628.628,0,0,0-.528-.328,2.839,2.839,0,0,0-1,.02,6.285,6.285,0,0,0-.95.34c-.285.118-.516.328-.789.463C105.559,30.733,105.334,30.825,105.469,30.785Z"/><path class="cls-16" d="M108.317,37.357a4.727,4.727,0,0,1-.339.685c-.123.172-.239.331-.347.514-.186.318-.364.64-.548.96a15.121,15.121,0,0,0-1.013,1.744c-.1.246-.208.486-.327.723a5.673,5.673,0,0,0-.274.783,7.207,7.207,0,0,0-.177.783,1.288,1.288,0,0,0-.086.638c.209-.272.358-.574.55-.86a2.8,2.8,0,0,1,.424-.57,6.634,6.634,0,0,0,.494-.525,3.6,3.6,0,0,0,.44-.574c.113-.193.183-.393.313-.576s.209-.369.321-.548a3.3,3.3,0,0,0,.352-.654c.16-.448.32-.922.438-1.382a1.9,1.9,0,0,0,.055-.732C108.562,37.59,108.281,37.1,108.317,37.357Z"/><path class="cls-16" d="M104.538,44.861c-.085.291-.2.618-.263.92-.017.075-.043.235.018.282s.236-.018.288-.066a.861.861,0,0,0,.135-.2.835.835,0,0,0,.153-.552c-.046-.2-.227-.364-.386-.161Z"/><path class="cls-16" d="M98.787,60.743a14.219,14.219,0,0,0-1.834,1.813c-.048.068-.3.359-.24.479.07.138.357.046.45.015a8.92,8.92,0,0,0,1.8-.937,6.778,6.778,0,0,0,1.472-1.353,2.639,2.639,0,0,0,.491-.733c.028-.075.143-.292.117-.382-.09-.3-.808.019-.953.112a5.6,5.6,0,0,0-.472.386c-.131.106-.254.194-.389.284-.114.075-.219.176-.328.259S98.7,60.968,98.787,60.743Z"/><path class="cls-16" d="M95.994,63.591q-.316.147-.627.3c0,.1-.261.273-.132.4.071.07.305-.022.374-.045a.944.944,0,0,0,.345-.263c.114-.109.1-.153.04-.286Z"/><path class="cls-16" d="M81.827,77.137a11.68,11.68,0,0,1-1.6,1.027c-.659.349-1.363.614-2.013.982-1.01.571-2.079,1-3.138,1.469-.169.075-1.724.685-1.136,1a1.755,1.755,0,0,0,.837.122c.243.006.477.071.72.081s.5,0,.744,0A9.386,9.386,0,0,0,80,81.007a4.955,4.955,0,0,0,.815-.362,4.026,4.026,0,0,0,.407-.367,2.848,2.848,0,0,0,.6-.824,2.7,2.7,0,0,0,.364-1.367A.886.886,0,0,0,82,77.545C81.9,77.429,81.773,77.4,81.827,77.137Z"/><path class="cls-16" d="M72.772,81.008a2.605,2.605,0,0,0-.915-.369,1.242,1.242,0,0,0-.321.038,1.671,1.671,0,0,0-.8.258c-.276.275.315.493.535.548a2.8,2.8,0,0,0,.915.038c.223-.028.669-.223.669-.5l.059-.012Z"/><path class="cls-16" d="M89.568,77.5a21.083,21.083,0,0,0,3.4-1.391c.428-.214.849-.458,1.255-.711.265-.164.527-.375.8-.514.115-.058.8-.457.892-.266.121.247-.623.741-.729.835a10.391,10.391,0,0,1-.9.663c-.258.183-.544.274-.816.43a9.729,9.729,0,0,1-1.1.546,6.531,6.531,0,0,1-.867.337c-.227.059-.454.15-.681.2-.17.039-.343-.011-.512.031C90.105,77.717,89.71,77.819,89.568,77.5Z"/><path class="cls-16" d="M115.382,83.856a13.7,13.7,0,0,0,1.854-.025c.431-.061.86-.154,1.293-.2.853-.079,1.689-.3,2.546-.331.338-.012.681,0,1.021,0a3.237,3.237,0,0,1,.63-.006,1.1,1.1,0,0,1,.355.192c.207.223.007.19-.134.27a2.914,2.914,0,0,1-.9.39c-.537.113-1.069.259-1.613.337-.375.053-.751-.013-1.125.046a9.084,9.084,0,0,1-1.484.085c-.411,0-.822,0-1.233,0a5.748,5.748,0,0,1-.872-.1c-.258-.036-.412.015-.629-.105C114.993,84.361,114.831,84.206,115.382,83.856Z"/><path class="cls-16" d="M129.183,84.4a6.068,6.068,0,0,0,1.849.031c.432-.082.869-.152,1.3-.223a5.012,5.012,0,0,0,1.818-.739c.3-.191.9-.606,1.28-.5a1,1,0,0,1,.659.774c.029.41-.432.745-.715.969a3.356,3.356,0,0,1-1.836.567,7.822,7.822,0,0,1-2.2-.224c-.223-.051-.444-.116-.666-.166A3.3,3.3,0,0,1,129.183,84.4Z"/><path class="cls-16" d="M130.826,57.348c-.045.5-.356,1.73.271,2.133.334.213.494-.349.5-.6.007-.365-.226-1.322-.659-1.421Z"/><path class="cls-16" d="M27.57,68.667a5.5,5.5,0,0,0,2.924,2.452,3.077,3.077,0,0,0,1.46.179c.247-.055.312.028.3-.292a1.027,1.027,0,0,0-.185-.441,6.035,6.035,0,0,0-.555-.576,4.247,4.247,0,0,0-.584-.671,8.365,8.365,0,0,0-2.64-1.531c-.366-.118-.392-.161-.715.041-.255.159-.265.094-.3.395-.048.4.239.716.444,1.028Z"/><path class="cls-16" d="M28.008,79.474a34.371,34.371,0,0,0,2.849,3.816,31.326,31.326,0,0,0,2,2.76c.138.132,1.594,1.384,1.578.662a4.645,4.645,0,0,0-.506-.958,10.032,10.032,0,0,0-.808-1.172,9.3,9.3,0,0,1-.734-.908,5.853,5.853,0,0,0-.691-.87c-.352-.391-.54-.883-.852-1.3-.288-.389-.584-.758-.863-1.154A3.326,3.326,0,0,0,28.624,79c-.156-.059-.393-.23-.591-.085C27.718,79.148,27.97,79.94,28.008,79.474Z"/><path class="cls-16" d="M80.732,105.179a7.914,7.914,0,0,1,3.419-.13c.589.139,1.184.322,1.764.495a3.009,3.009,0,0,1,1.214.5.815.815,0,0,1-.074,1.078c-.356.354-1.145.277-1.588.235a13.2,13.2,0,0,1-2.658-.462,5.354,5.354,0,0,1-1.606-.726C81.011,106.017,80.512,105.6,80.732,105.179Z"/><path class="cls-16" d="M97.527,111.751c-.619-.136-.671-1.243-.5-1.684.1-.25.254-.654.532-.769s.383.081.624.168a7.971,7.971,0,0,1-.949,1.555Z"/><path class="cls-16" d="M120.6,111.313a8,8,0,0,1,2.257-1.17c.452-.134.918-.191,1.369-.327.529-.159,1.061-.411,1.6-.518.2-.04.388-.029.581-.062.218-.037.112-.146.361-.01.459.25.25.587-.047.84a3.751,3.751,0,0,1-1.782.841c-.408.1-.734.328-1.131.449-.239.074-.487.114-.729.178A3.748,3.748,0,0,1,120.6,111.313Z"/><path class="cls-16" d="M46.994,109.414a20.97,20.97,0,0,0,1.615,3.037,2.535,2.535,0,0,0,1.014,1.056c.386.164.648.226.7-.3a1.985,1.985,0,0,0-.346-.928,22.482,22.482,0,0,0-1.555-2.135,4.869,4.869,0,0,0-.735-.848c-.186-.151-.738-.324-.694.117Z"/><path class="cls-16" d="M68.463,132.782a24.554,24.554,0,0,0,3.476-1.065,10.247,10.247,0,0,1,1.458-.282c.045-.009.1-.1.167-.121a2.124,2.124,0,0,1,.45.008c.128,0,.687-.075.8.006.456.336-.518,1.221-.73,1.443a4.179,4.179,0,0,1-3.313,1.187c-.6-.061-1.14-.38-1.72-.446-.37-.041-1.188-.178-1.151-.705A3.506,3.506,0,0,1,68.463,132.782Z"/><path class="cls-16" d="M89.641,120.368a11.178,11.178,0,0,0-3.077,2.486c-.541.758.448.6.884.436a4,4,0,0,0,.957-.5,4.824,4.824,0,0,0,.684-.639c.173-.174.394-.314.551-.5s.225-.611.413-.738a1.591,1.591,0,0,0-.12-.252Z"/><path class="cls-16" d="M59.847,103.572c.8-.335,1.584-.618,2.326-1.016.691-.369,1.354-.752,2.058-1.1a7.352,7.352,0,0,1,2.923-1.1c.394-.01.654-.2,1.018-.036a1.511,1.511,0,0,1,.693.51c.533.758-.523,1.487-1.1,1.877a8.248,8.248,0,0,1-1.344.873c-.579.244-1.2.355-1.788.572a13.883,13.883,0,0,1-3.038.888,2.176,2.176,0,0,1-1.457-.409,2.063,2.063,0,0,1-.581-.547C59.419,103.883,59.333,103.554,59.847,103.572Z"/><path class="cls-17" d="M97.515,68.635c2.66,6.354-3.218,14.868-13.129,19.017s-20.1,2.361-22.762-3.994,3.219-14.869,13.13-19.017S94.855,62.28,97.515,68.635Z"/><path class="cls-18" d="M51.925,52.379c-3.829,5.726-12.44,6.686-19.233,2.143S23.5,41.655,27.327,35.929s12.44-6.686,19.233-2.143S55.755,46.653,51.925,52.379Z"/><path class="cls-19" d="M144.441,90.78c-3.454,5.165-11.221,6.031-17.348,1.933s-8.294-11.606-4.84-16.771,11.221-6.031,17.348-1.933S147.9,85.615,144.441,90.78Z"/><path class="cls-20" d="M67.5,136.273c-3.454,5.165-11.222,6.031-17.349,1.933s-8.294-11.606-4.84-16.771S56.531,115.4,62.658,119.5,70.952,131.108,67.5,136.273Z"/></g></g></g></g></svg>