<svg xmlns="http://www.w3.org/2000/svg" xmlns:xlink="http://www.w3.org/1999/xlink" viewBox="0 0 158.522 158.522"><defs><style>.cls-1{isolation:isolate;}.cls-10,.cls-2,.cls-3,.cls-30,.cls-31,.cls-32,.cls-33,.cls-37,.cls-4{mix-blend-mode:screen;}.cls-2{fill:url(#radial-gradient);}.cls-3{fill:url(#radial-gradient-2);}.cls-4{fill:url(#radial-gradient-3);}.cls-10,.cls-11,.cls-12,.cls-13,.cls-14,.cls-15,.cls-16,.cls-17,.cls-18,.cls-19,.cls-20,.cls-21,.cls-22,.cls-23,.cls-24,.cls-25,.cls-26,.cls-27,.cls-28,.cls-29,.cls-31,.cls-32,.cls-33,.cls-34,.cls-35,.cls-36,.cls-37,.cls-5,.cls-6,.cls-7,.cls-8,.cls-9{fill-rule:evenodd;}.cls-5{fill:url(#linear-gradient);}.cls-6{fill:url(#linear-gradient-2);}.cls-7{fill:url(#radial-gradient-4);}.cls-8{fill:url(#linear-gradient-3);}.cls-11,.cls-12,.cls-13,.cls-14,.cls-15,.cls-16,.cls-21,.cls-35,.cls-36,.cls-9{mix-blend-mode:multiply;}.cls-9{fill:url(#Áåçûìÿííûé_ãðàäèåíò_99);}.cls-10{fill:url(#Áåçûìÿííûé_ãðàäèåíò_600);}.cls-11,.cls-12,.cls-13,.cls-14,.cls-15,.cls-16,.cls-35{opacity:0.4;}.cls-11{fill:url(#Áåçûìÿííûé_ãðàäèåíò_9);}.cls-12{fill:url(#Áåçûìÿííûé_ãðàäèåíò_9-2);}.cls-13{fill:url(#Áåçûìÿííûé_ãðàäèåíò_9-3);}.cls-14{fill:url(#Áåçûìÿííûé_ãðàäèåíò_9-4);}.cls-15{fill:url(#Áåçûìÿííûé_ãðàäèåíò_559);}.cls-16{fill:url(#Áåçûìÿííûé_ãðàäèåíò_559-2);}.cls-17{fill:url(#linear-gradient-4);}.cls-18{fill:url(#linear-gradient-5);}.cls-19{fill:url(#linear-gradient-6);}.cls-20{fill:url(#linear-gradient-7);}.cls-21{fill:url(#Áåçûìÿííûé_ãðàäèåíò_111);}.cls-22{fill:url(#linear-gradient-8);}.cls-23{fill:url(#linear-gradient-9);}.cls-24{fill:url(#linear-gradient-10);}.cls-25{fill:url(#linear-gradient-11);}.cls-26{fill:url(#linear-gradient-12);}.cls-27{fill:url(#linear-gradient-13);}.cls-28{fill:url(#linear-gradient-14);}.cls-29{fill:#dbff0e;}.cls-30{fill:url(#radial-gradient-5);}.cls-31{fill:url(#radial-gradient-6);}.cls-32{fill:url(#radial-gradient-7);}.cls-33{fill:url(#radial-gradient-8);}.cls-34{fill:url(#linear-gradient-15);}.cls-35{fill:url(#Áåçûìÿííûé_ãðàäèåíò_9-5);}.cls-36{fill:url(#Áåçûìÿííûé_ãðàäèåíò_111-2);}.cls-37{fill:url(#Áåçûìÿííûé_ãðàäèåíò_136);}</style><radialGradient id="radial-gradient" cx="79.261" cy="79.261" r="79.261" gradientTransform="translate(79.261 -32.831) rotate(45)" gradientUnits="userSpaceOnUse"><stop offset="0.006" stop-color="#009bff"/><stop offset="1" stop-opacity="0"/></radialGradient><radialGradient id="radial-gradient-2" cx="79.261" cy="79.261" r="66.344" gradientTransform="matrix(1, 0, 0, 1, 0, 0)" xlink:href="#radial-gradient"/><radialGradient id="radial-gradient-3" cx="79.261" cy="79.261" r="67.52" gradientTransform="translate(144.486 -11.9) rotate(80.583)" gradientUnits="userSpaceOnUse"><stop offset="0.006" stop-color="#0092ff"/><stop offset="0.131" stop-color="#0090fb" stop-opacity="0.984"/><stop offset="0.256" stop-color="#0089ef" stop-opacity="0.937"/><stop offset="0.38" stop-color="#007ddb" stop-opacity="0.859"/><stop offset="0.505" stop-color="#006dbf" stop-opacity="0.748"/><stop offset="0.63" stop-color="#00599b" stop-opacity="0.606"/><stop offset="0.756" stop-color="#003f6e" stop-opacity="0.432"/><stop offset="0.878" stop-color="#00223b" stop-opacity="0.23"/><stop offset="1" stop-opacity="0"/></radialGradient><linearGradient id="linear-gradient" x1="41.265" y1="48.57" x2="41.265" y2="28.74" gradientUnits="userSpaceOnUse"><stop offset="0" stop-color="#0051b3"/><stop offset="1" stop-color="#72f3ff"/></linearGradient><linearGradient id="linear-gradient-2" x1="36.876" y1="49.574" x2="44.327" y2="26.827" gradientUnits="userSpaceOnUse"><stop offset="0" stop-color="#00058b"/><stop offset="1" stop-color="#0080ff"/></linearGradient><radialGradient id="radial-gradient-4" cx="43.84" cy="52.509" r="91.979" gradientUnits="userSpaceOnUse"><stop offset="0.006" stop-color="#fcff60"/><stop offset="0.107" stop-color="#f6ff5e"/><stop offset="0.243" stop-color="#e5ff57"/><stop offset="0.397" stop-color="#caff4c"/><stop offset="0.564" stop-color="#a3ff3d"/><stop offset="0.684" stop-color="#83ff30"/><stop offset="0.728" stop-color="#7cfb31"/><stop offset="0.791" stop-color="#69ee33"/><stop offset="0.866" stop-color="#49da37"/><stop offset="0.95" stop-color="#1ebe3c"/><stop offset="1" stop-color="#00ab3f"/></radialGradient><linearGradient id="linear-gradient-3" x1="22.042" y1="63.583" x2="104.41" y2="63.583" gradientUnits="userSpaceOnUse"><stop offset="0" stop-color="#d1ff81"/><stop offset="0.361" stop-color="#ceff83"/><stop offset="0.625" stop-color="#c5ff87"/><stop offset="0.859" stop-color="#b5ff90"/><stop offset="1" stop-color="#a7ff97"/></linearGradient><linearGradient id="Áåçûìÿííûé_ãðàäèåíò_99" x1="105.25" y1="131.197" x2="105.25" y2="104.309" gradientUnits="userSpaceOnUse"><stop offset="0" stop-color="#b8c2ff"/><stop offset="1" stop-color="#5b729c"/></linearGradient><radialGradient id="Áåçûìÿííûé_ãðàäèåíò_600" cx="37.458" cy="40.317" r="75.367" gradientUnits="userSpaceOnUse"><stop offset="0" stop-color="#ffffd9"/><stop offset="1"/></radialGradient><linearGradient id="Áåçûìÿííûé_ãðàäèåíò_9" x1="22.564" y1="47.375" x2="94.575" y2="47.375" gradientUnits="userSpaceOnUse"><stop offset="0" stop-color="#b8c2ff"/><stop offset="1" stop-color="#7d72b3"/></linearGradient><linearGradient id="Áåçûìÿííûé_ãðàäèåíò_9-2" x1="34.252" y1="100.976" x2="136.562" y2="100.976" xlink:href="#Áåçûìÿííûé_ãðàäèåíò_9"/><linearGradient id="Áåçûìÿííûé_ãðàäèåíò_9-3" x1="28.208" y1="79.814" x2="130.314" y2="79.814" xlink:href="#Áåçûìÿííûé_ãðàäèåíò_9"/><linearGradient id="Áåçûìÿííûé_ãðàäèåíò_9-4" x1="22.045" y1="65.545" x2="122.409" y2="65.545" xlink:href="#Áåçûìÿííûé_ãðàäèåíò_9"/><linearGradient id="Áåçûìÿííûé_ãðàäèåíò_559" x1="96.4" y1="57.272" x2="97.777" y2="57.272" gradientUnits="userSpaceOnUse"><stop offset="0" stop-color="#e8ddff"/><stop offset="1" stop-color="#aa8ad8"/></linearGradient><linearGradient id="Áåçûìÿííûé_ãðàäèåíò_559-2" x1="25.634" y1="82.731" x2="25.92" y2="82.731" xlink:href="#Áåçûìÿííûé_ãðàäèåíò_559"/><linearGradient id="linear-gradient-4" x1="90.279" y1="33.384" x2="127.028" y2="33.384" gradientUnits="userSpaceOnUse"><stop offset="0" stop-color="#72d2ff"/><stop offset="1" stop-color="#0030b3"/></linearGradient><linearGradient id="linear-gradient-5" x1="98.626" y1="121.602" x2="117.268" y2="64.692" gradientUnits="userSpaceOnUse"><stop offset="0" stop-color="#04006b"/><stop offset="1" stop-color="#2b23c9"/></linearGradient><linearGradient id="linear-gradient-6" x1="170.341" y1="131.595" x2="170.341" y2="74.471" gradientTransform="matrix(0.95, 0.311, -0.311, 0.95, -16.947, -57.638)" gradientUnits="userSpaceOnUse"><stop offset="0" stop-color="#0300b3"/><stop offset="1" stop-color="#36c9ff"/></linearGradient><linearGradient id="linear-gradient-7" x1="110.089" y1="104.871" x2="110.089" y2="65.55" gradientUnits="userSpaceOnUse"><stop offset="0" stop-color="#00aeff"/><stop offset="1" stop-color="#45ceff"/></linearGradient><linearGradient id="Áåçûìÿííûé_ãðàäèåíò_111" x1="47.043" y1="127.632" x2="47.043" y2="104.546" gradientUnits="userSpaceOnUse"><stop offset="0" stop-color="#81a9ce"/><stop offset="1" stop-color="#5b729c"/></linearGradient><linearGradient id="linear-gradient-8" x1="40.556" y1="121.001" x2="48.256" y2="97.493" xlink:href="#linear-gradient-5"/><linearGradient id="linear-gradient-9" x1="87.639" y1="141.38" x2="87.639" y2="131.197" gradientUnits="userSpaceOnUse"><stop offset="0" stop-color="#003cb3"/><stop offset="0.916" stop-color="#7006fc"/><stop offset="1" stop-color="#7006f9"/></linearGradient><linearGradient id="linear-gradient-10" x1="41.018" y1="124.758" x2="41.018" y2="95.487" gradientTransform="matrix(1, 0, 0, 1, 0, 0)" xlink:href="#linear-gradient-6"/><linearGradient id="linear-gradient-11" x1="42.552" y1="124.746" x2="42.552" y2="95.487" xlink:href="#linear-gradient-7"/><linearGradient id="linear-gradient-12" x1="84.783" y1="86.112" x2="89.682" y2="71.156" xlink:href="#linear-gradient-2"/><linearGradient id="linear-gradient-13" x1="86.49" y1="85.032" x2="90.542" y2="72.662" gradientUnits="userSpaceOnUse"><stop offset="0" stop-color="#004dca"/><stop offset="1" stop-color="#3683ff"/></linearGradient><linearGradient id="linear-gradient-14" x1="106.803" y1="41.015" x2="112.65" y2="23.163" xlink:href="#linear-gradient-2"/><radialGradient id="radial-gradient-5" cx="121.286" cy="105.724" r="10.839" gradientTransform="translate(40.941 -33.677) rotate(18.964)" gradientUnits="userSpaceOnUse"><stop offset="0" stop-color="#317aff"/><stop offset="0.105" stop-color="#2967d7" stop-opacity="0.845"/><stop offset="0.292" stop-color="#1d4897" stop-opacity="0.592"/><stop offset="0.47" stop-color="#132e61" stop-opacity="0.38"/><stop offset="0.635" stop-color="#0b1a37" stop-opacity="0.216"/><stop offset="0.783" stop-color="#050c19" stop-opacity="0.098"/><stop offset="0.91" stop-color="#010307" stop-opacity="0.026"/><stop offset="1" stop-opacity="0"/></radialGradient><radialGradient id="radial-gradient-6" cx="106.778" cy="76.258" r="10.063" gradientTransform="matrix(1, 0, 0, 1, 0, 0)" xlink:href="#radial-gradient-5"/><radialGradient id="radial-gradient-7" cx="218.47" cy="129.688" r="5.965" gradientTransform="matrix(0.809, 0.588, -0.387, 0.532, -18.243, -169.36)" xlink:href="#radial-gradient-5"/><radialGradient id="radial-gradient-8" cx="37.044" cy="108.898" r="10.839" gradientTransform="matrix(1, 0, 0, 1, 0, 0)" xlink:href="#radial-gradient-5"/><linearGradient id="linear-gradient-15" x1="113.45" y1="39.268" x2="113.45" y2="20.123" gradientUnits="userSpaceOnUse"><stop offset="0" stop-color="#00aad9"/><stop offset="1" stop-color="#42e3ff"/></linearGradient><linearGradient id="Áåçûìÿííûé_ãðàäèåíò_9-5" x1="96.875" y1="125.016" x2="96.875" y2="98.903" xlink:href="#Áåçûìÿííûé_ãðàäèåíò_9"/><linearGradient id="Áåçûìÿííûé_ãðàäèåíò_111-2" x1="112.829" y1="60.223" x2="112.829" y2="25.597" xlink:href="#Áåçûìÿííûé_ãðàäèåíò_111"/><radialGradient id="Áåçûìÿííûé_ãðàäèåíò_136" cx="-86.449" cy="67.176" r="14.421" gradientTransform="matrix(1.393, -0.916, 0.587, 0.893, 136.79, -88.331)" gradientUnits="userSpaceOnUse"><stop offset="0" stop-color="#06feff"/><stop offset="0.173" stop-color="#05c4c5"/><stop offset="0.399" stop-color="#037f80"/><stop offset="0.602" stop-color="#024849"/><stop offset="0.777" stop-color="#012121"/><stop offset="0.915" stop-color="#000909"/><stop offset="1"/></radialGradient></defs><title>planet-4</title><g class="cls-1"><g id="Layer_2" data-name="Layer 2"><g id="planets"><g id="planet-4"><circle class="cls-2" cx="79.261" cy="79.261" r="79.261" transform="translate(-32.831 79.261) rotate(-45)"/><circle class="cls-3" cx="79.261" cy="79.261" r="66.344"/><circle class="cls-4" cx="79.261" cy="79.261" r="67.52" transform="translate(-11.9 144.486) rotate(-80.583)"/><path class="cls-5" d="M30.971,48.57s.7-6.029,1.155-9.342A51.726,51.726,0,0,1,42.813,28.74l8.745.455S33.926,43.34,30.971,48.57Z"/><path class="cls-6" d="M42.813,28.74a12.453,12.453,0,0,1-4.427,8.685c-4.428,3.834-6.353,2.488-6.353,2.488L30.971,47.64,51.558,29.2Z"/><path class="cls-7" d="M136.562,79.294A57.2,57.2,0,0,1,79.3,136.547c-1.015,0-2.042-.025-3.045-.085H76.24c-1.5-.073-2.986-.218-4.448-.4a56.886,56.886,0,0,1-29.249-12.884A58.345,58.345,0,0,1,29.236,107.1c-.351-.628-.689-1.269-1.028-1.91,0-.023-.012-.036-.024-.06-.35-.689-.676-1.378-.991-2.079h-.012a54.841,54.841,0,0,1-2.562-6.768,51.443,51.443,0,0,1-1.342-5.125.072.072,0,0,1-.012-.048c-.254-1.221-.471-2.454-.64-3.7a56.329,56.329,0,0,1-.58-8.122c0-1.584.06-3.167.2-4.714.072-.991.181-1.97.314-2.949a56.124,56.124,0,0,1,4.581-15.99A57.312,57.312,0,0,1,79.3,22.029c.605,0,1.209.012,1.8.024.641.024,1.281.048,1.922.1A57.136,57.136,0,0,1,92.629,23.6c1.813.435,3.589.943,5.33,1.547,1.184.4,2.344.846,3.493,1.329.858.363,1.692.738,2.526,1.136.145.073.29.134.435.206a57.405,57.405,0,0,1,14.975,10.588c.628.6,1.232,1.232,1.837,1.873.4.435.8.882,1.184,1.329.665.75,1.306,1.535,1.934,2.321a57.079,57.079,0,0,1,10.539,21.562A57.1,57.1,0,0,1,136.562,79.294Z"/><path class="cls-8" d="M104.41,27.822a5.2,5.2,0,0,0-.566.079,3.648,3.648,0,0,1-1.788-.119,10.494,10.494,0,0,0-1.271-.4c-.7-.11-1.341-.408-2.037-.5a10.151,10.151,0,0,1-2.066-.636,1.947,1.947,0,0,0-1.36,0,1.94,1.94,0,0,1-1.361-.278,7.442,7.442,0,0,0-1.609-.377c-1.45-.3-2.89-.765-4.33-1.132a10.632,10.632,0,0,0-2.632-.239c-.715-.01-1.361.2-2.076.2a9.122,9.122,0,0,1-1.361-.149c-.487-.09-.983.01-1.47-.06a3.438,3.438,0,0,0-1.847.01,5.321,5.321,0,0,1-1.52.189,11.03,11.03,0,0,0-1.887.328,14.131,14.131,0,0,1-3.347.427,7.856,7.856,0,0,0-2.314.039c-.417.149-.626.6-.914.894a17.606,17.606,0,0,0-1.708,1.738,3.505,3.505,0,0,0-.954,2.126,6.4,6.4,0,0,0,.675,2.175c.318.685.428,1.311-.278,1.768a10.863,10.863,0,0,1-2.92,1.41,1.786,1.786,0,0,1-1.847-.168c-.209-.179-.338-.527-.6-.666s-.547,0-.835.09a18.372,18.372,0,0,1-2.135.566c-.447.069-.834.308-1.271.387-.526.1-.9-.288-1.45-.159a13.292,13.292,0,0,1-2.324.536,3.441,3.441,0,0,1-1.759-.506c-.278-.159-.347-.318-.665-.229a1.779,1.779,0,0,0-.785.576c-.188.269-.258.616-.446.894-.2.308-.388.606-.567.934a13.284,13.284,0,0,1-1.132,1.8c-.3.4-.507.933-.834,1.3a3.932,3.932,0,0,1-.755.486c-.6.418-1.222.8-1.8,1.242-1.112.874-2.165,1.837-3.3,2.682a14.339,14.339,0,0,1-3.059,1.43c-.616.248-1.252.427-1.868.685a2.87,2.87,0,0,0-.735.318,5.5,5.5,0,0,0-.536.795,13.409,13.409,0,0,0-1.51,2.066,7.426,7.426,0,0,0-.556,1.36c-.219.646-.566,1.242-.785,1.887-.447,1.351-.536,2.762-1.032,4.1a21.853,21.853,0,0,1-1.063,2.214,12.35,12.35,0,0,0-.884,3.993,8.426,8.426,0,0,0,.079,2.453,13.427,13.427,0,0,1,.1,2.523,4.177,4.177,0,0,1-1.143,2.444c-.516.625-1.3.864-1.877,1.42a4.474,4.474,0,0,0-1.281,1.7,7.4,7.4,0,0,0-.06.954c-.129.7-.308,1.37-.407,2.085a20.892,20.892,0,0,0-.129,2.613c0,.447-.03.9-.01,1.35.02.428.179.825.209,1.252.019.3-.04.6,0,.894.059.337.188.685.268,1.013.2.794.347,1.569.5,2.364a18.728,18.728,0,0,0,.656,2.175,23.362,23.362,0,0,1,.715,2.99c.149.754.139,1.539.248,2.3.09.616.229,1.241.259,1.857.029.934-.2,1.867-.209,2.811a20.323,20.323,0,0,0,.993,4.708c.109.427.219.864.338,1.291A57.273,57.273,0,0,1,79.3,22.031c1.252,0,2.483.04,3.715.119A56.719,56.719,0,0,1,104.41,27.822Z"/><path class="cls-9" d="M82.952,106.2a90.216,90.216,0,0,0,12.421,14.3c7.075,6.4,8.113,10.7,8.113,10.7A60.2,60.2,0,0,0,126.4,112.362C135.942,99.12,82.952,106.2,82.952,106.2Z"/><path class="cls-10" d="M45.346,124.012a57.469,57.469,0,0,1-14.352-18.047A56.681,56.681,0,0,1,26.077,91.99a.075.075,0,0,1-.01-.05,57.942,57.942,0,0,1-1.221-11.819A57.26,57.26,0,0,1,82.105,22.862c1.251,0,2.483.039,3.715.119a57,57,0,0,1,11.286,1.876,56.886,56.886,0,0,0-14.09-2.707c-1.232-.079-2.463-.119-3.715-.119A57.238,57.238,0,0,0,22.042,79.29a57.945,57.945,0,0,0,1.221,11.82.072.072,0,0,0,.01.049,56.667,56.667,0,0,0,4.917,13.975,57.468,57.468,0,0,0,36.156,29.434A57.119,57.119,0,0,1,45.346,124.012Z"/><path class="cls-11" d="M92.629,23.6a57.136,57.136,0,0,0-9.609-1.451c-.641-.048-1.281-.072-1.922-.1a5.993,5.993,0,0,1,2.949,3.481c.52,2.357,1.281,4.544,1.717,6.9a12.232,12.232,0,0,1-.7,7.3,13.926,13.926,0,0,1-2.5,3.554,9.707,9.707,0,0,0-1.922,2.127c-.532.918-1.04,1.813-1.644,2.683a45.514,45.514,0,0,1-2.864,3.892,12.018,12.018,0,0,0-1.088,1.245,13.435,13.435,0,0,1-1.052,1.716,9.9,9.9,0,0,1-4.036,2.308,41.952,41.952,0,0,0-5.125,2.381c-2.429,1.281-4.424,2.925-7.264,3-.943.024-1.922-.109-2.864-.025a34.651,34.651,0,0,0-3.421.883c-1.015.193-2.03.4-3.045.568-1.668.254-3.046.822-4.654,1.208-2.091.52-4.278.387-6.381.677a13.9,13.9,0,0,1-5.427.025c-2.913-.726-4.472-2.1-3.856-5.2a6.254,6.254,0,0,0-.773-5.136,56.124,56.124,0,0,0-4.581,15.99,15.018,15.018,0,0,0,4.17,1c4.242.435,8.811-1.462,12.691-2.913,1.982-.749,4-1.837,6.139-2.079,2.248-.241,4.231.037,6.479-.519a82.069,82.069,0,0,0,22.3-8.714c2.864-1.693,4.134-4.11,6.128-6.563a45.408,45.408,0,0,1,5.813-5.7,18.949,18.949,0,0,0,5.089-5.947,34.662,34.662,0,0,0,2.985-8.267A11.01,11.01,0,0,0,92.629,23.6Zm-.387,7.784a16.707,16.707,0,0,1-.4,1.933,6.833,6.833,0,0,1-2.852,3.928,1.444,1.444,0,0,1-1.934-.519,3.8,3.8,0,0,1-.278-1.221,11.937,11.937,0,0,1-.23-2.369,53.946,53.946,0,0,0-.23-5.765c.206,1.1-.048-1.632,1.668-2.381a2.616,2.616,0,0,1,2.647.592c.774.786.955,2.115,1.245,3.143A5.719,5.719,0,0,1,92.242,31.384Z"/><path class="cls-12" d="M83.951,122.792c-.17.025-.327.061-.484.073l1.136.109C84.458,122.937,84.216,122.853,83.951,122.792Zm0,0c-.17.025-.327.061-.484.073l1.136.109C84.458,122.937,84.216,122.853,83.951,122.792Zm50.931-57.3c-.024,1.5-.447,2.985-.483,4.5a21.232,21.232,0,0,1-.9,5.5c-.362,1.33-1.039,2.309-1.486,3.59a25.494,25.494,0,0,1-1.982,4.085,30.983,30.983,0,0,0-3.614,8.485c-.58,2.768-.7,5.1-2.079,7.638-1.317,2.442-3.312,4.472-4.726,6.841-.664,1.136-1.124,1.076-2.127,1.789-1.124.8-2.151,2.055-3.239,2.937a25.282,25.282,0,0,1-7.324,4.23,26.034,26.034,0,0,1-5.391,1.5c-1.233.193-2.441,0-3.662.2a38.043,38.043,0,0,0-5.632,1.5c-3.058.991-6.176,1.559-9.222,2.5-2.127.653-4.206,1.039-6.37,1.5-1.317.278-2.38.991-3.746.713s-2.635-.75-3.989-1.173a15.752,15.752,0,0,0-5.016-.568c-2.477,0-5.354.375-7.8-.1-2.756-.532-5.5-1.269-8.255-1.838a19.654,19.654,0,0,1-4.46-1.752,35.537,35.537,0,0,0-4.448-1.33c-1.571-.5-3.082-1.232-4.689-1.631a56.145,56.145,0,0,0,8.291,8.569,56.886,56.886,0,0,0,29.249,12.884c1.462.181,2.949.326,4.448.4h.012c3.239-.737,6.405-1.692,9.669-2.695,5.426-1.692,10.116-4.968,15.543-6.563a35.445,35.445,0,0,0,5.716-2.188c1.391-.689,2.865-.87,4.267-1.474,5.04-2.14,8.835-7.035,11.083-11.833,1.015-2.175,1.994-4.641,3.819-6.273a24.653,24.653,0,0,0,2.3-2.03c.737-.834,1.232-1.874,1.885-2.78,1.148-1.62,2.26-3.251,3.409-4.883a4.441,4.441,0,0,0,.386-.592,57.437,57.437,0,0,0,.556-29.66ZM82.355,123.2a3.921,3.921,0,0,1,.762-.471,1.69,1.69,0,0,1,.834.06,2.292,2.292,0,0,1,1.244.061c.23.108.665.314.762.58s-.036.411-.2.58a1.078,1.078,0,0,1-.689.278,6.633,6.633,0,0,1-1.9.169c-.387-.036-.967-.06-1.209-.423S82.065,123.4,82.355,123.2Zm3.759,7.47a6.289,6.289,0,0,1-1.16,1.244,10.64,10.64,0,0,1-1.39.81,15.708,15.708,0,0,1-3.662,1.692,8.556,8.556,0,0,1-1.584.145c-.652.061-1.293.073-1.946.085-.773.012-1.522.169-2.3.218s-1.535.06-2.308.108a8.648,8.648,0,0,1-3.626-.568,15.281,15.281,0,0,1-3.191-1.559,13.747,13.747,0,0,1-1.873-1.692,5.442,5.442,0,0,1-1.318-1.777,1.322,1.322,0,0,1-.169-.8c.024-.133.085-.242.085-.279a3,3,0,0,1,.64-.41,4.445,4.445,0,0,1,1.3-.314,15.468,15.468,0,0,1,3.252.12,7.43,7.43,0,0,0,1.8-.012,21.065,21.065,0,0,0,2.441-.592,38.12,38.12,0,0,1,5.825-1.148,22.093,22.093,0,0,1,6.056-.1,6.057,6.057,0,0,1,2.308.774,3.667,3.667,0,0,1,1.136,1.365A2.5,2.5,0,0,1,86.114,130.673Zm15.168-4.968a6.259,6.259,0,0,1-1.293.955c-.6.423-1.245.761-1.873,1.124a16.712,16.712,0,0,1-1.6.822c-.544.254-1.1.507-1.643.785a14.242,14.242,0,0,1-1.862.725,2.892,2.892,0,0,1-1.45.291,2.224,2.224,0,0,1-1.136-.544.951.951,0,0,1-.218-1.161,5.2,5.2,0,0,1,.012-1.438,7.893,7.893,0,0,1,.508-.846,9.822,9.822,0,0,1,1.994-2.308,5.846,5.846,0,0,1,2.2-1.438,16.751,16.751,0,0,1,3.191-.557c1.136-.132,3.058-.217,3.565,1.088A2.345,2.345,0,0,1,101.282,125.705ZM84.6,122.974c-.145-.037-.387-.121-.652-.182-.17.025-.327.061-.484.073Z"/><path class="cls-13" d="M130.314,53.26v.229a12.075,12.075,0,0,1-1.281,4.11,30.632,30.632,0,0,1-1.584,3.3,40.155,40.155,0,0,0-2.212,5.536c-1.148,3.082-1.728,6.236-3.529,9.04-1.619,2.5-1.994,5.572-3.312,8.243-1.486,2.985-3.758,5.125-6.2,7.3-1.088.979-1.994,2.152-2.973,3.215-1.039,1.124-1.849,2.575-3.094,3.469-2.7,1.958-5.644,3.65-8.279,5.717-1.584,1.233-2.708,2.876-4.448,3.9s-3.626,1.764-5.354,2.816a33.76,33.76,0,0,1-4.786,2.671c-1.934.773-3.542.544-5.524.641a23.677,23.677,0,0,0-6.538,1.39c-1.717.6-3.155,1.22-4.908.6a27.224,27.224,0,0,0-3.432-1.426c-2.84-.581-6.079,0-8.968-.073a42.416,42.416,0,0,1-6.962-1.027c-2.175-.423-3.952-1.946-6.055-2.563-2.6-.761-5.632-.108-8.146-1.1a18.779,18.779,0,0,1-2.913-1.789l-.58-.363c-.351-.628-.689-1.269-1.028-1.91.617.255,1.233.532,1.862.834,3.287,1.572,7.385,1.33,10.926,1.947,3.988.7,7.977,1.74,12,2.2a22.121,22.121,0,0,0,4.894-.012c2.273-.254,4.629-.217,6.866-.6,3.891-.689,7.686-2.526,11.723-2.007a17.525,17.525,0,0,0,2.345.484c1.124-.037,1.9-1.015,2.8-1.583,1.595-1,3.276-.81,4.677-2.128a18.533,18.533,0,0,1,4.581-2.973c4.375-2.224,7.917-5.838,11.349-9.27a43,43,0,0,0,7.639-9.476c1.934-3.517,1.547-7.7,3-11.349a31.185,31.185,0,0,1,3.638-7.36c.822-1.1,1.825-2.043,2.7-3.094a23.442,23.442,0,0,0,2.211-3.6,43.29,43.29,0,0,0,2.4-4.182,9.613,9.613,0,0,0,.52-4.17c-.024-1.631,0-3.287,0-4.919A56.152,56.152,0,0,1,130.314,53.26Z"/><path class="cls-14" d="M121.225,40.279c-.6-.641-1.209-1.269-1.837-1.873a57.405,57.405,0,0,0-14.975-10.588c-.145-.072-.29-.133-.435-.206-.834-.4-1.668-.773-2.526-1.136-1.149-.483-2.309-.93-3.493-1.329a9.126,9.126,0,0,0,.954.508A4.553,4.553,0,0,1,100.7,26.9a2.982,2.982,0,0,1,.738,1.9,16.129,16.129,0,0,0,.265,2.272c.121.689.46,1.342.605,2.031a8.258,8.258,0,0,0,.266,1.184,29.449,29.449,0,0,1,.822,2.889c.362,1.765-.581,3.227-1.209,4.834-.991,2.551-1.62,5.137-2.357,7.772a12.56,12.56,0,0,1-3.287,5.632c-1.536,1.487-3.808,1.825-5.185,3.433a13.653,13.653,0,0,1-4.4,3.553,44.029,44.029,0,0,1-6.14,2.308c-1.5.448-3.07.484-4.58.883a36.014,36.014,0,0,0-5.355,2.175c-1.873.81-3.626,1.849-5.511,2.659s-3.662,1.886-5.548,2.659c-.918.375-1.885.556-2.816.882-1.934.677-3.807,1.91-5.862,2.152a18.65,18.65,0,0,1-2.139.254,4.649,4.649,0,0,0-1.62.278c-1.788.7-2.888,2.719-4.943,2.731a48.537,48.537,0,0,0-5.62.145,25.443,25.443,0,0,1-2.719.061,2.416,2.416,0,0,1-.883-.049,9.918,9.918,0,0,1-.943-.58,16.482,16.482,0,0,1-1.933-1.317c-1.184-.919-2.756-.411-4.122-.689a5.141,5.141,0,0,1-1.378-.242,24.121,24.121,0,0,1-2.6-2.127c-.145,1.547-.2,3.13-.2,4.714a56.329,56.329,0,0,0,.58,8.122c.169,1.244.386,2.477.64,3.7a.072.072,0,0,0,.012.048,51.443,51.443,0,0,0,1.342,5.125,54.841,54.841,0,0,0,2.562,6.768h.012a15.587,15.587,0,0,0,4.738.23,36.976,36.976,0,0,1,6.732-.592,51.16,51.16,0,0,1,6.188,1.172c2.333.387,4.762.7,7.131.858,2.164.133,4.315.315,6.467.556,1.619.194,3.239.508,4.858.617,4.206.29,8.316-.81,12.449-1.245a59.708,59.708,0,0,0,6.152-1.172,10.994,10.994,0,0,0,3.553-1.27c1.451-.906,2.369-2.3,3.663-3.4,1.426-1.221,2.912-2.405,4.4-3.541,1.269-.967,2.466-2.019,3.8-2.877,1.015-.665,2.031-1.293,2.985-2.042a35.94,35.94,0,0,0,4.907-4.968c2.164-2.514,3.058-6.007,3.928-9.125.786-2.864,1.33-5.729,2.9-8.3a15.08,15.08,0,0,0,1.716-4.134,14.4,14.4,0,0,1,.726-2.744c.652-1.377,1.934-2.368,2.719-3.674a20.253,20.253,0,0,0,1.741-3.118,32.912,32.912,0,0,0,1.849-6.793,31.669,31.669,0,0,1,1.378-5.04c.084-.277.169-.555.241-.846C122.022,41.161,121.624,40.714,121.225,40.279ZM46.713,79.4A10.022,10.022,0,0,1,49.3,78.17a.2.2,0,0,1-.072.036l-1.4.6c1.547-.519,4.339,1.052,2.985,2.828a3.588,3.588,0,0,1-2.055.871,1.247,1.247,0,0,1-1.377-.629,4.994,4.994,0,0,1-.629-1.8A1.29,1.29,0,0,1,46.713,79.4ZM29.659,94.825a6.251,6.251,0,0,1-3.807-2.478,6.836,6.836,0,0,1-1.427-2.925,6.694,6.694,0,0,1-.29-2.659,10.506,10.506,0,0,1,.8-2.2c.375-.761.931-1.547.979-1.8,1.668-.145,3.227-.2,4.895-.217,1.861-.012,3.723.229,5.6.242a11.066,11.066,0,0,0,2.526-.133c.81-.157,1.595-.375,2.417-.508a6.051,6.051,0,0,1,4.1.3A5.268,5.268,0,0,1,47.4,85.131a3.534,3.534,0,0,1,.423,1.644,16.919,16.919,0,0,1-.134,2.345c-.036.29-.072.592-.12.882-1.172,2.563-4.4,3.408-6.8,4.3A18.549,18.549,0,0,1,29.659,94.825ZM55.4,100.312c-.75,1.885-3.9,2.562-5.717,2.635a5.215,5.215,0,0,1-2.756-.617,3.7,3.7,0,0,1-1.148-1.22,1.308,1.308,0,0,0-1.595-.689,12.823,12.823,0,0,1,.954-2.986c.411-.459.846-.894,1.294-1.305a13.186,13.186,0,0,1,2.8-1.946c1.583-.8,3.239-.2,4.762.5a3.223,3.223,0,0,1,2.042,2.3A5.358,5.358,0,0,1,55.4,100.312Zm21.2-.363c-.58,1.39-1.39,1.7-2.671,2.357a11.779,11.779,0,0,1-5.016,1.342,6.563,6.563,0,0,1-2.465-.714,4.413,4.413,0,0,1-1.5-.725c-1.136-1.039-1.317-2.562-.616-2.248a9.022,9.022,0,0,1-.822-2.888,1.088,1.088,0,0,0,.374-.617,7.288,7.288,0,0,1,2.841-2.707,7.634,7.634,0,0,1,6.623-.387,6.269,6.269,0,0,1,2.224,1.571A7.26,7.26,0,0,1,76.614,96,5.04,5.04,0,0,1,76.6,99.949Zm6.515-.217c-.327.265-.955.785-1.378.7-.351-.073-1.016-.786-.907-1.161l-.229-.229c.507-.786,1.015-1.583,1.511-2.393.773.338,1.462.29,1.933,1.135C84.482,98.571,83.7,99.26,83.117,99.732ZM99.324,61.72A6.243,6.243,0,0,1,96.847,63.8c-1.245.52-2.913.906-2.974-.967a5.488,5.488,0,0,1,.629-2.913,4.922,4.922,0,0,1,2.768-2.514,7.389,7.389,0,0,1,1.426.315,2.352,2.352,0,0,1,1.62,1.764A3.185,3.185,0,0,1,99.324,61.72Zm15.12-8.146a47.178,47.178,0,0,1-2.248,5.5c-1.015,2.2-1.136,4.46-1.643,6.781-.29,1.305-.907,2.743-2.188,3.251a4.508,4.508,0,0,1-1.716.169c-.556,0-1.584.206-1.547.689a25.9,25.9,0,0,1-1.1-3.154c-.23-1.137-.327-2.357-.508-3.493-.193-1.2-.278-2.394-.4-3.6-.1-1.124-.326-2.309-.314-3.445.049-3.747,2.115-8.412,5.632-10.14a5.385,5.385,0,0,1,3.324-.568,3.055,3.055,0,0,1,2.78,1.9C115.351,49.271,115.024,51.713,114.444,53.574Z"/><path class="cls-15" d="M97.777,57.139c-.181.1-.35.182-.507.266a3.645,3.645,0,0,0-.87-.036Z"/><path class="cls-16" d="M25.912,82.762c-.085.012-.181.012-.278.025C25.864,82.642,25.948,82.642,25.912,82.762Z"/><path class="cls-17" d="M90.279,23.088l10.052-3.96s15.992,6.215,26.069,19.821l.628,8.691A120.985,120.985,0,0,1,90.279,23.088Z"/><path class="cls-18" d="M126.81,111.506s-8.423,9.138-14.79,11.177l-5.226,1.595s-23.842-8.578-25.149-23.5C80.547,88.239,101.99,69,107.791,66.707s12.6-.992,12.6-.992Z"/><path class="cls-19" d="M120.388,65.715c-5.029-1.6-26.762,8.414-32.6,30.869-1.184,4.556,9.839,21.866,23.008,26.1,4.37,1.4,24.408-16.1,25.245-27.962S127.857,68.086,120.388,65.715Z"/><path class="cls-20" d="M89.192,99.211c3.1-25.43,26.225-33.71,31.254-32.113,3.632,1.153,8.973,6.487,12.028,11.745-3.154-6.493-7.868-11.789-12.086-13.128-5.029-1.6-26.762,8.413-32.6,30.869-.412,1.583.654,4.708,2.768,8.287A11.327,11.327,0,0,1,89.192,99.211Z"/><path class="cls-21" d="M46.676,126.457s5.183,1.9,8.961.869c0,0,1.451-12.258-3.167-20.1s-12.446,4.007-12.446,4.007l-1.791,7.5S42.589,123.978,46.676,126.457Z"/><path class="cls-22" d="M51.17,124.477l3.322-.889a27.768,27.768,0,0,0-1.18-14.45c-3.159-8.7-14.735-15.2-16.453-15.336s-3.412,3.77-3.412,3.77Z"/><path class="cls-23" d="M103.486,131.2l-5.518,7.179s-9.583,4.637-19.2,2.389l-6.976-4.7Z"/><path class="cls-24" d="M30.962,102.951c.577-2.638,2.9-7.022,4.985-7.45s11.928,8.919,14.206,14.933,1.129,12.684,1.017,14.043-11.282-2.43-16.918-7.061S30.962,102.951,30.962,102.951Z"/><path class="cls-25" d="M50.153,110.434C47.875,104.42,38.031,95.074,35.947,95.5a4.669,4.669,0,0,0-2.4,1.934,3.145,3.145,0,0,1,1.407-.821c2.083-.428,12.111,7.011,14.349,13.04,2.748,7.405,1.237,12.75.967,15.084.542.035.882-.037.9-.261C51.282,123.117,52.431,116.448,50.153,110.434Z"/><path class="cls-26" d="M81.246,84.894c-2.473-1.157.332-12.006,2.766-14.366s8.763,3.156,9.6,7.666S86.911,87.543,81.246,84.894Z"/><path class="cls-27" d="M83.721,84.067c-1.981-.96.265-9.961,2.215-11.919s7.019,2.618,7.69,6.36S88.258,86.264,83.721,84.067Z"/><path class="cls-28" d="M100.331,19.128s.5,6.1,7.367,13.581,18.7,6.24,18.7,6.24l.628,8.691s-25.16-11.121-36.749-24.552Z"/><path class="cls-29" d="M120.061,73.2c-.285.237-.908.683-.414,1.028.133.094.25.044.392.085.11.032.137.118.265.069.4-.153.241-1.292-.212-1.063Z"/><path class="cls-29" d="M143.79,62.984c-.285.237-.908.683-.414,1.028.133.093.25.045.391.085.111.032.138.118.266.069.4-.153.241-1.292-.212-1.063Z"/><path class="cls-29" d="M133.369,105.126c-.285.237-.908.683-.414,1.028.133.093.25.044.391.085.111.032.138.118.266.069.4-.153.241-1.293-.212-1.064Z"/><path class="cls-29" d="M122.136,77.347a1.186,1.186,0,0,1,.562-.159c.044.247.27.73-.082.923-.3.161-.207-.368-.347-.49Z"/><path class="cls-29" d="M84.468,79.886q.566.224,1.123.469c.12-.106.3-.086.442-.18a1.222,1.222,0,0,0,.416-.586.966.966,0,0,0-.2-.825,1.775,1.775,0,0,0-.342-.514.789.789,0,0,0-.7.008,2.046,2.046,0,0,0-.852,1.3.9.9,0,0,0,.393.673Z"/><path class="cls-29" d="M31.086,108.429q.567.222,1.123.469c.12-.106.3-.086.443-.18a1.219,1.219,0,0,0,.415-.586.965.965,0,0,0-.2-.826,1.807,1.807,0,0,0-.341-.514.793.793,0,0,0-.7.008,2.051,2.051,0,0,0-.853,1.3.9.9,0,0,0,.393.673Z"/><path class="cls-29" d="M135.148,123.322q.567.224,1.123.469c.12-.106.3-.086.443-.179a1.225,1.225,0,0,0,.416-.587.966.966,0,0,0-.2-.825,1.8,1.8,0,0,0-.342-.514.789.789,0,0,0-.7.008,2.052,2.052,0,0,0-.853,1.3.9.9,0,0,0,.393.673Z"/><path class="cls-29" d="M127.664,112.985q.567.224,1.124.469c.12-.106.3-.086.442-.18a1.22,1.22,0,0,0,.416-.585.967.967,0,0,0-.2-.826,1.8,1.8,0,0,0-.342-.514.789.789,0,0,0-.7.008,2.046,2.046,0,0,0-.852,1.3.9.9,0,0,0,.393.673Z"/><path class="cls-29" d="M23.8,40.846q1.434.566,2.844,1.187c.3-.268.763-.217,1.122-.455A3.108,3.108,0,0,0,28.817,40.1,2.447,2.447,0,0,0,28.3,38a4.5,4.5,0,0,0-.866-1.3,2,2,0,0,0-1.767.02,5.182,5.182,0,0,0-2.159,3.3,2.283,2.283,0,0,0,1,1.7Z"/><path class="cls-29" d="M86.9,6.117q1.434.565,2.844,1.188c.3-.268.763-.217,1.121-.455a3.1,3.1,0,0,0,1.052-1.484A2.442,2.442,0,0,0,91.4,3.275a4.524,4.524,0,0,0-.865-1.3,2,2,0,0,0-1.767.021A4.075,4.075,0,0,0,87.4,3.373,4.053,4.053,0,0,0,86.61,5.3a2.278,2.278,0,0,0,1,1.7Z"/><path class="cls-29" d="M95.287,89.379a1.383,1.383,0,0,0-.4.425c.155.194.231.377.5.453a.293.293,0,0,0,.3-.049c.111-.108.051-.227.081-.333.072-.257.143-.324,0-.558-.087-.142-.148-.2-.3-.2-.108,0-.342.029-.4.15Z"/><path class="cls-29" d="M96.145,95.367c-.028.066-.319.8.059.591a.3.3,0,0,0-.006-.481l.019-.073Z"/><path class="cls-29" d="M115.048,106.27a2.122,2.122,0,0,0-.4.807.728.728,0,0,0,.459.151c.221-.01.232-.082.238-.292a1.643,1.643,0,0,0,.035-.47c-.043-.169-.211-.34-.405-.233Z"/><path class="cls-29" d="M99.111,90.1a.869.869,0,0,1,.272.493c-.2.051-.224-.147-.254-.3-.048-.25.069-.173.185-.373l.067.014Z"/><path class="cls-29" d="M117.235,73.915a1.381,1.381,0,0,0-.393.423c.095.118.049.332.271.316.156-.012.285-.179.36-.308a.861.861,0,0,0,.106-.434c.006-.083.005-.436-.146-.2Z"/><path class="cls-29" d="M114.784,31.748a2.7,2.7,0,0,1,.607-.145c.053,0,.124.039.183.044.194.018.2-.026.3.131a.673.673,0,0,1,.124.514c-.112.711-1.118-.36-.768-.621Z"/><path class="cls-29" d="M37.888,33.017c-.318.1-.8.133-.843.5-.033.316.489.645.752.731.47.153,1.237.228,1.469-.3a1.52,1.52,0,0,0-.158-1.188c-.393-.562-1.2-.333-1.809-.094Z"/><path class="cls-29" d="M119.461,107.053c-.143-1.1-.342-2.179.633-2.755a2.089,2.089,0,0,1,2-.051,4.121,4.121,0,0,1,.906,1.145c.334.555.246.556.072,1.063-.4,1.163-.675,1.929-1.832,1.932-1.528,0-1.763-1.186-1.783-2.663Z"/><path class="cls-29" d="M120.14,76.235a2.3,2.3,0,0,0,1.1-.666c-.306-.19-.976-.584-1.1-.009Z"/><path class="cls-29" d="M33.516,104.136a2.3,2.3,0,0,0,1.1-.667c-.306-.19-.976-.584-1.1-.009Z"/><path class="cls-29" d="M33.516,113.338a2.3,2.3,0,0,0,1.1-.667c-.306-.189-.976-.584-1.1-.008Z"/><path class="cls-29" d="M98.283,80.406c.424-.521,1.036-1.471,1.8-.95a.946.946,0,0,1,.147,1.423,3.222,3.222,0,0,1-1.206.5.571.571,0,0,1-.746-.637Z"/><path class="cls-29" d="M112.653,104.1c.424-.521,1.036-1.472,1.8-.951a.948.948,0,0,1,.147,1.424,3.224,3.224,0,0,1-1.2.5.572.572,0,0,1-.747-.638Z"/><path class="cls-29" d="M110.489,25.58c.663.112,1.791.175,1.717,1.1-.043.538-.677,1.044-1.165.83a3.23,3.23,0,0,1-1.032-.8.571.571,0,0,1,.186-.963Z"/><path class="cls-29" d="M108.136,110.239c.424-.521,1.036-1.471,1.805-.95a.946.946,0,0,1,.146,1.423,3.194,3.194,0,0,1-1.2.5.57.57,0,0,1-.746-.637Z"/><path class="cls-29" d="M88.548,79.619c-.543.345-1.455.772-1.548,1.516a.818.818,0,0,0,.557.909,1.5,1.5,0,0,0,1.211.005,2.731,2.731,0,0,0,1.3-1.193,1.09,1.09,0,0,0-.045-1.022,1.034,1.034,0,0,0-.506-.522c-.693-.241-1.11.44-1.623.747Z"/><path class="cls-29" d="M90.305,77.642a1.813,1.813,0,0,1,.75.5c-.3.1-.612.333-.914.225a.677.677,0,0,1-.376-.885c.048-.2.416-.564.625-.474.107.046.127.19.162.282.073.2.077.154-.027.357Z"/><path class="cls-29" d="M105.28,74.375a13.01,13.01,0,0,0-3.545,4.56c-.388.917.3.962,1.133.8,1.612-.315,3.235-.761,4.828-1.169a6,6,0,0,0,2.952-1.541,3.458,3.458,0,0,0,.6-2.446c-.155-1.081-.923-1.5-1.9-1.773-2.242-.62-5.425,1.8-6.257,3.865Z"/><path class="cls-29" d="M97.286,82.537a2.908,2.908,0,0,1,1.3.337c-.116.138-.078.325-.139.486a1.41,1.41,0,0,1-.531.616,1.7,1.7,0,0,1-1.346.158c-1.2-.455.641-1.882,1.047-1.378Z"/><path class="cls-29" d="M30.185,128.447a1.354,1.354,0,0,0-.394.424c.154.194.23.377.494.453a.293.293,0,0,0,.3-.05c.11-.107.05-.226.08-.332.072-.257.143-.324,0-.559-.088-.14-.149-.2-.3-.2-.108,0-.342.03-.4.151Z"/><path class="cls-29" d="M31.043,134.434c-.028.065-.319.8.059.591a.3.3,0,0,0-.006-.481l.019-.073Z"/><path class="cls-29" d="M34.009,129.169a.874.874,0,0,1,.273.493c-.2.05-.225-.147-.255-.3-.048-.25.069-.173.186-.373l.066.014Z"/><path class="cls-29" d="M32.184,121.6a2.883,2.883,0,0,1,1.3.338c-.116.137-.078.323-.139.484a1.4,1.4,0,0,1-.531.617,1.691,1.691,0,0,1-1.346.158c-1.2-.455.642-1.882,1.047-1.378Z"/><path class="cls-29" d="M108.135,26.644a5.188,5.188,0,0,1,1.157.881,9.514,9.514,0,0,1,.986,1.33c.14.249.477.792-.02.861-.538.074-1.492-.635-1.882-.911a6.931,6.931,0,0,1-1.8-1.585c-.245-.343-.618-.939-.37-1.352a.875.875,0,0,1,.888-.4,1.385,1.385,0,0,1,.94.378c.145.117.843.826.606,1.018Z"/><path class="cls-29" d="M113.342,72.307c-.2.143-1.716.985-.993,1.35a2.259,2.259,0,0,0,1.546-.029c.351-.149.707-.38.486-.783-.445-.815-1.561-.345-2.137.011Z"/><path class="cls-29" d="M124.265,22.634c-.5.359-4.307,2.473-2.493,3.388a5.675,5.675,0,0,0,3.881-.071c.881-.374,1.772-.953,1.219-1.965-1.117-2.046-3.918-.866-5.364.026Z"/><path class="cls-29" d="M34.064,109.126a3.668,3.668,0,0,0,1.117,2.452,2.139,2.139,0,0,0,2.5-.1c.584-.344,1.135-.712,1.706-1.063.333-.2.624-.256.639-.732a3.143,3.143,0,0,0-.748-1.584,4.245,4.245,0,0,0-1.606-1.22c-1.2-.446-3.476,0-3.448,1.623Z"/><path class="cls-29" d="M114.071,110.875a2.571,2.571,0,0,0,.784,1.721,1.5,1.5,0,0,0,1.753-.072c.409-.242.8-.5,1.2-.746.234-.144.438-.18.449-.514a2.212,2.212,0,0,0-.525-1.111,2.984,2.984,0,0,0-1.127-.857c-.84-.313-2.44,0-2.421,1.14Z"/><circle class="cls-30" cx="121.286" cy="105.724" r="10.839" transform="translate(-27.775 45.154) rotate(-18.964)"/><path class="cls-31" d="M116.842,76.257a10.064,10.064,0,1,1-10.064-10.063A10.064,10.064,0,0,1,116.842,76.257Z"/><path class="cls-32" d="M113.21,31.561c-1.274,1.753-4.467,1.6-7.133-.331s-3.794-4.928-2.52-6.681,4.467-1.605,7.132.331S114.483,29.807,113.21,31.561Z"/><path class="cls-33" d="M47.883,108.9A10.839,10.839,0,1,1,37.044,98.059,10.839,10.839,0,0,1,47.883,108.9Z"/><path class="cls-34" d="M100.5,20.123s2.628,11.164,10.02,15.372c9.353,5.325,15.88,3.454,15.88,3.454a33.757,33.757,0,0,1-16.088-5.565C103.858,28.983,100.5,20.123,100.5,20.123Z"/><path class="cls-35" d="M82.952,106.2l4.964-7.3s6.365,18.107,22.883,23.78l-3.619,2.333S90.343,120.225,82.952,106.2Z"/><path class="cls-36" d="M92.352,25.6s23.815,23.972,40.954,34.626a38.87,38.87,0,0,0-6.278-12.583S112.64,42.91,92.352,25.6Z"/><path class="cls-37" d="M75.935,37.629c4.678,7.111-.521,18.79-11.612,26.086s-23.873,7.446-28.551.335.521-18.789,11.612-26.085S71.257,30.519,75.935,37.629Z"/></g></g></g></g></svg>