<svg xmlns="http://www.w3.org/2000/svg" xmlns:xlink="http://www.w3.org/1999/xlink" viewBox="0 0 158.522 154.015"><defs><style>.cls-1{isolation:isolate;}.cls-2,.cls-20,.cls-24,.cls-25,.cls-26,.cls-27,.cls-28,.cls-29,.cls-3,.cls-32,.cls-4{mix-blend-mode:screen;}.cls-2{fill:url(#radial-gradient);}.cls-3{fill:url(#radial-gradient-2);}.cls-4{fill:url(#radial-gradient-3);}.cls-10,.cls-11,.cls-12,.cls-13,.cls-14,.cls-15,.cls-16,.cls-17,.cls-18,.cls-19,.cls-21,.cls-23,.cls-24,.cls-25,.cls-26,.cls-27,.cls-28,.cls-29,.cls-30,.cls-31,.cls-32,.cls-5,.cls-6,.cls-7,.cls-8,.cls-9{fill-rule:evenodd;}.cls-5{fill:url(#Áåçûìÿííûé_ãðàäèåíò_140);}.cls-6{fill:url(#Áåçûìÿííûé_ãðàäèåíò_601);}.cls-7{fill:url(#Áåçûìÿííûé_ãðàäèåíò_120);}.cls-13,.cls-14,.cls-15,.cls-16,.cls-17,.cls-8{opacity:0.71;}.cls-13,.cls-14,.cls-15,.cls-16,.cls-17,.cls-22,.cls-8{mix-blend-mode:multiply;}.cls-8{fill:url(#Áåçûìÿííûé_ãðàäèåíò_151);}.cls-9{fill:url(#Áåçûìÿííûé_ãðàäèåíò_126);}.cls-10{fill:url(#Áåçûìÿííûé_ãðàäèåíò_126-2);}.cls-11{fill:url(#Áåçûìÿííûé_ãðàäèåíò_135);}.cls-12{fill:url(#Áåçûìÿííûé_ãðàäèåíò_135-2);}.cls-13{fill:url(#Áåçûìÿííûé_ãðàäèåíò_151-2);}.cls-14{fill:url(#Áåçûìÿííûé_ãðàäèåíò_151-3);}.cls-15{fill:url(#Áåçûìÿííûé_ãðàäèåíò_151-4);}.cls-16{fill:url(#Áåçûìÿííûé_ãðàäèåíò_147);}.cls-17{fill:url(#Áåçûìÿííûé_ãðàäèåíò_151-5);}.cls-18{fill:url(#Áåçûìÿííûé_ãðàäèåíò_126-3);}.cls-19{fill:url(#Áåçûìÿííûé_ãðàäèåíò_173);}.cls-20{fill:url(#Áåçûìÿííûé_ãðàäèåíò_76);}.cls-21{fill:url(#Áåçûìÿííûé_ãðàäèåíò_124);}.cls-23{fill:#d1deff;}.cls-24{fill:url(#linear-gradient);}.cls-25{fill:url(#linear-gradient-2);}.cls-26{fill:url(#linear-gradient-3);}.cls-27{fill:url(#linear-gradient-4);}.cls-28{fill:url(#linear-gradient-5);}.cls-29{opacity:0.5;fill:url(#linear-gradient-6);}.cls-30{fill:#ffc445;}.cls-31{fill:#f80;}.cls-32{fill:url(#Áåçûìÿííûé_ãðàäèåíò_600);}</style><radialGradient id="radial-gradient" cx="71.395" cy="71.887" r="74.375" gradientTransform="matrix(0.689, 0.689, -0.689, 0.689, 72.81, -26.251)" gradientUnits="userSpaceOnUse"><stop offset="0.006" stop-color="#009bff"/><stop offset="1" stop-opacity="0"/></radialGradient><radialGradient id="radial-gradient-2" cx="65.052" cy="70.738" r="62.254" gradientTransform="translate(119.273 -5.86) rotate(77.06) scale(0.974)" xlink:href="#radial-gradient"/><radialGradient id="radial-gradient-3" cx="71.395" cy="71.887" r="63.357" gradientTransform="matrix(0.689, 0.689, -0.689, 0.689, 72.81, -26.251)" gradientUnits="userSpaceOnUse"><stop offset="0.006" stop-color="#0092ff"/><stop offset="0.131" stop-color="#0090fb" stop-opacity="0.984"/><stop offset="0.256" stop-color="#0089ef" stop-opacity="0.937"/><stop offset="0.38" stop-color="#007ddb" stop-opacity="0.859"/><stop offset="0.505" stop-color="#006dbf" stop-opacity="0.748"/><stop offset="0.63" stop-color="#00599b" stop-opacity="0.606"/><stop offset="0.756" stop-color="#003f6e" stop-opacity="0.432"/><stop offset="0.878" stop-color="#00223b" stop-opacity="0.23"/><stop offset="1" stop-opacity="0"/></radialGradient><radialGradient id="Áåçûìÿííûé_ãðàäèåíò_140" cx="42.057" cy="49.106" r="100.258" gradientTransform="translate(2.903 2.424) scale(0.974)" gradientUnits="userSpaceOnUse"><stop offset="0" stop-color="#4f8cff"/><stop offset="0.147" stop-color="#4a85f8"/><stop offset="0.361" stop-color="#3e72e6"/><stop offset="0.614" stop-color="#2952c8"/><stop offset="0.896" stop-color="#0c279f"/><stop offset="1" stop-color="#00158e"/></radialGradient><radialGradient id="Áåçûìÿííûé_ãðàäèåíò_601" cx="45.337" cy="52.616" r="90.717" gradientTransform="translate(2.903 2.424) scale(0.974)" gradientUnits="userSpaceOnUse"><stop offset="0.006" stop-color="#ff7263"/><stop offset="0.209" stop-color="#fc6f63"/><stop offset="0.367" stop-color="#f46562"/><stop offset="0.51" stop-color="#e55560"/><stop offset="0.644" stop-color="#d03d5d"/><stop offset="0.77" stop-color="#b6205a"/><stop offset="0.877" stop-color="#9a0057"/><stop offset="0.986" stop-color="#9a00ae"/></radialGradient><radialGradient id="Áåçûìÿííûé_ãðàäèåíò_120" cx="100.895" cy="58.099" r="34.073" gradientTransform="translate(2.903 2.424) scale(0.974)" gradientUnits="userSpaceOnUse"><stop offset="0" stop-color="#0088e8"/><stop offset="0.193" stop-color="#1696ee"/><stop offset="0.525" stop-color="#35aaf7"/><stop offset="0.806" stop-color="#48b7fd"/><stop offset="1" stop-color="#4fbbff"/></radialGradient><linearGradient id="Áåçûìÿííûé_ãðàäèåíò_151" x1="30.459" y1="55.522" x2="52.042" y2="55.522" gradientUnits="userSpaceOnUse"><stop offset="0.006" stop-color="#a131a4"/><stop offset="1" stop-color="#ffc0b3"/></linearGradient><linearGradient id="Áåçûìÿííûé_ãðàäèåíò_126" x1="74.796" y1="132.72" x2="74.796" y2="116.304" gradientUnits="userSpaceOnUse"><stop offset="0" stop-color="#4fbbff"/><stop offset="0.194" stop-color="#48b7fd"/><stop offset="0.475" stop-color="#35aaf7"/><stop offset="0.807" stop-color="#1696ee"/><stop offset="1" stop-color="#0088e8"/></linearGradient><linearGradient id="Áåçûìÿííûé_ãðàäèåíò_126-2" x1="34.84" y1="74.726" x2="34.84" y2="42.971" xlink:href="#Áåçûìÿííûé_ãðàäèåíò_126"/><linearGradient id="Áåçûìÿííûé_ãðàäèåíò_135" x1="77.967" y1="94.697" x2="93.16" y2="94.697" gradientUnits="userSpaceOnUse"><stop offset="0" stop-color="#0088e8"/><stop offset="0.032" stop-color="#0b8ee9"/><stop offset="0.238" stop-color="#4fb0f0"/><stop offset="0.434" stop-color="#87ccf5"/><stop offset="0.613" stop-color="#b3e2f9"/><stop offset="0.773" stop-color="#d3f2fc"/><stop offset="0.907" stop-color="#e6fcfe"/><stop offset="1" stop-color="#edffff"/></linearGradient><linearGradient id="Áåçûìÿííûé_ãðàäèåíò_135-2" x1="128.327" y1="490.878" x2="139.734" y2="490.878" gradientTransform="matrix(-0.693, 0.376, -0.477, -0.879, 369.081, 488.076)" xlink:href="#Áåçûìÿííûé_ãðàäèåíò_135"/><linearGradient id="Áåçûìÿííûé_ãðàäèåíò_151-2" x1="88.876" y1="63.421" x2="125.786" y2="63.421" xlink:href="#Áåçûìÿííûé_ãðàäèåíò_151"/><linearGradient id="Áåçûìÿííûé_ãðàäèåíò_151-3" x1="81.117" y1="34.496" x2="102.928" y2="34.496" xlink:href="#Áåçûìÿííûé_ãðàäèåíò_151"/><linearGradient id="Áåçûìÿííûé_ãðàäèåíò_151-4" x1="27.547" y1="81.969" x2="40.169" y2="81.969" xlink:href="#Áåçûìÿííûé_ãðàäèåíò_151"/><linearGradient id="Áåçûìÿííûé_ãðàäèåíò_147" x1="75.356" y1="92.138" x2="92.36" y2="92.138" gradientUnits="userSpaceOnUse"><stop offset="0.006" stop-color="#a131a4"/><stop offset="1" stop-color="#fff"/></linearGradient><linearGradient id="Áåçûìÿííûé_ãðàäèåíò_151-5" x1="47.39" y1="115.198" x2="100.898" y2="115.198" xlink:href="#Áåçûìÿííûé_ãðàäèåíò_151"/><linearGradient id="Áåçûìÿííûé_ãðàäèåíò_126-3" x1="27.94" y1="97.095" x2="27.94" y2="76.155" xlink:href="#Áåçûìÿííûé_ãðàäèåíò_126"/><radialGradient id="Áåçûìÿííûé_ãðàäèåíò_173" cx="-146.803" cy="-403.436" r="289.7" gradientTransform="translate(95.801 185.397) scale(0.362 0.335)" gradientUnits="userSpaceOnUse"><stop offset="0.006" stop-color="#b1ffff"/><stop offset="0.293" stop-color="#b1fdff"/><stop offset="0.436" stop-color="#aff5ff"/><stop offset="0.547" stop-color="#ace8ff"/><stop offset="0.617" stop-color="#a9dbff"/><stop offset="0.651" stop-color="#a2d7fe"/><stop offset="0.699" stop-color="#8fcafc"/><stop offset="0.757" stop-color="#6fb5f9"/><stop offset="0.822" stop-color="#4399f4"/><stop offset="0.891" stop-color="#0c75ee"/><stop offset="0.905" stop-color="#006ded"/></radialGradient><radialGradient id="Áåçûìÿííûé_ãðàäèåíò_76" cx="76.487" cy="57.143" r="17.642" gradientTransform="matrix(1.624, 0, 0, 1.368, -64.639, -20.856)" gradientUnits="userSpaceOnUse"><stop offset="0" stop-color="#f70"/><stop offset="0.173" stop-color="#c55c00"/><stop offset="0.399" stop-color="#803c00"/><stop offset="0.602" stop-color="#492200"/><stop offset="0.777" stop-color="#210f00"/><stop offset="0.915" stop-color="#090400"/><stop offset="1"/></radialGradient><radialGradient id="Áåçûìÿííûé_ãðàäèåíò_124" cx="92.871" cy="26.727" r="33.483" gradientTransform="translate(2.903 2.424) scale(0.974)" gradientUnits="userSpaceOnUse"><stop offset="0" stop-color="#0088e8"/><stop offset="0.138" stop-color="#1c93ed"/><stop offset="0.405" stop-color="#4ba6f4"/><stop offset="0.64" stop-color="#6eb4fa"/><stop offset="0.832" stop-color="#83bcfe"/><stop offset="0.959" stop-color="#8bbfff"/></radialGradient><linearGradient id="linear-gradient" x1="100.68" y1="78.857" x2="149.834" y2="37.612" gradientUnits="userSpaceOnUse"><stop offset="0" stop-color="#ff3d00"/><stop offset="1" stop-opacity="0"/></linearGradient><linearGradient id="linear-gradient-2" x1="76.119" y1="154.015" x2="76.119" y2="114.807" gradientUnits="userSpaceOnUse"><stop offset="0" stop-opacity="0"/><stop offset="1" stop-color="#ff3d00"/></linearGradient><linearGradient id="linear-gradient-3" x1="20.959" y1="61.27" x2="47.713" y2="58.929" xlink:href="#linear-gradient-2"/><linearGradient id="linear-gradient-4" x1="1.859" y1="89.408" x2="37.585" y2="86.282" xlink:href="#linear-gradient-2"/><linearGradient id="linear-gradient-5" x1="99.937" y1="42.096" x2="117.641" y2="24.392" xlink:href="#linear-gradient"/><linearGradient id="linear-gradient-6" x1="134.155" y1="130.143" x2="116.759" y2="105.298" xlink:href="#linear-gradient-2"/><radialGradient id="Áåçûìÿííûé_ãðàäèåíò_600" cx="34.154" cy="37.371" r="75.869" gradientTransform="translate(2.903 2.424) scale(0.974)" gradientUnits="userSpaceOnUse"><stop offset="0" stop-color="#ffffd9"/><stop offset="1"/></radialGradient></defs><title>planet-11</title><g class="cls-1"><g id="Layer_2" data-name="Layer 2"><g id="planets"><g id="planet-11"><circle class="cls-2" cx="72.471" cy="72.471" r="72.471" transform="translate(-30.018 72.471) rotate(-45)"/><circle class="cls-3" cx="66.29" cy="71.352" r="60.66" transform="translate(-18.094 119.981) rotate(-77.06)"/><circle class="cls-4" cx="72.471" cy="72.471" r="61.735" transform="translate(-30.018 72.471) rotate(-45)"/><path class="cls-5" d="M126.971,47.392S109.188,27.849,85.505,20.356c0,0-42.47,7.391-52.546,24.461s-15.8,47.373,0,65.983,33.463,24.593,55.265,20.934,27.4-11.511,27.4-11.511,1.18-10.268,10.493-12.109C126.116,108.114,139.049,70.719,126.971,47.392Z"/><path class="cls-6" d="M128.063,77.092a49.943,49.943,0,0,1-50.021,50c-.879,0-1.78-.011-2.659-.067h-.011c-1.307-.068-2.6-.192-3.887-.35a50.378,50.378,0,0,1-37.166-25.292c-.3-.552-.6-1.115-.9-1.667a.1.1,0,0,0-.011-.056c-.315-.6-.6-1.206-.867-1.814h-.012a47.306,47.306,0,0,1-2.241-5.915,44.712,44.712,0,0,1-1.172-4.472.069.069,0,0,1-.011-.045c-.215-1.071-.406-2.141-.553-3.234a49.274,49.274,0,0,1-.506-7.086c0-1.386.045-2.771.169-4.123.067-.868.169-1.713.281-2.569a49.006,49.006,0,0,1,4-13.97A50.069,50.069,0,0,1,78.042,27.071c.529,0,1.059.012,1.577.023.563.022,1.115.045,1.679.079s1.126.079,1.678.146a48.73,48.73,0,0,1,6.715,1.127c1.577.383,3.132.822,4.653,1.352,1.036.349,2.05.732,3.053,1.16.743.316,1.475.642,2.208.992.124.056.248.112.383.18,1,.484,1.983,1.014,2.94,1.566a49.978,49.978,0,0,1,10.14,7.683c.54.53,1.07,1.07,1.6,1.634.349.383.7.766,1.037,1.16.574.654,1.138,1.341,1.69,2.028a49.91,49.91,0,0,1,10.669,30.891Z"/><path class="cls-7" d="M122.928,61.2c-5-8.129-20.211-10-25.1-5.4-4.365,4.107-.391,16.511,4.139,24.391,0,0-13.74-20.257-4.672-28.391S124.9,54.068,128.7,60.468s2.471,18.568,0,22.886-7.512,3.835-7.512,3.835S133.154,77.822,122.928,61.2Z"/><path class="cls-8" d="M30.459,61.671s7.575-9.19,13.16-7.909,2.806,11.224,2.806,11.224l5.617-16.167s-10.279-4.182-13.673-2.252C38.369,46.567,32.954,54.062,30.459,61.671Z"/><path class="cls-9" d="M53.812,116.433a5.164,5.164,0,0,0,0,5.029c1.409,3.013,7.616,7.687,21.544,8.676,15.1,1.071,22.963-8.149,23.069-9.863s-4.665-3.244-4.665-3.244,5.351.187,6.608,3.266-8.943,13.78-25.945,12.279-25.4-11.6-25.3-14.3S53.812,116.433,53.812,116.433Z"/><path class="cls-10" d="M43.619,47.467a7.13,7.13,0,0,0-5.25-.9c-3.828.959-8.6,9.4-9.1,15.952-.433,5.668,1.617,10.217,2.817,10.884s4.8,0,4.8,0a9.121,9.121,0,0,1-8.057.734c-4.741-1.667-2.459-15.669,0-21.67S38.952,42.6,40.886,43,43.619,47.467,43.619,47.467Z"/><path class="cls-11" d="M92.691,90.205c-1.2-1.6-8.067-3.273-8.067-3.273l-3.5,3.873c-2.565.733-4.366,8.8-2.165,10.6s10.934,1.4,12.268-2S93.892,91.805,92.691,90.205ZM82.157,99.339c-1.934-1.933-.956-7.087,1.267-7.334,3-.333,4.769.467,5.4,3.2S84.091,101.273,82.157,99.339Z"/><path class="cls-12" d="M39.854,111.852c1.165.66,5.3-.236,5.3-.236l.511-3.4c1.086-1.182-.709-6.721-2.463-7.223s-6.161,2.214-5.7,4.711S38.688,111.193,39.854,111.852Zm2.386-8.67c1.66.66,2.9,4.15,1.824,4.931-1.447,1.055-2.638,1.056-3.892-.471S40.58,102.522,42.24,103.182Z"/><path class="cls-13" d="M125.78,67.063s-8.552-7.937-18.372-7.631S96.3,70.557,100.073,76.556s-11.2-4.669-11.2-4.669V48.819s18.158-1.786,27.809,2.574S125.78,67.063,125.78,67.063Z"/><path class="cls-14" d="M96.022,32.873c-1.374,1.927.575,8.8.575,8.8l-15.48-7.357,1.859-7a48.73,48.73,0,0,1,6.715,1.127c1.577.383,3.132.822,4.653,1.352,1.036.349,2.05.732,3.053,1.16.743.316,1.475.642,2.208.992.124.056.248.112.383.18,1,.484,1.983,1.014,2.94,1.566C100.472,32.749,96.9,31.645,96.022,32.873Z"/><path class="cls-15" d="M28.659,84.939a4.8,4.8,0,0,1,5-1.274,5.874,5.874,0,0,1,3.908,4.117l2.6-9.3L29.5,76.155,27.547,78Z"/><path class="cls-16" d="M80.31,97.1s.722-2.39,5.195-2.4,3.813,2.954,3.813,2.954l3.042-5.717-8.872-5.309-8.132,3.46Z"/><path class="cls-17" d="M52.976,121.25s2.882-1.921,20.813-2.988,25.064,4.972,25.064,4.972l2.045-8.5-35.755-7.571L48.375,112.1l-.985,4.5Z"/><path class="cls-18" d="M32.863,79.318a4.718,4.718,0,0,0-5.979.419c-2.946,2.528-2.934,9.668-.824,13.6,1.816,3.385,7.131,1.521,7.131,1.521s-4.24,3.813-7.574,1.479-4-15.268-1.066-18.935S32.863,79.318,32.863,79.318Z"/><path class="cls-19" d="M133.59,63.3a56.079,56.079,0,0,0-4.571-12.225c-.633-1.256-1.319-2.481-2.048-3.684-4.359,2.122-11.074,3.135-20.342-1.541C94.193,39.58,88.1,27.4,85.505,20.356c-1.236-.158-2.481-.285-3.738-.369-.644-.043-1.287-.074-1.921-.095-.591-.011-1.193-.022-1.805-.022A57.321,57.321,0,0,0,25.933,53.451a56.293,56.293,0,0,0-4.582,15.983c-.126.982-.232,1.953-.306,2.946-.148,1.541-.211,3.124-.211,4.708a57.3,57.3,0,0,0,.581,8.118c.169,1.246.39,2.47.644,3.695a.12.12,0,0,0,.01.053,52.068,52.068,0,0,0,1.341,5.12,55.887,55.887,0,0,0,2.555,6.756h.021c.306.707.633,1.393.982,2.08a.074.074,0,0,1,.031.063c.338.633.676,1.277,1.024,1.9a57.347,57.347,0,0,0,42.523,28.936c1.456.19,2.945.327,4.444.4H75c1,.064,2.027.085,3.04.085a56.889,56.889,0,0,0,37.582-14.072c-2.587-5.564-.454-16.321,3.547-16.49,1.964-.084,4.856,1.784,6.946,4.381A57.244,57.244,0,0,0,133.59,63.3ZM27.9,96.713c-7.062-1.71-5-19.4.138-19.625,3.4-.148,9.532,5.542,9.532,10.694S30.641,97.378,27.9,96.713Zm54.491,3.779c-4.263-1.048-2.444-7.968.5-8.984,2.718-.939,7.728,1.26,7.14,4.362C89.224,100.1,84.044,100.9,82.387,100.492Zm-41.218,9.439c-2.625-.588-3.695-5.93-1.883-6.5,1.674-.526,5.009,2.856,4.647,4.595C43.44,110.4,42.19,110.159,41.169,109.931ZM46.086,65.94C43.732,72.063,31.845,76.022,30,73.931c-2.977-3.346-3.452-12.478-.253-19.73,3.674-8.35,8.6-9.6,10.472-9.828S50.6,54.2,46.086,65.94Zm25.547,65.673c-15.434-1.024-25.378-13.364-19.678-14.758,20.8-5.078,49.163.127,48.413,3.442C99.2,125.448,88.914,132.764,71.633,131.613Zm47-43.388C102.3,93.409,88.957,58.814,97.2,53.451c8.53-5.563,23.45.193,27.828,6.081C128.7,64.469,134.963,83.031,118.632,88.225Z"/><ellipse class="cls-20" cx="59.588" cy="57.316" rx="28.654" ry="24.135" transform="translate(-22.053 44.255) rotate(-34.798)"/><path class="cls-21" d="M101.247,27.327S90.086,22.05,88.424,22.764s3.964,15.574,16.2,21.605c13.1,6.456,20.4,2,20.4,2L122.311,42.8a50.049,50.049,0,0,1,4.66,4.59s-7.06,8.676-23.845-1.539c-17.622-10.725-17.621-25.5-17.621-25.5S92.179,21.555,101.247,27.327Z"/><g class="cls-22"><path class="cls-23" d="M48.834,34.222c-.227.19-.725.545-.33.821.106.075.2.035.312.068.088.025.11.094.212.055.321-.122.193-1.032-.169-.849Z"/><path class="cls-23" d="M36.87,77.526c-.228.189-.725.545-.331.821.107.074.2.035.313.067.088.026.11.094.212.056.321-.123.192-1.033-.169-.85Z"/><path class="cls-23" d="M50.491,37.531a.962.962,0,0,1,.449-.127c.035.2.216.583-.066.737-.236.129-.165-.294-.277-.391Z"/><path class="cls-23" d="M53.72,37.624q.452.177.9.374c.1-.084.241-.068.354-.143a.987.987,0,0,0,.332-.468.774.774,0,0,0-.163-.66,1.433,1.433,0,0,0-.273-.41.63.63,0,0,0-.557.006,1.3,1.3,0,0,0-.432.435,1.279,1.279,0,0,0-.249.606.719.719,0,0,0,.314.537Z"/><path class="cls-23" d="M56.435,99.363q.453.178.9.374c.1-.084.241-.068.354-.143a.982.982,0,0,0,.332-.468.772.772,0,0,0-.163-.659,1.445,1.445,0,0,0-.273-.411.627.627,0,0,0-.557.007,1.628,1.628,0,0,0-.681,1.041.721.721,0,0,0,.313.537Z"/><path class="cls-23" d="M119.061,97.277q.451.178.9.374c.095-.084.24-.068.353-.143a.987.987,0,0,0,.332-.468.77.77,0,0,0-.163-.66,1.433,1.433,0,0,0-.273-.41.63.63,0,0,0-.557.006,1.645,1.645,0,0,0-.681,1.041.717.717,0,0,0,.314.537Z"/><path class="cls-23" d="M45.1,40.519a1.086,1.086,0,0,0-.315.339c.123.155.183.3.395.362a.232.232,0,0,0,.242-.04c.088-.086.04-.181.064-.265.058-.2.115-.259,0-.446-.07-.113-.118-.159-.241-.158-.086,0-.273.023-.316.12Z"/><path class="cls-23" d="M45.789,45.3c-.023.053-.255.643.047.472a.242.242,0,0,0,0-.384l.016-.058Z"/><path class="cls-23" d="M41.156,74.474c-.023.053-.255.643.046.472a.241.241,0,0,0,0-.384l.015-.058Z"/><path class="cls-23" d="M56.365,49.227a1.692,1.692,0,0,0-.319.645.576.576,0,0,0,.367.12c.176-.008.185-.065.19-.233a1.3,1.3,0,0,0,.028-.375c-.034-.135-.168-.272-.324-.187Z"/><path class="cls-23" d="M48.157,41.1a.7.7,0,0,1,.218.394c-.161.04-.18-.118-.2-.243-.037-.2.055-.138.149-.3l.053.011Z"/><path class="cls-23" d="M46.578,34.791a1.1,1.1,0,0,0-.315.338c.077.094.04.264.217.252.125-.009.227-.143.288-.246a.713.713,0,0,0,.085-.347c0-.066,0-.348-.118-.163Z"/><path class="cls-23" d="M67.016,31.522a2.091,2.091,0,0,1,.137-.479c.022-.037.077-.071.1-.11.089-.128.062-.149.208-.154a.548.548,0,0,1,.406.117c.449.359-.691.635-.735.289Z"/><path class="cls-23" d="M70.844,32.938c-.057.259-.224.61.016.783.207.147.641-.085.8-.235.292-.265.647-.769.368-1.14a1.209,1.209,0,0,0-.888-.358c-.545.051-.7.7-.778,1.219Z"/><path class="cls-23" d="M47.752,47.846c-.057.26-.224.611.017.783.206.148.64-.085.8-.234.292-.266.647-.769.368-1.14a1.214,1.214,0,0,0-.888-.359c-.545.052-.7.7-.778,1.22Z"/><path class="cls-23" d="M111.606,93.867c-.057.259-.224.61.016.782.207.148.64-.084.8-.233.292-.266.646-.77.367-1.141a1.212,1.212,0,0,0-.888-.359c-.544.052-.7.7-.778,1.22Z"/><path class="cls-23" d="M132.6,84.617c-.058.26-.225.611.016.783.206.148.64-.085.8-.234.291-.265.646-.769.367-1.14a1.214,1.214,0,0,0-.888-.359c-.545.052-.7.7-.778,1.22Z"/><path class="cls-23" d="M72.519,27.679c-.058-.445-.139-.885.257-1.119a.851.851,0,0,1,.814-.021,1.707,1.707,0,0,1,.368.465c.135.226.1.226.029.432-.163.472-.274.783-.744.784-.62,0-.716-.481-.724-1.081Z"/><path class="cls-23" d="M78.262,35.5a1.833,1.833,0,0,0,.876-.533c-.244-.151-.779-.466-.876-.007Z"/><path class="cls-23" d="M58.523,106.479a1.833,1.833,0,0,0,.875-.532c-.244-.151-.779-.466-.875-.007Z"/><path class="cls-23" d="M95.145,114.161a1.839,1.839,0,0,0,.876-.532c-.245-.152-.78-.467-.876-.007Z"/><path class="cls-23" d="M82.689,42.377c.339-.416.828-1.175,1.441-.759a.754.754,0,0,1,.117,1.136,2.556,2.556,0,0,1-.962.4.456.456,0,0,1-.6-.509Z"/><path class="cls-23" d="M50.275,88.088c.338-.416.827-1.174,1.441-.758a.755.755,0,0,1,.117,1.136,2.563,2.563,0,0,1-.962.4.456.456,0,0,1-.6-.509Z"/><path class="cls-23" d="M104.47,109.332c.339-.416.828-1.174,1.441-.758a.755.755,0,0,1,.118,1.136,2.56,2.56,0,0,1-.963.4.456.456,0,0,1-.6-.509Z"/><path class="cls-23" d="M58.971,52.273c.339-.416.828-1.175,1.441-.759a.755.755,0,0,1,.118,1.136,2.56,2.56,0,0,1-.963.4.456.456,0,0,1-.6-.509Z"/><path class="cls-23" d="M78.542,34.189c.339-.416.828-1.175,1.441-.759a.756.756,0,0,1,.118,1.137,2.574,2.574,0,0,1-.963.4.456.456,0,0,1-.6-.509Z"/><path class="cls-23" d="M127.185,56.521c.338-.416.827-1.175,1.441-.759a.755.755,0,0,1,.117,1.136,2.563,2.563,0,0,1-.962.4.456.456,0,0,1-.6-.509Z"/><path class="cls-23" d="M76.269,71.116c.339-.416.827-1.175,1.441-.759a.755.755,0,0,1,.117,1.137,2.572,2.572,0,0,1-.962.4.456.456,0,0,1-.6-.509Z"/><path class="cls-23" d="M53.556,29.558c-1.2.761-3.216,1.705-3.42,3.349a1.808,1.808,0,0,0,1.231,2.008,3.309,3.309,0,0,0,2.675.011A6.023,6.023,0,0,0,56.9,32.289a2.4,2.4,0,0,0-.1-2.257,2.277,2.277,0,0,0-1.118-1.153c-1.532-.532-2.452.971-3.586,1.65Z"/><path class="cls-23" d="M58.381,35.832a1.45,1.45,0,0,1,.6.394c-.236.081-.488.267-.73.181a.542.542,0,0,1-.3-.707c.039-.164.333-.45.5-.379.085.037.1.152.129.226.058.155.062.122-.021.285Z"/><path class="cls-23" d="M132.94,71.874a1.443,1.443,0,0,1,.6.394c-.235.08-.488.267-.73.18a.542.542,0,0,1-.3-.707c.038-.163.332-.45.5-.378.085.036.1.152.128.225.059.156.062.123-.021.286Z"/><path class="cls-23" d="M44.635,37.31a5.986,5.986,0,0,0-1.63,2.1c-.178.421.138.442.521.367.741-.144,1.486-.349,2.219-.537a2.754,2.754,0,0,0,1.356-.708,1.589,1.589,0,0,0,.276-1.124c-.071-.5-.424-.69-.875-.815a2.486,2.486,0,0,0-2.738,1.342Z"/><path class="cls-23" d="M47.319,41.666a2.34,2.34,0,0,1,1.037.27c-.093.11-.063.259-.111.387a1.121,1.121,0,0,1-.425.492,1.349,1.349,0,0,1-1.074.127c-.961-.364.512-1.5.836-1.1Z"/><path class="cls-23" d="M65.486,26.71a4.157,4.157,0,0,1,1.067-.456,7.467,7.467,0,0,1,1.313-.161c.227,0,.738-.019.59.352-.161.4-1.029.787-1.374.95a5.563,5.563,0,0,1-1.811.626c-.335.035-.9.06-1.085-.276a.7.7,0,0,1,.072-.774,1.1,1.1,0,0,1,.633-.5c.138-.054.906-.26.945-.02Z"/><path class="cls-23" d="M59.522,26.886c-.159.114-1.371.787-.794,1.078a1.809,1.809,0,0,0,1.235-.023c.28-.119.564-.3.388-.625-.355-.651-1.247-.276-1.707.008Z"/><path class="cls-23" d="M81.954,21.5c-.274.2-2.377,1.366-1.376,1.871a3.131,3.131,0,0,0,2.142-.039c.487-.207.979-.527.674-1.085-.617-1.13-2.163-.478-2.961.014Z"/><path class="cls-23" d="M42.769,73.239a2.055,2.055,0,0,0,.626,1.374,1.2,1.2,0,0,0,1.4-.057c.327-.193.636-.4.956-.6.186-.115.35-.143.358-.41a1.763,1.763,0,0,0-.419-.888,2.392,2.392,0,0,0-.9-.684c-.67-.25-1.949,0-1.933.91Z"/><path class="cls-23" d="M82.268,74.508a3.981,3.981,0,0,0,1.213,2.663,2.325,2.325,0,0,0,2.713-.111c.634-.374,1.233-.773,1.853-1.155.361-.222.678-.278.694-.8a3.417,3.417,0,0,0-.813-1.72,4.6,4.6,0,0,0-1.744-1.326c-1.3-.484-3.776,0-3.746,1.764Z"/></g><path class="cls-24" d="M98.43,54.933s50.818-17.148,58.918-8.357c9.466,10.273-41.4,42.039-41.4,42.039s-10.595.723-17.561-14.475C96.324,69.649,94.387,60.308,98.43,54.933Z"/><path class="cls-25" d="M53.812,116.433S62.428,153.052,76.1,154s22.33-33.721,22.33-33.721-6.629-5.468-22.33-5.468S53.812,116.433,53.812,116.433Z"/><path class="cls-26" d="M40.169,46.894s-14.177-2.525-18.5,6.652C16.546,64.439,33.191,73.671,33.191,73.671s8.672.036,12.895-7.731S45.4,46.928,40.169,46.894Z"/><path class="cls-27" d="M27.076,79.341s-24.9,8.652-24.9,13.573c0,6.176,31.018,1.946,31.018,1.946a11.831,11.831,0,0,0,4.375-7.078c.682-4.421-4.661-9.053-6.273-9.187A8.083,8.083,0,0,0,27.076,79.341Z"/><path class="cls-28" d="M89.691,28.446s10.4-10.072,23.2-6.942S117.87,48.06,117.87,48.06a37.173,37.173,0,0,1-17.609-6.388C91.612,35.689,89.691,28.446,89.691,28.446Z"/><path class="cls-29" d="M114.731,111.066s19.762,20.6,21.921,17.258c2.135-3.3-15.982-24.344-15.982-24.344S117.358,101.628,114.731,111.066Z"/><path class="cls-30" d="M107.124,28c-.354.5-.393.527-.426,1.02a2.6,2.6,0,0,0,.02.944,1.355,1.355,0,0,0,1.232.75,4.569,4.569,0,0,0,1.17-.473,1.675,1.675,0,0,0,.853-.96,1.248,1.248,0,0,0-.106-1.139,3.7,3.7,0,0,0-.744-1.141,1,1,0,0,0-1.288-.253,2.085,2.085,0,0,0-.853,1.394Z"/><path class="cls-30" d="M21.228,89.51c-.186.261-.207.277-.224.536a1.382,1.382,0,0,0,.01.5.715.715,0,0,0,.649.4,2.466,2.466,0,0,0,.616-.249.888.888,0,0,0,.449-.506.659.659,0,0,0-.056-.6,1.939,1.939,0,0,0-.392-.6.529.529,0,0,0-.678-.133,1.1,1.1,0,0,0-.449.734Z"/><path class="cls-31" d="M110.966,33.981a1.8,1.8,0,0,1,.886.558c-.24.066-.2.363-.452.444-.3.094-.464-.226-.718-.148Z"/><path class="cls-30" d="M86.636,136.37a1.789,1.789,0,0,1,.886.558c-.239.066-.194.362-.451.444-.3.094-.465-.226-.719-.149Z"/><path class="cls-30" d="M118.081,22.312c-.088.265-.568,1.2-.426,1.507.163.352.595.2.853.029.173-.114.268-.279.427-.406a4.453,4.453,0,0,0,.435-.269c.123-.124.158-.3.269-.437.123-.151.314-.231.424-.37a.714.714,0,0,0-.306-1.16c-.92-.267-1.281.493-1.818,1.106Z"/><path class="cls-30" d="M122.037,113.1c-.089.265-.568,1.2-.427,1.507.164.353.595.2.854.03.172-.115.268-.28.427-.406a4.781,4.781,0,0,0,.434-.27c.124-.124.159-.3.269-.437.124-.151.315-.231.424-.37a.714.714,0,0,0-.306-1.16c-.919-.267-1.28.493-1.817,1.106Z"/><path class="cls-30" d="M71.279,119.717c-.089.265-.568,1.2-.426,1.507.163.353.594.2.853.03.173-.115.268-.28.427-.406a4.647,4.647,0,0,0,.434-.27c.124-.124.159-.3.27-.437.123-.151.314-.231.423-.37a.714.714,0,0,0-.305-1.16c-.92-.267-1.281.493-1.818,1.106Z"/><path class="cls-30" d="M125.766,19.893c.238-.525.32-.793.823-1.035.251-.121.605-.153.594.248a1.921,1.921,0,0,1-.419.717.748.748,0,0,1-.831.188l-.025-.118Z"/><path class="cls-30" d="M34.328,60.779c.239-.525.321-.793.823-1.035.252-.121.6-.153.595.249a1.928,1.928,0,0,1-.42.716.748.748,0,0,1-.831.188l-.024-.118Z"/><path class="cls-30" d="M72.314,144.987c.189-.416.254-.628.652-.819.2-.1.479-.121.471.2a1.529,1.529,0,0,1-.333.568.594.594,0,0,1-.658.149l-.019-.094Z"/><path class="cls-31" d="M120.806,64.968c-.079-.3-.718.277-.495.046a2.786,2.786,0,0,1,.826-.49,1.19,1.19,0,0,1,.89-.06,2.129,2.129,0,0,1,1.2.872c.718,1.228-.255,2.3-1.421,2.752-1.086.423-2.6.214-2.856-1.12a1.883,1.883,0,0,1,.426-1.4,3.665,3.665,0,0,1,1.43-.6Z"/><path class="cls-30" d="M32.3,88.466c-.046-.221-.419.207-.289.035a1.582,1.582,0,0,1,.482-.365.556.556,0,0,1,.52-.045,1.31,1.31,0,0,1,.7.649,1.548,1.548,0,0,1-.829,2.049,1.094,1.094,0,0,1-1.668-.834,1.683,1.683,0,0,1,.249-1.044,1.948,1.948,0,0,1,.835-.445Z"/><path class="cls-30" d="M37.616,68.506c.1-.123-.3-.135-.147-.141a1.128,1.128,0,0,1,.412.1.4.4,0,0,1,.256.261.918.918,0,0,1-.039.668,1.085,1.085,0,0,1-1.477.465.767.767,0,0,1-.293-1.273A1.183,1.183,0,0,1,37,68.253a1.351,1.351,0,0,1,.613.253Z"/><path class="cls-31" d="M86.854,120.236c-.017-.255-.631.11-.411-.042a2.3,2.3,0,0,1,.752-.267.985.985,0,0,1,.736.095,1.768,1.768,0,0,1,.838.905c.388,1.117-.579,1.833-1.6,2.015-.954.17-2.158-.246-2.149-1.374a1.567,1.567,0,0,1,.574-1.075,3.067,3.067,0,0,1,1.263-.257Z"/><path class="cls-30" d="M28.825,52.467c-.078-.3-.149-.434.074-.665a2.749,2.749,0,0,1,.827-.49,1.19,1.19,0,0,1,.89-.061,2.131,2.131,0,0,1,1.2.873c.719,1.227-.255,2.3-1.42,2.752-1.087.423-2.6.214-2.857-1.12a1.887,1.887,0,0,1,.427-1.4,3.665,3.665,0,0,1,1.43-.6Z"/><path class="cls-30" d="M132.312,59.312c-.013.867.086.8.851.966a2.541,2.541,0,0,0,1.536-.433,1.75,1.75,0,0,0,.716-.569c.22-.32.2-.439-.08-.676a1.774,1.774,0,0,0-.687-.415c-.151-.031-.3-.011-.454-.044-.1-.02-.17-.1-.306-.117a2.732,2.732,0,0,0-1.443.427,1.3,1.3,0,0,0-.418,1Z"/><path class="cls-30" d="M141.251,63.252a.591.591,0,0,1-.05-.289c.119-.078.133-.237.282-.308a.408.408,0,0,1,.351-.015.377.377,0,0,1,.1.54c-.075.124-.145.331-.288.408-.182.1-.453-.116-.511-.278Z"/><path class="cls-30" d="M130.757,120.039a.587.587,0,0,1-.05-.288c.119-.079.133-.238.283-.309a.406.406,0,0,1,.35-.014.377.377,0,0,1,.1.539c-.075.124-.146.332-.289.409-.182.1-.453-.116-.511-.279Z"/><path class="cls-30" d="M83.54,123.518a.605.605,0,0,1-.051-.289c.12-.078.134-.237.283-.308a.408.408,0,0,1,.351-.015.377.377,0,0,1,.1.54c-.075.124-.145.331-.289.408-.181.1-.452-.116-.51-.278Z"/><path class="cls-30" d="M19.363,51.535a.59.59,0,0,1-.051-.289c.12-.078.134-.237.283-.308a.406.406,0,0,1,.35-.014.377.377,0,0,1,.1.539c-.075.124-.146.331-.289.409-.182.1-.453-.116-.51-.279Z"/><path class="cls-30" d="M116.374,79.377c.233-.4.285-.58.712-.68a.985.985,0,0,1,.718.033,1.473,1.473,0,0,1,.249,1.326c-.2.445-.807.373-1.141.213a.97.97,0,0,1-.681-1.035Z"/><path class="cls-30" d="M145.974,46.362a.431.431,0,0,0-.1.321c.256.171,1.039-.009.988-.4-.025-.194-.261-.258-.423-.279-.335-.042-.5.253-.676.5Z"/><path class="cls-30" d="M100.561,59.148a.433.433,0,0,0-.1.322c.256.17,1.039-.009.988-.4-.025-.2-.261-.258-.423-.279-.335-.042-.5.253-.676.5Z"/><path class="cls-30" d="M13.589,58.005a.438.438,0,0,0-.1.322c.256.17,1.04-.01.989-.4-.025-.194-.261-.258-.423-.278-.335-.042-.506.253-.676.5Z"/><path class="cls-30" d="M11.241,88.609a.434.434,0,0,0-.1.321c.256.171,1.04-.009.989-.4-.025-.195-.261-.258-.423-.279-.335-.042-.506.253-.676.5Z"/><path class="cls-30" d="M71.12,138.007c-.181.717-.336,1.125.222,1.627a2.324,2.324,0,0,0,1.533.523c.814-.051,2.168-.7,1.884-1.734a2.426,2.426,0,0,0-1.493-1.281,1.8,1.8,0,0,0-2.146,1.719Z"/><path class="cls-32" d="M43.92,120.933a56.365,56.365,0,0,1-14.078-17.7A55.6,55.6,0,0,1,25.02,89.524a.072.072,0,0,1-.01-.049,56.817,56.817,0,0,1-1.2-11.593A56.166,56.166,0,0,1,79.977,21.717c1.227,0,2.435.039,3.643.117a55.9,55.9,0,0,1,11.071,1.84A55.836,55.836,0,0,0,80.87,21.019c-1.208-.078-2.416-.117-3.644-.117A56.144,56.144,0,0,0,21.062,77.067a56.817,56.817,0,0,0,1.2,11.593c0,.02,0,.04.01.049a55.607,55.607,0,0,0,4.822,13.708,56.376,56.376,0,0,0,35.465,28.872A56.037,56.037,0,0,1,43.92,120.933Z"/></g></g></g></g></svg>