<svg xmlns="http://www.w3.org/2000/svg" xmlns:xlink="http://www.w3.org/1999/xlink" viewBox="0 0 145.097 145.097"><defs><style>.cls-1{isolation:isolate;}.cls-10,.cls-2,.cls-3,.cls-31,.cls-4{mix-blend-mode:screen;}.cls-2{fill:url(#radial-gradient);}.cls-3{fill:url(#radial-gradient-2);}.cls-4{fill:url(#radial-gradient-3);}.cls-10,.cls-11,.cls-12,.cls-13,.cls-14,.cls-15,.cls-16,.cls-17,.cls-18,.cls-19,.cls-20,.cls-21,.cls-22,.cls-23,.cls-24,.cls-25,.cls-26,.cls-27,.cls-28,.cls-29,.cls-30,.cls-31,.cls-32,.cls-33,.cls-34,.cls-35,.cls-36,.cls-37,.cls-38,.cls-39,.cls-40,.cls-41,.cls-42,.cls-43,.cls-44,.cls-45,.cls-46,.cls-5,.cls-6,.cls-7,.cls-8,.cls-9{fill-rule:evenodd;}.cls-5{fill:url(#Áåçûìÿííûé_ãðàäèåíò_49);}.cls-6{fill:url(#Áåçûìÿííûé_ãðàäèåíò_48);}.cls-7{fill:url(#radial-gradient-4);}.cls-14,.cls-31,.cls-8{opacity:0.5;}.cls-14,.cls-27,.cls-29,.cls-32,.cls-34,.cls-36,.cls-39,.cls-45,.cls-46,.cls-8,.cls-9{mix-blend-mode:multiply;}.cls-8{fill:url(#Áåçûìÿííûé_ãðàäèåíò_40);}.cls-9{opacity:0.89;fill:url(#Áåçûìÿííûé_ãðàäèåíò_47);}.cls-10{fill:url(#Áåçûìÿííûé_ãðàäèåíò_45);}.cls-11{fill:url(#linear-gradient);}.cls-12{fill:url(#Áåçûìÿííûé_ãðàäèåíò_42);}.cls-13{fill:url(#Áåçûìÿííûé_ãðàäèåíò_11);}.cls-14{fill:url(#Áåçûìÿííûé_ãðàäèåíò_40-2);}.cls-15{fill:url(#Áåçûìÿííûé_ãðàäèåíò_7);}.cls-16{fill:url(#Áåçûìÿííûé_ãðàäèåíò_38);}.cls-17{fill:url(#Áåçûìÿííûé_ãðàäèåíò_34);}.cls-18{fill:url(#Áåçûìÿííûé_ãðàäèåíò_33);}.cls-19{fill:url(#Áåçûìÿííûé_ãðàäèåíò_30);}.cls-20{fill:url(#Áåçûìÿííûé_ãðàäèåíò_29);}.cls-21{fill:url(#Áåçûìÿííûé_ãðàäèåíò_28);}.cls-22{fill:url(#Áåçûìÿííûé_ãðàäèåíò_26);}.cls-23{fill:url(#Áåçûìÿííûé_ãðàäèåíò_7-2);}.cls-24{fill:url(#Áåçûìÿííûé_ãðàäèåíò_25);}.cls-25{fill:url(#Áåçûìÿííûé_ãðàäèåíò_24);}.cls-26{fill:url(#Áåçûìÿííûé_ãðàäèåíò_23);}.cls-27,.cls-29,.cls-32,.cls-34,.cls-36{opacity:0.4;}.cls-27{fill:url(#Áåçûìÿííûé_ãðàäèåíò_17);}.cls-28{fill:url(#Áåçûìÿííûé_ãðàäèåíò_23-2);}.cls-29{fill:url(#Áåçûìÿííûé_ãðàäèåíò_17-2);}.cls-30{fill:url(#Áåçûìÿííûé_ãðàäèåíò_22);}.cls-31{fill:url(#Áåçûìÿííûé_ãðàäèåíò_20);}.cls-32{fill:url(#Áåçûìÿííûé_ãðàäèåíò_17-3);}.cls-33{fill:url(#Áåçûìÿííûé_ãðàäèåíò_15);}.cls-34{fill:url(#Áåçûìÿííûé_ãðàäèåíò_13);}.cls-35{fill:url(#Áåçûìÿííûé_ãðàäèåíò_14);}.cls-36{fill:url(#Áåçûìÿííûé_ãðàäèåíò_13-2);}.cls-37{fill:#ffe496;}.cls-38{fill:#ffef7f;}.cls-39,.cls-45,.cls-46{opacity:0.71;}.cls-39{fill:url(#Áåçûìÿííûé_ãðàäèåíò_2);}.cls-40{fill:url(#Áåçûìÿííûé_ãðàäèåíò_12);}.cls-41{fill:url(#Áåçûìÿííûé_ãðàäèåíò_11-2);}.cls-42{fill:url(#Áåçûìÿííûé_ãðàäèåíò_7-3);}.cls-43{fill:url(#Áåçûìÿííûé_ãðàäèåíò_6);}.cls-44{fill:url(#Áåçûìÿííûé_ãðàäèåíò_3);}.cls-45{fill:url(#Áåçûìÿííûé_ãðàäèåíò_2-2);}.cls-46{fill:url(#Áåçûìÿííûé_ãðàäèåíò_2-3);}</style><radialGradient id="radial-gradient" cx="72.548" cy="72.548" r="72.548" gradientTransform="translate(126.488 -14.727) rotate(76.717)" gradientUnits="userSpaceOnUse"><stop offset="0" stop-color="#ffbd17"/><stop offset="1" stop-opacity="0"/></radialGradient><radialGradient id="radial-gradient-2" cx="77.353" cy="76.68" r="61.143" gradientTransform="matrix(1, 0, 0, 1, 0, 0)" xlink:href="#radial-gradient"/><radialGradient id="radial-gradient-3" cx="71.9" cy="71.49" r="58.348" gradientTransform="translate(71.61 -29.902) rotate(45)" xlink:href="#radial-gradient"/><linearGradient id="Áåçûìÿííûé_ãðàäèåíò_49" x1="109.737" y1="53.875" x2="114.419" y2="24.317" gradientUnits="userSpaceOnUse"><stop offset="0" stop-color="#ba962b"/><stop offset="1" stop-color="#ffa56d"/></linearGradient><linearGradient id="Áåçûìÿííûé_ãðàäèåíò_48" x1="-1847.094" y1="329.707" x2="-1845.471" y2="319.458" gradientTransform="matrix(-0.985, -0.172, 0.172, -0.985, -1769.733, 133.722)" gradientUnits="userSpaceOnUse"><stop offset="0" stop-color="#ffa56d"/><stop offset="1" stop-color="#ba962b"/></linearGradient><radialGradient id="radial-gradient-4" cx="50.169" cy="48.06" r="82.6" gradientUnits="userSpaceOnUse"><stop offset="0" stop-color="#ffe88d"/><stop offset="0.221" stop-color="#ffe68b"/><stop offset="0.331" stop-color="#ffde86"/><stop offset="0.416" stop-color="#ffd17d"/><stop offset="0.489" stop-color="#ffbe71"/><stop offset="0.554" stop-color="#ffa661"/><stop offset="0.584" stop-color="#ff9857"/><stop offset="0.649" stop-color="#fb9152"/><stop offset="0.743" stop-color="#f07e42"/><stop offset="0.854" stop-color="#dd5f29"/><stop offset="0.916" stop-color="#d14a19"/><stop offset="1" stop-color="#ff914d"/></radialGradient><linearGradient id="Áåçûìÿííûé_ãðàäèåíò_40" x1="16.072" y1="42.618" x2="38.996" y2="42.618" gradientUnits="userSpaceOnUse"><stop offset="0" stop-color="#fff"/><stop offset="0.02" stop-color="#fdfbf9"/><stop offset="0.208" stop-color="#e9dbc2"/><stop offset="0.392" stop-color="#d8c095"/><stop offset="0.567" stop-color="#cbab72"/><stop offset="0.731" stop-color="#c29c59"/><stop offset="0.88" stop-color="#bc9349"/><stop offset="1" stop-color="#ba9044"/></linearGradient><linearGradient id="Áåçûìÿííûé_ãðàäèåíò_47" x1="79.58" y1="80.553" x2="119.385" y2="80.553" gradientUnits="userSpaceOnUse"><stop offset="0" stop-color="#ba9044"/><stop offset="0.12" stop-color="#bc9349"/><stop offset="0.269" stop-color="#c29c59"/><stop offset="0.433" stop-color="#cbab72"/><stop offset="0.608" stop-color="#d8c095"/><stop offset="0.792" stop-color="#e9dbc2"/><stop offset="0.98" stop-color="#fdfbf9"/><stop offset="1" stop-color="#fff"/></linearGradient><radialGradient id="Áåçûìÿííûé_ãðàäèåíò_45" cx="28.728" cy="29.824" r="72.099" gradientUnits="userSpaceOnUse"><stop offset="0" stop-color="#8e8bff"/><stop offset="1"/></radialGradient><linearGradient id="linear-gradient" x1="47.736" y1="126.989" x2="51.815" y2="101.234" gradientUnits="userSpaceOnUse"><stop offset="0" stop-color="#a44312"/><stop offset="1" stop-color="#ffa56d"/></linearGradient><linearGradient id="Áåçûìÿííûé_ãðàäèåíò_42" x1="31.478" y1="46.295" x2="13.407" y2="30.587" gradientUnits="userSpaceOnUse"><stop offset="0" stop-color="#ffd36f"/><stop offset="1" stop-color="#ba962b"/></linearGradient><linearGradient id="Áåçûìÿííûé_ãðàäèåíò_11" x1="103.358" y1="-39.939" x2="69.646" y2="-59.403" gradientTransform="translate(2.733 116.55) rotate(7.412)" gradientUnits="userSpaceOnUse"><stop offset="0" stop-color="#ba7e07"/><stop offset="1" stop-color="#ffe895"/></linearGradient><linearGradient id="Áåçûìÿííûé_ãðàäèåíò_40-2" x1="55.998" y1="27.603" x2="81.884" y2="27.603" xlink:href="#Áåçûìÿííûé_ãðàäèåíò_40"/><linearGradient id="Áåçûìÿííûé_ãðàäèåíò_7" x1="89.576" y1="-25.889" x2="89.576" y2="-71.568" gradientTransform="translate(2.733 116.55) rotate(7.412)" gradientUnits="userSpaceOnUse"><stop offset="0" stop-color="#fe9943"/><stop offset="1" stop-color="#ffbd57"/></linearGradient><linearGradient id="Áåçûìÿííûé_ãðàäèåíò_38" x1="84.366" y1="96.244" x2="108.475" y2="66.687" gradientUnits="userSpaceOnUse"><stop offset="0" stop-color="#e8b04c"/><stop offset="0.255" stop-color="#e6ac4a"/><stop offset="0.494" stop-color="#e1a144"/><stop offset="0.726" stop-color="#d88e39"/><stop offset="0.953" stop-color="#cc742b"/><stop offset="0.994" stop-color="#c96e28"/></linearGradient><radialGradient id="Áåçûìÿííûé_ãðàäèåíò_34" cx="-1227.212" cy="960.099" r="20.542" gradientTransform="translate(-1254.363 -818) rotate(-109.287)" gradientUnits="userSpaceOnUse"><stop offset="0" stop-color="#ffde7f"/><stop offset="1" stop-color="#ba962b"/></radialGradient><linearGradient id="Áåçûìÿííûé_ãðàäèåíò_33" x1="-1225.379" y1="984.412" x2="-1225.379" y2="960.309" gradientTransform="translate(-1254.363 -818) rotate(-109.287)" gradientUnits="userSpaceOnUse"><stop offset="0" stop-color="#ffd26c"/><stop offset="1" stop-color="#ffd089"/></linearGradient><linearGradient id="Áåçûìÿííûé_ãðàäèåíò_30" x1="68.254" y1="24.506" x2="68.254" y2="10.612" gradientUnits="userSpaceOnUse"><stop offset="0" stop-color="#ffbd57"/><stop offset="0.319" stop-color="#ffbb53"/><stop offset="0.615" stop-color="#ffb348"/><stop offset="0.901" stop-color="#fea735"/><stop offset="1" stop-color="#fea12d"/></linearGradient><linearGradient id="Áåçûìÿííûé_ãðàäèåíò_29" x1="16.375" y1="46.075" x2="16.375" y2="24.408" gradientUnits="userSpaceOnUse"><stop offset="0" stop-color="#ffed7c"/><stop offset="1" stop-color="#ffe257"/></linearGradient><linearGradient id="Áåçûìÿííûé_ãðàäèåíò_28" x1="41.194" y1="128.873" x2="41.194" y2="110.755" gradientUnits="userSpaceOnUse"><stop offset="0" stop-color="#fed269"/><stop offset="1" stop-color="#ffda57"/></linearGradient><linearGradient id="Áåçûìÿííûé_ãðàäèåíò_26" x1="40.625" y1="127.53" x2="40.625" y2="113.671" gradientUnits="userSpaceOnUse"><stop offset="0" stop-color="#fe863e"/><stop offset="1" stop-color="#ffa720"/></linearGradient><linearGradient id="Áåçûìÿííûé_ãðàäèåíò_7-2" x1="43.872" y1="123.01" x2="43.872" y2="114.488" gradientTransform="matrix(1, 0, 0, 1, 0, 0)" xlink:href="#Áåçûìÿííûé_ãðàäèåíò_7"/><linearGradient id="Áåçûìÿííûé_ãðàäèåíò_25" x1="15.993" y1="42.005" x2="15.993" y2="26.489" gradientUnits="userSpaceOnUse"><stop offset="0" stop-color="#ffbd57"/><stop offset="1" stop-color="#fe9943"/></linearGradient><linearGradient id="Áåçûìÿííûé_ãðàäèåíò_24" x1="16.429" y1="34.774" x2="17.944" y2="35.731" gradientUnits="userSpaceOnUse"><stop offset="0" stop-color="#ffaa68"/><stop offset="1" stop-color="#ffd26c"/></linearGradient><linearGradient id="Áåçûìÿííûé_ãðàäèåíò_23" x1="22.436" y1="82.296" x2="31.88" y2="88.266" gradientUnits="userSpaceOnUse"><stop offset="0" stop-color="#ffaa68"/><stop offset="0.489" stop-color="#ffd86e"/><stop offset="1" stop-color="#fff49e"/></linearGradient><radialGradient id="Áåçûìÿííûé_ãðàäèåíò_17" cx="27.237" cy="84.379" r="4.541" gradientUnits="userSpaceOnUse"><stop offset="0" stop-color="#ba0c00"/><stop offset="1" stop-color="#fff"/></radialGradient><linearGradient id="Áåçûìÿííûé_ãðàäèåíò_23-2" x1="36.676" y1="-49.251" x2="41.029" y2="-46.499" gradientTransform="translate(0.934 79.528) rotate(4.824)" xlink:href="#Áåçûìÿííûé_ãðàäèåíò_23"/><radialGradient id="Áåçûìÿííûé_ãðàäèåíò_17-2" cx="38.889" cy="-48.291" r="2.093" gradientTransform="translate(0.934 79.528) rotate(4.824)" xlink:href="#Áåçûìÿííûé_ãðàäèåíò_17"/><linearGradient id="Áåçûìÿííûé_ãðàäèåíò_22" x1="87.553" y1="111.004" x2="77.879" y2="110.801" gradientUnits="userSpaceOnUse"><stop offset="0" stop-color="#ffb953"/><stop offset="1" stop-color="#b8753a"/></linearGradient><radialGradient id="Áåçûìÿííûé_ãðàäèåíò_20" cx="54.193" cy="86.787" r="10.227" gradientUnits="userSpaceOnUse"><stop offset="0" stop-color="#c0bdff"/><stop offset="0.201" stop-color="#8d8bbb"/><stop offset="0.415" stop-color="#5b5a79"/><stop offset="0.611" stop-color="#343345"/><stop offset="0.779" stop-color="#18171f"/><stop offset="0.915" stop-color="#060608"/><stop offset="1"/></radialGradient><radialGradient id="Áåçûìÿííûé_ãðàäèåíò_17-3" cx="82.698" cy="110.203" r="4.035" xlink:href="#Áåçûìÿííûé_ãðàäèåíò_17"/><linearGradient id="Áåçûìÿííûé_ãðàäèåíò_15" x1="35.531" y1="64.519" x2="61.808" y2="81.131" gradientUnits="userSpaceOnUse"><stop offset="0" stop-color="#ffaa68"/><stop offset="0.148" stop-color="#ffb169"/><stop offset="0.361" stop-color="#ffc46b"/><stop offset="0.528" stop-color="#ffd86e"/><stop offset="1" stop-color="#fff49e"/></linearGradient><linearGradient id="Áåçûìÿííûé_ãðàäèåíò_13" x1="35.87" y1="68.022" x2="62.117" y2="68.022" xlink:href="#Áåçûìÿííûé_ãðàäèåíò_17"/><linearGradient id="Áåçûìÿííûé_ãðàäèåíò_14" x1="90.012" y1="23.17" x2="102.916" y2="31.328" gradientUnits="userSpaceOnUse"><stop offset="0" stop-color="#ffac4d"/><stop offset="0.489" stop-color="#ffc35c"/><stop offset="1" stop-color="#ffda8a"/></linearGradient><linearGradient id="Áåçûìÿííûé_ãðàäèåíò_13-2" x1="89.768" y1="26.439" x2="102.053" y2="26.439" xlink:href="#Áåçûìÿííûé_ãðàäèåíò_17"/><linearGradient id="Áåçûìÿííûé_ãðàäèåíò_2" x1="81.653" y1="74.223" x2="113.661" y2="74.223" gradientUnits="userSpaceOnUse"><stop offset="0" stop-color="#ba9044"/><stop offset="1" stop-color="#fff"/></linearGradient><radialGradient id="Áåçûìÿííûé_ãðàäèåíò_12" cx="94.974" cy="-53.315" r="19.695" gradientTransform="translate(8.566 158.76) rotate(10.236)" gradientUnits="userSpaceOnUse"><stop offset="0.006" stop-color="#fffb8d"/><stop offset="0.24" stop-color="#fff98c"/><stop offset="0.357" stop-color="#fff18a"/><stop offset="0.448" stop-color="#ffe486"/><stop offset="0.525" stop-color="#ffd181"/><stop offset="0.584" stop-color="#ffbd7b"/><stop offset="0.651" stop-color="#ffba74"/><stop offset="0.749" stop-color="#ffb161"/><stop offset="0.864" stop-color="#ffa242"/><stop offset="0.916" stop-color="#ff9a31"/><stop offset="0.986" stop-color="#ff674d"/></radialGradient><linearGradient id="Áåçûìÿííûé_ãðàäèåíò_11-2" x1="-425.097" y1="1004.71" x2="-438.227" y2="997.129" gradientTransform="translate(-590.947 -702.298) rotate(-64.055)" xlink:href="#Áåçûìÿííûé_ãðàäèåíò_11"/><linearGradient id="Áåçûìÿííûé_ãðàäèåíò_7-3" x1="-430.414" y1="1009.758" x2="-430.414" y2="992.619" gradientTransform="translate(-590.947 -702.298) rotate(-64.055)" xlink:href="#Áåçûìÿííûé_ãðàäèåíò_7"/><linearGradient id="Áåçûìÿííûé_ãðàäèåíò_6" x1="-552.232" y1="1061.052" x2="-552.232" y2="1046.859" gradientTransform="translate(-702.584 -735.796) rotate(-71.464)" gradientUnits="userSpaceOnUse"><stop offset="0.006" stop-color="#c96e28"/><stop offset="1" stop-color="#cc8a2d"/></linearGradient><linearGradient id="Áåçûìÿííûé_ãðàäèåíò_3" x1="-553.068" y1="1060.983" x2="-553.068" y2="1046.944" gradientTransform="translate(-702.584 -735.796) rotate(-71.464)" gradientUnits="userSpaceOnUse"><stop offset="0" stop-color="#fe973e"/><stop offset="1" stop-color="#ffb543"/></linearGradient><linearGradient id="Áåçûìÿííûé_ãðàäèåíò_2-2" x1="-559.084" y1="1051.814" x2="-545.4" y2="1051.814" gradientTransform="translate(-702.584 -735.796) rotate(-71.464)" xlink:href="#Áåçûìÿííûé_ãðàäèåíò_2"/><linearGradient id="Áåçûìÿííûé_ãðàäèåíò_2-3" x1="58.806" y1="15.29" x2="77.701" y2="15.29" xlink:href="#Áåçûìÿííûé_ãðàäèåíò_2"/></defs><title>planet-12</title><g class="cls-1"><g id="Layer_2" data-name="Layer 2"><g id="planets"><g id="planet-12"><circle class="cls-2" cx="72.548" cy="72.548" r="72.548" transform="translate(-14.727 126.488) rotate(-76.717)"/><circle class="cls-3" cx="77.353" cy="76.68" r="61.143"/><circle class="cls-4" cx="71.9" cy="71.49" r="58.348" transform="translate(-29.492 71.78) rotate(-45)"/><path class="cls-5" d="M100.214,22.264s7.212,2,12.012,1.706c0,0,8.6,5.842,13.4,21.323,0,0-4.13,4.9-3.251,10.584C122.375,55.877,115.02,35.894,100.214,22.264Z"/><path class="cls-6" d="M108.123,137.792A15.346,15.346,0,0,0,103,137.17a8.166,8.166,0,0,1-2.982-6.016,23.4,23.4,0,0,0,3.07-4.923A27.858,27.858,0,0,0,108.123,137.792Z"/><path class="cls-7" d="M123.535,67.111a54.72,54.72,0,0,1-54.782,54.77c-.971,0-1.954-.023-2.914-.081h-.011c-1.434-.069-2.856-.208-4.255-.381a54.422,54.422,0,0,1-27.981-12.326,55.839,55.839,0,0,1-12.73-15.377c-.335-.6-.659-1.214-.982-1.827,0-.023-.012-.035-.024-.058-.335-.659-.647-1.318-.948-1.989H18.9a52.45,52.45,0,0,1-2.451-6.475,49.1,49.1,0,0,1-1.284-4.9.073.073,0,0,1-.011-.046c-.243-1.168-.451-2.347-.613-3.538a53.919,53.919,0,0,1-.555-7.77c0-1.515.058-3.029.2-4.509.069-.948.173-1.885.3-2.821a53.667,53.667,0,0,1,4.382-15.3A54.828,54.828,0,0,1,68.753,12.329c.578,0,1.156.012,1.723.023.613.023,1.225.047,1.838.093a54.522,54.522,0,0,1,9.192,1.387c1.734.417,3.434.9,5.1,1.48,1.133.382,2.243.81,3.342,1.272.82.347,1.618.705,2.416,1.087.139.069.278.127.416.2A54.867,54.867,0,0,1,107.105,28c.6.578,1.179,1.179,1.757,1.792.382.416.764.844,1.133,1.272.636.717,1.249,1.468,1.85,2.22a54.619,54.619,0,0,1,10.083,20.627A54.631,54.631,0,0,1,123.535,67.111Z"/><path class="cls-8" d="M16.072,59.021s9.77,5.1,18.522-1.833,1.751-32.78,1.751-32.78Z"/><path class="cls-9" d="M79.58,98.4s4.421,5.314,15.238,5.9,21.625-11.83,24.107-23.076-5.549-22.614-13.436-24.378S79.58,98.4,79.58,98.4Z"/><path class="cls-10" d="M36.274,109.89a54.977,54.977,0,0,1-13.73-17.265,54.194,54.194,0,0,1-4.7-13.368.07.07,0,0,1-.01-.048A55.4,55.4,0,0,1,16.663,67.9,54.777,54.777,0,0,1,71.439,13.126c1.2,0,2.375.038,3.553.114a54.514,54.514,0,0,1,10.8,1.8A54.409,54.409,0,0,0,72.31,12.446c-1.178-.076-2.356-.114-3.553-.114A54.756,54.756,0,0,0,13.98,67.108a55.4,55.4,0,0,0,1.169,11.307.072.072,0,0,0,.009.047,54.259,54.259,0,0,0,4.7,13.369A54.978,54.978,0,0,0,54.45,119.989,54.635,54.635,0,0,1,36.274,109.89Z"/><path class="cls-11" d="M24.016,98.709s3.47,5.656,2.594,14.857c0,0,7.607,13.3,29.076,14.391,0,0,10.808-7.968,21.152-6.67C76.838,121.287,58.977,95.826,24.016,98.709Z"/><path class="cls-12" d="M16.072,59.021s-3.6-9.931-6.829-13.436c0,0-2.483-15.773,13.582-21.177,0,0,8.652,1.651,13.52,0,0,0,1.853,10.661-5.487,22.053C24.6,56.174,16.072,59.021,16.072,59.021Z"/><path class="cls-13" d="M114.49,66.754s-3.827-13.465-16.83-14.272c-13.79-.857-26,26.662-21.747,39.808s19.6,11.253,26.632,6.475C111.081,92.962,115.271,80.138,114.49,66.754Z"/><path class="cls-14" d="M56,27.214s4.667,7.9,13.709,7.033c9.873-.944,12.513-9.3,12.144-12.614S56,27.214,56,27.214Z"/><path class="cls-15" d="M99.785,57.188C87.862,57.123,70.2,88.847,85.578,99.512c14.608,10.133,28.109-11.861,29.693-19.374S115.839,57.276,99.785,57.188Z"/><path class="cls-16" d="M94.237,99.192c-.567-.047-1.122-.128-1.642-.209-7.4-1.271-10.175-6.417-10.8-11.608a23.036,23.036,0,0,1,.786-8.961c1.4-4.671,8.9-15.62,17.494-17.158a11.09,11.09,0,0,1,9.353,2.648,11.721,11.721,0,0,1,4.232,8.2C114.817,83.918,102.3,99.908,94.237,99.192Z"/><path class="cls-17" d="M58.1,12.707s-5.475,7.03-2.773,13.352c2.865,6.7,18.924,6.42,24.113,1.3s1.048-14.894-3.416-16.608C70.938,8.8,64.224,9.166,58.1,12.707Z"/><path class="cls-18" d="M57.076,21.907c2.8,5.636,21.939,6.441,23.321-3.336,1.314-9.289-12.255-10.44-16.173-9.405S53.312,14.318,57.076,21.907Z"/><path class="cls-19" d="M77.675,16.163a3.886,3.886,0,0,1,0,.9,4.761,4.761,0,0,1-.127.913c-1.561,6.279-14.175,8.325-17.054,4.834a7.368,7.368,0,0,1-1.515-2.845c-.983-3.85,2.451-6.937,4.729-8.128C66.517,10.359,77.051,8.844,77.675,16.163Z"/><path class="cls-20" d="M9.243,45.585c.264,3.582,18.279-13.4,13.582-21.177C22.825,24.408,7.782,25.8,9.243,45.585Z"/><path class="cls-21" d="M26.61,113.566c-1.119-6.4,31.415-1.978,29.076,14.391C55.175,131.535,28.468,124.194,26.61,113.566Z"/><path class="cls-22" d="M52.763,127.484c-.543.44-18.4-2.2-24.535-13.042-.405-.728,1.5-.96,4.428-.613a32.582,32.582,0,0,1,3.689.659c4.231.983,9.215,2.9,12.591,5.955A21.134,21.134,0,0,1,51.4,123.01a8.6,8.6,0,0,1,1.538,2.7C53.225,126.7,53.017,127.288,52.763,127.484Z"/><path class="cls-23" d="M51.4,123.01a27.564,27.564,0,0,1-15.053-8.522c4.231.983,9.215,2.9,12.591,5.955A21.134,21.134,0,0,1,51.4,123.01Z"/><path class="cls-24" d="M20.87,29.327A37.443,37.443,0,0,1,19.3,33.279a23.217,23.217,0,0,1-6.031,7.749c-1,.8-1.821,1.169-2.152.879-.683-.59-.569-4.955,1.521-9.011s7.749-6.952,8.328-6.321C21.325,26.968,21.387,27.692,20.87,29.327Z"/><path class="cls-25" d="M20.87,29.327A37.443,37.443,0,0,1,19.3,33.279a23.217,23.217,0,0,1-6.031,7.749A32.852,32.852,0,0,1,20.87,29.327Z"/><path class="cls-26" d="M26.609,91.006a5.421,5.421,0,0,1-1.618-1.77s0-.011-.024-.034c-1.815-2.926-2.867-8.013-.948-9.053,2.371-1.3,5.874-.625,7.458,3.584a.037.037,0,0,0,.011.023,2.841,2.841,0,0,1,.151.439.18.18,0,0,1,.023.07,1.263,1.263,0,0,0,.092.289c.047.15.093.3.128.462C32.864,89.028,29.257,92.613,26.609,91.006Z"/><path class="cls-27" d="M31.477,83.733c-.89-1.792-4.359-3.873-6.486-1.931-2.232,2.035-.209,6.937-.024,7.4-1.815-2.926-2.867-8.013-.948-9.053C26.39,78.854,29.893,79.524,31.477,83.733Z"/><path class="cls-28" d="M43.2,37.7a2.514,2.514,0,0,1-.675-.875s0-.006-.009-.017c-.72-1.414-1.006-3.792-.084-4.2,1.139-.5,2.722-.059,3.286,1.936a.019.019,0,0,0,.005.011,1.291,1.291,0,0,1,.052.208.079.079,0,0,1,.008.032.57.57,0,0,0,.031.137c.015.071.031.141.041.217C46.153,37.031,44.357,38.538,43.2,37.7Z"/><path class="cls-29" d="M45.721,34.545c-.339-.858-1.852-1.948-2.9-1.138-1.1.848-.365,3.178-.3,3.4-.72-1.414-1.006-3.792-.084-4.2C43.574,32.106,45.157,32.55,45.721,34.545Z"/><path class="cls-30" d="M84.226,114.166h-.018a1.242,1.242,0,0,1-.363.127c-.018.018-.037.036-.055.036a.714.714,0,0,0-.236.073c-.109.036-.235.072-.381.108a4.493,4.493,0,0,1-4.517-1.27,2.48,2.48,0,0,1-.49-2.957,4.34,4.34,0,0,1,1.433-1.361l.018-.018c2.377-1.542,6.55-2.5,7.439-.943a3.381,3.381,0,0,1,.472,1.379C87.8,111.081,86.911,113.1,84.226,114.166Z"/><path class="cls-31" d="M39.07,84s3.294,5.254,12.328,4.707,10.678-4.967,11.226-8.563-.961-8.02-.961-8.02S41.7,75.9,39.07,84Z"/><path class="cls-32" d="M87.528,109.34c-.744-.635-2.286-1.415-4.808-.617a5.413,5.413,0,0,0-4.064,4.517,2.48,2.48,0,0,1-.49-2.957,4.34,4.34,0,0,1,1.433-1.361l.018-.018c2.377-1.542,6.55-2.5,7.439-.943A3.381,3.381,0,0,1,87.528,109.34Z"/><path class="cls-33" d="M62.105,77.212l-.011.2c.023,13.991-20.94,12.279-24.223,4.833a20.251,20.251,0,0,1-1.122-3.376v-.011c-1.85-7.493-.693-17.529,2.648-19.83,3.515-2.416,10.267-2.474,15.181,0C60.117,61.811,62.3,70.147,62.105,77.212Z"/><path class="cls-34" d="M62.105,77.212l-.011.2s.312-8.752-3.92-13.423S45.467,58,40.623,63.256c-4.718,5.134-3.92,15.124-3.874,15.6-1.85-7.493-.693-17.529,2.648-19.83,3.515-2.416,10.267-2.474,15.181,0C60.117,61.811,62.3,70.147,62.105,77.212Z"/><path class="cls-35" d="M101.405,33.171c-1.191.636-4.012-1.121-6.59-3.318-3.134-2.694-5.885-6.059-4.81-6.544,1.468-.659,6.868-.22,9.354,1.827a10.378,10.378,0,0,1,2.694,3.607C102.827,30.535,102.9,32.362,101.405,33.171Z"/><path class="cls-36" d="M102.053,28.743c-.012-.012-.023-.035-.035-.046-3.9-5.9-9.928-5.641-10.367-4.034s3.164,5.19,3.164,5.19c-3.134-2.694-5.885-6.059-4.81-6.544,1.468-.659,6.868-.22,9.354,1.827A10.378,10.378,0,0,1,102.053,28.743Z"/><path class="cls-37" d="M13.125,44.106S22.04,39.633,22.977,30.8C22.977,30.8,18.48,39.891,13.125,44.106Z"/><path class="cls-37" d="M79.58,87.907s.879-17.713,13.689-28.153C93.269,59.754,77.9,67.105,79.58,87.907Z"/><path class="cls-38" d="M57.6,22.688s2.4,3.647,10.614,3.368,10.907-4.028,11.366-5.033c0,0-2.038,6.287-11.32,6.068C58.464,26.86,57.6,22.688,57.6,22.688Z"/><path class="cls-38" d="M40.625,111.941S53.077,116.966,55.6,124.2C55.6,124.2,55.322,115.9,40.625,111.941Z"/><path class="cls-39" d="M113.661,72.1v.023s-4.23-7.3-15.966-4.1C87.174,70.889,82.628,84.427,81.8,87.375a23.036,23.036,0,0,1,.786-8.961c1.4-4.671,8.9-15.62,17.494-17.158a11.09,11.09,0,0,1,9.353,2.648A11.721,11.721,0,0,1,113.661,72.1Z"/><path class="cls-40" d="M127.912,130.749a13.048,13.048,0,0,1-15.175,10.53c-.228-.041-.458-.088-.68-.142h0c-.333-.077-.661-.17-.982-.27a12.971,12.971,0,0,1-6.043-4.077,13.324,13.324,0,0,1-2.336-4.148c-.053-.155-.1-.313-.153-.47a.027.027,0,0,0,0-.015c-.051-.169-.1-.337-.138-.507h0a12.609,12.609,0,0,1-.3-1.623,11.72,11.72,0,0,1-.093-1.205v-.011c-.007-.285-.006-.57.006-.857a12.951,12.951,0,0,1,.2-1.846c.064-.356.142-.709.237-1.05.057-.219.121-.435.19-.649a12.8,12.8,0,0,1,1.677-3.4,13.076,13.076,0,0,1,13.069-5.431c.136.025.271.052.4.079s.286.063.428.1a13.117,13.117,0,0,1,2.1.715c.389.172.767.358,1.133.564.25.137.492.285.731.44.178.116.349.234.521.357.029.022.059.042.089.064a13.088,13.088,0,0,1,2.932,2.983c.117.162.227.327.337.5.072.113.143.23.212.346.118.2.23.4.34.6a13.015,13.015,0,0,1,1.491,5.267A13.009,13.009,0,0,1,127.912,130.749Z"/><path class="cls-41" d="M118.589,114.357a7.678,7.678,0,0,0-7.12,5.024c-2.054,5.475,5.989,13.868,11.115,13.794s6.42-6.524,5.648-9.968C127.3,119.023,123.356,115.719,118.589,114.357Z"/><path class="cls-42" d="M113.381,119.111c-1.54,4.818,7.276,15.945,12.952,11.058,5.393-4.643-.559-12.866-2.977-14.45S115.455,112.623,113.381,119.111Z"/><path class="cls-43" d="M127.323,126.623c-.088.224-.187.438-.281.639-1.385,2.836-3.533,3.314-5.423,2.916a7.616,7.616,0,0,1-3.025-1.442c-1.451-1.152-4.314-5.562-3.757-9.233a5.068,5.068,0,0,1,2.114-3.454,3.992,3.992,0,0,1,3.4-.686C124.616,116.377,128.6,123.451,127.323,126.623Z"/><path class="cls-44" d="M127.042,127.262c-2.269,4.633-6.566,2.969-8.448,1.474-1.451-1.152-4.314-5.562-3.757-9.233a5.209,5.209,0,0,1,1.61-1.854C121.228,114.164,127.466,122.788,127.042,127.262Z"/><path class="cls-45" d="M120.348,115.363l.008,0s-3.086.8-3.463,5.949c-.339,4.619,3.8,8.156,4.726,8.863a7.616,7.616,0,0,1-3.025-1.442c-1.451-1.152-4.314-5.562-3.757-9.233a5.068,5.068,0,0,1,2.114-3.454A3.992,3.992,0,0,1,120.348,115.363Z"/><path class="cls-46" d="M77.675,16.163a3.886,3.886,0,0,1,0,.9c-2.2-3.226-6.244-3.943-11.343-2.844a11.471,11.471,0,0,0-7.353,5.746c-.983-3.85,2.451-6.937,4.729-8.128C66.517,10.359,77.051,8.844,77.675,16.163Z"/></g></g></g></g></svg>