<svg xmlns="http://www.w3.org/2000/svg" xmlns:xlink="http://www.w3.org/1999/xlink" viewBox="0 0 158.522 158.522"><defs><style>.cls-1{isolation:isolate;}.cls-10,.cls-11,.cls-12,.cls-15,.cls-17,.cls-2,.cls-28,.cls-29,.cls-3,.cls-4,.cls-7,.cls-8,.cls-9{mix-blend-mode:screen;}.cls-2{fill:url(#radial-gradient);}.cls-3{fill:url(#radial-gradient-2);}.cls-4{fill:url(#radial-gradient-3);}.cls-10,.cls-11,.cls-12,.cls-13,.cls-14,.cls-15,.cls-16,.cls-17,.cls-18,.cls-19,.cls-20,.cls-21,.cls-22,.cls-23,.cls-24,.cls-25,.cls-26,.cls-27,.cls-28,.cls-29,.cls-30,.cls-31,.cls-5,.cls-6,.cls-7,.cls-8,.cls-9{fill-rule:evenodd;}.cls-5{fill:url(#Áåçûìÿííûé_ãðàäèåíò_460);}.cls-6{fill:url(#Áåçûìÿííûé_ãðàäèåíò_460-3);}.cls-7{fill:url(#Áåçûìÿííûé_ãðàäèåíò_494);}.cls-8{fill:url(#Áåçûìÿííûé_ãðàäèåíò_494-2);}.cls-9{fill:url(#Áåçûìÿííûé_ãðàäèåíò_494-3);}.cls-10{fill:url(#Áåçûìÿííûé_ãðàäèåíò_494-4);}.cls-11{fill:url(#Áåçûìÿííûé_ãðàäèåíò_494-5);}.cls-12{fill:url(#Áåçûìÿííûé_ãðàäèåíò_494-6);}.cls-13,.cls-14{fill:#7d72b3;}.cls-13,.cls-21,.cls-28,.cls-29{opacity:0.5;}.cls-13,.cls-14,.cls-21{mix-blend-mode:multiply;}.cls-14{opacity:0.4;}.cls-15{fill:url(#Áåçûìÿííûé_ãðàäèåíò_494-7);}.cls-16{fill:#00c4ff;}.cls-17{fill:url(#Áåçûìÿííûé_ãðàäèåíò_486);}.cls-18{fill:url(#Áåçûìÿííûé_ãðàäèåíò_469);}.cls-19{fill:url(#Áåçûìÿííûé_ãðàäèåíò_479);}.cls-20{fill:#ff61c7;}.cls-21{fill:#54469b;}.cls-22{fill:#b04fe2;}.cls-23{fill:#8b40e0;}.cls-24{fill:#ff77f4;}.cls-25{fill:#ea9cf4;}.cls-26{fill:#d374f4;}.cls-27{fill:#f2c4f8;}.cls-28{fill:url(#linear-gradient);}.cls-29{fill:url(#linear-gradient-2);}.cls-30{fill:#fffff8;}.cls-31{fill:#f5cefa;}</style><radialGradient id="radial-gradient" cx="79.261" cy="79.261" r="79.261" gradientUnits="userSpaceOnUse"><stop offset="0" stop-color="#e213ff"/><stop offset="1" stop-opacity="0"/></radialGradient><radialGradient id="radial-gradient-2" cx="84.511" cy="83.775" r="66.801" gradientTransform="translate(139.646 -21.679) rotate(72.853)" xlink:href="#radial-gradient"/><radialGradient id="radial-gradient-3" cx="78.553" cy="78.105" r="63.746" gradientTransform="translate(78.236 -32.669) rotate(45)" xlink:href="#radial-gradient"/><radialGradient id="Áåçûìÿííûé_ãðàäèåíò_460" cx="38.359" cy="54.414" r="97.795" gradientUnits="userSpaceOnUse"><stop offset="0.006" stop-color="#ff9aff"/><stop offset="0.093" stop-color="#fb94ff"/><stop offset="0.209" stop-color="#f183ff"/><stop offset="0.342" stop-color="#e068ff"/><stop offset="0.486" stop-color="#c841ff"/><stop offset="0.639" stop-color="#a910ff"/><stop offset="0.684" stop-color="#9f00ff"/><stop offset="0.743" stop-color="#9900f8"/><stop offset="0.828" stop-color="#8700e5"/><stop offset="0.929" stop-color="#6a00c6"/><stop offset="1" stop-color="#5200ab"/></radialGradient><radialGradient id="Áåçûìÿííûé_ãðàäèåíò_460-3" cx="41.132" cy="48.755" r="96.132" xlink:href="#Áåçûìÿííûé_ãðàäèåíò_460"/><radialGradient id="Áåçûìÿííûé_ãðàäèåíò_494" cx="53.774" cy="38.588" r="21.495" gradientUnits="userSpaceOnUse"><stop offset="0" stop-color="#fff"/><stop offset="1" stop-color="#623964"/></radialGradient><radialGradient id="Áåçûìÿííûé_ãðàäèåíò_494-2" cx="57.194" cy="46.358" r="7.478" xlink:href="#Áåçûìÿííûé_ãðàäèåíò_494"/><radialGradient id="Áåçûìÿííûé_ãðàäèåíò_494-3" cx="52.595" cy="45.666" r="7.88" xlink:href="#Áåçûìÿííûé_ãðàäèåíò_494"/><radialGradient id="Áåçûìÿííûé_ãðàäèåíò_494-4" cx="47.021" cy="38.077" r="18.202" xlink:href="#Áåçûìÿííûé_ãðàäèåíò_494"/><radialGradient id="Áåçûìÿííûé_ãðàäèåíò_494-5" cx="39.241" cy="31.002" r="30.861" xlink:href="#Áåçûìÿííûé_ãðàäèåíò_494"/><radialGradient id="Áåçûìÿííûé_ãðàäèåíò_494-6" cx="50.679" cy="35.89" r="43.001" xlink:href="#Áåçûìÿííûé_ãðàäèåíò_494"/><radialGradient id="Áåçûìÿííûé_ãðàäèåíò_494-7" cx="37.271" cy="36.207" r="72.648" xlink:href="#Áåçûìÿííûé_ãðàäèåíò_494"/><radialGradient id="Áåçûìÿííûé_ãðàäèåíò_486" cx="59.047" cy="99.477" r="57.257" gradientUnits="userSpaceOnUse"><stop offset="0" stop-color="#ffff4a"/><stop offset="1" stop-color="#360038"/></radialGradient><radialGradient id="Áåçûìÿííûé_ãðàäèåíò_469" cx="36.5" cy="121.568" r="6.18" gradientUnits="userSpaceOnUse"><stop offset="0" stop-color="#6d00c2"/><stop offset="0.399" stop-color="#6600bc"/><stop offset="0.976" stop-color="#5300ac"/><stop offset="1" stop-color="#5200ab"/></radialGradient><radialGradient id="Áåçûìÿííûé_ãðàäèåíò_479" cx="136.444" cy="85.637" r="6.454" gradientUnits="userSpaceOnUse"><stop offset="0" stop-color="#1f0081"/><stop offset="0.73" stop-color="#260087"/><stop offset="1" stop-color="#2a008b"/></radialGradient><linearGradient id="linear-gradient" x1="41.239" y1="58.409" x2="49.599" y2="58.409" gradientUnits="userSpaceOnUse"><stop offset="0" stop-color="#bdffe8"/><stop offset="0.201" stop-color="#8bbbaa" stop-opacity="0.734"/><stop offset="0.415" stop-color="#5a796e" stop-opacity="0.475"/><stop offset="0.611" stop-color="#33453f" stop-opacity="0.271"/><stop offset="0.779" stop-color="#171f1d" stop-opacity="0.123"/><stop offset="0.915" stop-color="#060808" stop-opacity="0.033"/><stop offset="1" stop-opacity="0"/></linearGradient><linearGradient id="linear-gradient-2" x1="21.316" y1="66.459" x2="58.301" y2="66.459" xlink:href="#linear-gradient"/></defs><title>planet-14</title><g class="cls-1"><g id="Layer_2" data-name="Layer 2"><g id="planets"><g id="planet-14"><circle class="cls-2" cx="79.261" cy="79.261" r="79.261"/><circle class="cls-3" cx="84.511" cy="83.775" r="66.801" transform="translate(-20.457 139.83) rotate(-72.853)"/><circle class="cls-4" cx="78.553" cy="78.105" r="63.746" transform="translate(-32.221 78.422) rotate(-45)"/><path class="cls-5" d="M139.86,92.766l-.455,1.629a2.3,2.3,0,0,1-.063.228A63.583,63.583,0,0,1,78.19,140.439c-1.124,0-2.274-.025-3.385-.088h-.013c-1.667-.089-3.322-.24-4.952-.442A63.184,63.184,0,0,1,40.926,128.4c-.784-.569-1.554-1.15-2.3-1.743,1.465-1.263,4.56-1.39,4.56-1.39l-4.308-3.423-10.8-5.811a62.343,62.343,0,0,1-5.583-8.35q-.588-1.041-1.137-2.122c0-.025-.026-.038-.038-.063q-.569-1.156-1.1-2.312h-.013a62.909,62.909,0,0,1-2.855-7.528c-.581-1.857-1.086-3.765-1.49-5.71a.076.076,0,0,1-.013-.051c-.278-1.351-.518-2.728-.707-4.118a62.617,62.617,0,0,1-.645-9.032c0-.707.013-1.427.038-2.122.026-1.048.089-2.1.19-3.12.076-1.023.189-2.046.316-3.057a1.5,1.5,0,0,1,.025-.227c.189-1.415.417-2.792.707-4.169a56.846,56.846,0,0,1,1.478-5.848,58.534,58.534,0,0,1,2.918-7.769A61.581,61.581,0,0,1,23.923,43.4c4.345-2.3,7.124-3.5,7.124-3.5s74.15-14.716,75.3-15.98,6.758-.467,6.758-.467a64.691,64.691,0,0,1,9.689,7.807c.7.669,1.364,1.376,2.046,2.084.442.48.884.985,1.314,1.478.733.834,1.453,1.7,2.148,2.577a63.283,63.283,0,0,1,6.644,10.383c.732,1.415,1.4,2.868,2.021,4.346,0,.012.013.025.013.038a75.975,75.975,0,0,1-1.339,41.37A14.473,14.473,0,0,1,139.86,92.766Z"/><path class="cls-5" d="M139.86,92.766l-.455,1.629a2.3,2.3,0,0,1-.063.228A63.583,63.583,0,0,1,78.19,140.439c-1.124,0-2.274-.025-3.385-.088h-.013c-1.667-.089-3.322-.24-4.952-.442A63.184,63.184,0,0,1,40.926,128.4c-.784-.569-1.554-1.15-2.3-1.743,1.465-1.263,4.56-1.39,4.56-1.39l-4.308-3.423-10.8-5.811a62.343,62.343,0,0,1-5.583-8.35q-.588-1.041-1.137-2.122c0-.025-.026-.038-.038-.063q-.569-1.156-1.1-2.312h-.013a62.909,62.909,0,0,1-2.855-7.528c-.581-1.857-1.086-3.765-1.49-5.71a.076.076,0,0,1-.013-.051c-.278-1.351-.518-2.728-.707-4.118a62.617,62.617,0,0,1-.645-9.032c0-.707.013-1.427.038-2.122.026-1.048.089-2.1.19-3.12.076-1.023.189-2.046.316-3.057a1.5,1.5,0,0,1,.025-.227c.189-1.415.417-2.792.707-4.169a56.846,56.846,0,0,1,1.478-5.848,58.534,58.534,0,0,1,2.918-7.769A61.581,61.581,0,0,1,23.923,43.4c4.345-2.3,7.124-3.5,7.124-3.5s74.15-14.716,75.3-15.98,6.758-.467,6.758-.467a64.691,64.691,0,0,1,9.689,7.807c.7.669,1.364,1.376,2.046,2.084.442.48.884.985,1.314,1.478.733.834,1.453,1.7,2.148,2.577a63.283,63.283,0,0,1,6.644,10.383c.732,1.415,1.4,2.868,2.021,4.346,0,.012.013.025.013.038a75.975,75.975,0,0,1-1.339,41.37A14.473,14.473,0,0,1,139.86,92.766Z"/><path class="cls-6" d="M138.041,76.748a58.169,58.169,0,0,1-.379,6.67,56.982,56.982,0,0,1-1.958,9.9,1.455,1.455,0,0,1-.063.215A59.769,59.769,0,0,1,78.19,136.586c-1.061,0-2.135-.025-3.183-.088h-.013c-1.566-.076-3.12-.227-4.648-.417a59.291,59.291,0,0,1-27.159-10.813c-1.175-.834-2.312-1.73-3.411-2.653-.3-.252-.606-.5-.9-.77a61.018,61.018,0,0,1-13.011-16.03c-.366-.657-.72-1.327-1.073-2,0-.025-.013-.038-.026-.063-.366-.72-.707-1.44-1.036-2.173h-.012a57.343,57.343,0,0,1-2.678-7.074,53.676,53.676,0,0,1-1.4-5.356.073.073,0,0,1-.013-.05c-.265-1.276-.493-2.565-.669-3.866a58.784,58.784,0,0,1-.607-8.489c0-.669.013-1.339.038-2,.025-.986.089-1.971.177-2.931s.177-1.92.3-2.868a1.313,1.313,0,0,1,.025-.214c.177-1.327.392-2.628.657-3.916a53.087,53.087,0,0,1,1.39-5.495,55.457,55.457,0,0,1,2.741-7.3,59.46,59.46,0,0,1,4-7.39,54.441,54.441,0,0,1,3.36-4.737,58.964,58.964,0,0,1,5.432-6.064A59.625,59.625,0,0,1,78.19,16.9c.632,0,1.263.012,1.882.025.67.025,1.339.051,2.009.1,1.857.126,3.7.329,5.507.619.026,0,.038.013.064.013,1.515.227,3.006.53,4.471.884,1.895.455,3.752.985,5.571,1.617,1.238.417,2.451.884,3.651,1.39.9.378,1.768.77,2.64,1.187.151.076.3.139.455.215a59.981,59.981,0,0,1,15.651,11.065c.656.632,1.288,1.289,1.92,1.958.417.455.833.922,1.238,1.39.694.783,1.364,1.6,2.021,2.425a59.547,59.547,0,0,1,12.493,31.239A57.248,57.248,0,0,1,138.041,76.748Z"/><path class="cls-7" d="M48.972,52.9a10.359,10.359,0,0,0-.265,7.112c1.322,3.582,5.032,1.2,9.46,0s8.975-5.86,11.848-8.738,5.624-6.827,5.385-10.657-4.282-6.344-4.282-6.344,1.47-1.875.235,5.629-2.915,10.181-4.52,11.372-6.492,4.039-9.157,5.631-5.642,3.246-7.407,2.86S47.573,55.413,48.972,52.9Z"/><path class="cls-8" d="M57.083,50.315s-2.267,2.013-1.668,3.637,4.906.583,7.659-2.906.577-6.306.577-6.306-1.011,5.822-3.689,6.846-3.55.593-3.55.593S56,51.71,57.083,50.315Z"/><path class="cls-9" d="M50.216,52.829s2.207-2.5,4.72-4.844S61.8,44.74,61.8,44.74a6.192,6.192,0,0,0-5.791.547C52.756,47.179,50.216,52.829,50.216,52.829Z"/><path class="cls-10" d="M41.2,52.874s5.116-5.686,11.338-8.134,8.378-3.166,11.13-5.44a50.967,50.967,0,0,1,5.86-4.094s-6.057.309-15.314,6.173S41.178,50.966,41.2,52.874Z"/><path class="cls-11" d="M28.724,51.743s8.86-8.853,15.8-12.324,11.609-5.744,17.832-7.3S78.2,27.85,78.2,27.85l1.737-.872s-19.787.4-32.776,8.228S28.724,51.743,28.724,51.743Z"/><path class="cls-12" d="M39.345,61.95s1.475,12.227,3.6,12.777,9.752.493,21.084-5.3,13.634-4.456,19.985-10.912S92.94,44.728,94.906,39.9s2.541-10.337,1.929-12.051c0,0,2.14,1.278,2.14,6.065A52.788,52.788,0,0,1,95.505,51.4c-2.035,4.655-7.3,11.955-13.643,15.545S62.834,77.428,50.388,77.332s-10.479-1-11.761-3.478S39.345,61.95,39.345,61.95Z"/><path class="cls-13" d="M19.944,72.39a76.8,76.8,0,0,1,3.469,9.435c1.246,4.506,1.007,12.165,6.152,13.362S41.892,99.734,44.644,98.9s12.915-2.66,18.549-1.555,15.917.478,19.507-1.317,11.319-6.4,14.994-7.809,8.75-5.406,13.123-9.85,4.314-9.506,5.391-12.019,3.231-12.566,2.992-17.113-2.992-13.045-2.992-13.045l-2.56-2.7s3.158,11.68,1.722,19.937-.119,11.608-5.864,19.507A47.138,47.138,0,0,1,86.769,90.041c-8.976,2.992-14.729,2.631-24.054,3.5-8.7.806-19.528.19-23.836-.932a21.75,21.75,0,0,1-13.023-9.9C21.907,76.4,19.944,72.39,19.944,72.39Z"/><path class="cls-14" d="M39.738,59.465s.823,13.277,2.513,14.42,5.265,1.616,8.616.479,14.839-4.907,16.814-6.1,14.072-7.24,16.455-9.035,5.565-8.18,6.642-9.505,4.009-9.223,4.846-12.215,1.436-6.582,1.436-6.582a2.081,2.081,0,0,0-1.2-2.214c-1.436-.539-1.674,0-1.674,0s-.3,1.975-1.557,7.659S74.442,61.559,65.886,66.645,49.192,71.91,46.26,71.551,39.678,61.738,39.738,59.465Z"/><path class="cls-14" d="M39.345,61.95s.352-8.268,2.487-11.042,9.3-8.5,13.536-10.651S65.773,35.05,67.92,34.6a8.055,8.055,0,0,1,3.66,0s-2.583-1.4-8.506.1-12.626,7-15.857,8.707-8.257,5.833-9.454,7.927S39.345,61.95,39.345,61.95Z"/><path class="cls-14" d="M24.786,53.234,43.148,37.146,54.522,32s11.244-3.82,16.39-5.022,16.694-1.56,16.694-1.56l6.055.658s-10.535-5.744-26.1-1.556S41.652,33.939,37.1,38.235,25.692,51.133,24.786,53.234Z"/><path class="cls-15" d="M24.272,53.952s-9.865,11.906-5.078,19.233,6.9,17.894,8.291,20.352,17.272,6.15,20.57,5.387,11.209-2.838,16.385-.835c0,0,9.165-.788,11.8-.788s7.419-2.234,8.536-2.793,7.34-2.553,10.531-3.829,8.3-5.266,10.372-6.861a55.454,55.454,0,0,0,8.536-10.053c1.038-1.994,4.143-13.643,4.947-19.147S117.6,38.5,115.809,34.832s-7.42-7.1-7.42-7.1l.328-1.659,4.388-2.618s7.651,10.03,8.369,18.692c.421,5.079,1.595,15.913.259,20.562-1.072,3.733-4.727,14.706-7.919,18.626S101.05,95.258,95.944,97.2s-20.168,4.55-29.041,4.731c-6.54.134-20.944-1.036-28.024-1.276s-12.142-4.675-14.956-6.925-1.857-8.374-4.729-13.211-4.455-11.269-3.743-14.77S24.272,53.952,24.272,53.952Z"/><path class="cls-16" d="M41.6,99.284c-1.516-.354-2.88-1.187-4.383-1.566-.846-.2-1.68-.329-2.514-.569a11.783,11.783,0,0,0-2.64-.442A5.779,5.779,0,0,1,27.4,94.762,12.775,12.775,0,0,1,25.35,90.48c-.593-2.123-1.162-4.245-1.819-6.367a22.845,22.845,0,0,0-2.526-5.432c-.429-.695-.8-1.389-1.263-2.059a14.059,14.059,0,0,1-1.352-1.869l-.012-.013A12.436,12.436,0,0,1,17.3,69.093a15.484,15.484,0,0,1,.543-3.019,12.747,12.747,0,0,1,1.288-3.549c.607-1.049,1.2-2.122,1.807-3.2a55.146,55.146,0,0,1,4.446-6.885A97.344,97.344,0,0,1,32.4,44.676a39.092,39.092,0,0,1,4.636-3.9c1.364-1.01,2.627-2.122,3.979-3.145a43.431,43.431,0,0,1,7.579-4.181c3.146-1.516,6.291-2.981,9.563-4.181A83.112,83.112,0,0,1,70.068,25.9a70.061,70.061,0,0,1,14.173-1.1c2.577.012,5.331-.316,7.794.644a21.267,21.267,0,0,1,4.219,1.92,1.685,1.685,0,0,1,.581.48,2,2,0,0,1,.24.53,5.068,5.068,0,0,1,.417,1.643c0,.518-.227.972-.227,1.515.012.771-.19,1.466-.215,2.224a21.721,21.721,0,0,1-.379,2.4,20.093,20.093,0,0,1-1.086,4.547c-.885,2.135-1.466,4.384-2.438,6.493-.291.644-.809,1.137-1.1,1.781-.278.581-.531,1.061-.859,1.617-.619,1.036-1.125,2.11-1.832,3.095a30.635,30.635,0,0,1-4.889,5.785A43.874,43.874,0,0,1,76.9,64.407c-1.743.922-3.562,1.667-5.331,2.552-1.579.783-3.158,1.591-4.75,2.337a101.776,101.776,0,0,1-12.733,4.661,22.335,22.335,0,0,1-3.676.985,24.5,24.5,0,0,1-3.688.518,13.237,13.237,0,0,1-3.777-.733c-2.047-.682-2.249-2.905-2.4-4.749a37.383,37.383,0,0,0-.531-4.106c-.2-1.1-.29-2.185-.543-3.3a16.482,16.482,0,0,1-.43-3.423,17.987,17.987,0,0,1,.872-4.27,16,16,0,0,1,.7-2.753,9.951,9.951,0,0,1,2.6-3.323c1.049-.934,2.084-1.857,3.12-2.8.619-.581,1.352-1.01,2.009-1.541a21.45,21.45,0,0,1,3.739-2.312,33.524,33.524,0,0,0,2.753-2.033,34.291,34.291,0,0,1,3.158-1.857c.923-.455,1.921-.771,2.881-1.15.783-.3,1.5-.758,2.3-1.023.732-.253,1.49-.329,2.21-.632a16.284,16.284,0,0,1,2.11-.745,13.247,13.247,0,0,1,2.577-.568c1.642-.026,2.45.8,2.867,2.387.581,2.173-.088,4-.871,6.013-.632,1.617-1.327,3.221-1.946,4.863-.821,2.186-2.766,3.335-4.408,4.826a23.473,23.473,0,0,1-5.988,3.916c-.669.3-1.389.48-2.046.758-.569.252-1.124.568-1.693.871-.366.2-.632.493-.973.72-.3.2-.657.316-.972.518a15.946,15.946,0,0,1-2.388,1.364c-.808.367-2.412.581-2.943-.366a6.207,6.207,0,0,1-.366-1.693,7.882,7.882,0,0,1-.177-1.895,10.707,10.707,0,0,1,.227-1.806,11.034,11.034,0,0,1,.581-1.718,17.2,17.2,0,0,1,2.843-4.408,27.88,27.88,0,0,1,2-2.615,8.689,8.689,0,0,1,4.346-2.223c1.44-.354,3.587-.784,4.914.05,1.124.7.341,2.223-.026,3.158-.2.518-.416,1.048-.593,1.579a5.474,5.474,0,0,1-.405,1.213,9.532,9.532,0,0,1-2.084,1.933,4.515,4.515,0,0,1-1.2.77c-.48.152-1,.139-1.478.253-.24.05-.366.353-.657.24-.265-.089-.265-.392-.215-.67.051-.253.165-.505.215-.745.013-.051-.05-.139-.038-.2a10.459,10.459,0,0,1,1.579-2.312c.682.278.215.682.089.985a7.142,7.142,0,0,0-.139.758c-.051.215-.379.607-.139.834.164.164.72-.126.9-.189a5.355,5.355,0,0,0,2.867-3.575c.291-.948.24-2.59-.808-3.007a7.5,7.5,0,0,0-2.552-.151c-2.968-.051-4.724,3.12-6.3,5.166a17.356,17.356,0,0,0-2.5,4.611,33.868,33.868,0,0,0-.91,3.461c-.227.846-.5,2.148.8,1.971a14.872,14.872,0,0,0,2.3-.758,11.6,11.6,0,0,0,1.781-.758c.935-.506,1.983-.644,2.956-1.074.758-.341,1.528-.758,2.286-1.124a17.336,17.336,0,0,0,5.23-4.548,40.9,40.9,0,0,1,3.246-2.993A15.817,15.817,0,0,0,69.676,44.8a14.465,14.465,0,0,0,1.453-4.1c.3-1.314,1.086-2.8.682-4.169-.429-1.415-2.248-1.44-3.423-1.238a14.918,14.918,0,0,0-2.969.7C63.7,36.667,62.008,37.4,60.3,38.1c-2.69,1.111-4.926,2.943-7.389,4.446a36.6,36.6,0,0,0-3.765,2.248c-.859.67-1.68,1.453-2.5,2.186a18.293,18.293,0,0,1-1.718,1.554A10.37,10.37,0,0,0,42.606,50.6a8.959,8.959,0,0,0-1.4,2.274,4.843,4.843,0,0,0,.025,1.907,25.9,25.9,0,0,1-.24,2.615c-.038.935,0,1.895.012,2.83,0,1.831-.277,3.612-.24,5.469a20.277,20.277,0,0,0,.506,3.462,20.178,20.178,0,0,1,.606,2.589,2.29,2.29,0,0,0,.644,1.756,3.539,3.539,0,0,0,.872.354c.265.1.5.189.758.265.139.051.29.076.442.126.114.063.2.228.316.278a2.061,2.061,0,0,0,1.074-.012c.732-.139,1.452-.316,2.185-.443,1.831-.315,3.688-.277,5.432-.934,2.008-.758,3.878-1.845,5.861-2.653,2.968-1.213,6.152-2.1,8.994-3.625,1.276-.7,2.6-1.339,3.916-1.933,3.12-1.4,6.392-2.539,9.133-4.649A23.839,23.839,0,0,0,84.241,57.6c.5-.543,1.048-1.023,1.5-1.617A39.623,39.623,0,0,0,89.4,50.4c.442-.821.707-1.718,1.162-2.539.707-1.276,1.566-2.4,2.223-3.714A25.941,25.941,0,0,0,94.233,40.2a6.766,6.766,0,0,0,.429-2.4,11.25,11.25,0,0,1,.872-4.914,5.265,5.265,0,0,0,.657-3.2c-.152-.492-.859-.619-1.289-.758-1.01-.341-2.059-.594-3.031-1.023a10.241,10.241,0,0,0-2.527-1.048,4.613,4.613,0,0,0-1.1-.114c-.947.05-1.768.707-2.716.669a5.337,5.337,0,0,1-.859-.177,9.969,9.969,0,0,0-1.5-.037c-1.086-.038-2.135-.24-3.234-.228-1.288.013-2.551.127-3.84.2-1.2.063-2.412-.038-3.612,0a4.856,4.856,0,0,0-1.933.683c-.619.277-1.314.391-1.958.631a5.109,5.109,0,0,1-1.7.455,12.837,12.837,0,0,0-2.514.063,18.85,18.85,0,0,0-2.982,1.036c-2.69,1.149-5.3,2.589-8.1,3.474-1.351.417-2.741.606-4.054,1.136a8.48,8.48,0,0,0-1.365.847c-.884.594-1.806,1.137-2.716,1.7-2.033,1.289-3.966,2.7-5.9,4.144a39.324,39.324,0,0,0-6.328,5.532,134.506,134.506,0,0,0-9.55,11.723,39.261,39.261,0,0,0-3.828,6.215c-.025.05-.038.088-.063.139a7.477,7.477,0,0,0-.631,3.916.164.164,0,0,0,.012.075,14.118,14.118,0,0,0,1.074,3.436,27.252,27.252,0,0,0,1.377,3.045,23.343,23.343,0,0,1,1.932,3.057c.544,1.4,1.036,2.905,1.453,4.358a53.557,53.557,0,0,1,1.3,5.6,12.633,12.633,0,0,0,.96,3.4c.771,1.49,2.413,2.046,3.752,2.918a3.508,3.508,0,0,0,2.059.657,14.954,14.954,0,0,1,3.486.694,23.962,23.962,0,0,0,7.479,1.276,38.031,38.031,0,0,0,4.484-.619c1.4-.177,2.8-.316,4.194-.543a24.062,24.062,0,0,1,3.789-.556,14.7,14.7,0,0,1,3.777.531,20.612,20.612,0,0,0,6.367.96c1.339-.038,2.653-.341,3.979-.43a27.5,27.5,0,0,1,3.676.2,17.013,17.013,0,0,0,6.354-1.074,18.47,18.47,0,0,0,3.815-1.87,11.254,11.254,0,0,1,3.095-1.061,27.111,27.111,0,0,0,6.3-2.488c2.577-1.466,4.7-3.626,7.2-5.192,1.415-.884,3.007-1.466,4.384-2.413a21.119,21.119,0,0,0,3.17-2.64c1.124-1.137,2.186-2.324,3.31-3.461a9.885,9.885,0,0,0,1.7-3.045,17.919,17.919,0,0,0,1.3-5,18.889,18.889,0,0,1,1.794-4.825,18.23,18.23,0,0,0,1.958-6.215c.164-1.7.392-3.423.392-5.141a25.679,25.679,0,0,0-.329-3.26c-.139-1.01-.341-1.983-.556-2.981-.278-1.225-.24-2.488-.467-3.726-.2-1.061-.531-2.185-.821-3.234a17.183,17.183,0,0,0-.783-2.223,14.974,14.974,0,0,0-2.186-3.6,6.246,6.246,0,0,0-1.288-.9c-.329-.253-.4-.468-.783-.657-.531-.265-1.061-.53-1.579-.821-.834-.48-1.781-.619-2.615-1.074-.8-.429-1.516-1-2.274-1.478a14.578,14.578,0,0,1-2.476-1.617c-.732-.707-1.212-1.6-1.92-2.311a23.786,23.786,0,0,0-2.577-1.845c-1.427-1.111-3.107-1.2-4.712-1.882a11.891,11.891,0,0,0-2.463-.581c-.972-.2-1.629-.8-2.665-.909a16.443,16.443,0,0,1-2.729-.367,10.059,10.059,0,0,0-1.591-.315,15.572,15.572,0,0,0-3.171.164,26.221,26.221,0,0,1-2.817.05,15.107,15.107,0,0,1-2.387-.05,32.431,32.431,0,0,0-6.91-.152,23.875,23.875,0,0,0-6.278,1.011c-1.731.593-3.436,1.1-5.129,1.794a28.584,28.584,0,0,0-3.259,1.717c-2.615,1.466-5.015,3.26-7.5,4.927-2.779,1.844-5.394,3.891-8.072,5.9-1.743,1.314-3.512,2.615-5.23,3.966-.745.594-1.465,1.213-2.173,1.845a58.964,58.964,0,0,1,5.432-6.064A59.625,59.625,0,0,1,78.19,16.9c.632,0,1.263.012,1.882.025.67.025,1.339.051,2.009.1,1.857.126,3.7.329,5.507.619.026,0,.038.013.064.013q3.088.834,6.151,1.768c1.706.518,3.424.986,5.1,1.567,1.111.379,2.2.871,3.271,1.313a29.358,29.358,0,0,1,2.956,1.289,42.088,42.088,0,0,1,4.219,2.956,27.16,27.16,0,0,1,2.577,2.261,21.975,21.975,0,0,1,3.057,3.714,31.461,31.461,0,0,1,4.447,10.446,39.78,39.78,0,0,1,.442,9.651,33.055,33.055,0,0,1-.708,5.217,52.136,52.136,0,0,0-1.212,5.432c-.089.922.063,1.87-.089,2.779-.126.745-.4,1.466-.555,2.211a17.8,17.8,0,0,1-1.516,4.56,27.336,27.336,0,0,1-3.752,5.331c-1.6,1.907-3.322,3.739-4.99,5.608a24.75,24.75,0,0,1-5.861,4.687,35.439,35.439,0,0,1-5.23,2.93,22.682,22.682,0,0,1-5.52,1.857,7.074,7.074,0,0,0-3.688,1.529c-.695.5-1.213,1.187-1.857,1.73a5.6,5.6,0,0,1-1.958.885,15.124,15.124,0,0,1-5,.429,71.265,71.265,0,0,0-7.34.493,22.7,22.7,0,0,1-3.7.151c-1.111-.063-2.21-.353-3.31-.492-1.225-.152-2.45-.177-3.663-.367a8.341,8.341,0,0,0-2.69-.05c-.784.088-1.567,0-2.35.063-.808.076-1.6.253-2.413.366C48.8,98.476,45.347,100.168,41.6,99.284Z"/><path class="cls-17" d="M38.627,126.658s14.01,2.461,20.378,2.276c9.626-.279,20.722.917,29.338,1.157s23.676-6.825,26.429-8.12a51.728,51.728,0,0,0,15.2-11.52c5.8-6.432,8.09-16.914,8.09-16.914h-2.419a29.135,29.135,0,0,1-4.415,9.631c-2.1,3.056-5.182,5.731-9.393,9.371a54.442,54.442,0,0,1-21.9,11.249c-10.587,2.639-20,1.909-26.488,2.877-9.4,1.4-30.258-1.92-30.258-1.92Z"/><path class="cls-18" d="M34.929,119.719s2.234,5.811,3.7,6.939c0,0,3.076.188,4.56-1.39l-4.308-3.423Z"/><path class="cls-19" d="M138.239,82.7a74.526,74.526,0,0,1,1.621,10.063s-2.338,1.474-4.219.771C135.641,93.537,137.847,85.506,138.239,82.7Z"/><path class="cls-20" d="M97.694,20.157s12.488,1.252,15.411,3.3c0,0-2.066,2.314-4.388,2.618C108.717,26.072,98.59,20.455,97.694,20.157Z"/><path class="cls-20" d="M23.923,43.4l5.119-.807,2-2.692S27.375,41.516,23.923,43.4Z"/><path class="cls-21" d="M28.079,116.034s24.224,7.033,43.132,7.393,26.013-3.851,34.188-7.01,21.6-10.412,25.648-15.765S138.239,82.7,138.239,82.7s-3.887,18.893-7.247,22.24-18.374,13.46-21.007,14.776-9.786,6.748-22.725,5.237c0,0-8.7,1.226-11.846.986s-8.032,2.934-17.008.031c0,0-12.488-.629-15.219-1.228S28.079,116.034,28.079,116.034Z"/><path class="cls-22" d="M33.962,90.61s20.079,3.48,34.624,2S91,87.488,95.146,84.775s12.277-11.4,15.318-15.351,4.574-13.834,4.574-13.834.549,9.653-1.933,13.834-11.015,12.133-14.5,14.444-13.462,7.79-18.674,8.737S66.12,96.187,59.89,95.044,38.554,94.1,33.962,90.61Z"/><path class="cls-23" d="M61.8,122.753s20.9-1.438,28.082-3.034,16.622-5.479,23.225-7.9,11.591-7.216,15.23-9.878,8.3-13.724,8.3-13.724-2.977,10.967-7.548,14.546-16.272,10.136-29.49,16C84.91,125.281,73.485,123.427,61.8,122.753Z"/><path class="cls-16" d="M134.63,96.505c.328-1,.682-1.983,1.011-2.968a59.686,59.686,0,0,1-4.649,11.406l-.038.038c-.556.543-1.238.973-1.756,1.566s-1,1.188-1.566,1.744a56.956,56.956,0,0,1-9.07,7.124,69.9,69.9,0,0,1-10.244,5.786,55.53,55.53,0,0,1-8.565,2.993,36.624,36.624,0,0,1-7.326.986c-1.238.063-2.451.265-3.676.379-1.529.164-3.095.139-4.6.4a61.939,61.939,0,0,1-7.921.96c-2.261.126-4.51.442-6.771.442-2.905-.013-5.785-.467-8.69-.455-2.817.026-5.66-.1-8.464-.353-1.68-.165-3.322-.48-4.977-.67-1.4-.164-2.754-.467-4.143-.619-1.175-.834-2.312-1.73-3.411-2.653-.3-.252-.606-.5-.9-.77,1.592.5,3.171,1.048,4.775,1.554a41.109,41.109,0,0,0,7.125,1.414,17.506,17.506,0,0,0,6.126-.063c1.971-.492,3.436.139,5.23.872a24.765,24.765,0,0,0,2.552.758,7.457,7.457,0,0,0,3.385.113c1.1-.138,2.248-.328,3.347-.568.935-.2,1.832-.581,2.779-.707a17.21,17.21,0,0,1,5.028-.152,17.183,17.183,0,0,0,5.684.215,36.184,36.184,0,0,1,5.836-.531,10.437,10.437,0,0,1,1.9.177,7.582,7.582,0,0,0,2.135-.152,19.025,19.025,0,0,0,3.739-.719c1.162-.367,2.274-.885,3.411-1.314a28.1,28.1,0,0,0,6.2-2.994c1.655-1.112,3.487-1.9,5.167-2.969,1.6-1.035,3.031-2.336,4.674-3.322,1.73-1.048,3.309-2.337,4.964-3.512,1.048-.745,1.983-1.629,3.031-2.387.91-.657,1.908-1.175,2.754-1.92a16.1,16.1,0,0,0,3.752-4.257A25.825,25.825,0,0,0,134.63,96.505Z"/><path class="cls-24" d="M70.5,63.242S84.941,51.421,91.008,39.9C91.008,39.9,74.179,57.189,70.5,63.242Z"/><path class="cls-25" d="M55.314,77.333a54.527,54.527,0,0,0,19.212-4.148A34.3,34.3,0,0,0,89.674,60.3a66.991,66.991,0,0,1-14.26,10.175C67.98,74.124,62.356,75.016,55.314,77.333Z"/><path class="cls-25" d="M91.371,58.217s1.022-2.6,2.937-7.171a55.85,55.85,0,0,1,3.423-7.013A29.284,29.284,0,0,1,91.371,58.217Z"/><path class="cls-26" d="M52.192,101.378a76.447,76.447,0,0,0,29.191,0c16.515-3.08,17.233-4.085,21.781-7.651s7.778-8.134,9.573-9.859,4.055-7.716,4.055-7.716-4.67,8.394-11.363,14.014-12.2,8.372-23.447,10.047A162.791,162.791,0,0,1,52.192,101.378Z"/><path class="cls-26" d="M63.314,128.9s11.487.991,16.155,1.949,13.642.923,18.788-.975,15.34-7.355,15.34-7.355a60.925,60.925,0,0,1-20.845,6.535C81.42,130.251,74.526,128.336,63.314,128.9Z"/><path class="cls-26" d="M116.935,120.845a125.778,125.778,0,0,0,10.871-8.146A27.6,27.6,0,0,1,116.935,120.845Z"/><path class="cls-27" d="M61.53,58.512s8.323-6.263,10.964-10.79S75.4,40.616,75.4,40.616s1.176,4.4-3.82,10A34,34,0,0,1,61.53,58.512Z"/><path class="cls-28" d="M42.091,54.139c-.674,3.055-1.356,6.159-.319,9.1s2.633,4.859,4.149,5.018,3.749-3.43,3.67-4.467-2.474-3.75-2.633-6.463,2.8-6.7,2.635-8.217S43.2,49.114,42.091,54.139Z"/><path class="cls-29" d="M43.447,41.65c-1-1.074-7.726,5.223-12.4,10.093s-9.3,11.252-9.7,15.321S24.3,77.279,30.363,82.7s21.849,10.369,25.644,8.135,2.4-9.174-.693-10.85-13.143,1.7-17.85-3.246-2.581-11.593-1.995-17.178c.718-6.837,2.872-12.6,4.867-14.36A17.9,17.9,0,0,0,43.447,41.65Z"/><path class="cls-30" d="M22.824,62.708c-1.3,4.412-1.453,9.128,1.261,12.75s4.762.912,5.72-7.929a83.189,83.189,0,0,0,.409-14.892S24.459,57.155,22.824,62.708Z"/><path class="cls-31" d="M27.259,78.04c-1.834,1.7,2.546,5.078,3.26,3.451S28.452,76.933,27.259,78.04Z"/><path class="cls-31" d="M22.4,91.388c-.173,2.8,1.425,5.987,6.325,7.821a20,20,0,0,0,8.74,1.335s-5.735-1.137-8.891-3.347A38.511,38.511,0,0,1,22.4,91.388Z"/><path class="cls-30" d="M42.5,54.575c-1.617-2.142.487-5.071,3.454-6.874s3.322-1.257,2.688.318-1.606,4.9-2.994,6.556S43.453,55.842,42.5,54.575Z"/><path class="cls-30" d="M53.159,50.847c-.615-1.049.625-4.114,2.319-3.833s1.28.956.487,2.075C55.372,49.925,53.74,51.838,53.159,50.847Z"/><path class="cls-30" d="M65.414,56.1c-.577-1.19,4.146-4.829,4.784-4.449s.226,2.307-.876,3.029S65.616,56.512,65.414,56.1Z"/></g></g></g></g></svg>