<svg xmlns="http://www.w3.org/2000/svg" xmlns:xlink="http://www.w3.org/1999/xlink" viewBox="0 0 158.522 158.522"><defs><style>.cls-1{isolation:isolate;}.cls-11,.cls-12,.cls-13,.cls-14,.cls-15,.cls-16,.cls-19,.cls-2,.cls-21,.cls-22,.cls-23,.cls-3,.cls-4{mix-blend-mode:screen;}.cls-2{fill:url(#radial-gradient);}.cls-3{fill:url(#radial-gradient-2);}.cls-4{fill:url(#radial-gradient-3);}.cls-10,.cls-11,.cls-12,.cls-13,.cls-14,.cls-15,.cls-16,.cls-17,.cls-18,.cls-19,.cls-20,.cls-22,.cls-23,.cls-5,.cls-6,.cls-8,.cls-9{fill-rule:evenodd;}.cls-5{fill:url(#Áåçûìÿííûé_ãðàäèåíò_601);}.cls-6{fill:url(#Áåçûìÿííûé_ãðàäèåíò_567);}.cls-7{mix-blend-mode:soft-light;}.cls-8{fill:url(#Áåçûìÿííûé_ãðàäèåíò_567-2);}.cls-9{fill:url(#Áåçûìÿííûé_ãðàäèåíò_567-3);}.cls-10{fill:url(#Áåçûìÿííûé_ãðàäèåíò_567-4);}.cls-11{fill:url(#Áåçûìÿííûé_ãðàäèåíò_197);}.cls-12,.cls-13,.cls-14,.cls-15,.cls-16{opacity:0.3;}.cls-12{fill:url(#Áåçûìÿííûé_ãðàäèåíò_494);}.cls-13{fill:url(#Áåçûìÿííûé_ãðàäèåíò_494-2);}.cls-14{fill:url(#Áåçûìÿííûé_ãðàäèåíò_494-3);}.cls-15{fill:url(#Áåçûìÿííûé_ãðàäèåíò_494-4);}.cls-16{fill:url(#Áåçûìÿííûé_ãðàäèåíò_494-5);}.cls-17{fill:url(#Áåçûìÿííûé_ãðàäèåíò_610);}.cls-18{fill:url(#Áåçûìÿííûé_ãðàäèåíò_598);}.cls-19{fill:url(#Áåçûìÿííûé_ãðàäèåíò_575);}.cls-20{fill:#fff;}.cls-21{fill:url(#radial-gradient-4);}.cls-22{fill:url(#Áåçûìÿííûé_ãðàäèåíò_607);}.cls-23{fill:url(#radial-gradient-5);}</style><radialGradient id="radial-gradient" cx="79.261" cy="79.261" r="79.261" gradientTransform="translate(79.261 -32.831) rotate(45)" gradientUnits="userSpaceOnUse"><stop offset="0" stop-color="#ff3600"/><stop offset="1" stop-opacity="0"/></radialGradient><radialGradient id="radial-gradient-2" cx="79.261" cy="79.261" r="66.44" gradientTransform="translate(79.261 -32.831) rotate(45)" gradientUnits="userSpaceOnUse"><stop offset="0" stop-color="#ff7300"/><stop offset="1" stop-opacity="0"/></radialGradient><radialGradient id="radial-gradient-3" cx="79.261" cy="79.261" r="60.223" gradientUnits="userSpaceOnUse"><stop offset="0" stop-color="#ff7900"/><stop offset="0.183" stop-color="#fc7800" stop-opacity="0.989"/><stop offset="0.315" stop-color="#f37300" stop-opacity="0.952"/><stop offset="0.432" stop-color="#e36c00" stop-opacity="0.89"/><stop offset="0.54" stop-color="#cc6100" stop-opacity="0.802"/><stop offset="0.642" stop-color="#af5300" stop-opacity="0.688"/><stop offset="0.739" stop-color="#8c4200" stop-opacity="0.548"/><stop offset="0.832" stop-color="#622e00" stop-opacity="0.383"/><stop offset="0.92" stop-color="#321800" stop-opacity="0.196"/><stop offset="1" stop-opacity="0"/></radialGradient><radialGradient id="Áåçûìÿííûé_ãðàäèåíò_601" cx="43.798" cy="51.919" r="101.209" gradientUnits="userSpaceOnUse"><stop offset="0.006" stop-color="#ff7263"/><stop offset="0.209" stop-color="#fc6f63"/><stop offset="0.367" stop-color="#f46562"/><stop offset="0.51" stop-color="#e55560"/><stop offset="0.644" stop-color="#d03d5d"/><stop offset="0.77" stop-color="#b6205a"/><stop offset="0.877" stop-color="#9a0057"/><stop offset="0.986" stop-color="#9a00ae"/></radialGradient><linearGradient id="Áåçûìÿííûé_ãðàäèåíò_567" x1="22" y1="62.992" x2="104.368" y2="62.992" gradientUnits="userSpaceOnUse"><stop offset="0.011" stop-color="#ff9d85"/><stop offset="0.29" stop-color="#ff9a84"/><stop offset="0.494" stop-color="#ff917f"/><stop offset="0.675" stop-color="#ff8178"/><stop offset="0.841" stop-color="#ff6a6e"/><stop offset="0.997" stop-color="#ff4e61"/><stop offset="1" stop-color="#ff4d61"/></linearGradient><linearGradient id="Áåçûìÿííûé_ãðàäèåíò_567-2" x1="1570.415" y1="625.438" x2="1575.295" y2="625.438" gradientTransform="translate(1608.875 -575.716) rotate(135)" xlink:href="#Áåçûìÿííûé_ãðàäèåíò_567"/><linearGradient id="Áåçûìÿííûé_ãðàäèåíò_567-3" x1="1487.922" y1="621.52" x2="1598.92" y2="621.52" gradientTransform="translate(1608.875 -575.716) rotate(135)" xlink:href="#Áåçûìÿííûé_ãðàäèåíò_567"/><linearGradient id="Áåçûìÿííûé_ãðàäèåíò_567-4" x1="1582.887" y1="638.146" x2="1601.694" y2="638.146" gradientTransform="translate(1608.875 -575.716) rotate(135)" xlink:href="#Áåçûìÿííûé_ãðàäèåíò_567"/><radialGradient id="Áåçûìÿííûé_ãðàäèåíò_197" cx="37.416" cy="39.727" r="75.367" gradientUnits="userSpaceOnUse"><stop offset="0" stop-color="#ffff4a"/><stop offset="1"/></radialGradient><radialGradient id="Áåçûìÿííûé_ãðàäèåíò_494" cx="104.645" cy="79.528" r="41.434" gradientUnits="userSpaceOnUse"><stop offset="0" stop-color="#fff"/><stop offset="1" stop-color="#623964"/></radialGradient><radialGradient id="Áåçûìÿííûé_ãðàäèåíò_494-2" cx="80.939" cy="103.148" r="42.317" xlink:href="#Áåçûìÿííûé_ãðàäèåíò_494"/><radialGradient id="Áåçûìÿííûé_ãðàäèåíò_494-3" cx="114.416" cy="70.817" r="31.102" xlink:href="#Áåçûìÿííûé_ãðàäèåíò_494"/><radialGradient id="Áåçûìÿííûé_ãðàäèåíò_494-4" cx="73.528" cy="123.707" r="40.899" xlink:href="#Áåçûìÿííûé_ãðàäèåíò_494"/><radialGradient id="Áåçûìÿííûé_ãðàäèåíò_494-5" cx="104.956" cy="107.803" r="12.253" xlink:href="#Áåçûìÿííûé_ãðàäèåíò_494"/><linearGradient id="Áåçûìÿííûé_ãðàäèåíò_610" x1="22.845" y1="75.247" x2="133.52" y2="75.247" gradientUnits="userSpaceOnUse"><stop offset="0.011" stop-color="#ffbb85"/><stop offset="0.212" stop-color="#feb887"/><stop offset="0.36" stop-color="#f9af8c"/><stop offset="0.491" stop-color="#f19f95"/><stop offset="0.611" stop-color="#e588a2"/><stop offset="0.725" stop-color="#d76bb2"/><stop offset="0.834" stop-color="#c547c7"/><stop offset="0.936" stop-color="#b01ede"/><stop offset="1" stop-color="#a100ef"/></linearGradient><linearGradient id="Áåçûìÿííûé_ãðàäèåíò_598" x1="85.777" y1="55.541" x2="136.22" y2="55.541" gradientUnits="userSpaceOnUse"><stop offset="0.011" stop-color="#ff9d85"/><stop offset="0.226" stop-color="#fd9a87"/><stop offset="0.384" stop-color="#f8918d"/><stop offset="0.524" stop-color="#ee8198"/><stop offset="0.653" stop-color="#e16aa7"/><stop offset="0.774" stop-color="#cf4dbb"/><stop offset="0.889" stop-color="#ba2ad3"/><stop offset="0.999" stop-color="#a100ef"/><stop offset="1" stop-color="#a100ef"/></linearGradient><linearGradient id="Áåçûìÿííûé_ãðàäèåíò_575" x1="15.589" y1="101.672" x2="88.733" y2="152.888" gradientTransform="matrix(0.951, 0.141, -0.147, 0.989, 45.971, -69.659)" gradientUnits="userSpaceOnUse"><stop offset="0.017" stop-color="#ff9346"/><stop offset="0.214" stop-color="#bb6c33"/><stop offset="0.425" stop-color="#794621"/><stop offset="0.617" stop-color="#452813"/><stop offset="0.783" stop-color="#1f1209"/><stop offset="0.916" stop-color="#080502"/><stop offset="1"/></linearGradient><radialGradient id="radial-gradient-4" cx="293.227" cy="718.397" r="27.689" gradientTransform="matrix(0, 0.656, -1.115, 0, 910.155, -75.807)" gradientUnits="userSpaceOnUse"><stop offset="0.006" stop-color="#0092ff"/><stop offset="0.066" stop-color="#0085e9" stop-opacity="0.912"/><stop offset="0.267" stop-color="#005da3" stop-opacity="0.639"/><stop offset="0.457" stop-color="#003c69" stop-opacity="0.411"/><stop offset="0.631" stop-color="#00223c" stop-opacity="0.234"/><stop offset="0.785" stop-color="#000f1b" stop-opacity="0.106"/><stop offset="0.913" stop-color="#000407" stop-opacity="0.028"/><stop offset="1" stop-opacity="0"/></radialGradient><radialGradient id="Áåçûìÿííûé_ãðàäèåíò_607" cx="105.283" cy="122.734" r="36.118" gradientUnits="userSpaceOnUse"><stop offset="0" stop-color="#5e5ed9"/><stop offset="1"/></radialGradient><radialGradient id="radial-gradient-5" cx="254.482" cy="-293.038" r="19.68" gradientTransform="matrix(1.369, -0.951, 0.61, 0.878, -124.749, 548.977)" gradientUnits="userSpaceOnUse"><stop offset="0" stop-color="#fb0"/><stop offset="0.173" stop-color="#c59000" stop-opacity="0.772"/><stop offset="0.399" stop-color="#805e00" stop-opacity="0.501"/><stop offset="0.602" stop-color="#493500" stop-opacity="0.285"/><stop offset="0.777" stop-color="#211800" stop-opacity="0.13"/><stop offset="0.915" stop-color="#090700" stop-opacity="0.035"/><stop offset="1" stop-opacity="0"/></radialGradient></defs><title>planet-22</title><g class="cls-1"><g id="Layer_2" data-name="Layer 2"><g id="planets"><g id="planet-22"><circle class="cls-2" cx="79.261" cy="79.261" r="79.261" transform="translate(-32.831 79.261) rotate(-45)"/><circle class="cls-3" cx="79.261" cy="79.261" r="66.439" transform="translate(-32.831 79.261) rotate(-45)"/><circle class="cls-4" cx="79.261" cy="79.261" r="60.223"/><path class="cls-5" d="M136.52,78.7a57.2,57.2,0,0,1-57.265,57.253c-1.015,0-2.042-.024-3.046-.084H76.2c-1.5-.073-2.985-.218-4.447-.4A56.894,56.894,0,0,1,42.5,122.589a58.345,58.345,0,0,1-13.307-16.075c-.351-.628-.689-1.269-1.028-1.91,0-.024-.012-.036-.024-.06-.35-.689-.677-1.378-.991-2.079h-.012A54.9,54.9,0,0,1,24.577,95.7a51.443,51.443,0,0,1-1.342-5.125.072.072,0,0,1-.012-.048c-.254-1.221-.471-2.454-.641-3.7A56.462,56.462,0,0,1,22,78.7c0-1.583.061-3.166.206-4.713.072-.991.181-1.97.314-2.949A56.131,56.131,0,0,1,27.1,55.05,57.309,57.309,0,0,1,79.255,21.439c.605,0,1.209.012,1.8.024.641.024,1.281.048,1.922.1a57.007,57.007,0,0,1,9.608,1.451c1.813.435,3.59.942,5.33,1.547,1.185.4,2.345.846,3.493,1.329.859.363,1.692.737,2.526,1.136.145.073.29.133.436.206a57.38,57.38,0,0,1,14.974,10.587c.629.605,1.233,1.233,1.838,1.874.4.435.8.882,1.184,1.329.665.75,1.3,1.535,1.934,2.321A57.1,57.1,0,0,1,134.84,64.9,57.085,57.085,0,0,1,136.52,78.7Z"/><path class="cls-6" d="M104.368,27.231a5.465,5.465,0,0,0-.566.08,3.659,3.659,0,0,1-1.788-.119,10.636,10.636,0,0,0-1.272-.4c-.7-.109-1.341-.407-2.036-.5a10.214,10.214,0,0,1-2.066-.636,1.941,1.941,0,0,0-1.36,0,1.939,1.939,0,0,1-1.361-.278,7.442,7.442,0,0,0-1.609-.377c-1.45-.3-2.89-.765-4.331-1.133a10.671,10.671,0,0,0-2.632-.238c-.715-.01-1.36.2-2.075.2a8.995,8.995,0,0,1-1.361-.15c-.487-.089-.983.01-1.47-.059a3.432,3.432,0,0,0-1.848.01,5.31,5.31,0,0,1-1.519.189,11.125,11.125,0,0,0-1.887.327,14.08,14.08,0,0,1-3.347.427,7.863,7.863,0,0,0-2.315.04c-.417.149-.625.6-.913.894A17.617,17.617,0,0,0,66.9,27.251a3.5,3.5,0,0,0-.953,2.126,6.351,6.351,0,0,0,.675,2.175c.318.685.427,1.311-.278,1.768a10.863,10.863,0,0,1-2.92,1.41,1.784,1.784,0,0,1-1.847-.169c-.209-.179-.338-.526-.6-.665s-.547,0-.835.089a18.175,18.175,0,0,1-2.135.566c-.447.07-.834.308-1.271.388-.527.1-.9-.288-1.45-.159a13.373,13.373,0,0,1-2.325.536,3.44,3.44,0,0,1-1.758-.506c-.278-.159-.347-.318-.665-.229a1.773,1.773,0,0,0-.785.576c-.189.268-.258.616-.447.894-.2.308-.387.606-.566.934a13.447,13.447,0,0,1-1.132,1.8c-.3.4-.507.933-.834,1.3a3.98,3.98,0,0,1-.755.486c-.6.417-1.222.8-1.8,1.242-1.112.874-2.165,1.837-3.3,2.682a14.316,14.316,0,0,1-3.059,1.43c-.615.248-1.251.427-1.867.685a2.87,2.87,0,0,0-.735.318,5.5,5.5,0,0,0-.536.8,13.344,13.344,0,0,0-1.51,2.066,7.4,7.4,0,0,0-.556,1.36c-.219.646-.566,1.242-.785,1.887-.447,1.351-.536,2.762-1.033,4.1a21.764,21.764,0,0,1-1.062,2.215,12.324,12.324,0,0,0-.884,3.993,8.427,8.427,0,0,0,.079,2.453,13.343,13.343,0,0,1,.1,2.523,4.176,4.176,0,0,1-1.142,2.443c-.516.626-1.3.864-1.877,1.421a4.466,4.466,0,0,0-1.281,1.7,7.4,7.4,0,0,0-.06.953c-.129.706-.308,1.371-.407,2.086a20.876,20.876,0,0,0-.129,2.612c0,.447-.03.9-.01,1.351.02.427.179.825.208,1.252.02.3-.039.6,0,.894.06.337.189.685.269,1.013.2.794.347,1.569.5,2.364a18.787,18.787,0,0,0,.656,2.175,23.557,23.557,0,0,1,.715,2.989c.149.755.139,1.54.248,2.3.09.616.229,1.241.258,1.857.03.934-.2,1.867-.208,2.811a20.323,20.323,0,0,0,.993,4.708c.109.427.218.864.338,1.291a57.273,57.273,0,0,1,51.111-83.1c1.251,0,2.483.04,3.715.119A56.742,56.742,0,0,1,104.368,27.231Z"/><g class="cls-7"><path class="cls-8" d="M55.883,99.073c-.8-2.881-1.793-6.3-2.84-9.741C53.879,92.735,54.834,96.018,55.883,99.073Z"/><path class="cls-9" d="M54.173,130.316s2.271-17.5,4-17.5c1.35,0,3.634,2.642,8.266,6.161l0,0h0c1.3.983,2.761,2.03,4.455,3.113a50.189,50.189,0,0,0,5.3,2.853h0c3.411,1.621,7.358,3.224,10.917,4.579h0c5.623,2.141,10.271,3.665,10.271,3.665l.9-.648a88.047,88.047,0,0,1-9.36-2.667,148.507,148.507,0,0,1,12.723-17.3c7.14-8.212,34.572-27.5,34.572-27.5l.233-2.726s-7.83,6.475-16.508,13.357c0-.014,5.806-39.889,7.641-46.257l-1.836-.756s-4.308,39.334-9.117,49.624c-8.279,6.494-16.531,12.671-18.91,13.446-5.219,1.7-24.351-13.666-24.376-13.685-.495-15.818-.129-33.45,1.181-38.05a174.3,174.3,0,0,1,38.19-27.676l-.885-.886s-18.626,13.1-19.17,10.588S104.4,26.907,104.4,26.907l-1.391-.2A412.948,412.948,0,0,1,70.478,62.775C57.211,75.815,52.767,79.769,51.294,80.969,48.9,67.262,48.737,52.885,52.765,43.6c7.548-17.389,18-21.368,18-21.368a28.406,28.406,0,0,0-5.362.866,112.247,112.247,0,0,0-7.449,9.824c-2.213,3.616-5.191,10.678-6.963,9.554s-7.213-8.671-7.213-8.671l-.658.658s5.253,4.909,6.144,8.715S49.373,70.332,47,69.468s-19.36-15.346-19.36-15.346l-.572,1.234S44.785,67.471,47.014,71.738c1.1,2.109,3.687,9.9,6.029,17.594-.268-1.09-1.133-4.912-.755-6.586,5.971-8.834,12.664-13.289,19.37-19.939,1.456,8.185,1.4,37.057,1.275,51.408l-6.59,3.277a27.6,27.6,0,0,1-4.933-5.976,67.984,67.984,0,0,1-5.527-12.443,53.859,53.859,0,0,1,1.722,7.342c.047,2.848-4.351,23.439-4.351,23.439ZM119.805,95.81q-1.511,1.2-3.039,2.4ZM73.368,98.736l.038,1.148C73.393,99.5,73.381,99.119,73.368,98.736Zm.043,1.277c.016.009,18.349,11.409,21.39,13.48,2.819,1.918-6.171,14.022-7.516,15.8a80.974,80.974,0,0,1-11.42-5.084C74.638,120.872,73.811,111.057,73.411,100.013Zm-.48,14.369v0Zm-.009.948c-.041,4.327-.085,7.09-.085,7.1a44.831,44.831,0,0,1-5.6-4.131C68.44,117.316,70.823,115.585,72.922,115.33Z"/><path class="cls-10" d="M40.035,94.459C37.4,90.568,22.084,76.781,22.084,76.781l-.014,3.641s13.877,8.2,17.642,15.009-.2,24.605-.2,24.605L41,121.522S43.868,100.127,40.035,94.459Z"/></g><path class="cls-11" d="M45.3,123.421a57.433,57.433,0,0,1-14.352-18.047A56.674,56.674,0,0,1,26.035,91.4a.075.075,0,0,1-.01-.05A57.942,57.942,0,0,1,24.8,79.531a57.262,57.262,0,0,1,57.26-57.259c1.251,0,2.483.039,3.714.119a57,57,0,0,1,11.287,1.876,56.886,56.886,0,0,0-14.09-2.707c-1.232-.079-2.464-.119-3.715-.119A57.238,57.238,0,0,0,22,78.7a57.945,57.945,0,0,0,1.221,11.82.073.073,0,0,0,.01.049,56.667,56.667,0,0,0,4.917,13.975A57.468,57.468,0,0,0,64.3,133.978,57.1,57.1,0,0,1,45.3,123.421Z"/><path class="cls-12" d="M66.646,22.81S71.5,74.752,72.922,79.168s14.36,12.518,19.655,13.51,18.709,5.871,22.209,5.732,18.734-1.4,18.734-1.4l2.1-8.159S107.2,66.884,97.138,46.789s-9.836-24.8-9.836-24.8l-4.328-.431s10.912,21.006,14.09,31.232,16.71,20.32,22.741,26.2,4.289,16.217-3.039,15.712-32.388.929-38.583-17.986a149.9,149.9,0,0,1-6.912-29.933A205.008,205.008,0,0,0,66.646,22.81Z"/><path class="cls-13" d="M24.284,62.659s19.583,7.524,27.064,12.588,27.633,10.9,31.908,15.308,11.46,12.7,10.839,16.626-26.013,1.138-36.136-2.637S30.89,93.01,28.6,89.332a19.725,19.725,0,0,0-6.408-5.941l.654,5.147s25.3,16.631,28.655,18.018,37.966,7.8,47.67,6.049c0,0,4.543-3.89-12.251-20.52-6.746-6.68-18.855-12.108-30.044-17.215C40.21,67.262,24.683,61.388,24.683,61.388Z"/><path class="cls-14" d="M93.812,23.318S95.132,38.153,100,50.369s14.206,14.286,18.286,18.8,14.783,10.517,18.235,8.121l-.3,9.436S97.952,71.469,87.3,21.991Z"/><path class="cls-15" d="M33.343,112.906a97.383,97.383,0,0,1,36.175-1.439c25.777,3.863,31.142,5.79,33.432,8.538s3.138,9.289,3.138,9.289l2.812-1.611s-1.436-12.715-4.532-14.777S77,115.093,51.5,106.556l-21.365,1.581Z"/><path class="cls-16" d="M109.546,97.445c-1.1-2.936-17.091-6.841-19.73-4.715-2.181,1.756,12.079,18.288,15.577,18.725S110.645,100.382,109.546,97.445Zm-5.832,9.111c-4.123-.776-13.527-10.4-11.451-12.354,1.722-1.622,14.5,2.6,15.42,4.983S107.836,107.333,103.714,106.556Z"/><path class="cls-17" d="M74.478,80c-1.257-4.388-7.832-57.193-7.832-57.193L65.4,23.1s10.377,51.724,1.675,53.191c-6.845,1.154-42.007-16.135-42.007-16.135l-.785,2.5s43.776,13.609,60.093,27.9a93.349,93.349,0,0,1,14.153,15.8,3.777,3.777,0,0,1-3.046,5.983c-44.913.35-72.639-23.8-72.639-23.8l.375,1.982s27.436,14.491,24.692,16.039-18.721-.049-18.721-.049l.942,1.632a147.624,147.624,0,0,1,29.394,1.22c13.96,1.922,37.552,4.847,44.587,5.717,3.662,6.479,5.39,11.482,4.786,12.606l2.731-1.752c-4.52-12.618-3.493-26.771,3.155-27.521s17.634,1.608,17.634,1.608l1.1-3.01C96.838,98.749,75.735,84.4,74.478,80Zm-1.752,1.68c-1.076.036-5.149-2.985-4.666-3.469.423-.423,3.052-6.158,3.9-5.384S73.789,81.647,72.726,81.683ZM49.435,106.557s.23-.822.617-.98,7.856,2.442,7.409,2.744S49.435,107.487,49.435,106.557Zm56.878,3.263c-2.755-.218-19.374-15.773-16.5-17.09,2.078-.955,17.029,2.6,18.322,5.475S109.057,110.025,106.313,109.82Z"/><path class="cls-18" d="M85.777,22.391s3.953,17.015,19.577,38.164,30.267,28.294,30.267,28.294l.6-3.78S122.8,82.906,107.053,62.01c-18.4-24.428-18.261-39.776-18.261-39.776Z"/><path class="cls-19" d="M23.586,73.25c.773,11.657,27.184-7.38,52.678-15.918C106.2,47.309,128.723,68.69,132.038,67.5c5.191-1.865-15.842-44.423-49.9-43.678C43.773,24.662,22.339,54.434,23.586,73.25Z"/><path class="cls-20" d="M28.21,63.6c-.046,2.184,5.317.207,10.333-6.212s8.7-21,7.1-22.661S28.526,48.471,28.21,63.6Z"/><path class="cls-20" d="M27.9,66.739c-2.568-.04-3.485,4.79-2.327,7.179s3.361,1.814,4.346-2.386C30.529,68.945,30.024,66.773,27.9,66.739Z"/><ellipse class="cls-21" cx="108.9" cy="116.502" rx="30.882" ry="18.158" transform="translate(-43.661 70.059) rotate(-30)"/><path class="cls-22" d="M52.917,127.088s27.176,9.465,53.129-4.885,30.229-46.724,30.229-46.724S133.09,113.55,108.031,125.7,64.215,134.111,52.917,127.088Z"/><path class="cls-23" d="M71.8,31c6.629,9.539-.058,25.653-14.936,35.993S24.552,77.979,17.923,68.44s.057-25.654,14.935-35.993S65.171,21.458,71.8,31Z"/></g></g></g></g></svg>